<svg id="图层_1" data-name="图层 1" xmlns="http://www.w3.org/2000/svg" viewBox="0 0 100 100"><title>logohunt02</title><path d="M37.43,50.43q0-3.32,0-6.63c0-2.17,1.21-3.51,3.33-4.17a19.06,19.06,0,0,1,6-.53c1,0,1.74.1,1.72-1.34,0-.92,1-.93,1.75-.93s1.28.26,1.16,1.13c-.14,1,.47,1.13,1.26,1.14,2.25,0,4.51-.19,6.73.5a4.55,4.55,0,0,1,3.46,4.3c-.1,4.41,0,8.84,0,13.25,0,1.56,0,1.56,1.58,1.57h1.2c1.57,0,1.57,0,1.55,1.61,0,1.36,0,1.41-1.46,1.41-4.26,0-8.53,0-12.8,0-1.48,0-1.48,0-1.49,1.48,0,.61,0,1.21,0,1.81a4.19,4.19,0,0,1-3.66,4.33c-2.4.45-4.81.15-7.22.22-1.1,0-2.21,0-3.31,0-1.3,0-1.41-.28-1.45-1.7,0-1.09.44-1.39,1.44-1.37,2.71,0,5.43,0,8.14,0a9.58,9.58,0,0,0,1.2,0c1.38-.19,1.86-.75,1.88-2.15,0-2.6,0-2.6-2.48-2.6H34.61a1.68,1.68,0,0,1-1.51-2.57.79.79,0,0,1,.85-.45c.71,0,1.41,0,2.11,0,1,.09,1.43-.29,1.4-1.37-.07-2.3,0-4.62,0-6.93Zm22.41.46V44.73c0-1.83-.63-2.53-2.46-2.59-1.6,0-3.21,0-4.81,0-.89,0-1.23.29-1.22,1.23,0,4.76,0,9.53,0,14.29,0,.87.32,1.11,1.14,1.1,2,0,4.11-.06,6.17,0,1,0,1.2-.35,1.19-1.23C59.81,55.31,59.84,53.1,59.84,50.89Zm-11.46-.36c0-2.36,0-4.72,0-7.08,0-.6.09-1.3-.82-1.31-1.76,0-3.53-.07-5.27.07a1.8,1.8,0,0,0-1.88,1.93c0,4.47,0,8.94,0,13.41,0,.92.39,1.21,1.29,1.18,1.8,0,3.62-.06,5.42,0,1,0,1.33-.28,1.31-1.27C48.35,55.16,48.38,52.84,48.38,50.53Z"/><path d="M37.47,34.42H36c-1.63,0-1.63,0-1.64-1.37s.19-1.59,1.7-1.63c1.1,0,2.21,0,3.31,0,.5,0,1,0,1.09-.73.08-.88.8-.61,1.28-.6s1.47-.37,1.65.53.76.79,1.34.79l9.5,0a6.25,6.25,0,0,1,1.5,0c.7.17,1.07,0,1-.74a.59.59,0,0,1,.78-.65c.82.17,2.13-.68,2.29,1.05,0,.37.59.27.93.28,1.06,0,2.11,0,3.17,0,1.61,0,2.27,1,1.73,2.5-.18.5-.6.48-1,.48-1.26,0-2.51,0-3.77,0A1.22,1.22,0,0,0,59.7,35a2.1,2.1,0,0,1-2.87,0c-.35-.57-.76-.55-1.25-.55H44.88a1.78,1.78,0,0,0-1.26.33,2.23,2.23,0,0,1-3.33,0C39.34,34,38.22,34.67,37.47,34.42Z"/><path d="M60.73,67.87A2.11,2.11,0,0,1,58.54,70a2.25,2.25,0,0,1-2.19-2.33,2.81,2.81,0,0,1,2.22-2.22A2.5,2.5,0,0,1,60.73,67.87Z"/></svg>