<svg id="图层_1" data-name="图层 1" xmlns="http://www.w3.org/2000/svg" viewBox="0 0 100 100"><title>logohunt03</title><path d="M34,28.41q11.82,8.81,12.1,20.27a31.31,31.31,0,0,0-4,9.9c0,.25-.11.55-.15.8-.11-.29-.26-.55-.37-.8-1.64-3.7-4.28-5.83-7.84-6.45,2.31.77,4.25,2.89,5.87,6.45a36.74,36.74,0,0,1,1.83,5c.4,1.25.84,2.46,1.32,3.59,1.54,3.63.44,6.93-3.3,10H54.82A41,41,0,0,1,52,73l-2-4.07c-.08-.22-.15-.44-.22-.62a1.07,1.07,0,0,1-.11-.26,1.42,1.42,0,0,1-.07-.22,28.45,28.45,0,0,1-1.4-6.26,27.31,27.31,0,0,1,1.36-3A21.05,21.05,0,0,1,61.71,48c-5,.73-9.42,3.26-13.49,7.55q3.3-13.41,18-32.69C55.85,33.65,50,40.84,48.66,44.43q-4.39-13.3-14.66-16"/></svg>