<svg id="图层_1" data-name="图层 1" xmlns="http://www.w3.org/2000/svg" viewBox="0 0 100 100"><title>logohunt03</title><path d="M66.66,42.06A17.46,17.46,0,0,0,71.5,28a17.51,17.51,0,0,0-14.69,4.75h0l0,0a6.78,6.78,0,1,0,9.59,9.59l.11-.12.19-.17"/><path d="M66.66,61.89A17.46,17.46,0,0,0,71.5,47.8a17.51,17.51,0,0,0-14.69,4.75h0l0,0a6.78,6.78,0,0,0,9.59,9.6l.11-.12.19-.17"/><path d="M33.34,51A17.46,17.46,0,0,1,28.5,36.91a17.55,17.55,0,0,1,14.69,4.75h0l0,0a6.78,6.78,0,1,1-9.59,9.59l-.11-.12L33.34,51"/><path d="M33.34,70.83A17.46,17.46,0,0,1,28.5,56.74a17.51,17.51,0,0,1,14.69,4.75h0l0,0a6.78,6.78,0,1,1-9.59,9.6L33.53,71l-.19-.17"/><rect x="47.57" y="26.89" width="4.87" height="46.12"/></svg>