<svg id="图层_1" data-name="图层 1" xmlns="http://www.w3.org/2000/svg" viewBox="0 0 100 100"><defs><style>.cls-1{fill:#231815;}</style></defs><title>logohunt01</title><path class="cls-1" d="M36.41,52.22l.29.28c0-.25.09-.51.15-.76l-.44-.45v.93"/><path class="cls-1" d="M36.41,49.79l.75.75c.07-.24.14-.47.22-.71l-1-1v.92"/><path class="cls-1" d="M36.41,47.36l1.38,1.38c.08-.22.18-.43.27-.65l-1.65-1.65v.92"/><path class="cls-1" d="M36.41,44.94l2.15,2.15a5.76,5.76,0,0,1,.33-.6L36.41,44v.93"/><path class="cls-1" d="M36.41,42.51l3.05,3.05c.12-.19.24-.37.37-.55l-3.42-3.43v.93"/><path class="cls-1" d="M36.41,40.08l4.07,4.07.41-.51-4.48-4.48v.92"/><path class="cls-1" d="M36.44,37.69l5.17,5.16c.15-.15.3-.31.46-.46l-5.56-5.56c0,.29,0,.57-.07.86"/><path class="cls-1" d="M36.7,35.52l6.15,6.15.51-.42-6.51-6.5c-.06.25-.11.51-.15.77"/><path class="cls-1" d="M37.16,33.55l7.05,7.05.55-.38-7.38-7.38c-.08.24-.15.47-.22.71"/><path class="cls-1" d="M37.79,31.75l7.89,7.9.59-.34L38.06,31.1c-.09.22-.19.43-.27.65"/><path class="cls-1" d="M38.56,30.1l8.71,8.71.65-.28-9-9a5.76,5.76,0,0,0-.33.6"/><path class="cls-1" d="M39.46,28.57,49,38.12l.7-.23L39.83,28c-.13.18-.25.36-.37.55"/><path class="cls-1" d="M40.48,27.16,50.89,37.58l.77-.16L40.89,26.65l-.41.51"/><path class="cls-1" d="M41.61,25.87,53,37.22l.84-.07L42.07,25.4c-.16.15-.31.31-.46.47"/><path class="cls-1" d="M42.85,24.68,55.27,37.1c.29,0,.58,0,.86-.06L43.36,24.26l-.51.42"/><path class="cls-1" d="M44.21,23.61,57.38,36.79c.24-.07.47-.14.7-.23L44.76,23.23l-.55.38"/><path class="cls-1" d="M45.68,22.66,59.12,36.09l.58-.34L46.27,22.32c-.2.11-.4.22-.59.34"/><path class="cls-1" d="M47.27,21.82,60.56,35.11c.17-.14.33-.29.48-.44L47.92,21.54l-.65.28"/><path class="cls-1" d="M49,21.13,61.76,33.88c.13-.17.27-.35.39-.53L49.71,20.9l-.7.23"/><path class="cls-1" d="M50.89,20.59,62.7,32.39c.1-.2.2-.42.29-.63L51.66,20.43l-.77.16"/><path class="cls-1" d="M53,20.23,63.35,30.62c.06-.26.11-.51.15-.78l-9.69-9.68-.84.07"/><path class="cls-1" d="M56.28,20.2a6.63,6.63,0,0,0-1-.08l8.31,8.31c0-.34,0-.68-.08-1L56.28,20.2"/><path class="cls-1" d="M58.34,20.75,63,25.36a8.57,8.57,0,0,0-4.61-4.61"/><path class="cls-1" d="M55.1,37.1h0A18.69,18.69,0,0,0,36.41,55.79V71.54h0a8.49,8.49,0,1,0,.47-3A18.71,18.71,0,0,1,55.1,54.09a8.5,8.5,0,0,0,0-17"/></svg>