<svg id="图层_1" data-name="图层 1" xmlns="http://www.w3.org/2000/svg" viewBox="0 0 100 100"><defs><style>.cls-1{fill-rule:evenodd;}</style></defs><title>logohunt03</title><polygon points="61.27 61.07 66.01 67.54 65.99 59.97 62.55 56.89 61.27 61.07"/><path d="M51.86,30.3a3.9,3.9,0,0,0-2,1.91c-2.7,4.67-2.48,12.24-.43,17.06a18,18,0,0,0,6.74,8.12A15.83,15.83,0,0,0,66,60l0,7.58c-13.21-.41-19.89-8.07-22-16.69-1.3-5.38-.74-14.62,3.32-18.89a5.13,5.13,0,0,1,2.93-1.6,7.71,7.71,0,0,1,1.58-.06"/><path d="M35,70.2c8.82-7.64,16.09-15.71,18.73-27.37.76-3.4.83-6.87-.83-9.67A4,4,0,0,0,48.86,31a2.94,2.94,0,0,0-.8.22,5.46,5.46,0,0,1,2.22-.9,4.79,4.79,0,0,1,3.2.45c2.23,1.25,3.57,3.58,3.91,6.82,1.36,13.14-7.94,30.3-15.92,40Z"/><path class="cls-1" d="M53.67,25.87c0,1.95-1.19,3.54-2.72,3.56S48.15,27.9,48.13,26s1.19-3.54,2.72-3.57,2.79,1.54,2.82,3.49"/><path class="cls-1" d="M35,70.2a6.6,6.6,0,0,1-1-4.34l7.23,5.6c-1.14,1.43-.6,4.74.19,6.16-2.12-2.45-4.32-5-6.43-7.42"/></svg>