<svg id="图层_1" data-name="图层 1" xmlns="http://www.w3.org/2000/svg" viewBox="0 0 100 100"><defs><style>.cls-1{fill:#231815;}</style></defs><title>logohunt01</title><path class="cls-1" d="M36.72,50A28.35,28.35,0,0,1,65.07,21.65V19.86a30.14,30.14,0,1,0,0,60.28V78.35A28.35,28.35,0,0,1,36.72,50"/><path class="cls-1" d="M41.81,50A23.26,23.26,0,0,1,65.07,26.74v-1.8a25.06,25.06,0,1,0,0,50.12v-1.8A23.26,23.26,0,0,1,41.81,50"/><path class="cls-1" d="M46.9,50A18.17,18.17,0,0,1,65.07,31.82V30a20,20,0,1,0,0,39.94V68.18A18.17,18.17,0,0,1,46.9,50"/><path class="cls-1" d="M52,50A13.09,13.09,0,0,1,65.07,36.91V35.12a14.89,14.89,0,0,0,0,29.77v-1.8A13.09,13.09,0,0,1,52,50"/><path class="cls-1" d="M57.08,50a8,8,0,0,1,8-8V40.2a9.8,9.8,0,1,0,0,19.6V58a8,8,0,0,1-8-8"/></svg>