<svg id="图层_1" data-name="图层 1" xmlns="http://www.w3.org/2000/svg" viewBox="0 0 100 100"><defs><style>.cls-1{fill:#231815;}</style></defs><title>logohunt01</title><path class="cls-1" d="M69.75,76.44a17.19,17.19,0,0,1-1.15-1.6c-.59-1.08-.84-2.85-1.41-4.25-1.31-3.2-1.42-3.74-7-10.47-.88-1-1.86-2.06-1.86-2.06-2.79-3.49-6.28-7.08-8.46-10-1-1.34-2.89-3.32-4.18-4.88l.95-1L63.25,22.71c.49-.48.28-1.11-.27-1.11H53.55a2,2,0,0,0-1.39.83L37.88,40.81V22.43a.8.8,0,0,0-.83-.83H30.32a.8.8,0,0,0-.83.83V68a.8.8,0,0,0,.83.83h6.73a.8.8,0,0,0,.83-.83V52.11l1.27-1.54a54.17,54.17,0,0,0,6.61,4.72c2.29,1.41,4.31,2.61,5.93,3.84,2.79,2.28,6.8,5.26,6.4,6.86-.2.78-1.3,2.54-.45,3.85,1.2,1.83,4.15,1.81,5.1,2.56,1.54,1.21.59,4,3.26,5.27,3,1.49,4.44.29,4.5-.1s-.4-.65-.75-1.13"/></svg>