<svg id="图层_1" data-name="图层 1" xmlns="http://www.w3.org/2000/svg" viewBox="0 0 100 100"><defs><style>.cls-1{fill:#231815;}</style></defs><title>logohunt02</title><path class="cls-1" d="M55.12,56.87A18,18,0,0,0,52.6,48c-.28-.31-.52-.67-.81-1a5.77,5.77,0,0,1,.81,1l.09.11c-.3-.49-1.22-2-1.89-1.9-.46.07-1.26,2.15-1.63,3.25-1.25,3.76-1.51,8.38-1.71,12.89a42.5,42.5,0,0,0-.09,5.32c.09,1.07.08,2.24.08,3.38l.26.15.1,0c0-.33,0-.65,0-1,.36-7.83.4-16.64,3.16-21.9a21.58,21.58,0,0,1,3.69,13.25,73.13,73.13,0,0,1-1.18,8.88l.72-.42A16,16,0,0,0,54.67,68a66.72,66.72,0,0,0,.45-11.09M52.78,45.06a24.15,24.15,0,0,1-.72-2.79,26,26,0,0,1-.63-3,106.44,106.44,0,0,1-.06-10.87,3.12,3.12,0,0,0-.44-.09c0,1.93,0,3.86,0,5.82,0,1.39.22,2.81.09,4.15a34,34,0,0,1-2.35,8.11,32.52,32.52,0,0,0-2.07,8.48c-.44,4.87-.68,10-.65,15.35l.57.32c.23-7.58.38-15.8,2.24-21.8.79-2.53,1.88-4.92,2.17-7.57,1,5.69,4.55,9,4.86,15.59a55,55,0,0,1-.18,9.83,27.36,27.36,0,0,1-.61,3l.24-.14a44.42,44.42,0,0,0,.91-5.95,55.41,55.41,0,0,0-.09-9.82C55.69,50,53.76,48,52.78,45.06Zm-3.07-8.92c.17-2.55.12-5.19.09-7.89l-.36,0a62.3,62.3,0,0,1-.63,11.65,33.21,33.21,0,0,1-1.08,5.14c-.55,1.48-1.72,2.54-1.62,4.33a14,14,0,0,1,1.26-3.16,38.57,38.57,0,0,0-2.79,13.25c-.18,3.21-.12,6.62-.06,9.9l.82.47c0-.42,0-.85,0-1.26.29-7.25-.2-14.75,1.8-20.28A43.33,43.33,0,0,0,49.71,36.14Zm-13.43,11c-1.07-3.24-2.5-6.18-3.35-9.82l-.16.09-.12.08a82.13,82.13,0,0,0,2.37,8,51,51,0,0,1,2.34,11.81c.24,2.65.47,5.42.6,8.27l1,.56c-.08-2.12-.22-4.19-.38-6A59.37,59.37,0,0,0,36.28,47.14ZM34.19,44.8c.17-1.86-2-4.22-2.76-6.11A5.67,5.67,0,0,0,30.74,40a4.45,4.45,0,0,0,.31.73c.42.73,1.18,1.06,1.63,1.81a22.69,22.69,0,0,1,2.16,7.12A105.71,105.71,0,0,1,36.5,64.75l.35.2C36,55.09,34.36,44.67,34.19,44.8ZM51.25,58.13c-1.59,1.95-1.22,6.8-.45,9.38a19.54,19.54,0,0,0,1.26-6.13A7.37,7.37,0,0,0,51.25,58.13Zm11-10.63c.2-4.14.83-8.23,1.19-12.28L63,34.94a11.81,11.81,0,0,1-.17,2.1c-1.87,8.46-1,19.22-.18,28.12v.1l1-.56c-.17-1.32-.36-2.64-.53-4A73.16,73.16,0,0,1,62.24,47.5Zm2.89,1.35c-.27-4,.89-7.77,1.69-11.67l-1.12-.65C64.34,42.1,63.44,49.31,65.22,55a27.92,27.92,0,0,1,1.53,5.86c.07.64.12,1.29.16,1.94l.32-.18a3.62,3.62,0,0,0,.32-.22,34.09,34.09,0,0,0-1.16-7.67A27.13,27.13,0,0,1,65.13,48.85ZM63.78,55c-1.27-6.07-.38-13,.23-19.43l-.37-.21c0,.14,0,.3,0,.44-.06.44-2.2,14.82-.91,21.09.53,2.54,1.14,4.88,1.55,7.45l.81-.46c-.06-1-.12-1.92-.19-2.84A50.18,50.18,0,0,0,63.78,55ZM50.3,71.75c.13,0,.25,0,.37,0,0-.54-.1-1.06-.14-1.51A12.28,12.28,0,0,0,50.3,71.75Zm9.91-38.39-.69-.4c0,5.35,0,10.68.2,16.16a172.69,172.69,0,0,1,.12,17.74l.46-.26c.19-6,.3-12,.05-17.84C60.14,43.75,60.2,38.51,60.21,33.36ZM51,51.64s0-.11-.09-.09c-1.56,2.79-1.82,6.9-2,11.27-.11,3-.1,6,0,8.83a4.06,4.06,0,0,0,.7.09c0-.73,0-1.46.11-2.16A8.64,8.64,0,0,0,50,68.14a11.56,11.56,0,0,0-.45-1.8A19.74,19.74,0,0,1,51.07,55a14.42,14.42,0,0,1,2.07,8.2c-.19,3-2,5.48-1.89,8.38v.06a3.81,3.81,0,0,0,1-.4l.26-.15a59.35,59.35,0,0,0,1-6.36C53.91,59.44,53,54.93,51,51.64Zm-20.5,7A4.49,4.49,0,0,0,31,60.5a16.68,16.68,0,0,0-.47-2.34Zm3.73-8.25c0-.16.25-.45,0-.54,0,.13,0,.34-.09.18a35.3,35.3,0,0,0-.9-3.52c0-.15-.06-.67,0-.27-.07-.44,0-.37-.18-.36a8.15,8.15,0,0,0-2.56-4v2.22c3.91,4.13,4.52,12.18,4.87,20l.41.23a133.26,133.26,0,0,0-1.37-13.94C34.34,50,34.26,50.74,34.21,50.38ZM44.85,49.3c.48-2,1.3-4,1.8-6.13a85.79,85.79,0,0,0,2-14.75c-.12,0-.25.07-.37.12,0,.61-.11,1.22-.16,1.83a60,60,0,0,1-.9,8.38,86,86,0,0,1-2.7,8.39C43.06,51.32,43,56.79,43,62.64c0,2,0,3.93,0,5.81l.73.42c0-4.61.13-9,.49-13.35A42,42,0,0,1,44.85,49.3ZM56.38,31.15l-.88-.51c0,1.51,0,3,.07,4.6a87.52,87.52,0,0,0,1.54,13.25,72.78,72.78,0,0,1,.6,19.6l.69-.39a104.45,104.45,0,0,0,.15-12.27C58.19,47,57,39.41,56.38,31.15Zm-11.07-1-.49.28c-.7,4-1.81,7.68-3.67,10.28a29.81,29.81,0,0,1-3.32-6.24L37,35a36.62,36.62,0,0,0,4.29,9.79C43.47,40.91,44.56,35.66,45.31,30.17ZM69.52,58.63V53.88c-.39,2.31-.67,4.77-.87,7.32A4.83,4.83,0,0,0,69.52,58.63ZM67.78,37.81c-1.09,2.92-2.29,7-2,10.68a14.18,14.18,0,0,0,1.62,5.68c.27.45.76,1.19,1.08,1.08A34.38,34.38,0,0,0,69.52,50V41.38A5.17,5.17,0,0,0,67.78,37.81ZM55,44.88c-1.25-4.25-1.15-9.67-1.18-15.19L53,29.22c0,1.42.07,2.83.1,4.21.08,4-.18,7.85.9,11.09.73,2.21,1.82,4.22,2.35,6.67a57.79,57.79,0,0,1,.37,17.45l.43-.25c.08-1.45.12-3,.19-4.49.18-4.13.37-8.92-.27-12.62C56.72,49,55.67,47,55,44.88ZM30.48,53.19c.18,1,.45,1.91.66,2.87a43.46,43.46,0,0,1,.91,6,4.58,4.58,0,0,0,.72.55h0c-.15-4.92-.1-9.68-2.31-12.16Zm0-6.1v1.08c.32.63,1,1,1.39,1.67,1.64,2.75,2.21,8.31,2.23,13.53l.54.31c0-.77,0-1.54-.07-2.3C34.36,55.35,34.22,49.31,30.48,47.09Zm1.21,1.13c-.44-.14-.56-.59-1-.72.8.1,1.44,1.14,1.9,1.89C32.34,49.3,31.93,48.6,31.69,48.22Zm2-1.08c-.21-.19-.15-.64-.36-.82C33.35,46.61,33.48,47.29,33.67,47.14Zm9.5-15.74-.83.48a28.72,28.72,0,0,1-1.19,2.63c-.28-.46-.56-.95-.83-1.46l-.5.29a23.32,23.32,0,0,0,1.24,2.26A7.06,7.06,0,0,0,43.17,31.4Zm1.95,10a51.6,51.6,0,0,0,2-12.25l-.43.25a90.5,90.5,0,0,1-2,10.46c0-.06-2.87,8.37-3.52,13-.92-5.22-3.47-9.39-4.78-14.51-.21-.85-.4-1.74-.58-2.63l-.57.32a94.6,94.6,0,0,0,3.41,11.33,32.84,32.84,0,0,1,1.71,6,53.55,53.55,0,0,1,.36,7.39c0,2,.14,4.3.2,6.54l.83.48c0-7.51.15-14.79,1.58-20.82C43.77,45,44.49,43.28,45.12,41.37Z"/></svg>