<svg id="图层_1" data-name="图层 1" xmlns="http://www.w3.org/2000/svg" viewBox="0 0 100 100"><defs><style>.cls-1{fill:#030000;}</style></defs><title>logohunt02</title><path class="cls-1" d="M58.56,70.72C66.17,70.72,74,63.31,74,51.08a22.8,22.8,0,0,0-7.48-16.84c-4-3.63-9.71-5.94-16.7-5.94a24.13,24.13,0,0,0-16.9,6.5A23,23,0,0,0,26,51.57C26,63.38,34.31,71.7,45.21,71.7c8.11,0,16.14-5.59,16.14-15.59A13,13,0,0,0,57,45.84a11.78,11.78,0,0,0-7.41-2.44,10.51,10.51,0,0,0-6.77,2.37,12.61,12.61,0,0,0-4.33,9.92c0,5.94,3.56,11,9.29,11a7.91,7.91,0,0,0,1.54-.14c.63-.14.55-.34.07-.48-3.85-1.12-6-5.59-6-10.69,0-6.43,2.65-9.93,6.29-9.93,4.61,0,6.63,4.54,6.63,10.06,0,9.16-4.12,14.12-10.9,14.12-7.82,0-13.13-6.57-13.13-17.75,0-7,2-12.58,5.52-16.35a16.21,16.21,0,0,1,12.23-5c5.3,0,9.36,1.82,12.22,4.82,4,4.13,5.59,10.55,5.59,17,0,8.46-3,16.21-11.53,18-.35.07,0,.35,2.31.35"/></svg>