<svg id="图层_1" data-name="图层 1" xmlns="http://www.w3.org/2000/svg" viewBox="0 0 100 100"><defs><style>.cls-1{fill:#231815;}</style></defs><title>logohunt02</title><path class="cls-1" d="M49.49,62a1.59,1.59,0,1,0,1.71,1.45A1.58,1.58,0,0,0,49.49,62"/><path class="cls-1" d="M35.85,67.67l.48,0h.06l.7,0a15.9,15.9,0,0,1,2.19.16l.79.15a22.2,22.2,0,0,1,2.48-11.41l2.14,3.83-.38-4.67S55.72,58.2,59.64,73A9.59,9.59,0,0,0,61,71.91a14.65,14.65,0,0,1,6.18-3.69l-10-13C63.9,54,67.57,48.28,67.57,41.69,67.57,31.5,60.41,27,51,27H32.43V68.39a14.67,14.67,0,0,1,3.42-.72m9-31.17H46c4.06,0,8.61.76,8.61,6S50.1,48.4,46,48.4h-1.2Z"/></svg>