<svg id="图层_1" data-name="图层 1" xmlns="http://www.w3.org/2000/svg" viewBox="0 0 100 100"><defs><style>.cls-1{fill:#231815;}</style></defs><title>logohunt02</title><path class="cls-1" d="M38.86,25.27c.11-.11.23-.08.27.08l.16.6.12.43.92-.54c.14-.07.25,0,.25.15v1.06l1-.27c.15,0,.24,0,.2.2l-.16.6-.11.43H42.6c.16,0,.23.11.15.25l-.31.54-.23.38.43.12.61.16c.15,0,.18.16.07.27l-.44.45-.32.31.39.22.54.32c.13.07.13.2,0,.28l-.54.31-.39.22.76.76c.11.11.08.23-.07.27l-1,.28.23.39.31.54c.08.13,0,.24-.15.24H41.54l.11.43.16.61c0,.15-.05.24-.2.2l-.6-.17-.43-.11v1.07c0,.16-.11.22-.25.14l-.54-.31L39.41,36l-.12.43-.16.6c0,.15-.16.18-.27.07l-.76-.75-.22.38-.31.54a.15.15,0,0,1-.29,0L37,36.69l-.22-.39-.29.29L36,37a.15.15,0,0,1-.28-.07l-.16-.61-.11-.42-.38.22-.54.31c-.14.08-.25,0-.25-.14V35.26l-.42.11-.6.16c-.16,0-.25-.05-.21-.2l.16-.6.12-.42H32.28c-.16,0-.23-.11-.15-.24l.32-.54.21-.37-1-.28a.15.15,0,0,1-.07-.28l.75-.75-.38-.22-.54-.32c-.14-.07-.14-.2,0-.28l.92-.53-.76-.75c-.11-.11-.07-.23.08-.28l1-.27-.22-.39-.32-.54c-.07-.13,0-.24.15-.24h1.06l-.11-.43L33,27c0-.15.05-.24.2-.2l1,.28V26c0-.15.11-.22.25-.14l.91.53.11-.44.17-.6c0-.16.16-.19.27-.08l.44.44.32.32.22-.39.31-.54a.16.16,0,0,1,.29,0l.53.93.32-.32.44-.44"/><path class="cls-1" d="M38.86,37.83c.11-.11.23-.08.27.07l.16.6.12.43.38-.22.54-.31c.14-.08.25,0,.25.14v1.07L41,39.5l.6-.17c.15,0,.24.05.2.2l-.16.61-.11.43H42.6c.16,0,.23.11.15.24l-.31.54-.23.39,1,.28c.15,0,.18.16.07.27l-.76.76.39.22.54.31c.13.08.13.21,0,.28l-.93.54.32.31.44.44c.11.12.08.24-.07.28l-1,.28.54.92c.08.14,0,.25-.15.25H41.54l.27,1c0,.15-.05.24-.2.2L41,48l-.43-.11V48.9c0,.16-.11.22-.25.15l-.54-.32-.38-.22-.12.43-.16.6c0,.15-.16.19-.27.08l-.44-.44-.32-.32-.22.39-.31.54a.16.16,0,0,1-.29,0L37,49.25l-.22-.39-.29.28-.44.45a.16.16,0,0,1-.28-.08l-.16-.6-.11-.43-.38.22-.54.31c-.14.08-.25,0-.25-.14V47.81l-.42.12-.6.16c-.16,0-.25-.05-.21-.2l.16-.61.12-.41H32.28c-.16,0-.23-.11-.15-.25l.32-.54.21-.37-1-.28c-.15,0-.18-.16-.07-.27l.44-.45.31-.31-.38-.22-.54-.31c-.14-.08-.14-.21,0-.28l.92-.53L32,42.75l-.44-.45c-.11-.11-.07-.23.08-.27l1-.28-.22-.38-.32-.54c-.07-.14,0-.25.15-.25h1.06l-.11-.43-.16-.6c0-.15.05-.24.2-.2l1,.27V38.56c0-.16.11-.22.25-.14l.54.31.37.21.11-.44.17-.6c0-.15.16-.18.27-.07l.44.44.32.31L37,38.2l.31-.54a.15.15,0,0,1,.29,0l.31.54.22.38.76-.75"/><path class="cls-1" d="M38.86,50.38c.11-.11.23-.07.27.08l.16.6.12.43.92-.54c.14-.07.25,0,.25.15v1.07l1-.28c.15,0,.24,0,.2.2l-.16.6-.11.43H42.6c.16,0,.23.11.15.25l-.31.54-.23.39.43.11.61.16a.15.15,0,0,1,.07.28l-.44.44-.32.31.39.22.54.32a.15.15,0,0,1,0,.28l-.54.31-.39.23.76.75c.11.11.08.23-.07.28l-1,.27.23.39.31.54c.08.13,0,.24-.15.24H41.54l.11.43.16.61c0,.15-.05.24-.2.2l-1-.28v1.07c0,.16-.11.22-.25.14l-.92-.53-.12.43-.16.6c0,.15-.16.19-.27.07l-.76-.75-.53.92a.15.15,0,0,1-.29,0L37,61.8l-.22-.38-.29.28-.44.44a.15.15,0,0,1-.28-.07l-.16-.6L35.47,61l-.38.22-.54.31c-.14.08-.25,0-.25-.14V60.37l-1,.27c-.16,0-.25,0-.21-.2l.16-.6.12-.42H32.28c-.16,0-.23-.11-.15-.24l.32-.54.21-.37-1-.28a.15.15,0,0,1-.07-.28l.44-.44L32.3,57l-.38-.22-.54-.31a.15.15,0,0,1,0-.29l.92-.53L32,55.3l-.44-.44c-.11-.11-.07-.23.08-.27l1-.28-.22-.39-.32-.54c-.07-.13,0-.24.15-.24h1.06l-.11-.43L33,52.1c0-.15.05-.24.2-.2l1,.28V51.11c0-.15.11-.22.25-.14l.91.53.11-.44.17-.6c0-.15.16-.19.27-.08l.76.76.22-.39.31-.54a.16.16,0,0,1,.29,0l.31.54.22.39.32-.31.44-.45"/><path class="cls-1" d="M38.86,62.94c.11-.11.23-.08.27.07l.16.6.12.43.38-.22.54-.31c.14-.08.25,0,.25.14v1.07l1-.28c.15,0,.24,0,.2.21l-.16.6-.11.43H42.6c.16,0,.23.11.15.24l-.31.54-.23.39,1,.28c.15,0,.18.16.07.27l-.44.44-.32.32.39.22.54.31a.16.16,0,0,1,0,.29l-.54.31-.39.22.32.31.44.45c.11.11.08.23-.07.27l-1,.28.23.38.31.54c.08.14,0,.25-.15.25H41.54l.11.43.16.6c0,.15-.05.24-.2.2l-.6-.16L40.58,73V74c0,.15-.11.22-.25.14l-.54-.31-.38-.23-.12.43-.16.6c0,.16-.16.19-.27.08l-.44-.44L38.1,74l-.22.39-.31.54a.16.16,0,0,1-.29,0L37,74.36,36.75,74l-.29.29L36,74.7a.15.15,0,0,1-.28-.08l-.16-.6-.11-.42-.38.21-.54.32c-.14.08-.25,0-.25-.15v-1l-.42.11-.6.16c-.16,0-.25,0-.21-.2l.16-.61.12-.41H32.28c-.16,0-.23-.11-.15-.25l.32-.54.21-.37-1-.28c-.15,0-.18-.16-.07-.27l.44-.44.31-.32-.38-.22L31.38,69c-.14-.08-.14-.2,0-.28l.92-.53L32,67.86l-.44-.45c-.11-.11-.07-.23.08-.27l.6-.16.42-.11-.22-.39-.32-.54c-.07-.14,0-.25.15-.25h1.06l-.11-.43-.16-.6c0-.15.05-.24.2-.2l1,.28V63.67c0-.16.11-.22.25-.14l.54.31.37.21.11-.43.17-.61c0-.15.16-.18.27-.07l.44.44.32.31.22-.38.31-.54a.15.15,0,0,1,.29,0l.31.54.22.38.76-.75"/><path class="cls-1" d="M44.1,29.76c-.11-.12-.07-.24.08-.28l1-.28L45,28.82l-.31-.54c-.08-.14,0-.25.14-.25h1.07l-.12-.43-.16-.6c0-.15,0-.24.2-.2l1,.27V26c0-.16.11-.22.25-.15l.93.54.11-.43.16-.6a.15.15,0,0,1,.28-.08l.44.44.31.32.22-.39.32-.54a.15.15,0,0,1,.28,0l.54.93.31-.32.44-.44a.15.15,0,0,1,.28.08l.27,1,.93-.54a.16.16,0,0,1,.25.15v1.06l1-.27c.15,0,.24.05.2.2l-.16.6-.12.43h1.07c.16,0,.22.11.14.25l-.53.92,1,.28c.15,0,.19.16.07.28l-.44.44-.31.31.38.22.54.31a.15.15,0,0,1,0,.29l-.54.31-.38.23.28.28.44.44a.15.15,0,0,1-.07.28l-1,.27.22.38.31.54c.08.14,0,.25-.14.25H54.09l.11.42.16.61c0,.15,0,.24-.2.2l-1-.28v1.08a.15.15,0,0,1-.25.14l-.54-.31L52,36l-.12.44-.16.6a.16.16,0,0,1-.28.08l-.75-.76-.22.38-.31.54a.15.15,0,0,1-.29,0l-.31-.54-.22-.37-.31.31-.44.44c-.11.11-.23.07-.27-.08l-.16-.6L48,36l-.39.22-.54.32c-.13.08-.24,0-.24-.15V35.3l-.43.11-.6.16c-.16,0-.25,0-.21-.2l.17-.6.11-.44H44.83c-.15,0-.22-.11-.14-.24l.31-.55.22-.37-.44-.11-.6-.17c-.15,0-.19-.16-.08-.27l.76-.76-.39-.22-.54-.31a.16.16,0,0,1,0-.29l.54-.31.39-.22-.32-.31-.44-.44"/><path class="cls-1" d="M56.66,29.76c-.11-.12-.08-.24.07-.28l1-.28-.54-.92c-.08-.14,0-.25.15-.25h1.06l-.11-.43-.16-.6c0-.15,0-.24.2-.2l1,.27V26c0-.16.11-.22.25-.15l.92.54.28-1c0-.16.16-.19.27-.08l.45.44.31.32.22-.39.31-.54a.16.16,0,0,1,.29,0l.31.54.22.39.32-.32.44-.44c.11-.11.23-.08.27.08l.16.6.12.43.38-.22.55-.32c.13-.07.24,0,.24.15v1.06l1-.27c.16,0,.25.05.21.2l-.17.6-.11.43h1.07c.15,0,.22.11.14.25l-.53.92,1,.28c.15,0,.18.16.07.28L68,30.2l-.31.31.92.53a.15.15,0,0,1,0,.29l-.93.54.73.72a.15.15,0,0,1-.07.28l-1,.27.22.38.31.54c.08.14,0,.25-.14.25H66.65l.11.42.16.61c0,.15,0,.24-.2.2l-1-.28v1.08c0,.15-.11.22-.24.14L64.54,36l-.11.44-.17.6c0,.15-.16.19-.27.08l-.44-.45-.31-.31-.22.38-.32.54c-.07.14-.2.14-.28,0l-.31-.54-.22-.37-.75.75a.16.16,0,0,1-.28-.08l-.16-.6L60.59,36l-.93.54c-.14.08-.25,0-.25-.15V35.3l-.43.11-.6.16c-.15,0-.24,0-.2-.2l.16-.6.12-.44H57.39c-.16,0-.22-.11-.14-.24l.52-.92-.43-.11-.61-.17c-.15,0-.18-.16-.07-.27l.44-.44.32-.32-.93-.53a.15.15,0,0,1,0-.29l.93-.53-.32-.31-.44-.44"/><path class="cls-1" d="M44.1,67.42c-.11-.11-.07-.23.08-.27l.6-.17.43-.11L45,66.48l-.31-.54c-.08-.13,0-.24.14-.24h1.07l-.28-1c0-.16,0-.25.2-.21l1,.28V63.67c0-.16.11-.22.25-.14l.54.31.39.22.11-.43.16-.6a.15.15,0,0,1,.28-.07l.75.75.22-.38.32-.54c.08-.14.2-.14.28,0l.31.54.23.38.75-.75a.15.15,0,0,1,.28.07l.16.6.11.43.39-.22.54-.31a.15.15,0,0,1,.25.14v1.07l1-.28c.15,0,.24.05.2.21l-.16.6-.12.43h1.07c.16,0,.22.11.14.24l-.31.54-.22.39.43.11.6.17c.15,0,.19.16.07.27l-.75.76.38.22.54.31a.15.15,0,0,1,0,.29l-.54.31-.38.22.28.29.44.44c.11.11.08.23-.07.27l-.6.16-.43.12.22.38.31.54c.08.14,0,.25-.14.25H54.09l.11.42.16.6c0,.15,0,.24-.2.2l-.6-.16-.41-.11V74a.15.15,0,0,1-.25.14l-.54-.31L52,73.62l-.12.43-.16.61a.15.15,0,0,1-.28.07L51,74.29,50.68,74l-.22.38-.31.54a.16.16,0,0,1-.29,0l-.31-.54L49.33,74l-.75.75c-.11.12-.23.08-.27-.07l-.16-.6L48,73.64l-.93.53c-.13.08-.24,0-.24-.14V73l-.43.12-.6.16c-.16,0-.25,0-.21-.2l.17-.6L45.9,72H44.83c-.15,0-.22-.11-.14-.25l.31-.54.22-.37-.44-.12-.6-.16c-.15,0-.19-.16-.08-.27l.44-.44.32-.32-.39-.22L43.93,69a.16.16,0,0,1,0-.29l.54-.31.39-.22-.76-.76"/><path class="cls-1" d="M56.66,67.42c-.11-.11-.08-.23.07-.27l.61-.17.43-.11-.54-.93c-.08-.13,0-.24.15-.24h1.06l-.27-1c0-.16,0-.25.2-.21l1,.28V63.67c0-.16.11-.22.25-.14l.54.31.38.22.12-.43.16-.6c0-.15.16-.18.27-.07l.45.44.31.31.22-.38.31-.54a.15.15,0,0,1,.29,0l.53.92.32-.31L64,63c.11-.11.23-.08.27.07l.16.6.12.43.93-.53c.13-.08.24,0,.24.14v1.07l1-.28c.16,0,.25.05.21.21l-.17.6-.11.43h1.07c.15,0,.22.11.14.24l-.31.54-.22.39.43.11.6.17c.15,0,.18.16.07.27l-.44.44-.31.32.92.53a.15.15,0,0,1,0,.29l-.54.31-.39.22.29.29.44.44c.11.11.08.23-.07.27l-.61.16-.42.12.22.38.31.54c.08.14,0,.25-.14.25H66.65l.11.42.16.6c0,.15,0,.24-.2.2l-.6-.16-.42-.11V74c0,.16-.11.22-.24.14l-.54-.31-.38-.21-.11.43-.17.61c0,.15-.16.18-.27.07L63.24,74l-.22.38-.32.54c-.07.13-.2.13-.28,0L61.89,74l-.31.31-.44.44a.15.15,0,0,1-.28-.07l-.16-.6-.11-.42-.93.53c-.14.08-.25,0-.25-.14V73l-.43.12-.6.16c-.15,0-.24,0-.2-.2l.16-.6.12-.44H57.39c-.16,0-.22-.11-.14-.25l.31-.54.21-.37-.43-.12-.61-.16c-.15,0-.18-.16-.07-.27l.44-.44.32-.32L56.49,69a.15.15,0,0,1,0-.29l.93-.53-.32-.32-.44-.44"/><path class="cls-1" d="M42.48,48.59a.16.16,0,0,1,.08-.28l1-.27-.22-.39-.32-.54a.16.16,0,0,1,.15-.25h1.07l-.28-1c0-.15,0-.24.2-.2l.6.16.43.12V44.84c0-.16.11-.22.25-.14l.93.53.11-.43.16-.6a.15.15,0,0,1,.28-.07l.75.75.22-.38.32-.54c.08-.14.2-.14.28,0l.54.92.31-.31.44-.44c.11-.12.23-.08.28.07l.16.6.11.43.93-.53c.13-.08.24,0,.24.14v1.07l.43-.12.61-.16c.15,0,.24,0,.2.2l-.16.61-.12.43h1.07a.15.15,0,0,1,.14.25l-.31.54-.22.39,1,.27a.15.15,0,0,1,.07.28l-.75.75.38.23.54.31c.14.08.14.21,0,.28l-.92.54.28.28.44.45c.11.11.08.23-.07.27l-1,.28.22.38.31.54c.08.13,0,.24-.14.24H52.47l.11.43.16.6c0,.15-.05.24-.2.2l-.6-.16-.42-.11v1.07c0,.16-.11.22-.24.14l-.91-.52-.12.43-.16.6a.15.15,0,0,1-.28.08l-.44-.44-.31-.32-.22.38-.31.55a.16.16,0,0,1-.29,0l-.31-.55-.22-.37-.31.31L47,55.9c-.11.11-.23.08-.27-.07l-.17-.6-.11-.42L46,55l-.54.31c-.13.08-.24,0-.24-.14V54.13l-.43.11-.61.17c-.15,0-.24,0-.2-.2l.17-.61.11-.43H43.21c-.15,0-.22-.11-.14-.25l.31-.54L43.6,52l-1-.28c-.15,0-.19-.16-.08-.28l.44-.44.32-.31-.93-.54c-.13-.07-.13-.2,0-.28l.93-.54L42.92,49l-.44-.44"/></svg>