<svg id="图层_1" data-name="图层 1" xmlns="http://www.w3.org/2000/svg" viewBox="0 0 100 100"><title>logohunt03</title><path d="M38.3,37.12a17.38,17.38,0,0,1,10.87-4.5V23.09a26.82,26.82,0,0,0-17.61,7.3Z"/><path d="M32.62,50.83H23.09a26.82,26.82,0,0,0,7.3,17.61l6.73-6.74a17.32,17.32,0,0,1-4.5-10.87"/><path d="M68.44,30.39a26.82,26.82,0,0,0-17.61-7.3v9.53a17.38,17.38,0,0,1,10.87,4.5Z"/><path d="M37.12,38.3l-6.73-6.74a26.82,26.82,0,0,0-7.3,17.61h9.53a17.32,17.32,0,0,1,4.5-10.87"/><path d="M62.87,61.7l6.74,6.74a26.82,26.82,0,0,0,7.3-17.61H67.38A17.33,17.33,0,0,1,62.87,61.7"/><path d="M67.38,49.17h9.53a26.82,26.82,0,0,0-7.3-17.61L62.87,38.3a17.33,17.33,0,0,1,4.51,10.87"/><path d="M50.83,67.38v9.53a26.82,26.82,0,0,0,17.61-7.3L61.7,62.88a17.38,17.38,0,0,1-10.87,4.5"/><path d="M31.56,69.61a26.82,26.82,0,0,0,17.61,7.3V67.38a17.38,17.38,0,0,1-10.87-4.5Z"/></svg>