<svg id="图层_1" data-name="图层 1" xmlns="http://www.w3.org/2000/svg" viewBox="0 0 100 100"><defs><style>.cls-1{fill:#231815;}</style></defs><title>logohunt01</title><path class="cls-1" d="M75.85,59.77A1.83,1.83,0,1,1,74,57.94a1.82,1.82,0,0,1,1.83,1.83"/><path class="cls-1" d="M34.39,57.86a2.41,2.41,0,1,0,2.41,2.4A2.41,2.41,0,0,0,34.39,57.86Z"/><path class="cls-1" d="M27.3,44.26a3.16,3.16,0,1,0,3.15,3.15A3.15,3.15,0,0,0,27.3,44.26Z"/><path class="cls-1" d="M70.54,40.73a2.58,2.58,0,1,0,2.58,2.57A2.57,2.57,0,0,0,70.54,40.73Z"/><path class="cls-1" d="M57.57,67a2.58,2.58,0,1,0,2.58,2.58A2.58,2.58,0,0,0,57.57,67Z"/><path class="cls-1" d="M45.17,27.88a2.58,2.58,0,1,0,2.57,2.58A2.57,2.57,0,0,0,45.17,27.88Z"/><path class="cls-1" d="M49.45,38.5c2.17,0,2.32,3.27,2.32,4.75s-.23,4.17-2.32,4.06-2.39-2.55-2.39-4.1C47.06,41.46,47.1,38.5,49.45,38.5Z"/><path class="cls-1" d="M46.18,58.86a2.06,2.06,0,0,0-2.07-2.06,2.69,2.69,0,0,0-2.59,2.62c0,2.8,2.92,3.93,5.58,4.33a3,3,0,0,1,.51,1.68,3,3,0,1,1-5.24-2.1h-.09a5.18,5.18,0,0,1-3.73-8.78h0a6.92,6.92,0,0,1-3.8-12.12,3.63,3.63,0,1,1,3.54-5.32,6.16,6.16,0,0,1,9.81,0c-3.23.42-6,2.42-6,6.1a5.12,5.12,0,0,0,3.87,5v.08a4.16,4.16,0,0,0-3.64,3.87c0,4.06,4.4,4,7.32,4,2.09,0,5.62-.22,5.62,2.74s-3.53,3.53-5.69,3.53c-1.45,0-3.6-.42-4.42-1.77A2.07,2.07,0,0,0,46.18,58.86Z"/><path class="cls-1" d="M71.31,58.13a2.93,2.93,0,0,1-4.75-1.37A5.46,5.46,0,0,1,63,57.82a6.12,6.12,0,0,1,.27,1.82,6.22,6.22,0,0,1-10.93,4.09c3.34-.55,6.58-2.27,6.58-6.21,0-5.2-4.63-5.81-8.73-5.81-1,0-4.22.31-4.22-1.29s1.9-1.52,3-1.59a10.49,10.49,0,0,0,5.54-1.37A5.25,5.25,0,0,0,56.74,43a6,6,0,0,0-4.26-5.52,4.7,4.7,0,0,1,9.35.5A5.48,5.48,0,0,1,67,43.42a5.42,5.42,0,0,1-1.64,3.89,5.46,5.46,0,0,1,3.35,5.78A2.92,2.92,0,0,1,71.31,58.13Z"/><path class="cls-1" d="M60.35,38.74a1.74,1.74,0,1,0-1.74,1.74A1.73,1.73,0,0,0,60.35,38.74Z"/></svg>