<svg id="图层_1" data-name="图层 1" xmlns="http://www.w3.org/2000/svg" viewBox="0 0 100 100"><title>logohunt03</title><path d="M62.35,49.92c2.4-6.05.82-8.09-3.91-12,.06,5-5.52,10.24,3.91,12"/><path d="M72.28,40.47c-6.43.93-7.42,3.31-8.46,9.36,4.29-2.53,11.62-.3,8.46-9.36"/><path d="M59.21,36.92c4.31,4.87,6.84,4.38,12.47,1.94-4.48-2.2-6.64-9.55-12.47-1.94"/><path d="M51.85,40.13c-10-.58-12.2,2.7-15.63,11.49,7.25-2.49,17.6,3.12,15.63-11.49"/><path d="M33.28,30.19c4.45,9,8.41,9.24,17.74,7.85C45.25,33,45,21.21,33.28,30.19"/><path d="M34.39,51c5-8.63,3.11-12.1-3.18-19.13C30.16,39.44,20.47,46.14,34.39,51"/><path d="M49.81,56.3c5,6.28,8.18,5.83,15.28,3.16-5.39-3-7.61-12.2-15.28-3.16"/><path d="M53.87,72.75c3-7.48,1-10-4.86-14.82.09,6.16-6.79,12.66,4.86,14.82"/><path d="M65.69,60.89c-7.87,1.64-8.9,4.66-9.72,12.2,5.11-3.46,14.32-1.27,9.72-12.2"/></svg>