<svg id="图层_1" data-name="图层 1" xmlns="http://www.w3.org/2000/svg" viewBox="0 0 100 100"><title>logohunt03</title><path d="M62.91,25.76h0a6.54,6.54,0,0,1,5,1.89v0a6.74,6.74,0,0,1,2.27,4.88v0a5.12,5.12,0,0,1-1.44,3.82v0a5,5,0,0,1-3.65,1.61h-.09a3.6,3.6,0,0,1-2.85-1l0,0a4.43,4.43,0,0,1-.88-1.23c-.62.85-1.24,1.68-1.79,2.47a6.44,6.44,0,0,0,.73.85h0a6.34,6.34,0,0,0,5,1.74,7.71,7.71,0,0,0,5.59-2.53h0a7.92,7.92,0,0,0,2.2-5.88,9.6,9.6,0,0,0-3.18-6.88h0a9.18,9.18,0,0,0-7.05-2.68,11.81,11.81,0,0,0-2.91.44,12.09,12.09,0,0,0-8.65,12,14.28,14.28,0,0,0,2.77,8c.56-.71,1.2-1.45,1.91-2.21a11.21,11.21,0,0,1-1.85-5.94,8.74,8.74,0,0,1,2.44-6.56,8.89,8.89,0,0,1,6.38-2.91"/><path d="M59.05,37.7c-1.14,1.21-2.17,2.38-3.11,3.47-.71.77-1.35,1.5-1.91,2.21q-4.29,5.07-5.18,7.49c-1.64-5-4.06-8.55-7.23-10.76a18.73,18.73,0,0,0-1.74-1.06c-.29-.14-.58-.26-.88-.38A16.28,16.28,0,0,0,37.15,38h-.06l0,0,.12.09c.73.56,1.44,1.15,2.12,1.74.5.44,1,.91,1.47,1.38a26.35,26.35,0,0,1,3,3.62,15.87,15.87,0,0,1,1,1.76,17.69,17.69,0,0,1,2,7.64,25.16,25.16,0,0,0-3.17,7.94c0,.21-.09.44-.12.65-.09-.24-.2-.44-.29-.65a8.17,8.17,0,0,0-5.82-5l-.48-.12c.15.06.27.12.42.17a6.32,6.32,0,0,1,1.85,1.27,8.94,8.94,0,0,1,.85,1,15.59,15.59,0,0,1,1.59,2.76,29.46,29.46,0,0,1,1.47,4c.32,1,.68,2,1.06,2.88Q46,73.42,41.59,77l-.09.06H53.79l0-.06a27.41,27.41,0,0,1-2.23-3.26l-1.59-3.27c-.06-.17-.12-.35-.18-.49a.84.84,0,0,1-.08-.21c0-.06,0-.12-.06-.18a23,23,0,0,1-1.12-5,22.77,22.77,0,0,1,1.09-2.38,17.9,17.9,0,0,1,4-5.23,12.77,12.77,0,0,1,1.56-1.18,17.86,17.86,0,0,1,2.91-1.61l1.21-.45A9.77,9.77,0,0,0,58,54a18.68,18.68,0,0,0-9.47,5.79c1.5-6.06,5.14-13.23,11-21.52.55-.79,1.17-1.62,1.79-2.47s1.09-1.5,1.65-2.24c-.62.65-1.24,1.27-1.8,1.89-.73.76-1.41,1.5-2.09,2.23"/><path d="M59.05,37.7c.68-.73,1.36-1.47,2.09-2.23a4.33,4.33,0,0,1-.23-1.18,2.84,2.84,0,0,1,.79-2.15,2.79,2.79,0,0,1,2-.94,2.08,2.08,0,0,1,1.44.53l0,0a2.34,2.34,0,0,1,.65,1.5,1.21,1.21,0,0,1-.3.88,1.69,1.69,0,0,1-1,.47l.18,2.83a4.28,4.28,0,0,0,2.88-1.33l.06-.06a3.91,3.91,0,0,0,1-2.94v0a5,5,0,0,0-1.5-3.33l0,0a4.85,4.85,0,0,0-3.44-1.32h-.06a5.61,5.61,0,0,0-4,1.85,5.73,5.73,0,0,0-1.52,4.12,6.54,6.54,0,0,0,1,3.35"/><path d="M40,38.67a1.31,1.31,0,0,1-.15.38,18.73,18.73,0,0,1,1.74,1.06,7.12,7.12,0,0,0,.32-.85v0a6.4,6.4,0,0,0-.44-5.09,6.48,6.48,0,0,0-3.82-3.29,7.58,7.58,0,0,0-6.2.47h0a7.36,7.36,0,0,0-3,2.62,7.67,7.67,0,0,0-1,2.11,9.49,9.49,0,0,0,.64,7.56c.12.24.24.47.39.71a9.36,9.36,0,0,0,5.35,4.14A11.62,11.62,0,0,0,43,47.76a12.32,12.32,0,0,0,1.79-1.12,14.49,14.49,0,0,0-1-1.76A11.25,11.25,0,0,1,42.09,46a9.75,9.75,0,0,1-7.7.65,7.61,7.61,0,0,1-4.53-3.88,7.49,7.49,0,0,1-.5-6A6.06,6.06,0,0,1,37,32.82a4.46,4.46,0,0,1,2.68,2.32A4.35,4.35,0,0,1,40,38.67"/><path d="M39.36,39.88a3.63,3.63,0,0,1-1.09.82,3.45,3.45,0,0,1-2.68.24A2.72,2.72,0,0,1,34,39.67a2.69,2.69,0,0,1-.17-2,2,2,0,0,1,.94-1.11l0,0a2.07,2.07,0,0,1,1.47-.09h0a1.37,1.37,0,0,1,.76.64,1.39,1.39,0,0,1,.12,1,16.28,16.28,0,0,1,1.85.65h.06a3.31,3.31,0,0,0-.23-2.53,3,3,0,0,0-1.94-1.64v0a3.91,3.91,0,0,0-3,.23l0,0A3.83,3.83,0,0,0,32,37l0,0a4.82,4.82,0,0,0,.29,3.47v0l0,0A4.63,4.63,0,0,0,35,42.88a5.83,5.83,0,0,0,5.86-1.62c-.48-.47-1-.94-1.47-1.38"/><path d="M61.08,47.61h0a3.48,3.48,0,0,1,2.91,0,4.78,4.78,0,0,1,2.68,2.82h0a4.93,4.93,0,0,1-.06,3.88A6.6,6.6,0,0,1,63,57.9v0a6.12,6.12,0,0,1-5-.12v0a8.5,8.5,0,0,1-2.8-2A12.77,12.77,0,0,0,53.64,57a11.08,11.08,0,0,0,3.56,2.56,8.12,8.12,0,0,0,6.53.14,8.59,8.59,0,0,0,4.7-4.55v0a6.49,6.49,0,0,0,.09-5.35v0a6.6,6.6,0,0,0-3.73-3.86h0a5.34,5.34,0,0,0-4.44-.08v0a5.54,5.54,0,0,0-3.24,3v0a4.65,4.65,0,0,0,0,3.71v0A4.23,4.23,0,0,0,58,54a9.77,9.77,0,0,1,1.35-.27l-1.21.45a4.87,4.87,0,0,0,1.56,1,3.93,3.93,0,0,0,3.12.06h0A3.73,3.73,0,0,0,65,53.14h0a3.67,3.67,0,0,0,.06-2.59v-.06a3.3,3.3,0,0,0-1.94-1.88h.06A2.83,2.83,0,0,0,61,48.55a2.63,2.63,0,0,0-1.68,1.59l1.79.76a.82.82,0,0,1,.53-.53h0a1.27,1.27,0,0,1,.77,0v0a1.57,1.57,0,0,1,.85.77,1.65,1.65,0,0,1,0,1.2,2,2,0,0,1-1.18,1.12,2,2,0,0,1-1.61,0h0a2.75,2.75,0,0,1-1.53-1.59v0a2.67,2.67,0,0,1,0-2.23v0a3.72,3.72,0,0,1,2.14-2"/><polygon points="37.12 38.08 37.24 38.14 37.12 38.05 37.12 38.08"/><path d="M31.83,52.26h0A4.21,4.21,0,0,0,30,55.08a5.32,5.32,0,0,0,4.27,6.2,6.22,6.22,0,0,0,4.85-1.06,4.38,4.38,0,0,0,.91-.76,8.94,8.94,0,0,0-.85-1,9.1,9.1,0,0,1-.79.67A5.26,5.26,0,0,1,34.5,60a3.91,3.91,0,0,1-2.58-1.68v0a3.74,3.74,0,0,1-.65-3,3,3,0,0,1,1.29-2,3.07,3.07,0,0,1,2.3-.47,2.25,2.25,0,0,1,1.47,1h0a2.33,2.33,0,0,1,.38,1.71A1.66,1.66,0,0,1,36,56.67a1.68,1.68,0,0,1-1.29.29,1.21,1.21,0,0,1-.82-.53,1.2,1.2,0,0,1-.21-.94A.85.85,0,0,1,34,54.9h0a1,1,0,0,1,.65-.12.64.64,0,0,1,.38.24.72.72,0,0,1,.09.5l1.29.12a1.9,1.9,0,0,0-.29-1.33l0-.06A2,2,0,0,0,35,53.52a1.89,1.89,0,0,0-1.64.32l0,0a2.13,2.13,0,0,0-.88,1.36v0a2.63,2.63,0,0,0,.41,1.92,2.58,2.58,0,0,0,1.64,1.08,3,3,0,0,0,2.27-.5,2,2,0,0,0,.59-.53c-.15,0-.27-.11-.42-.17l.48.12A2.93,2.93,0,0,0,38,55.78a3.44,3.44,0,0,0-.59-2.67,3.4,3.4,0,0,0-2.32-1.53,4.25,4.25,0,0,0-3.26.68"/></svg>