<svg id="图层_1" data-name="图层 1" xmlns="http://www.w3.org/2000/svg" viewBox="0 0 100 100"><defs><style>.cls-1{fill:#231815;}</style></defs><title>logohunt01</title><path class="cls-1" d="M67.73,25.37c-.1.87-.2,1.59-.31,2.37a72.15,72.15,0,0,0-12.3-.82c-9.29.06-18,2.64-18,9.6a5.39,5.39,0,0,0,5.64,5.65,7.35,7.35,0,0,0,3.59-.84c0-.32-.16-.53-.37-.53a7.18,7.18,0,0,1-3.11.74c-3.06,0-5-2.22-5-5.33,0-4.43,4.48-6.39,8.55-7.23A36.32,36.32,0,0,1,52,28.35c-.74,12-3.27,34.24-9.92,42.42-1.47,1.79-3.48,3.16-5.33,3.16-2.42,0-4.48-1.58-4.48-4.75a5.57,5.57,0,0,1,5.65-5.43c.21-.11.31-.37.31-.74-3.37,0-6.7,2.69-6.7,6.33,0,2.74,1.69,5.33,5.12,5.33a9.17,9.17,0,0,0,6.49-3.27c4-4.33,6.65-10.61,8.65-17.94a27.66,27.66,0,0,1,3.27-.1c2.32,0,3.75,0,3.75,2a4.61,4.61,0,0,1-.21,1.42c.16.27.53.27.79.27a49.57,49.57,0,0,1,1.74-7.6.8.8,0,0,0-.69-.37c-.47,2.53-1.63,3.59-3.43,3.59-1,0-3.85,0-5-.11a190.09,190.09,0,0,0,4.11-24.16,63.74,63.74,0,0,1,11,1c-.21.79-.42,1.64-.68,2.59,0,.21.42.31.79.31.42-1.79,1.32-6.7,1.32-6.7a.76.76,0,0,0-.79-.23M59.66,52.25,59.13,54a1.43,1.43,0,0,0-1.22-1A2.37,2.37,0,0,0,59.66,52.25ZM44.51,68.5a.12.12,0,0,1-.1-.11c6-11.34,7.25-26.82,8.41-40.06.32,0,.64,0,1.13,0C52.58,44.77,49.84,61,44.51,68.5Z"/><path class="cls-1" d="M45.66,51.93c.53-1.53,2.17-2.53,2.17-4.75a8.94,8.94,0,0,0-.37-2.11A5.64,5.64,0,0,0,45,49.5c0,1.22.21,1.48.21,2.22a.92.92,0,0,1-.26.74,14.38,14.38,0,0,0-2.76,2.75,4.55,4.55,0,0,0-2.28-2.27c-.24-.17-.3-.41-.49-.73a1.64,1.64,0,0,0-1.32-.63l-1,.05.13.26-.3.28a3.52,3.52,0,0,1,.59.58,1.78,1.78,0,0,0,1.09.67,6.37,6.37,0,0,1,1.5.08,4.68,4.68,0,0,1,1.65,2.27A11.45,11.45,0,0,0,39.91,62a3.07,3.07,0,0,1-.47-1c-.58-2.21-1.69-3.37-3.9-3.37a4.25,4.25,0,0,0,.73,2.53c.85,1.16,2.17,1,3.06,1.85a1.94,1.94,0,0,1,.58,1.21c.22,5.27,2.8,7.75,2.8,11.18,0,.32.37.32.63.32.58-2.11,2.54-3.32,5.12-4.06a3.26,3.26,0,0,1,.69-.11,2.12,2.12,0,0,1,1.53.79A5.37,5.37,0,0,0,55,73.09a10.88,10.88,0,0,0,2.11-.27,5.45,5.45,0,0,0-4.38-2.63c-.68,0-1.37.21-1.74.21a1.32,1.32,0,0,1-.74-.27c4.33-1,8.94-1.87,9-6.4a4.89,4.89,0,0,0-.92-3,4.64,4.64,0,0,1-.21-1.49c-.12-.66-.47-1.18-.76-1.25-.08,0-.23.33-.23.33s-.46-.45-.75-.34c-.48.18-.49,1-.49,1a1.43,1.43,0,0,1-.39,0c-.1,0,.05.53.62,1.11S57.85,61,58,61.28a4,4,0,0,1,.63,2c0,5.07-5.75,5.39-10.39,6.76a2,2,0,0,1,1-1.06c2-1.11,2.59-2.58,2.59-4.85a6.58,6.58,0,0,0-.06-1.06,3.77,3.77,0,0,1-1.16,1.16c-1.63,1.17-2.48,2.11-2.48,4.59a2.1,2.1,0,0,1-1.42,1.69,6.76,6.76,0,0,0-3.48,2.64c-.37-2.9-2.32-5.33-2.64-9.39,0-1,.37-1.64,1-1.85C45,61,44.93,59.11,45.3,57.47c-3.8.53-3.65,2.69-4.28,4.12a1.86,1.86,0,0,1-.47.47c.21-6.42,4.49-9.29,8.75-11.55.06-.28.11-.56.16-.85a34.66,34.66,0,0,0-3.8,2.27m-9.44,6.33c1.37.27,2.16,1,2.69,2.75C37.43,60.37,36.38,59.53,36.22,58.26Zm16.3,12.56a4.23,4.23,0,0,1,3.12,1.53c-1.85,0-3.38-.37-4.22-1.37A4.06,4.06,0,0,1,52.52,70.82Zm-3.16-4.59c.63-1,1.48-1.16,1.79-1.59a4.06,4.06,0,0,1-2.32,3.8A4.26,4.26,0,0,1,49.36,66.23Zm-4.8-8c0,1.32-1.27,2.48-2.75,2.95C42.34,59.05,43.4,58.47,44.56,58.21Zm1-8.34A4.1,4.1,0,0,1,47,46.34a2.57,2.57,0,0,1,.15.9,5.63,5.63,0,0,1-1.58,3.42C45.61,50.51,45.56,50.14,45.56,49.87Z"/><path class="cls-1" d="M58.7,45.34c2.58-.11,3.85-.8,4.53-2.48-.1,0-.42-.06-.68-.06a4.75,4.75,0,0,0-3.91,2c-.15.16-.52.1-.79.26a6.3,6.3,0,0,0,2.22-4.82A6.72,6.72,0,0,0,59.46,37c-.14-.49.15-1.12.2-1.66.1-1.05-.92-1.43-1.26-2-.06-.11-.71.64-.71.64s-.45-.17-.4,0a10,10,0,0,1,.06,1.54c0,.91,1.5,1.54,1.76,2a6.28,6.28,0,0,1,.41,2.42,6.63,6.63,0,0,1-2.35,5c.1-1.48.89-1.64.89-3.48A4.25,4.25,0,0,0,57,38.79a4,4,0,0,0-.85,2.75c0,1.42.69,2.21.69,2.74a1.6,1.6,0,0,1-.69,1.48,18.81,18.81,0,0,1-3,1.94c-.06.3-.12.6-.19.89a2.22,2.22,0,0,1,.65-.19.82.82,0,0,1,.58.21,2.82,2.82,0,0,0,1.84.63c1.64,0,3-1.58,4.7-1.58a3.54,3.54,0,0,0-2.43-1c-1.84,0-3.37,1.47-4,1.47a1.91,1.91,0,0,1-.53-.05,23.2,23.2,0,0,0,3.38-2.38,3.6,3.6,0,0,1,1.53-.36m3.79-2.06c-.89,1.42-3.21,1.53-3.21,1.53A4.46,4.46,0,0,1,62.49,43.28Zm-4.22,3.9a2.17,2.17,0,0,1,1.11.27c-.74,0-2.16,1.21-3.53,1.21a1.82,1.82,0,0,1-1-.26C55.53,48.4,56.9,47.18,58.27,47.18Zm-1.63-5.75A5.08,5.08,0,0,1,57,39.58a3.76,3.76,0,0,1,.58,2,3.86,3.86,0,0,1-.53,1.9A5,5,0,0,1,56.64,41.43Z"/></svg>