<svg id="图层_1" data-name="图层 1" xmlns="http://www.w3.org/2000/svg" viewBox="0 0 100 100"><defs><style>.cls-1{fill:#231815;}</style></defs><title>logohunt01</title><path class="cls-1" d="M52.38,50A9.42,9.42,0,0,1,50,56.22a9.35,9.35,0,0,1,0-12.44A9.44,9.44,0,0,1,52.38,50m15.49-9.51V38.74H57.14A11.16,11.16,0,0,0,50,41.36a11.16,11.16,0,0,0-7.13-2.62H32.13v1.75H42.87a9.43,9.43,0,0,1,5.86,2.09,11.06,11.06,0,0,0,0,14.84,9.36,9.36,0,0,1-5.86,2.08H32.13v1.76H42.87A11.16,11.16,0,0,0,50,58.64a11.16,11.16,0,0,0,7.14,2.62H67.87V59.5H57.14a9.37,9.37,0,0,1-5.87-2.08,11.06,11.06,0,0,0,0-14.84,9.44,9.44,0,0,1,5.87-2.09Z"/></svg>