<svg id="图层_1" data-name="图层 1" xmlns="http://www.w3.org/2000/svg" viewBox="0 0 100 100"><defs><style>.cls-1{fill:#231815;}</style></defs><title>logohunt01</title><path class="cls-1" d="M72.91,77c.08-.82-.87-14.36-.79-16.44s-.3-4.49-.3-5.8a9.26,9.26,0,0,1,.3-3c.26-.77.34-2.18.81-3.77a17,17,0,0,0,.18-5.4c-.07-.94-.86-3.57-.79-4.41s-.63-3.33-.6-3.82a26.43,26.43,0,0,0-.38-4.18c-.24-.78,0-2-1.32-1.92-.93,0-.88,1.39-.85,1.75v0c-.06-.77-.5-1.7-.64-3.29s-.38-2.36-1.14-2.31a1.37,1.37,0,0,0-1.08.56s.36-2-1-2-1.53,2.17-1.53,2.17c-.07-1-1.43-1.06-2,.05s-1.08,4.85-1.1,6,.24,6.45.26,7.43a40.43,40.43,0,0,1-.55,4.18A1.49,1.49,0,0,1,59,44.11c-.89.19-3.25-.86-5-1.24s-3.42.61-3.61,1.58.56,1,1.28,1a5.83,5.83,0,0,1,2.47.64c.53.37,2.59.42,3.61,1a5.27,5.27,0,0,1,1.94,2.06,19.41,19.41,0,0,0,3.17,4.88,3.67,3.67,0,0,1,.32.86,39.17,39.17,0,0,1,1,3.9,21.94,21.94,0,0,1,0,3.53c-.08,2.08-.08,14.7-.08,14.7"/><path class="cls-1" d="M27.09,77c-.08-.82.87-14.36.79-16.44s.3-4.49.3-5.8a9.26,9.26,0,0,0-.3-3c-.26-.77-.34-2.18-.81-3.77a17,17,0,0,1-.18-5.4c.07-.94.86-3.57.79-4.41s.63-3.33.6-3.82a26.43,26.43,0,0,1,.38-4.18c.24-.78,0-2,1.32-1.92.93,0,.88,1.39.85,1.75v0c.06-.77.5-1.7.64-3.29s.38-2.36,1.14-2.31a1.37,1.37,0,0,1,1.08.56s-.36-2,1-2,1.53,2.17,1.53,2.17c.07-1,1.43-1.06,2,.05s1.08,4.85,1.1,6-.24,6.45-.26,7.43.48,3.55.55,4.18A1.49,1.49,0,0,0,41,44.11c.89.19,3.25-.86,5-1.24s3.42.61,3.61,1.58-.56,1-1.28,1a5.83,5.83,0,0,0-2.47.64c-.53.37-2.59.42-3.61,1a5.27,5.27,0,0,0-1.94,2.06,19.41,19.41,0,0,1-3.17,4.88,3.67,3.67,0,0,0-.32.86,39.17,39.17,0,0,0-1,3.9,21.94,21.94,0,0,0,0,3.53c.08,2.08.08,14.7.08,14.7"/></svg>