<svg id="图层_1" data-name="图层 1" xmlns="http://www.w3.org/2000/svg" viewBox="0 0 100 100"><defs><style>.cls-1{fill:#231815;}</style></defs><title>logohunt01</title><path class="cls-1" d="M24.17,21.58v1.26H29V37.15h1.26V22.84h4.83V21.58H24.17m40.74,0v1.26h4.82V37.15H71V22.84h4.83V21.58Z"/><path class="cls-1" d="M30.26,62.85H29V77.16H24.17v1.26H35.09V77.16H30.26V62.85M71,77.16V62.85H69.73V77.16H64.91v1.26H75.83V77.16Z"/><rect class="cls-1" x="37.07" y="49.36" width="5.46" height="1.26"/><rect class="cls-1" x="57.46" y="49.36" width="5.46" height="1.26"/><path class="cls-1" d="M48.72,51.27h2.55V48.73H48.72v2.54m3.18.63v0Zm-3.81.64a.64.64,0,0,1-.45-.19.63.63,0,0,1-.18-.45V48.09a.67.67,0,0,1,.18-.44.64.64,0,0,1,.45-.19H51.9a.64.64,0,0,1,.45.19.62.62,0,0,1,.18.44V51.9a.63.63,0,0,1-.18.45.64.64,0,0,1-.45.19Z"/><path class="cls-1" d="M45.73,48.5a4.52,4.52,0,0,1,8.53,0h1.32a5.78,5.78,0,0,0-11.17,0h1.32"/><path class="cls-1" d="M54.27,51.48a4.53,4.53,0,0,1-8.55,0H44.4a5.79,5.79,0,0,0,11.19,0H54.27"/></svg>