<svg id="图层_1" data-name="图层 1" xmlns="http://www.w3.org/2000/svg" viewBox="0 0 100 100"><title>logohunt03</title><path d="M57.88,24.93a9.61,9.61,0,0,0-2.39-2.05A10.26,10.26,0,0,0,55,26a8.9,8.9,0,0,0,.73,3.56,8.69,8.69,0,0,0-3.34-1.32,11.36,11.36,0,0,0-3.19,0,9.76,9.76,0,0,0,1.6,2.7,8.58,8.58,0,0,0,2.85,2.24,9.31,9.31,0,0,0-3.44,1.13,10,10,0,0,0-2.45,2,9.79,9.79,0,0,0,3,1.07,8.25,8.25,0,0,0,3.61-.12,9.93,9.93,0,0,0-1.9,3.1A11.18,11.18,0,0,0,52,42.13q3.6-4.27,9.45-10.39A133.09,133.09,0,0,0,53.71,43a8.14,8.14,0,0,0,1.14-.58A8.71,8.71,0,0,0,57.51,40a9.65,9.65,0,0,0,.59,3.65,8.59,8.59,0,0,0,1.53,2.69,7.69,7.69,0,0,0,1.53-2.69A8.26,8.26,0,0,0,61.71,40a8.74,8.74,0,0,0,2.73,2.42,10.75,10.75,0,0,0,3,1.13,8.91,8.91,0,0,0-.55-3.15,8,8,0,0,0-1.94-3.1,8.41,8.41,0,0,0,3.65.12,9.51,9.51,0,0,0,3-1.07,9,9,0,0,0-5.92-3.16,8,8,0,0,0,2.88-2.24,9.88,9.88,0,0,0,1.63-2.7,11.15,11.15,0,0,0-3.16,0,8.68,8.68,0,0,0-3.41,1.32,8.33,8.33,0,0,0,.8-3.56,8.87,8.87,0,0,0-.61-3.09,9.45,9.45,0,0,0-2.36,2.05,9.7,9.7,0,0,0-1.75,3.19,8.13,8.13,0,0,0-1.75-3.19"/><path d="M54.66,49.22a3.55,3.55,0,0,0-1.1-.95,4.85,4.85,0,0,0-.25,1.44,4.64,4.64,0,0,0,.34,1.65,3.92,3.92,0,0,0-1.56-.64,4.09,4.09,0,0,0-1.48,0A4.59,4.59,0,0,0,51.38,52a3.59,3.59,0,0,0,1.32,1,3.64,3.64,0,0,0-1.6.55,3.8,3.8,0,0,0-1.13.92,4.22,4.22,0,0,0,1.38.49h.09a18,18,0,0,1,6.23-2.2,18.16,18.16,0,0,0-5.06,2.69,2.44,2.44,0,0,0-.46.89,5.18,5.18,0,0,0-.28,1.44,5,5,0,0,0,1.38-.49,4,4,0,0,0,1.26-1.13,3.88,3.88,0,0,0,.24,1.66,4.62,4.62,0,0,0,.71,1.28,3.42,3.42,0,0,0,.74-1.28,4,4,0,0,0,.24-1.66,4,4,0,0,0,1.26,1.13,5,5,0,0,0,1.38.49,5.57,5.57,0,0,0-.28-1.44,3.64,3.64,0,0,0-.89-1.44A3.69,3.69,0,0,0,59.6,55,4.22,4.22,0,0,0,61,54.49a3.85,3.85,0,0,0-1.14-.92A3.6,3.6,0,0,0,58.25,53a3.59,3.59,0,0,0,1.32-1,4.33,4.33,0,0,0,.76-1.26,4,4,0,0,0-1.47,0,3.92,3.92,0,0,0-1.56.64,4.64,4.64,0,0,0,.34-1.65,5.19,5.19,0,0,0-.25-1.44,4.41,4.41,0,0,0-1.1.95,4.27,4.27,0,0,0-.83,1.47,3.42,3.42,0,0,0-.8-1.47"/><path d="M57.67,52.78A18,18,0,0,0,51.44,55a23.6,23.6,0,0,0-5.06,4.11A60,60,0,0,1,53.71,43a133.09,133.09,0,0,1,7.73-11.22Q55.59,37.86,52,42.13q-4.32,5.2-5.24,7.64a30.44,30.44,0,0,0-2.12-5c-2.45-4.51-5.82-7.3-10.15-8.43A26,26,0,0,1,42.89,46a18.75,18.75,0,0,1,1.74,7.3,25.09,25.09,0,0,0-3.31,8.28h0a.83.83,0,0,0,0,.27l0,.06c0,.1,0,.22-.06.34-.09-.24-.19-.46-.28-.67a10.77,10.77,0,0,0-1.81-2.82,8.17,8.17,0,0,0-4.78-2.58,7.63,7.63,0,0,1,3.83,3.34,14.73,14.73,0,0,1,1.11,2.06l.76,1.9.07.12c.21.68.45,1.38.67,2.15.34,1,.67,1.87,1,2.76,0,.09.06.15.09.24,1.29,3,.37,5.8-2.76,8.34H51.9a33.65,33.65,0,0,1-2.36-3.46l-1.66-3.41c-.06-.18-.12-.36-.18-.52a1.91,1.91,0,0,1-.06-.21l-.09-.19c-.09-.27-.16-.52-.25-.79a21.86,21.86,0,0,1-.92-4.45c.06-.15.12-.31.19-.46.3-.7.61-1.38,1-2a17.69,17.69,0,0,1,10.15-8.83"/><path d="M33.41,38.06a7.46,7.46,0,0,0-2.88,1,8.57,8.57,0,0,0-2.06,1.68,8.26,8.26,0,0,0,2.49.89,7.52,7.52,0,0,0,3-.12,8.23,8.23,0,0,0-1.59,2.58,8.89,8.89,0,0,0-.46,2.63,9.06,9.06,0,0,0,2.48-.92,7,7,0,0,0,2.24-2,7.08,7.08,0,0,0,.46,3A6.8,6.8,0,0,0,38.41,49a7.28,7.28,0,0,0,1.29-2.26,7.47,7.47,0,0,0,.46-3,6.81,6.81,0,0,0,2.27,2c.15.1.3.16.46.25a26,26,0,0,0-8.41-9.66c4.33,1.13,7.7,3.92,10.15,8.43a4.17,4.17,0,0,0-.24-.73,7.15,7.15,0,0,0-1.6-2.58,7.44,7.44,0,0,0,5.52-.77,7.22,7.22,0,0,0-2-1.68,7.78,7.78,0,0,0-2.91-1,6.93,6.93,0,0,0,2.42-1.84A10.77,10.77,0,0,0,47.15,34a7.32,7.32,0,0,0-2.64,0,7.08,7.08,0,0,0-2.85,1.1,7.19,7.19,0,0,0,.64-3,8.09,8.09,0,0,0-.46-2.58,7.8,7.8,0,0,0-2,1.72,7.33,7.33,0,0,0-1.44,2.67,7.11,7.11,0,0,0-1.47-2.67,8,8,0,0,0-2-1.72,8.38,8.38,0,0,0-.46,2.58,7.67,7.67,0,0,0,.62,3A7.18,7.18,0,0,0,32.34,34a7.49,7.49,0,0,0-2.67,0A9.63,9.63,0,0,0,31,36.22a7.63,7.63,0,0,0,2.39,1.84"/><path d="M37.73,51.36a4.29,4.29,0,0,0-1,.86A3.68,3.68,0,0,0,36,53.57a3.64,3.64,0,0,0-.71-1.35,4.06,4.06,0,0,0-1-.86,4.16,4.16,0,0,0-.22,1.29,3.82,3.82,0,0,0,.31,1.51A4.33,4.33,0,0,0,33,53.6a3.26,3.26,0,0,0-1.32,0,4.1,4.1,0,0,0,.68,1.14,3.44,3.44,0,0,0,1.19.92,3.29,3.29,0,0,0-1.44.49,3.77,3.77,0,0,0-1,.83,5.3,5.3,0,0,0,1.26.46,3.6,3.6,0,0,0,1.5-.06,4.65,4.65,0,0,0-.8,1.28A5.79,5.79,0,0,0,32.8,60,4.2,4.2,0,0,0,34,59.52a4,4,0,0,0,1.14-1,3.58,3.58,0,0,0,.21,1.5A4.31,4.31,0,0,0,36,61.15a4.1,4.1,0,0,0,.89-2.64,3.46,3.46,0,0,0,1.13,1l.09,0a7.63,7.63,0,0,0-3.83-3.34,8.17,8.17,0,0,1,4.78,2.58L39,58.66a3,3,0,0,0-.8-1.28,3.62,3.62,0,0,0,1.51.06A4.66,4.66,0,0,0,41,57a3.15,3.15,0,0,0-1-.83,3.43,3.43,0,0,0-1.44-.49,3.57,3.57,0,0,0,1.2-.92,4.93,4.93,0,0,0,.67-1.14,3.26,3.26,0,0,0-1.32,0,4.33,4.33,0,0,0-1.41.56A3.65,3.65,0,0,0,38,52.65a4,4,0,0,0-.25-1.29"/></svg>