<svg id="图层_1" data-name="图层 1" xmlns="http://www.w3.org/2000/svg" viewBox="0 0 100 100"><title>logohunt03</title><path d="M46.09,27.33a3.91,3.91,0,0,1,7.82,0,3.82,3.82,0,0,1-.24,1.32h0l-2.77,7.76h0a1,1,0,0,1-.9.64,1,1,0,0,1-.9-.64h0l-2.77-7.76h0a3.82,3.82,0,0,1-.24-1.32"/><path d="M55.75,27.72a3.91,3.91,0,0,1,7.14,3.18A3.74,3.74,0,0,1,62.14,32h0l-5.69,6h0a.95.95,0,0,1-1.64-.73h0L55.42,29h0a3.85,3.85,0,0,1,.31-1.3"/><path d="M64.41,32a3.91,3.91,0,1,1,4.1,6.51h0L60.9,41.66h0a1,1,0,0,1-1.08-.25.94.94,0,0,1-.12-1.09h0l3.91-7.25h0A3.93,3.93,0,0,1,64.41,32"/><path d="M70.59,39.45A3.91,3.91,0,1,1,73,46.89a3.83,3.83,0,0,1-1.33.17v0l-8.23-.24h0a1,1,0,0,1-.89-.66,1,1,0,0,1,.33-1.05h0l6.52-5v0a3.85,3.85,0,0,1,1.18-.64"/><path d="M73.2,48.76a3.91,3.91,0,1,1-.82,7.77,3.65,3.65,0,0,1-1.28-.37h0L63.67,52.6h0a1,1,0,0,1-.54-1,1,1,0,0,1,.73-.83h0l8-1.94h0a3.91,3.91,0,0,1,1.33-.1"/><path d="M71.8,58.32a3.91,3.91,0,1,1-3.91,6.78,4.09,4.09,0,0,1-1-.87h0L61.53,58h0a1,1,0,0,1-.1-1.1,1,1,0,0,1,1-.46h0l8.11,1.47h0a4,4,0,0,1,1.26.45"/><path d="M66.64,66.49a3.91,3.91,0,1,1-6.33,4.6,3.74,3.74,0,0,1-.58-1.21h0L57.4,62h0a1,1,0,0,1,.35-1,1,1,0,0,1,1.11,0h0l6.81,4.64h0a4.07,4.07,0,0,1,1,.92"/><path d="M58.59,71.85a3.91,3.91,0,1,1-7.65,1.63,3.78,3.78,0,0,1,0-1.34h0L52,64h0a1,1,0,0,1,1.76-.37h0l4.32,7h0a4,4,0,0,1,.51,1.23"/><path d="M49.06,73.48a3.91,3.91,0,0,1-7.65-1.63,4,4,0,0,1,.51-1.23h0l4.32-7h0a1,1,0,0,1,1-.43A.94.94,0,0,1,48,64h0l1.1,8.16h0a3.78,3.78,0,0,1,0,1.34"/><path d="M39.69,71.09a3.91,3.91,0,1,1-6.32-4.6,3.85,3.85,0,0,1,1-.92h0l6.81-4.64h0A.95.95,0,0,1,42.59,62h0l-2.32,7.91h0a3.74,3.74,0,0,1-.58,1.21"/><path d="M32.11,65.1a3.91,3.91,0,0,1-3.91-6.78,4,4,0,0,1,1.26-.45h0l8.11-1.48h0a1,1,0,0,1,.9,1.56h0l-5.33,6.28h0a4.31,4.31,0,0,1-1,.87"/><path d="M27.62,56.53a3.91,3.91,0,1,1,.51-7.67v0l8,1.95h0a1,1,0,0,1,.73.83,1,1,0,0,1-.54,1h0L28.9,56.17v0a3.46,3.46,0,0,1-1.28.38"/><path d="M27,46.89a3.91,3.91,0,1,1,2.41-7.44,3.85,3.85,0,0,1,1.18.64v0l6.51,5h0a1,1,0,0,1,.33,1.05,1,1,0,0,1-.88.66h0l-8.23.25v0A3.75,3.75,0,0,1,27,46.89"/><path d="M30.35,37.82a3.91,3.91,0,1,1,6-4.75h0l3.91,7.25h0a1,1,0,0,1-1.21,1.33h0l-7.62-3.13h0a4.13,4.13,0,0,1-1.14-.7"/><path d="M37.11,30.9a3.91,3.91,0,0,1,7.14-3.18A4.12,4.12,0,0,1,44.57,29h0l.62,8.21h0a.95.95,0,0,1-1.64.73h0l-5.69-6h0a3.74,3.74,0,0,1-.75-1.11"/></svg>