<svg id="图层_1" data-name="图层 1" xmlns="http://www.w3.org/2000/svg" viewBox="0 0 100 100"><title>logohunt03</title><polygon points="58.87 52.28 58.87 54.97 64.17 58.86 64.17 52.28 58.87 52.28"/><path d="M47.07,46.59a5,5,0,0,1,5.86,0l.7.51,0,0a5,5,0,0,1,3.5-1.44h8.73a5,5,0,0,1,5,5v9.16l1.37,1a23.56,23.56,0,1,0-44.42,0Z"/><path d="M76.08,67.59,67.6,61.37V50.57a1.73,1.73,0,0,0-.51-1.21,1.68,1.68,0,0,0-1.21-.5H57.16a1.71,1.71,0,0,0-1.71,1.71v1.89L51,49.2a1.71,1.71,0,0,0-2,0L23.93,67.59a1.71,1.71,0,0,0,2,2.76L50,52.7l24,17.65a1.71,1.71,0,0,0,2-2.76M58.87,52.28h5.3v6.58L58.87,55Z"/></svg>