<svg id="图层_1" data-name="图层 1" xmlns="http://www.w3.org/2000/svg" viewBox="0 0 100 100"><defs><style>.cls-1{fill:#231815;}</style></defs><title>logohunt02</title><path class="cls-1" d="M67.86,38.61c0-3.57-3.28-5.94-6.27-5.94-2.52,0-4.7,1.12-4.84,2.4-.06.48.38.78,1,.46a4.86,4.86,0,0,1,4.72.3,4.42,4.42,0,0,1,2,3.7c0,4.28-4.71,5.64-11.9,9.4-3.9,2-6.35,4.24-6.35,6.76a1.23,1.23,0,0,0,0,.2,1.55,1.55,0,0,0,3.08-.2c.3-2.69,1.73-4.1,3.2-4.39a3.52,3.52,0,0,1,1.4,0c2.17.58,3.36,2.37,3.36,5,0,5.18-4.28,9.32-10,9.32-6.19,0-10.75-4.47-10.75-10.89,0-4.66,2.33-7.8,6.08-8.61a14.73,14.73,0,0,0,5.19,2.09,1.32,1.32,0,0,0,.73-.1l2.63-1.42c.08-.05.12-.21-.19-.28a20.91,20.91,0,0,1-6-2.29,4.81,4.81,0,0,1-2.47-4.28,5,5,0,0,1,5.23-5.18c2.71,0,4.23,1.71,5.18,1.71a1.39,1.39,0,0,0,1.34-1.28c0-1-3-3.14-6.85-3.14-5.09,0-8.85,3.38-8.85,7.7a6.79,6.79,0,0,0,2,4.81c-5.61,2.33-8.42,5.94-8.42,11a11.89,11.89,0,0,0,7,10.89A15.81,15.81,0,0,0,46.17,68a16,16,0,0,0,12-5,10.16,10.16,0,0,0,2.9-6.8c0-3.57-1.86-6-5.61-6.57C63.82,46.08,67.86,43.27,67.86,38.61Z"/></svg>