<svg id="图层_1" data-name="图层 1" xmlns="http://www.w3.org/2000/svg" viewBox="0 0 100 100"><title>logohunt03</title><path d="M59.32,40.36a1.76,1.76,0,0,0-.2-.12,16.45,16.45,0,0,1-8.32-8.87c-.14-.51-.29-1-.41-1.48a19.39,19.39,0,0,1-.44-7c-.27.53-.57,1.12-1,1.77l-1,1.42c-.44.62-1,1.33-1.59,2.07-1.22,1.48-2.73,3.14-4.47,5l.21.12L42,33.14Q26.87,48.27,36.78,62q8.65,9.84,22.72,4.14c5.59-2.87,8.1-7.48,7.57-13.84-.32-5.83-2.9-9.82-7.69-12ZM42,38.26a.59.59,0,0,1,.44.09,6.69,6.69,0,0,0,3.31,1.15c.21-2,.54-3.93.95-6a.6.6,0,0,1,.24-.35.57.57,0,0,1,.44-.06.57.57,0,0,1,.45.65A59.5,59.5,0,0,0,46.6,44.17a9.23,9.23,0,0,0,5.18-4.26.56.56,0,0,1,.35-.26.6.6,0,0,1,.45.06.56.56,0,0,1,.23.35.55.55,0,0,1-.05.42,10.07,10.07,0,0,1-6.19,4.88,40.92,40.92,0,0,0,.21,4.31v0a42.75,42.75,0,0,0,.65,4.44,13.15,13.15,0,0,0,8.43-5,.44.44,0,0,1,.39-.21.69.69,0,0,1,.44.12.48.48,0,0,1,.18.39.63.63,0,0,1-.12.44,14.3,14.3,0,0,1-9.08,5.38c.21.89.44,1.78.71,2.67V58c.26.85.53,1.74.85,2.6a15,15,0,0,0,10.48-6.33.46.46,0,0,1,.35-.24.55.55,0,0,1,.42.09.51.51,0,0,1,.23.36.6.6,0,0,1-.09.44,16,16,0,0,1-10.94,6.77c.29.74.74,1.81,1.33,3.2a.56.56,0,0,1,0,.44.55.55,0,0,1-.33.3.49.49,0,0,1-.41,0,.53.53,0,0,1-.32-.3c-.8-1.92-1.34-3.22-1.6-3.9l0-.06c-.33-.86-.62-1.75-.89-2.61a13,13,0,0,1-7.51-1,.64.64,0,0,1-.3-.33.49.49,0,0,1,0-.41.55.55,0,0,1,.3-.33.56.56,0,0,1,.44,0,12.21,12.21,0,0,0,6.75.95,28.12,28.12,0,0,1-.68-2.78l0-.06v-.06a40.28,40.28,0,0,1-.68-4.38A10.24,10.24,0,0,1,38,48.28a.51.51,0,0,1-.21-.35.53.53,0,0,1,.47-.65.55.55,0,0,1,.42.09,9.3,9.3,0,0,0,6.92,1.92,42.44,42.44,0,0,1-.15-4.38v0a41.31,41.31,0,0,1,.21-4.26,7.52,7.52,0,0,1-3.85-1.33.49.49,0,0,1-.24-.35.61.61,0,0,1,.09-.45.51.51,0,0,1,.36-.23"/><path d="M44.27,68.81a1.49,1.49,0,0,0,.14.24q2.76,4.4-1.77,8.07H55A25.47,25.47,0,0,1,51,70a2.7,2.7,0,0,1-.15-.38,17.08,17.08,0,0,1-5.68-.56c-.29-.09-.59-.15-.85-.24"/></svg>