<svg id="图层_1" data-name="图层 1" xmlns="http://www.w3.org/2000/svg" viewBox="0 0 100 100"><defs><style>.cls-1{fill-rule:evenodd;}</style></defs><title>logohunt03</title><path class="cls-1" d="M26.56,48.79c15.75-7,30.91-6.76,46.88,0l-4.63,3.46,3.49,6c-15.76-6.85-28.62-6.85-44.6,0l3.49-6Zm34.19,5.93a79.36,79.36,0,0,1,11.18,3.86c-1.3,1.32-2.37,2.38-3.6,3.61a82.83,82.83,0,0,0-10.95-3.71c1.16-1.27,2.24-2.47,3.37-3.76m-21.5,0a79.36,79.36,0,0,0-11.18,3.86c1.3,1.32,2.37,2.38,3.6,3.61a82.83,82.83,0,0,1,10.95-3.71c-1.16-1.27-2.24-2.47-3.37-3.76m3.37,4.06c-.31,2.62-.64,5.31-1,8A29.13,29.13,0,0,0,28.26,74V69.37l-5.45-1c8-6.14,10.79-6.79,19.8-9.56m14.76,0c.31,2.62.64,5.31,1,8A29.13,29.13,0,0,1,71.74,74V69.37l5.44-1c-8-6.14-10.79-6.79-19.8-9.56"/><path class="cls-1" d="M27.25,32.44c.57-.77,1.15-1.53,1.73-2.29l1.71,1v2.49c.61-.22,1.22-.44,1.82-.63V30.47l1.74-2.11c.57.35,1.14.73,1.71,1.11V32l1.84-.46V29l1.65-1.93,1.79,1.25v2.51l.42-.06,1-.14.39-.05V28.08c.58-.61,1.16-1.22,1.74-1.81l1.7,1.46v2.51c.61,0,1.22-.07,1.83-.09V27.63L50,26c.58.54,1.15,1.09,1.72,1.64v2.52l1.83.07V27.69l1.66-1.46c.59.58,1.19,1.18,1.79,1.79v2.53l.42.06,1,.13.4.06V28.28c.57-.45,1.15-.87,1.73-1.29l1.71,2v2.52l1.83.46V29.4c.57-.38,1.15-.76,1.73-1.12l1.71,2.14v2.5c.61.19,1.22.41,1.84.63V31.06l1.65-1,1.79,2.34v2.48l1.39.59v1.33l-1.39-.58v6.61l1.39.57v1.2l-1.39-.56v3.1c-1.15-.48-2.3-.92-3.44-1.33V42.78c-.62-.21-1.23-.43-1.84-.61v3c-1.15-.38-2.3-.71-3.44-1v-3l-1.83-.44v3c-1.15-.27-2.3-.5-3.44-.69V40.13l-.4-.06-1-.14-.35,0v2.89c-1.15-.15-2.3-.28-3.45-.36V39.55c-.61,0-1.22-.06-1.83-.07v2.84c-1.15,0-2.3,0-3.45,0V39.48c-.61,0-1.22,0-1.83.07v2.83c-1.14.07-2.29.18-3.44.33V39.88l-.39,0-1,.14-.36,0V43c-1.15.19-2.29.41-3.44.68V40.76L36,41.2v2.9c-1.15.31-2.29.65-3.45,1v-3c-.6.18-1.21.39-1.82.6v3c-1.14.41-2.29.87-3.44,1.37V44.06l-1.43.57v-1.2l1.43-.58V36.24l-1.37.56V35.47l1.37-.56Zm31.15-.33-1-.14L57,31.91v6.75l.35.05,1,.14.4,0V32.16l-.4,0m10.95,9.46V34.9c-.62-.22-1.23-.44-1.84-.63V41c.61.19,1.22.4,1.84.62M64.07,40V33.27l-1.83-.45v6.73l1.83.44M42.63,32l-1,.13-.42.06V38.9l.36,0,1-.14.39-.05V31.94l-.39.06m10.94,6.32V31.58c-.61,0-1.22-.06-1.83-.07v6.74c.61,0,1.22,0,1.83.07m-5.28-.07V31.51q-.91,0-1.83.09v6.73c.61,0,1.22-.07,1.83-.08M37.8,39.54V32.86L36,33.31V40l1.84-.45M32.51,41V34.3c-.6.19-1.21.41-1.82.62v6.64c.61-.22,1.22-.42,1.82-.61"/><path class="cls-1" d="M33.51,53.09c-.08-.74-.12-1-.92-1.13-.06.82.13,1,.92,1.13m33,0c.08-.74.12-1,.92-1.13.06.82-.13,1-.92,1.13m-.26,0c-.7-.23-1-.32-.91-1.13.82.11,1,.34.91,1.13m0-1.08c-.64-.21-.88-.3-.83-1.05.75.11.9.32.83,1.05m.25,0c.07-.68.11-.93.84-1,.06.75-.11.94-.84,1m-.23-1c-.6-.2-.83-.28-.78-1,.7.1.84.29.78,1m.22,0c.07-.63.1-.87.79-1,.06.7-.11.87-.79,1m-.11-.65c-.4-.6-.55-.83,0-1.39.57.58.55.85,0,1.39m-.06,3h.17v1.07h-.18Zm-.82-6h.08v2.43h-.08Zm1.72,1h0v1.6h-.06ZM66.62,48h0v1h0Zm-.57-.31h0v1.07h0ZM33.77,53.11c.7-.23,1-.32.91-1.13-.82.11-1,.34-.91,1.13m0-1.08c.64-.21.88-.3.83-1.05-.75.11-.9.32-.83,1.05m-.25,0c-.07-.68-.11-.93-.84-1-.06.75.11.94.84,1m.23-1c.6-.2.83-.28.78-1-.7.1-.84.29-.78,1m-.22,0c-.07-.63-.1-.87-.79-1,0,.7.11.87.79,1m.11-.65c.4-.6.55-.83,0-1.39-.57.58-.55.85,0,1.39m.06,3h-.17v1.07h.17Zm.82-6h-.08v2.43h.08Zm-1.72,1h0v1.6h.06Zm.56-.32h0v1h0Zm.57-.31h0v1.07h0Z"/></svg>