<svg id="图层_1" data-name="图层 1" xmlns="http://www.w3.org/2000/svg" viewBox="0 0 100 100"><title>logohunt03</title><path d="M37.8,33.78c-4.44-2.63-10.28-.28-12.73,4.67s-.73,10.89,3.85,13.26,15.9,2.38,23.89,11.48C56.27,67.12,50,41,37.8,33.78"/><path d="M62.28,34.35a7.21,7.21,0,0,0-10-4.44,8.7,8.7,0,0,0-4.66,10.73c1.47,4.19,8.14,10.81,8.11,21.3,0,4.53,9.94-15.81,6.5-27.59"/><path d="M75.28,52.71a6.2,6.2,0,0,0-2.51-8.45,6.06,6.06,0,0,0-8.11,3c-1.55,3.18-1.83,10.84-7.53,16.54-2.47,2.47,13.47-2.61,18.15-11.13"/><path d="M72.4,70.42a4.65,4.65,0,0,0,3-5.64,4,4,0,0,0-5.21-2.89c-2.26.76-6.13,4.47-11.53,4.24-2.33-.1,7.45,6,13.76,4.29"/></svg>