<svg id="图层_1" data-name="图层 1" xmlns="http://www.w3.org/2000/svg" viewBox="0 0 100 100"><defs><style>.cls-1{fill:#fff;}</style></defs><title>logohunt03</title><path d="M63.71,49.05c-2.09-.33-7.77-.66-9.18,2-1.19,2.2,3.74,3.38,4.49,5.18,1.41,3.38-3.6,4.57-5.84,5.06a21.87,21.87,0,0,0-10.1,2.85,303.26,303.26,0,0,1,33.83,1.24c-1-3.23-1.8-6.49-2.52-9.78-.2-.91-1.08-4.09-1.08-4.09s-7.5-2.09-9.6-2.41"/><path d="M25.88,45.68c15.54-2.32,31.91-.71,47,3.37a32,32,0,0,1-.64-6.71c.06-2.6.26-5.29.37-7.89a233,233,0,0,1-24.18,2.17c-4.2.19-8.41.33-12.62.21-1.56,0-9.73-.09-10.6-.07a43.81,43.81,0,0,1,.53,9c.16,0,.28-1.15.18-.08"/><path d="M45.74,59.72c1.36-.26,13.61-1,10.55-3.73-1.54-1.37-4.57-2.47-3.59-5.13s4.69-2.71,7-2.72a121.91,121.91,0,0,0-30.56-2,22.33,22.33,0,0,0-3.47.39s-.07,1-.26,2.38c-.36,2.76-.6,5.33-1,8.08s-.82,5.73-1.3,8.58c4.06-.55,8.13-.94,12.21-1.2,1.79-.11,2.57-1.07,4.08-2a24.87,24.87,0,0,1,6.36-2.67"/><path class="cls-1" d="M63.35,41.36c-.22.85-1.1,1.4-1.3,2.29s.25,1.35.85,2a3.38,3.38,0,0,1,.46,2.92h1.08a5,5,0,0,1-.76-3.17c.14-.55.6-1,.64-1.56s-.31-.92-.56-1.42a2.44,2.44,0,0,1-.31-1.15Z"/><path class="cls-1" d="M67.26,37.37a2.25,2.25,0,0,1-.05-.82,24.26,24.26,0,0,1-2,2.64c-.93,1.44,0,2.76,1.14,3.94,1.37,1.43,1.46,3.39.9,5.61.4-.1.87-.1,1.27-.21a3.51,3.51,0,0,1-.25-2.42,3.12,3.12,0,0,1,1.1-1.83c2-2.35-1.57-4.93-2.08-6.91"/></svg>