<svg id="图层_1" data-name="图层 1" xmlns="http://www.w3.org/2000/svg" viewBox="0 0 100 100"><title>logohunt03</title><path d="M50.65,22.88a4.76,4.76,0,1,0,4.76,4.76,4.76,4.76,0,0,0-4.76-4.76"/><path d="M36.87,26.79a4.55,4.55,0,1,0,6.21,1.66,4.53,4.53,0,0,0-6.21-1.66"/><path d="M32.88,35.39a4.33,4.33,0,1,0,1.59,5.92,4.33,4.33,0,0,0-1.59-5.92"/><path d="M31.75,50.65a4.11,4.11,0,1,0-4.11,4.11,4.11,4.11,0,0,0,4.11-4.11"/><path d="M28.77,58.78a3.9,3.9,0,1,0,5.32,1.43,3.89,3.89,0,0,0-5.32-1.43"/><path d="M41,67.39a3.68,3.68,0,1,0,1.35,5,3.68,3.68,0,0,0-1.35-5"/><path d="M50.65,70.2a3.46,3.46,0,1,0,3.46,3.46,3.46,3.46,0,0,0-3.46-3.46"/><path d="M60.53,67.77A3.25,3.25,0,1,0,65,69a3.25,3.25,0,0,0-4.44-1.19"/><path d="M72.09,59.53a3,3,0,1,0,1.11,4.14,3,3,0,0,0-1.11-4.14"/><path d="M73.66,47.84a2.81,2.81,0,1,0,2.81,2.81,2.81,2.81,0,0,0-2.81-2.81"/><path d="M71.88,41.39a2.6,2.6,0,1,0-3.55-1,2.6,2.6,0,0,0,3.55,1"/><path d="M61,32.78a2.38,2.38,0,1,0-.87-3.25A2.39,2.39,0,0,0,61,32.78"/></svg>