<svg id="图层_1" data-name="图层 1" xmlns="http://www.w3.org/2000/svg" viewBox="0 0 100 100"><title>logohunt03</title><path d="M69.11,38A15.12,15.12,0,0,0,54,22.89a14.07,14.07,0,0,0-9,3,12.42,12.42,0,0,0-1.71,1.48A14.53,14.53,0,0,0,38.85,38c0,.68,0,1.35.09,2a14.5,14.5,0,0,0,4.32,8.73,15.24,15.24,0,0,0,4.93,3.36,14.64,14.64,0,0,0,3.49.93c.74.1,1.51.13,2.28.16.36,0,.68,0,1,0a14.57,14.57,0,0,0,9.74-4.42,17,17,0,0,0,2.09-2.58A15.08,15.08,0,0,0,69.11,38"/><path d="M44.17,25.08a8.38,8.38,0,0,0-10.87.78,8.34,8.34,0,0,0,0,11.73,8.18,8.18,0,0,0,4.55,2.32,16.89,16.89,0,0,1-.1-1.9,15.5,15.5,0,0,1,4.74-11.44,19.28,19.28,0,0,1,1.68-1.49"/><path d="M43.36,55.16a5.94,5.94,0,0,0-6-6,5.84,5.84,0,0,0-4.23,1.74,5.77,5.77,0,0,0-1.74,4.23,6,6,0,0,0,10.19,4.19l.13-.13a6.35,6.35,0,0,0,.84-1.16,5.64,5.64,0,0,0,.77-2.9"/><path d="M42.59,58.06a6.35,6.35,0,0,1-.84,1.16,27.93,27.93,0,0,1,2.42,6c.35,1.13.74,2.16,1.16,3.16,1.35,3.19.38,6.09-2.91,8.77H55.9a29.67,29.67,0,0,1-2.48-3.64l-1.74-3.58c-.07-.16-.13-.36-.2-.55l-.09-.19c0-.1,0-.17-.07-.23a25.17,25.17,0,0,1-1.22-5.48A21,21,0,0,1,55.87,55c.22.29.45.55.71.84a6.73,6.73,0,0,0,5,2.06,6.6,6.6,0,0,0,5-2.06,6.77,6.77,0,0,0,2.1-5A6.69,6.69,0,0,0,67.53,47a18.61,18.61,0,0,1-2.09,2.52,15.68,15.68,0,0,1-10.67,4.74,23.88,23.88,0,0,0-4.67,3.89,40,40,0,0,1,1.25-4.09,15.47,15.47,0,0,1-3.67-1,26.44,26.44,0,0,0-3.06,8.48,12.38,12.38,0,0,0-2-3.45"/></svg>