<svg id="图层_1" data-name="图层 1" xmlns="http://www.w3.org/2000/svg" viewBox="0 0 100 100"><defs><style>.cls-1{fill:#231815;}</style></defs><title>logohunt02</title><path class="cls-1" d="M60.65,39c5.49,0,7-.74,7-.74V28.07s-1.51.75-7,.75a13.89,13.89,0,0,1-5-.64,10.1,10.1,0,0,0-.15-2.41c-1.32-3.84-7.83-3.86-9.21-3.74s-3,.35-4.71.69a89.13,89.13,0,0,0-9.27,2.43V74.22s9.56-2.91,14.91-3.29c6.58-.47,8.16,1.76,8.39,2.88S54.45,75,54.25,76s-.13,2,6.4,2c5.49,0,7-.75,7-.75V67.12s-1.51.75-7,.75a13.83,13.83,0,0,1-5-.65c0-.18,0-2.5,0-3.47-.07-1.13-1.81-3.35-8.39-2.87a43.07,43.07,0,0,0-5.49.85l0,0V52.28a42,42,0,0,1,5.54-.87c6.58-.47,8.16,1.76,8.39,2.87a1,1,0,0,1,0,.28h0v3.21c1.22.41,1.67.71,5,.71,5.49,0,7-.75,7-.75V47.6s-1.51.74-7,.74a13.89,13.89,0,0,1-5-.64c0-.19,0-2.46,0-3.47s-1.81-3.35-8.39-2.88a42.3,42.3,0,0,0-5.54.87V32.76a43.94,43.94,0,0,1,5.54-.88c6.58-.46,8.16,1.77,8.39,2.88a.91.91,0,0,1,0,.32h0v3.17c1.22.41,1.67.7,5,.7"/></svg>