<svg id="图层_1" data-name="图层 1" xmlns="http://www.w3.org/2000/svg" viewBox="0 0 100 100"><title>logohunt03</title><rect x="31.3" y="56.3" width="8.63" height="8.63"/><rect x="42.67" y="56.3" width="8.63" height="8.63"/><path d="M75.33,39.28A10.51,10.51,0,0,0,71.69,36,10.57,10.57,0,0,0,51,36a10.63,10.63,0,0,0-3.65,3.31A10.57,10.57,0,0,0,56.1,55.81h0V69H26.94V47.31l4.63-4.25V38.52h1.64v3l9.83-9L47,36.13a12.91,12.91,0,0,1,2-1.66,13.49,13.49,0,0,1,.57-1.54l-6.53-6-8.13,7.48H27.46v6.84L22.82,45.5V73.07H60.23V50.87l-2.55.63a6.33,6.33,0,0,1-1.58.2,6.47,6.47,0,0,1-6.46-6.46,6.48,6.48,0,0,1,4-6l1.15-.47.12-1.23a6.46,6.46,0,0,1,12.85,0l.12,1.23,1.15.47a6.5,6.5,0,0,1,2.89,2.34,6.46,6.46,0,0,1-5.33,10.1A6.33,6.33,0,0,1,65,51.5l-2.55-.63v22.2h4.11V55.81h0a10.56,10.56,0,0,0,8.72-16.53"/></svg>