<svg id="图层_1" data-name="图层 1" xmlns="http://www.w3.org/2000/svg" viewBox="0 0 100 100"><title>logohunt03</title><path d="M32.73,49.94A32.49,32.49,0,0,0,43.16,73.76c2.56,2.37,9,6.62,8.89,6.93-.29.82-7.85-.4-13.58-5.3A33.64,33.64,0,0,1,26.69,49.94,33,33,0,0,1,38.47,24.48c6.28-5.17,13.44-5.7,13.58-5.3.23.62-6.33,4.56-8.89,6.93A32.49,32.49,0,0,0,32.73,49.94"/><path d="M68.54,49.78A25.65,25.65,0,0,1,60.3,68.59c-2,1.87-7.11,5.22-7,5.47.24.64,6.2-.32,10.73-4.18a26.56,26.56,0,0,0,9.3-20.1A26.07,26.07,0,0,0,64,29.69c-5-4.08-10.61-4.5-10.73-4.18-.18.49,5,3.59,7,5.46a25.66,25.66,0,0,1,8.24,18.81"/><path d="M40.66,49.76a22.23,22.23,0,0,0,6.47,15.79c1.59,1.57,5.6,4.38,5.53,4.59-.19.54-4.88-.27-8.44-3.51a23,23,0,0,1-7.31-16.87A22.52,22.52,0,0,1,44.22,32.9c3.9-3.43,8.34-3.78,8.44-3.51s-3.94,3-5.53,4.59a22.24,22.24,0,0,0-6.47,15.78"/><path d="M59.94,49.75a16.25,16.25,0,0,1-4.49,11.34c-1.1,1.13-3.88,3.15-3.83,3.3.13.39,3.39-.19,5.85-2.52a16.75,16.75,0,0,0,5.08-12.12,16.43,16.43,0,0,0-5.08-12.11c-2.7-2.46-5.79-2.72-5.85-2.52s2.73,2.16,3.83,3.29a16.25,16.25,0,0,1,4.49,11.34"/></svg>