<svg id="图层_1" data-name="图层 1" xmlns="http://www.w3.org/2000/svg" viewBox="0 0 100 100"><defs><style>.cls-1{fill:#231815;}</style></defs><title>logohunt02</title><path class="cls-1" d="M65,38.33a1.8,1.8,0,0,0-1.91,1.59,1.7,1.7,0,0,0,3.39.21,1.67,1.67,0,0,0,0-.5c1.69,1.25,1.8,2.56,1.29,3.6-1.11,2.26-5.63,1.47-10.25.44-9.23-2-13.43,4.53-14.16,7.33-1.08,4.16,1,7.78,4.87,7.78a4.42,4.42,0,0,0,4.6-4,4.36,4.36,0,0,0-7.56-3.15.47.47,0,0,1,.06-.21c5.3-9.76,16.74-2.63,16.54,3.62-.11,3.76-4.69,9.25-13.84,9.07-7.69-.14-13-5.12-13-9.58,0-3.82,5.36-8.79,11.07-9.23,0,0-7.88-4.14-5.52-9.23,1-2.08,5.68-4,8,.09a1.76,1.76,0,0,0-.4-.07,2,2,0,1,0-.25,4A2.13,2.13,0,0,0,50,38.76c.62-1.25,0-3.63-1-4.68-5.26-5.52-15,1-12.16,7.24a7.47,7.47,0,0,0,3.38,3.16S30.74,47.08,30.74,55c0,7.26,7.27,12.82,17,13,11.87.22,17.07-8,16.77-13.27-.2-3.47-2.6-6.37-3.39-6.42,2.46.16,6.68.52,7.85-3.18,1.34-4.25-2.18-6.8-3.93-6.8"/></svg>