<svg id="图层_1" data-name="图层 1" xmlns="http://www.w3.org/2000/svg" viewBox="0 0 100 100"><defs><style>.cls-1{fill:#231815;}</style></defs><title>logohunt02</title><path class="cls-1" d="M79,69.25V68H48.52V65.46h1V66.6h.82V65.46H67.06v-.88H50.38V37.43h-.82V64.58h-1V55.35H47.45v9.23H46.37V61.16H44.85v3.42H43.76V60.21h2.61v-.88H43.76V57H42.7v7.59h-1V50.12h-.83V64.58h-3.3v.88h3.3V68H21v1.25H40.83v1.51H33.1v.88h7.73V85.7h.83V71.64h1v6.48h1.06V71.64h1.09v1.59h1.52V71.64h1.08v3.9h1.07v-3.9H62.08v-.88H48.52V69.25H79M42.7,70.76h-1V69.25h1Zm2.15,0H43.76V69.25h1.09Zm0-2.76H43.76V66.41H42.7V68h-1V65.46h3.19Zm2.6,2.76H46.37V69.25h1.08Zm0-2.76H46.37V65.46h1.08ZM46.37,23.22H44.85v6.46h1.52ZM44.85,58.38h1.52V31.29H44.85ZM41.66,14.3h-.83V27.74h.83Zm8.72,0h-.83V35h.83Zm-1.86,0H47.45V17h1.07Zm-4.76,0H42.7V17h1.06Zm2.61,0H44.85V17h1.52Zm-2.61,8.44H42.7v11.6h1.06Zm0,18.58H42.7v13.9h1.06Zm0-5.07H42.7v3.16h1.06Zm-2.1-5.89h-.83V44.12h.83Zm0,15.8h-.83v1.93h.83Zm6.86,5.31H47.45v2.4h1.07Zm0-28.73H47.45V50h1.07Z"/></svg>