<svg id="图层_1" data-name="图层 1" xmlns="http://www.w3.org/2000/svg" viewBox="0 0 100 100"><title>logohunt03</title><path d="M45,48.44a4.59,4.59,0,1,1-4.59-4.59A4.58,4.58,0,0,1,45,48.44"/><path d="M52.58,54.37c-2.11,1.49-4.25,3-6.46,4.38a45.29,45.29,0,0,1-7.3,4,8.94,8.94,0,0,1-1.36.41,6,6,0,0,1-1,.13c-.36,0-.54,0-.83,0a8.69,8.69,0,0,1-2.86-.78,12.69,12.69,0,0,1-4-3,25.91,25.91,0,0,1-3.95-5.92l-2,1.3A27.92,27.92,0,0,0,27.29,61a14.85,14.85,0,0,0,4.79,3.37,10.86,10.86,0,0,0,3.56.81,8.45,8.45,0,0,0,2.4-.22,11.29,11.29,0,0,0,1.54-.53A45.43,45.43,0,0,0,47,60c2.18-1.52,4.27-3.08,6.33-4.66C61.55,49,69.39,42.43,77.18,35.71,69.12,42.13,61,48.39,52.58,54.37"/><path d="M49.83,50.37c-2.25,1.21-4.51,2.38-6.77,3.47s-9.14,1.77-11-5h0l-6.26,4.13a24.43,24.43,0,0,0,3.81,5.73,11.64,11.64,0,0,0,3.64,2.78,7.52,7.52,0,0,0,2.49.68c.24,0,.41,0,.7,0a4.37,4.37,0,0,0,.82-.1,7.8,7.8,0,0,0,1.2-.36,43.59,43.59,0,0,0,7.08-3.89c2.19-1.4,4.32-2.86,6.42-4.35,8.41-6,16.51-12.21,24.55-18.61-8.79,5.41-17.64,10.67-26.65,15.53"/></svg>