<svg id="图层_1" data-name="图层 1" xmlns="http://www.w3.org/2000/svg" viewBox="0 0 100 100"><title>logohunt03</title><polygon points="50.14 31.72 66.22 48.13 66.19 69.92 72.52 69.9 72.52 51.45 76.07 51.45 50.14 25.2 50.14 31.72"/><polygon points="50.14 25.19 25.61 51.22 28.87 51.21 28.87 67.84 33.55 67.84 33.55 48.16 50.14 31.72 50.14 25.19"/><rect x="50.79" y="48.56" width="5.77" height="5.94"/><rect x="50.79" y="56.35" width="5.77" height="5.94"/><rect x="43.96" y="49.65" width="4.71" height="4.85"/><rect x="43.96" y="56.35" width="4.71" height="4.85"/><rect x="50.14" y="71.6" width="27.04" height="3.21"/><polygon points="22.82 69.48 22.82 71.6 47.52 71.6 47.52 74.81 50.14 74.81 50.14 71.6 50.14 69.48 22.82 69.48"/></svg>