<svg id="图层_1" data-name="图层 1" xmlns="http://www.w3.org/2000/svg" viewBox="0 0 100 100"><title>logohunt01</title><path d="M29.1,49.74V26.45c0-1.59.7-2.29,2.29-2.29H46.26a1.76,1.76,0,1,1,.22,3.51c-.57,0-1.14,0-1.71,0-3.74,0-7.48,0-11.23,0-.49,0-.67.07-.67.62,0,7.22,0,14.43,0,21.64,0,.53.14.66.65.66q6.42,0,12.82,0A1.69,1.69,0,0,1,48,53.12a1.84,1.84,0,0,1-1.79.89H33.65c-.76,0-.76,0-.76.75V73.29a1.91,1.91,0,0,1-2.14,2.06,1.89,1.89,0,0,1-1.64-1.74c0-.21,0-.43,0-.64Z"/><path d="M56.81,53.35l1,1.35q6.7,8.69,13.4,17.36a1.89,1.89,0,0,1,.45,2,2,2,0,0,1-1.62,1.29,1.88,1.88,0,0,1-1.8-.88q-2.91-3.78-5.81-7.55-4.78-6.26-9.59-12.5a1.11,1.11,0,0,0-.69-.48,1.7,1.7,0,0,1,.42-3.36,21.24,21.24,0,0,0,7.66-1.25c3.4-1.32,6.05-3.45,7.11-7.06a10.47,10.47,0,0,0-1.84-10.18,12.19,12.19,0,0,0-6.74-3.82,24.17,24.17,0,0,0-6.06-.6,1.75,1.75,0,0,1-1.9-1.85,1.66,1.66,0,0,1,1.55-1.64c4.89-.13,9.6.6,13.68,3.53A13,13,0,0,1,71.62,40c-.49,6.28-4.19,10-9.84,12.14A25.78,25.78,0,0,1,56.81,53.35Z"/></svg>