<svg id="图层_1" data-name="图层 1" xmlns="http://www.w3.org/2000/svg" viewBox="0 0 100 100"><defs><style>.cls-1{fill:#231815;}</style></defs><title>logohunt01</title><path class="cls-1" d="M58.24,65.2V40c0-1.37-.11-4.79-4.22-4.79H46.61v1.49h4c2.74,0,2.68,1.08,2.68,3.3V70.51c0,5.25-2.73,7.76-5.81,7.76C45.41,78.27,42,77,42,73.13V69.71h-.28v3.88c0,3.14,3.42,6.5,7,6.5,3.88,0,7.36-2,8.55-6,1-3.31,1-5.47,1-8.9"/><path class="cls-1" d="M56.83,22.23a2.64,2.64,0,0,0-2.7-2.32,2.58,2.58,0,0,0-2.43,2.32A2.66,2.66,0,0,0,54.13,25a2.62,2.62,0,0,0,2.7-2.73"/></svg>