<svg id="图层_1" data-name="图层 1" xmlns="http://www.w3.org/2000/svg" viewBox="0 0 100 100"><title>logohunt03</title><path d="M67.59,33.06c2.63-4.39,5.26-7.35,7.85-8.88A29.93,29.93,0,0,0,65.86,23q-7.09.35-10.75,5.29A9,9,0,0,0,54,29.83a6,6,0,0,0,1.2,7.46,1.57,1.57,0,0,0,.23.2Q59,33.35,64.36,27.8q-4.29,5.7-7.52,10.79c.23.16.5.33.73.46,3.36,1.3,6.72-.7,10-6"/><path d="M55.47,52v0a17.49,17.49,0,0,1,4.83-1.44,20.34,20.34,0,0,0-4.56,2.23,1,1,0,0,0,.17.27c.9,1.16,2.46,1.16,4.72,0a10.4,10.4,0,0,1,4.56-1.46,12.42,12.42,0,0,0-3.06-2.4,5.46,5.46,0,0,0-4.83-.43,7.21,7.21,0,0,0-.69.33A2.39,2.39,0,0,0,55.47,52"/><path d="M55.74,52.86a20.34,20.34,0,0,1,4.56-2.23,17.49,17.49,0,0,0-4.83,1.44,22.81,22.81,0,0,0-7.42,5.42q2.06-8.24,8.79-18.9,3.24-5.1,7.52-10.79Q59,33.35,55.47,37.49c-4,4.56-6.28,7.85-7,9.88a26.63,26.63,0,0,0-5.49-9.88,16.21,16.21,0,0,0-7.79-4.66A33.54,33.54,0,0,1,41.6,39a20.54,20.54,0,0,1,4.52,12.24,27.11,27.11,0,0,0-3.59,9,4.81,4.81,0,0,1-.17.73c-.1-.27-.2-.5-.3-.73a11,11,0,0,0-2.46-3.56,8.48,8.48,0,0,0-4.69-2.3A8.06,8.06,0,0,1,39,57.86a19,19,0,0,1,1.27,2.36,35.25,35.25,0,0,1,1.66,4.52q.55,1.71,1.2,3.27c1.4,3.29.4,6.29-3,9H54a33.35,33.35,0,0,1-2.56-3.76l-1.8-3.7a2.73,2.73,0,0,1-.2-.56l-.1-.24c0-.06,0-.13-.06-.19a26.39,26.39,0,0,1-1.27-5.69,21,21,0,0,1,1.23-2.7,19.18,19.18,0,0,1,6.46-7.36"/><path d="M43.43,36.46A4.8,4.8,0,0,0,42,30.57a13.92,13.92,0,0,0-1.27-.84c-2.82-1.66-6-1.83-9.55-.53A25.91,25.91,0,0,0,24.56,33q3.54.54,8.48,4.09c3.66,2.63,6.53,3.23,8.56,1.87a33.54,33.54,0,0,0-6.46-6.16,16.21,16.21,0,0,1,7.79,4.66,4.49,4.49,0,0,0,.5-1"/><path d="M38.57,52.43c-.3-.23-.63-.43-.93-.63a7.8,7.8,0,0,0-7-.37,18.21,18.21,0,0,0-4.82,2.76,15.27,15.27,0,0,1,6.18,3q4.45,3.15,6.69,1c.1-.11.17-.2.27-.3a8,8,0,0,0-4.09-3.5,8.48,8.48,0,0,1,4.69,2.3,3.5,3.5,0,0,0-1-4.23"/></svg>