<svg id="图层_1" data-name="图层 1" xmlns="http://www.w3.org/2000/svg" viewBox="0 0 100 100"><title>logohunt03</title><path d="M32.65,23.86a8.79,8.79,0,0,1,8.75,7.88c.06.55,0,1.47,0,1.78A8.72,8.72,0,0,0,44,39.67a8.82,8.82,0,0,0,4.92,2.48,9.41,9.41,0,0,1,2.2.46A6.53,6.53,0,1,1,44.05,53.3a6.71,6.71,0,0,1-1.44-2.19,9.57,9.57,0,0,1-.46-2.21,8.79,8.79,0,0,0-8.63-7.49H32.4a6.52,6.52,0,0,1-.66,0,8.79,8.79,0,0,1,.91-17.54m0,2.32h0A6.47,6.47,0,0,0,32,39.09h0a2,2,0,0,0,.4,0h1.14a11.1,11.1,0,0,1,10.9,9.46h0s0,.13,0,.22a6.84,6.84,0,0,0,.29,1.43h0a4.34,4.34,0,0,0,.94,1.42,4.21,4.21,0,1,0,4.55-6.89h0a6.84,6.84,0,0,0-1.43-.29l-.22,0h0a11.1,11.1,0,0,1-9.46-10.9c0-.13,0-.29,0-.48a9.36,9.36,0,0,0,0-1.06h0a6.48,6.48,0,0,0-6.44-5.8"/><path d="M51.32,25.79a6.53,6.53,0,0,1,6.07,4.11,9.37,9.37,0,0,1,.46,2.21,8.81,8.81,0,0,0,8.63,7.49h0l.46,0h.64c.23,0,.47,0,.66,0a8.8,8.8,0,1,1-9.66,9.66c-.06-.55,0-1.47,0-1.78a8.76,8.76,0,0,0-7.49-8.62,10.19,10.19,0,0,1-2.21-.47A6.71,6.71,0,0,1,46.7,37a6.55,6.55,0,0,1,0-9.25h0a6.54,6.54,0,0,1,4.62-1.91m0,2.32h0a4.22,4.22,0,0,0-3,7.2,4.38,4.38,0,0,0,1.41.93h0a7.31,7.31,0,0,0,1.43.28l.22,0h0a11.1,11.1,0,0,1,9.46,10.9,4,4,0,0,1,0,.48c0,.27,0,.83,0,1.06h0a6.46,6.46,0,0,0,6.43,5.8,6.47,6.47,0,0,0,4.58-11A6.37,6.37,0,0,0,68,41.91h0a3.8,3.8,0,0,0-.4,0l-.57,0h-.57a11.06,11.06,0,0,1-7.77-3.26,11,11,0,0,1-3.13-6.21h0s0-.13,0-.22a7.55,7.55,0,0,0-.29-1.43h0a4,4,0,0,0-.93-1.41,4.16,4.16,0,0,0-3-1.24"/><path d="M32.33,44.79A6.54,6.54,0,0,1,37,46.7a6.71,6.71,0,0,1,1.44,2.19,10.31,10.31,0,0,1,.47,2.21,8.76,8.76,0,0,0,8.62,7.49H48.6a6.52,6.52,0,0,1,.66,0,8.8,8.8,0,1,1-9.66,9.66,17.43,17.43,0,0,1,0-1.78,8.81,8.81,0,0,0-7.49-8.63,9.37,9.37,0,0,1-2.21-.46A6.54,6.54,0,0,1,27.7,46.7h0a6.55,6.55,0,0,1,4.63-1.91m0,2.32a4.21,4.21,0,0,0-3,7.19,4,4,0,0,0,1.41.93h0a6.84,6.84,0,0,0,1.43.29l.22,0h0a11.12,11.12,0,0,1,9.47,10.9c0,.13,0,.29,0,.48a9.36,9.36,0,0,0,0,1.06h0a6.47,6.47,0,0,0,11,3.9,6.47,6.47,0,0,0-3.91-11h0a2,2,0,0,0-.4,0H47.46a11.1,11.1,0,0,1-10.9-9.46h0s0-.13,0-.22a7.45,7.45,0,0,0-.28-1.43h0v0a4.27,4.27,0,0,0-.93-1.41,4.22,4.22,0,0,0-3-1.23"/></svg>