<svg id="图层_1" data-name="图层 1" xmlns="http://www.w3.org/2000/svg" viewBox="0 0 100 100"><defs><style>.cls-1{fill:#231815;}</style></defs><title>logohunt02</title><path class="cls-1" d="M72.15,35.43a1.86,1.86,0,0,0-.44.62.83.83,0,0,0,.26,1c.48.39,2,0,2.38-1.38a2.18,2.18,0,0,0-3.11-2.48,2.69,2.69,0,0,0-1.09.91c-1.13,1.47-1.05,4.41-2.21,5.68A3.75,3.75,0,0,1,65.82,41,2.89,2.89,0,0,1,64,40.71l-.23-.12,0,0a4.17,4.17,0,0,1-1.3-1.36,9.29,9.29,0,0,0,.92-.37v0c-.32.11-.65.21-1,.3a3.4,3.4,0,0,1-.48-1.52,4.46,4.46,0,0,1,.41-2.25,3.68,3.68,0,0,1,1.45-1.68,2.59,2.59,0,0,1,1-.32,4.4,4.4,0,0,1,1.15,0,3,3,0,0,1,1,.41c1.41.85,1.16,4-1.94,3.25l0,.07a2.36,2.36,0,0,0,1.24.42c2.29,0,2.21-2.29,2-3.08-.35-1.49-2.53-2.94-5-1.65A4.29,4.29,0,0,0,61.71,34a4.83,4.83,0,0,0-.2,5.24,4.33,4.33,0,0,1-1.83,0,3.39,3.39,0,0,0,.62-1.05,2.6,2.6,0,0,0,.14-1.44c0-.25-.41-1.47-1.51-1.55a1.49,1.49,0,0,0-1.7,1.25c-.33,1.68,1.4,2.76,1.63,2.86a2.72,2.72,0,0,1-2.56.43,2.52,2.52,0,0,1-1.79-2.43,2,2,0,0,1,.85-1.42,6.91,6.91,0,0,0,1.87-1.45,1.51,1.51,0,0,0,0-2,1.19,1.19,0,0,0-.63-.32,1.1,1.1,0,0,0-1.35,1,.56.56,0,0,0,.53.57.56.56,0,0,0,.58-.43.73.73,0,0,0,0-.33H56.3a.69.69,0,0,1,0,.32.47.47,0,0,1-.5.33.45.45,0,0,1-.42-.45.9.9,0,0,1,.59-.78,1.06,1.06,0,0,1,1.15.22,1.14,1.14,0,0,1,.27.55,1.31,1.31,0,0,1,0,.62,1.44,1.44,0,0,1-.28.55,2.75,2.75,0,0,1-.46.44,9.5,9.5,0,0,1-1.11.7l-.29.16-.15.1-.14.11a2.9,2.9,0,0,0-.48.51,2.09,2.09,0,0,0-.3.64,1.89,1.89,0,0,0-.07.71,3.17,3.17,0,0,0,.17.69l0,.09,0,.08.09.15h0c-.22-.15-.43-.31-.63-.47a15.47,15.47,0,0,1-1.3-1.13c-.42-.39-.82-.8-1.22-1.22l-.14-.16L51,35.6,51,35.52l-.1-.09a2.75,2.75,0,0,0,1.55-3,2,2,0,0,0-1.85-1.72c-1.08,0-1.67.89-1.53,1.44a.84.84,0,0,0,.59.6s.36.06.47-.17h0a.21.21,0,0,1-.16.09s-.38,0-.24-.44a1.13,1.13,0,0,1,2.13.08,2.16,2.16,0,0,1-1.27,2.78L50.39,35a4.63,4.63,0,0,0-.42-.32,4.07,4.07,0,0,0-.95-.49l-.26-.08-.27,0L48,34a5,5,0,0,1-1-.24,2.06,2.06,0,0,1-1.22-1.4,1.94,1.94,0,0,1,1.53-2.13,8.07,8.07,0,0,0,1.95-.74c1.24-.8,1.06-1.74,1-1.93a1.64,1.64,0,0,0-1.72-1.21v.05a1.44,1.44,0,0,1,1.34,1.25c0,.28,0,.83-.91,1.4a4.62,4.62,0,0,1-.87.4c-.31.11-.64.21-1,.35a3.24,3.24,0,0,0-.91.59,2.26,2.26,0,0,0-.6.92,2.09,2.09,0,0,0,0,1.08,2.54,2.54,0,0,0,.48.94,3.13,3.13,0,0,0,.82.67,4.18,4.18,0,0,0,.88.36,2.21,2.21,0,0,0-.55.23,2.28,2.28,0,0,0-.72.63.41.41,0,0,0-.07.11l-.06.1c0,.06-.07.13-.11.2s-.12.29-.17.44a2.7,2.7,0,0,0-.12.7l-.49.11c-.5.12-1,.25-1.48.39a8.73,8.73,0,0,0-1.51.52,2.42,2.42,0,0,0-.72.49,2.1,2.1,0,0,0-.68,1.6L41,39.67a2.13,2.13,0,0,1-.12-1.23,2.52,2.52,0,0,1,1.14-1.38c.2-.12.39-.26.58-.4a5.36,5.36,0,0,0,1.06-1l.11-.15a.41.41,0,0,0,.05-.09l0,0,0,0A1.51,1.51,0,0,0,44,35a1.73,1.73,0,0,0,.05-.75,1.22,1.22,0,0,0-.33-.67.93.93,0,0,0-.3-.23,1.69,1.69,0,0,0-.36-.12,1.24,1.24,0,0,0-.71.11,1,1,0,0,0-.48.52l.05,0a.92.92,0,0,1,.47-.44,1.08,1.08,0,0,1,.64,0,.91.91,0,0,1,.52.32,1.1,1.1,0,0,1,.23.57,1.55,1.55,0,0,1-.41,1.15,5,5,0,0,1-1,.82l-.59.33a2.41,2.41,0,0,0-1.4,1.72,3.26,3.26,0,0,0,0,.83h0a5.18,5.18,0,0,1-2,0c.66-.91,1.61-4.81-1.63-6.5-2.47-1.28-4.65.17-5,1.66-.19.79-.27,3.08,2,3.08A2.45,2.45,0,0,0,35.07,37L35,37c-3.1.74-3.35-2.4-1.94-3.24a2.73,2.73,0,0,1,1-.41,4.4,4.4,0,0,1,1.15,0,2.44,2.44,0,0,1,1,.32,3.65,3.65,0,0,1,1.45,1.67,4.49,4.49,0,0,1,.41,2.25,3.53,3.53,0,0,1-.49,1.55c-.34-.09-.67-.2-1-.31l0,0c.31.14.63.27,1,.38a3.19,3.19,0,0,1-3.37,1.73,3.75,3.75,0,0,1-2.13-1.14c-1.16-1.27-1.08-4.2-2.21-5.68a2.7,2.7,0,0,0-1.09-.91,2.18,2.18,0,0,0-3.11,2.49c.41,1.41,1.9,1.76,2.38,1.38a.83.83,0,0,0,.26-1,1.76,1.76,0,0,0-.44-.62,1,1,0,0,1-.26-.4.42.42,0,0,1,.18-.41c.05,0,0,0,0,0a.54.54,0,0,0-.15.74c.13.17.59.64.47,1.08a.73.73,0,0,1-1.12.41,1.68,1.68,0,0,1-.86-1.51,1.66,1.66,0,0,1,1.78-1.63,2.1,2.1,0,0,1,1.81,1.22,14.18,14.18,0,0,1,.77,3.08,3.67,3.67,0,0,0,4.26,3.41l-.81.65c-.18.15-.36.3-.53.46h0l-.45.4-.95.92A21.09,21.09,0,0,0,28.81,48c-.22.39-.43.77-.62,1.17s-.38.79-.56,1.19a18.28,18.28,0,0,0-.88,2.48C23.39,65.1,36.19,70.48,41.47,67.11l.16-.1a5.4,5.4,0,0,0-.17.72,5.1,5.1,0,0,0,0,1.56,4.25,4.25,0,0,0,.49,1.51,4.84,4.84,0,0,0,1,1.23c.2.17.4.33.61.48l.08,0,0,0h0l0,0h0l.18.09.34.17a9.33,9.33,0,0,0,1.43.5,7.25,7.25,0,0,0,4.28-.16,7,7,0,0,0,2.17.44,8.37,8.37,0,0,0,3-.46c.24-.09.48-.18.71-.29a2.81,2.81,0,0,0,.35-.17l.18-.09.09-.07.09,0a5.59,5.59,0,0,0,1.15-1.08,4.19,4.19,0,0,0,.76-1.41,4.61,4.61,0,0,0,.21-1.6,5.7,5.7,0,0,0-.22-1.3l.32.17a6.31,6.31,0,0,0,.93.39c5.75,2.14,16.79-3.31,13.64-14.8a18.77,18.77,0,0,0-.88-2.48c-.18-.4-.36-.8-.56-1.19s-.4-.78-.62-1.16a21.09,21.09,0,0,0-3.17-4.22c-.31-.32-.63-.63-1-.92l-.45-.41h0l-.53-.46-.81-.65h0c3.22.17,4-1.92,4.26-3.41a14.18,14.18,0,0,1,.77-3.08,2.09,2.09,0,0,1,1.81-1.21,1.65,1.65,0,0,1,1.78,1.63,1.68,1.68,0,0,1-.86,1.5.73.73,0,0,1-1.12-.4c-.12-.44.34-.92.47-1.09a.54.54,0,0,0-.15-.74s0,0,0,0a.42.42,0,0,1,.18.41.86.86,0,0,1-.26.4M59.94,36.82a2.55,2.55,0,0,1-.28,1.62c-.18-1.12-1.27-1.66-1.36-2.65C59.39,35.36,59.9,36.64,59.94,36.82Zm-1.41,1.8a2.78,2.78,0,0,1-.69-1,2.06,2.06,0,0,1-.17-.57,1.2,1.2,0,0,1,.54-1.24.9.9,0,0,0,0,.23,1.87,1.87,0,0,0,.13.42,7,7,0,0,0,.43.77,5.91,5.91,0,0,1,.4.74,1.52,1.52,0,0,1,.12.75.85.85,0,0,1,0,.17.36.36,0,0,1,0,.09.05.05,0,0,1,0,0A2.53,2.53,0,0,1,58.53,38.62ZM49,34.73a3.47,3.47,0,0,1,.76.28l.17.08.28.18a26.91,26.91,0,0,1-3.67,1.35A2,2,0,0,1,49,34.73ZM48,70.8a2.68,2.68,0,0,0,.61.87,3.9,3.9,0,0,0,.75.55A5.73,5.73,0,0,1,46.15,68a6.9,6.9,0,0,1,0-2.79,5.85,5.85,0,0,1,.44-1.32,4.27,4.27,0,0,1,.78-1.14A3.36,3.36,0,0,1,48.5,62a3.06,3.06,0,0,1,3.83.84A3.54,3.54,0,0,1,52,66.12a2.62,2.62,0,0,1-1.15.93A18.18,18.18,0,0,0,49,68a2.46,2.46,0,0,0-.79.75,2.39,2.39,0,0,0-.35,1A2.29,2.29,0,0,0,48,70.8Zm1.53,1.39A3,3,0,0,1,48,69.75a1.87,1.87,0,0,1,.33-.93,2.35,2.35,0,0,1,.74-.66A11.6,11.6,0,0,1,51,67.3a3.08,3.08,0,0,0,1.94-2.49,3.91,3.91,0,0,0,0-1.08c0-.08,0-.17,0-.26a2.56,2.56,0,0,0,0-.27c-.05-.19-.15-.52-.15-.52a5.49,5.49,0,0,1,1,1.91A6.63,6.63,0,0,1,53.07,70a5.65,5.65,0,0,1-2.93,2.47A4.78,4.78,0,0,1,49.5,72.19ZM66.22,43.44l.22.21c.31.29.61.6.91.9a35.42,35.42,0,0,1,3.37,3.86c.25.34.49.7.71,1.06a12.5,12.5,0,0,1,.63,1.13A12,12,0,0,1,73,53a10.33,10.33,0,0,1,.33,2.53,8.93,8.93,0,0,1-.07,1.27A10.57,10.57,0,0,1,73,58.05c0,.19-.11.39-.17.59v-.35c0-.12,0-.23,0-.35l0-.17s0-.06,0-.09v0h0v-.07a2.78,2.78,0,0,0-.33-.64,2.06,2.06,0,0,0-1.18-.79,2.87,2.87,0,0,0-.71-.08h-.17l-.18,0-.33.06a8.22,8.22,0,0,1-1.29.2,2.61,2.61,0,0,1-.63,0,1.67,1.67,0,0,1-.57-.23,1.47,1.47,0,0,1-.43-.43,1.09,1.09,0,0,1-.15-.58,1,1,0,0,1,.72-.9c.19-.06,1-.11.94.47a.44.44,0,0,1-.62.37.43.43,0,0,1-.21-.19l-.06,0a.52.52,0,0,0,1-.2.62.62,0,0,0-.37-.63,1.2,1.2,0,0,0-1.38.37,1.32,1.32,0,0,0,0,1.36,1.52,1.52,0,0,0,.48.53,1.84,1.84,0,0,0,.64.28,3.37,3.37,0,0,0,.7.06,8.62,8.62,0,0,0,1.34-.17l.32,0,.15,0h.16a3.09,3.09,0,0,1,.61.08,1.68,1.68,0,0,1,1,.68,2.14,2.14,0,0,1,.26.55l0,.06s0,0,0,.07,0,.11,0,.16l0,.31a3.41,3.41,0,0,1-.19,1.23,2.66,2.66,0,0,1-.65,1,3.14,3.14,0,0,1-.48.39L71,61l-.06,0-.06,0-.28.1a2.83,2.83,0,0,1-.76.14,2.61,2.61,0,0,0,.21-.67,3.1,3.1,0,0,0-.07-1.39,3.35,3.35,0,0,0-.26-.66l-.06-.09-.05-.07-.11-.15a1.42,1.42,0,0,0-.29-.26,1.66,1.66,0,0,0-.7-.3l-.09,0h-.29a1.13,1.13,0,0,0-.41.06,1.31,1.31,0,0,0-.67.47,1.42,1.42,0,0,0-.21.33.89.89,0,0,0-.08.17l0,.09,0,.09a.09.09,0,0,0,0,0V59a.36.36,0,0,0,0,.1l0,.2a2.55,2.55,0,0,0,0,.39,2.14,2.14,0,0,0,.24.74,2.75,2.75,0,0,0,1.08,1,3.34,3.34,0,0,0,1.11.39,4.48,4.48,0,0,1-.74.77,7.41,7.41,0,0,1-1.06.69,12.39,12.39,0,0,1-1.17.54l0,.06a8,8,0,0,0,2.39-1,4.26,4.26,0,0,0,1-.92l0,0a3.64,3.64,0,0,0,1.23-.19l.34-.14,0,0,.05,0,.07,0,.15-.1a2.72,2.72,0,0,0,.42-.34,17.13,17.13,0,0,1-1,1.52,10.58,10.58,0,0,1-10.71,4.3,7.22,7.22,0,0,1-1.58-.68,3.33,3.33,0,0,1-.6-.46,5.62,5.62,0,0,1-2-3.63,1.76,1.76,0,0,0,.35.52,2,2,0,0,0,.63.44,3.06,3.06,0,0,0,.73.21l.21,0H59.1a5.07,5.07,0,0,1,.68,0l.31.07a1.45,1.45,0,0,1,.29.11,1.42,1.42,0,0,1,.47.41,1,1,0,0,1,.21.56.85.85,0,0,1-.15.57,1.1,1.1,0,0,1-.48.37.85.85,0,0,1-.61,0,.56.56,0,0,1-.37-.46.42.42,0,0,1,.36-.45.39.39,0,0,1,.44.36l0,0a.5.5,0,0,0-.56-.46.61.61,0,0,0-.33,1,1,1,0,0,0,.15.14l.08,0,.09,0a1.19,1.19,0,0,0,1.68-1.14,1.55,1.55,0,0,0-.24-.76,1.79,1.79,0,0,0-.58-.55,1.66,1.66,0,0,0-.35-.18,3.18,3.18,0,0,0-.38-.11,12,12,0,0,0-2.15,0,2.24,2.24,0,0,1-1.21-.43,2,2,0,0,1-.7-1.14,1.93,1.93,0,0,1,0-.24,3.19,3.19,0,0,1,.32-1.35,2.76,2.76,0,0,1,.93-1,2.13,2.13,0,0,1,3.14,1.22c.33,1-.18,1.52-.34,1.61a.89.89,0,0,1-1.34-.7h-.08A1.17,1.17,0,0,0,60,61.87a1.23,1.23,0,0,0,.68-.59,2.07,2.07,0,0,0,.21-.81,2.32,2.32,0,0,0-.07-.83,2.29,2.29,0,0,0-.37-.75,2.17,2.17,0,0,0-.6-.57l-.35-.2L59.14,58a3.06,3.06,0,0,0-.79-.1c-3.13,0-2.94,3.58-2.93,3.84a6.42,6.42,0,0,0,.1.75A8.45,8.45,0,0,0,56,63.9c.19.46.39.91.61,1.35s.38.73.56,1.07l.12.24a1,1,0,0,1,.07.15l0,.07,0,0v0c0,.12.08.22.11.33a5.49,5.49,0,0,1,.25,1.32A3.72,3.72,0,0,1,57,70.94a5,5,0,0,1-1,.93l-.13.08-.14.08-.3.16c-.21.1-.42.19-.64.27a7.26,7.26,0,0,1-2.72.48,6.27,6.27,0,0,1-1.23-.15c.2-.11.38-.22.56-.34a7,7,0,0,0,2-2.19,7.1,7.1,0,0,0,.89-2.83A7.28,7.28,0,0,0,54,64.5a4.33,4.33,0,0,0-3.91-3.29A4.12,4.12,0,0,0,47,62.42a5.47,5.47,0,0,0-.89,1.25,6.23,6.23,0,0,0-.5,1.43,7,7,0,0,0-.07,3,7.66,7.66,0,0,0,1.2,2.78,6.34,6.34,0,0,0,2.28,1.95l-.52.08a7.09,7.09,0,0,1-2.75-.21,8.06,8.06,0,0,1-1.3-.48l-.31-.16L44,72l-.13-.09a5.4,5.4,0,0,1-.52-.43,4,4,0,0,1-.81-1,3.44,3.44,0,0,1-.39-1.25,4.58,4.58,0,0,1,0-1.33,4.77,4.77,0,0,1,.17-.65c0-.11.07-.22.11-.33l0-.08a.25.25,0,0,1,0-.07l.07-.14.65-1.3c.21-.44.42-.88.6-1.34a8.88,8.88,0,0,0,.44-1.44,4.66,4.66,0,0,0,.09-.75c0-.26.21-3.83-2.92-3.84a2.65,2.65,0,0,0-.79.11,1.74,1.74,0,0,0-.38.14,1.82,1.82,0,0,0-.36.2,2.45,2.45,0,0,0-.6.56,2.41,2.41,0,0,0-.36.76,2.52,2.52,0,0,0-.08.82,2.18,2.18,0,0,0,.22.81,1.21,1.21,0,0,0,2.28-.55l-.09,0a.87.87,0,0,1-1.33.69c-.17-.09-.68-.57-.35-1.61a2.14,2.14,0,0,1,3.15-1.22,2.82,2.82,0,0,1,.92,1A3.06,3.06,0,0,1,44.05,61c0,.08,0,.16,0,.24a2,2,0,0,1-.7,1.14,2.32,2.32,0,0,1-1.22.43,11.87,11.87,0,0,0-2.14,0L39.6,63a2.42,2.42,0,0,0-.36.18,1.87,1.87,0,0,0-.57.55,1.46,1.46,0,0,0-.25.76,1.15,1.15,0,0,0,.91,1.22,1.23,1.23,0,0,0,.78-.08l.08,0,.08,0a.64.64,0,0,0,.3-.53.6.6,0,0,0-.47-.59.5.5,0,0,0-.56.46l0,0a.4.4,0,0,1,.44-.36.42.42,0,0,1,.36.46.55.55,0,0,1-.36.45.86.86,0,0,1-.61,0,.94.94,0,0,1-.48-.37.9.9,0,0,1-.16-.57,1.14,1.14,0,0,1,.22-.56,1.21,1.21,0,0,1,.47-.4,1.39,1.39,0,0,1,.28-.12l.32-.07.67,0H42l.2,0a3.27,3.27,0,0,0,.74-.21,2.3,2.3,0,0,0,.63-.44,1.64,1.64,0,0,0,.35-.52,5.45,5.45,0,0,1-4,4.65,10.58,10.58,0,0,1-10.71-4.29,16.36,16.36,0,0,1-1-1.52,3.47,3.47,0,0,0,.42.34l.15.1.07,0,.05,0,0,0a2.44,2.44,0,0,0,.34.14,3.41,3.41,0,0,0,1.23.2l0,0a4.5,4.5,0,0,0,1,.92A7.85,7.85,0,0,0,34,63.84l0-.06a12.39,12.39,0,0,1-1.17-.54,7.47,7.47,0,0,1-1.06-.7,4.09,4.09,0,0,1-.74-.76,3.58,3.58,0,0,0,1.11-.39,2.71,2.71,0,0,0,1.08-1,2.08,2.08,0,0,0,.24-.74,1.7,1.7,0,0,0,0-.39,1.23,1.23,0,0,0,0-.19.3.3,0,0,0,0-.1V58.9s0,0,0,0l0-.09,0-.09-.08-.18a1.6,1.6,0,0,0-.21-.32,1.38,1.38,0,0,0-.67-.48,1.15,1.15,0,0,0-.41,0h-.38a2,2,0,0,0-.7.3,2.43,2.43,0,0,0-.29.26l-.11.15-.06.08a.35.35,0,0,1-.05.08,3,3,0,0,0-.26.66A3.26,3.26,0,0,0,30,60.6a3.18,3.18,0,0,0,.22.68,2.83,2.83,0,0,1-.76-.14L29.2,61l-.06,0-.06,0L29,60.88a2.28,2.28,0,0,1-.48-.39,2.76,2.76,0,0,1-.66-1,3.63,3.63,0,0,1-.18-1.23c0-.11,0-.21,0-.32a.77.77,0,0,1,0-.15s0-.05,0-.07l0-.06a1.74,1.74,0,0,1,.26-.55,1.59,1.59,0,0,1,1-.68,2.49,2.49,0,0,1,.61-.08h.16l.15,0,.32.06a8.6,8.6,0,0,0,1.34.16,2.79,2.79,0,0,0,.7,0,1.69,1.69,0,0,0,.64-.29,1.41,1.41,0,0,0,.48-.52,1.32,1.32,0,0,0-.05-1.36A1.2,1.2,0,0,0,31.91,54a.61.61,0,0,0-.37.62.52.52,0,0,0,1,.21l-.05,0a.48.48,0,0,1-.21.19.44.44,0,0,1-.62-.37c0-.58.75-.54.94-.48a1.07,1.07,0,0,1,.72.9,1,1,0,0,1-.15.58,1.39,1.39,0,0,1-.43.44,1.67,1.67,0,0,1-.57.23,2.61,2.61,0,0,1-.63,0,9.59,9.59,0,0,1-1.29-.2L29.91,56l-.18,0h-.17a3.35,3.35,0,0,0-.71.07,2.29,2.29,0,0,0-.66.29,2.1,2.1,0,0,0-.52.51,2.78,2.78,0,0,0-.33.64v.06h0s0,.06,0,.09l0,.18c0,.11,0,.23,0,.35s0,.23,0,.34c-.06-.19-.12-.39-.17-.59a10.41,10.41,0,0,1-.23-1.24,9,9,0,0,1-.07-1.27,10.33,10.33,0,0,1,.33-2.53,12.27,12.27,0,0,1,.9-2.41c.19-.38.4-.76.62-1.12s.47-.72.72-1.07a36.28,36.28,0,0,1,3.37-3.85c.3-.31.6-.61.91-.91l.22-.2a29.31,29.31,0,0,0,4.51-3.94,4.28,4.28,0,0,0,2.12,0,2.34,2.34,0,0,0,2.89,1.79,1.66,1.66,0,0,0,1-1.79l-.1,0c.06.18,0,1.35-1.08,1.39a1.13,1.13,0,0,1-1-.5,1.27,1.27,0,0,1-.08-1.13,1.84,1.84,0,0,1,.83-.8,5.54,5.54,0,0,1,.65-.29l.7-.26,1.44-.52.36-.14a2.4,2.4,0,0,0,2.54,2.08,1.49,1.49,0,0,0,1.25-2.13,1.12,1.12,0,0,0-.32-.33.78.78,0,0,0-.2-.11.49.49,0,0,0-.24,0v0a.42.42,0,0,1,.19.06l.16.13a1.24,1.24,0,0,1,.23.32,1.31,1.31,0,0,1,.09.38c0,.13-.09,1.13-1.43,1.12A1.89,1.89,0,0,1,46.53,37s1.19-.47,4.08-1.48a1.33,1.33,0,0,1,.19.14l.08.07,0,0h0l0,0,.16.15c.84.8,1.68,1.58,2.55,2.34.43.38.91.71,1.35,1.1a3.6,3.6,0,0,0,2,.88,2.8,2.8,0,0,0,2.44-.82h0a4.25,4.25,0,0,0,2.2,0,5.11,5.11,0,0,0,.55.68,8.45,8.45,0,0,0,.66.63C63.87,41.7,65.16,42.53,66.22,43.44Zm1,15.67h0v0a.2.2,0,0,0,0,0,.14.14,0,0,0,0-.06l.06-.12a1.59,1.59,0,0,1,.13-.22.77.77,0,0,1,.36-.27.59.59,0,0,1,.23,0h.26a1.25,1.25,0,0,1,.49.18,1,1,0,0,1,.19.17l.09.1,0,.05,0,.06a2.57,2.57,0,0,1,.23.53,2.68,2.68,0,0,1,.12,1.16,2.41,2.41,0,0,1-.21.74A2.78,2.78,0,0,1,68.22,61a2.18,2.18,0,0,1-.82-.8,1.65,1.65,0,0,1-.16-.52,2.44,2.44,0,0,1,0-.27.68.68,0,0,1,0-.14.13.13,0,0,1,0-.06v0Zm-34.5,0v0a.2.2,0,0,1,0,.07.59.59,0,0,1,0,.13,2.72,2.72,0,0,1,0,.28,1.52,1.52,0,0,1-.16.51,2.13,2.13,0,0,1-.82.81,2.76,2.76,0,0,1-1.12.38,2.35,2.35,0,0,1-.21-.73,2.74,2.74,0,0,1,.12-1.17,3.14,3.14,0,0,1,.23-.53l0,0,0-.05.09-.11a1,1,0,0,1,.19-.16,1.11,1.11,0,0,1,.49-.18l.07,0H32a.73.73,0,0,1,.22,0,.81.81,0,0,1,.37.28,1.16,1.16,0,0,1,.13.22.61.61,0,0,1,0,.12l0,.06a.43.43,0,0,0,0,0h0v0Z"/></svg>