<svg id="图层_1" data-name="图层 1" xmlns="http://www.w3.org/2000/svg" viewBox="0 0 100 100"><title>logohunt03</title><path d="M67.1,31.17h0a25.08,25.08,0,0,0-18.35-7.59,25.81,25.81,0,0,0-25.93,26,25,25,0,0,0,7.53,18.34,25.23,25.23,0,0,0,18.4,7.59,25.25,25.25,0,0,0,12.58-3.17,8.06,8.06,0,0,0,1.24,1.53,8.21,8.21,0,0,0,6.06,2.55,8.12,8.12,0,0,0,6.06-2.55,8,8,0,0,0,2.49-6,8.29,8.29,0,0,0-2.49-6.12,7.17,7.17,0,0,0-2.15-1.53,26.37,26.37,0,0,0,2.15-10.64A25.23,25.23,0,0,0,67.1,31.17M48.75,26.36a22.28,22.28,0,0,1,16.37,6.79h.06A22.42,22.42,0,0,1,72,49.58a21.92,21.92,0,0,1-2.6,10.7,1.24,1.24,0,0,0-.11.79,1.36,1.36,0,0,0,.28.8,1.79,1.79,0,0,0,.73.39,5.46,5.46,0,0,1,2.44,1.47,5.68,5.68,0,0,1,0,8.22,5.73,5.73,0,0,1-8.15,0,6,6,0,0,1-1.37-2,1.77,1.77,0,0,0-.5-.63A1.21,1.21,0,0,0,62,69a1.73,1.73,0,0,0-.79.23,22.14,22.14,0,0,1-12.41,3.51,22.4,22.4,0,0,1-16.42-6.8,21.89,21.89,0,0,1-6.74-16.36,22.14,22.14,0,0,1,6.74-16.43,22.39,22.39,0,0,1,16.42-6.79"/><path d="M36.3,51.9a1.7,1.7,0,0,1,0-2.41L48.71,37.07a4,4,0,0,1,5.68,5.68l-6.74,6.74a1.71,1.71,0,0,0,0,2.41L54,58.23a4,4,0,0,1-5.67,5.68Z"/></svg>