<svg id="图层_1" data-name="图层 1" xmlns="http://www.w3.org/2000/svg" viewBox="0 0 100 100"><title>logohunt03</title><path d="M58.47,35.31a2.39,2.39,0,1,1,0-4.78h8.09a2.7,2.7,0,0,1,2.92,2.91v8.1a2.4,2.4,0,0,1-4.79,0v-1.6l-6,6a1.39,1.39,0,0,0,1,2.38H73.55A3.36,3.36,0,0,0,76.91,45V26.56a3.47,3.47,0,0,0-3.47-3.47H55.05a3.37,3.37,0,0,0-3.37,3.36V40.33a1.39,1.39,0,0,0,2.38,1l6-6H58.47"/><path d="M64.69,58.47a2.4,2.4,0,1,1,4.79,0v8.09a3,3,0,0,1-.78,2.14,2.91,2.91,0,0,1-2.13.77H58.47a2.39,2.39,0,1,1,0-4.78h1.59l-6-6a1.39,1.39,0,0,0-2.38,1V73.55a3.37,3.37,0,0,0,3.37,3.36H73.44a3.47,3.47,0,0,0,3.47-3.47V55a3.37,3.37,0,0,0-3.36-3.36H59.67a1.39,1.39,0,0,0-1,2.38l6,6Z"/><path d="M41.54,64.69a2.4,2.4,0,0,1,0,4.79h-8.1a2.91,2.91,0,0,1-2.13-.78,2.87,2.87,0,0,1-.78-2.13V58.47a2.39,2.39,0,1,1,4.78,0v1.59l6-6a1.39,1.39,0,0,0-1-2.38H26.45a3.37,3.37,0,0,0-3.36,3.37V73.44a3.47,3.47,0,0,0,3.47,3.47H45a3.37,3.37,0,0,0,3.36-3.36V59.67a1.39,1.39,0,0,0-2.38-1l-6,6h1.6"/><path d="M35.31,41.54a2.4,2.4,0,0,1-4.79,0v-8.1a2.7,2.7,0,0,1,2.91-2.91h8.1a2.39,2.39,0,1,1,0,4.78h-1.6l6,6a1.39,1.39,0,0,0,2.38-1V26.45A3.37,3.37,0,0,0,45,23.09H26.56a3.47,3.47,0,0,0-3.47,3.47V45a3.37,3.37,0,0,0,3.36,3.36H40.33a1.39,1.39,0,0,0,1-2.38l-6-6Z"/></svg>