<svg id="图层_1" data-name="图层 1" xmlns="http://www.w3.org/2000/svg" viewBox="0 0 100 100"><defs><style>.cls-1{fill:#231815;}</style></defs><title>logohunt01</title><path class="cls-1" d="M42.41,33.1a3.38,3.38,0,0,0-1.49-2.37,19.88,19.88,0,0,1-2.71-2.56,7.43,7.43,0,0,1-1.53-4.62v-.08l5.53-.12v.08a2.64,2.64,0,0,0,.87,1.94,2.84,2.84,0,0,0,4-.08,2.67,2.67,0,0,0,.79-2v-.07l5.61-.12v.07a7.66,7.66,0,0,1-3.56,7A3.27,3.27,0,0,0,48.09,33l.69,32.23a3.13,3.13,0,0,0,1.43,2.45c1.33,1,2.07,1.55,2.22,1.7l2,0a8.51,8.51,0,0,1,12.29-.66,8,8,0,0,1,2.6,5.88l-5.53.12a2.69,2.69,0,0,0-.92-2,2.95,2.95,0,0,0-4.11.09,2.7,2.7,0,0,0-.79,2L48.91,75A2.81,2.81,0,0,0,44.09,73a2.69,2.69,0,0,0-.78,2l-5.53.12h0a7.74,7.74,0,0,1,1.35-4.76,28.6,28.6,0,0,1,2.64-2.68,3.38,3.38,0,0,0,1.33-2.43L42.41,33.1"/></svg>