<svg id="图层_1" data-name="图层 1" xmlns="http://www.w3.org/2000/svg" viewBox="0 0 100 100"><defs><style>.cls-1{fill:#231815;}</style></defs><title>logohunt01</title><path class="cls-1" d="M50,36.62c-2.71-3.13-6-6.34-13.23-6.34-3.34,0-7.52,1.77-9.17,3.89V31.39H18.18V69.72h8.65V47.92a9.43,9.43,0,0,1,9.56-9.41,9.18,9.18,0,0,1,9.26,9.41v21.8h8.65V47.89a9.43,9.43,0,0,1,18.85,0V69.72h8.65V47.41c0-10.9-8-17.13-18.09-17.13A17.65,17.65,0,0,0,50,36.62"/><path class="cls-1" d="M69.37,69.72c.79,0,1.22-.3.84-1.28L69,64.83a7.46,7.46,0,0,0,2.37-1.12c-1.27-6.17-4.61-8-7.67-8s-6.35,1.81-7.67,8a7.45,7.45,0,0,0,2.36,1.12l-1.18,3.61c-.38,1,0,1.28.85,1.28H69.37"/><path class="cls-1" d="M70.77,47.91a7,7,0,1,0-7,7,7,7,0,0,0,7-7"/></svg>