<svg id="图层_1" data-name="图层 1" xmlns="http://www.w3.org/2000/svg" viewBox="0 0 100 100"><defs><style>.cls-1{fill:#231815;}</style></defs><title>logohunt02</title><path class="cls-1" d="M72,32.82l-3.84-4.05L60.78,35A18.63,18.63,0,0,0,33,58.12a52.16,52.16,0,0,1-5,2.47,11.18,11.18,0,0,0,3,7.27,12.22,12.22,0,0,0,7.1,3.37,50.15,50.15,0,0,1,2.75-4.87A18.63,18.63,0,0,0,65.38,39.88L72,32.82M50.35,35.43a14.51,14.51,0,0,1,7.22,2.26c-2.4,2-5,4.22-7.54,6.36l-1.18-8.61a12.51,12.51,0,0,1,1.5,0M36.29,55.64a14.51,14.51,0,0,1-1.12-6.25c0-.16,0-.31,0-.47l7.62,1.21-6.53,5.51m11.14-9.4L40.06,39.1a14.54,14.54,0,0,1,6.59-3.36l1.37,10-.59.49m4.75,7.7,7.21,7a14.49,14.49,0,0,1-6.59,3.33l-1.31-9.59.69-.73m1.52-1.62c.12-.13.25-.26.37-.4l9.84,1.57a14.5,14.5,0,0,1-3,5.85ZM38.51,40.69l7.21,7-.66.56-9.53-1.51a14.59,14.59,0,0,1,3-6M49.13,64.57a14.33,14.33,0,0,1-5.63-1.39l6-6.42,1.07,7.8a14.38,14.38,0,0,1-1.47,0m15.19-14c0,.23,0,.46,0,.68L55.91,50l6.6-7a14.61,14.61,0,0,1,1.81,7.67"/></svg>