<svg id="图层_1" data-name="图层 1" xmlns="http://www.w3.org/2000/svg" viewBox="0 0 100 100"><defs><style>.cls-1{fill:#231815;}</style></defs><title>logohunt01</title><path class="cls-1" d="M46.24,26l2.18,13.74A10.82,10.82,0,0,0,42.2,43.4L30.61,35.29h0A25,25,0,0,1,46.24,26m3.67,13.55L47.73,25.75A25.58,25.58,0,0,1,58.82,27L53.57,40a10.71,10.71,0,0,0-3-.47c-.22,0-.43,0-.64,0m5.08.92,5.23-12.95a25.39,25.39,0,0,1,5.27,2.94L56.23,41.09A13.25,13.25,0,0,0,55,40.44M57.47,42l9.21-10.6A24.58,24.58,0,0,1,69,33.52L58,42.41c-.17-.16-.35-.31-.52-.45M59,43.52l11-8.88c.41.51.82,1,1.19,1.54L59.28,43.89c-.09-.12-.19-.24-.28-.37m1.09,1.64L72,37.44l.31.48c.26.45.5.9.73,1.36l-12.8,6.1a2.39,2.39,0,0,0-.12-.22m.73,7.93,13.6,4.12a24.37,24.37,0,0,1-7.67,11.37,25.33,25.33,0,0,1-34.7-2.23l10.8-9.06a10.84,10.84,0,0,0,18-4.2M31.06,65.22a23.88,23.88,0,0,1-1.3-28.7l11.58,8.12a10.22,10.22,0,0,0,.52,11.52Z"/></svg>