<svg id="图层_1" data-name="图层 1" xmlns="http://www.w3.org/2000/svg" viewBox="0 0 100 100"><title>logohunt03</title><path d="M47.08,32.55a1.34,1.34,0,1,1,1.34,1.34,1.34,1.34,0,0,1-1.34-1.34"/><rect x="33.18" y="38.38" width="17.91" height="0.92" transform="translate(-15.12 41.17) rotate(-45)"/><path d="M32.69,45.17a3.11,3.11,0,1,1,3.11,3.11,3.11,3.11,0,0,1-3.11-3.11"/><path d="M74.81,45.84a1.34,1.34,0,1,1,1.34,1.34,1.34,1.34,0,0,1-1.34-1.34"/><rect x="52.19" y="55.28" width="28.12" height="0.92" transform="translate(-20.01 63.17) rotate(-45)"/><path d="M53.2,65.68a3.11,3.11,0,1,1,3.11,3.11,3.11,3.11,0,0,1-3.11-3.11"/><path d="M25.19,67.37A1.34,1.34,0,1,1,23.85,66a1.34,1.34,0,0,1,1.34,1.34"/><rect x="17.65" y="52.08" width="42.06" height="0.92" transform="translate(-25.83 42.74) rotate(-45)"/><path d="M56.66,37.68a3.12,3.12,0,1,1-3.11-3.11,3.11,3.11,0,0,1,3.11,3.11"/><path d="M46.17,66.9a1.34,1.34,0,1,1-1.34-1.34,1.34,1.34,0,0,1,1.34,1.34"/><rect x="40.85" y="56.98" width="26.89" height="0.92" transform="translate(-24.71 55.22) rotate(-45)"/><path d="M66.91,47.93a3.11,3.11,0,1,1-3.11-3.11,3.11,3.11,0,0,1,3.11,3.11"/><path d="M64.55,35.59a1.34,1.34,0,1,1,1.34,1.34,1.33,1.33,0,0,1-1.34-1.34"/><rect x="41.94" y="45.02" width="28.12" height="0.92" transform="translate(-15.76 52.91) rotate(-45)"/><path d="M42.94,55.42a3.12,3.12,0,1,1,3.11,3.12,3.11,3.11,0,0,1-3.11-3.12"/></svg>