<svg id="图层_1" data-name="图层 1" xmlns="http://www.w3.org/2000/svg" viewBox="0 0 100 100"><defs><style>.cls-1{fill:#231815;}</style></defs><title>logohunt02</title><path class="cls-1" d="M49.76,71.05H50c4.5,0,7.61-1.93,9.2-4.33a12,12,0,0,0,2-6.41V58.09l-6.83,0-.07,2a4.77,4.77,0,0,1-.82,2.69C52.92,63.39,52.14,64,50,64c-2.45-.06-3.1-.81-3.62-1.55a4.28,4.28,0,0,1-.56-2.05V39.56a4.24,4.24,0,0,1,.55-2.05C46.85,36.77,47.5,36,50,36c2.2,0,3,.65,3.51,1.32A4.77,4.77,0,0,1,54.28,40l.07,2,6.83,0V39.7a12,12,0,0,0-2-6.41c-1.59-2.4-4.7-4.38-9.2-4.33h-.19c-4.94,0-8.07,2.45-9.46,5a11.44,11.44,0,0,0-1.48,5.61V60.44a11.44,11.44,0,0,0,1.48,5.61c1.39,2.55,4.52,5,9.46,5"/></svg>