<svg id="图层_1" data-name="图层 1" xmlns="http://www.w3.org/2000/svg" viewBox="0 0 100 100"><defs><style>.cls-1{fill:#231700;}</style></defs><title>logohunt01</title><path class="cls-1" d="M40.61,66.88A4.86,4.86,0,0,1,35.74,62V34.75a1.52,1.52,0,0,1,3,0V62a1.84,1.84,0,0,0,3.68,0V52.57a4.09,4.09,0,0,1,4.09-4.08h6.92a1.07,1.07,0,0,0,1.06-1.06V38a4.87,4.87,0,0,1,9.74,0V65.25a1.52,1.52,0,0,1-3,0V38a1.84,1.84,0,0,0-3.68,0v9.45a4.09,4.09,0,0,1-4.09,4.08H46.54a1.07,1.07,0,0,0-1.06,1.06V62a4.86,4.86,0,0,1-4.87,4.86"/></svg>