<svg id="图层_1" data-name="图层 1" xmlns="http://www.w3.org/2000/svg" viewBox="0 0 100 100"><title>logohunt02</title><path d="M47.47,49.74c0,3.67,0,7.34,0,11a7.58,7.58,0,0,1-2,5,6.91,6.91,0,0,1-4.26,2.41,7,7,0,0,1-6.37-2c-1.18-1.19-2.4-2.34-3.59-3.52-1.58-1.58-3.14-3.19-4.72-4.77C24.69,56,22.82,54.14,21,52.3a2.74,2.74,0,0,1-.85-3,3.1,3.1,0,0,1,2.81-2.15,2.7,2.7,0,0,1,2,.81l4,4,5,4.93c1.68,1.66,3.39,3.31,5,5a1.52,1.52,0,0,0,2.41-.42,2,2,0,0,0,.24-1.05c0-7.45,0-14.91,0-22.36A7.55,7.55,0,0,1,44,32.55a7.28,7.28,0,0,1,10-.14c1.54,1.48,3,3,4.55,4.5L70.8,49.1c2.08,2.07,4.2,4.12,6.27,6.21a7.72,7.72,0,0,1,2,3.67,8,8,0,0,1-.23,4.69,6.52,6.52,0,0,1-4,4.14,8.08,8.08,0,0,1-2.84.45c-7.25,0-14.51,0-21.76,0-.49,0-.6-.13-.59-.61,0-1.56,0-3.13,0-4.7,0-.37.06-.51.48-.51,2,0,4.07,0,6.1,0l15.66-.05a1.62,1.62,0,0,0,1.55-.88,1.43,1.43,0,0,0-.19-1.59A17.15,17.15,0,0,0,71.41,58c-1.64-1.65-3.31-3.28-5-4.91-2.26-2.24-4.54-4.45-6.77-6.71-1.51-1.52-3-3-4.55-4.53-1.29-1.32-2.66-2.58-3.92-3.94-.4-.43-.85-.83-1.26-1.25a1.47,1.47,0,0,0-2.06.38,2.21,2.21,0,0,0-.43,1.34Q47.47,44,47.47,49.74Z"/></svg>