<svg id="图层_1" data-name="图层 1" xmlns="http://www.w3.org/2000/svg" viewBox="0 0 100 100"><title>logohunt03</title><polygon points="67.1 44.49 63.5 48.09 45.57 48.09 38.29 55.37 29.37 55.37 28.22 56.53 39.37 56.53 45.82 50.08 71.31 50.08 76.91 44.49 67.1 44.49"/><polygon points="66.68 48.13 63.18 51.63 45.26 51.63 40.68 56.21 24.25 56.21 23.09 57.37 41.76 57.37 45.5 53.62 71 53.62 76.49 48.13 66.68 48.13"/><polygon points="65.14 42.63 60.99 46.79 43.06 46.79 36.49 53.35 33.91 53.35 33.28 53.98 38.1 53.98 44.66 47.42 62.41 47.42 67.2 42.63 65.14 42.63"/></svg>