<svg id="图层_1" data-name="图层 1" xmlns="http://www.w3.org/2000/svg" viewBox="0 0 100 100"><title>logohunt03</title><path d="M34.17,63.2l.7-1.2a19.45,19.45,0,0,1-4.32-7.26A3.94,3.94,0,0,1,28,52.87L26.08,49.6A22.94,22.94,0,0,0,34,66a3.3,3.3,0,0,1,.22-2.79"/><path d="M49.81,29.25a19.44,19.44,0,0,1,14.13,7H68.3A23,23,0,0,0,49,25.71c-.43,0-.85,0-1.27,0a3.78,3.78,0,0,1,.22.33Z"/><path d="M58.51,65.66a3.14,3.14,0,0,1-.33.81l-2.41,4.18a22.92,22.92,0,0,0,11.77-8.37H62.92a19.66,19.66,0,0,1-4.41,3.38"/><path d="M71.69,38.87a1.8,1.8,0,0,0-1.57-.9H59.18a1.8,1.8,0,0,0-1.56.9l-5.47,9.47a1.83,1.83,0,0,0,0,1.81l5.47,9.47a1.8,1.8,0,0,0,1.56.9H70.12a1.8,1.8,0,0,0,1.57-.9l5.47-9.47a1.83,1.83,0,0,0,0-1.81ZM68.05,54.15a1,1,0,0,1-.85.49H62.11a1,1,0,0,1-.86-.49l-2.54-4.41a1,1,0,0,1,0-1l2.54-4.41a1,1,0,0,1,.86-.49H67.2a1,1,0,0,1,.85.49l2.55,4.41a1,1,0,0,1,0,1Z"/><path d="M52.07,56.14a1.51,1.51,0,0,0-1.31-.76H41.59a1.51,1.51,0,0,0-1.31.76L35.7,64.08a1.51,1.51,0,0,0,0,1.51l4.58,7.94a1.51,1.51,0,0,0,1.31.76h9.17a1.51,1.51,0,0,0,1.31-.76l4.59-7.94a1.51,1.51,0,0,0,0-1.51Zm-3,12.8a.83.83,0,0,1-.72.42H44.05a.83.83,0,0,1-.72-.42L41.2,65.25a.82.82,0,0,1,0-.83l2.13-3.69a.83.83,0,0,1,.72-.42h4.26a.83.83,0,0,1,.72.42l2.13,3.69a.82.82,0,0,1,0,.83Z"/><path d="M46.46,27a2.19,2.19,0,0,0-1.89-1.09H31.38A2.19,2.19,0,0,0,29.49,27l-6.6,11.43a2.18,2.18,0,0,0,0,2.18L29.49,52a2.19,2.19,0,0,0,1.89,1.09H44.57A2.19,2.19,0,0,0,46.46,52l6.59-11.42a2.18,2.18,0,0,0,0-2.18ZM41.72,44.88a1.07,1.07,0,0,1-.94.54H35.17a1.07,1.07,0,0,1-.94-.54L31.42,40a1.07,1.07,0,0,1,0-1.09l2.81-4.86a1.09,1.09,0,0,1,.94-.54h5.61a1.09,1.09,0,0,1,.94.54l2.81,4.86a1.11,1.11,0,0,1,0,1.09Z"/></svg>