<svg id="图层_1" data-name="图层 1" xmlns="http://www.w3.org/2000/svg" viewBox="0 0 100 100"><title>logohunt03</title><path d="M23.09,71.89a74.28,74.28,0,0,1,26.56-5.66c14.35-.17,27.26,6.68,27.26,6.68a138.32,138.32,0,0,0-53.82-1"/><path d="M32.77,46.53a2,2,0,0,1-1.52,2.36,2.07,2.07,0,0,1-2.49-1.45,2,2,0,0,1,1.52-2.36,2.07,2.07,0,0,1,2.49,1.45"/><path d="M23.69,49.31s3.85,3.63,7,6.36c3.46,3,4.82,11.2,4.82,11.2s-.46-7,.57-7.73c1.27-.86,4.49,5.23,4.49,5.23a81.39,81.39,0,0,1-3.2-10.8,86.66,86.66,0,0,1-.48-10s-1.6,12.8-13.17,5.71"/><path d="M70.23,49.66a1.84,1.84,0,0,1-2.56.6,2,2,0,0,1-.73-2.59,1.85,1.85,0,0,1,2.56-.6,2,2,0,0,1,.73,2.59"/><path d="M62.33,45.63s.22,4.94.55,8.79c.36,4.28-4,10.64-4,10.64s4.26-5,5.4-4.82c1.41.25-.39,6.43-.39,6.43a76.58,76.58,0,0,1,4.87-9.32,79.36,79.36,0,0,1,6.14-7s-9.38,7.54-12.54-4.72"/><path d="M37.12,31.23s7.27,9.26,8.6,16.54c1.07,5.89-1.28,17-1.28,17s3.84-11.9,6.13-12.42c2.9-.66,3.27,12.05,3.27,12.05s1.88-14.27,2.46-17.34a26.69,26.69,0,0,1,3.09-8.82c2.12-3.8,4-7.66,4-7.66s-9.13,17.14-26.32.6"/><path d="M55.41,31.65a4.2,4.2,0,0,1-4.72,3.7,4.37,4.37,0,0,1-4.09-4.53,4.21,4.21,0,0,1,4.73-3.71,4.37,4.37,0,0,1,4.08,4.54"/></svg>