<svg id="图层_1" data-name="图层 1" xmlns="http://www.w3.org/2000/svg" viewBox="0 0 100 100"><defs><style>.cls-1{fill:#231815;}</style></defs><title>logohunt02</title><path class="cls-1" d="M50,70a19.86,19.86,0,0,0,14.14-5.86l0,0,.17-.18A20,20,0,0,0,35.85,35.87l-.18.19A20,20,0,0,0,50,70M38.32,38.31A16.5,16.5,0,0,1,66.38,52a11.06,11.06,0,0,0-2.24-3.22,10.88,10.88,0,0,0-15.37,0A7.39,7.39,0,0,1,38.18,38.45h0ZM33.62,48a11.06,11.06,0,0,0,2.24,3.22,10.88,10.88,0,0,0,15.37,0A7.39,7.39,0,0,1,61.82,61.55h0l-.11.12A16.51,16.51,0,0,1,33.62,48Z"/></svg>