<svg id="图层_1" data-name="图层 1" xmlns="http://www.w3.org/2000/svg" viewBox="0 0 100 100"><defs><style>.cls-1{fill:#231815;}</style></defs><title>logohunt02</title><path class="cls-1" d="M60.5,42.8a4,4,0,0,1-1,2.76A12.29,12.29,0,0,1,57,47.69c-.47-.52-.95-1.1-1.43-1.75a13,13,0,0,1-1.29-2.15,4.89,4.89,0,0,1-.48-1.93,3,3,0,0,1,.77-2.08,2.87,2.87,0,0,1,2.27-.87,3.46,3.46,0,0,1,1.93.56A3.56,3.56,0,0,1,60,40.92a4.08,4.08,0,0,1,.46,1.88M53.24,57.74A4.82,4.82,0,0,1,52.43,55c0-1.86,1-3.5,3-4.93,1,1.11,1.76,2,2.32,2.58l1.69,1.79L61,56c.46.44,1.1,1.07,1.94,1.86-.41.4-.81.76-1.21,1.09a7.15,7.15,0,0,1-1.63,1,5.43,5.43,0,0,1-2.13.41,5.86,5.86,0,0,1-4.74-2.6ZM67.9,62.16a11.38,11.38,0,0,1-5.32-2.23,11.1,11.1,0,0,0,1.18-1.23C64.6,59.48,66.33,60.9,67.9,62.16Zm-1.85-6.68a4.5,4.5,0,0,0,3.9,2c3,0,4.67-1.89,5.08-4.71h6.15c-.67,5.14-3.76,8.33-8.32,9.25a2.32,2.32,0,0,1-.79-.19,15.06,15.06,0,0,1-2.9-2c-.51-.47-2-1.74-2.73-2.4l-1-.95c.19-.27.39-.57.59-.9ZM62.57,40.29a11.74,11.74,0,0,1,7.56-2.45c5.48,0,10.51,2.87,10.92,8.8H74.81a4.35,4.35,0,0,0-4.72-4c-4.09,0-5.44,4.13-5.44,7.54a11,11,0,0,0,.7,4,16.65,16.65,0,0,1-.8,1.5c-.64-.6-1.37-1.33-2.18-2.18l-2.31-2.41c-1-1.06-1.83-1.89-2.36-2.51a19.68,19.68,0,0,0,3.58-2.8A5.13,5.13,0,0,0,62.92,42,4.28,4.28,0,0,0,62.57,40.29ZM18.82,61.71V38.49h6v3.14h.09A8.37,8.37,0,0,1,32,37.86c2.92,0,5.53,1.08,6.78,3.86a8.45,8.45,0,0,1,7-3.86c2.78,0,5.11.72,6.63,2.43l-.09.14a5.28,5.28,0,0,0-.8,2.79,5.8,5.8,0,0,0,.84,3,21.56,21.56,0,0,0,2.31,3,15.66,15.66,0,0,0-3.16,3,6.52,6.52,0,0,0-1.43,4.15,5.86,5.86,0,0,0,.48,2.33,6.4,6.4,0,0,0,2.72,3H47.92V48.55c0-3.1-.27-5.66-3.91-5.66s-4.26,3-4.26,5.88V61.71H33.37v-13c0-2.69.18-5.79-3.86-5.79-1.26,0-4.32.81-4.32,5.35V61.71Z"/></svg>