<svg id="图层_1" data-name="图层 1" xmlns="http://www.w3.org/2000/svg" viewBox="0 0 100 100"><title>logohunt01</title><path d="M41.19,50.15v9.39a5.39,5.39,0,0,0,5.64,5.6c2.17,0,4.35,0,6.53,0a5.82,5.82,0,0,0,3-.77,4.43,4.43,0,0,0,2.32-4q0-3.42,0-6.85a2,2,0,0,1,1.13-1.93c2.9-1.53,5.77-3.09,8.66-4.63.65-.34.86-.23.86.47,0,5,0,10.07,0,15.09a13.73,13.73,0,0,1-10.91,13,13.59,13.59,0,0,1-2.7.27c-3.87,0-7.74,0-11.61,0A13.73,13.73,0,0,1,30.67,64a15,15,0,0,1-.11-1.77V38A13.75,13.75,0,0,1,42.3,24.66a16.24,16.24,0,0,1,2-.12H55.8a13.71,13.71,0,0,1,13.44,12c.24,2,.06,4,.12,6,0,.34-.16.45-.46.45H59.2c-.42,0-.48-.21-.49-.56a17.27,17.27,0,0,0-.09-2.78,5.37,5.37,0,0,0-5.19-4.44q-3.42,0-6.85,0a5.36,5.36,0,0,0-5.38,5.35C41.17,43.73,41.19,46.94,41.19,50.15Z"/></svg>