<svg id="图层_1" data-name="图层 1" xmlns="http://www.w3.org/2000/svg" viewBox="0 0 100 100"><defs><style>.cls-1{fill:#231815;}</style></defs><title>logohunt02</title><path class="cls-1" d="M41.68,50A8.31,8.31,0,0,0,50,58.31c-11.16,0-18.48-5.34-18.48-16.63V29s10.16,0,10.16,9.41V50"/><path class="cls-1" d="M50,41.68A8.31,8.31,0,0,0,41.69,50c0-11.16,5.34-18.48,16.63-18.48H71s0,10.16-9.41,10.16H50"/><path class="cls-1" d="M58.32,50A8.31,8.31,0,0,0,50,41.69c11.16,0,18.48,5.34,18.48,16.63V71s-10.16,0-10.16-9.41V50"/><path class="cls-1" d="M50,58.32A8.31,8.31,0,0,0,58.31,50c0,11.16-5.34,18.48-16.63,18.48H29s0-10.16,9.41-10.16H50"/></svg>