<svg id="图层_1" data-name="图层 1" xmlns="http://www.w3.org/2000/svg" viewBox="0 0 100 100"><title>logohunt01</title><path d="M40.56,27.2a55,55,0,0,1,.09,5.74c.05,6.36-.16,12.71.14,19.06.21,4.54.79,9,3.37,12.91a12.66,12.66,0,0,0,5.72,4.91,4.08,4.08,0,0,1,.56.21c.41.28,1.1.4.93,1.07s-.74.47-1.22.49A22.67,22.67,0,0,1,27.37,55.05a26.16,26.16,0,0,1-.8-6.88q0-10-.06-19.91a9.52,9.52,0,0,0-.11-1.06Z"/><path d="M71.52,27.2c.23,4.93.19,9.84-1.3,14.6a21.6,21.6,0,0,1-7,10.66,16.7,16.7,0,0,1-8.35,3.61c-.32,0-.72.18-1.06-.2,3.08-2,3.81-5.11,3.83-8.51l.18-20.16Z"/><path d="M54.55,68.86c-3.78-.09-7.33-2.88-9.71-7.4a17.15,17.15,0,0,1-1.58-5.25c0-.24-.2-.58.14-.74s.44.11.64.23c5.94,3.83,12,3,18,.26a19.15,19.15,0,0,0,8.75-7.71c.13-.22.25-.41.54-.35s.35.3.41.53a7.84,7.84,0,0,1-.07,3.09,21.52,21.52,0,0,1-6.45,13.53C62.67,67.5,59.66,68.86,54.55,68.86Z"/></svg>