<svg id="图层_1" data-name="图层 1" xmlns="http://www.w3.org/2000/svg" viewBox="0 0 100 100"><title>logohunt03</title><path d="M24.68,59.46a27,27,0,0,0,48,5.22Z"/><path d="M73.41,63.54A26.87,26.87,0,0,0,77,50.09c0-.8,0-1.59-.11-2.37l-53.83.64c0,.57-.06,1.15-.06,1.73a26.91,26.91,0,0,0,.84,6.7Z"/><path d="M45.8,32.52l-2.74-8.67A27.85,27.85,0,0,0,39,25.31l4,7.9a23.82,23.82,0,0,1,2.89-.69"/><path d="M50,32.14c.51,0,1,0,1.53,0L51.62,23c-.47,0-.95,0-1.43,0-1,0-1.93.06-2.87.15l1.35,9.13c.45,0,.89,0,1.34,0"/><path d="M34.5,37.72l-5.91-4.34a28.24,28.24,0,0,0-2.47,3.72l5.85,3a23.87,23.87,0,0,1,2.53-2.4"/><path d="M40,34.28l-4.93-6.86a27.84,27.84,0,0,0-3.49,2.71l5.59,5.65A24.66,24.66,0,0,1,40,34.28"/><path d="M28.5,45c.37-.7.79-1.36,1.22-2l-5.45-1.79a28.39,28.39,0,0,0-1.16,4.35l4.68.75Z"/><path d="M57.06,33.18l2.86-8.49a26.47,26.47,0,0,0-4.07-1.19l-1.52,9a23.06,23.06,0,0,1,2.73.65"/><path d="M62.29,35.43l4.93-6.61a26.78,26.78,0,0,0-3.48-2.34l-4,7.66a23.87,23.87,0,0,1,2.58,1.29"/><path d="M70.37,43,71,44l5.46-1.68A28.61,28.61,0,0,0,75,38.5l-5.83,2.86c.42.54.83,1.08,1.21,1.66"/><path d="M67.06,39l5.85-4.14a27.2,27.2,0,0,0-2.61-3.24l-5.55,5.4a24.13,24.13,0,0,1,2.31,2"/><path d="M31.36,46.45a21,21,0,0,1,35.9-1.7Z"/></svg>