<svg id="图层_1" data-name="图层 1" xmlns="http://www.w3.org/2000/svg" viewBox="0 0 100 100"><defs><style>.cls-1{fill:#241a17;}</style></defs><title>logohunt01</title><path class="cls-1" d="M36.94,49.46c1.28,1.3,2.39,2.43,3.53,3.52.16.15.64.23.76.11,1.83-1.77,3.63-3.59,5.44-5.39L58.75,35.64c.06,0,.11-.12.17-.18l5.58,5.63c-.92.89-1.89,1.82-2.85,2.78l-7.89,7.89c-2.21,2.2-4.42,4.42-6.65,6.59-.6.58-.51,1,0,1.48.84.77,1.64,1.58,2.41,2.41.52.58.9.6,1.47,0q8.28-8.33,16.59-16.61c.25-.25.51-.49.74-.71L74,50.59c-2,2-4.09,4-6.14,6q-4.76,4.71-9.49,9.45c-2.49,2.49-5,5-7.46,7.47-.47.47-.76.44-1.21,0-3.7-3.72-7.43-7.4-11.13-11.12-2.32-2.32-4.61-4.66-6.91-7L26,49.7,49.57,26.1l5.31,5.4Z"/></svg>