<svg id="图层_1" data-name="图层 1" xmlns="http://www.w3.org/2000/svg" viewBox="0 0 100 100"><title>logohunt03</title><path d="M49.86,73.26v-.14a4,4,0,1,1,4,4h-4Z"/><path d="M49.57,52.36V52.2a4.75,4.75,0,1,0-4.74,4.74h4.74Z"/><path d="M43,71.44h-.23a6.8,6.8,0,1,1,6.79-6.8v6.79Z"/><path d="M56.7,66.36h.24a7.08,7.08,0,1,0-7.08-7.08v7.07Z"/><path d="M49.86,46.54v-.11a3.44,3.44,0,1,1,3.44,3.44H49.86Z"/><path d="M49.86,32.16V32a4.84,4.84,0,1,1,4.84,4.84H49.86Z"/><path d="M43.88,45.51h-.2a5.9,5.9,0,1,1,5.89-5.9v5.89Z"/><path d="M49.57,26.43v-.11a3.44,3.44,0,1,0-3.44,3.44h3.44Z"/></svg>