<svg id="图层_1" data-name="图层 1" xmlns="http://www.w3.org/2000/svg" viewBox="0 0 100 100"><defs><style>.cls-1{fill:#fff;}</style></defs><title>logohunt01</title><path class="cls-1" d="M17.22,27.52h66V73.07H17.22Zm53,9.33c-.12-.38-.12-.55-.21-.64-.31-.31-.63-.62-1-.9a22.26,22.26,0,0,0-11.66-5c-7.49-.85-13.77,1.59-18.4,7.51a18.78,18.78,0,0,0-2.8,19.5C38.83,64.11,44.33,67.47,51,69.18a23,23,0,0,0,8.91.61c-2.84-5.63-3.76-11,1.59-15.5a9.76,9.76,0,0,1,11.11-.61c3.15,1.85,5.28,5.61,4.85,8.61-.48-.35-.92-.74-1.41-1a5,5,0,0,0-5.55.35A4.61,4.61,0,0,0,69,66.51a4.86,4.86,0,0,0,4.45,3.32,6.29,6.29,0,0,0,5.82-3.15,14.83,14.83,0,0,0,2-11.36A13.6,13.6,0,0,0,65.67,44.41,14.32,14.32,0,0,0,53.48,59.17a15.67,15.67,0,0,0,2.84,8.06c-.53-.22-.75-.29-1-.4a16.14,16.14,0,0,1-7.8-18.4c2.48-8.69,11.73-14,20.84-11.9C69,36.65,69.5,36.73,70.2,36.85ZM17.72,31.1a60.25,60.25,0,0,1,0,38H31.91v-38Z"/><path d="M70.2,36.85c-.7-.12-1.25-.2-1.79-.32-9.11-2.07-18.36,3.21-20.84,11.9a16.14,16.14,0,0,0,7.8,18.4c.2.11.42.18,1,.4a15.67,15.67,0,0,1-2.84-8.06A14.32,14.32,0,0,1,65.67,44.41,13.6,13.6,0,0,1,81.2,55.32a14.83,14.83,0,0,1-2,11.36,6.29,6.29,0,0,1-5.82,3.15A4.86,4.86,0,0,1,69,66.51a4.61,4.61,0,0,1,1.56-4.9,5,5,0,0,1,5.55-.35c.49.29.93.68,1.41,1,.43-3-1.7-6.76-4.85-8.61a9.76,9.76,0,0,0-11.11.61c-5.35,4.52-4.43,9.87-1.59,15.5A23,23,0,0,1,51,69.18c-6.71-1.71-12.21-5.07-14.88-11.83A18.78,18.78,0,0,1,39,37.85c4.63-5.92,10.91-8.36,18.4-7.51a22.26,22.26,0,0,1,11.66,5c.34.28.66.59,1,.9C70.08,36.3,70.08,36.47,70.2,36.85Z"/><path d="M17.72,31.1H31.91v38H17.7A60.25,60.25,0,0,0,17.72,31.1Z"/></svg>