<svg id="图层_1" data-name="图层 1" xmlns="http://www.w3.org/2000/svg" viewBox="0 0 100 100"><title>logohunt03</title><path d="M28.53,37.18l-2-1.94a15.73,15.73,0,0,0-3.91.85v6.8L27,40.78c2-.94,2.61-2.57,1.54-3.6"/><path d="M61.51,48.82a4.73,4.73,0,0,0,.39.56l7.28,9.15c2.65,3.33,1.6,4.53-2.32,2.52L55.64,55.29c-2.94-1.51-5.67-.47-6.3,2.4L46.92,68.77c-.86,3.92-2.66,3.83-3.84-.14L39.82,57.75C39,55,36.47,54.13,34.07,55.63L25.8,60.78c-2.6,1.63-3.4.62-1.81-2.12l4.63-8c1.25-2.16.42-4-1.74-4.12l-4.26-.32V69.3a8.08,8.08,0,0,0,8.08,8.08H69.3a8.08,8.08,0,0,0,8.08-8.08V48.21a33.34,33.34,0,0,1-15.87.61"/><path d="M69.3,22.62H30.7a8.08,8.08,0,0,0-8.08,8.08v5.39a16.19,16.19,0,0,1,3.91-.85L25.34,34.1c-.86-.84-.28-1.44,1.31-1.37l5.56.25c1.78.08,3.3-.94,3.37-2.21L35.77,27c0-1,.84-1.32,1.81-.65l3.51,2.47a3.45,3.45,0,0,0,4.2-.53l3.47-3.48c1-1,1.88-.94,2,.14l.6,4c.2,1.33,2.05,2,4.13,1.49l7-1.8c2.14-.55,3,0,1.92,1.2L60.55,34.1c-1.25,1.4-.24,3.1,2.41,3.77l9.76,2.48c3.28.84,3.63,2,.65,2.47l-9.61,1.64c-2.59.44-3.53,2.27-2.25,4.36a33.34,33.34,0,0,0,15.87-.61V30.7a8.08,8.08,0,0,0-8.08-8.08"/></svg>