<svg id="图层_1" data-name="图层 1" xmlns="http://www.w3.org/2000/svg" viewBox="0 0 100 100"><defs><style>.cls-1{fill:#231700;}</style></defs><title>logohunt01</title><rect class="cls-1" x="8" y="38.41" width="19.04" height="21.17"/><path class="cls-1" d="M53.56,59.59H43.8V44.48H37.63V38.41H56.3a12.31,12.31,0,0,0-7.36,11.2,12.57,12.57,0,0,0,4.62,10"/><polyline class="cls-1" points="88 59.59 77.72 59.59 73.64 46.58 73.64 59.59 67.27 59.59 67.27 38.41 77.53 38.42 81.56 51.33 81.56 38.41 88 38.41 88 59.59"/><polyline class="cls-1" points="31.88 49.14 33.84 42.6 35.8 49.14 31.88 49.14"/><polyline class="cls-1" points="38.92 59.59 28.64 59.59 30.36 53.99 37.22 53.99 38.92 59.59"/><path class="cls-1" d="M60.8,54.15A4.33,4.33,0,1,1,65,49.82a4.25,4.25,0,0,1-4.17,4.33"/></svg>