<svg id="图层_1" data-name="图层 1" xmlns="http://www.w3.org/2000/svg" viewBox="0 0 100 100"><defs><style>.cls-1{fill:#231815;}</style></defs><title>logohunt02</title><path class="cls-1" d="M42.91,35.54A1.45,1.45,0,1,1,44.36,37a1.45,1.45,0,0,1-1.45-1.46m.73-5a.76.76,0,0,1,1.44,0l1.06,1.84h2.24c.8,0,1.12.55.72,1.24L48,35.54l1.12,1.94c.4.69.08,1.25-.72,1.25H46.14l-1.06,1.84a.76.76,0,0,1-1.44,0l-1.06-1.84H40.34c-.8,0-1.12-.56-.72-1.25l1.12-1.94L39.62,33.6c-.4-.69-.08-1.24.72-1.24h2.24Z"/><path class="cls-1" d="M40.19,45.18a1.46,1.46,0,1,1,1.46,1.46,1.45,1.45,0,0,1-1.46-1.46m.74-5a.76.76,0,0,1,1.44,0L43.43,42h2.24c.79,0,1.12.55.72,1.24l-1.12,1.94,1.12,1.94c.4.69.07,1.25-.72,1.25H43.43l-1.06,1.84a.76.76,0,0,1-1.44,0l-1.06-1.84H37.62c-.79,0-1.11-.56-.71-1.25L38,45.18l-1.12-1.94c-.4-.69-.08-1.24.71-1.24h2.25Z"/><path class="cls-1" d="M37.48,54.82a1.46,1.46,0,1,1,1.45,1.45,1.45,1.45,0,0,1-1.45-1.45m.73-5a.76.76,0,0,1,1.44,0l1.06,1.84H43c.79,0,1.11.56.71,1.25l-1.12,1.94,1.12,1.94c.4.69.08,1.25-.71,1.25H40.71l-1.06,1.84a.76.76,0,0,1-1.44,0L37.15,58H34.91c-.79,0-1.12-.56-.72-1.25l1.12-1.94-1.12-1.94c-.4-.69-.07-1.25.72-1.25h2.24Z"/><path class="cls-1" d="M34.76,64.46a1.46,1.46,0,1,1,2.91,0,1.46,1.46,0,0,1-2.91,0m.74-5a.76.76,0,0,1,1.44,0L38,61.27h2.24c.8,0,1.12.56.72,1.25l-1.12,1.94L41,66.4c.4.69.08,1.25-.72,1.24H38l-1.06,1.84a.76.76,0,0,1-1.44,0l-1.06-1.84H32.2c-.8,0-1.12-.55-.72-1.24l1.12-1.94-1.12-1.94c-.4-.69-.08-1.25.72-1.25h2.24Z"/><path class="cls-1" d="M57.09,35.54A1.45,1.45,0,1,0,55.64,37a1.45,1.45,0,0,0,1.45-1.46m-.73-5a.76.76,0,0,0-1.44,0l-1.06,1.84H51.62c-.8,0-1.12.55-.72,1.24L52,35.54,50.9,37.48c-.4.69-.08,1.25.72,1.25h2.24l1.06,1.84a.76.76,0,0,0,1.44,0l1.06-1.84h2.24c.8,0,1.12-.56.72-1.25l-1.12-1.94,1.12-1.94c.4-.69.08-1.24-.72-1.24H57.42Z"/><path class="cls-1" d="M59.81,45.18a1.46,1.46,0,1,0-1.46,1.46,1.45,1.45,0,0,0,1.46-1.46m-.74-5a.76.76,0,0,0-1.44,0L56.57,42H54.33c-.79,0-1.12.55-.72,1.24l1.12,1.94-1.12,1.94c-.4.69-.07,1.25.72,1.25h2.24l1.06,1.84a.76.76,0,0,0,1.44,0l1.06-1.84h2.25c.79,0,1.11-.56.71-1.25L62,45.18l1.12-1.94c.4-.69.08-1.24-.71-1.24H60.13Z"/><path class="cls-1" d="M62.52,54.82a1.46,1.46,0,1,0-1.45,1.45,1.45,1.45,0,0,0,1.45-1.45m-.73-5a.76.76,0,0,0-1.44,0l-1.06,1.84H57c-.79,0-1.11.56-.71,1.25l1.12,1.94-1.12,1.94c-.4.69-.08,1.25.71,1.25h2.25l1.06,1.84a.76.76,0,0,0,1.44,0L62.85,58h2.24c.79,0,1.12-.56.72-1.25l-1.12-1.94,1.12-1.94c.4-.69.07-1.25-.72-1.25H62.85Z"/><path class="cls-1" d="M65.23,64.46a1.45,1.45,0,1,0-1.45,1.45,1.46,1.46,0,0,0,1.45-1.45m-.73-5a.76.76,0,0,0-1.44,0L62,61.27H59.76c-.8,0-1.12.56-.72,1.25l1.12,1.94L59,66.4c-.4.69-.08,1.25.72,1.24H62l1.06,1.84a.76.76,0,0,0,1.44,0l1.06-1.84H67.8c.8,0,1.12-.55.72-1.24L67.4,64.46l1.12-1.94c.4-.69.08-1.25-.72-1.25H65.56Z"/><path class="cls-1" d="M51.45,54.82A1.45,1.45,0,1,0,50,56.27a1.45,1.45,0,0,0,1.45-1.45m-.73-5a.76.76,0,0,0-1.44,0l-1.06,1.84H46c-.8,0-1.12.56-.72,1.25l1.12,1.94-1.12,1.94c-.4.69-.08,1.25.72,1.25h2.24l1.06,1.84a.76.76,0,0,0,1.44,0L51.78,58H54c.8,0,1.12-.56.72-1.25l-1.12-1.94,1.12-1.94c.4-.69.08-1.25-.72-1.25H51.78Z"/></svg>