<svg id="图层_1" data-name="图层 1" xmlns="http://www.w3.org/2000/svg" viewBox="0 0 100 100"><defs><style>.cls-1{fill:#231815;}</style></defs><title>logohunt01</title><polyline class="cls-1" points="77.09 27.94 77.09 22.91 22.91 22.91 22.91 77.09 77.09 77.09 77.09 74.58 30.45 74.58 30.45 27.94 77.09 27.94"/><polyline class="cls-1" points="32.43 29.26 77.09 29.26 77.09 33.41 38.64 33.41 38.64 71.85 77.09 71.85 77.09 73.92 32.43 73.92 32.43 29.26"/><polyline class="cls-1" points="40.62 71.19 77.09 71.19 77.09 69.51 45.69 69.51 45.69 38.11 77.09 38.11 77.09 34.72 40.62 34.72 40.62 71.19"/><polyline class="cls-1" points="51.76 67.49 77.09 67.49 77.09 68.85 47.67 68.85 47.67 39.43 77.09 39.43 77.09 42.16 51.76 42.16 51.76 67.49"/><polyline class="cls-1" points="56.99 65.75 56.99 45.64 77.09 45.64 77.09 43.48 53.73 43.48 53.73 66.83 77.09 66.83 77.09 65.75 56.99 65.75"/><polyline class="cls-1" points="61.49 64.25 77.09 64.25 77.09 65.09 58.96 65.09 58.96 46.97 77.09 46.97 77.09 48.65 61.49 48.65 61.49 64.25"/></svg>