<svg id="图层_1" data-name="图层 1" xmlns="http://www.w3.org/2000/svg" viewBox="0 0 100 100"><defs><style>.cls-1{fill:#231815;}</style></defs><title>logohunt02</title><path class="cls-1" d="M53.27,58.18h0c-1.36-1.59-6.3-7.81-8.05-10a8,8,0,0,1-1-1.51A6.24,6.24,0,0,1,46,39.41a7.15,7.15,0,0,1,1.68-1c.29-.13.27-.45-.29-.45h-7.8a1,1,0,0,0-1,.9v6.35a.42.42,0,0,1-.42.42H32a.42.42,0,0,1-.43-.42V38.82a1,1,0,0,0-1-.9H23.88a1,1,0,0,0-1,.9V61a1,1,0,0,0,1,1H30.6a.94.94,0,0,0,1-.89V54.77a.42.42,0,0,1,.43-.42h6.17a.42.42,0,0,1,.42.42v6.35a1,1,0,0,0,1,.89H46c.64,0,.58-.3.37-.42h0a6.29,6.29,0,0,1-1.78-1.14,6.74,6.74,0,0,1-2.26-5.09,6.3,6.3,0,0,1,2.25-4.76h0a.35.35,0,0,1,.22-.08.31.31,0,0,1,.26.12h0L47,53.07a.32.32,0,0,1,.07.19.42.42,0,0,1-.06.19,3.1,3.1,0,0,0-.75,1.81A3.72,3.72,0,0,0,47.57,58a4.91,4.91,0,0,0,3.15,1.28,5.15,5.15,0,0,0,2.47-.59.35.35,0,0,0,.16-.29.35.35,0,0,0-.08-.22"/><path class="cls-1" d="M76.82,58.1,72,53.67a1.1,1.1,0,0,0-1.35-.05l0,0-.07,0-.49.23-.28.14h0a5.21,5.21,0,0,1-1.86.34A4.66,4.66,0,0,1,63,50a4.67,4.67,0,0,1,4.9-4.38,5.26,5.26,0,0,1,2.57.68h0l.05,0,.07,0a1.11,1.11,0,0,0,1.32-.07l4.82-4.22a.84.84,0,0,0,0-1.29l-.27-.24a13.37,13.37,0,0,0-9.15-2.92A14.28,14.28,0,0,0,56,43.45h0a.32.32,0,0,1-.5,0h0c-.34-.37-.93-.89-1.27-1.2A4.45,4.45,0,0,0,49.07,42a2.5,2.5,0,0,0-1.25,2.31,3.2,3.2,0,0,0,.64,1.8c.21.25,4.88,6.22,7,8.81h0a.36.36,0,0,0,.26.12.34.34,0,0,0,.32-.25,7,7,0,0,0,.23-1.5v-.89a.34.34,0,0,1,.34-.34H59.9a.34.34,0,0,1,.34.34v.89a12.09,12.09,0,0,1-1.47,5h0a.28.28,0,0,0-.05.16.33.33,0,0,0,.1.23c.3.28.62.57.94.83a13.87,13.87,0,0,0,8.34,3,14.07,14.07,0,0,0,8.32-2.64l.39-.36a.83.83,0,0,0,0-1.28"/></svg>