<svg id="图层_1" data-name="图层 1" xmlns="http://www.w3.org/2000/svg" viewBox="0 0 100 100"><defs><style>.cls-1{fill-rule:evenodd;}</style></defs><title>logohunt03</title><path class="cls-1" d="M54.32,34.11c-.12-4.06,7.55-13.84,5.67-5.87-.72,3.06-5.6,8.18-5.67,5.87m-5.45-1c-.89-.5,0-7.38.84-9.2,1-.05,2.6,10.13-.84,9.2M65.09,58.69a13.38,13.38,0,0,0,4.33,3.65c3.17,1.28,6.84.34-1.14-3.72-.58-.3-3.21-1.2-3.19.07m-.27,5.78a7.55,7.55,0,0,1,2.59,4.67c.27,1.53-3.2-.16-4.66-2.79-2.37-4.27-2-4.88,2.07-1.88m-7.39,1.2c1.16-.1,4.77,12.56,1.52,9.82-.54-.46-3.65-10.74-1.52-9.82m-32.14-20C23.06,44.55,21.63,43,25,43.17a42.69,42.69,0,0,1,7.29,1.22c6.61,1.73-4.75,2.45-7,1.3m7.59,6c-1.11,3.82-13.34,1-8.17,0,1.63-.31,7.25-1.06,8.17,0m1.81,6.52c-2.4,3.3-11.79,3.27-7.69.58.11-.08,6.5-1.52,7.69-.58m4.87,5c-3.42,4.8-3,4.67-7.76,7-2.45-1.19,1.73-5.23,3.07-6,1.5-.94,2.94-1.89,4.69-.92m6.5,2.75c.12,4.06-7.55,13.84-5.67,5.87.8-3.4,5.61-8,5.67-5.87m5.45,1c.88.5,0,7.39-.84,9.2-1,0-2.6-10.13.84-9.2M35.73,39.61c-.09-.08-5.34-3-6.16-2.66-3.73,1.64.61,2.15,3,3.16.6.25,3.33.76,3.15-.5m3.44-3.13C36.34,34,35.7,36.06,33.59,30c-.5-1.47,2.57,0,4,2.62.14.25,2.17,3.78,1.54,3.9m4.13-2.15c-1.74-1.89-4-12.15-1.25-9.37.51.5,3.38,10.29,1.25,9.37M66.38,52.26c1.67-2.14,9.54-.27,10.62,3.3a14.1,14.1,0,0,1-10.62-3.3m-.2-5.37c1.11-3.81,13.33-1,8.16,0-1.62.31-7.24,1.06-8.16,0m-1.56-5.44c1.82-3.4,11.27-4.92,7.54-1.66-.11.09-6.24,2.42-7.54,1.66m-3.8-4.59c1.38-3.5,2-4.64,5.29-6.27,4.64-2.3,1.73,3.28-1,4.95-1.5.94-2.58,2.29-4.33,1.32"/><path class="cls-1" d="M49.17,48.61c.65,1.46,1.65,4.39-2.2,4.49-4.13-.91-5.33-8.72.81-9.51,5.1-.66,8.29,4,8,8.94-.19,3.51-4.79,6.6-9,5.93-6.76-1.07-9.91-6.88-7.72-13.4,1.33-4,6.28-6.92,10.8-6.46,2.55.27,6.66,1.94,8.46,3.74,2.48,2.48,3.19,5.62,3.06,9.12-.27,6.68-6.93,14.31-15,11.62,4.63,4.28,12.46,1,15.6-4.16,4.49-7.35,3.19-14.28-1.84-19.76S44.48,34.57,39.84,37.9c-2.3,1.65-4.25,5.55-4.48,9.44C35,54,40.06,61.87,47.55,61.53c4.13-.19,9.12-2.87,10.89-6.8,1.5-3.32.54-6.35-1.37-9.48-1.6-2.62-6.48-4.94-9.45-4.63-9.47,1-8.41,16.9,1.75,14.36,4.1-1,2.71-8.31-.47-8-1.74.16-3.06,1.76-1.64,3.41.09-2.37,1.91-1.76,1.91-1.75"/></svg>