<svg id="图层_1" data-name="图层 1" xmlns="http://www.w3.org/2000/svg" viewBox="0 0 100 100"><title>logohunt03</title><path d="M41.59,36.15c6.23,3.9,11,12.16,8.35,16.58s-12.2,4-18.56.35S23,42.89,25.83,38.19s9.52-5.92,15.76-2"/><path d="M58.41,36.15c-6.23,3.9-11,12.16-8.35,16.58s12.2,4,18.56.35S77,42.89,74.17,38.19s-9.52-5.92-15.76-2"/><path d="M36.56,54.13C41.44,51.76,48.47,52,50.2,55.39s-2.25,9.21-7,11.74-9.65,1.26-11.48-2.34,0-8.27,4.88-10.66"/><path d="M62,54.13C57.12,51.76,50.09,52,48.36,55.39s2.24,9.21,7,11.74,9.66,1.26,11.49-2.34,0-8.27-4.88-10.66"/><path d="M38.63,52.38c4.88-2.38,11.92-2.14,13.64,1.25s-2.24,9.22-7,11.76S35.58,66.65,33.75,63s0-8.27,4.88-10.66"/><path d="M53.13,65.43c-4.44-3.12-7.64-9.39-5.5-12.55s9.15-2.49,13.69.48,5.77,7.84,3.5,11.19-7.25,4-11.69.88"/><path d="M52.27,53.63a4.85,4.85,0,0,0-2.78-2.21,4.2,4.2,0,0,0-1.86,1.46c-1.5,2.21-.37,5.95,2,9.06,2.45-2.72,3.83-6,2.68-8.31"/><path d="M66.22,53.94c-6.4,3.6-15.95,3.86-18.56-.59S50,40.7,56.23,36.87s13-2.48,15.74,2.25.65,11.2-5.75,14.82"/><path d="M63.51,55.2a11.46,11.46,0,0,0-2.19-1.84c-4.54-3-11.55-3.63-13.69-.48,0,.06-.07.13-.11.2l.14.27c2.26,3.86,9.73,4.18,15.85,1.85"/><path d="M47.66,53.35a7.19,7.19,0,0,0,4.94,3,4.39,4.39,0,0,0-.33-2.73,4.85,4.85,0,0,0-2.78-2.21h0l-.47.23-.15.09a2.25,2.25,0,0,0-.36.24l-.24.2-.23.2a3.8,3.8,0,0,0-.41.49c0,.06-.07.13-.11.2l.14.27"/><path d="M43.58,37c6.23,3.91,11,12.17,8.35,16.59s-12.21,4-18.56.35S25,43.71,27.82,39s9.52-5.92,15.76-2"/><path d="M47.66,53.35A5.67,5.67,0,0,0,50,55.44a5.59,5.59,0,0,0,2-1.88c1.64-2.72.46-6.88-2.13-10.59-2.55,3.63-3.71,7.69-2.14,10.38"/><path d="M48.36,54.24l.32.33.35.27a3.3,3.3,0,0,0,.3.22,3,3,0,0,0,.42.26l.21.12a5.2,5.2,0,0,0,2.72-4.63c-2.21,0-4.11.68-5,2.07a1.74,1.74,0,0,0-.1.19c0,.09.08.19.13.28a5.87,5.87,0,0,0,.46.65l.24.24"/><path d="M38.63,52.38a11.24,11.24,0,0,0-3.37,2.49c6.22,2.75,14.26,2.69,16.67-1.31l.14-.25c-2-3.08-8.73-3.22-13.44-.93"/><path d="M51.93,53.56l.14-.25a5.16,5.16,0,0,0-2.59-1.88,4.16,4.16,0,0,0-1.85,1.45,4.89,4.89,0,0,0-.58,3.61,7.08,7.08,0,0,0,4.88-2.93"/><path d="M47,50.88a5.56,5.56,0,0,0,.69,2.47A5.67,5.67,0,0,0,50,55.44h0l.3-.2.38-.27a3,3,0,0,0,.27-.23,3.89,3.89,0,0,0,.36-.34l.2-.21a4.61,4.61,0,0,0,.46-.63c0-.09.09-.17.13-.26-.92-1.41-2.84-2.19-5.09-2.42"/><path d="M48.24,54.12l.34.36.23.19a3.24,3.24,0,0,0,.35.27,2.23,2.23,0,0,0,.3.2l.32.2.18.09.3-.19.38-.27a3,3,0,0,0,.27-.23,3.89,3.89,0,0,0,.36-.34l.2-.21a4.61,4.61,0,0,0,.46-.63c0-.09.09-.17.13-.26a5.06,5.06,0,0,0-2.59-1.87l-.45.23-.15.09a2.25,2.25,0,0,0-.36.24l-.24.2-.23.2a3.8,3.8,0,0,0-.41.49,1.74,1.74,0,0,0-.1.19c0,.09.08.19.13.28a6.27,6.27,0,0,0,.42.59l.16.18"/><path d="M49.8,43S50.9,34,63.14,31.68c0,0-12.09-2.2-13.34,11.29"/><path d="M49.78,43S48.67,34,36.44,31.68c0,0,12.08-2.2,13.34,11.29"/></svg>