<svg id="图层_1" data-name="图层 1" xmlns="http://www.w3.org/2000/svg" viewBox="0 0 100 100"><title>logohunt03</title><path d="M49.2,27.48a24.43,24.43,0,0,1,9.71-1.12A24.53,24.53,0,0,0,29.57,47.2h3A24.55,24.55,0,0,1,49.2,27.48m1.24,1.42A23.48,23.48,0,0,0,34.58,47.2h2.86a23.48,23.48,0,0,1,25.07-19,23.28,23.28,0,0,0-12.07.66m-5.25-3.24A25.34,25.34,0,0,1,55.3,24.49,25.57,25.57,0,0,0,24.61,47.2h3.08a25.59,25.59,0,0,1,17.5-21.54"/><path d="M69.45,61.36a24.41,24.41,0,0,1-3.88,9,24.53,24.53,0,0,0-3.38-35.83L60.7,37.07a24.51,24.51,0,0,1,8.75,24.29m-1.84.36a23.51,23.51,0,0,0-7.92-22.89l-1.44,2.48A23.5,23.5,0,0,1,62.14,72.5a23.3,23.3,0,0,0,5.47-10.78M73,58.79a25.4,25.4,0,0,1-4,9.34A25.57,25.57,0,0,0,64.67,30.2l-1.54,2.67A25.57,25.57,0,0,1,73,58.79"/><path d="M30.5,62.26a24.44,24.44,0,0,1-5.83-7.84,24.54,24.54,0,0,0,32.72,15L55.9,66.83a24.53,24.53,0,0,1-25.4-4.57m.61-1.77a23.48,23.48,0,0,0,23.78,4.58l-1.44-2.48A23.5,23.5,0,0,1,24.5,50.36a23.4,23.4,0,0,0,6.61,10.13m-.18,6.16a25.4,25.4,0,0,1-6.07-8.17,25.57,25.57,0,0,0,35,15.22L58.33,71a25.58,25.58,0,0,1-27.4-4.38"/></svg>