<svg id="图层_1" data-name="图层 1" xmlns="http://www.w3.org/2000/svg" viewBox="0 0 100 100"><title>logohunt03</title><path d="M60.61,67.62a2.69,2.69,0,1,1-5.38,0V58.51a3.33,3.33,0,0,1,.88-2.41,3.43,3.43,0,0,1,2.4-.87h9.11a2.69,2.69,0,0,1,0,5.38H64.91l4.83,4.82a1.71,1.71,0,0,0,2.64-.21,26.83,26.83,0,0,0,4.48-11.7,1.81,1.81,0,0,0-1.84-2H54.55a3,3,0,0,0-3,3V75a1.8,1.8,0,0,0,2,1.84,26.94,26.94,0,0,0,11.71-4.47,1.73,1.73,0,0,0,.21-2.65l-4.82-4.82v2.7"/><path d="M67.62,39.39a2.69,2.69,0,1,1,0,5.38H58.51a3.33,3.33,0,0,1-2.41-.88,3.43,3.43,0,0,1-.87-2.4V32.38a2.69,2.69,0,1,1,5.38,0v2.7l4.82-4.82a1.73,1.73,0,0,0-.21-2.65,26.94,26.94,0,0,0-11.71-4.47,1.8,1.8,0,0,0-2,1.84V45.45a3,3,0,0,0,3,3H75a1.8,1.8,0,0,0,1.84-2,26.94,26.94,0,0,0-4.47-11.71,1.73,1.73,0,0,0-2.65-.21l-4.82,4.82h2.7"/><path d="M39.39,32.38a2.69,2.69,0,0,1,5.38,0v9.11a3.33,3.33,0,0,1-.88,2.41,3.43,3.43,0,0,1-2.4.87H32.38a2.69,2.69,0,1,1,0-5.38h2.7l-4.82-4.82a1.73,1.73,0,0,0-2.65.21,26.94,26.94,0,0,0-4.47,11.7,1.81,1.81,0,0,0,1.84,2H45.45a3,3,0,0,0,3-3V25a1.81,1.81,0,0,0-2-1.84,26.94,26.94,0,0,0-11.7,4.47,1.73,1.73,0,0,0-.21,2.65l4.82,4.82v-2.7"/><path d="M32.38,60.61a2.69,2.69,0,1,1,0-5.38h9.11a3.29,3.29,0,0,1,2.4.88,3.4,3.4,0,0,1,.88,2.4v9.11a2.69,2.69,0,1,1-5.38,0v-2.7l-4.82,4.82a1.71,1.71,0,0,0,.21,2.64,26.83,26.83,0,0,0,11.7,4.48,1.81,1.81,0,0,0,2-1.84V54.55a3,3,0,0,0-3-3H25a1.8,1.8,0,0,0-1.84,2,26.94,26.94,0,0,0,4.47,11.71,1.73,1.73,0,0,0,2.65.21l4.82-4.82h-2.7"/></svg>