<svg id="图层_1" data-name="图层 1" xmlns="http://www.w3.org/2000/svg" viewBox="0 0 100 100"><defs><style>.cls-1{fill:#231700;}</style></defs><title>logohunt01</title><path class="cls-1" d="M40.24,64.38a4.62,4.62,0,0,1-4.62-4.62V40.24a4.63,4.63,0,0,1,4.58-4.62h.08a4.62,4.62,0,0,1,4.57,4.62v8.38l11.7-11.69h0a4.63,4.63,0,0,1,3.17-1.31h.08a4.63,4.63,0,0,1,4.58,4.62,4.58,4.58,0,0,1-1.31,3.21h0l0,0h0L43.5,63a4.58,4.58,0,0,1-3.26,1.36"/><path class="cls-1" d="M59.76,64.38a4.62,4.62,0,1,1,4.62-4.62,4.61,4.61,0,0,1-4.62,4.62"/></svg>