<svg id="图层_1" data-name="图层 1" xmlns="http://www.w3.org/2000/svg" viewBox="0 0 100 100"><title>logohunt03</title><path d="M71.59,65.32,53,58.73a7,7,0,0,0-7.74,2.55l-9.09,13c-1.91,2.73-3.32,1.82-3.13-1.81l.78-14.63c.13-2.28-1.11-4.12-2.68-4.24l-6.92-.54c-1.17-.09-1-1.15.3-2.36l6.69-6.17c1.31-1.2,2.19-3.14,2-4.28l-.85-5c-.14-.84.51-1.5,1.49-1.53l5.73-.16a6.79,6.79,0,0,0,4.24-2.32l5-6.09c.94-1.14,2-1.39,2.29-.54l2,5.17c.46,1.19,2.56,1.86,4.76,1.42l13.32-2.71c3.1-.62,4.24.26,2.36,2L64,39.6a5.1,5.1,0,0,0-.57,6.86L74.91,61c3.14,4,1.59,6-3.32,4.29"/><path d="M60.38,57.39,48.79,53.28A4.35,4.35,0,0,0,44,54.87L38.29,63c-1.19,1.7-2.08,1.13-2-1.13l.49-9.14c.08-1.42-.69-2.57-1.67-2.64l-4.32-.34c-.73-.06-.64-.72.18-1.47l4.18-3.85a3.62,3.62,0,0,0,1.25-2.68l-.53-3.1c-.09-.52.32-.94.93-1l3.58-.1a4.24,4.24,0,0,0,2.64-1.45l3.14-3.8c.59-.72,1.22-.87,1.43-.34l1.25,3.23c.29.74,1.6,1.16,3,.88l8.32-1.69c1.93-.39,2.64.17,1.47,1.26l-6,5.66a3.18,3.18,0,0,0-.36,4.28l7.19,9.1c2,2.48,1,3.76-2.07,2.67"/></svg>