<svg id="图层_1" data-name="图层 1" xmlns="http://www.w3.org/2000/svg" viewBox="0 0 100 100"><title>logohunt03</title><path d="M64.38,23H35.62C27.23,23,23,27.23,23,35.7V64.38C23,72.77,27.23,77,35.62,77H64.38C72.77,77,77,72.77,77,64.38V35.7C77,27.23,72.77,23,64.38,23m9,40.82c0,6.31-3.2,9.5-9.51,9.5H36.1c-6.39,0-9.51-3.19-9.51-9.5V36c0-6.31,3.12-9.51,9.51-9.51H63.9c6.31,0,9.51,3.2,9.51,9.51Z"/><path d="M51.44,43.77l10.86.08a5.7,5.7,0,0,0,4.15-1.68A5.82,5.82,0,0,0,68.13,38a5.19,5.19,0,0,0-1.59-4.08,5.63,5.63,0,0,0-4.16-1.76l-19-.16h-4a15.48,15.48,0,0,0-2.08.09c-.56.15-1.12.24-1.6.39a3.81,3.81,0,0,0-1.44.64,5.61,5.61,0,0,0-1.43,1.36A3.35,3.35,0,0,0,32,35.94a9.79,9.79,0,0,0-.72,2.16,2.7,2.7,0,0,0-.08,1.11v1.2c0,1.28,0,2.48-.08,3.76l-.08,19a5.83,5.83,0,0,0,1.68,4.15,5.59,5.59,0,0,0,4.07,1.76,5.85,5.85,0,0,0,4.15-1.68,5.47,5.47,0,0,0,1.76-4.15l.08-11.74,15.9,16.14a6.17,6.17,0,0,0,4.15,1.75,5.74,5.74,0,0,0,5.83-5.83,5.52,5.52,0,0,0-1.68-4.07Z"/></svg>