<svg id="图层_1" data-name="图层 1" xmlns="http://www.w3.org/2000/svg" viewBox="0 0 100 100"><title>logohunt03</title><path d="M73.48,60.85a13.08,13.08,0,0,1-9.65,3.61,13.54,13.54,0,0,1-9.77-3.9A14.17,14.17,0,0,1,50.9,56a11.76,11.76,0,0,0,1.44,11.8c-15.44-8.13-17.78-21.64-10-29.27a13.19,13.19,0,0,0-5.82-1.3,12.58,12.58,0,0,0-9.35,3.91,13.41,13.41,0,0,0-3.79,9.67,25.25,25.25,0,0,0,7.93,18.56,26.1,26.1,0,0,0,18.86,7.79,25.47,25.47,0,0,0,18.67-7.45,27.08,27.08,0,0,0,7-12.08,13.17,13.17,0,0,1-2.36,3.26"/><path d="M26.52,39.15a13.08,13.08,0,0,1,9.65-3.61,13.54,13.54,0,0,1,9.77,3.9A14.17,14.17,0,0,1,49.1,44a11.78,11.78,0,0,0-1.43-11.8c15.43,8.12,17.77,21.64,9.95,29.27a13.18,13.18,0,0,0,5.82,1.29,12.57,12.57,0,0,0,9.35-3.9,13.41,13.41,0,0,0,3.79-9.67,25.25,25.25,0,0,0-7.93-18.56,26.1,26.1,0,0,0-18.86-7.79,25.43,25.43,0,0,0-18.67,7.45,27,27,0,0,0-7,12.08,13.17,13.17,0,0,1,2.36-3.26"/></svg>