<svg id="图层_1" data-name="图层 1" xmlns="http://www.w3.org/2000/svg" viewBox="0 0 100 100"><defs><style>.cls-1{fill:#231815;}.cls-2{fill:#fff;}</style></defs><title>logohunt02</title><path class="cls-1" d="M49.36,54.33c.24.19,3,1.84,3.44,2.17s.51.33.9,0a17.62,17.62,0,0,1,10.2-3,18.38,18.38,0,0,1,5.89.85A19,19,0,0,0,70.32,50c0-10.83-9.1-19.62-20.32-19.62S29.68,39.17,29.68,50,38.78,69.62,50,69.62a20.52,20.52,0,0,0,16.13-7.7c-.75.07-1.5.1-2.23.1a17.56,17.56,0,0,1-10.2-3c-.39-.29-.47-.28-.9.05s-3.2,2-3.44,2.17-.33,0-.18-.24,1.21-2.15,1.6-2.73.3-.45,0-1-1.46-2.45-1.6-2.73S49.13,54.14,49.36,54.33Z"/><path class="cls-2" d="M41.84,45.21c-.39-.29-.47-.28-.89,0s-3.21,2-3.44,2.16-.33,0-.19-.23,1.22-2.16,1.6-2.73.31-.45,0-1-1.46-2.45-1.6-2.74,0-.42.19-.23,3,1.83,3.44,2.16.5.34.89.05a17.54,17.54,0,0,1,10.2-3,15.33,15.33,0,0,1,9.62,2.81S63,43.22,63,43.93s-1.36,1.44-1.36,1.44A15.33,15.33,0,0,1,52,48.18,17.54,17.54,0,0,1,41.84,45.21Z"/></svg>