<svg id="图层_1" data-name="图层 1" xmlns="http://www.w3.org/2000/svg" viewBox="0 0 100 100"><defs><style>.cls-1{fill:#231815;}</style></defs><title>logohunt01</title><path class="cls-1" d="M35.37,75.13H29.84v-.08a7.45,7.45,0,0,1,1.46-4.66A21,21,0,0,1,34,67.77a3.38,3.38,0,0,0,1.38-2.4V33.28A3.41,3.41,0,0,0,34,30.88a22.63,22.63,0,0,1-2.69-2.69,7.74,7.74,0,0,1-1.46-4.73v-.08h5.53v.08a2.87,2.87,0,0,0,.83,2,2.66,2.66,0,0,0,3.95,0,2.87,2.87,0,0,0,.83-2v-.08H45.5a18.34,18.34,0,0,1,4.31-.51A13.87,13.87,0,0,1,60,27.06a13.72,13.72,0,0,1,4.2,10.08A13.89,13.89,0,0,1,61.83,45a14.13,14.13,0,0,1-6.22,5.21l3.56,13.6c.29.88.51,1.51.66,1.9a5.16,5.16,0,0,0,1.74,2,7.79,7.79,0,0,1,4.59,7.43H60.63a2.74,2.74,0,0,0-.88-2.08,2.84,2.84,0,0,0-2-.84,2.74,2.74,0,0,0-2.07.88,2.83,2.83,0,0,0-.83,2H49.27a8,8,0,0,1,3.79-7.06A1.86,1.86,0,0,0,54,66.39a5.83,5.83,0,0,0-.22-1.24L50.2,51.47h-.37a13.57,13.57,0,0,1-8.85-3l.07,17a3.1,3.1,0,0,0,1.24,2.33,21.35,21.35,0,0,1,3.13,3.07,7.43,7.43,0,0,1,1.16,4.31H41v-.08a2.77,2.77,0,0,0-.83-2,2.74,2.74,0,0,0-3.95,0,2.77,2.77,0,0,0-.83,2v.08m8.25-44.22a8.75,8.75,0,0,0,0,12.39,8.77,8.77,0,0,0,15-6.2,8.76,8.76,0,0,0-15-6.19Z"/></svg>