<svg id="图层_1" data-name="图层 1" xmlns="http://www.w3.org/2000/svg" viewBox="0 0 100 100"><title>logohunt03</title><path d="M76.91,54.5a2.64,2.64,0,0,0-2.73-3H56.62a5.09,5.09,0,0,0-5.09,5.09V74.18a2.67,2.67,0,0,0,3.06,2.71,25.23,25.23,0,0,0,3.23-.75,1.43,1.43,0,0,0,1-1.35V63.22l-1,1a2.38,2.38,0,0,1-3.36-3.36l5.69-5.69a2.92,2.92,0,0,1,2.06-1,3,3,0,0,1,2,1L70,60.82a2.38,2.38,0,0,1-3.36,3.37l-1-1v7.07a1,1,0,0,0,1.6.82A27.24,27.24,0,0,0,76.91,54.5"/><path d="M54.51,23.09a2.64,2.64,0,0,0-3,2.73V43.38a5.09,5.09,0,0,0,5.09,5.09H74.18a2.67,2.67,0,0,0,2.71-3.06,26.44,26.44,0,0,0-.75-3.22,1.42,1.42,0,0,0-1.35-1H63.22l1,1a2.38,2.38,0,0,1-3.36,3.36l-5.69-5.69a2.92,2.92,0,0,1-1-2.06,3,3,0,0,1,1-2L60.83,30a2.38,2.38,0,0,1,3.36,3.36l-1,1h7.07a1,1,0,0,0,.82-1.6,27.24,27.24,0,0,0-16.6-9.64"/><path d="M23.09,45.49a2.64,2.64,0,0,0,2.73,3H43.38a5.09,5.09,0,0,0,5.09-5.09V25.82a2.67,2.67,0,0,0-3.06-2.71,26.44,26.44,0,0,0-3.22.75,1.42,1.42,0,0,0-1,1.35V36.78l1-1a2.38,2.38,0,0,1,3.36,3.36l-5.69,5.69a2.92,2.92,0,0,1-2.06,1,3,3,0,0,1-2-1L30,39.18a2.38,2.38,0,0,1,3.36-3.37l1,1V29.71a1,1,0,0,0-1.6-.82,27.24,27.24,0,0,0-9.64,16.6"/><path d="M45.5,76.91a2.64,2.64,0,0,0,3-2.73V56.62a5.09,5.09,0,0,0-5.09-5.09H25.82a2.67,2.67,0,0,0-2.71,3.06,26,26,0,0,0,.75,3.22,1.43,1.43,0,0,0,1.35,1H36.78l-1-1a2.38,2.38,0,0,1,3.36-3.36l5.69,5.69a2.92,2.92,0,0,1,1,2.06,3,3,0,0,1-1,2L39.18,70a2.38,2.38,0,0,1-3.37-3.36l1-1H29.71a1,1,0,0,0-.82,1.6A27.24,27.24,0,0,0,45.5,76.91"/></svg>