<svg id="图层_1" data-name="图层 1" xmlns="http://www.w3.org/2000/svg" viewBox="0 0 100 100"><title>logohunt03</title><path d="M53.47,28a15.72,15.72,0,0,1,6.41,1.37C57.48,25.52,54,23.1,50,23.1c-7.22,0-13.08,8.09-13.08,18.06q0,.78.06,1.53C38.43,34.31,45.26,28,53.47,28"/><path d="M32.65,36a15.62,15.62,0,0,1,4.4-4.87c-4.51.17-8.37,2-10.35,5.44-3.61,6.25.47,15.37,9.11,20.35.45.26.9.5,1.35.73C30.63,52.17,28.55,43.09,32.65,36"/><path d="M29.19,58a15.49,15.49,0,0,1-2-6.23c-2.11,4-2.44,8.25-.47,11.67,3.61,6.25,13.54,7.28,22.19,2.29q.66-.39,1.29-.81c-8,2.93-16.89.19-21-6.92"/><path d="M46.53,72a15.72,15.72,0,0,1-6.41-1.37c2.4,3.82,5.93,6.24,9.88,6.24,7.22,0,13.08-8.09,13.08-18.06,0-.52,0-1,0-1.53C61.57,65.69,54.74,72,46.53,72"/><path d="M67.35,64A15.86,15.86,0,0,1,63,68.89c4.51-.17,8.37-2,10.35-5.44,3.61-6.25-.47-15.37-9.11-20.35-.45-.26-.9-.5-1.35-.73,6.53,5.46,8.61,14.54,4.51,21.65"/><path d="M70.81,42a15.49,15.49,0,0,1,2,6.23c2.11-4,2.44-8.25.47-11.67-3.61-6.26-13.54-7.28-22.18-2.29-.45.26-.88.53-1.3.81,8-2.93,16.89-.19,21,6.92"/></svg>