<svg id="图层_1" data-name="图层 1" xmlns="http://www.w3.org/2000/svg" viewBox="0 0 100 100"><title>logohunt03</title><path d="M71.14,33.2c-9.39-.55-19.49,1.73-26,8.72,11.1.5,22.09,2.39,32.05,6.72a25.53,25.53,0,0,0-6-15.44"/><path d="M50,22.88A27.13,27.13,0,0,0,24,42.21c5.15-.41,10.4-.65,15.67-.61C47,33.33,59.21,29.89,70.21,32A27.07,27.07,0,0,0,50,22.88"/><path d="M23.65,43.41a23,23,0,0,0-.5,2.5c17.93.57,36.34,5.84,51.13,16.11a27,27,0,0,0,2.77-10.65,119.46,119.46,0,0,0-53.4-8"/><path d="M23,47.56c-.07.79-.11,1.6-.11,2.41A85.12,85.12,0,0,1,66.59,71.41a26.91,26.91,0,0,0,4.56-4.49C58.91,54.15,40.25,50.57,23,47.56"/><path d="M48.82,77.1l1.14,0A26.87,26.87,0,0,0,60.7,74.9c-10.29-11-23.17-19.45-37.76-22.64a26.73,26.73,0,0,0,.64,4C33.71,60.67,41.85,68.52,48.82,77.1"/><path d="M24.33,58.85a27.19,27.19,0,0,0,17.43,17c-5.08-6.56-9.9-13.21-17.43-17"/></svg>