<svg id="图层_1" data-name="图层 1" xmlns="http://www.w3.org/2000/svg" viewBox="0 0 100 100"><title>logohunt03</title><path d="M59.91,24.64H55.3A14.64,14.64,0,0,0,40.68,39.27V58.51H59.91A14.65,14.65,0,0,0,74.54,43.88V39.27A14.64,14.64,0,0,0,59.91,24.64"/><path d="M34.21,44.75H25.46v8.76a5,5,0,0,0,5,5h8.75V49.75a5,5,0,0,0-5-5"/><path d="M50.45,60H40.68v9.78a5.61,5.61,0,0,0,5.61,5.61h9.77V65.59A5.62,5.62,0,0,0,50.45,60"/><path d="M28.42,63.85v6.91h6.91a3.88,3.88,0,0,0,3.88-3.88V60H32.3a3.88,3.88,0,0,0-3.88,3.88"/><path d="M35.66,49h-6v6a3.26,3.26,0,0,0,3.25,3.25h6v-6A3.26,3.26,0,0,0,35.66,49"/><path d="M36.64,51.2H31.9v4.74a2.58,2.58,0,0,0,2.57,2.57h4.74V53.77a2.57,2.57,0,0,0-2.57-2.57"/><path d="M47.77,60.41H41.12v6.65a3.68,3.68,0,0,0,3.67,3.68h6.65V64.09a3.68,3.68,0,0,0-3.67-3.68"/><path d="M46.34,60H40.68v5.66a3.13,3.13,0,0,0,3.12,3.13h5.66V63.1A3.13,3.13,0,0,0,46.34,60"/><path d="M40.68,55.1v3.41h3.4a1.77,1.77,0,0,0,1.77-1.77v-3.4H42.44a1.76,1.76,0,0,0-1.76,1.76"/><path d="M33.26,62.15v3.77H37A1.92,1.92,0,0,0,39,64V60.23H35.18a1.92,1.92,0,0,0-1.92,1.92"/><path d="M34.55,61.55v3.08h3.09a1.57,1.57,0,0,0,1.57-1.57V60H36.12a1.58,1.58,0,0,0-1.57,1.58"/></svg>