<svg id="图层_1" data-name="图层 1" xmlns="http://www.w3.org/2000/svg" viewBox="0 0 100 100"><title>logohunt03</title><path d="M46.89,33.69A4.49,4.49,0,1,0,42.26,38a4.49,4.49,0,0,0,4.63-4.35"/><path d="M60.6,46.74a6.84,6.84,0,1,0-7.05,6.63,6.84,6.84,0,0,0,7.05-6.63"/><path d="M76.8,62.65A8.55,8.55,0,1,0,68,70.94a8.56,8.56,0,0,0,8.82-8.29"/><path d="M37.88,49.18a3.87,3.87,0,1,0-4,3.75,3.86,3.86,0,0,0,4-3.75"/><path d="M31.36,66.31a4.08,4.08,0,1,0-4.21,4,4.09,4.09,0,0,0,4.21-4"/><path d="M51.59,65c.25-8.32-14.08-5.57-13.71-15.86,0,.52-4.41,3.22-4.81,3.59a10,10,0,0,1,3.16,1,10.3,10.3,0,0,1,1.88,2.17c3.28,4.26-.11,13.65,8,14.48,2.94.31,5.42-2.29,5.52-5.34"/></svg>