<svg id="图层_1" data-name="图层 1" xmlns="http://www.w3.org/2000/svg" viewBox="0 0 100 100"><defs><style>.cls-1{fill:#231815;}</style></defs><title>logohunt01</title><path class="cls-1" d="M41.65,65.52C41.65,73,47.41,77,53.71,77c7.73,0,12.88-5.16,12.88-11.8,0-7.24-4.55-11.9-10.8-11.9H45.4c-3.32,0-5.65-2.64-5.65-6.16h0V32.73c0-2.37,1.09-3.69,3.31-3.69s3.13,1.32,3.13,3.69V42.5s-.07,2.55,1.43,3.66c1.66,1.23,4.9,1,4.9,1V32.73c0-2.37.9-3.69,3.12-3.69S59,30.36,59,32.73V50.49a10.73,10.73,0,0,1,6.33,3.26h0V30.58a7.54,7.54,0,0,0-2-4.95A9,9,0,0,0,56.58,23a7.92,7.92,0,0,0-7,3.88A9,9,0,0,0,42.11,23c-4.54,0-8.7,2.65-8.7,8.23V47.15c0,7,4.85,12.52,11.89,12.52H55.49c2.88,0,4.76,2.18,4.76,5.65,0,3-2.77,5.35-6.29,5.35a5.62,5.62,0,0,1-5.8-5.57V62.48H45.42s-2.9,0-3.77-.72v3.76"/></svg>