<svg id="图层_1" data-name="图层 1" xmlns="http://www.w3.org/2000/svg" viewBox="0 0 100 100"><defs><style>.cls-1{fill:#231815;}</style></defs><title>logohunt01</title><path class="cls-1" d="M48.12,45.93l4,.07a4.42,4.42,0,1,1,0,8.81h-4l0,6.38a5.39,5.39,0,0,1-5.35,5.54c-3.54,0-5.64-2.49-5.64-6.69V39.45c0-2.34.5-3.69,1.8-4.89s2.35-1.4,5-1.4h4.6a17.82,17.82,0,0,1,5.65.6,11.94,11.94,0,0,1,8.44,11.29,11.52,11.52,0,0,1-2.94,7.88L62,58.37a7.76,7.76,0,0,1,.3.72l.17.39a5.25,5.25,0,0,1-2.78,6.89,5.31,5.31,0,0,1-7.1-2.69l-3.26-7.74h2.8a5.55,5.55,0,1,0,0-11.08h-.32c0-1.64-2.24-1.51-3.68-1.51v2.58"/></svg>