<svg id="图层_1" data-name="图层 1" xmlns="http://www.w3.org/2000/svg" viewBox="0 0 100 100"><defs><style>.cls-1{fill:#231815;}</style></defs><title>logohunt01</title><path class="cls-1" d="M31,50A19.11,19.11,0,0,1,50,30.9a18.75,18.75,0,0,1,12,4.23,4,4,0,1,0,5.21-6.08A27.47,27.47,0,0,0,50,22.87a27.13,27.13,0,0,0,0,54.26A27.47,27.47,0,0,0,67.26,71a4,4,0,1,0-5.21-6.08A18.75,18.75,0,0,1,50,69.1,19.11,19.11,0,0,1,31,50m38.2,0A18.71,18.71,0,0,0,66,39.36a6.13,6.13,0,0,0,4.24-1.73,5.46,5.46,0,0,0,1.63-3.8A25.25,25.25,0,0,1,77.13,50a25.25,25.25,0,0,1-5.31,16.17,5.46,5.46,0,0,0-1.63-3.8A6.13,6.13,0,0,0,66,60.64,18.71,18.71,0,0,0,69.21,50Z"/></svg>