<svg id="图层_1" data-name="图层 1" xmlns="http://www.w3.org/2000/svg" viewBox="0 0 100 100"><title>logohunt03</title><path d="M50,40.91a8,8,0,0,0,5.66-8.07c0-5.58-9.87-5.75-5.66-10a8,8,0,0,0-5.66,8.06c0,5.58,9.87,5.75,5.66,10"/><path d="M43.57,43.57a8,8,0,0,0-1.7-9.7c-3.95-3.95-11,2.91-11-3a8,8,0,0,0,1.71,9.7c3.94,3.95,11-2.91,11,3"/><path d="M40.91,50a8,8,0,0,0-8.07-5.66c-5.58,0-5.75,9.87-10,5.66a8,8,0,0,0,8.06,5.66c5.58,0,5.75-9.87,10-5.66"/><path d="M43.57,56.43a8,8,0,0,0-9.7,1.7c-3.95,3.95,2.91,11.05-3,11.05a8,8,0,0,0,9.71-1.7c3.94-4-2.92-11.05,3-11.05"/><path d="M50,59.09a8.06,8.06,0,0,0-5.66,8.07c0,5.58,9.87,5.75,5.66,10a8,8,0,0,0,5.66-8.06c0-5.58-9.87-5.75-5.66-10"/><path d="M56.43,56.43a8,8,0,0,0,1.71,9.7c3.94,4,11-2.91,11,3.05a8,8,0,0,0-1.7-9.7c-4-3.95-11.05,2.91-11.05-3"/><path d="M59.1,50a8,8,0,0,0,8.06,5.66c5.58,0,5.75-9.87,10-5.66a8,8,0,0,0-8.06-5.66c-5.58,0-5.75,9.87-10,5.66"/><path d="M56.43,43.57a8,8,0,0,0,9.7-1.7c4-3.95-2.91-11,3.05-11a8,8,0,0,0-9.7,1.7c-3.95,3.95,2.91,11-3,11"/></svg>