<svg id="图层_1" data-name="图层 1" xmlns="http://www.w3.org/2000/svg" viewBox="0 0 100 100"><defs><style>.cls-1{fill:#231815;}</style></defs><title>logohunt01</title><path class="cls-1" d="M80.7,49.14A19.77,19.77,0,0,0,73,34.59a23.53,23.53,0,0,0-18.67-5.06c-18.22,2.8-33.49,24.71-34.13,25.65l-.89,1.29.87,1.31c.32.48,7.88,11.63,18.23,12.88a17.11,17.11,0,0,0,1.89.11A16.5,16.5,0,0,0,50.48,67a18.46,18.46,0,0,0,24.1-1.77A21,21,0,0,0,80.7,49.14M71.29,62a13.7,13.7,0,0,1-19.28.3A8.11,8.11,0,0,1,49.38,56a7.11,7.11,0,0,1,2.51-5.44,6.32,6.32,0,0,1,7.19-.93,5.39,5.39,0,0,1,3,4.1h4.65a9.86,9.86,0,0,0-5.46-8.2A10.93,10.93,0,0,0,49,46.92a11.74,11.74,0,0,0-4.23,8.93,13,13,0,0,0,2.38,7.89,11.39,11.39,0,0,1-8.19,2.31c-6.4-.77-11.85-6.86-14-9.57C28.48,51.8,41.17,36.23,55,34.11a18.83,18.83,0,0,1,15.1,4.14,15.23,15.23,0,0,1,6,11.18A16.38,16.38,0,0,1,71.29,62Z"/></svg>