<svg id="图层_1" data-name="图层 1" xmlns="http://www.w3.org/2000/svg" viewBox="0 0 100 100"><defs><style>.cls-1{fill:#231815;}</style></defs><title>logohunt02</title><path class="cls-1" d="M76.5,54.42A5.11,5.11,0,0,0,73,53.06a5.23,5.23,0,0,0-2.4.59,11.18,11.18,0,0,0,.45-2h6.38l1.68-13.42H71.34l-1,6.93a10.59,10.59,0,0,0-3.09-4.25,14.42,14.42,0,0,0-9.15-3.25,13,13,0,0,0-10.92,5.7l.63-5.14H40L38.59,51.53,32.37,38.2H23.79l-2.9,23.56h7.7l1.59-12.87,6.4,12.87h8.35l.9-7.35c1.84,4.92,6.93,8,12.45,8a13,13,0,0,0,9.79-4.23A4.54,4.54,0,0,0,69.51,61a5.17,5.17,0,0,0,7,0,4.46,4.46,0,0,0,0-6.58m-18.3.35a4.57,4.57,0,1,1,4.87-4.56,4.72,4.72,0,0,1-4.87,4.56"/></svg>