<svg id="图层_1" data-name="图层 1" xmlns="http://www.w3.org/2000/svg" viewBox="0 0 100 100"><defs><style>.cls-1{fill-rule:evenodd;}</style></defs><title>logohunt03</title><path class="cls-1" d="M31.84,35.33a3.49,3.49,0,0,1,6.89-.78H46.6a3.49,3.49,0,0,1,6.8,0h7.87a3.49,3.49,0,1,1,4.4,4.12v8a3.49,3.49,0,0,1,0,6.68v8a3.49,3.49,0,1,1-4.29,4.49H53.29a3.49,3.49,0,0,1-6.59,0H38.62A3.49,3.49,0,1,1,35,61.19V53.48a3.49,3.49,0,0,1,0-7V38.8a3.48,3.48,0,0,1-3.2-3.47m32.58,3.48a3.51,3.51,0,0,1-3.21-3H53.46a3.51,3.51,0,0,1-3.12,3v7.73a3.5,3.5,0,0,1,3.07,2.71h7.86a3.48,3.48,0,0,1,3.15-2.72Zm0,14.67a3.49,3.49,0,0,1-3.2-3H53.45a3.47,3.47,0,0,1-3.11,3V61.2a3.49,3.49,0,0,1,3.15,3.37h7.69a3.5,3.5,0,0,1,3.24-3.38ZM49.09,38.7a3.5,3.5,0,0,1-2.55-2.9H38.78a3.47,3.47,0,0,1-2.49,2.88v8a3.46,3.46,0,0,1,2.44,2.59h7.86a3.48,3.48,0,0,1,2.5-2.61Zm0,14.67a3.51,3.51,0,0,1-2.55-2.88H38.78a3.47,3.47,0,0,1-2.49,2.86v8a3.5,3.5,0,0,1,2.53,3.25h7.69a3.5,3.5,0,0,1,2.58-3.27Z"/></svg>