<svg id="图层_1" data-name="图层 1" xmlns="http://www.w3.org/2000/svg" viewBox="0 0 100 100"><defs><style>.cls-1{fill:#231815;}</style></defs><title>logohunt02</title><path class="cls-1" d="M50,71.13A14.74,14.74,0,1,1,60.41,46a2.63,2.63,0,0,1,0,3.72,2.64,2.64,0,0,1-3.71,0l-.08-.08a9.47,9.47,0,1,0,.08,13.47,9.85,9.85,0,0,0,1.52-2,1.07,1.07,0,1,1,1.86,1.07,11.62,11.62,0,1,1-1.86-14l0,0a.47.47,0,0,0,.79-.35.44.44,0,0,0-.14-.34,12.57,12.57,0,1,0,3.69,8.89V43.61A12.6,12.6,0,0,0,50,31h0a12.57,12.57,0,0,0-8.49,3.31h0a1.08,1.08,0,1,1-1.45-1.59,14.7,14.7,0,0,1,10-3.87h0a14.74,14.74,0,0,1,14.7,14.74V56.39A14.73,14.73,0,0,1,50,71.13h0"/></svg>