<svg id="图层_1" data-name="图层 1" xmlns="http://www.w3.org/2000/svg" viewBox="0 0 100 100"><defs><style>.cls-1{fill:#231815;}</style></defs><title>logohunt01</title><path class="cls-1" d="M46.44,28.71c1.74,1.61,3.41,3.28,5,5A22.52,22.52,0,0,1,66,28.46v2.15a20.39,20.39,0,0,0-13.1,4.74c7.28,8.37,12.9,19.49,16.36,30.31V26.29a108.42,108.42,0,0,1,18.6,37.82V27H90V73.71H87.87A102.35,102.35,0,0,0,71.4,32.81v40.9H69.26a83.49,83.49,0,0,0-18-36.9,20.47,20.47,0,0,0-4,22.6l.38.73A20.38,20.38,0,0,0,66,71.56v2.15A22.62,22.62,0,0,1,45.33,60.35,62.6,62.6,0,0,0,13,31.53V72.6H10.85V30.73L10,30.44l.68-2A64.75,64.75,0,0,1,43.44,53.11c-.06-.67-.09-1.34-.09-2A22.53,22.53,0,0,1,49.87,35.2c-1.56-1.7-3.19-3.34-4.89-4.9l1.46-1.59"/></svg>