<svg id="图层_1" data-name="图层 1" xmlns="http://www.w3.org/2000/svg" viewBox="0 0 100 100"><title>logohunt03</title><path d="M52.63,29.52c0,3.66-1.18,6.64-2.63,6.64s-2.62-3-2.62-6.64,1.17-6.64,2.62-6.64,2.63,3,2.63,6.64"/><path d="M42,31c1.84,3.17,2.3,6.34,1,7.06s-3.76-1.26-5.59-4.44-2.31-6.33-1.05-7.06S40.2,27.77,42,31"/><path d="M33.57,37.48c3.18,1.84,5.17,4.34,4.44,5.6s-3.89.79-7.06-1-5.17-4.34-4.44-5.59,3.89-.79,7.06,1"/><path d="M29.52,47.37c3.66,0,6.64,1.18,6.64,2.63s-3,2.63-6.64,2.63S22.88,51.45,22.88,50s3-2.63,6.64-2.63"/><path d="M31,58c3.18-1.84,6.34-2.3,7.06-1s-1.26,3.76-4.44,5.6-6.33,2.3-7.06,1S27.77,59.8,31,58"/><path d="M37.49,66.43c1.83-3.18,4.33-5.17,5.59-4.44s.79,3.89-1,7.06-4.34,5.17-5.59,4.44-.79-3.89,1.05-7.06"/><path d="M47.38,70.48c0-3.66,1.17-6.64,2.62-6.64s2.63,3,2.63,6.64S51.45,77.12,50,77.12s-2.62-3-2.62-6.64"/><path d="M58,69.05c-1.84-3.18-2.3-6.34-1-7.06s3.76,1.26,5.6,4.44,2.3,6.33,1,7.06S59.8,72.23,58,69.05"/><path d="M66.43,62.52c-3.18-1.84-5.17-4.34-4.44-5.6s3.89-.79,7.06,1,5.17,4.34,4.44,5.59-3.89.79-7.06-1"/><path d="M70.48,52.63c-3.66,0-6.64-1.18-6.64-2.63s3-2.63,6.64-2.63,6.64,1.18,6.64,2.63-3,2.62-6.64,2.63"/><path d="M69.05,42c-3.18,1.84-6.34,2.3-7.06,1s1.26-3.76,4.44-5.6,6.33-2.3,7.06-1S72.23,40.2,69.05,42"/><path d="M62.52,33.57c-1.84,3.18-4.34,5.17-5.6,4.44s-.79-3.89,1-7.06,4.34-5.17,5.59-4.44.79,3.89-1,7.06"/></svg>