<svg id="图层_1" data-name="图层 1" xmlns="http://www.w3.org/2000/svg" viewBox="0 0 100 100"><title>logohunt03</title><path d="M50,23a4.94,4.94,0,0,0-4.94,4.94c0,5.25,4.94,10.71,4.94,10.71s4.94-5.46,4.94-10.71A4.94,4.94,0,0,0,50,23"/><path d="M36.5,26.62a4.94,4.94,0,0,0-1.81,6.74c2.63,4.55,9.64,6.81,9.64,6.81S45.87,33,43.25,28.42a4.94,4.94,0,0,0-6.75-1.8"/><path d="M26.62,36.5a4.93,4.93,0,0,0,1.81,6.75c4.55,2.62,11.74,1.08,11.74,1.08s-2.25-7-6.81-9.64a4.94,4.94,0,0,0-6.74,1.81"/><path d="M23,50a4.94,4.94,0,0,0,4.94,4.94c5.25,0,10.71-4.94,10.71-4.94s-5.46-4.94-10.71-4.94A4.94,4.94,0,0,0,23,50"/><path d="M26.62,63.5a4.94,4.94,0,0,0,6.74,1.81c4.55-2.63,6.81-9.64,6.81-9.64S33,54.13,28.42,56.75a4.94,4.94,0,0,0-1.8,6.75"/><path d="M36.5,73.38a4.94,4.94,0,0,0,6.75-1.8c2.62-4.56,1.08-11.75,1.08-11.75s-7,2.26-9.64,6.81a4.94,4.94,0,0,0,1.81,6.74"/><path d="M50,77a4.94,4.94,0,0,0,4.94-4.94c0-5.25-4.94-10.71-4.94-10.71s-4.94,5.46-4.94,10.71A4.94,4.94,0,0,0,50,77"/><path d="M63.5,73.38a4.94,4.94,0,0,0,1.81-6.74c-2.63-4.55-9.64-6.81-9.64-6.81S54.13,67,56.75,71.58a4.94,4.94,0,0,0,6.75,1.8"/><path d="M73.38,63.5a4.94,4.94,0,0,0-1.8-6.75C67,54.13,59.83,55.67,59.83,55.67s2.26,7,6.81,9.64a4.94,4.94,0,0,0,6.74-1.81"/><path d="M77,50a4.94,4.94,0,0,0-4.94-4.94C66.81,45.06,61.35,50,61.35,50s5.46,4.94,10.71,4.94A4.94,4.94,0,0,0,77,50"/><path d="M73.38,36.5a4.94,4.94,0,0,0-6.74-1.81c-4.55,2.63-6.81,9.64-6.81,9.64S67,45.87,71.58,43.25a4.94,4.94,0,0,0,1.8-6.75"/><path d="M63.5,26.62a4.94,4.94,0,0,0-6.75,1.8C54.13,33,55.67,40.17,55.67,40.17s7-2.26,9.64-6.81a4.94,4.94,0,0,0-1.81-6.74"/></svg>