<svg id="图层_1" data-name="图层 1" xmlns="http://www.w3.org/2000/svg" viewBox="0 0 100 100"><title>logohunt03</title><path d="M28.27,74.63S36,77.16,48.93,69.24c10.49-6.4,14.57-5.59,16.4-3.06,1.23,1.71-.42,10.11-.42,10.11S79.28,53.86,66.31,59c-9.65,3.83-10.65-1.18-6.8-5.94s6.25-7.6,9.13-13.31,1.44-8.55,1.44-8.55S68,40.06,56.75,45.87c-7,3.64-10.81.78-16.85,4.44-6.26,3.78-6.83,8-6.83,8s4.81-6.65,12-5.23,2.4,16.32-16.82,21.55"/><path d="M56,40.41a5.33,5.33,0,1,1-5.32-5.12A5.22,5.22,0,0,1,56,40.41"/><path d="M68.54,29s-2.8-6.06-8.34-5.14C53.86,24.9,53.49,28,49.83,26.7a7.66,7.66,0,0,1-3.95-3s1.12,6.88,7.31,6.35S59.45,24.89,68.54,29"/></svg>