<svg id="图层_1" data-name="图层 1" xmlns="http://www.w3.org/2000/svg" viewBox="0 0 100 100"><defs><style>.cls-1{fill:#231815;}</style></defs><title>logohunt01</title><path class="cls-1" d="M50,53.72a11.95,11.95,0,0,1,0-22.53V22.88A20,20,0,0,0,50,62V53.72m7.94-22.53a11.95,11.95,0,0,1,0,22.53V62a20,20,0,0,0,0-39.15Z"/><path class="cls-1" d="M42.08,68.81a11.95,11.95,0,0,1,0-22.53V38a20,20,0,0,0,0,39.15V68.81"/><path class="cls-1" d="M50,46.28a11.95,11.95,0,0,1,0,22.53v8.31A20,20,0,0,0,50,38v8.31"/></svg>