<svg id="图层_1" data-name="图层 1" xmlns="http://www.w3.org/2000/svg" viewBox="0 0 100 100"><title>logohunt03</title><path d="M68.67,42.13a5,5,0,0,1,3.59,1.7V30.61a2.87,2.87,0,0,0-2.87-2.86H53.11l.57-.58A2.26,2.26,0,0,0,50.48,24l-5.4,5.4a2.54,2.54,0,0,0,0,3.9l5.4,5.4a2.26,2.26,0,0,0,3.2-3.19l-.57-.58h9.36a2.62,2.62,0,0,1,2.62,2.62v6.3a5,5,0,0,1,3.58-1.7"/><path d="M57.87,68.67a5,5,0,0,1-1.7,3.58H69.39a2.86,2.86,0,0,0,2.86-2.86V53.11l.58.57A2.26,2.26,0,0,0,76,50.48l-5.4-5.41a2.56,2.56,0,0,0-3.9,0l-5.4,5.41a2.26,2.26,0,0,0,3.19,3.2l.58-.57v9.36a2.62,2.62,0,0,1-2.62,2.62h-6.3a5,5,0,0,1,1.7,3.58"/><path d="M31.33,57.87a5,5,0,0,1-3.59-1.7V69.39a2.87,2.87,0,0,0,2.87,2.86H46.89l-.57.58A2.26,2.26,0,0,0,49.52,76l5.4-5.4a2.54,2.54,0,0,0,0-3.9l-5.4-5.4a2.26,2.26,0,0,0-3.2,3.19l.57.58H37.53a2.62,2.62,0,0,1-2.62-2.62v-6.3a5,5,0,0,1-3.58,1.7"/><path d="M42.13,31.33a4.93,4.93,0,0,1,1.7-3.58H30.61a2.86,2.86,0,0,0-2.86,2.86V46.89l-.58-.57A2.26,2.26,0,0,0,24,49.52l5.4,5.4a2.54,2.54,0,0,0,3.9,0l5.4-5.4a2.26,2.26,0,0,0-3.19-3.2l-.58.57V37.53a2.62,2.62,0,0,1,2.62-2.62h6.3a5,5,0,0,1-1.7-3.58"/></svg>