<svg id="图层_1" data-name="图层 1" xmlns="http://www.w3.org/2000/svg" viewBox="0 0 100 100"><defs><style>.cls-1{fill:#231815;}</style></defs><title>logohunt02</title><path class="cls-1" d="M41.74,50A8.26,8.26,0,1,0,50,41.74,8.26,8.26,0,0,0,41.74,50m11.88,0A3.62,3.62,0,1,1,50,46.38,3.62,3.62,0,0,1,53.62,50ZM50,38a17.61,17.61,0,0,1,15,8.33l5-1.79a22.86,22.86,0,0,0-40,0l5,1.79A17.58,17.58,0,0,1,50,38ZM50,62a17.58,17.58,0,0,1-15-8.33L30,55.5a22.86,22.86,0,0,0,40,0l-5-1.79A17.61,17.61,0,0,1,50,62Z"/></svg>