<svg id="图层_1" data-name="图层 1" xmlns="http://www.w3.org/2000/svg" viewBox="0 0 100 100"><defs><style>.cls-1{fill:#fefefe;}</style></defs><title>logohunt02</title><path d="M78.41,76.58H21.59V23.42H78.41ZM43.77,32.92l-.11-.08c0,.07,0,.11.05.14a.19.19,0,0,0,.15.21A.21.21,0,0,0,43.77,32.92ZM30,33.44c.08-.07.16-.14.08-.26s-.13.11-.14.2-.09.07-.05.14ZM42.38,44.06c.08-.08.16-.15.08-.27s-.13.11-.14.2-.09.08,0,.14Zm4.87-12.61c-.18.07,0,.23-.08.33l-.24.35c-.24-.13-.31-.44-.55-.6l-.11-.08c0,.07,0,.11,0,.14s.17.36.27.53c.23.39.23.39.08.71a20.72,20.72,0,0,0-1.16-1.77A11.54,11.54,0,0,0,42,27.54a8.87,8.87,0,0,0-3.91-1.25,7,7,0,0,0-2.09.16,8.18,8.18,0,0,0-3.27,1.3,12.69,12.69,0,0,0-3.11,2.74A11.83,11.83,0,0,0,28,33.13c-.09.06-.1.16-.12.26.15,0,.12-.15.18-.19a17,17,0,0,1,2.56-3.1,15.42,15.42,0,0,1,2.41-1.85A7.94,7.94,0,0,1,36.27,27a8.32,8.32,0,0,1,3.65.19,8.21,8.21,0,0,1,3.16,1.73,10.57,10.57,0,0,1,1.53,1.67,19.66,19.66,0,0,1,1.81,2.68c.08.14.1.24-.06.36a15.15,15.15,0,0,0-1.27-2,10.72,10.72,0,0,0-3.24-3.26c-.34-.19-.65-.48-1.09-.43a6.2,6.2,0,0,1,.75.45A10.13,10.13,0,0,1,44.08,31a21.51,21.51,0,0,1,1.58,2.5c.16.28.47.54.36,1-.56-1-1.26-2-1.9-3a7,7,0,0,0-2.58-2.37.76.76,0,0,0,.14.16,8.13,8.13,0,0,1,2,2,26.69,26.69,0,0,1,2.09,3.17c.09.15.21.33,0,.52-.56-1-1.11-1.91-1.76-2.8a13.38,13.38,0,0,0-2.34-2.59,6.33,6.33,0,0,0-2.28-1.2,6.6,6.6,0,0,0-2.83-.18,6.49,6.49,0,0,0-2.68,1,11.66,11.66,0,0,0-3,2.69,3.19,3.19,0,0,0-.78,1.27c.24,0,.25-.27.38-.38a18.81,18.81,0,0,0,1.33-1.35,9.53,9.53,0,0,1,2.37-1.89,6,6,0,0,1,3.77-.92,9.38,9.38,0,0,1,1.5.24,7.23,7.23,0,0,1,3.71,2.81A19.42,19.42,0,0,1,45,34.45a2.72,2.72,0,0,1,.54,1.23l-1.43-2.36a.63.63,0,0,0,.1.5c.35.7.69,1.39,1,2.09.1.18.09.19,0,.39a24.27,24.27,0,0,0-3.1-4.71,6.37,6.37,0,0,0-2.41-1.82,5.41,5.41,0,0,0-3.37-.31,7.79,7.79,0,0,0-2.57,1.22,11.47,11.47,0,0,0-2.37,2.24,14.82,14.82,0,0,0-1.95,3.19,12.27,12.27,0,0,0-1.11,4.75,19.68,19.68,0,0,0,.16,2.25c.07-.08.13-.11.13-.15,0-.54.2-1.06.19-1.6a8,8,0,0,1,.3-2.18,16.46,16.46,0,0,1,1.81-4.46,12,12,0,0,1,2.71-3.35,6.23,6.23,0,0,1,3.12-1.6,5.19,5.19,0,0,1,3.29.54l-.06.06a.76.76,0,0,1-.38-.11,4.53,4.53,0,0,0-2.06-.35,4.61,4.61,0,0,1,2.1.57,8.1,8.1,0,0,1,2.31,2.17,25.79,25.79,0,0,1,2,3c.1.11.08.29.28.37a1,1,0,0,0-.21-.43,27.66,27.66,0,0,0-1.81-3.11c.07,0,.13,0,.15.05a29.87,29.87,0,0,1,2.46,3.91.73.73,0,0,1,.1.69c-.1.19-.1-.09-.17,0s0,.31-.09.48c-.16.55-.59,1-.66,1.58-.11.27-.45.4-.49.73l-.29.52c-.05,0-.13.09-.09.19l.07,0c.09,0,.07-.09.08-.15l.29-.52a1.72,1.72,0,0,0,.49-.73l1.09-2.12c0,.27.31.44.18.68-.36.7-.75,1.38-1.14,2.07a17.74,17.74,0,0,0-1,1.63c-.14.3-.46.5-.46.86-.09.06-.1.15-.12.26.14,0,.11-.15.18-.2a36.39,36.39,0,0,0,2.65-4.48c.16.27.33.49.15.78-.82,1.29-1.51,2.66-2.41,3.91a4.13,4.13,0,0,0-.67,1.15A24.2,24.2,0,0,0,45.91,39a.7.7,0,0,1,.09.17,32.55,32.55,0,0,1,2,5c.34,1.27.86,2.49,1.19,3.76s.62,2.83.89,4.26c0,.22.26.51,0,.78-.26-2.22-1.74-7.68-2.24-8.26a12.79,12.79,0,0,0,.44,1.8,17.14,17.14,0,0,1,.54,1.72c.31,1.42.61,2.86.87,4.3.08.46.37.94.07,1.47-.4-1.9-.74-3.78-1.19-5.63a49.92,49.92,0,0,0-1.82-5.46.18.18,0,0,0,0,.13c.28,1.08.55,2.16.85,3.23.21.77.52,1.52.68,2.29.35,1.64.66,3.29,1,4.93a2.73,2.73,0,0,1,.14,1.61C48.12,58.69,46.86,62.28,46,66a14.68,14.68,0,0,0-.62,4.28,2.93,2.93,0,0,0,3.72,2.67,5.56,5.56,0,0,0,2-1.19,7.87,7.87,0,0,0,2.1-2.7,15.89,15.89,0,0,0,1.22-3.32A30.65,30.65,0,0,0,55,61c.08-1.25-.09-2.49-.1-3.74,0-.33-.08-.69-.12-1a4,4,0,0,1,.1-1.93c1.15-3,2.23-6.12,3.34-9.18s2.21-6,3.26-9.08c.74-2.15,1.4-4.32,2.07-6.49a4,4,0,0,0,.3-1.28,33.24,33.24,0,0,1-1.41,3.63l.51-2.69c-.34.28-.29.72-.59,1v-.9c-1.13,1.94-1.78,4-2.76,6,.54-2.08,1.17-4.13,1.73-6.2-1,2.13-1.68,4.35-2.56,6.5.07-.41.17-.82.28-1.23,0-.16.1-.39,0-.46-.28-.17-.13-.37-.09-.54.13-.49.31-1,.43-1.45a4.8,4.8,0,0,0,.27-1.2L58,34.31l-.08,0,.26-1.48h-.05l-.63,1.42c.22-1,.49-2,.79-3,0-.14.08-.21-.11-.19a1.76,1.76,0,0,1,0-.4,6.77,6.77,0,0,0,.13-.74c-.93,2.61-1.82,5.22-2.73,7.83s-1.84,5.18-2.76,7.77A22.62,22.62,0,0,1,52,43.22a29.24,29.24,0,0,0-1.63-4.54c-.58-1.17-1.11-2.37-1.65-3.55-.06-.13-.14-.25-.08-.4.34-.92.68-1.84,1-2.77a13.92,13.92,0,0,0,.56-2.56c-.3.85-.54,1.72-.81,2.58s-.57,1.71-.88,2.62c-.24-.33-.41-.53-.23-.92a8.5,8.5,0,0,0,.4-1.44c-.29.47-.36,1-.7,1.55-.26-.71-1.09-1.08-.79-1.95a.25.25,0,0,0,.08-.33.34.34,0,0,0,.12-.39ZM33.73,28.87l1.11-.57-.05-.1-1.12.61c-.1,0-.18,0-.2.15S33.66,29,33.73,28.87Zm9.11,6c.1.13.1.32.29.43a.87.87,0,0,0-.23-.49.66.66,0,0,0,0-.15,23.23,23.23,0,0,0-1.72-2.55,3.92,3.92,0,0,0-2.24-1.58,2.77,2.77,0,0,0-1.89,0c.34,0,.57,0,.8,0a4,4,0,0,1,2.52,1.17A17,17,0,0,1,42.84,34.91ZM32.62,27.27l.18-.07a11,11,0,0,1,4-1.23,9.06,9.06,0,0,1,4,.51,1.25,1.25,0,0,0,.65.19,2.77,2.77,0,0,0-.29-.15,9.45,9.45,0,0,0-4.52-.74,8.87,8.87,0,0,0-4.06,1.42c-.05.08-.19,0-.19.21ZM70.6,48a2.39,2.39,0,0,0,.46-.82c.42-1.2.71-2.43,1-3.65.74-3,1.64-5.91,2.49-8.86.63-2.21,1.34-4.4,1.88-6.63.14-.57.23-1.14.37-1.83-.29.48-.3,1-.67,1.3,0-.32,0-.63-.16-.89-.13.07-.1.28-.29.27s0-.25-.18-.29a1.93,1.93,0,0,0-.62.65c-.27.53-.59,1.05-.88,1.57a.74.74,0,0,1-.5.44V27.88c0-.09,0-.25,0-.26-.37-.05-.22-.28-.21-.47a6.39,6.39,0,0,0,0-.65l-.7,1.14c-.24-.1,0-.41-.24-.5-.12.1-.11.3-.29.39a2.91,2.91,0,0,1,.09-1c-.31,0-.23-.24-.28-.41-.12,0-.11.13-.14.21-.43,1.64-.85,3.29-1.31,4.92-.52,1.86-1.09,3.7-1.62,5.55C68.2,38.89,67.67,41,67,43c-.47,1.41-1,2.79-1.41,4.24a5.23,5.23,0,0,0-.31,2.61c1.29-2.64,1.56-5.62,2.75-8.3a1.09,1.09,0,0,1-.09.69c-.49,1.81-1,3.61-1.54,5.4s-1.27,3.75-1.74,5.68a6.66,6.66,0,0,0-.23,2,7.19,7.19,0,0,0,.76-1.7c.51-2,1-4,1.59-6,.42-1.39.78-2.81,1.2-4.21a28.65,28.65,0,0,1,1.28-3.72,8.22,8.22,0,0,1-.34,1.71c-.85,2.84-1.64,5.69-2.53,8.52a3.5,3.5,0,0,0-.26,1.91,15.26,15.26,0,0,0,.76-1.8c.43-1.54.75-3.1,1.17-4.64a13.67,13.67,0,0,1,1.09-3.15q-1.23,4.73-2.45,9.45l.15,0c.92-2.71,1.34-5.57,2.49-8.31a1.71,1.71,0,0,1,0,.33c-1,3.41-1.7,6.91-2.89,10.28a3.51,3.51,0,0,0-.25,1.58,10.48,10.48,0,0,0,1.12-2.86c.26-1,.48-1.93.76-2.89A18.54,18.54,0,0,1,68.92,47c-.19,1.28-.69,2.49-.86,3.88a9.78,9.78,0,0,0,.62-1.36c.36-1.32.68-2.65,1-4a34.36,34.36,0,0,1,1.13-3.38,2,2,0,0,1-.13.89c-.58,1.77-1,3.59-1.49,5.38s-.71,3.44-1.31,5.09a26.37,26.37,0,0,0-1.26,3.86,2.84,2.84,0,0,0-.08,1.27,1.63,1.63,0,0,0,.54-.77,16.63,16.63,0,0,0,.7-2.41c.34-1.33.72-2.66,1.09-4s.71-3,1.12-4.45c.33-1.19.73-2.36,1.06-3.55a8,8,0,0,1,.56-1.73c-.19,1.87-1.14,3.56-1.31,5.43.78-1.69,1-3.56,1.8-5.26C71.86,44,70.87,45.89,70.6,48Zm-41-3.59c-.09.08-.12.09-.13.11a.26.26,0,0,0,0,.12c.32.93.44,2,1.31,2.63a3.18,3.18,0,0,0,1.49.71,8.23,8.23,0,0,0,1.72,0,4.39,4.39,0,0,0,1.55-.33,11.74,11.74,0,0,0,2.58-1.52,19.37,19.37,0,0,0,2.45-2.34.21.21,0,0,0,0-.27,4.17,4.17,0,0,0-.47.36,14,14,0,0,1-3.52,2.7,6.8,6.8,0,0,1-1.74.74A6.06,6.06,0,0,1,31.61,47a1.88,1.88,0,0,1-1.18-.78A5,5,0,0,1,29.57,44.36Zm6.68,4.48a11.59,11.59,0,0,1-1.42.68,7.49,7.49,0,0,1-3,.45c-.25,0-.5-.08-.76-.09a4.62,4.62,0,0,1-1.81-.56,3.6,3.6,0,0,1-1.69-2.06,3.78,3.78,0,0,0-.38-1.06,3.51,3.51,0,0,0,.17,1.12,3.78,3.78,0,0,0,1.24,2.19A6,6,0,0,0,32,50.6a7,7,0,0,0,4.15-1.33A.31.31,0,0,0,36.25,48.84ZM33.82,51c.08,0,.12.05.15,0a16.2,16.2,0,0,0,3.69-1.55,14.68,14.68,0,0,0,2.92-2.29c.45-.47,1-.91,1.38-1.41a14.64,14.64,0,0,0,1.42-1.71c.31-.49.69-.94,1.06-1.43-.3-.05-.41.19-.54.33-.85,1-1.71,1.92-2.6,2.85-.24.25-.5.49-.73.74a12.27,12.27,0,0,1-1.37,1.33,23.2,23.2,0,0,1-4.87,2.77C34.16,50.73,33.93,50.72,33.82,51ZM28.13,35l-.11,0a15.16,15.16,0,0,0-.86,12.93,13,13,0,0,0-.32-1.37,15.38,15.38,0,0,1-.2-2.45c0-.53.1-1.05.1-1.58a17.94,17.94,0,0,1,.14-3.19,15.07,15.07,0,0,1,.86-3.31ZM25.31,45.71a20.73,20.73,0,0,1,1.91-12.35A14.34,14.34,0,0,0,24.8,40,16.45,16.45,0,0,0,25.31,45.71Zm8,3.16a4.42,4.42,0,0,1-2.71-.47,2.84,2.84,0,0,1-1.36-1A9.11,9.11,0,0,1,28,44.11c0-.08,0-.15-.16-.13a7.82,7.82,0,0,0,.05,1,9.14,9.14,0,0,0,.5,1.79,4.81,4.81,0,0,0,.54,1,3.09,3.09,0,0,0,1.4,1.09,3.63,3.63,0,0,0,2.42.32C32.94,49.13,33.19,49.25,33.27,48.87ZM63.67,61c.65-.67,1.76-4.61,1.52-5.22A17.71,17.71,0,0,0,63.67,61Zm-1.41,2.57a11.76,11.76,0,0,0,1.42-4.94A12.28,12.28,0,0,0,62.26,63.55ZM32.2,33.45c-1.27,1.17-3.19,4.87-2.8,6.69a22.59,22.59,0,0,1,1.11-3.47C31,35.53,31.65,34.53,32.2,33.45ZM29.59,34.9c-1.5,2-2.44,6.54-1.73,8.1A18.15,18.15,0,0,1,29.59,34.9ZM62,69.1A9.58,9.58,0,0,0,63.16,65,11.59,11.59,0,0,0,62,69.1ZM40.29,45.37A23.78,23.78,0,0,1,37,47.89,5.74,5.74,0,0,0,40.29,45.37Zm22.6,13.1a8.25,8.25,0,0,0,1-3.5A8.63,8.63,0,0,0,62.89,58.47Zm4.6-.45a6.07,6.07,0,0,0,.8-2.72A5.8,5.8,0,0,0,67.49,58Zm2.57-7.66a8.84,8.84,0,0,0-.88,3.07A9,9,0,0,0,70.06,50.36Zm-1.37,2.71a12.15,12.15,0,0,0,1-3.36A11.46,11.46,0,0,0,68.69,53.07Zm-2.84,5.44a6.62,6.62,0,0,0,.77-2.69A6.56,6.56,0,0,0,65.85,58.51ZM30.92,31.21c.71-.89,1.74-1.41,2.52-2.22A6.82,6.82,0,0,0,30.92,31.21Zm34.26,32a6.33,6.33,0,0,0-.76,2.65A13.8,13.8,0,0,0,65.18,63.19Zm-.26-2.54a4.83,4.83,0,0,0-.61,2.18A5.63,5.63,0,0,0,64.92,60.65Zm-.25-9.32a5,5,0,0,0-.61,2.16A5.73,5.73,0,0,0,64.67,51.33Zm2.11,8.59c-.19.62-.63,1.18-.52,1.89A3.34,3.34,0,0,0,66.78,59.92ZM62.66,65a4.36,4.36,0,0,0,.52-1.91A4.29,4.29,0,0,0,62.66,65Zm3.59-11.9a6.17,6.17,0,0,0-.57,1.94A5.19,5.19,0,0,0,66.25,53.11ZM44.15,36l.32.63A.75.75,0,0,0,44.15,36Zm-1.9,7.06c0-.19.39-.15.29-.46C42.37,42.76,42.22,42.87,42.25,43.1ZM40.92,28.6c.12.22.23.24.36.19ZM27.45,33a.29.29,0,0,0-.16.31A.35.35,0,0,0,27.45,33ZM42.13,43.15c-.12,0-.16.11-.08.23A.16.16,0,0,0,42.13,43.15ZM41.54,29c-.06-.13-.13-.15-.22-.09S41.42,29.08,41.54,29Zm2.37,4.17c0,.11,0,.19.1.22S44,33.24,43.91,33.19Zm-2,10.3s0,0,0,0,0-.08,0-.05a.18.18,0,0,0-.07.05Zm-11.37-12a.12.12,0,0,0,0,0s0,0,0,.06l.08-.07Zm-2.64,1.92s0,0-.05,0a.08.08,0,0,0-.06,0s0,.08.06.06S27.9,33.45,27.92,33.43Zm4.4-5.94s0,0,0-.06,0-.06-.08,0l0,.06Zm.11,5.74,0,0,0,.06c0,.07,0,0,0,0S32.42,33.25,32.43,33.23Z"/><path class="cls-1" d="M42.73,42.36c0-.36.32-.56.46-.86a17.74,17.74,0,0,1,1-1.63c.39-.69.78-1.37,1.14-2.07.13-.24-.15-.41-.18-.68L44,39.24,44,39.18c.07-.59.5-1,.66-1.58,0-.17.16-.31.09-.48s.07.19.17,0a.73.73,0,0,0-.1-.69,29.87,29.87,0,0,0-2.46-3.91s-.08-.05-.15-.05A27.66,27.66,0,0,1,44,35.58l-.07.06a25.79,25.79,0,0,0-2-3,8.1,8.1,0,0,0-2.31-2.17,4.61,4.61,0,0,0-2.1-.57,4.53,4.53,0,0,1,2.06.35.76.76,0,0,0,.38.11c.06.09.15.1.25.12,0-.15-.14-.11-.19-.18a5.19,5.19,0,0,0-3.29-.54,6.23,6.23,0,0,0-3.12,1.6,12,12,0,0,0-2.71,3.35,16.46,16.46,0,0,0-1.81,4.46,8,8,0,0,0-.3,2.18c0,.54-.2,1.06-.19,1.6,0,0-.06.07-.13.15a19.68,19.68,0,0,1-.16-2.25,12.27,12.27,0,0,1,1.11-4.75,14.82,14.82,0,0,1,1.95-3.19,11.47,11.47,0,0,1,2.37-2.24,7.79,7.79,0,0,1,2.57-1.22,5.41,5.41,0,0,1,3.37.31,6.37,6.37,0,0,1,2.41,1.82,24.27,24.27,0,0,1,3.1,4.71c.12-.2.13-.21,0-.39-.34-.7-.68-1.39-1-2.09a.63.63,0,0,1-.1-.5l1.43,2.36A2.72,2.72,0,0,0,45,34.45a19.42,19.42,0,0,0-1.83-2.76,7.23,7.23,0,0,0-3.71-2.81,9.38,9.38,0,0,0-1.5-.24,6,6,0,0,0-3.77.92,9.53,9.53,0,0,0-2.37,1.89,18.81,18.81,0,0,1-1.33,1.35c-.13.11-.14.33-.38.38a3.19,3.19,0,0,1,.78-1.27,11.66,11.66,0,0,1,3-2.69,6.49,6.49,0,0,1,2.68-1,6.6,6.6,0,0,1,2.83.18,6.33,6.33,0,0,1,2.28,1.2A13.38,13.38,0,0,1,44,32.2c.65.89,1.2,1.85,1.76,2.8.23-.19.11-.37,0-.52a26.69,26.69,0,0,0-2.09-3.17,8.13,8.13,0,0,0-2-2,.76.76,0,0,1-.14-.16,7,7,0,0,1,2.58,2.37c.64,1,1.34,1.91,1.9,3,.11-.41-.2-.67-.36-1A21.51,21.51,0,0,0,44.08,31a10.13,10.13,0,0,0-2.57-2.57,6.2,6.2,0,0,0-.75-.45c.44-.05.75.24,1.09.43a10.72,10.72,0,0,1,3.24,3.26,15.15,15.15,0,0,1,1.27,2c.16-.12.14-.22.06-.36a19.66,19.66,0,0,0-1.81-2.68,10.57,10.57,0,0,0-1.53-1.67,8.21,8.21,0,0,0-3.16-1.73A8.32,8.32,0,0,0,36.27,27a7.94,7.94,0,0,0-3.21,1.26,15.42,15.42,0,0,0-2.41,1.85,17,17,0,0,0-2.56,3.1L28,33.13a11.83,11.83,0,0,1,1.63-2.64,12.69,12.69,0,0,1,3.11-2.74A8.18,8.18,0,0,1,36,26.45a7,7,0,0,1,2.09-.16A8.87,8.87,0,0,1,42,27.54a11.54,11.54,0,0,1,3.47,3.52,20.72,20.72,0,0,1,1.16,1.77c.15-.32.15-.32-.08-.71-.1-.17-.18-.35-.27-.53l.06-.06c.24.16.31.47.55.6l.24-.35.06.06c-.3.87.53,1.24.79,1.95.34-.53.41-1.08.7-1.55a8.5,8.5,0,0,1-.4,1.44c-.18.39,0,.59.23.92.31-.91.61-1.76.88-2.62s.51-1.73.81-2.58A13.92,13.92,0,0,1,49.68,32c-.32.93-.66,1.85-1,2.77-.06.15,0,.27.08.4.54,1.18,1.07,2.38,1.65,3.55A29.24,29.24,0,0,1,52,43.22a22.62,22.62,0,0,0,.79,2.26c.92-2.59,1.85-5.17,2.76-7.77s1.8-5.22,2.73-7.83a6.77,6.77,0,0,1-.13.74,1.76,1.76,0,0,0,0,.4c.19,0,.15.05.11.19-.3,1-.57,2-.79,3l.63-1.42h.05l-.26,1.48.08,0,1.63-3.69a4.8,4.8,0,0,1-.27,1.2c-.12.49-.3,1-.43,1.45,0,.17-.19.37.09.54.12.07.06.3,0,.46-.11.41-.21.82-.28,1.23.88-2.15,1.61-4.37,2.56-6.5-.56,2.07-1.19,4.12-1.73,6.2,1-1.93,1.63-4,2.76-6v.9c.3-.26.25-.7.59-1l-.51,2.69a33.24,33.24,0,0,0,1.41-3.63,4,4,0,0,1-.3,1.28c-.67,2.17-1.33,4.34-2.07,6.49-1.05,3-2.17,6-3.26,9.08S56,51.2,54.86,54.25a4,4,0,0,0-.1,1.93c0,.34.11.7.12,1,0,1.25.18,2.49.1,3.74a30.65,30.65,0,0,1-.6,4.77A15.89,15.89,0,0,1,53.16,69a7.87,7.87,0,0,1-2.1,2.7,5.56,5.56,0,0,1-2,1.19,2.93,2.93,0,0,1-3.72-2.67A14.68,14.68,0,0,1,46,66c.91-3.7,2.17-7.29,3.41-10.88a2.73,2.73,0,0,0-.14-1.61c-.37-1.64-.68-3.29-1-4.93-.16-.77-.47-1.52-.68-2.29-.3-1.07-.57-2.15-.85-3.23a.18.18,0,0,1,0-.13,49.92,49.92,0,0,1,1.82,5.46c.45,1.85.79,3.73,1.19,5.63.3-.53,0-1-.07-1.47-.26-1.44-.56-2.88-.87-4.3a17.14,17.14,0,0,0-.54-1.72,12.79,12.79,0,0,1-.44-1.8c.5.58,2,6,2.24,8.26.29-.27.08-.56,0-.78-.27-1.43-.53-2.86-.89-4.26s-.85-2.49-1.19-3.76a32.55,32.55,0,0,0-2-5,.7.7,0,0,0-.09-.17,24.2,24.2,0,0,1-3.4,4.82,4.13,4.13,0,0,1,.67-1.15c.9-1.25,1.59-2.62,2.41-3.91.18-.29,0-.51-.15-.78a36.39,36.39,0,0,1-2.65,4.48Zm5.24-6a8.65,8.65,0,0,0,1,2.82c.37,1,.81,1.88,1.1,2.86s.6,2,.92,3,.61,1.91.92,2.9a1.06,1.06,0,0,0,.13-.79c-.62-1.9-1.22-3.82-1.86-5.72S48.72,38.09,48,36.4Zm-1,.69a.32.32,0,0,0-.09.45c.23.48.45,1,.65,1.46a23.33,23.33,0,0,1,1.12,2.56c.85,2.77,2,5.45,2.47,8.38C51.66,49,48.68,39.9,47,37.09Zm4.53,11.82c.26-.53.08-1.22-1.67-6.31a51.61,51.61,0,0,0-2.65-6.07s-.07.08-.06.1A85.73,85.73,0,0,1,51.54,48.91ZM46.23,38.42a63.56,63.56,0,0,1,4.26,13.46C51,50.73,47.69,40.58,46.23,38.42Zm6,8.39.21-.06a60.65,60.65,0,0,0-4.13-11,.38.38,0,0,0,0,.25A74.85,74.85,0,0,1,52.24,46.81Zm1.58,10.54a1.57,1.57,0,0,0-.23.82l.06,2.47a18.76,18.76,0,0,1-.23,2.89,19.94,19.94,0,0,1-.54,2.77c-.17.58-.4,1.14-.61,1.71C53.94,64.64,54.07,61,53.82,57.35ZM48.88,43.69a22.81,22.81,0,0,0-2.32-5.81C47.34,39.81,48.28,41.69,48.88,43.69Zm5.46,18.18a22.89,22.89,0,0,0-.15-5.77C54.2,58,54.46,59.94,54.34,61.87ZM46.61,36.69c.18-.63-.35-1-.55-1.5A2.69,2.69,0,0,0,46.61,36.69Zm0-2.94c-.07.63.42,1,.68,1.5C47.36,34.64,46.9,34.24,46.65,33.75Zm.28-.8c0,.63.48,1.08.75,1.61C47.65,33.94,47.19,33.49,46.93,33Zm0,3.11a2.37,2.37,0,0,0-.65-1.4A3.81,3.81,0,0,0,46.92,36.06Zm-1.15-.21-.12,0,.63,1.45.09,0A14,14,0,0,0,45.77,35.85Zm2,.54c.15-.34-.05-.59-.2-.89C47.42,35.88,47.62,36.13,47.81,36.39Zm.15-1.6c-.2.37.14.6.2.94C48.45,35.31,48,35.1,48,34.79ZM46,38c.21-.35-.09-.58-.13-.9C45.58,37.51,45.84,37.74,46,38Zm-.31-.8a1,1,0,0,0-.24-.81A.91.91,0,0,0,45.64,37.23Zm7.6,23V59.11C53,59.49,53.28,59.86,53.24,60.24ZM40.48,30.65c-.06-.12-.13-.14-.22-.08S40.36,30.71,40.48,30.65ZM42,32.21c-.05.13,0,.2.1.22S42.15,32.25,42,32.21Zm-1.38-1.4s0,.11.11.05S40.63,30.79,40.65,30.81Zm.9.85c0,.12,0,.22.15.23A.24.24,0,0,0,41.55,31.66ZM40.89,31s0,0,0-.06-.07,0-.07,0,0,0,0,.05S40.87,31,40.89,31Zm.25.25s0-.06,0-.07-.07,0-.05.06a.12.12,0,0,0,.05.05Z"/><path class="cls-1" d="M70.6,48c.27-2.06,1.26-3.94,1.49-6-.75,1.7-1,3.57-1.8,5.26.17-1.87,1.12-3.56,1.31-5.43A8,8,0,0,0,71,43.5c-.33,1.19-.73,2.36-1.06,3.55-.41,1.47-.71,3-1.12,4.45s-.75,2.66-1.09,4a16.63,16.63,0,0,1-.7,2.41,1.63,1.63,0,0,1-.54.77,2.84,2.84,0,0,1,.08-1.27,26.37,26.37,0,0,1,1.26-3.86c.6-1.65.83-3.4,1.31-5.09s.91-3.61,1.49-5.38a2,2,0,0,0,.13-.89,34.36,34.36,0,0,0-1.13,3.38c-.31,1.33-.63,2.66-1,4a9.78,9.78,0,0,1-.62,1.36c.17-1.39.67-2.6.86-3.88a18.54,18.54,0,0,0-.85,2.81c-.28,1-.5,1.93-.76,2.89a10.48,10.48,0,0,1-1.12,2.86A3.51,3.51,0,0,1,66.44,54c1.19-3.37,1.87-6.87,2.89-10.28a1.71,1.71,0,0,0,0-.33c-1.15,2.74-1.57,5.6-2.49,8.31l-.15,0q1.22-4.72,2.45-9.45a13.67,13.67,0,0,0-1.09,3.15c-.42,1.54-.74,3.1-1.17,4.64a15.26,15.26,0,0,1-.76,1.8,3.5,3.5,0,0,1,.26-1.91c.89-2.83,1.68-5.68,2.53-8.52a8.22,8.22,0,0,0,.34-1.71A28.65,28.65,0,0,0,68,43.38c-.42,1.4-.78,2.82-1.2,4.21-.6,2-1.08,4-1.59,6a7.19,7.19,0,0,1-.76,1.7,6.66,6.66,0,0,1,.23-2c.47-1.93,1.15-3.79,1.74-5.68s1-3.59,1.54-5.4a1.09,1.09,0,0,0,.09-.69c-1.19,2.68-1.46,5.66-2.75,8.3a5.23,5.23,0,0,1,.31-2.61C66,45.78,66.52,44.4,67,43c.68-2,1.21-4.1,1.79-6.16.53-1.85,1.1-3.69,1.62-5.55.46-1.63.88-3.28,1.31-4.92,0-.08,0-.17.14-.21.05.17,0,.43.28.41a2.91,2.91,0,0,0-.09,1c.18-.09.17-.29.29-.39.25.09,0,.4.24.5l.7-1.14a6.39,6.39,0,0,1,0,.65c0,.19-.16.42.21.47.08,0,0,.17,0,.26v1.33a.74.74,0,0,0,.5-.44c.29-.52.61-1,.88-1.57a1.93,1.93,0,0,1,.62-.65c.16,0,.08.22.18.29s.16-.2.29-.27c.21.26.12.57.16.89.37-.33.38-.82.67-1.3-.14.69-.23,1.26-.37,1.83-.54,2.23-1.25,4.42-1.88,6.63-.85,3-1.75,5.88-2.49,8.86-.3,1.22-.59,2.45-1,3.65A2.39,2.39,0,0,1,70.6,48Z"/><path class="cls-1" d="M29.57,44.36a5,5,0,0,0,.86,1.86,1.88,1.88,0,0,0,1.18.78,6.06,6.06,0,0,0,3.24.25,6.8,6.8,0,0,0,1.74-.74,14,14,0,0,0,3.52-2.7,4.17,4.17,0,0,1,.47-.36.21.21,0,0,1,0,.27,19.37,19.37,0,0,1-2.45,2.34,11.74,11.74,0,0,1-2.58,1.52,4.39,4.39,0,0,1-1.55.33,8.23,8.23,0,0,1-1.72,0,3.18,3.18,0,0,1-1.49-.71c-.87-.66-1-1.7-1.31-2.63a.26.26,0,0,1,0-.12S29.48,44.44,29.57,44.36Z"/><path class="cls-1" d="M36.25,48.84a.31.31,0,0,1-.14.43A7,7,0,0,1,32,50.6a6,6,0,0,1-3.32-1.09,3.78,3.78,0,0,1-1.24-2.19,3.51,3.51,0,0,1-.17-1.12,3.78,3.78,0,0,1,.38,1.06,3.6,3.6,0,0,0,1.69,2.06,4.62,4.62,0,0,0,1.81.56c.26,0,.51.07.76.09a7.49,7.49,0,0,0,3-.45A11.59,11.59,0,0,0,36.25,48.84Z"/><path class="cls-1" d="M33.82,51c.11-.26.34-.25.51-.33a23.2,23.2,0,0,0,4.87-2.77,12.27,12.27,0,0,0,1.37-1.33c.23-.25.49-.49.73-.74.89-.93,1.75-1.89,2.6-2.85.13-.14.24-.38.54-.33-.37.49-.75.94-1.06,1.43A14.64,14.64,0,0,1,42,45.77c-.42.5-.93.94-1.38,1.41a14.68,14.68,0,0,1-2.92,2.29A16.2,16.2,0,0,1,34,51S33.9,51,33.82,51Z"/><path class="cls-1" d="M28.13,35l-.39,1a15.07,15.07,0,0,0-.86,3.31,17.94,17.94,0,0,0-.14,3.19c0,.53-.1,1.05-.1,1.58a15.38,15.38,0,0,0,.2,2.45,13,13,0,0,1,.32,1.37A15.16,15.16,0,0,1,28,34.91Z"/><path class="cls-1" d="M25.31,45.71A16.45,16.45,0,0,1,24.8,40a14.34,14.34,0,0,1,2.42-6.68A20.73,20.73,0,0,0,25.31,45.71Z"/><path class="cls-1" d="M33.27,48.87c-.08.38-.33.26-.48.3a3.63,3.63,0,0,1-2.42-.32A3.09,3.09,0,0,1,29,47.76a4.81,4.81,0,0,1-.54-1,9.14,9.14,0,0,1-.5-1.79,7.82,7.82,0,0,1-.05-1c.12,0,.15.05.16.13a9.11,9.11,0,0,0,1.16,3.25,2.84,2.84,0,0,0,1.36,1A4.42,4.42,0,0,0,33.27,48.87Z"/><path class="cls-1" d="M63.67,61a17.71,17.71,0,0,1,1.52-5.22C65.43,56.37,64.32,60.31,63.67,61Z"/><path class="cls-1" d="M62.26,63.55a12.28,12.28,0,0,1,1.42-4.94A11.76,11.76,0,0,1,62.26,63.55Z"/><path class="cls-1" d="M32.2,33.45c-.55,1.08-1.24,2.08-1.69,3.22a22.59,22.59,0,0,0-1.11,3.47C29,38.32,30.93,34.62,32.2,33.45Z"/><path class="cls-1" d="M29.59,34.9A18.15,18.15,0,0,0,27.86,43C27.15,41.44,28.09,36.88,29.59,34.9Z"/><path class="cls-1" d="M32.56,27.2a8.87,8.87,0,0,1,4.06-1.42,9.45,9.45,0,0,1,4.52.74,2.77,2.77,0,0,1,.29.15,1.25,1.25,0,0,1-.65-.19,9.06,9.06,0,0,0-4-.51,11,11,0,0,0-4,1.23l-.18.07Z"/><path class="cls-1" d="M42.84,34.91a17,17,0,0,0-2.51-3.21,4,4,0,0,0-2.52-1.17c-.23,0-.46,0-.8,0a2.77,2.77,0,0,1,1.89,0,3.92,3.92,0,0,1,2.24,1.58,23.23,23.23,0,0,1,1.72,2.55.66.66,0,0,1,0,.15Z"/><path class="cls-1" d="M62,69.1A11.59,11.59,0,0,1,63.16,65,9.58,9.58,0,0,1,62,69.1Z"/><path class="cls-1" d="M40.29,45.37A5.74,5.74,0,0,1,37,47.89,23.78,23.78,0,0,0,40.29,45.37Z"/><path class="cls-1" d="M62.89,58.47a8.63,8.63,0,0,1,1-3.5A8.25,8.25,0,0,1,62.89,58.47Z"/><path class="cls-1" d="M67.49,58a5.8,5.8,0,0,1,.8-2.72A6.07,6.07,0,0,1,67.49,58Z"/><path class="cls-1" d="M70.06,50.36a9,9,0,0,1-.88,3.07A8.84,8.84,0,0,1,70.06,50.36Z"/><path class="cls-1" d="M68.69,53.07a11.46,11.46,0,0,1,1-3.36A12.15,12.15,0,0,1,68.69,53.07Z"/><path class="cls-1" d="M65.85,58.51a6.56,6.56,0,0,1,.77-2.69A6.62,6.62,0,0,1,65.85,58.51Z"/><path class="cls-1" d="M30.92,31.21A6.82,6.82,0,0,1,33.44,29C32.66,29.8,31.63,30.32,30.92,31.21Z"/><path class="cls-1" d="M65.18,63.19a13.8,13.8,0,0,1-.76,2.65A6.33,6.33,0,0,1,65.18,63.19Z"/><path class="cls-1" d="M64.92,60.65a5.63,5.63,0,0,1-.61,2.18A4.83,4.83,0,0,1,64.92,60.65Z"/><path class="cls-1" d="M64.67,51.33a5.73,5.73,0,0,1-.61,2.16A5,5,0,0,1,64.67,51.33Z"/><path class="cls-1" d="M66.78,59.92a3.34,3.34,0,0,1-.52,1.89C66.15,61.1,66.59,60.54,66.78,59.92Z"/><path class="cls-1" d="M62.66,65a4.29,4.29,0,0,1,.52-1.91A4.36,4.36,0,0,1,62.66,65Z"/><path class="cls-1" d="M66.25,53.11a5.19,5.19,0,0,1-.57,1.94A6.17,6.17,0,0,1,66.25,53.11Z"/><path class="cls-1" d="M33.67,28.81l1.12-.61.05.1-1.11.57Z"/><path class="cls-1" d="M43.46,39.91c0-.33.38-.46.49-.73l.06.06a1.72,1.72,0,0,1-.49.73Z"/><path class="cls-1" d="M44.15,36a.75.75,0,0,1,.32.63Z"/><path class="cls-1" d="M42.25,43.1c0-.23.12-.34.29-.46C42.64,43,42.28,42.91,42.25,43.1Z"/><path class="cls-1" d="M43.52,40l-.29.52-.06-.06.29-.52Z"/><path class="cls-1" d="M42.9,34.85a.87.87,0,0,1,.23.49c-.19-.11-.19-.3-.29-.43Z"/><path class="cls-1" d="M47.17,31.78c.06-.1-.1-.26.08-.33l.06.06a.25.25,0,0,1-.08.33Z"/><path class="cls-1" d="M44,35.58a1,1,0,0,1,.21.43c-.2-.08-.18-.26-.28-.37Z"/><path class="cls-1" d="M47.25,31.45l.18-.33a.34.34,0,0,1-.12.39Z"/><path class="cls-1" d="M40.92,28.6l.36.19C41.15,28.84,41,28.82,40.92,28.6Z"/><path class="cls-1" d="M27.45,33a.35.35,0,0,1-.16.31A.29.29,0,0,1,27.45,33Z"/><path class="cls-1" d="M43.23,40.49c0,.06,0,.14-.08.15l-.07,0c0-.1,0-.14.09-.19Z"/><path class="cls-1" d="M42.13,43.15a.16.16,0,0,1-.08.23C42,43.26,42,43.19,42.13,43.15Z"/><path class="cls-1" d="M41.54,29c-.12.06-.19,0-.22-.09S41.48,28.89,41.54,29Z"/><path class="cls-1" d="M42.32,44c0-.09,0-.17.14-.2s0,.19-.08.27Z"/><path class="cls-1" d="M33.73,28.87c-.07.09-.15.14-.26.09s.1-.15.2-.15Z"/><path class="cls-1" d="M43.91,33.19c.13.05.13.12.1.22S43.86,33.3,43.91,33.19Z"/><path class="cls-1" d="M29.91,33.38c0-.09,0-.18.14-.2s0,.19-.08.26Z"/><path class="cls-1" d="M43.77,32.92a.21.21,0,0,1,.09.27.19.19,0,0,1-.15-.21Z"/><path class="cls-1" d="M42.79,42.42c-.07,0,0,.18-.18.2,0-.11,0-.2.12-.26Z"/><path class="cls-1" d="M32.62,27.27l-.25.14c0-.18.14-.13.19-.21Z"/><path class="cls-1" d="M28.09,33.2c-.06,0,0,.18-.18.19,0-.1,0-.2.12-.26Z"/><path class="cls-1" d="M41.93,43.49l-.06,0a.18.18,0,0,1,.07-.05c.07,0,.05,0,0,.05S42,43.48,41.93,43.49Z"/><path class="cls-1" d="M42.38,44.06l-.11.07c0-.06,0-.11,0-.14Z"/><path class="cls-1" d="M46.32,31.59c-.07,0-.09-.07,0-.14l.11.08Z"/><path class="cls-1" d="M30.56,31.51l.05,0-.08.07s0-.05,0-.06A.12.12,0,0,1,30.56,31.51Z"/><path class="cls-1" d="M30,33.44l-.11.08c0-.07,0-.11.05-.14Z"/><path class="cls-1" d="M27.92,33.43s0,.06-.05.06-.07,0-.06-.06a.08.08,0,0,1,.06,0S27.9,33.41,27.92,33.43Z"/><path class="cls-1" d="M32.32,27.49l-.07,0,0-.06s.08,0,.08,0S32.33,27.47,32.32,27.49Z"/><path class="cls-1" d="M32.43,33.23s0,.06,0,.06-.09,0,0,0l0-.06Z"/><path class="cls-1" d="M43.71,33c-.07,0-.09-.07-.05-.14l.11.08Z"/><path d="M48,36.4c.75,1.69,1.63,3.3,2.21,5.05s1.24,3.82,1.86,5.72a1.06,1.06,0,0,1-.13.79c-.31-1-.62-1.94-.92-2.9s-.63-2-.92-3-.73-1.91-1.1-2.86A8.65,8.65,0,0,1,48,36.4Z"/><path d="M47,37.09C48.68,39.9,51.66,49,51.16,49.94c-.46-2.93-1.62-5.61-2.47-8.38A23.33,23.33,0,0,0,47.57,39c-.2-.49-.42-1-.65-1.46A.32.32,0,0,1,47,37.09Z"/><path d="M51.54,48.91a85.73,85.73,0,0,0-4.38-12.28s0-.07.06-.1a51.61,51.61,0,0,1,2.65,6.07C51.62,47.69,51.8,48.38,51.54,48.91Z"/><path d="M46.23,38.42c1.46,2.16,4.79,12.31,4.26,13.46A63.56,63.56,0,0,0,46.23,38.42Z"/><path d="M52.24,46.81a74.85,74.85,0,0,0-4-10.85.38.38,0,0,1,0-.25,60.65,60.65,0,0,1,4.13,11Z"/><path d="M53.82,57.35c.25,3.69.12,7.29-1.55,10.66.21-.57.44-1.13.61-1.71a19.94,19.94,0,0,0,.54-2.77,18.76,18.76,0,0,0,.23-2.89l-.06-2.47A1.57,1.57,0,0,1,53.82,57.35Z"/><path d="M48.88,43.69c-.6-2-1.54-3.88-2.32-5.81A22.81,22.81,0,0,1,48.88,43.69Z"/><path d="M54.34,61.87c.12-1.93-.14-3.84-.15-5.77A22.89,22.89,0,0,1,54.34,61.87Z"/><path d="M46.61,36.69a2.69,2.69,0,0,1-.55-1.5C46.26,35.69,46.79,36.06,46.61,36.69Z"/><path d="M46.65,33.75c.25.49.71.89.68,1.5C47.07,34.76,46.58,34.38,46.65,33.75Z"/><path d="M46.93,33c.26.54.72,1,.75,1.61C47.41,34,46.94,33.58,46.93,33Z"/><path d="M46.92,36.06a3.81,3.81,0,0,1-.65-1.4A2.37,2.37,0,0,1,46.92,36.06Z"/><path d="M45.77,35.85a14,14,0,0,1,.6,1.46l-.09,0-.63-1.45Z"/><path d="M47.81,36.39c-.19-.26-.39-.51-.2-.89C47.76,35.8,48,36.05,47.81,36.39Z"/><path d="M48,34.79c0,.31.49.52.2.94C48.1,35.39,47.76,35.16,48,34.79Z"/><path d="M46,38c-.11-.29-.37-.52-.13-.9C45.86,37.45,46.16,37.68,46,38Z"/><path d="M45.64,37.23a.91.91,0,0,1-.24-.81A1,1,0,0,1,45.64,37.23Z"/><path d="M53.24,60.24c0-.38-.22-.75,0-1.13Z"/><path d="M40.48,30.65c-.12.06-.19,0-.22-.08S40.42,30.53,40.48,30.65Z"/><path d="M42,32.21c.12,0,.15.11.1.22S42,32.34,42,32.21Z"/><path d="M40,30.31c.05.07.19,0,.19.18-.1,0-.19,0-.25-.12Z"/><path d="M40.65,30.81s.08-.07.11.05S40.61,30.81,40.65,30.81Z"/><path d="M41.55,31.66a.24.24,0,0,1,.15.23C41.57,31.88,41.59,31.78,41.55,31.66Z"/><path d="M40.89,31s0,0-.06,0,0,0,0-.05,0-.06.07,0S40.88,31,40.89,31Z"/><path d="M41.14,31.22l0,0a.12.12,0,0,1-.05-.05c0-.05,0-.07.05-.06S41.12,31.19,41.14,31.22Z"/></svg>