<svg id="图层_1" data-name="图层 1" xmlns="http://www.w3.org/2000/svg" viewBox="0 0 100 100"><title>logohunt03</title><path d="M77,53.87a13.64,13.64,0,0,0-.93-2.62c-.22-.47-.64-.47-.93,0-.59,1-1.28,2.08-2,3.18a2,2,0,0,0-.26,1.82,11.05,11.05,0,0,1,1,2.33c.09.33.43.17.79-.32.72-1,1.38-1.94,2-2.89a2.43,2.43,0,0,0,.4-1.55"/><path d="M66.56,39.74c-.77.91-1.66,1.91-2.64,3A1.62,1.62,0,0,0,64,44.84c1.12,1.22,2.19,2.44,3.18,3.62a1.05,1.05,0,0,0,1.7,0c.88-1.12,1.66-2.19,2.33-3.18A1.76,1.76,0,0,0,71,43.4c-.89-1.13-1.85-2.28-2.86-3.42-.51-.57-1.22-.7-1.61-.24"/><path d="M43.68,27.15a2,2,0,0,0,1.82-.26c1.09-.77,2.16-1.46,3.18-2.05.51-.3.51-.72,0-.94A13.55,13.55,0,0,0,46.1,23a2.43,2.43,0,0,0-1.55.4c-.95.6-1.92,1.27-2.89,2-.49.37-.65.7-.31.8a11.74,11.74,0,0,1,2.33,1"/><path d="M54.67,28.75c-1,.66-2.06,1.45-3.18,2.32a1.06,1.06,0,0,0,0,1.71q1.78,1.48,3.62,3.17a1.63,1.63,0,0,0,2.12.12c1.07-1,2.08-1.87,3-2.64.46-.4.33-1.1-.24-1.61-1.15-1-2.29-2-3.42-2.86a1.74,1.74,0,0,0-1.91-.21"/><path d="M75.16,48.67c.3.52.72.52.94,0A13.55,13.55,0,0,0,77,46.1a2.37,2.37,0,0,0-.4-1.55c-.6-.95-1.27-1.91-2-2.89-.36-.49-.7-.65-.8-.32a10.75,10.75,0,0,1-1,2.33,2,2,0,0,0,.26,1.83c.77,1.09,1.46,2.15,2,3.17"/><path d="M66.14,37.13c.53.56,1.24.69,1.53.32a22.53,22.53,0,0,0,1.38-1.82c.15-.24-.14-.79-.6-1.27-.92-1-1.86-1.91-2.83-2.83-.48-.46-1-.75-1.27-.6-.47.31-1.08.78-1.82,1.38-.37.3-.24,1,.32,1.54C64,34.91,65.07,36,66.14,37.13"/><path d="M51.3,24.83c1,.59,2.08,1.28,3.18,2.05a2,2,0,0,0,1.82.26,11.61,11.61,0,0,1,2.33-1c.33-.09.17-.43-.31-.79-1-.72-2-1.38-2.9-2a2.37,2.37,0,0,0-1.55-.4,13.64,13.64,0,0,0-2.62.93c-.47.22-.46.64,0,.93"/><path d="M32.31,37.47c.3.37,1,.24,1.54-.32C34.91,36,36,34.93,37.13,33.87c.57-.54.69-1.25.32-1.54-.74-.6-1.35-1.07-1.82-1.38-.24-.15-.79.14-1.27.6-1,.92-1.91,1.87-2.83,2.83-.46.48-.75,1-.6,1.27.31.47.78,1.08,1.38,1.82"/><path d="M42.32,48.36a1.57,1.57,0,0,0,2.24,0c1.25-1.27,2.52-2.54,3.78-3.79a1.56,1.56,0,0,0,0-2.24c-1.24-1.2-2.46-2.37-3.62-3.47a1.59,1.59,0,0,0-2.17.09c-1.22,1.19-2.44,2.41-3.62,3.64a1.57,1.57,0,0,0-.09,2.16c1.1,1.16,2.26,2.38,3.47,3.62"/><path d="M57.68,51.64a1.57,1.57,0,0,0-2.24,0c-1.25,1.27-2.52,2.54-3.78,3.79a1.57,1.57,0,0,0,0,2.24c1.24,1.2,2.46,2.37,3.62,3.47a1.59,1.59,0,0,0,2.17-.09c1.22-1.19,2.44-2.41,3.62-3.64a1.57,1.57,0,0,0,.09-2.16c-1.1-1.16-2.26-2.38-3.47-3.62"/><path d="M67.69,62.53c-.3-.37-1-.24-1.54.32C65.09,64,64,65.07,62.87,66.13c-.56.54-.69,1.25-.32,1.55.74.6,1.35,1.06,1.82,1.37.24.15.79-.14,1.27-.6,1-.92,1.91-1.87,2.83-2.83.46-.48.75-1,.6-1.27-.31-.47-.78-1.08-1.38-1.82"/><path d="M57.28,63.92a1.63,1.63,0,0,0-2.12.12c-1.22,1.12-2.44,2.19-3.62,3.18a1.05,1.05,0,0,0,0,1.7c1.12.88,2.19,1.66,3.18,2.33A1.76,1.76,0,0,0,56.6,71c1.13-.89,2.28-1.85,3.42-2.86.57-.51.7-1.22.24-1.61-.9-.77-1.91-1.66-3-2.64"/><path d="M68.93,51.49a1.06,1.06,0,0,0-1.71,0c-1,1.18-2,2.4-3.17,3.62a1.63,1.63,0,0,0-.12,2.12c1,1.08,1.87,2.08,2.64,3,.39.46,1.1.33,1.61-.24,1-1.15,2-2.29,2.86-3.42a1.74,1.74,0,0,0,.21-1.91c-.66-1-1.45-2.06-2.32-3.18"/><path d="M55.26,38.85c-1.16,1.1-2.38,2.26-3.62,3.47a1.57,1.57,0,0,0,0,2.24c1.27,1.25,2.54,2.52,3.79,3.78a1.57,1.57,0,0,0,2.24,0c1.21-1.24,2.37-2.46,3.47-3.62a1.58,1.58,0,0,0-.09-2.16c-1.19-1.23-2.41-2.45-3.64-3.64a1.58,1.58,0,0,0-2.16-.08"/><path d="M42.73,36.08A1.62,1.62,0,0,0,44.84,36c1.22-1.12,2.44-2.19,3.62-3.18a1.05,1.05,0,0,0,0-1.7c-1.12-.88-2.19-1.66-3.18-2.33A1.76,1.76,0,0,0,43.4,29c-1.13.89-2.28,1.85-3.42,2.86-.57.51-.69,1.22-.24,1.61.91.77,1.91,1.66,3,2.64"/><path d="M33.87,62.87c-.54-.56-1.25-.69-1.55-.32-.6.74-1.06,1.35-1.37,1.82-.15.24.14.79.6,1.27.92,1,1.87,1.91,2.83,2.83.48.46,1,.75,1.27.6.47-.31,1.08-.78,1.82-1.38.37-.3.24-1-.32-1.54C36,65.08,34.93,64,33.87,62.87"/><path d="M48.7,75.17c-1-.59-2.08-1.28-3.17-2a2,2,0,0,0-1.83-.26,11.05,11.05,0,0,1-2.33,1c-.33.09-.17.43.32.79,1,.72,1.94,1.38,2.89,2a2.43,2.43,0,0,0,1.55.4,13.64,13.64,0,0,0,2.62-.93c.47-.22.47-.64,0-.93"/><path d="M24.84,51.32c-.3-.51-.72-.51-.94,0A13.55,13.55,0,0,0,23,53.9a2.43,2.43,0,0,0,.4,1.55c.6.95,1.27,1.91,2,2.89.36.48.69.65.79.32a11.27,11.27,0,0,1,1-2.33,2,2,0,0,0-.26-1.83c-.77-1.09-1.46-2.16-2.05-3.18"/><path d="M31.07,48.51a1.06,1.06,0,0,0,1.71,0Q34.27,46.7,36,44.86a1.63,1.63,0,0,0,.12-2.12c-1-1.07-1.87-2.08-2.64-3-.39-.46-1.1-.33-1.61.24-1,1.14-2,2.29-2.86,3.42a1.74,1.74,0,0,0-.21,1.91c.67,1,1.45,2.06,2.32,3.18"/><path d="M33.44,60.26c.77-.91,1.66-1.91,2.64-3A1.62,1.62,0,0,0,36,55.16c-1.12-1.22-2.19-2.44-3.18-3.62a1.05,1.05,0,0,0-1.7,0c-.88,1.12-1.66,2.19-2.33,3.18A1.76,1.76,0,0,0,29,56.6c.89,1.13,1.85,2.28,2.86,3.42.51.57,1.22.7,1.61.24"/><path d="M23.9,48.75c.22.47.64.46.93,0,.59-1,1.28-2.08,2.06-3.18a2,2,0,0,0,.25-1.82,12.22,12.22,0,0,1-1-2.33c-.09-.33-.43-.17-.79.31-.72,1-1.38,2-2,2.89a2.48,2.48,0,0,0-.4,1.57,13.8,13.8,0,0,0,.93,2.61"/><path d="M45.33,71.25c1-.67,2.06-1.45,3.18-2.33a1.05,1.05,0,0,0,0-1.7c-1.19-1-2.4-2.06-3.62-3.17a1.63,1.63,0,0,0-2.12-.12c-1.07,1-2.08,1.87-3,2.64-.45.39-.33,1.1.24,1.61,1.14,1,2.29,2,3.43,2.86a1.72,1.72,0,0,0,1.9.21"/><path d="M44.74,61.15q1.75-1.65,3.62-3.47a1.57,1.57,0,0,0,0-2.24c-1.27-1.25-2.54-2.52-3.79-3.78a1.56,1.56,0,0,0-2.24,0c-1.2,1.24-2.37,2.46-3.47,3.62a1.59,1.59,0,0,0,.09,2.17c1.19,1.22,2.41,2.44,3.64,3.63a1.58,1.58,0,0,0,2.16.08"/><path d="M56.33,72.85a2,2,0,0,0-1.83.26c-1.09.77-2.15,1.46-3.17,2-.52.3-.52.72,0,.94A13.55,13.55,0,0,0,53.9,77a2.43,2.43,0,0,0,1.55-.4c.95-.6,1.91-1.27,2.89-2,.49-.36.65-.7.32-.8a11.27,11.27,0,0,1-2.33-1"/></svg>