<svg id="图层_1" data-name="图层 1" xmlns="http://www.w3.org/2000/svg" viewBox="0 0 100 100"><defs><style>.cls-1{fill:#231815;}</style></defs><title>logohunt01</title><path class="cls-1" d="M47.29,49.68c16.66-1.62,32-8,32.33-13.88C75,40.42,64,44.51,51.77,46.53c-3,.49-4.27,2.29-4.48,3.15"/><path class="cls-1" d="M51.84,45.08c8.14-1.4,17.62-3.63,26-9,6.64-4.28,8-7.67,6.08-10.59.86,4.55-7,9.54-14.41,12.27a115.57,115.57,0,0,1-13.24,3.86c-3,.7-4.23,2.58-4.39,3.46"/><path class="cls-1" d="M42.82,54.3c10-1.12,21.44-2.69,31.16-8.44,4.5-2.65,8-5.85,6-9.66.32,3.36-3.76,6.38-8.12,8.49C65.09,48,56.3,50.13,47.65,51.08c-3,.33-4.62,2.35-4.83,3.22"/><path class="cls-1" d="M38.34,58.76c5.52-.39,18.89-1.73,28-5.52,2.21-.92,8.58-3.76,9.06-7.28-6.92,5.71-20.11,8.52-31.91,9.67-3.33.32-4.9,2.29-5.19,3.13"/><path class="cls-1" d="M34.28,63.09c6.44-.15,21.25-1.56,31-5.63,4.76-2,12.83-6.06,10.43-11.08.05,2.84-2.94,5.1-6.81,7.08-8.32,4.27-19.57,5.85-29.56,6.72-3,.26-4.78,2.07-5.09,2.91"/><path class="cls-1" d="M29.77,38.5v9.69H22.15V38.5H15.34a23.39,23.39,0,0,1,40,1.87,7.19,7.19,0,0,0-5.14,5.05,6.66,6.66,0,0,0-4.59,4.66c-3.1,1.13-4.28,3.37-4.47,4.6a6.73,6.73,0,0,0-4.54,4.46V38.5H29.77"/><path class="cls-1" d="M36.59,64.43a96.12,96.12,0,0,0,19.19-2.66,23.38,23.38,0,0,1-40.44,2.74h6.81V54.25h7.62V64.51h4.82c1,0,1.56-.07,2-.08"/><path class="cls-1" d="M56.88,40c8.46-1.8,15.53-4.44,20.27-7.38,4.17-2.66,6.29-5,6.37-7.53C79.34,29.52,72.28,33.43,61,36.35c-2.94.77-4,2.78-4.15,3.67"/></svg>