<svg id="图层_1" data-name="图层 1" xmlns="http://www.w3.org/2000/svg" viewBox="0 0 100 100"><title>logohunt03</title><path d="M45.8,45.8s-1-9.3-7.29-15.63-15.63-7.29-15.63-7.29,1,9.3,7.29,15.63S45.8,45.8,45.8,45.8"/><path d="M44.84,44.84a12.5,12.5,0,0,0-3.16-6.77A12.51,12.51,0,0,0,34.9,34.9a12.51,12.51,0,0,0,3.17,6.78,12.5,12.5,0,0,0,6.77,3.16"/><path d="M45.8,45.8s-7.57,5.49-9.89,14.14,1.5,17.18,1.5,17.18S45,71.64,47.3,63,45.8,45.8,45.8,45.8"/><path d="M45.45,47.12a12.54,12.54,0,0,0-4.29,6.13,12.51,12.51,0,0,0,.65,7.44,12.42,12.42,0,0,0,4.29-6.12,12.53,12.53,0,0,0-.65-7.45"/><path d="M45.8,45.8S54.34,49.62,63,47.3s14.13-9.89,14.13-9.89-8.53-3.81-17.18-1.5S45.8,45.8,45.8,45.8"/><path d="M47.12,45.45a12.53,12.53,0,0,0,7.45.65,12.42,12.42,0,0,0,6.12-4.29,12.46,12.46,0,0,0-7.44-.64,12.49,12.49,0,0,0-6.13,4.28"/><path d="M45.8,45.8l1.77.66a.86.86,0,0,0-1.11,1.11Z"/><path d="M45.8,45.8,45.49,44a.86.86,0,0,0,1.51.4Z"/><path d="M45.8,45.8,44.35,47a.86.86,0,0,0-.4-1.51Z"/></svg>