<svg id="图层_1" data-name="图层 1" xmlns="http://www.w3.org/2000/svg" viewBox="0 0 100 100"><defs><style>.cls-1{fill:#231815;}</style></defs><title>logohunt01</title><path class="cls-1" d="M54,50.83a8.68,8.68,0,0,0-5.28-2.58c4.09-1.53,9-1.06,13-1.43,4.23-.4,6.65-1,9.73-3.87a11,11,0,0,0,3.25-5.58,4.7,4.7,0,0,0-.4-3.74A3.92,3.92,0,0,0,69.53,32a3.68,3.68,0,0,0-2.12,4.67,3.92,3.92,0,0,0,5,2.3,3.57,3.57,0,0,0,2.29-2.57c0-.09.08-.14.08,0a3.85,3.85,0,0,1-2,3.19c-1.51.75-5.07.63-8.83.62-2.63,0-5.33,0-6.71,0C51.84,40.2,46,41.38,42,47.73a12.57,12.57,0,0,0-1.82,9.36,7.46,7.46,0,0,0,3.37,4.68,4.92,4.92,0,0,0,6.65-1.6,4.31,4.31,0,0,0-1.55-6A4.55,4.55,0,0,0,42,56a4.93,4.93,0,0,0,.15,4.4c0,.05,0,.11-.05.05a5.37,5.37,0,0,1-1.37-4.86,6.24,6.24,0,0,1,5.16-4.93,7.56,7.56,0,0,1,7.9,3.57,8.65,8.65,0,0,1-1.59,10.52,10.4,10.4,0,0,1-9.74,2.13,9.09,9.09,0,0,1-5.06-3.67c-2.27-3.14-2.86-9.31-.6-14a5.24,5.24,0,0,1,3-2.84,8.15,8.15,0,0,1,3.18-.5v-.17h-.56a4.4,4.4,0,0,1-3.22-1.29,8.26,8.26,0,0,1-1.82-5.33c0-3.06.73-4.48,1.79-5.65A3.65,3.65,0,0,1,42,32.19a2.85,2.85,0,0,1,2.91,2.65c.28,2.36-1.22,3.69-2.9,3.26-1-.25-1.55-1.62-1.13-2.15-.75.31-1.45,1.89-1.06,3.44.85,3.33,4.28,3.58,6.41,2.59a4.87,4.87,0,0,0,2.53-6.2c-1.07-2.6-4.11-3.84-8-3.84-3.16,0-6.16.25-9.1,2a6,6,0,0,0-2.68,6.52c.83,3.94,5.73,5,8.77,5.22-1.08.14-6,.73-9.16,3.68a10.43,10.43,0,0,0-3.22,10.15c.74,3.1,3.44,6.11,8.82,7.8C38.79,68.81,47.08,68.61,50.9,66a11.64,11.64,0,0,0,5.32-9.26A8.13,8.13,0,0,0,54,50.83Z"/></svg>