<svg id="图层_1" data-name="图层 1" xmlns="http://www.w3.org/2000/svg" viewBox="0 0 100 100"><title>logohunt03</title><path d="M51.07,37.26a6.92,6.92,0,0,0-2.17-.92A5.44,5.44,0,0,0,44,37.7a6.06,6.06,0,0,0,1.36.75,5.65,5.65,0,0,0,5.74-1.19"/><path d="M55.66,34.5a6.26,6.26,0,0,0-1.46-1.93,5.47,5.47,0,0,0-4.93-1.26,5.25,5.25,0,0,0,.82,1.33,5.66,5.66,0,0,0,5.57,1.86"/><path d="M56.92,33.42a10.22,10.22,0,0,0,.54-3.88,9,9,0,0,0-4.25-7.17,7.29,7.29,0,0,0-.58,2.45,9.17,9.17,0,0,0,4.29,8.6"/><path d="M72.17,24.68v.72l.51-.41-.51-.31"/><path d="M68.16,38.45a4.51,4.51,0,0,0-.37-1.23,4.56,4.56,0,0,0-3.94-2.61,4.73,4.73,0,0,0,4.31,3.84"/><path d="M70.24,32.4v-.72a9,9,0,0,0-2.31-.85,7,7,0,0,0-6.29,1.74,4.77,4.77,0,0,0,1.73.92,7.19,7.19,0,0,0,6.87-1.09"/><path d="M34.73,34.44a7.12,7.12,0,0,0-2.62-.38,6.1,6.1,0,0,0-4.79,2.82,5,5,0,0,0,1.63.45,6.14,6.14,0,0,0,5.78-2.89"/><path d="M34.05,28.86a4.89,4.89,0,0,0,.71,1.8,4.44,4.44,0,0,0,3.57,2A3.74,3.74,0,0,0,38,31.48a4.63,4.63,0,0,0-3.94-2.62"/><path d="M40.6,28.08a7.26,7.26,0,0,0,1.5,7.38,8.64,8.64,0,0,0,1.19-2.82,7.2,7.2,0,0,0-1.73-6.29,5.4,5.4,0,0,0-1,1.73"/><path d="M41.35,42.12A6.62,6.62,0,0,0,39.92,44a5.43,5.43,0,0,0,0,5.09A4.5,4.5,0,0,0,41,48a5.63,5.63,0,0,0,.34-5.84"/><path d="M40.6,40.89a10.09,10.09,0,0,0-3.94.48,8.92,8.92,0,0,0-5.91,6,6.44,6.44,0,0,0,2.55,0,9.44,9.44,0,0,0,7.3-6.46"/><path d="M37.24,52.21a4.52,4.52,0,0,0,2.07,3.57,4.28,4.28,0,0,0,.31-1.23,4.53,4.53,0,0,0-2.11-4.24,4.62,4.62,0,0,0-.27,1.9"/><path d="M32.86,55.64a5.54,5.54,0,0,0-5.1,0,4.26,4.26,0,0,0,1.12,1.08,5.65,5.65,0,0,0,5.85.34,7.77,7.77,0,0,0-1.87-1.46"/><path d="M33.74,58.16a7.89,7.89,0,0,0-6.25,3.7,7.32,7.32,0,0,0,2.14.54,8,8,0,0,0,7.51-3.77,9.87,9.87,0,0,0-3.4-.47"/><path d="M48.45,69a25,25,0,0,1-1.25-5.82q3.66-9.52,12.47-12.53c-4.59.68-8.73,3-12.47,7Q50.26,45.2,63.85,27.33c-9.62,10-15,16.66-16.28,20C44.89,39.09,40.33,34.13,34,32.47c7.3,5.43,11.08,11.69,11.25,18.79a27.24,27.24,0,0,0-3.84,9.92c-1.53-3.91-4.08-6.15-7.62-6.73q4.48,1.48,7.14,10.6c.37,1.16.82,2.28,1.26,3.33,1.39,3.37.37,6.43-3.09,9.25h14.2a37.86,37.86,0,0,1-2.62-3.84L48.83,70c-.07-.21-.14-.41-.21-.58s0-.14-.06-.24Z"/><path d="M56.41,42.18a5.73,5.73,0,0,0,5.84.38,5.74,5.74,0,0,0-7-1.43,6.21,6.21,0,0,0,1.13,1"/><path d="M54,54.32a7.36,7.36,0,0,0,1.26,2.07,8.77,8.77,0,0,0,8.63,2.85,9.72,9.72,0,0,0-2.25-3,8.47,8.47,0,0,0-7.64-2"/><path d="M53.31,51.36A4.76,4.76,0,0,0,54.54,51a4.58,4.58,0,0,0,2.61-4,5.18,5.18,0,0,0-1.8.75,4.38,4.38,0,0,0-2,3.57"/><path d="M52.8,58.53a5.48,5.48,0,0,0,2.55,4.38,4.55,4.55,0,0,0,.38-1.49,5.69,5.69,0,0,0-2.65-5.24,6.35,6.35,0,0,0-.28,2.35"/></svg>