<svg id="图层_1" data-name="图层 1" xmlns="http://www.w3.org/2000/svg" viewBox="0 0 100 100"><title>logohunt03</title><path d="M50,22.88a21,21,0,0,0-15.46,6.4,21.11,21.11,0,0,0-6.44,15.5,21.11,21.11,0,0,0,6.44,15.5A21.06,21.06,0,0,0,50,66.72,21.92,21.92,0,0,0,71.9,44.78,21.85,21.85,0,0,0,50,22.88M43.6,39.72q4.18.8,6.36,5.84a84,84,0,0,1,8.46-10.4c-5.24,7.46-8.17,14.54-8.84,21.16q5.84-6.21,13-7.29c-6.12,2.09-10.44,6.44-13,13a30.39,30.39,0,0,0,.49,3.23,20.1,20.1,0,0,1-7-1.28q-2.76-9.49-7.43-11c3.68.6,6.3,2.94,7.89,7a37.75,37.75,0,0,1,5.17-12.35c-.81-4.28-2.51-6.9-5.09-7.93"/><path d="M43.1,67.18a1,1,0,0,0,.18.28q3.28,5.27-2.13,9.66H56A30.4,30.4,0,0,1,51.1,68.6c-.07-.18-.14-.32-.18-.46a20.58,20.58,0,0,1-6.79-.68c-.36-.1-.71-.17-1-.28"/></svg>