<svg id="图层_1" data-name="图层 1" xmlns="http://www.w3.org/2000/svg" viewBox="0 0 100 100"><defs><style>.cls-1{fill:#231815;}</style></defs><title>logohunt01</title><path class="cls-1" d="M46.44,55.42V40.79a6.17,6.17,0,0,0-6.16-5.86h-.12a6.17,6.17,0,0,0-6.1,5.81V60H25.91V44.79c.09-9.51,4.9-14.83,14-15h.65c9.16.15,14,5.46,14.07,15V55.53c0,5.49,2.13,10.62,8.53,10.62a7.13,7.13,0,0,0,5.41-2.41,3.51,3.51,0,0,1-3.6-4c.18-2.66,2.44-3.8,4.76-3.66a4.76,4.76,0,0,1,4.39,5.06c-.06,5.79-6.36,9-12.8,9A15,15,0,0,1,46.44,55.42"/></svg>