<svg id="图层_1" data-name="图层 1" xmlns="http://www.w3.org/2000/svg" viewBox="0 0 100 100"><defs><style>.cls-1{fill:#fff;}.cls-2{fill:#231815;}.cls-3{fill:#7c0378;}</style></defs><title>logohunt01</title><path class="cls-1" d="M52.37,29.79a.61.61,0,0,0-.61-.62V30.4a.61.61,0,0,0,.61-.61"/><polyline class="cls-1" points="52.06 26.83 51.76 26.83 51.76 26.84 52.06 26.84 52.06 26.83"/><path class="cls-1" d="M51.91,28.72a.71.71,0,0,1,.15.05v-1h.44v-.32h-.44v-.65h-.3V28.7l.15,0"/><path class="cls-1" d="M51.71,43.73h0c-3.63,0-7.82.43-8.44,1.4a.44.44,0,0,0,0,.58.19.19,0,0,0,.17.06c.62-.77,3.73-1.3,8.24-1.3h0V47A28.2,28.2,0,0,1,60,48v-2.2a.17.17,0,0,0,.11,0,.43.43,0,0,0,0-.61.8.8,0,0,0-.26-.26c-1.16-.77-4.85-1.13-8.12-1.13h0m5.5,1.52a14.4,14.4,0,0,1,1.45.3v1.6a10.28,10.28,0,0,0-1.45-.29Zm-3.88-.32c.51,0,1,0,1.45.06v1.63c-.46,0-.94,0-1.45-.06Z"/><path class="cls-1" d="M54.07,43.31c-.13-2.93-.83-5.7-1.75-6.56l.17.07c1.16.85,2,3.61,2.19,6.52,1,.07,1.88.16,2.69.29-.3-2.94-1.85-5.6-3.88-6.64l.2.06c2.2,1,3.84,3.73,4.17,6.67a6.43,6.43,0,0,1,1.89.58c-.75-4-4.06-7.71-8-7.71v6.66h0c.77,0,1.56,0,2.34.06"/><path class="cls-1" d="M49.9,37l-.2.06a8.3,8.3,0,0,0-4.16,6.67l.49-.09C46.27,40.74,47.84,38,49.9,37"/><path class="cls-1" d="M51.07,36.75l-.17.07c-1.18.86-2.06,3.66-2.2,6.53l.62,0c.11-2.87.82-5.69,1.75-6.56"/><path class="cls-2" d="M52.49,36.82l-.17-.07c.92.86,1.62,3.63,1.75,6.56l.62,0c-.17-2.91-1-5.67-2.2-6.52"/><path class="cls-2" d="M53.69,37.05l-.2-.06c2,1,3.58,3.7,3.88,6.64l.49.09c-.33-2.94-2-5.63-4.17-6.67"/><path class="cls-1" d="M50.06,46.56V44.93c-.51,0-1,0-1.45.06v1.63c.46,0,.94,0,1.45-.06"/><path class="cls-1" d="M51.77,32.28a2,2,0,0,1,1.46.38c-.06-.93-.69-1.77-1.46-1.77v1.39"/><polyline class="cls-1" points="51.27 33.61 50.68 33.73 50.68 35.42 51.27 35.31 51.27 33.61"/><path class="cls-1" d="M46.18,46.86V45.25a14.13,14.13,0,0,0-1.44.3v1.6a10.58,10.58,0,0,1,1.45-.29"/><path class="cls-2" d="M54.78,45c-.46,0-.94-.05-1.45-.06v1.63c.51,0,1,0,1.45.06V45"/><path class="cls-2" d="M58.66,45.55a14.4,14.4,0,0,0-1.45-.3v1.61a10.28,10.28,0,0,1,1.45.29v-1.6"/><path class="cls-2" d="M43.25,45.13c.62-1,4.81-1.4,8.44-1.4h0v-.48h0c-.78,0-1.58,0-2.37.06h0l-.62,0h0c-1,.06-1.87.15-2.67.28h0l-.49.09h0a3.82,3.82,0,0,0-2.29.93.43.43,0,0,0,0,.52.05.05,0,0,1,0,0"/><path class="cls-3" d="M46,43.64h0l-.49.09h0l.49-.09"/><path class="cls-3" d="M49.32,43.31h0l-.62,0h0l.62,0"/><path class="cls-3" d="M59.85,44.86a1.11,1.11,0,0,1,.29.28s0,0,0,0a.43.43,0,0,0,0-.52,1.09,1.09,0,0,0-.42-.35,5,5,0,0,1,.09.56h0"/><polyline class="cls-3" points="51.71 43.63 51.71 43.73 51.71 43.73 51.71 43.73 51.71 43.25 51.71 43.25 51.71 43.63"/><path class="cls-2" d="M51.73,43.73c3.27,0,7,.36,8.12,1.13h0a5,5,0,0,0-.09-.56,6.43,6.43,0,0,0-1.89-.58s0,.08,0,.12l-.48-.08s0-.09,0-.13c-.8-.13-1.73-.22-2.68-.29v.12l-.62,0v-.12c-.78,0-1.57-.06-2.34-.06h0v.48h0"/><path class="cls-2" d="M54.07,43.43l.62,0a.49.49,0,0,0,0-.12l-.61,0v.12"/><path class="cls-2" d="M57.39,43.76l.48.08s0-.08,0-.12l-.49-.09s0,.09,0,.13"/><path class="cls-1" d="M51.77,32.76V36.1a6.29,6.29,0,0,1,1.5.19v-3c0-.22-.66-.49-1.5-.49m1,2.66-.59-.11v-1.7l.59.12Z"/><polyline class="cls-2" points="52.16 35.31 52.75 35.42 52.75 33.73 52.16 33.61 52.16 35.31"/><path class="cls-1" d="M49.35,49.17c-.39,0-.72.1-.72.22V52.8h1.45V49.37c0-.12-.34-.2-.73-.2"/><path class="cls-1" d="M46.06,49.62c-.39,0-.72.1-.72.22v2.72a13.18,13.18,0,0,0,1.45.15v-2.9c0-.12-.34-.19-.73-.19"/><path class="cls-1" d="M51.7,47.5h0c-1,0-9.8.06-9.8,2.13a.36.36,0,0,0,.29.37v-.1c.06-.31,2.71-1.53,9.52-1.53s9.45,1.22,9.51,1.53V50a.36.36,0,0,0,.28-.37c0-2.07-8.78-2.13-9.79-2.13"/><path class="cls-2" d="M66.94,30.69q-4.34-3.86-11.75-3.85H52.06v.65h.44v.32h-.44v1a.71.71,0,0,0-.15-.05l-.15,0V26.84H29.06v2.34l4.18,0a4.18,4.18,0,0,1,4.18,4.18V66.66a4.18,4.18,0,0,1-4.18,4.18H29.06v2.32H60.87V70.85h-5a4.16,4.16,0,0,1-4.16-4.18V49.34c0-.12.33-.19.72-.19s.73.1.73.22V52.8H55V49.53c0-.12.33-.19.72-.19s.73.1.73.22v3.16c.62,0,1.22-.11,1.8-.19V50.09c0-.12.33-.15.73-.15s.72.16.72.28v2.07a15.33,15.33,0,0,0,7.43-3.54,11.67,11.67,0,0,0,3.83-9,11.63,11.63,0,0,0-4-9.06m-13.71,2a2,2,0,0,0-1.46-.38V30.89C52.54,30.89,53.17,31.73,53.23,32.66Zm0,.59v3a6.29,6.29,0,0,0-1.5-.19V32.76C52.61,32.76,53.27,33,53.27,33.25Zm-1.51-4.08a.61.61,0,0,1,.61.62.61.61,0,0,1-.61.61Zm-1.08,4.56.59-.12v1.7l-.59.11ZM43.25,44.65a3.82,3.82,0,0,1,2.29-.93,8.3,8.3,0,0,1,4.16-6.67l.2-.06c-2.07,1-3.63,3.75-3.87,6.64.8-.12,1.71-.22,2.67-.28.14-2.87,1-5.66,2.2-6.53l.17-.07c-.93.87-1.64,3.69-1.75,6.56.79,0,1.59-.06,2.37-.06h0V36.59c4,0,7.29,3.73,8,7.71a1.09,1.09,0,0,1,.42.35.43.43,0,0,1,0,.52s0,0-.06,0a.93.93,0,0,0-.28-.28.92.92,0,0,1,.26.26.43.43,0,0,1,0,.61.17.17,0,0,1-.11,0V48A28.2,28.2,0,0,0,51.71,47V44.47h0c-4.51,0-7.62.53-8.24,1.3a.19.19,0,0,1-.17-.06.44.44,0,0,1,0-.58c.62-1,4.81-1.4,8.44-1.4h0c-3.63,0-7.82.43-8.44,1.4a.05.05,0,0,0,0,0A.43.43,0,0,1,43.25,44.65Zm6.81.28v1.63c-.51,0-1,0-1.45.06V45C49.07,45,49.55,44.94,50.06,44.93Zm-3.88.32v1.61a10.58,10.58,0,0,0-1.45.29v-1.6A14.13,14.13,0,0,1,46.18,45.25Zm.61,7.46a13.18,13.18,0,0,1-1.45-.15V49.84c0-.12.33-.22.72-.22s.73.07.73.19Zm3.29.09H48.63V49.39c0-.12.33-.22.72-.22s.73.08.73.2ZM61.21,50v-.1c-.06-.31-2.71-1.53-9.51-1.53s-9.46,1.22-9.52,1.53V50a.36.36,0,0,1-.29-.37c0-2.07,8.79-2.13,9.8-2.13h0c1,0,9.79.06,9.79,2.13A.36.36,0,0,1,61.21,50Z"/></svg>