<svg id="图层_1" data-name="图层 1" xmlns="http://www.w3.org/2000/svg" viewBox="0 0 100 100"><title>logohunt01</title><path d="M59.88,64.71a14.87,14.87,0,0,1-4.29,5.65,8.89,8.89,0,0,1-10.91,0A15.33,15.33,0,0,1,41,65.94c-.19-.32-.2-.91-.68-.87s-.54.56-.7.9a11.19,11.19,0,0,1-6,5.72c-4.39,1.84-9-.91-11.15-4C18.07,61.28,18.32,54.39,20,47.36a26.62,26.62,0,0,1,8-13.89c5.81-5.21,13.5-6.87,20.9-2.59a1.86,1.86,0,0,0,2.16,0c7.64-4.39,15.15-2.7,21,2.55A27.39,27.39,0,0,1,80.5,48.65c1,5,1.35,10-.51,14.88-1.3,3.44-3.27,6.41-6.8,8a8.84,8.84,0,0,1-9.76-1.81A19.06,19.06,0,0,1,59.88,64.71ZM40.39,32a23.39,23.39,0,0,0-2.38.25c-6,1.23-9.76,5.19-12.41,10.35a28.51,28.51,0,0,0-3.05,12.94,15.86,15.86,0,0,0,2.77,9.84c3.1,4.26,7.16,4.29,10.3.09a16.08,16.08,0,0,0,2.91-9.81c.1-8,2.53-15.13,8-21.11.55-.6.4-.82-.21-1.11A14.05,14.05,0,0,0,40.39,32ZM77.63,55.47a18.56,18.56,0,0,0-.27-3.93c-1-6-3.14-11.47-7.88-15.58S59.73,30.9,54,33.42c-.55.24-1.07.41-.37,1.15,4.64,4.92,6.94,10.89,7.83,17.51.31,2.3.06,4.63.49,6.92a13.42,13.42,0,0,0,3.73,7.73c2.85,2.67,5.64,2.58,8.32-.3S77.7,59.89,77.63,55.47ZM42.14,56.59a14.75,14.75,0,0,0,3.62,9.82c2.52,2.77,5.37,3,8.14.53C57,64.18,58,60.5,58.08,56.57a28.15,28.15,0,0,0-6.42-19c-1.31-1.56-1.71-1.57-3,0-.37.43-.75.84-1.07,1.29C43.9,43.92,42.18,49.59,42.14,56.59Z"/></svg>