<svg id="图层_1" data-name="图层 1" xmlns="http://www.w3.org/2000/svg" viewBox="0 0 100 100"><defs><style>.cls-1{fill:#231815;}</style></defs><title>logohunt01</title><path class="cls-1" d="M60,58.72a.86.86,0,0,1-1,1H56.14a1,1,0,0,1,0-1.95h1.93V42.25H55.51l-4,11.61a1,1,0,0,1-.93.65h-.41a1,1,0,0,1-.93-.65l-1.1-3.18A1,1,0,1,1,50,50.05l.34,1h.1l3.39-10a1,1,0,0,1,.93-.66h4.25a.86.86,0,0,1,1,1V58.72m-12.22.34L43,45.6a1,1,0,0,1,1.85-.68l4.84,13.45A1,1,0,0,1,47.81,59.06Zm-5.88-.34a1,1,0,0,1-2,0V41.28a.86.86,0,0,1,1-1h3a1,1,0,0,1,0,2h-2ZM50,26.31A23.69,23.69,0,1,0,73.69,50,23.69,23.69,0,0,0,50,26.31Z"/></svg>