<svg id="图层_1" data-name="图层 1" xmlns="http://www.w3.org/2000/svg" viewBox="0 0 100 100"><title>logohunt01</title><path d="M59.42,49.25c0-4.28,0-8.06,0-11.85,0-2.57-.27-5.16,1.13-7.59a8.65,8.65,0,0,1,9.1-4.08c3.8.85,6.73,4.11,6.75,7.73,0,12.2.09,24.4,0,36.6a7.79,7.79,0,0,1-5.3,7.46A7.89,7.89,0,0,1,62,75.68C56,69.5,49.83,63.51,43.75,57.41c-.92-.93-1.69-2-2.59-3.09a2.29,2.29,0,0,0-.51,1.81c0,4.72.08,9.44-.15,14.15A8.28,8.28,0,0,1,32.16,78a8.4,8.4,0,0,1-8.41-7.61,15.74,15.74,0,0,1-.08-1.68q0-16.9,0-33.83c0-4.58,1.69-7.29,5.46-8.79,3.4-1.35,6.85-.34,9.85,2.7,4.64,4.73,9.37,9.37,14.06,14.06C55.06,44.83,57.07,46.88,59.42,49.25Zm14.37-1.08c0-4.68,0-9.35,0-14a6,6,0,0,0-5.78-6,5.91,5.91,0,0,0-5.94,5.94c0,5.67,0,11.34,0,17a1.76,1.76,0,0,0,.57,1.36C66,55.83,69.41,59.22,72.8,62.6c.23.24.47.67.85.46.16-.09.14-.57.14-.87C73.8,57.51,73.79,52.84,73.79,48.17ZM38,61c0-2.76,0-5.52,0-8.28a1.87,1.87,0,0,0-.56-1.48c-3.41-3.37-6.77-6.76-10.16-10.15-.24-.23-.4-.73-.8-.57s-.21.64-.21,1c0,9.2,0,18.4,0,27.59,0,3.67,2.49,6.26,5.86,6.25S38,72.68,38,69C38,66.36,38,63.68,38,61Zm2.87-27.08c-.17.86-.23,1-.24,1.23,0,4.91,0,9.83,0,14.74a2.19,2.19,0,0,0,.86,1.62l17,16.81c.25.24.43.7.83.56s.25-.62.24-.95c-.05-4.79-.12-9.58-.17-14.37a1.43,1.43,0,0,0-.48-1.13c-4-4-8-8-12-12C45,38.42,43.11,36.31,40.89,33.92ZM38,40.32c0-2.12.05-4.24,0-6.36a6.14,6.14,0,0,0-4.6-5.77,6,6,0,0,0-6.22,2.66,5.71,5.71,0,0,0,.64,6.9c3.09,3.17,6.25,6.27,9.4,9.39.16.16.41.4.56.37.36-.08.23-.46.23-.72Q38,43.57,38,40.32ZM62.16,55.46c0,5.47-.22,10.42.09,15.33.16,2.49,2.17,4.06,4.66,4.56a5.55,5.55,0,0,0,5.69-2.27,5.38,5.38,0,0,0,.3-6.39c-1-1.66-2.55-2.72-3.83-4.08C66.9,60.29,64.66,58,62.16,55.46Z"/></svg>