<svg id="图层_1" data-name="图层 1" xmlns="http://www.w3.org/2000/svg" viewBox="0 0 100 100"><defs><style>.cls-1{fill:#231815;}</style></defs><title>logohunt01</title><path class="cls-1" d="M48.59,55.55H52l-1.74-5.67-1.7,5.67M71.34,39.39c-3.59-4.52-12.08-3.75-19,1.72a24.15,24.15,0,0,0-1.84,1.64,24.32,24.32,0,0,0-.49-2.43c-2.2-8.49-8.51-14.21-14.1-12.77s-8.33,9.51-6.13,18a23.15,23.15,0,0,0,1.6,4.38,9.37,9.37,0,1,0,12,14.21A9.37,9.37,0,1,0,61.49,60a23.62,23.62,0,0,0,3.91-2.53C72.27,52,74.93,43.9,71.34,39.39ZM53.33,60l-.72-2.39H47.92L47.21,60H44.78l4.13-12.36h2.71L55.76,60Z"/></svg>