<svg id="图层_1" data-name="图层 1" xmlns="http://www.w3.org/2000/svg" viewBox="0 0 100 100"><defs><style>.cls-1{fill:#231815;}</style></defs><title>logohunt02</title><path class="cls-1" d="M64.33,61.8s1.64-1.37,2-1.57.73-.53,1-.68a2.83,2.83,0,0,1,1-.34,11.33,11.33,0,0,1,1.85.52,7.06,7.06,0,0,0,2.3.56,12.45,12.45,0,0,0,3.83-.3,7.83,7.83,0,0,0,1.79-.86,3.14,3.14,0,0,0,.6-.62c.12-.22.18-.37.11-.46a.74.74,0,0,0-.27-.12.32.32,0,0,0-.24.09,2.63,2.63,0,0,1-1.14.62,10.52,10.52,0,0,1-4.17.53,11.26,11.26,0,0,1-2.26-.77c-.37-.13-.9-.65-.62-1.19a13.72,13.72,0,0,1,2.17-2.5c.65-.54,1.65-1.67,1.93-1.85s2.15-1.62,2.72-1.93,2.36-1.1,2.85-1.4a25.36,25.36,0,0,0,2.73-2.27,9.29,9.29,0,0,0,1.36-1.64c.13-.35.3-.57,0-.71s-.35-.1-.77.43a33.34,33.34,0,0,1-2.45,2.28c-.39.31-2.06.94-2.94,1.4a2.05,2.05,0,0,1-1.62.24,1.84,1.84,0,0,1-.38-1.39,38.16,38.16,0,0,1,.22-4.06,5.72,5.72,0,0,1,1-2.07c.34-.31,1.29-1,1.66-1.4a9.48,9.48,0,0,0,1.36-2.12,4,4,0,0,0,.06-1.92c-.11-.26-.06-.63-.45-.54s-.24.25-.22.59a2.44,2.44,0,0,1-.71,2.47,7.43,7.43,0,0,1-1.85,1.66c-.17.11-.48.12-.49,0a14.49,14.49,0,0,0-.6-2.8c-.25-.64-1.07-2.47-1.36-3a4.88,4.88,0,0,0-.77-1.21.61.61,0,0,0-.72-.15.55.55,0,0,0-.16.3.36.36,0,0,0,0,.26c.15.26.91,1.75,1.1,2.15a8.6,8.6,0,0,1,.65,2,7.43,7.43,0,0,1,.38,2.06,12.77,12.77,0,0,1-.44,2.9,22,22,0,0,0-.61,3.75,9.22,9.22,0,0,1-.86,4c-.59.9-3.5,3.95-3.71,4.2s-1.39,1.09-1.8,1.46S64,58.73,63.63,59.11s-2.34,2-2.62,2.39A7.6,7.6,0,0,1,59.07,63c-.43.16-.94.35-1.14.39a1.09,1.09,0,0,0-.76.46c-.17.24-.13.54.14,1.3s1,1.57,1.63,1.3a7.42,7.42,0,0,0,1.15-.85c.26-.26,1.15-.93,1.4-.9a2.22,2.22,0,0,1,1.08.53,11.79,11.79,0,0,0,1.91,1.3,7.38,7.38,0,0,0,1.9.22,3.58,3.58,0,0,0,1.45-.52c.27-.24.4-.35.33-.46s-.16-.35-.51-.1a2.2,2.2,0,0,1-1.29.21,2.48,2.48,0,0,1-2-.6,8.37,8.37,0,0,1-.9-1.12,1,1,0,0,1-.2-.94,5.46,5.46,0,0,1,1-1.41"/><path class="cls-1" d="M35.67,61.8s-1.64-1.37-2-1.57-.73-.53-1-.68a2.83,2.83,0,0,0-1-.34,11.33,11.33,0,0,0-1.85.52,7.06,7.06,0,0,1-2.3.56,12.4,12.4,0,0,1-3.83-.3A7.83,7.83,0,0,1,22,59.13a3.14,3.14,0,0,1-.6-.62c-.12-.22-.18-.37-.11-.46a.74.74,0,0,1,.27-.12.32.32,0,0,1,.24.09,2.63,2.63,0,0,0,1.14.62,10.52,10.52,0,0,0,4.17.53,11.26,11.26,0,0,0,2.26-.77c.37-.13.9-.65.62-1.19a13.72,13.72,0,0,0-2.17-2.5c-.65-.54-1.65-1.67-1.93-1.85s-2.15-1.62-2.72-1.93-2.36-1.1-2.85-1.4a25.36,25.36,0,0,1-2.73-2.27,9.29,9.29,0,0,1-1.36-1.64c-.13-.35-.3-.57,0-.71s.35-.1.77.43a33.34,33.34,0,0,0,2.45,2.28c.39.31,2.06.94,2.94,1.4a2,2,0,0,0,1.61.24,1.8,1.8,0,0,0,.39-1.39,38.16,38.16,0,0,0-.22-4.06,5.89,5.89,0,0,0-1-2.07c-.34-.31-1.29-1-1.66-1.4a9.48,9.48,0,0,1-1.36-2.12,4,4,0,0,1-.06-1.92c.11-.26.06-.63.45-.54s.24.25.22.59a2.44,2.44,0,0,0,.71,2.47,7.43,7.43,0,0,0,1.85,1.66c.17.11.48.12.49,0a14.49,14.49,0,0,1,.6-2.8c.25-.64,1.07-2.47,1.36-3a4.88,4.88,0,0,1,.77-1.21.61.61,0,0,1,.72-.15.55.55,0,0,1,.16.3.36.36,0,0,1-.05.26c-.15.26-.91,1.75-1.1,2.15a9.16,9.16,0,0,0-.66,2,7.73,7.73,0,0,0-.37,2.06,12.77,12.77,0,0,0,.44,2.9,22,22,0,0,1,.61,3.75,9.22,9.22,0,0,0,.86,4c.59.9,3.5,3.95,3.71,4.2s1.39,1.09,1.8,1.46,3.37,2.36,3.72,2.74,2.34,2,2.62,2.39A7.6,7.6,0,0,0,40.93,63c.43.16.94.35,1.14.39a1.09,1.09,0,0,1,.76.46c.17.24.13.54-.14,1.3s-1,1.57-1.63,1.3a7.42,7.42,0,0,1-1.15-.85c-.26-.26-1.15-.93-1.4-.9a2.22,2.22,0,0,0-1.08.53,11.79,11.79,0,0,1-1.91,1.3,7.38,7.38,0,0,1-1.9.22,3.58,3.58,0,0,1-1.45-.52c-.27-.24-.4-.35-.33-.46s.16-.35.51-.1a2.2,2.2,0,0,0,1.29.21,2.49,2.49,0,0,0,2-.6,8.37,8.37,0,0,0,.9-1.12,1,1,0,0,0,.2-.94,5.46,5.46,0,0,0-1-1.41"/></svg>