<svg id="图层_1" data-name="图层 1" xmlns="http://www.w3.org/2000/svg" viewBox="0 0 100 100"><title>logohunt03</title><path d="M46.19,26.86V46.44c0,6.39-2.32,11.86-5.61,14.12v6.35c3.87-1.7,6.73-7.65,6.73-14.74V26.86Z"/><path d="M48.34,22.88V52.07c0,7.83-2.33,14.52-5.63,17.28v7.77c3.88-2.07,6.75-9.35,6.75-18V22.88Z"/><path d="M53.81,26.86V46.44c0,6.39,2.32,11.86,5.61,14.12v6.35c-3.87-1.7-6.73-7.65-6.73-14.74V26.86Z"/><path d="M51.66,22.88V52.07c0,7.83,2.33,14.52,5.63,17.28v7.77c-3.88-2.07-6.75-9.35-6.75-18V22.88Z"/></svg>