<svg id="图层_1" data-name="图层 1" xmlns="http://www.w3.org/2000/svg" viewBox="0 0 100 100"><defs><style>.cls-1{fill:#231815;}</style></defs><title>logohunt02</title><path class="cls-1" d="M74.43,55.23a51.15,51.15,0,0,0-3.22-13,31.91,31.91,0,0,0-7.47-10.33l2.32-2.72-1.83-1.55-2.39,2.82a37.48,37.48,0,0,0-9.75-4.64c-6.19-1.55-14.54-.37-14.54-.37.72.7,2.8,2.46,5.34,4.58.83-.33,10.41-3.94,20,1.14,6,6.28,5.71,17.26,5.59,19.47l5.93,4.61"/><path class="cls-1" d="M50.4,36.2l3.87,3.16L48.65,46H42.31L33.19,58h-.08V46H25.57V75h7.54V62.42h.08L42.92,75H52.7L40.11,59.72l1-1.22,15-17.63c.11.1,2.57,2.07,4.54,3.62a28.53,28.53,0,0,0,2.25-13.34A19.73,19.73,0,0,0,50.4,36.2"/></svg>