<svg id="图层_1" data-name="图层 1" xmlns="http://www.w3.org/2000/svg" viewBox="0 0 100 100"><title>logohunt03</title><path d="M53.4,32.84a6,6,0,1,1-6-6,6.05,6.05,0,0,1,6,6"/><path d="M53.4,60.33a6,6,0,1,1-6-6,6.05,6.05,0,0,1,6,6"/><path d="M48.78,77.12a101.39,101.39,0,0,1-10-8.05c-3.1-2.93-6.15-6-8.15-10-.93-1.91-1.6-4.31-.64-6.49s3.09-3.35,5.08-4.12c4.12-1.48,8.46-1.76,12.72-1.91A101.32,101.32,0,0,0,60.53,46a25.51,25.51,0,0,0,6.09-1.44c1.88-.72,3.74-2.18,3.4-4.18s-1.73-3.65-3.15-5.14a41,41,0,0,0-4.79-4.11,97.18,97.18,0,0,0-10.71-6.84s2.61,2.14,6.8,6a56,56,0,0,1,6.72,7.1,12.6,12.6,0,0,1,1.29,2.09c.33.65.45,1.31.33,1.38s.14,0,.25,0l.3,0c.14,0,.17,0,.11,0a2.79,2.79,0,0,1-.47-.27c-.36-.27-.31-.25-.36-.23a11.6,11.6,0,0,1-1.69.57c-3.52.85-8.69.91-13.89.84a63.69,63.69,0,0,0-9,.38A28.77,28.77,0,0,0,31.6,45a12.17,12.17,0,0,0-5.27,5.18A10.28,10.28,0,0,0,25.91,58c1.52,4.21,4,6.64,6.44,9A60.11,60.11,0,0,0,48.78,77.12"/><path d="M52.15,22.88a98.8,98.8,0,0,1,10.89,7,42.81,42.81,0,0,1,5,4.28c1.49,1.62,3.13,3.35,3.59,6.06a4.68,4.68,0,0,1-1.29,3.89,8.8,8.8,0,0,1-3.09,2,27.26,27.26,0,0,1-6.49,1.56,105.91,105.91,0,0,1-12.88.61c-4.17.13-8.43.45-12.19,1.81-1.83.68-3.54,1.75-4.18,3.25s-.24,3.4.62,5.15C33.9,62,36.87,65,39.9,67.89a101.06,101.06,0,0,0,9.81,7.92,130.26,130.26,0,0,1-11.8-13.72c-1.61-2.27-3-4.8-3.21-6.44-.1-.83.11-1,.18-.92a10.05,10.05,0,0,1,1.27-.7c8-3.15,20.56-.19,31.61-4.5a13.41,13.41,0,0,0,4.54-2.89,8.48,8.48,0,0,0,2-3.06,7.6,7.6,0,0,0,.33-3.67,10.16,10.16,0,0,0-2.12-4.67,19.22,19.22,0,0,0-2.58-2.7,45.34,45.34,0,0,0-9.23-6,70.32,70.32,0,0,0-8.5-3.67"/></svg>