<svg id="图层_1" data-name="图层 1" xmlns="http://www.w3.org/2000/svg" viewBox="0 0 100 100"><title>logohunt03</title><path d="M32.7,49.43a17.17,17.17,0,0,1,2.21-7.92l-.25-7.26L28,34.48a26.79,26.79,0,0,0-4.91,14.73l5.21-4.68Z"/><path d="M59.14,35.31a17.51,17.51,0,0,1,5.74,5.87l6.41,3.42,3.14-5.89A27,27,0,0,0,64.12,27.09L65.57,34Z"/><path d="M47.56,32.87A17.59,17.59,0,0,1,50,32.69a17.34,17.34,0,0,1,5.74,1l7.11-1.5-1.39-6.53A26.77,26.77,0,0,0,50,23.08a26.32,26.32,0,0,0-3.9.29l5.52,4.32Z"/><path d="M33,53.19l-4.85-5.4-5,4.45a26.76,26.76,0,0,0,5.71,14.45l1-6.94,6.51.92A17.21,17.21,0,0,1,33,53.19"/><path d="M37.11,38.44A17.42,17.42,0,0,1,43.9,33.8l4.47-5.72L43.11,24a26.89,26.89,0,0,0-13.22,8.14l7-.24Z"/><path d="M66,56.46a17.33,17.33,0,0,1-4.78,6.67L59,70l6.34,2.07A27.12,27.12,0,0,0,75,59.94L68.5,62.56Z"/><path d="M75.54,41.53l-3.3,6.19-5.8-3.09A17.31,17.31,0,0,1,67.3,50a17.5,17.5,0,0,1-.24,2.82l2.72,6.74L76,57.06a26.92,26.92,0,0,0-.43-15.53"/><path d="M46.41,66.93A17.28,17.28,0,0,1,39,63.38l-7.19-1L30.89,69a26.9,26.9,0,0,0,13.66,7.41l-3.71-6Z"/><path d="M58.13,65.27a17.14,17.14,0,0,1-7.94,2L44,71.15l3.52,5.65c.81.08,1.62.12,2.45.12a26.73,26.73,0,0,0,12.78-3.23L56.1,71.52Z"/></svg>