<svg id="图层_1" data-name="图层 1" xmlns="http://www.w3.org/2000/svg" viewBox="0 0 100 100"><title>logohunt03</title><path d="M34.43,43a2.14,2.14,0,0,1-4.14-1.11l1.88-7a2.62,2.62,0,0,1,1.17-1.67,2.73,2.73,0,0,1,2-.18l7,1.87a2.14,2.14,0,0,1-1.11,4.14l-1.47-.4,3,5.16a1.39,1.39,0,0,0,2.41,0l4.95-8.56L30.18,23.77a2.32,2.32,0,0,0-3.48,2v23h9.9a1.39,1.39,0,0,0,1.2-2.09l-3-5.16L34.43,43"/><path d="M53.35,46.06a2.14,2.14,0,1,1,3-3l5.12,5.11A2.62,2.62,0,0,1,62.34,50a2.73,2.73,0,0,1-.85,1.85L56.37,57a2.14,2.14,0,1,1-3-3l1.07-1.08h-6A1.39,1.39,0,0,0,47.26,55l5,8.57L72.14,52a2.33,2.33,0,0,0,0-4L52.2,36.48l-4.94,8.57a1.39,1.39,0,0,0,1.2,2.09h6l-1.07-1.08"/><path d="M41.25,60.92a2.14,2.14,0,0,1,1.11,4.14l-7,1.87a2.61,2.61,0,0,1-2-.19,2.72,2.72,0,0,1-1.17-1.66l-1.87-7A2.14,2.14,0,0,1,34.43,57l.39,1.47,3-5.15a1.39,1.39,0,0,0-1.21-2.09H26.7v23a2.32,2.32,0,0,0,3.48,2L50.12,64.72l-4.95-8.56a1.39,1.39,0,0,0-2.41,0l-3,5.16,1.47-.4"/></svg>