<svg id="图层_1" data-name="图层 1" xmlns="http://www.w3.org/2000/svg" viewBox="0 0 100 100"><defs><style>.cls-1{fill:#231815;}</style></defs><title>logohunt01</title><path class="cls-1" d="M48.6,34.46c-1-.9-2.73-1.7-5.73-1.69s-4.83.8-5.82,1.69a3.22,3.22,0,0,0-1.14,2.47v30.3h1.55V37.44a1.63,1.63,0,0,1,.87-1.5.39.39,0,0,1,.11-.06V66.53h.26l.09,0V35.72a7.49,7.49,0,0,1,1.33-.35V66.31l.18,0,.18,0v-31c.4-.06.85-.1,1.32-.13v31h.36v-31h1.32v31h.36v-31a12.83,12.83,0,0,1,1.32.13v31l.18,0,.18,0V35.37a10.67,10.67,0,0,1,1.33.35V66.53h.35V35.86l.2.08a1.24,1.24,0,0,1,.78,1.16V67.23h1.55V36.68a3.32,3.32,0,0,0-1.12-2.22"/><path class="cls-1" d="M50.27,36.68V67.23h1.55V37.1a1.24,1.24,0,0,1,.78-1.16l.2-.08V66.53h.35V35.72a10.67,10.67,0,0,1,1.33-.35V66.32l.18,0,.17,0v-31a13.32,13.32,0,0,1,1.33-.13v31h.36v-31h1.32v31h.36v-31c.47,0,.91.07,1.32.13v31l.18,0,.18,0V35.37a7.49,7.49,0,0,1,1.33.35V66.51l.09,0h.26V35.88l.11.06a1.63,1.63,0,0,1,.87,1.5V67.23h1.55V36.93A3.22,3.22,0,0,0,63,34.46c-1-.89-2.82-1.7-5.82-1.69s-4.74.79-5.73,1.69a3.35,3.35,0,0,0-1.13,2.22"/></svg>