<svg id="图层_1" data-name="图层 1" xmlns="http://www.w3.org/2000/svg" viewBox="0 0 100 100"><defs><style>.cls-1{fill:#231815;}</style></defs><title>logohunt01</title><path class="cls-1" d="M26.61,23.24H66.86a1,1,0,0,1,.6.21l6.47,5.32a.62.62,0,0,1,0,1l-6.47,5.32a.94.94,0,0,1-.6.2H26.61a.86.86,0,0,1-.78-.43V23.67a.87.87,0,0,1,.79-.43"/><path class="cls-1" d="M26.61,44H53.69a1,1,0,0,1,.6.21l6.47,5.32A.63.63,0,0,1,61,50a.65.65,0,0,1-.24.5l-6.47,5.32a1,1,0,0,1-.6.2H26.61a.86.86,0,0,1-.78-.43V44.42a.87.87,0,0,1,.79-.43"/><path class="cls-1" d="M26.61,64.71H66.86a1,1,0,0,1,.6.21l6.47,5.32a.64.64,0,0,1,.25.5.66.66,0,0,1-.25.5l-6.47,5.32a.94.94,0,0,1-.6.2H26.61a.86.86,0,0,1-.78-.43V65.14a.87.87,0,0,1,.79-.43"/></svg>