<svg id="图层_1" data-name="图层 1" xmlns="http://www.w3.org/2000/svg" viewBox="0 0 100 100"><title>logohunt03</title><path d="M38.77,47.29C37.18,42.48,37,33,39.92,28.59c2.19-3.23,2.35,1.41,2.6,3.6a74.31,74.31,0,0,1,.54,11.16c.63-1.42,1-6.38,3.71-4.9,2.36,1.31-1.35,4.68-2.65,5.54,3.56-2.18,7.75-2.93,8.51-.79.86,2.42-6,3.75-7.13,3.84,1.79-.14,5.81-.59,7.65.84,1.42,1.09-.25,3.13-2,2.92-3.14-.38-3.06-1.38-5-1.19C47.91,50,50,52.18,49.57,54c-.59,2.81-2.32,1.77-4.19,1.3-.82,2.08-1.52,5.61-3.33,7.25.11-1.56.09-6.87,0-9.5s0-7.86-.69-7.1c-1.05,1.17.44,10.14.16,15.35-8.35-10.64-7.18-18.35-2.73-14"/><path d="M74.65,59.58C71.6,58.44,62,54.82,61.1,54.44c-1.51.77-9.25,3.87-11.84,5,1.55.06,4.64.1,4.64.1s-.11,1.41-.14,2.11c.72-.1,1.49-.17,2.29-.23l.24-1.65,4.35.09.16,1.47a65.18,65.18,0,0,1,10.07.91c-.1-.7-.2-1.87-.28-2.57.28,0,3.08-.18,4.06-.07"/><path d="M81.83,67.42c.24,1.73-8-.27-8.84-.4a121.73,121.73,0,0,0-31.56-.85q-.42,0,0,.06c5.31,0,12,0,17.12,1.28,3,.71,8.57,1.85,10.93,4.41.18.2.11.29-.15.19C63.45,69.66,56,69.86,49.7,69.3c-3.89-.35-15.17-1.13-17.51-.54-.27.07,6,.61,9.7,1.1a88.92,88.92,0,0,1,12,2.59c.27.08.27.09,0,0-11.36-2.17-24.11-2.84-35.47-.41-.27,0-.29,0-.05-.14,16.54-9,39.28-13,57.55-7.61,0,0,5.75,1.67,6,3.09"/></svg>