<svg id="图层_1" data-name="图层 1" xmlns="http://www.w3.org/2000/svg" viewBox="0 0 100 100"><defs><style>.cls-1{fill:#231815;}</style></defs><title>logohunt02</title><path class="cls-1" d="M50.21,67.71S50.4,55.47,55,52.48s7.05-3.07,11.29-4.82a41.75,41.75,0,0,0,7.55-4.13s.84,7.35-1.9,10.34-4.67,3-9.15,4.54S55.61,60.54,53.61,63a42.75,42.75,0,0,0-3.4,4.75"/><path class="cls-1" d="M50.4,57.19S49.57,48,52.78,45.28s5-3,8-4.75a32.24,32.24,0,0,0,5.3-3.85s1.21,5.43-.59,7.94S62.27,47.34,59.06,49s-5.21,2.33-6.51,4.34a34.85,34.85,0,0,0-2.15,3.9"/><path class="cls-1" d="M50.55,47.92s-.81-7.17,1.34-9.22,3.39-2.24,5.43-3.53a20.47,20.47,0,0,0,3.57-2.88s1,4.24-.21,6.17-2.17,2-4.35,3.23-3.54,1.7-4.39,3.24a27.13,27.13,0,0,0-1.39,3"/><path class="cls-1" d="M49.79,67.71S49.6,55.47,45,52.48s-7.05-3.07-11.29-4.82a41.75,41.75,0,0,1-7.55-4.13s-.84,7.35,1.9,10.34,4.67,3,9.15,4.54,7.22,2.13,9.22,4.55a42.75,42.75,0,0,1,3.4,4.75"/><path class="cls-1" d="M49.6,57.19s.83-9.19-2.38-11.91-5-3-8-4.75a32.24,32.24,0,0,1-5.3-3.85s-1.21,5.43.59,7.94,3.24,2.72,6.45,4.33,5.21,2.33,6.51,4.34a34.85,34.85,0,0,1,2.15,3.9"/><path class="cls-1" d="M49.45,47.92s.81-7.17-1.34-9.22-3.39-2.24-5.43-3.53a20.94,20.94,0,0,1-3.57-2.88s-1,4.24.21,6.17,2.17,2,4.35,3.23,3.55,1.7,4.39,3.24a25.09,25.09,0,0,1,1.39,3"/></svg>