<svg id="图层_1" data-name="图层 1" xmlns="http://www.w3.org/2000/svg" viewBox="0 0 100 100"><defs><style>.cls-1{fill:#231700;}</style></defs><title>logohunt01</title><polyline class="cls-1" points="37.42 66.81 37.42 33.19 38.76 33.19 38.76 62.54 37.42 66.81"/><polyline class="cls-1" points="40.11 66.81 40.11 33.19 41.45 33.19 41.45 62.54 40.11 66.81"/><polyline class="cls-1" points="42.79 66.81 42.79 33.19 44.13 33.19 44.13 62.78 42.79 66.81"/><path class="cls-1" d="M50,46.52a3.25,3.25,0,0,0-2.42,1.11A3.49,3.49,0,0,0,47,50.22v5.47c0,1.92.59,4.28,3.08,4.28,3.27,0,3.17-4.37,3.17-6.72s.15-6.73-3.26-6.73M52,66.61a9.35,9.35,0,0,1-6.54-2.31V33.19h1.45V44.52h.14c1.34-2.5,3.41-3.41,6.29-3.41,6.87,0,9.22,6.58,9.22,12.44,0,6.82-2.88,13.06-10.56,13.06"/></svg>