<svg id="图层_1" data-name="图层 1" xmlns="http://www.w3.org/2000/svg" viewBox="0 0 100 100"><defs><style>.cls-1{fill:#231815;}</style></defs><title>logohunt02</title><path class="cls-1" d="M60.44,28.2V54.86h-.11L39.56,28.2H28.22V71.8h9.57c-6.47-9.15-5.09-14.26-5.09-14.26s3.73,3.45,6.86,6.17v-.54c-1.77-3.82-2.54-9.9,0-18l0,0v-.16h.12L53.15,62.42c.75.4,2.87,1.15,3.4-2.91.6-4.65,6.14-5.63,8.82-4.13L71.55,53s-4.89,4.62-6,7.46,1.2,2.19.33,6.56a11.93,11.93,0,0,1-2.3,4.77h8.25V28.2"/><path class="cls-1" d="M61,56.48a1.1,1.1,0,1,0,.43,2.16,1.09,1.09,0,0,0,.86-1.29A1.11,1.11,0,0,0,61,56.48"/></svg>