<svg id="图层_1" data-name="图层 1" xmlns="http://www.w3.org/2000/svg" viewBox="0 0 100 100"><defs><style>.cls-1{fill:#231815;}.cls-2{fill:#fff;}</style></defs><title>logohunt01</title><path class="cls-1" d="M20.28,49A29.72,29.72,0,1,1,50,78.71,29.72,29.72,0,0,1,20.28,49"/><path class="cls-1" d="M20.28,49A29.72,29.72,0,1,1,50,78.71,29.72,29.72,0,0,1,20.28,49"/><rect class="cls-2" x="34.91" y="40.68" width="30.05" height="3.84"/><path class="cls-2" d="M52,80.73V52.65a4.37,4.37,0,0,1,2.44-1.17,1.25,1.25,0,0,1,1.38,1.34V80.73h3.87V52.2c0-2.41-1.21-3.89-3.63-3.89-1.41,0-2.44.41-4.31,2.2-.82-1.51-1.45-2.2-3.38-2.2s-2.65.82-4.27,2.2V48.65H40.39V80.73h3.87V52.65a4.53,4.53,0,0,1,2.48-1.17,1.22,1.22,0,0,1,1.34,1.34V80.73H52"/></svg>