<svg id="图层_1" data-name="图层 1" xmlns="http://www.w3.org/2000/svg" viewBox="0 0 100 100"><defs><style>.cls-1{fill:#231700;}</style></defs><title>logohunt01</title><path class="cls-1" d="M44.6,68.87A2.85,2.85,0,0,1,41.75,66V58.21l0-24.21a2.87,2.87,0,0,1,2.86-2.87H57.32a1,1,0,0,1,0,1.92H44.59a1,1,0,0,0-.67.27,1,1,0,0,0-.28.68l0,24.2V66a1,1,0,0,0,.27.68.91.91,0,0,0,.66.27,1,1,0,0,0,.95-1V49.14a2.86,2.86,0,0,1,2.86-2.86h8.82a1,1,0,0,1,0,1.91H48.41a1,1,0,0,0-.95,1V66a2.87,2.87,0,0,1-2.86,2.87"/></svg>