<svg id="图层_1" data-name="图层 1" xmlns="http://www.w3.org/2000/svg" viewBox="0 0 100 100"><defs><style>.cls-1{fill:#231815;fill-rule:evenodd;}</style></defs><title>logohunt02</title><path class="cls-1" d="M56.05,36a1.14,1.14,0,0,1,0-1.62,1.16,1.16,0,0,1,1.62,0l16,16A1.14,1.14,0,0,1,72.05,52l-16-16M29.9,63.71H70.1L50,43.62Zm43,2.29H27.14A1.14,1.14,0,0,1,26,64.86a1.17,1.17,0,0,1,.33-.81L49.19,41.19a1.16,1.16,0,0,1,1.62,0L73.67,64.05a1.14,1.14,0,0,1-.81,2ZM28,52a1.14,1.14,0,0,1-1.62-1.61l16-16a1.16,1.16,0,0,1,1.62,0A1.14,1.14,0,0,1,44,36Z"/></svg>