<svg id="图层_1" data-name="图层 1" xmlns="http://www.w3.org/2000/svg" viewBox="0 0 100 100"><defs><style>.cls-1{fill:#231815;}.cls-2{fill:#c8c9ca;}</style></defs><title>logohunt01</title><polyline class="cls-1" points="30.13 26.68 70 26.68 70 35.65 55.49 35.65 55.49 75.15 44.63 75.15 44.63 35.69 30.13 35.69 30.13 26.68"/><path class="cls-2" d="M35.41,27.76a1.09,1.09,0,0,0-1.14.34,1,1,0,0,0,0,1.41c-.28-.58.11-.68.11-.68.85-.12.36-1,1.07-1.07"/><path class="cls-2" d="M35.41,27.76a1.09,1.09,0,0,0-1.14.34,1,1,0,0,0,0,1.41c-.28-.58.11-.68.11-.68.85-.12.36-1,1.07-1.07"/><path class="cls-2" d="M34.46,33.63A1.11,1.11,0,0,1,35,32.56a1,1,0,0,1,1.41.26c-.52-.4-.7,0-.7,0-.29.83-1,.16-1.29.85"/><path class="cls-2" d="M34.46,33.63A1.11,1.11,0,0,1,35,32.56a1,1,0,0,1,1.41.26c-.52-.4-.7,0-.7,0-.29.83-1,.16-1.29.85"/><path class="cls-2" d="M40.85,34.25A1,1,0,0,0,40,35a1,1,0,0,0,.46,1.27c-.45-.42-.14-.65-.14-.65.71-.39,0-1,.57-1.32"/><path class="cls-2" d="M40.85,34.25A1,1,0,0,0,40,35a1,1,0,0,0,.46,1.27c-.45-.42-.14-.65-.14-.65.71-.39,0-1,.57-1.32"/><path class="cls-2" d="M45,32.44a2.18,2.18,0,0,0-.14-.25,7.13,7.13,0,0,0,2-2.94h0c-.74.81-2.76.84-2.48,2.48.92,1,.55,1.45.55,1.45-.47.34-1-.24-1-.24.9,1.11.57,1.35.57,1.35-.27.2-.67-.2-.67-.2A1.52,1.52,0,0,1,44,36c-1.76-.2-1-1.2-1.06-1.35-.43.58-.72.19-.72.19s-.47-.5.33-1.18c-1.07.06-.73-.61-.73-.61a2.06,2.06,0,0,1,1.52-1.17,1.12,1.12,0,0,0-.12.36,1.08,1.08,0,0,0-.69.9s.5-.63.64-.59a5.53,5.53,0,0,0-.1,1,.85.85,0,0,0-.43.75s.34-.52.45-.5a2.26,2.26,0,0,0,.47,1.37,5.16,5.16,0,0,1-.29-1.95c.14,0,.59.58.59.58a1.3,1.3,0,0,0-.53-.84,2.39,2.39,0,0,1,.27-.89c.24.07.83.87.83.87a2.74,2.74,0,0,0-.76-1.23s.18-.88,1.67-1.73l.17-.08a4,4,0,0,0,1.37-.8s.21,0,.25.12A7,7,0,0,1,45,32.44"/><path class="cls-2" d="M45,32.44a2.18,2.18,0,0,0-.14-.25,7.13,7.13,0,0,0,2-2.94h0c-.74.81-2.76.84-2.48,2.48.92,1,.55,1.45.55,1.45-.47.34-1-.24-1-.24.9,1.11.57,1.35.57,1.35-.27.2-.67-.2-.67-.2A1.52,1.52,0,0,1,44,36c-1.76-.2-1-1.2-1.06-1.35-.43.58-.72.19-.72.19s-.47-.5.33-1.18c-1.07.06-.73-.61-.73-.61a2.06,2.06,0,0,1,1.52-1.17,1.12,1.12,0,0,0-.12.36,1.08,1.08,0,0,0-.69.9s.5-.63.64-.59a5.53,5.53,0,0,0-.1,1,.85.85,0,0,0-.43.75s.34-.52.45-.5a2.26,2.26,0,0,0,.47,1.37,5.16,5.16,0,0,1-.29-1.95c.14,0,.59.58.59.58a1.3,1.3,0,0,0-.53-.84,2.39,2.39,0,0,1,.27-.89c.24.07.83.87.83.87a2.74,2.74,0,0,0-.76-1.23s.18-.88,1.67-1.73l.17-.08a4,4,0,0,0,1.37-.8s.21,0,.25.12A7,7,0,0,1,45,32.44"/><path class="cls-2" d="M35.86,32a6.57,6.57,0,0,0,6.36,1.78,1.09,1.09,0,0,0-.27.42,6.87,6.87,0,0,1-6.83-2.64l0-.07-.48-.67c-.47-.82-.75-2.48-1.87-2.57-1.32,1-1.71.46-1.71.46-.26-.52.39-.92.39-.92-1.25.72-1.44.35-1.44.35-.15-.29.31-.63.31-.63a1.53,1.53,0,0,1-1.86-.22c.48-1.71,1.36-.82,1.51-.83-.5-.52-.07-.75-.07-.75s.57-.38,1.12.52c.11-1.08.71-.63.71-.63a2.09,2.09,0,0,1,.93,1.69,1.07,1.07,0,0,0-.34-.17,1.1,1.1,0,0,0-.78-.83s.55.59.48.73a5.76,5.76,0,0,0-1-.26.84.84,0,0,0-.67-.54s.46.42.42.52a2.18,2.18,0,0,0-1.43.25,5.1,5.1,0,0,1,2,0c0,.15-.67.5-.67.5a1.33,1.33,0,0,0,.92-.4,2.46,2.46,0,0,1,.84.42,4,4,0,0,1-1,.68,2.56,2.56,0,0,0,1.28-.54l0,0c1,.39,1.43,1.68,1.91,2.69A8.05,8.05,0,0,0,35.86,32"/><path class="cls-2" d="M35.86,32a6.57,6.57,0,0,0,6.36,1.78,1.09,1.09,0,0,0-.27.42,6.87,6.87,0,0,1-6.83-2.64l0-.07-.48-.67c-.47-.82-.75-2.48-1.87-2.57-1.32,1-1.71.46-1.71.46-.26-.52.39-.92.39-.92-1.25.72-1.44.35-1.44.35-.15-.29.31-.63.31-.63a1.53,1.53,0,0,1-1.86-.22c.48-1.71,1.36-.82,1.51-.83-.5-.52-.07-.75-.07-.75s.57-.38,1.12.52c.11-1.08.71-.63.71-.63a2.09,2.09,0,0,1,.93,1.69,1.07,1.07,0,0,0-.34-.17,1.1,1.1,0,0,0-.78-.83s.55.59.48.73a5.76,5.76,0,0,0-1-.26.84.84,0,0,0-.67-.54s.46.42.42.52a2.18,2.18,0,0,0-1.43.25,5.1,5.1,0,0,1,2,0c0,.15-.67.5-.67.5a1.33,1.33,0,0,0,.92-.4,2.46,2.46,0,0,1,.84.42,4,4,0,0,1-1,.68,2.56,2.56,0,0,0,1.28-.54l0,0c1,.39,1.43,1.68,1.91,2.69A8.05,8.05,0,0,0,35.86,32"/><path class="cls-2" d="M46.63,29.37a2.73,2.73,0,0,1-2.49.6,2,2,0,0,0-.36-1,2.81,2.81,0,0,1,.12.88,1.93,1.93,0,0,1-.65-.25,1,1,0,0,0-.24-.7s.15.55.07.61a3.63,3.63,0,0,1-1-1.07,1.64,1.64,0,0,0,.58.91c0,.07-.49,0-.49,0a.62.62,0,0,0,.63.1,4.32,4.32,0,0,0,.63.4c0,.1-.64.1-.64.1a.82.82,0,0,0,.85,0,.65.65,0,0,0,.26.1,1.53,1.53,0,0,1-1.38.34s-.56-.1,0-.7c-.77.15-.84-.35-.84-.35s-.1-.35.44-.34c-.07-.09-1-.12-.3-1.24a1.14,1.14,0,0,1,1.05.91s-.05-.42.19-.48c0,0,.29-.09.52.95,0,0-.11-.55.31-.67,0,0,.42,0,.59,1,0,0,0,.29.37.28a4.46,4.46,0,0,0,2-.66"/><path class="cls-2" d="M46.63,29.37a2.73,2.73,0,0,1-2.49.6,2,2,0,0,0-.36-1,2.81,2.81,0,0,1,.12.88,1.93,1.93,0,0,1-.65-.25,1,1,0,0,0-.24-.7s.15.55.07.61a3.63,3.63,0,0,1-1-1.07,1.64,1.64,0,0,0,.58.91c0,.07-.49,0-.49,0a.62.62,0,0,0,.63.1,4.32,4.32,0,0,0,.63.4c0,.1-.64.1-.64.1a.82.82,0,0,0,.85,0,.65.65,0,0,0,.26.1,1.53,1.53,0,0,1-1.38.34s-.56-.1,0-.7c-.77.15-.84-.35-.84-.35s-.1-.35.44-.34c-.07-.09-1-.12-.3-1.24a1.14,1.14,0,0,1,1.05.91s-.05-.42.19-.48c0,0,.29-.09.52.95,0,0-.11-.55.31-.67,0,0,.42,0,.59,1,0,0,0,.29.37.28a4.46,4.46,0,0,0,2-.66"/><path class="cls-2" d="M49.05,45.84c.07,0-.1,0-.1,0"/><path class="cls-2" d="M49.05,45.84c.07,0-.1,0-.1,0"/><path class="cls-2" d="M52.32,46.77a1.24,1.24,0,0,0-1,.95A1.16,1.16,0,0,0,52,49.19c-.59-.45-.24-.76-.24-.76.81-.56-.13-1.17.54-1.66"/><path class="cls-2" d="M52.32,46.77a1.24,1.24,0,0,0-1,.95A1.16,1.16,0,0,0,52,49.19c-.59-.45-.24-.76-.24-.76.81-.56-.13-1.17.54-1.66"/><path class="cls-2" d="M54.74,44.17a1.3,1.3,0,0,1-1.39.32A1.2,1.2,0,0,1,52.48,43c.05.77.51.65.51.65,1-.38.94.78,1.75.48"/><path class="cls-2" d="M54.74,44.17a1.3,1.3,0,0,1-1.39.32A1.2,1.2,0,0,1,52.48,43c.05.77.51.65.51.65,1-.38.94.78,1.75.48"/><path class="cls-2" d="M50.27,47.37a1.47,1.47,0,0,1-1.08-1.28s.86-.09,1-.62a1.63,1.63,0,0,1-.92.33,4.41,4.41,0,0,1,.14-.7,1,1,0,0,0,.66-.43s-.52.3-.61.23a3.93,3.93,0,0,1,.83-1.3,1.74,1.74,0,0,0-.78.83c-.08,0-.15-.51-.15-.51a.67.67,0,0,0,.06.68,4.24,4.24,0,0,0-.25.74c-.12,0-.27-.62-.27-.62a.85.85,0,0,0,.21.86.84.84,0,0,0,0,.3,1.63,1.63,0,0,1-.7-1.33s0-.59.72-.19c-.36-.75.14-1,.14-1s.33-.19.45.36c.08-.09-.12-1.05,1.19-.62a1.19,1.19,0,0,1-.65,1.3s.42-.16.54.07c0,0,.16.28-.84.78,0,0,.53-.25.76.14,0,0,.09.31-.47.66,0,0-1.41.69.36,1.16l.14,0"/><path class="cls-2" d="M50.27,47.37a1.47,1.47,0,0,1-1.08-1.28s.86-.09,1-.62a1.63,1.63,0,0,1-.92.33,4.41,4.41,0,0,1,.14-.7,1,1,0,0,0,.66-.43s-.52.3-.61.23a3.93,3.93,0,0,1,.83-1.3,1.74,1.74,0,0,0-.78.83c-.08,0-.15-.51-.15-.51a.67.67,0,0,0,.06.68,4.24,4.24,0,0,0-.25.74c-.12,0-.27-.62-.27-.62a.85.85,0,0,0,.21.86.84.84,0,0,0,0,.3,1.63,1.63,0,0,1-.7-1.33s0-.59.72-.19c-.36-.75.14-1,.14-1s.33-.19.45.36c.08-.09-.12-1.05,1.19-.62a1.19,1.19,0,0,1-.65,1.3s.42-.16.54.07c0,0,.16.28-.84.78,0,0,.53-.25.76.14,0,0,.09.31-.47.66,0,0-1.41.69.36,1.16l.14,0"/><path class="cls-2" d="M47.59,47.47c-3.75-1.83-1.8-4.57-1.8-4.57s1.07.58,1.64.07a2.29,2.29,0,0,1-1.34-.37,5.18,5.18,0,0,1,.73-.7,1.44,1.44,0,0,0,1.11,0s-.85-.08-.9-.23a5.76,5.76,0,0,1,2-.85,2.49,2.49,0,0,0-1.58.34c-.08-.09.23-.71.23-.71a1,1,0,0,0-.48.84,6.26,6.26,0,0,0-.89.67c-.13-.11.19-1,.19-1a1.23,1.23,0,0,0-.46,1.18,1.15,1.15,0,0,0-.28.31A2.3,2.3,0,0,1,46,40.42s.44-.72,1,.35c.19-1.16.94-1,.94-1s.54,0,.23.8c.16,0,.7-1.33,1.9.23a1.71,1.71,0,0,1-1.82,1s.61.15.57.51c0,0,0,.46-1.61.24,0,0,.83.13.78.78,0,0-.08.64-1,.44,0,0-.84-.21-1.15.28,0,0-1.32,1.78,2.37,3.44"/><path class="cls-2" d="M47.59,47.47c-3.75-1.83-1.8-4.57-1.8-4.57s1.07.58,1.64.07a2.29,2.29,0,0,1-1.34-.37,5.18,5.18,0,0,1,.73-.7,1.44,1.44,0,0,0,1.11,0s-.85-.08-.9-.23a5.76,5.76,0,0,1,2-.85,2.49,2.49,0,0,0-1.58.34c-.08-.09.23-.71.23-.71a1,1,0,0,0-.48.84,6.26,6.26,0,0,0-.89.67c-.13-.11.19-1,.19-1a1.23,1.23,0,0,0-.46,1.18,1.15,1.15,0,0,0-.28.31A2.3,2.3,0,0,1,46,40.42s.44-.72,1,.35c.19-1.16.94-1,.94-1s.54,0,.23.8c.16,0,.7-1.33,1.9.23a1.71,1.71,0,0,1-1.82,1s.61.15.57.51c0,0,0,.46-1.61.24,0,0,.83.13.78.78,0,0-.08.64-1,.44,0,0-.84-.21-1.15.28,0,0-1.32,1.78,2.37,3.44"/><path class="cls-2" d="M40.27,34.09c-3.88-.7-2.82-3.7-2.82-3.7s1.13.26,1.51-.36a2.25,2.25,0,0,1-1.31,0,4.54,4.54,0,0,1,.48-.83,1.41,1.41,0,0,0,1-.26s-.79.15-.88,0a5.32,5.32,0,0,1,1.63-1.3,2.41,2.41,0,0,0-1.35.72c-.1-.06,0-.71,0-.71a.89.89,0,0,0-.21.89,5.1,5.1,0,0,0-.64.84c-.15-.07-.07-.91-.07-.91a1.15,1.15,0,0,0-.12,1.19,1.32,1.32,0,0,0-.17.36,2.17,2.17,0,0,1-.32-2s.21-.77,1,.06c-.13-1.11.59-1.15.59-1.15s.51-.09.42.66c.14-.08.3-1.39,1.79-.28a1.61,1.61,0,0,1-1.4,1.38s.6,0,.66.32c0,0,.08.43-1.41.63,0,0,.79-.09.91.52,0,0,.1.6-.82.66,0,0-.82,0-1,.55,0,0-.73,2,3.05,2.52"/><path class="cls-2" d="M40.27,34.09c-3.88-.7-2.82-3.7-2.82-3.7s1.13.26,1.51-.36a2.25,2.25,0,0,1-1.31,0,4.54,4.54,0,0,1,.48-.83,1.41,1.41,0,0,0,1-.26s-.79.15-.88,0a5.32,5.32,0,0,1,1.63-1.3,2.41,2.41,0,0,0-1.35.72c-.1-.06,0-.71,0-.71a.89.89,0,0,0-.21.89,5.1,5.1,0,0,0-.64.84c-.15-.07-.07-.91-.07-.91a1.15,1.15,0,0,0-.12,1.19,1.32,1.32,0,0,0-.17.36,2.17,2.17,0,0,1-.32-2s.21-.77,1,.06c-.13-1.11.59-1.15.59-1.15s.51-.09.42.66c.14-.08.3-1.39,1.79-.28a1.61,1.61,0,0,1-1.4,1.38s.6,0,.66.32c0,0,.08.43-1.41.63,0,0,.79-.09.91.52,0,0,.1.6-.82.66,0,0-.82,0-1,.55,0,0-.73,2,3.05,2.52"/><path class="cls-2" d="M55.61,39.35h-.3a7.36,7.36,0,0,0-1.59-3.28h0c.34,1.08-.68,2.9.93,3.5,1.39-.29,1.58.26,1.58.26.06.6-.71.74-.71.74,1.46-.23,1.5.2,1.5.2,0,.33-.53.48-.53.48a1.56,1.56,0,0,1,1.7.9c-1.09,1.46-1.6.28-1.75.24.29.69-.21.74-.21.74s-.69.16-.88-.91c-.51,1-.92.34-.92.34a2.13,2.13,0,0,1-.26-2,1,1,0,0,0,.26.28A1.14,1.14,0,0,0,54.86,42s-.3-.77-.18-.87a4.88,4.88,0,0,0,.83.6.89.89,0,0,0,.45.78s-.29-.58-.22-.66a2.3,2.3,0,0,0,1.47.29,5.15,5.15,0,0,1-1.89-.76c0-.14.83-.22.83-.22a1.32,1.32,0,0,0-1,0,2.66,2.66,0,0,1-.65-.71,3.79,3.79,0,0,1,1.2-.29,2.88,2.88,0,0,0-1.48,0,3.13,3.13,0,0,1-.68-2.38c0-.06,0-.14,0-.2a4.11,4.11,0,0,0,0-1.64s.08-.21.24-.16a7.2,7.2,0,0,1,1.85,3.54"/><path class="cls-2" d="M55.61,39.35h-.3a7.36,7.36,0,0,0-1.59-3.28h0c.34,1.08-.68,2.9.93,3.5,1.39-.29,1.58.26,1.58.26.06.6-.71.74-.71.74,1.46-.23,1.5.2,1.5.2,0,.33-.53.48-.53.48a1.56,1.56,0,0,1,1.7.9c-1.09,1.46-1.6.28-1.75.24.29.69-.21.74-.21.74s-.69.16-.88-.91c-.51,1-.92.34-.92.34a2.13,2.13,0,0,1-.26-2,1,1,0,0,0,.26.28A1.14,1.14,0,0,0,54.86,42s-.3-.77-.18-.87a4.88,4.88,0,0,0,.83.6.89.89,0,0,0,.45.78s-.29-.58-.22-.66a2.3,2.3,0,0,0,1.47.29,5.15,5.15,0,0,1-1.89-.76c0-.14.83-.22.83-.22a1.32,1.32,0,0,0-1,0,2.66,2.66,0,0,1-.65-.71,3.79,3.79,0,0,1,1.2-.29,2.88,2.88,0,0,0-1.48,0,3.13,3.13,0,0,1-.68-2.38c0-.06,0-.14,0-.2a4.11,4.11,0,0,0,0-1.64s.08-.21.24-.16a7.2,7.2,0,0,1,1.85,3.54"/><path class="cls-2" d="M50.41,47.3a2,2,0,0,1-1.09.19c-1.09-.07-2.36-.41-3.21.29l0,0a2.44,2.44,0,0,1-.18,1.34A3.65,3.65,0,0,0,45.82,48a2.42,2.42,0,0,0-.76.5,1.32,1.32,0,0,1-.12,1s0-.74-.09-.8a4.85,4.85,0,0,0-1,1.65,2.19,2.19,0,0,1,.5-1.33c-.07-.08-.66.11-.66.11a.84.84,0,0,1,.8-.31,5.6,5.6,0,0,1,.69-.69c-.08-.13-.85,0-.85,0a1.1,1.1,0,0,1,1.09-.25,1.13,1.13,0,0,1,.31-.2,2,2,0,0,0-1.88,0s-.68.29.18.91c-1,0-1,.69-1,.69s0,.48.67.3c-.07.14-1.25.45,0,1.69a1.5,1.5,0,0,0,1.1-1.46s0,.55.37.56c0,0,.41,0,.41-1.37,0,0,0,.74.59.78,0,0,.6-.1.45-1.68.62-.89,2-.31,2.95-.29h.08A7.09,7.09,0,0,0,55.54,43a1,1,0,0,1-.23-.45,6.8,6.8,0,0,1-4.9,4.75"/><path class="cls-2" d="M50.41,47.3a2,2,0,0,1-1.09.19c-1.09-.07-2.36-.41-3.21.29l0,0a2.44,2.44,0,0,1-.18,1.34A3.65,3.65,0,0,0,45.82,48a2.42,2.42,0,0,0-.76.5,1.32,1.32,0,0,1-.12,1s0-.74-.09-.8a4.85,4.85,0,0,0-1,1.65,2.19,2.19,0,0,1,.5-1.33c-.07-.08-.66.11-.66.11a.84.84,0,0,1,.8-.31,5.6,5.6,0,0,1,.69-.69c-.08-.13-.85,0-.85,0a1.1,1.1,0,0,1,1.09-.25,1.13,1.13,0,0,1,.31-.2,2,2,0,0,0-1.88,0s-.68.29.18.91c-1,0-1,.69-1,.69s0,.48.67.3c-.07.14-1.25.45,0,1.69a1.5,1.5,0,0,0,1.1-1.46s0,.55.37.56c0,0,.41,0,.41-1.37,0,0,0,.74.59.78,0,0,.6-.1.45-1.68.62-.89,2-.31,2.95-.29h.08A7.09,7.09,0,0,0,55.54,43a1,1,0,0,1-.23-.45,6.8,6.8,0,0,1-4.9,4.75"/><path class="cls-2" d="M62.25,31.07a1.2,1.2,0,0,0,1.07.8,1.12,1.12,0,0,0,1.3-.9c-.33.64-.68.36-.68.36-.67-.7-1.11.31-1.69-.26"/><path class="cls-2" d="M62.25,31.07a1.2,1.2,0,0,0,1.07.8,1.12,1.12,0,0,0,1.3-.9c-.33.64-.68.36-.68.36-.67-.7-1.11.31-1.69-.26"/><path class="cls-2" d="M47,30.32a.91.91,0,0,0-.05,1,.84.84,0,0,0,1.1.41c-.53.07-.51-.27-.51-.27.15-.7-.65-.54-.54-1.14"/><path class="cls-2" d="M47,30.32a.91.91,0,0,0-.05,1,.84.84,0,0,0,1.1.41c-.53.07-.51-.27-.51-.27.15-.7-.65-.54-.54-1.14"/><path class="cls-2" d="M58.73,27.09a1.28,1.28,0,0,1,.53,1.3A1.19,1.19,0,0,1,58,29.47c.75-.17.55-.61.55-.61-.52-.86.61-1,.19-1.77"/><path class="cls-2" d="M58.73,27.09a1.28,1.28,0,0,1,.53,1.3A1.19,1.19,0,0,1,58,29.47c.75-.17.55-.61.55-.61-.52-.86.61-1,.19-1.77"/><path class="cls-2" d="M61.88,30.75a1.87,1.87,0,0,1-1.37,1.64s-.31-1.06-1-1.09a2.14,2.14,0,0,1,.62,1.08,4.49,4.49,0,0,1-.91,0,1.31,1.31,0,0,0-.69-.72s.49.59.42.71a5.12,5.12,0,0,1-1.82-.74,2.21,2.21,0,0,0,1.21.78c0,.11-.59.31-.59.31a.86.86,0,0,0,.84-.23,5.24,5.24,0,0,0,1,.14c0,.15-.72.48-.72.48a1.08,1.08,0,0,0,1-.45,1,1,0,0,0,.38,0,2.05,2.05,0,0,1-1.51,1.19s-.73.18-.4-.86c-.86.62-1.23,0-1.23,0s-.31-.37.36-.65c-.14-.08-1.29.4-1.06-1.36a1.54,1.54,0,0,1,1.79.53s-.3-.49,0-.69c0,0,.31-.27,1.17.87,0,0-.44-.61,0-1,0,0,.36-.19.93.45,0,0,1.2,1.61,1.38-.73l-.07-.17"/><path class="cls-2" d="M61.88,30.75a1.87,1.87,0,0,1-1.37,1.64s-.31-1.06-1-1.09a2.14,2.14,0,0,1,.62,1.08,4.49,4.49,0,0,1-.91,0,1.31,1.31,0,0,0-.69-.72s.49.59.42.71a5.12,5.12,0,0,1-1.82-.74,2.21,2.21,0,0,0,1.21.78c0,.11-.59.31-.59.31a.86.86,0,0,0,.84-.23,5.24,5.24,0,0,0,1,.14c0,.15-.72.48-.72.48a1.08,1.08,0,0,0,1-.45,1,1,0,0,0,.38,0,2.05,2.05,0,0,1-1.51,1.19s-.73.18-.4-.86c-.86.62-1.23,0-1.23,0s-.31-.37.36-.65c-.14-.08-1.29.4-1.06-1.36a1.54,1.54,0,0,1,1.79.53s-.3-.49,0-.69c0,0,.31-.27,1.17.87,0,0-.44-.61,0-1,0,0,.36-.19.93.45,0,0,1.2,1.61,1.38-.73l-.07-.17"/><path class="cls-2" d="M53.29,26.78a1.06,1.06,0,0,0,0,.29,7.19,7.19,0,0,0-2.9,2.05h0c1-.5,2.89.19,3.22-1.45-.51-1.29,0-1.56,0-1.56.57-.15.82.57.82.57-.45-1.37,0-1.48,0-1.48.31-.09.54.43.54.43a1.55,1.55,0,0,1,.6-1.78c1.58.82.53,1.5.51,1.65.61-.39.74.08.74.08s.27.64-.73,1c1,.32.47.82.47.82A2.08,2.08,0,0,1,54.7,28a1,1,0,0,0,.23-.3,1.09,1.09,0,0,0,1-.6s-.69.42-.81.32a5,5,0,0,0,.45-.9.85.85,0,0,0,.68-.55s-.51.37-.6.31a2.28,2.28,0,0,0,.05-1.46,5.12,5.12,0,0,1-.43,1.94c-.15,0-.35-.76-.35-.76a1.32,1.32,0,0,0,.2,1,2.34,2.34,0,0,1-.58.74,4,4,0,0,1-.46-1.11A2.81,2.81,0,0,0,54.32,28a3.06,3.06,0,0,1-2.18,1l-.19,0a4.1,4.1,0,0,0-1.58.26s-.21,0-.19-.2a7.11,7.11,0,0,1,3.11-2.34"/><path class="cls-2" d="M53.29,26.78a1.06,1.06,0,0,0,0,.29,7.19,7.19,0,0,0-2.9,2.05h0c1-.5,2.89.19,3.22-1.45-.51-1.29,0-1.56,0-1.56.57-.15.82.57.82.57-.45-1.37,0-1.48,0-1.48.31-.09.54.43.54.43a1.55,1.55,0,0,1,.6-1.78c1.58.82.53,1.5.51,1.65.61-.39.74.08.74.08s.27.64-.73,1c1,.32.47.82.47.82A2.08,2.08,0,0,1,54.7,28a1,1,0,0,0,.23-.3,1.09,1.09,0,0,0,1-.6s-.69.42-.81.32a5,5,0,0,0,.45-.9.85.85,0,0,0,.68-.55s-.51.37-.6.31a2.28,2.28,0,0,0,.05-1.46,5.12,5.12,0,0,1-.43,1.94c-.15,0-.35-.76-.35-.76a1.32,1.32,0,0,0,.2,1,2.34,2.34,0,0,1-.58.74,4,4,0,0,1-.46-1.11A2.81,2.81,0,0,0,54.32,28a3.06,3.06,0,0,1-2.18,1l-.19,0a4.1,4.1,0,0,0-1.58.26s-.21,0-.19-.2a7.11,7.11,0,0,1,3.11-2.34"/><path class="cls-2" d="M61.75,30.5a2.08,2.08,0,0,1,.36,1c.1,1,0,2.32.79,3l0,0a2.35,2.35,0,0,1,1.32,0,3.44,3.44,0,0,0-1.11.27,2.39,2.39,0,0,0,.6.65,1.24,1.24,0,0,1,1,0s-.72.08-.76.21a4.73,4.73,0,0,0,1.75.69,2.14,2.14,0,0,1-1.36-.26c-.07.08.21.61.21.61A.82.82,0,0,1,64.1,36a5.16,5.16,0,0,1-.78-.55c-.11.09.18.8.18.8a1,1,0,0,1-.41-1,1,1,0,0,1-.25-.26,2,2,0,0,0,.25,1.81s.39.6.85-.32c.18,1,.82.84.82.84s.46-.06.19-.69c.14,0,.62,1.13,1.62-.23A1.45,1.45,0,0,0,65,35.53s.53-.14.49-.45c0,0,0-.39-1.39-.18,0,0,.71-.13.65-.68,0,0-.18-.57-1.68-.17-1-.46-.62-1.91-.75-2.79l0-.07a6.92,6.92,0,0,0-5.48-4.93,1.12,1.12,0,0,1-.4.3,6.61,6.61,0,0,1,5.34,3.94"/><path class="cls-2" d="M61.75,30.5a2.08,2.08,0,0,1,.36,1c.1,1,0,2.32.79,3l0,0a2.35,2.35,0,0,1,1.32,0,3.44,3.44,0,0,0-1.11.27,2.39,2.39,0,0,0,.6.65,1.24,1.24,0,0,1,1,0s-.72.08-.76.21a4.73,4.73,0,0,0,1.75.69,2.14,2.14,0,0,1-1.36-.26c-.07.08.21.61.21.61A.82.82,0,0,1,64.1,36a5.16,5.16,0,0,1-.78-.55c-.11.09.18.8.18.8a1,1,0,0,1-.41-1,1,1,0,0,1-.25-.26,2,2,0,0,0,.25,1.81s.39.6.85-.32c.18,1,.82.84.82.84s.46-.06.19-.69c.14,0,.62,1.13,1.62-.23A1.45,1.45,0,0,0,65,35.53s.53-.14.49-.45c0,0,0-.39-1.39-.18,0,0,.71-.13.65-.68,0,0-.18-.57-1.68-.17-1-.46-.62-1.91-.75-2.79l0-.07a6.92,6.92,0,0,0-5.48-4.93,1.12,1.12,0,0,1-.4.3,6.61,6.61,0,0,1,5.34,3.94"/><path class="cls-2" d="M45.82,69.71a1.34,1.34,0,0,0,1.36.59A1.24,1.24,0,0,0,48.35,69c-.2.78-.65.57-.65.57-.9-.58-1.11.62-1.88.15"/><path class="cls-2" d="M45.82,69.71a1.34,1.34,0,0,0,1.36.59A1.24,1.24,0,0,0,48.35,69c-.2.78-.65.57-.65.57-.9-.58-1.11.62-1.88.15"/><path class="cls-2" d="M49.22,74.94a1.23,1.23,0,0,0,.88-1,1.14,1.14,0,0,0-.84-1.36c.63.38.32.71.32.71-.73.64.25,1.14-.36,1.68"/><path class="cls-2" d="M49.22,74.94a1.23,1.23,0,0,0,.88-1,1.14,1.14,0,0,0-.84-1.36c.63.38.32.71.32.71-.73.64.25,1.14-.36,1.68"/><path class="cls-2" d="M43.73,57.4a1.08,1.08,0,0,0,.87.81,1,1,0,0,0,1.23-.67c-.36.53-.64.25-.64.25-.53-.68-1,.17-1.46-.39"/><path class="cls-2" d="M43.73,57.4a1.08,1.08,0,0,0,.87.81,1,1,0,0,0,1.23-.67c-.36.53-.64.25-.64.25-.53-.68-1,.17-1.46-.39"/><path class="cls-2" d="M43.18,70.18A1.17,1.17,0,0,0,44.45,70a1.08,1.08,0,0,0,.22-1.51c.23.66-.2.71-.2.71-.93,0-.51,1-1.29,1"/><path class="cls-2" d="M43.18,70.18A1.17,1.17,0,0,0,44.45,70a1.08,1.08,0,0,0,.22-1.51c.23.66-.2.71-.2.71-.93,0-.51,1-1.29,1"/><path class="cls-2" d="M50.78,73a2,2,0,0,0,1.58-1.73s-1.21-.17-1.36-.9a2.35,2.35,0,0,0,1.29.5,4.18,4.18,0,0,0-.17-1,1.44,1.44,0,0,1-.9-.63s.72.44.85.35A5.49,5.49,0,0,0,51,67.73,2.46,2.46,0,0,1,52,68.92c.12,0,.25-.69.25-.69a.9.9,0,0,1-.12.93,6.45,6.45,0,0,1,.32,1c.17,0,.41-.84.41-.84a1.16,1.16,0,0,1-.33,1.18,1.08,1.08,0,0,1,0,.41,2.22,2.22,0,0,0,1.06-1.8s.08-.81-1-.3c.53-1-.16-1.33-.16-1.33s-.47-.27-.66.49c-.11-.14.22-1.45-1.67-.93A1.65,1.65,0,0,0,51,68.92s-.58-.24-.77.06c0,0-.24.38,1.16,1.13,0,0-.75-.38-1.09.15,0,0-.15.42.64.94,0,0,2,1-.58,1.59"/><path class="cls-2" d="M50.78,73a2,2,0,0,0,1.58-1.73s-1.21-.17-1.36-.9a2.35,2.35,0,0,0,1.29.5,4.18,4.18,0,0,0-.17-1,1.44,1.44,0,0,1-.9-.63s.72.44.85.35A5.49,5.49,0,0,0,51,67.73,2.46,2.46,0,0,1,52,68.92c.12,0,.25-.69.25-.69a.9.9,0,0,1-.12.93,6.45,6.45,0,0,1,.32,1c.17,0,.41-.84.41-.84a1.16,1.16,0,0,1-.33,1.18,1.08,1.08,0,0,1,0,.41,2.22,2.22,0,0,0,1.06-1.8s.08-.81-1-.3c.53-1-.16-1.33-.16-1.33s-.47-.27-.66.49c-.11-.14.22-1.45-1.67-.93A1.65,1.65,0,0,0,51,68.92s-.58-.24-.77.06c0,0-.24.38,1.16,1.13,0,0-.75-.38-1.09.15,0,0-.15.42.64.94,0,0,2,1-.58,1.59"/><path class="cls-2" d="M46.81,71a1.83,1.83,0,0,1,0,2.07s-.88-.61-1.41-.22a2.06,2.06,0,0,1,1.12.44,4.44,4.44,0,0,1-.69.54,1.27,1.27,0,0,0-1-.12s.72.14.75.28a4.8,4.8,0,0,1-1.83.54,2.11,2.11,0,0,0,1.39-.15c.07.09-.25.6-.25.6a.82.82,0,0,0,.48-.69,3.9,3.9,0,0,0,.83-.49c.11.11-.24.8-.24.8a1.08,1.08,0,0,0,.5-1,1,1,0,0,0,.27-.24,2,2,0,0,1-.41,1.81s-.45.58-.83-.4c-.27,1-.9.78-.9.78s-.46-.09-.13-.71c-.15,0-.73,1.09-1.62-.37a1.48,1.48,0,0,1,1.66-.7s-.51-.19-.45-.5c0,0,.08-.39,1.42,0,0,0-.7-.2-.6-.75,0,0,.16-.36,1-.24,0,0,1.89.49.6-1.39"/><path class="cls-2" d="M46.81,71a1.83,1.83,0,0,1,0,2.07s-.88-.61-1.41-.22a2.06,2.06,0,0,1,1.12.44,4.44,4.44,0,0,1-.69.54,1.27,1.27,0,0,0-1-.12s.72.14.75.28a4.8,4.8,0,0,1-1.83.54,2.11,2.11,0,0,0,1.39-.15c.07.09-.25.6-.25.6a.82.82,0,0,0,.48-.69,3.9,3.9,0,0,0,.83-.49c.11.11-.24.8-.24.8a1.08,1.08,0,0,0,.5-1,1,1,0,0,0,.27-.24,2,2,0,0,1-.41,1.81s-.45.58-.83-.4c-.27,1-.9.78-.9.78s-.46-.09-.13-.71c-.15,0-.73,1.09-1.62-.37a1.48,1.48,0,0,1,1.66-.7s-.51-.19-.45-.5c0,0,.08-.39,1.42,0,0,0-.7-.2-.6-.75,0,0,.16-.36,1-.24,0,0,1.89.49.6-1.39"/><path class="cls-2" d="M35.41,31.59a1.74,1.74,0,0,0-2-.93s.06,1.12-.58,1.37a2.16,2.16,0,0,0,.23-1.23,3.88,3.88,0,0,0-.86.32,1.32,1.32,0,0,1-.42.92s.27-.73.17-.83a5.33,5.33,0,0,0-1.5,1.33,2.32,2.32,0,0,1,.9-1.16c0-.1-.67-.1-.67-.1a.88.88,0,0,1,.88-.05,4.88,4.88,0,0,1,.89-.47c0-.15-.84-.22-.84-.22a1.1,1.1,0,0,1,1.14.09,1,1,0,0,1,.37-.1,2.09,2.09,0,0,0-1.84-.63s-.75.07-.1,1c-1-.3-1.19.37-1.19.37s-.17.47.57.51c-.11.11-1.37.05-.56,1.64a1.54,1.54,0,0,0,1.53-1.09s-.12.56.19.67c0,0,.39.15.83-1.23,0,0-.21.74.34,1,0,0,.4.06.74-.74,0,0,.5-1.49,1.22-.7"/><path class="cls-2" d="M35.41,31.59a1.74,1.74,0,0,0-2-.93s.06,1.12-.58,1.37a2.16,2.16,0,0,0,.23-1.23,3.88,3.88,0,0,0-.86.32,1.32,1.32,0,0,1-.42.92s.27-.73.17-.83a5.33,5.33,0,0,0-1.5,1.33,2.32,2.32,0,0,1,.9-1.16c0-.1-.67-.1-.67-.1a.88.88,0,0,1,.88-.05,4.88,4.88,0,0,1,.89-.47c0-.15-.84-.22-.84-.22a1.1,1.1,0,0,1,1.14.09,1,1,0,0,1,.37-.1,2.09,2.09,0,0,0-1.84-.63s-.75.07-.1,1c-1-.3-1.19.37-1.19.37s-.17.47.57.51c-.11.11-1.37.05-.56,1.64a1.54,1.54,0,0,0,1.53-1.09s-.12.56.19.67c0,0,.39.15.83-1.23,0,0-.21.74.34,1,0,0,.4.06.74-.74,0,0,.5-1.49,1.22-.7"/><path class="cls-2" d="M38.78,33.8a1.58,1.58,0,0,0-2,.17s.56.85.16,1.35a2,2,0,0,0-.38-1.09,4.07,4.07,0,0,0-.53.65,1.21,1.21,0,0,1,.09.92s-.12-.7-.25-.73a4.81,4.81,0,0,0-.58,1.73,2.07,2.07,0,0,1,.19-1.33c-.08-.06-.58.23-.58.23a.8.8,0,0,1,.67-.44,4.56,4.56,0,0,1,.5-.78c-.1-.1-.77.22-.77.22a1,1,0,0,1,.94-.46A1.1,1.1,0,0,1,36.5,34a1.9,1.9,0,0,0-1.73.34s-.57.41.35.8c-.95.24-.77.84-.77.84s.08.44.68.14c0,.14-1.06.67.3,1.56a1.42,1.42,0,0,0,.72-1.57s.16.5.46.45c0,0,.38-.06.09-1.35,0,0,.17.68.7.59,0,0,.35-.14.25-.92,0,0-.28-1.4.65-1.11"/><path class="cls-2" d="M38.78,33.8a1.58,1.58,0,0,0-2,.17s.56.85.16,1.35a2,2,0,0,0-.38-1.09,4.07,4.07,0,0,0-.53.65,1.21,1.21,0,0,1,.09.92s-.12-.7-.25-.73a4.81,4.81,0,0,0-.58,1.73,2.07,2.07,0,0,1,.19-1.33c-.08-.06-.58.23-.58.23a.8.8,0,0,1,.67-.44,4.56,4.56,0,0,1,.5-.78c-.1-.1-.77.22-.77.22a1,1,0,0,1,.94-.46A1.1,1.1,0,0,1,36.5,34a1.9,1.9,0,0,0-1.73.34s-.57.41.35.8c-.95.24-.77.84-.77.84s.08.44.68.14c0,.14-1.06.67.3,1.56a1.42,1.42,0,0,0,.72-1.57s.16.5.46.45c0,0,.38-.06.09-1.35,0,0,.17.68.7.59,0,0,.35-.14.25-.92,0,0-.28-1.4.65-1.11"/><path class="cls-2" d="M47.08,56.6a3.12,3.12,0,0,0,1.39,2.56,2.27,2.27,0,0,1,1.12-.46,3.55,3.55,0,0,0-.84.56,2.23,2.23,0,0,0,.71.36,1.08,1.08,0,0,1,.77-.33s-.57.29-.56.41a4.41,4.41,0,0,0,1.66,0,1.89,1.89,0,0,1-1.21.2c0,.09.36.44.36.44a.71.71,0,0,1-.57-.46,4.52,4.52,0,0,1-.81-.22c-.06.11.39.61.39.61a.93.93,0,0,1-.65-.7.82.82,0,0,1-.28-.14,1.73,1.73,0,0,0,.77,1.42s.5.38.6-.52c.46.76.93.44.93.44s.37-.19,0-.63c.13,0,.86.74,1.27-.69a1.29,1.29,0,0,0-1.56-.2s.39-.27.26-.52c0,0-.15-.31-1.2.29,0,0,.55-.33.33-.77,0,0-.31-.37-1.28.26a.39.39,0,0,1-.57,0,2.61,2.61,0,0,1-.75-2.25"/><path class="cls-2" d="M47.08,56.6a3.12,3.12,0,0,0,1.39,2.56,2.27,2.27,0,0,1,1.12-.46,3.55,3.55,0,0,0-.84.56,2.23,2.23,0,0,0,.71.36,1.08,1.08,0,0,1,.77-.33s-.57.29-.56.41a4.41,4.41,0,0,0,1.66,0,1.89,1.89,0,0,1-1.21.2c0,.09.36.44.36.44a.71.71,0,0,1-.57-.46,4.52,4.52,0,0,1-.81-.22c-.06.11.39.61.39.61a.93.93,0,0,1-.65-.7.82.82,0,0,1-.28-.14,1.73,1.73,0,0,0,.77,1.42s.5.38.6-.52c.46.76.93.44.93.44s.37-.19,0-.63c.13,0,.86.74,1.27-.69a1.29,1.29,0,0,0-1.56-.2s.39-.27.26-.52c0,0-.15-.31-1.2.29,0,0,.55-.33.33-.77,0,0-.31-.37-1.28.26a.39.39,0,0,1-.57,0,2.61,2.61,0,0,1-.75-2.25"/><path class="cls-2" d="M44.68,60.2a1.19,1.19,0,0,0-.46.19h0a14.21,14.21,0,0,1,2.61-4.3.36.36,0,0,1,.53.15,5.1,5.1,0,0,0,0,1.95c0,.07,0,.16,0,.23,0,2.09-.83,2.81-.83,2.81a3.34,3.34,0,0,0-1.75-.06,4.66,4.66,0,0,1,1.42.35,3.16,3.16,0,0,1-.78.83,1.6,1.6,0,0,0-1.22-.06s.93.11,1,.28a6.33,6.33,0,0,1-2.25.87,2.74,2.74,0,0,0,1.74-.33c.09.1-.26.78-.26.78a1.06,1.06,0,0,0,.54-.92,5.89,5.89,0,0,0,1-.7c.14.12-.23,1-.23,1A1.35,1.35,0,0,0,46.24,62a1.46,1.46,0,0,0,.31-.33A2.52,2.52,0,0,1,46.22,64s-.5.77-1.08-.41c-.25,1.26-1.06,1.07-1.06,1.07s-.59-.08-.23-.88c-.18,0-.81,1.43-2.08-.31a1.86,1.86,0,0,1,2-1s-.66-.18-.61-.58c0,0,0-.5,1.78-.21,0,0-.91-.18-.84-.89,0,0,.24-.64,1.87-.28,1.82-.66.72-2.72,1-4-.07,0-.25.25-.25.25a14.31,14.31,0,0,0-2,3.51h0"/><path class="cls-2" d="M44.68,60.2a1.19,1.19,0,0,0-.46.19h0a14.21,14.21,0,0,1,2.61-4.3.36.36,0,0,1,.53.15,5.1,5.1,0,0,0,0,1.95c0,.07,0,.16,0,.23,0,2.09-.83,2.81-.83,2.81a3.34,3.34,0,0,0-1.75-.06,4.66,4.66,0,0,1,1.42.35,3.16,3.16,0,0,1-.78.83,1.6,1.6,0,0,0-1.22-.06s.93.11,1,.28a6.33,6.33,0,0,1-2.25.87,2.74,2.74,0,0,0,1.74-.33c.09.1-.26.78-.26.78a1.06,1.06,0,0,0,.54-.92,5.89,5.89,0,0,0,1-.7c.14.12-.23,1-.23,1A1.35,1.35,0,0,0,46.24,62a1.46,1.46,0,0,0,.31-.33A2.52,2.52,0,0,1,46.22,64s-.5.77-1.08-.41c-.25,1.26-1.06,1.07-1.06,1.07s-.59-.08-.23-.88c-.18,0-.81,1.43-2.08-.31a1.86,1.86,0,0,1,2-1s-.66-.18-.61-.58c0,0,0-.5,1.78-.21,0,0-.91-.18-.84-.89,0,0,.24-.64,1.87-.28,1.82-.66.72-2.72,1-4-.07,0-.25.25-.25.25a14.31,14.31,0,0,0-2,3.51h0"/><path class="cls-2" d="M50.89,72.86a7.46,7.46,0,0,1-4-1.93,9.91,9.91,0,0,1-3-6.08h0a.68.68,0,0,1-.41-.4h0a9.84,9.84,0,0,0,3,6.51,9.17,9.17,0,0,0,5,2.24h0s.44.09.51.34c.32,1.79,1,1.71,1,1.71.65-.21.43-1,.43-1,.45,1.55.9,1.4.9,1.4.37-.11.26-.74.26-.74a1.77,1.77,0,0,0,1.71,1.28c1-1.74-.45-1.72-.57-1.85.85,0,.67-.53.67-.53s-.15-.75-1.35-.47c.79-.94-.08-1.05-.08-1.05a2.43,2.43,0,0,0-2.13.62,1.26,1.26,0,0,1,.41.13,1.32,1.32,0,0,1,1.32,0s-.93,0-1,.21a5.52,5.52,0,0,1,1,.55,1,1,0,0,1,1,.1s-.73,0-.78.08a2.5,2.5,0,0,1,1,1.31,5.71,5.71,0,0,0-1.67-1.52c-.12.1.16.92.16.92a1.4,1.4,0,0,1-.44-1,3,3,0,0,0-1-.32,4.19,4.19,0,0,0,.27,1.31,2.81,2.81,0,0,1-.63-1.42,1.55,1.55,0,0,0-.75-.15,3.49,3.49,0,0,1-1-.11"/><path class="cls-2" d="M50.89,72.86a7.46,7.46,0,0,1-4-1.93,9.91,9.91,0,0,1-3-6.08h0a.68.68,0,0,1-.41-.4h0a9.84,9.84,0,0,0,3,6.51,9.17,9.17,0,0,0,5,2.24h0s.44.09.51.34c.32,1.79,1,1.71,1,1.71.65-.21.43-1,.43-1,.45,1.55.9,1.4.9,1.4.37-.11.26-.74.26-.74a1.77,1.77,0,0,0,1.71,1.28c1-1.74-.45-1.72-.57-1.85.85,0,.67-.53.67-.53s-.15-.75-1.35-.47c.79-.94-.08-1.05-.08-1.05a2.43,2.43,0,0,0-2.13.62,1.26,1.26,0,0,1,.41.13,1.32,1.32,0,0,1,1.32,0s-.93,0-1,.21a5.52,5.52,0,0,1,1,.55,1,1,0,0,1,1,.1s-.73,0-.78.08a2.5,2.5,0,0,1,1,1.31,5.71,5.71,0,0,0-1.67-1.52c-.12.1.16.92.16.92a1.4,1.4,0,0,1-.44-1,3,3,0,0,0-1-.32,4.19,4.19,0,0,0,.27,1.31,2.81,2.81,0,0,1-.63-1.42,1.55,1.55,0,0,0-.75-.15,3.49,3.49,0,0,1-1-.11"/><path class="cls-2" d="M44.85,26.93s-.18-.91.37-1.29a1,1,0,0,0,.53.83,1.15,1.15,0,0,1,.14-.44,1.89,1.89,0,0,1,.65.64.62.62,0,0,1,.24-.39s1,1.32,0,1.86c0,0-.71,1.12-1.82-.07a.5.5,0,0,1,.3-.31s-.73-.2-.78-.74c0,0,.3-.11.39,0"/><path class="cls-2" d="M44.85,26.93s-.18-.91.37-1.29a1,1,0,0,0,.53.83,1.15,1.15,0,0,1,.14-.44,1.89,1.89,0,0,1,.65.64.62.62,0,0,1,.24-.39s1,1.32,0,1.86c0,0-.71,1.12-1.82-.07a.5.5,0,0,1,.3-.31s-.73-.2-.78-.74c0,0,.3-.11.39,0"/><path class="cls-2" d="M54.78,66.75s1.09.59,1.72,0a1.56,1.56,0,0,1-.9-1,1.52,1.52,0,0,0,.58,0,2.43,2.43,0,0,0-.57-1,.76.76,0,0,0,.54-.16S54.88,63,54,64a1.38,1.38,0,0,0-.59,2.26.82.82,0,0,0,.52-.29s0,.88.63,1.12c0,0,.28-.31.22-.45"/><path class="cls-2" d="M54.78,66.75s1.09.59,1.72,0a1.56,1.56,0,0,1-.9-1,1.52,1.52,0,0,0,.58,0,2.43,2.43,0,0,0-.57-1,.76.76,0,0,0,.54-.16S54.88,63,54,64a1.38,1.38,0,0,0-.59,2.26.82.82,0,0,0,.52-.29s0,.88.63,1.12c0,0,.28-.31.22-.45"/><path class="cls-2" d="M53.18,61.57a2.86,2.86,0,0,0,1.13,3l.06-.18a2.42,2.42,0,0,1-1-1.57,2.07,2.07,0,0,1,.31-1.44l-.07.07"/><path class="cls-2" d="M53.18,61.57a2.86,2.86,0,0,0,1.13,3l.06-.18a2.42,2.42,0,0,1-1-1.57,2.07,2.07,0,0,1,.31-1.44l-.07.07"/><path class="cls-2" d="M48.18,27.55c-.17.39-.55.74-1.42.55l0-.12c.79.17,1.14-.14,1.29-.53"/><path class="cls-2" d="M48.18,27.55c-.17.39-.55.74-1.42.55l0-.12c.79.17,1.14-.14,1.29-.53"/><path class="cls-2" d="M54.28,34.78a2.11,2.11,0,0,1-2.08-1.4c-.36-.77-.48-2.15-1.83-2.41a5,5,0,0,0-.65,0l0,.14c1.55,0,1.78.95,2.08,1.83,0,0,.18.5.25.64a2.1,2.1,0,0,0,2.07,1.37"/><path class="cls-2" d="M54.28,34.78a2.11,2.11,0,0,1-2.08-1.4c-.36-.77-.48-2.15-1.83-2.41a5,5,0,0,0-.65,0l0,.14c1.55,0,1.78.95,2.08,1.83,0,0,.18.5.25.64a2.1,2.1,0,0,0,2.07,1.37"/><path class="cls-2" d="M48.5,29.18c0,.14-.36.1-.24.36"/><path class="cls-2" d="M48.5,29.18c0,.14-.36.1-.24.36"/><path class="cls-2" d="M51.47,35.46a.87.87,0,0,0,.91-.34A.82.82,0,0,0,52.33,34c.27.46,0,.57,0,.57-.68.14-.24.8-.81.93"/><path class="cls-2" d="M51.47,35.46a.87.87,0,0,0,.91-.34A.82.82,0,0,0,52.33,34c.27.46,0,.57,0,.57-.68.14-.24.8-.81.93"/><path class="cls-2" d="M48.29,28.1a.9.9,0,0,0,.63.75A.83.83,0,0,0,50,28.41c-.34.4-.54.14-.54.14-.37-.6-.84.05-1.16-.45"/><path class="cls-2" d="M48.29,28.1a.9.9,0,0,0,.63.75A.83.83,0,0,0,50,28.41c-.34.4-.54.14-.54.14-.37-.6-.84.05-1.16-.45"/><path class="cls-2" d="M49.33,30.44a.77.77,0,0,0,.85.07.72.72,0,0,0,.39-.93c0,.46-.25.42-.25.42-.6-.14-.49.55-1,.44"/><path class="cls-2" d="M49.33,30.44a.77.77,0,0,0,.85.07.72.72,0,0,0,.39-.93c0,.46-.25.42-.25.42-.6-.14-.49.55-1,.44"/><path class="cls-2" d="M48.57,32.27a.9.9,0,0,0,1-.25.82.82,0,0,0,.07-1.15c.21.48-.11.55-.11.55-.7.07-.32.78-.91.85"/><path class="cls-2" d="M48.57,32.27a.9.9,0,0,0,1-.25.82.82,0,0,0,.07-1.15c.21.48-.11.55-.11.55-.7.07-.32.78-.91.85"/><path class="cls-2" d="M49.85,36.37l-.12.11a3.9,3.9,0,0,1-2.21,1.14l.08-.16a3.38,3.38,0,0,0,2.65-2.31l0,0a4.08,4.08,0,0,0-1-4.41s-2.93-2.48-.27-4.34a.42.42,0,0,1,.45,0c-2.67,1.86.27,4.34.27,4.34s2.17,2.05.24,5.56"/><path class="cls-2" d="M49.85,36.37l-.12.11a3.9,3.9,0,0,1-2.21,1.14l.08-.16a3.38,3.38,0,0,0,2.65-2.31l0,0a4.08,4.08,0,0,0-1-4.41s-2.93-2.48-.27-4.34a.42.42,0,0,1,.45,0c-2.67,1.86.27,4.34.27,4.34s2.17,2.05.24,5.56"/><path class="cls-2" d="M49.62,30.92l-.14-.39a1.86,1.86,0,0,0,.93.44"/><path class="cls-2" d="M49.62,30.92l-.14-.39a1.86,1.86,0,0,0,.93.44"/><path class="cls-2" d="M47.09,34s-.07-1,.56-1.3a1.08,1.08,0,0,0,.44.94,1.26,1.26,0,0,1,.2-.45,2.05,2.05,0,0,1,.6.75.61.61,0,0,1,.3-.37s.86,1.5-.19,1.94c0,0-.88,1.07-1.88-.31a.5.5,0,0,1,.34-.28s-.73-.3-.72-.87c0,0,.33-.08.42,0"/><path class="cls-2" d="M47.09,34s-.07-1,.56-1.3a1.08,1.08,0,0,0,.44.94,1.26,1.26,0,0,1,.2-.45,2.05,2.05,0,0,1,.6.75.61.61,0,0,1,.3-.37s.86,1.5-.19,1.94c0,0-.88,1.07-1.88-.31a.5.5,0,0,1,.34-.28s-.73-.3-.72-.87c0,0,.33-.08.42,0"/><path class="cls-2" d="M45.31,38s-.9-.56-.77-1.25a1.32,1.32,0,0,0,1.11.24,1.08,1.08,0,0,1-.22-.43,2,2,0,0,1,1,0,.61.61,0,0,1-.11-.46s1.72.26,1.41,1.36c0,0,.27,1.47-1.43,1.38a.72.72,0,0,1,0-.5s-.66.36-1.09,0c0,0,.11-.34.23-.35"/><path class="cls-2" d="M45.31,38s-.9-.56-.77-1.25a1.32,1.32,0,0,0,1.11.24,1.08,1.08,0,0,1-.22-.43,2,2,0,0,1,1,0,.61.61,0,0,1-.11-.46s1.72.26,1.41,1.36c0,0,.27,1.47-1.43,1.38a.72.72,0,0,1,0-.5s-.66.36-1.09,0c0,0,.11-.34.23-.35"/><path class="cls-2" d="M51.14,39.38s1,.15,1.34-.45a1.06,1.06,0,0,1-.9-.52,1.17,1.17,0,0,0,.46-.16,2.07,2.07,0,0,0-.7-.66.65.65,0,0,0,.4-.26s-1.43-1-2,0c0,0-1.14.8.16,1.91a.54.54,0,0,0,.31-.32s.24.74.81.78c0,0,.1-.32,0-.41"/><path class="cls-2" d="M51.14,39.38s1,.15,1.34-.45a1.06,1.06,0,0,1-.9-.52,1.17,1.17,0,0,0,.46-.16,2.07,2.07,0,0,0-.7-.66.65.65,0,0,0,.4-.26s-1.43-1-2,0c0,0-1.14.8.16,1.91a.54.54,0,0,0,.31-.32s.24.74.81.78c0,0,.1-.32,0-.41"/><path class="cls-2" d="M56.32,35.77s.89-.4.89-1.1a1.07,1.07,0,0,1-1,0,1.1,1.1,0,0,0,.3-.38,2,2,0,0,0-.94-.18.63.63,0,0,0,.19-.44s-1.73-.06-1.63,1.08c0,0-.53,1.28,1.15,1.52a.53.53,0,0,0,.09-.44s.61.5,1.1.23c0,0-.08-.32-.2-.36"/><path class="cls-2" d="M56.32,35.77s.89-.4.89-1.1a1.07,1.07,0,0,1-1,0,1.1,1.1,0,0,0,.3-.38,2,2,0,0,0-.94-.18.63.63,0,0,0,.19-.44s-1.73-.06-1.63,1.08c0,0-.53,1.28,1.15,1.52a.53.53,0,0,0,.09-.44s.61.5,1.1.23c0,0-.08-.32-.2-.36"/><path class="cls-2" d="M55.08,32.28s.56-.8.2-1.4a1.07,1.07,0,0,1-.87.57,1.07,1.07,0,0,0,.06-.48,2,2,0,0,0-.9.33.63.63,0,0,0-.06-.48s-1.52.84-.85,1.76c0,0,.2,1.38,1.77.72a.53.53,0,0,0-.15-.42s.78.12,1.07-.37c0,0-.24-.24-.36-.2"/><path class="cls-2" d="M55.08,32.28s.56-.8.2-1.4a1.07,1.07,0,0,1-.87.57,1.07,1.07,0,0,0,.06-.48,2,2,0,0,0-.9.33.63.63,0,0,0-.06-.48s-1.52.84-.85,1.76c0,0,.2,1.38,1.77.72a.53.53,0,0,0-.15-.42s.78.12,1.07-.37c0,0-.24-.24-.36-.2"/><path class="cls-2" d="M49.64,36.53a1,1,0,0,0,.15,1l.05-.09a1.16,1.16,0,0,1,.1-1.15l-.3.25"/><path class="cls-2" d="M49.64,36.53a1,1,0,0,0,.15,1l.05-.09a1.16,1.16,0,0,1,.1-1.15l-.3.25"/><path class="cls-2" d="M50.48,34.57s-.72,1.93-2.12.61v.08c.9.84,1.54.44,1.89,0"/><path class="cls-2" d="M50.48,34.57s-.72,1.93-2.12.61v.08c.9.84,1.54.44,1.89,0"/><path class="cls-2" d="M51.75,32.42c.29.53,1,.23,1,.23l0-.11s-.73.24-1-.3"/><path class="cls-2" d="M51.75,32.42c.29.53,1,.23,1,.23l0-.11s-.73.24-1-.3"/><path class="cls-2" d="M53.68,50.23a2.44,2.44,0,0,0-.78,2.82c.25,1,1.2,2.29.2,3.54a6,6,0,0,1-.54.54l-.08-.4c1.42-1.14.86-1.95.46-3,0,0-.23-.57-.27-.75a2.46,2.46,0,0,1,.8-2.8"/><path class="cls-2" d="M53.68,50.23a2.44,2.44,0,0,0-.78,2.82c.25,1,1.2,2.29.2,3.54a6,6,0,0,1-.54.54l-.08-.4c1.42-1.14.86-1.95.46-3,0,0-.23-.57-.27-.75a2.46,2.46,0,0,1,.8-2.8"/><path class="cls-2" d="M50.66,51.76a1,1,0,0,1,1.07-.39,1,1,0,0,1,.84,1.06c-.12-.61-.48-.46-.48-.46-.72.4-.82-.53-1.43-.21"/><path class="cls-2" d="M50.66,51.76a1,1,0,0,1,1.07-.39,1,1,0,0,1,.84,1.06c-.12-.61-.48-.46-.48-.46-.72.4-.82-.53-1.43-.21"/><path class="cls-2" d="M53.74,60.72a1.1,1.1,0,0,1,0-1.22,1,1,0,0,1,1.37-.45c-.65-.11-.64.31-.64.31.14.86-.83.63-.73,1.36"/><path class="cls-2" d="M53.74,60.72a1.1,1.1,0,0,1,0-1.22,1,1,0,0,1,1.37-.45c-.65-.11-.64.31-.64.31.14.86-.83.63-.73,1.36"/><path class="cls-2" d="M50.56,57.53a1,1,0,0,1,1-.48.92.92,0,0,1,.9.93c-.17-.57-.49-.4-.49-.4-.64.45-.83-.42-1.38,0"/><path class="cls-2" d="M50.56,57.53a1,1,0,0,1,1-.48.92.92,0,0,1,.9.93c-.17-.57-.49-.4-.49-.4-.64.45-.83-.42-1.38,0"/><path class="cls-2" d="M49,52.61h-.17a4.2,4.2,0,0,0-2.59.61l.17.07a3.6,3.6,0,0,1,3.76,0v0a4.37,4.37,0,0,1,2.28,4.25s-.66,4.06,2.8,3.73c0,0,.23,0,.36-.31-3.46.34-2.8-3.73-2.8-3.73s.36-3.18-3.67-4.69"/><path class="cls-2" d="M49,52.61h-.17a4.2,4.2,0,0,0-2.59.61l.17.07a3.6,3.6,0,0,1,3.76,0v0a4.37,4.37,0,0,1,2.28,4.25s-.66,4.06,2.8,3.73c0,0,.23,0,.36-.31-3.46.34-2.8-3.73-2.8-3.73s.36-3.18-3.67-4.69"/><path class="cls-2" d="M48.38,56.43s.62.83,1.35.67A1.17,1.17,0,0,1,49.44,56a1.19,1.19,0,0,0,.48.22,2.29,2.29,0,0,0,0-1,.68.68,0,0,0,.5.1s-.34-1.83-1.5-1.46c0,0-1.47-.25-1.32,1.56a.54.54,0,0,0,.47,0s-.38.75,0,1.21c0,0,.33-.16.33-.3"/><path class="cls-2" d="M48.38,56.43s.62.83,1.35.67A1.17,1.17,0,0,1,49.44,56a1.19,1.19,0,0,0,.48.22,2.29,2.29,0,0,0,0-1,.68.68,0,0,0,.5.1s-.34-1.83-1.5-1.46c0,0-1.47-.25-1.32,1.56a.54.54,0,0,0,.47,0s-.38.75,0,1.21c0,0,.33-.16.33-.3"/><path class="cls-2" d="M44.17,54.45s-.34,1.08.25,1.55a1.38,1.38,0,0,1,.74-1,1.14,1.14,0,0,0,.12.5,2.2,2.2,0,0,0,.78-.67.68.68,0,0,0,.23.46s1.22-1.41.2-2.09c0,0-.8-1.39-2.13-.13a.82.82,0,0,0,.35.41s-.78.16-.89.75c0,0,.33.2.44.13"/><path class="cls-2" d="M44.17,54.45s-.34,1.08.25,1.55a1.38,1.38,0,0,1,.74-1,1.14,1.14,0,0,0,.12.5,2.2,2.2,0,0,0,.78-.67.68.68,0,0,0,.23.46s1.22-1.41.2-2.09c0,0-.8-1.39-2.13-.13a.82.82,0,0,0,.35.41s-.78.16-.89.75c0,0,.33.2.44.13"/><path class="cls-2" d="M48,49.25s.68-.78,1.4-.56A1.13,1.13,0,0,0,49,49.74a1.35,1.35,0,0,1,.49-.19,2.2,2.2,0,0,1-.12,1,.71.71,0,0,1,.51-.06s-.47,1.8-1.61,1.34c0,0-1.48.14-1.19-1.66a.56.56,0,0,1,.47.05s-.32-.78.11-1.2c0,0,.31.18.3.32"/><path class="cls-2" d="M48,49.25s.68-.78,1.4-.56A1.13,1.13,0,0,0,49,49.74a1.35,1.35,0,0,1,.49-.19,2.2,2.2,0,0,1-.12,1,.71.71,0,0,1,.51-.06s-.47,1.8-1.61,1.34c0,0-1.48.14-1.19-1.66a.56.56,0,0,1,.47.05s-.32-.78.11-1.2c0,0,.31.18.3.32"/><path class="cls-2" d="M54.75,47.79s1.09-.32,1.62.3a1.24,1.24,0,0,0-.95.75A1.44,1.44,0,0,1,56,49a2.42,2.42,0,0,1-.71.87.77.77,0,0,1,.51.25s-1.5,1.38-2.28.29c0,0-1.45-.74-.13-2.24a.61.61,0,0,1,.41.32s.16-.9.81-1c0,0,.18.35.09.48"/><path class="cls-2" d="M54.75,47.79s1.09-.32,1.62.3a1.24,1.24,0,0,0-.95.75A1.44,1.44,0,0,1,56,49a2.42,2.42,0,0,1-.71.87.77.77,0,0,1,.51.25s-1.5,1.38-2.28.29c0,0-1.45-.74-.13-2.24a.61.61,0,0,1,.41.32s.16-.9.81-1c0,0,.18.35.09.48"/><path class="cls-2" d="M56.39,54.26s1.09.34,1.19,1.16a1.27,1.27,0,0,0-1.22.09,1.51,1.51,0,0,1,.41.41,2.48,2.48,0,0,1-1.07.34.75.75,0,0,1,.28.48s-2,.32-2-1c0,0-.8-1.42,1.12-1.94a.63.63,0,0,1,.17.5s.63-.67,1.25-.43c0,0,0,.39-.19.45"/><path class="cls-2" d="M56.39,54.26s1.09.34,1.19,1.16a1.27,1.27,0,0,0-1.22.09,1.51,1.51,0,0,1,.41.41,2.48,2.48,0,0,1-1.07.34.75.75,0,0,1,.28.48s-2,.32-2-1c0,0-.8-1.42,1.12-1.94a.63.63,0,0,1,.17.5s.63-.67,1.25-.43c0,0,0,.39-.19.45"/><path class="cls-2" d="M48.72,52.62a1,1,0,0,1-.57-.91l.11,0a1.25,1.25,0,0,0,.87.87h-.41"/><path class="cls-2" d="M48.72,52.62a1,1,0,0,1-.57-.91l.11,0a1.25,1.25,0,0,0,.87.87h-.41"/><path class="cls-2" d="M50.76,53.64s-1.92-1.08-2.15,1l-.06-.06c.14-1.31,1-1.42,1.52-1.34"/><path class="cls-2" d="M50.76,53.64s-1.92-1.08-2.15,1l-.06-.06c.14-1.31,1-1.42,1.52-1.34"/><path class="cls-2" d="M53.16,56.28a1.36,1.36,0,0,1,1.05-.56l0,.22a2.18,2.18,0,0,0-1.13.62,1.54,1.54,0,0,0-.32.6c0,.25-.23-.06-.23-.06l.58-.82"/><path class="cls-2" d="M53.16,56.28a1.36,1.36,0,0,1,1.05-.56l0,.22a2.18,2.18,0,0,0-1.13.62,1.54,1.54,0,0,0-.32.6c0,.25-.23-.06-.23-.06l.58-.82"/><path class="cls-2" d="M63.43,26.64s-1.08.27-1.23,1.06a1.21,1.21,0,0,1,1.18.16,1.28,1.28,0,0,0-.41.38,2.35,2.35,0,0,0,1,.39.7.7,0,0,0-.31.46s1.94.43,2.06-.88c0,0,.87-1.34-1-1.95a.56.56,0,0,0-.19.47s-.59-.69-1.2-.49c0,0,0,.39.15.45"/><path class="cls-2" d="M63.43,26.64s-1.08.27-1.23,1.06a1.21,1.21,0,0,1,1.18.16,1.28,1.28,0,0,0-.41.38,2.35,2.35,0,0,0,1,.39.7.7,0,0,0-.31.46s1.94.43,2.06-.88c0,0,.87-1.34-1-1.95a.56.56,0,0,0-.19.47s-.59-.69-1.2-.49c0,0,0,.39.15.45"/><path class="cls-2" d="M66.73,33.12a1,1,0,0,0-1-.52.94.94,0,0,0-.94.93c.18-.58.51-.39.51-.39.65.48.87-.41,1.43,0"/><path class="cls-2" d="M66.73,33.12a1,1,0,0,0-1-.52.94.94,0,0,0-.94.93c.18-.58.51-.39.51-.39.65.48.87-.41,1.43,0"/><path class="cls-2" d="M69.36,33a1,1,0,0,0-.89.67.94.94,0,0,0,.42,1.25c-.44-.42-.13-.63-.13-.63.72-.38,0-1,.6-1.29"/><path class="cls-2" d="M69.36,33a1,1,0,0,0-.89.67.94.94,0,0,0,.42,1.25c-.44-.42-.13-.63-.13-.63.72-.38,0-1,.6-1.29"/><path class="cls-2" d="M66.11,29.29l.08-.17A4.49,4.49,0,0,1,68,27v.21a3.84,3.84,0,0,0-1.81,3.6h0A4.67,4.67,0,0,0,69.18,35a5.33,5.33,0,0,1,.84.38s0,.29-.3.29a5.48,5.48,0,0,0-1-.47s-3.19-1.23-2.65-5.8"/><path class="cls-2" d="M66.11,29.29l.08-.17A4.49,4.49,0,0,1,68,27v.21a3.84,3.84,0,0,0-1.81,3.6h0A4.67,4.67,0,0,0,69.18,35a5.33,5.33,0,0,1,.84.38s0,.29-.3.29a5.48,5.48,0,0,0-1-.47s-3.19-1.23-2.65-5.8"/><path class="cls-2" d="M70.05,30.57s.49,1,0,1.62a1.21,1.21,0,0,0-.88-.8,1.35,1.35,0,0,1,0,.56,2.42,2.42,0,0,1-1-.54.73.73,0,0,1-.15.52s-1.57-1.22-.65-2.15c0,0,.48-1.52,2.14-.48a.61.61,0,0,1-.25.45s.91,0,1.14.61c0,0-.31.22-.44.16"/><path class="cls-2" d="M70.05,30.57s.49,1,0,1.62a1.21,1.21,0,0,0-.88-.8,1.35,1.35,0,0,1,0,.56,2.42,2.42,0,0,1-1-.54.73.73,0,0,1-.15.52s-1.57-1.22-.65-2.15c0,0,.48-1.52,2.14-.48a.61.61,0,0,1-.25.45s.91,0,1.14.61c0,0-.31.22-.44.16"/><path class="cls-2" d="M70.24,25.6s1.19.21,1.35,1a1.5,1.5,0,0,0-1.29.22,1.38,1.38,0,0,1,.43.36,2.37,2.37,0,0,1-1,.41A.73.73,0,0,1,70,28s-1.93.47-2.08-.84c0,0-.93-1.44.92-2.09a.82.82,0,0,1,.22.54s.53-.67,1.16-.48c0,0,0,.41-.1.48"/><path class="cls-2" d="M70.24,25.6s1.19.21,1.35,1a1.5,1.5,0,0,0-1.29.22,1.38,1.38,0,0,1,.43.36,2.37,2.37,0,0,1-1,.41A.73.73,0,0,1,70,28s-1.93.47-2.08-.84c0,0-.93-1.44.92-2.09a.82.82,0,0,1,.22.54s.53-.67,1.16-.48c0,0,0,.41-.1.48"/><path class="cls-2" d="M66.26,29a1.09,1.09,0,0,0-.58-1l0,.12a1.32,1.32,0,0,1,.4,1.26l.2-.39"/><path class="cls-2" d="M66.26,29a1.09,1.09,0,0,0-.58-1l0,.12a1.32,1.32,0,0,1,.4,1.26l.2-.39"/><path class="cls-2" d="M66.22,31.47s-.07-2.36,2-1.57l0-.09c-1.31-.5-1.82.21-2,.79"/><path class="cls-2" d="M66.22,31.47s-.07-2.36,2-1.57l0-.09c-1.31-.5-1.82.21-2,.79"/><path class="cls-2" d="M49.33,65.73a2.44,2.44,0,0,0,2.41-1.66c.37-.88.36-2.63,2-3a2.69,2.69,0,0,0,.79.1v.16c-1.92,0-2.1,1.16-2.38,2.15,0,0-.16.56-.23.73a2.45,2.45,0,0,1-2.41,1.63"/><path class="cls-2" d="M49.33,65.73a2.44,2.44,0,0,0,2.41-1.66c.37-.88.36-2.63,2-3a2.69,2.69,0,0,0,.79.1v.16c-1.92,0-2.1,1.16-2.38,2.15,0,0-.16.56-.23.73a2.45,2.45,0,0,1-2.41,1.63"/><path class="cls-2" d="M52.46,66.48a1,1,0,0,1-1-.31.89.89,0,0,1,0-1.25c-.25.52.09.61.09.61.76.1.32.84,1,1"/><path class="cls-2" d="M52.46,66.48a1,1,0,0,1-1-.31.89.89,0,0,1,0-1.25c-.25.52.09.61.09.61.76.1.32.84,1,1"/><path class="cls-2" d="M47,66.94s-1-.38-1.07-1.16a1.21,1.21,0,0,0,1.17,0,1.41,1.41,0,0,1-.37-.41,2.23,2.23,0,0,1,1-.26.73.73,0,0,1-.24-.48s1.93-.2,1.9,1.08c0,0,.69,1.4-1.18,1.79a.61.61,0,0,1-.13-.48s-.64.6-1.22.33c0,0,.07-.37.21-.41"/><path class="cls-2" d="M47,66.94s-1-.38-1.07-1.16a1.21,1.21,0,0,0,1.17,0,1.41,1.41,0,0,1-.37-.41,2.23,2.23,0,0,1,1-.26.73.73,0,0,1-.24-.48s1.93-.2,1.9,1.08c0,0,.69,1.4-1.18,1.79a.61.61,0,0,1-.13-.48s-.64.6-1.22.33c0,0,.07-.37.21-.41"/><path class="cls-2" d="M48.45,63.15s-.65-.81-.31-1.47a1.14,1.14,0,0,0,1,.54,1.2,1.2,0,0,1-.09-.51A2.3,2.3,0,0,1,50,62a.65.65,0,0,1,0-.5s1.67.77,1,1.8c0,0-.11,1.47-1.82.88a.54.54,0,0,1,.13-.45s-.82.17-1.16-.32c0,0,.24-.27.37-.24"/><path class="cls-2" d="M48.45,63.15s-.65-.81-.31-1.47a1.14,1.14,0,0,0,1,.54,1.2,1.2,0,0,1-.09-.51A2.3,2.3,0,0,1,50,62a.65.65,0,0,1,0-.5s1.67.77,1,1.8c0,0-.11,1.47-1.82.88a.54.54,0,0,1,.13-.45s-.82.17-1.16-.32c0,0,.24-.27.37-.24"/><path class="cls-2" d="M52.18,63.16c-.3.57-1.24.27-1.24.27l0-.12s.93.23,1.23-.33"/><path class="cls-2" d="M52.18,63.16c-.3.57-1.24.27-1.24.27l0-.12s.93.23,1.23-.33"/></svg>