<svg id="图层_1" data-name="图层 1" xmlns="http://www.w3.org/2000/svg" viewBox="0 0 100 100"><defs><style>.cls-1{fill-rule:evenodd;}</style></defs><title>logohunt03</title><path class="cls-1" d="M62.24,47.51l-24.9-.95c-3.76-.16-11,.53-12-2.29,1.73,4.36,4.19,10.57,5.92,14.95,4.06,10.23,8.18,8.69,14,8.92l24.66,1A14.43,14.43,0,0,1,82,76.72c-1.35-3.43-5.62-14.16-7-17.59-2.59-6.52-6-11.36-12.83-11.62"/><path class="cls-1" d="M29.5,36.4q-4.18-.18-8.37-.32c-4.07-.17-9.56.23-13.17-2.8,2.19,7.83,6.3,11.8,11.08,13.43a11.62,11.62,0,0,1-3.41,6.75c2.25,4.16,7.12,4,9.94,4.07,1.39.06,2.76.12,4.15.15l0-.06-5.18-13c-1.14-2.23.31-3.08,2.36-3.12l9.41.27c2.39.12,2.62-2.09,1.58-3.66-1.48-1.51-3.59-1.68-8.37-1.69"/></svg>