<svg id="图层_1" data-name="图层 1" xmlns="http://www.w3.org/2000/svg" viewBox="0 0 100 100"><title>logohunt03</title><path d="M53.55,33.86a8.65,8.65,0,0,0,1-.74,8.23,8.23,0,0,0,2.82-4.83,7.33,7.33,0,0,0,.15-1.47c0-.82-2.15-2.15-4.75-2.46a25.73,25.73,0,0,0-16.64,3.71,26.64,26.64,0,0,0-3.48,2.59c-1.8,1.59-2.22,3-1.26,2.89.58-.07,1.16-.11,1.75-.14a32.87,32.87,0,0,1,10.1,1.26c3.83,1.06,7.36,1,10.27-.81"/><path d="M65.81,51.67l0,0a21.44,21.44,0,0,1-2.17,1.18,20.64,20.64,0,0,1-9.13,2.18,18.55,18.55,0,0,1-9.09-2.68A66.45,66.45,0,0,1,39,47.68a14.54,14.54,0,0,0-5.89-3,11.18,11.18,0,0,0-7.65,1.4l-.29.19c-.15.11.32,0,1.08-.12a7.29,7.29,0,0,1,1.4-.05,8.25,8.25,0,0,1,4.16,1.51,22.37,22.37,0,0,1,5.79,6.7c1.71,2.75,3.13,5.6,4.23,7.35.16.27.31.5.46.71a17.74,17.74,0,0,0,11.6,6.92,16.32,16.32,0,0,0,11.22-2.56,28.91,28.91,0,0,0,6.79-6.08,18.31,18.31,0,0,0,3.61-8.49,25.49,25.49,0,0,0-.43-7.33c-.52-2.56-1.45-4.05-1.59-3.47-.09.35-.18.69-.29,1a16.9,16.9,0,0,1-7.41,9.3"/><path d="M55.85,37.56c-4.31,2.67-9.26,2.56-13.74,1.29a28.48,28.48,0,0,0-8.75-1.09,19.09,19.09,0,0,0-3.69.49,7.06,7.06,0,0,0-3.82,2.13c-.18.46,1.49.06,3.85-.17a15.24,15.24,0,0,1,4.28.18,18.86,18.86,0,0,1,7.66,3.82,64.39,64.39,0,0,0,6,4.4,14,14,0,0,0,7,2.09,16.22,16.22,0,0,0,7.21-1.76A18.85,18.85,0,0,0,63.49,48a12.56,12.56,0,0,0,5.58-6.93,12.8,12.8,0,0,0,.55-4.24c-.07-2.36-2-5.72-4-7.23s-3.74-2-3.8-1.44q-.06.48-.15,1a12.58,12.58,0,0,1-4.35,7.38,14.87,14.87,0,0,1-1.48,1.06"/><path d="M38.15,63.94c-1.26-2-2.64-4.81-4.23-7.35a23.83,23.83,0,0,0-3.41-4.48,5.18,5.18,0,0,0-3.1-1.69,3.55,3.55,0,0,0-2.13.63q-.3.2-.63.45c-.33.26-.47,2.64.21,5.17A25.84,25.84,0,0,0,57,74.81c2.51-.73,2.63-1.2.38-1.06a18.77,18.77,0,0,1-4.08-.18,22,22,0,0,1-14.53-8.73c-.2-.29-.39-.59-.59-.9"/></svg>