<svg id="图层_1" data-name="图层 1" xmlns="http://www.w3.org/2000/svg" viewBox="0 0 100 100"><title>logohunt02</title><path d="M33.79,50.43c0-6.45,0-12.89,0-19.33,0-1.05.29-1.28,1.3-1.27,4.5.06,9,.05,13.5,0,.89,0,1.12.26,1.11,1.12-.06,2.4,0,4.81,0,7.21,0,.85.21,1.09,1.08,1.16a15.82,15.82,0,0,1-1.16,31.61c-4.81,0-9.62,0-14.44,0-1,0-1.37-.23-1.36-1.33C33.82,63.23,33.79,56.83,33.79,50.43Zm6.05,4.65a10.44,10.44,0,0,0,18.47,6.68c.92-1.11.92-1.11-.34-1.9a18.32,18.32,0,0,1-1.58-1c-.68-.52-1.11-.55-1.78.21A5.89,5.89,0,1,1,47,50.18a5.8,5.8,0,0,1,7.37.75c.68.71,1.11.69,1.79.11a13.15,13.15,0,0,1,1.9-1.32c.67-.4.69-.74.19-1.33a10.54,10.54,0,0,0-11.51-3.11A10.4,10.4,0,0,0,39.84,55.08Z"/></svg>