<svg id="图层_1" data-name="图层 1" xmlns="http://www.w3.org/2000/svg" viewBox="0 0 100 100"><title>logohunt02</title><path d="M37.36,70.85c-3.07-.24-6.6-.41-9.8-2.34-3.42-2.07-4.15-7.6-.7-9.83.63-.41.52-.67.12-1.18-1.91-2.43-1.61-4.92.86-6.76.7-.53.69-.79.09-1.42-4.67-4.84-3-12.18,3.28-14.7a14.64,14.64,0,0,1,10.66-.27,1,1,0,0,0,1.38-.4c3.43-4.66,11.2-4.82,14.83-.09.53.69.94.64,1.68.39,5-1.72,10.81-.54,14,4.09a11.74,11.74,0,0,1,.75,1.22c.7,1.41.69,1.41-.71,2.09-1.15.56-2.3,1.12-3.43,1.72-.55.29-.86.25-1.07-.4a7.2,7.2,0,0,0-.67-1.4,4.89,4.89,0,0,0-8.59,0,10.56,10.56,0,0,0-.24,10.36,5.49,5.49,0,0,0,9.38.74C70.5,51,70.5,51,72.38,52.07c.52.29,1,.61,1.57.87,1.9.93,1.73.75.74,2.45-2.83,4.88-9,6-13.72,4.74C55,58.54,52,53.3,51.88,47.87a15.16,15.16,0,0,1,2.56-9.55.8.8,0,0,0,0-1.08,4.63,4.63,0,0,0-7-.39A.79.79,0,0,0,47.28,38c3.38,4.67,1.79,11.58-5,13.82a16.3,16.3,0,0,1-7.93.61c-.85-.15-1.59-.14-1.78.85s.65,1.16,1.34,1.35c2.51.67,5.08.51,7.63.68a17.48,17.48,0,0,1,5.17.94A6.17,6.17,0,0,1,51,61.76c.28,2.85-.52,5.21-3,6.8S42.21,70.87,37.36,70.85ZM37.1,47.38a6.35,6.35,0,0,0,1.07,0c1.67-.3,3.22-.85,3.85-2.61a4.12,4.12,0,0,0-.72-4.38,6.07,6.07,0,0,0-7.38-.88,4.1,4.1,0,0,0-2,4C32.1,46,33.94,47.42,37.1,47.38Zm1,18.55a22.93,22.93,0,0,0,4.52-.51c1.49-.36,2.35-1.23,2.31-2.34s-.74-1.79-2.37-2.06c-.2,0-.39-.06-.59-.08-2.91-.24-5.82-.41-8.71-.76a2,2,0,0,0-2.15,1.11,2.1,2.1,0,0,0,.12,2.58,4.22,4.22,0,0,0,2.47,1.58A26.1,26.1,0,0,0,38.13,65.93Z"/></svg>