<svg id="图层_1" data-name="图层 1" xmlns="http://www.w3.org/2000/svg" viewBox="0 0 100 100"><title>logohunt03</title><polygon points="50 22.51 44.64 24.73 42.43 30.09 44.64 35.44 50 37.66 55.35 35.44 57.57 30.09 55.35 24.73 50 22.51"/><polygon points="64.08 43.49 58.73 41.27 56.51 35.92 58.73 30.56 64.08 28.34 69.44 30.56 71.65 35.92 69.44 41.27 64.08 43.49"/><polygon points="64.56 44.64 62.34 50 64.56 55.35 69.92 57.57 75.27 55.35 77.49 50 75.27 44.64 69.92 42.43 64.56 44.64"/><polygon points="64.08 71.66 58.73 69.44 56.51 64.08 58.73 58.73 64.08 56.51 69.44 58.73 71.65 64.08 69.44 69.44 64.08 71.66"/><polygon points="44.65 64.56 42.43 69.92 44.65 75.27 50 77.49 55.36 75.27 57.57 69.91 55.36 64.56 50 62.34 44.65 64.56"/><polygon points="35.92 43.49 30.56 41.27 28.34 35.92 30.56 30.56 35.92 28.35 41.27 30.56 43.49 35.92 41.27 41.27 35.92 43.49"/><polygon points="24.73 44.65 22.51 50 24.73 55.35 30.09 57.57 35.44 55.35 37.66 50 35.44 44.65 30.09 42.43 24.73 44.65"/><polygon points="35.92 71.66 30.56 69.44 28.34 64.08 30.56 58.73 35.92 56.51 41.27 58.73 43.49 64.08 41.27 69.44 35.92 71.66"/></svg>