<svg id="图层_1" data-name="图层 1" xmlns="http://www.w3.org/2000/svg" viewBox="0 0 100 100"><title>logohunt03</title><path d="M54.28,39a2.64,2.64,0,1,1-2.64-2.64A2.64,2.64,0,0,1,54.28,39"/><path d="M75.54,43.39C72.74,32.45,58.62,26.6,44,30.34a34,34,0,0,0-20,15A33,33,0,0,1,39.89,34.22c13.76-4.76,27.57-.92,30.85,8.56s-5.23,21-19,25.78a36.06,36.06,0,0,1-12.2,2,41.12,41.12,0,0,0,14.73-1.4c14.61-3.74,24.06-14.86,21.26-25.81"/><path d="M68.18,44.74c-.09-.38-.19-.76-.31-1.13s-.26-.65-.4-1C66,43.12,57.33,45.77,52,44c-5.09-1.69-10.27-6.36-11.49-7.5l-.17,0c-1,.33-1.89.7-2.79,1.1,1.5.73,6.4,3.52,7.22,9.26C45.67,53,43.42,65.38,43,67.85c.75-.08,1.5-.18,2.26-.32.53-2.17,3.57-14.18,5.73-12.31s3.32,8.17,3.52,9.31c.62-.3,1.23-.61,1.82-1-.22-2.09-1.15-12.55,1.56-15.26s8.7-3.41,10.34-3.58"/></svg>