<svg id="图层_1" data-name="图层 1" xmlns="http://www.w3.org/2000/svg" viewBox="0 0 100 100"><defs><style>.cls-1{fill:#231815;}.cls-2{fill:#fff;}</style></defs><title>logohunt02</title><path class="cls-1" d="M50.1,69.1c-16.44,0-18.3-4.1-18.3-19C31.8,34,34.34,30.9,50,30.9,66.53,30.9,68.2,35,68.2,50.06s-1.73,19-18.1,19"/><path class="cls-2" d="M47.18,50.86h6.07v-1H47.18ZM42.78,50A18.55,18.55,0,0,0,43,53.77c.65,3.19,3,3.79,7,3.79S56.36,57,57,53.77l-1-.2c-.4,2-1.34,2.94-5.91,2.94s-5.56-.91-6-2.95A17.84,17.84,0,0,1,43.82,50a22,22,0,0,1,.19-3.2l-1-.14A22.55,22.55,0,0,0,42.78,50Zm19.9-3.2c-.35-8.07-3-10.17-12.66-10.17S37.76,38.58,37.34,46.7l1,.1c.39-7.57,2.35-9.1,11.64-9.1,9.74,0,11.31,2.07,11.62,9.17l0,3.17-.07,3.6c-.37,6.6-2,8.66-11.56,8.66S38.78,60.14,38.4,53.64l-1,.11c.45,7.57,3.18,9.6,12.71,9.6s12.17-2,12.6-9.65L62.74,50Zm-6.65.1,1-.14c-.45-3.28-2.16-4.34-7.06-4.34-4.34,0-6.5.64-7,4.26l1,.15c.41-2.7,1.59-3.36,6-3.36C54.72,43.49,55.68,44.39,56,46.92Z"/></svg>