<svg id="图层_1" data-name="图层 1" xmlns="http://www.w3.org/2000/svg" viewBox="0 0 100 100"><title>logohunt03</title><path d="M39.6,41.69a17.77,17.77,0,0,0,2.08-2.08,1.61,1.61,0,0,0-.34-1.85C40.27,36.45,39,34.9,37.45,33c-.77-.94-1.84-1.34-2.31-.79a27.76,27.76,0,0,1-2.92,2.92c-.53.46-.14,1.53.8,2.31l4.73,3.88c.67.53,1.47.66,1.85.34"/><path d="M50.49,52.07c.52-.56,1-1.06,1.59-1.59a.65.65,0,0,0,0-1c-.56-.53-1.06-1-1.59-1.59a.65.65,0,0,0-1,0c-.52.56-1,1.06-1.59,1.59a.67.67,0,0,0,0,1c.56.51,1.07,1,1.59,1.58a.66.66,0,0,0,1,0"/><path d="M45.8,47.41c.57-.53,1.08-1,1.6-1.61a.88.88,0,0,0,0-1.14c-.59-.69-1.25-1.49-2.06-2.48-.4-.49-1-.62-1.35-.24a17.52,17.52,0,0,1-2,2c-.38.32-.25.95.24,1.36,1,.8,1.79,1.46,2.48,2a.88.88,0,0,0,1.14,0"/><path d="M56,58.06a17.6,17.6,0,0,1,2-2c.38-.32.25-.95-.25-1.35-1-.81-1.79-1.47-2.48-2.06a.88.88,0,0,0-1.13,0c-.58.53-1.09,1-1.61,1.61a.89.89,0,0,0,0,1.14c.6.69,1.26,1.49,2.07,2.48.4.49,1,.62,1.34.24"/><path d="M64.86,67.76a27.76,27.76,0,0,1,2.92-2.92c.54-.46.14-1.53-.8-2.3-1.87-1.55-3.42-2.82-4.73-3.89a1.63,1.63,0,0,0-1.85-.34,17.85,17.85,0,0,0-2.08,2.09c-.32.37-.19,1.19.34,1.85C59.73,63.55,61,65.1,62.55,67c.77.94,1.85,1.33,2.31.79"/><path d="M50.72,65c.75-1.27,1.41-2.32,2.05-3.24A1.62,1.62,0,0,0,52.56,60c-.8-1-1.45-1.82-2-2.52a.64.64,0,0,0-1,0c-.59.7-1.24,1.52-2,2.52a1.62,1.62,0,0,0-.2,1.77c.63.92,1.29,2,2,3.24a.77.77,0,0,0,1.42,0"/><path d="M58.4,76.39c.89-1.57,1.74-3,2.61-4.19.44-.62.09-2-.68-2.91-1.52-1.89-2.77-3.46-3.83-4.79-.53-.67-1.17-.8-1.49-.33-.64.94-1.3,2-2.06,3.31a2.92,2.92,0,0,0,.1,2.63c.93,1.61,2,3.48,3.29,5.67.64,1.11,1.6,1.4,2.06.61"/><path d="M72.21,61c1.24-.87,2.61-1.72,4.18-2.62.79-.45.5-1.42-.6-2.06L70.11,53a2.89,2.89,0,0,0-2.63-.1c-1.29.76-2.37,1.43-3.31,2.07-.46.32-.33,1,.33,1.49,1.34,1,2.91,2.3,4.8,3.83,1,.76,2.29,1.1,2.91.67"/><path d="M50.52,42.51c.58-.71,1.24-1.52,2-2.53a1.58,1.58,0,0,0,.2-1.77c-.63-.92-1.29-2-2-3.24a.77.77,0,0,0-1.43,0c-.75,1.27-1.41,2.32-2,3.24a1.62,1.62,0,0,0,.2,1.77c.8,1,1.45,1.83,2,2.53a.65.65,0,0,0,1,0"/><path d="M55.34,47.37c.69-.59,1.49-1.25,2.48-2.06.5-.4.62-1,.25-1.35a16.22,16.22,0,0,1-2-2c-.32-.37-.95-.25-1.35.25-.81,1-1.47,1.79-2.06,2.48a.91.91,0,0,0,0,1.14c.53.57,1,1.08,1.61,1.6a.88.88,0,0,0,1.14,0"/><path d="M45,35.83c.64-.93,1.31-2,2.06-3.3A2.91,2.91,0,0,0,47,29.89c-.93-1.61-2-3.48-3.29-5.67-.64-1.11-1.61-1.4-2.06-.61-.9,1.57-1.75,2.95-2.62,4.19-.43.62-.09,2,.68,2.9,1.53,1.9,2.78,3.47,3.83,4.81.54.65,1.17.79,1.49.32"/><path d="M61.79,52.75c.92-.63,2-1.29,3.24-2a.77.77,0,0,0,0-1.42c-1.26-.75-2.32-1.41-3.24-2a1.62,1.62,0,0,0-1.77.2c-1,.8-1.82,1.45-2.52,2a.65.65,0,0,0,0,1c.7.58,1.52,1.24,2.53,2a1.6,1.6,0,0,0,1.76.19"/><path d="M40,52.56c1-.8,1.83-1.45,2.53-2a.64.64,0,0,0,0-1c-.7-.59-1.52-1.24-2.53-2a1.58,1.58,0,0,0-1.77-.2c-.92.63-2,1.29-3.24,2a.77.77,0,0,0,0,1.43c1.27.75,2.33,1.41,3.24,2a1.62,1.62,0,0,0,1.77-.2"/><path d="M32.53,47.07c1.28-.76,2.36-1.43,3.3-2.07.47-.32.33-1-.33-1.49l-4.8-3.82c-.94-.77-2.29-1.12-2.91-.68-1.24.87-2.61,1.72-4.18,2.62-.79.45-.5,1.42.6,2.06L29.89,47a2.94,2.94,0,0,0,2.64.1"/><path d="M41.69,60.4a17,17,0,0,0-2.08-2.08,1.6,1.6,0,0,0-1.85.34C36.45,59.73,34.9,61,33,62.55c-.94.77-1.34,1.85-.79,2.31a27.76,27.76,0,0,1,2.92,2.92c.46.53,1.53.14,2.31-.8l3.88-4.73c.53-.67.66-1.47.34-1.85"/><path d="M67.77,35.14a26.93,26.93,0,0,1-2.93-2.92c-.46-.54-1.53-.14-2.3.8-1.55,1.87-2.82,3.42-3.89,4.73a1.61,1.61,0,0,0-.33,1.85,17,17,0,0,0,2.08,2.08,1.61,1.61,0,0,0,1.85-.34c1.3-1.07,2.86-2.34,4.72-3.89.94-.77,1.34-1.85.8-2.31"/><path d="M76.39,41.6c-1.57-.89-3-1.74-4.18-2.61-.63-.44-2-.09-2.91.68L64.5,43.5c-.67.53-.8,1.17-.33,1.49.94.64,2,1.31,3.31,2.06a2.89,2.89,0,0,0,2.63-.1c1.61-.93,3.48-2,5.68-3.29,1.1-.63,1.39-1.6.6-2.06"/><path d="M61,27.79c-.86-1.24-1.72-2.61-2.62-4.18-.45-.79-1.42-.5-2.06.6C55,26.41,54,28.28,53,29.89a2.92,2.92,0,0,0-.09,2.63c.75,1.29,1.42,2.37,2.07,3.31.31.46,1,.33,1.48-.33,1-1.34,2.3-2.91,3.83-4.8.76-.95,1.11-2.29.67-2.91"/><path d="M35.83,55c-.93-.64-2-1.31-3.3-2.06A2.92,2.92,0,0,0,29.9,53c-1.62.93-3.49,2-5.68,3.29-1.11.64-1.4,1.61-.61,2.06,1.57.9,2.95,1.75,4.19,2.62.63.43,2,.09,2.91-.68,1.89-1.53,3.47-2.78,4.8-3.83.66-.54.79-1.17.32-1.49"/><path d="M47.07,67.47c-.76-1.28-1.43-2.36-2.07-3.3-.32-.47-1-.33-1.49.33-1,1.33-2.3,2.91-3.82,4.8-.77.94-1.11,2.29-.68,2.91.87,1.24,1.73,2.62,2.62,4.18.45.79,1.42.5,2.06-.6L47,70.11a3,3,0,0,0,.09-2.64"/><path d="M45.32,57.82c.81-1,1.47-1.79,2-2.48a.88.88,0,0,0,0-1.14c-.53-.57-1-1.08-1.61-1.6a.88.88,0,0,0-1.14,0c-.69.59-1.48,1.25-2.47,2.06-.5.4-.63,1-.25,1.35a18.53,18.53,0,0,1,2,2c.31.38.94.25,1.35-.25"/></svg>