<svg id="图层_1" data-name="图层 1" xmlns="http://www.w3.org/2000/svg" viewBox="0 0 100 100"><defs><style>.cls-1{fill:#231815;}</style></defs><title>logohunt02</title><path class="cls-1" d="M61.19,40.56a1.89,1.89,0,0,0-1-2.49,1.93,1.93,0,0,0-.79-.17A1.87,1.87,0,0,0,57.71,39l-7.6,16.76-1.66-3.67,4.8-10.61,0,0,.41-.91a1.89,1.89,0,0,0-1-2.49,1.93,1.93,0,0,0-.79-.17A1.87,1.87,0,0,0,50.2,39l-.4.88-3.44,7.6-3.44-7.59-.4-.89a1.89,1.89,0,0,0-1.73-1.12A1.93,1.93,0,0,0,39,39a1.87,1.87,0,0,0,0,1.52l.22.49.19.42h0l4.81,10.63L42.6,55.78,35.41,39.91,35,39a1.89,1.89,0,0,0-1.73-1.12,2,2,0,0,0-.79.17,1.9,1.9,0,0,0-1,2.49l.41.91h0l8.87,19.58a.14.14,0,0,0,0,.06,1.75,1.75,0,0,0,.22.4l0,0,0,0a1.85,1.85,0,0,0,1.46.7h0a1.86,1.86,0,0,0,1.46-.71l0,0,0-.06a1.71,1.71,0,0,0,.22-.4s0,0,0,0l2-4.34,2,4.33v0a2.16,2.16,0,0,0,.29.51,1.87,1.87,0,0,0,1.48.72h0a1.9,1.9,0,0,0,1.38-.59l0,0,0,0a1.79,1.79,0,0,0,.36-.61l8.85-19.54.42-.92"/><path class="cls-1" d="M68,39a1.91,1.91,0,0,0-1-1,2,2,0,0,0-.79-.17A1.87,1.87,0,0,0,64.54,39l-8.9,19.62-.44,1a1.9,1.9,0,0,0,1,2.52,2,2,0,0,0,.79.17,1.88,1.88,0,0,0,1.71-1.09L67.6,41.47l.41-.91A1.87,1.87,0,0,0,68,39"/></svg>