<svg id="图层_1" data-name="图层 1" xmlns="http://www.w3.org/2000/svg" viewBox="0 0 100 100"><defs><style>.cls-1{fill:#231815;}</style></defs><title>logohunt01</title><path class="cls-1" d="M80,46a.95.95,0,1,1-1-.9.95.95,0,0,1,1,.9"/><path class="cls-1" d="M72.87,33.26a1.18,1.18,0,0,1-1.1,1.23,1.17,1.17,0,1,1,1.1-1.23"/><path class="cls-1" d="M79.75,43.1a1.4,1.4,0,1,1-1.47-1.33,1.4,1.4,0,0,1,1.47,1.33"/><path class="cls-1" d="M77,31.46a2,2,0,1,1-2.12-1.91A2,2,0,0,1,77,31.46"/><path class="cls-1" d="M79.44,34.61a1.65,1.65,0,1,1-1.73-1.56,1.65,1.65,0,0,1,1.73,1.56"/><path class="cls-1" d="M80.61,63.6a1,1,0,1,1-1.06-.94,1,1,0,0,1,1.06.94"/><path class="cls-1" d="M78.39,65.57a1.2,1.2,0,0,1-2.4.12,1.2,1.2,0,0,1,2.4-.12"/><path class="cls-1" d="M75.68,67.34A1.4,1.4,0,1,1,74.21,66a1.39,1.39,0,0,1,1.47,1.3"/><path class="cls-1" d="M72.58,69.06a1.6,1.6,0,1,1-1.67-1.48,1.57,1.57,0,0,1,1.67,1.48"/><path class="cls-1" d="M79.48,38.92a2.22,2.22,0,1,1-2.33-2.1,2.22,2.22,0,0,1,2.33,2.1"/><path class="cls-1" d="M39.75,68.7a2.8,2.8,0,1,1-3-2.64,2.81,2.81,0,0,1,3,2.64"/><path class="cls-1" d="M30.13,57.68a2.47,2.47,0,1,1-2.59-2.33,2.47,2.47,0,0,1,2.59,2.33"/><path class="cls-1" d="M24.32,52.42a2.47,2.47,0,1,1-2.59-2.33,2.46,2.46,0,0,1,2.59,2.33"/><path class="cls-1" d="M32,46.94a2.18,2.18,0,1,1-2.29-2.06A2.18,2.18,0,0,1,32,46.94"/><path class="cls-1" d="M33.41,62.66a2.18,2.18,0,1,1-2.29-2.06,2.17,2.17,0,0,1,2.29,2.06"/><path class="cls-1" d="M43.45,30.34a3,3,0,1,1-3.19-2.87,3,3,0,0,1,3.19,2.87"/><path class="cls-1" d="M37.07,56.46a2.82,2.82,0,1,1-3-2.67,2.82,2.82,0,0,1,3,2.67"/><path class="cls-1" d="M26.22,45.35A3.11,3.11,0,1,1,23,42.41a3.11,3.11,0,0,1,3.27,2.94"/><path class="cls-1" d="M79.29,27.91a1.34,1.34,0,1,1-1.4-1.27,1.34,1.34,0,0,1,1.4,1.27"/><path class="cls-1" d="M75.49,35.66A1.41,1.41,0,1,1,74,34.33a1.41,1.41,0,0,1,1.48,1.33"/><path class="cls-1" d="M43.13,71.51a1.54,1.54,0,1,1-1.62-1.46,1.54,1.54,0,0,1,1.62,1.46"/><path class="cls-1" d="M36.53,51.53a1.4,1.4,0,1,1-1.47-1.32,1.4,1.4,0,0,1,1.47,1.32"/><path class="cls-1" d="M65.28,28a1.65,1.65,0,1,1-1.73-1.56A1.65,1.65,0,0,1,65.28,28"/><path class="cls-1" d="M27.16,62.5A1.6,1.6,0,1,1,25.48,61a1.6,1.6,0,0,1,1.68,1.5"/><path class="cls-1" d="M38.68,61.29A1.6,1.6,0,1,1,37,59.78a1.6,1.6,0,0,1,1.68,1.51"/><path class="cls-1" d="M36.56,47.83a1.59,1.59,0,1,1-1.68-1.51,1.6,1.6,0,0,1,1.68,1.51"/><path class="cls-1" d="M48,28.07a2,2,0,1,1-2.14-1.92A2,2,0,0,1,48,28.07"/><path class="cls-1" d="M68.8,70.45A1.7,1.7,0,1,1,67,68.84a1.7,1.7,0,0,1,1.78,1.61"/><path class="cls-1" d="M64.21,71.53a1.87,1.87,0,1,1-2-1.77,1.87,1.87,0,0,1,2,1.77"/><path class="cls-1" d="M59.57,72a2,2,0,1,1-2.12-1.91A2,2,0,0,1,59.57,72"/><path class="cls-1" d="M54.61,72a2.27,2.27,0,1,1-2.39-2.15A2.27,2.27,0,0,1,54.61,72"/><path class="cls-1" d="M26.77,39a1.82,1.82,0,1,1-1.91-1.72A1.82,1.82,0,0,1,26.77,39"/><path class="cls-1" d="M32.13,34.93a2.33,2.33,0,1,1-2.45-2.2,2.33,2.33,0,0,1,2.45,2.2"/><path class="cls-1" d="M60.84,27.26a1.55,1.55,0,0,1-3.1.17,1.55,1.55,0,1,1,3.1-.17"/><path class="cls-1" d="M33.13,67.54a1.61,1.61,0,0,1-1.52,1.7,1.61,1.61,0,1,1,1.52-1.7"/><path class="cls-1" d="M37.14,42.69a2.34,2.34,0,1,1-2.46-2.22,2.33,2.33,0,0,1,2.46,2.22"/><path class="cls-1" d="M35.07,31.49a1.31,1.31,0,1,1-1.37-1.24,1.31,1.31,0,0,1,1.37,1.24"/><path class="cls-1" d="M29.54,52A2,2,0,1,1,27.4,50,2,2,0,0,1,29.54,52"/><path class="cls-1" d="M34.53,38.09a1.31,1.31,0,0,1-1.24,1.37,1.3,1.3,0,1,1,1.24-1.37"/><path class="cls-1" d="M31.79,41.21a2.55,2.55,0,1,1-2.68-2.41,2.56,2.56,0,0,1,2.68,2.41"/><path class="cls-1" d="M49.34,71.22a2.67,2.67,0,1,1-2.81-2.53,2.66,2.66,0,0,1,2.81,2.53"/><path class="cls-1" d="M52.43,27.19a1.6,1.6,0,0,1-3.2.17,1.6,1.6,0,1,1,3.2-.17"/><path class="cls-1" d="M56.63,27.05A1.51,1.51,0,1,1,55,25.61a1.5,1.5,0,0,1,1.59,1.44"/><path class="cls-1" d="M23.89,57.73a1.49,1.49,0,0,1-1.41,1.57,1.49,1.49,0,1,1,1.41-1.57"/><path class="cls-1" d="M69.54,29.32a1.91,1.91,0,1,1-2-1.8,1.9,1.9,0,0,1,2,1.8"/><path class="cls-1" d="M39.45,35.82a2.24,2.24,0,0,1-2.12,2.36,2.25,2.25,0,1,1-.24-4.49,2.23,2.23,0,0,1,2.36,2.13"/><path class="cls-1" d="M72.8,30.16a1.3,1.3,0,0,1-2.59.14,1.3,1.3,0,1,1,2.59-.14"/><path class="cls-1" d="M43.71,67.79a1.3,1.3,0,1,1-1.36-1.23,1.29,1.29,0,0,1,1.36,1.23"/><path class="cls-1" d="M79.38,30.93a.94.94,0,0,1-.9,1,.95.95,0,1,1,.9-1"/><path class="cls-1" d="M40.53,64.46a1,1,0,0,1-.9,1,1,1,0,1,1-.1-1.9,1,1,0,0,1,1,.9"/><path class="cls-1" d="M28.89,65.91a1,1,0,1,1-1-.9,1,1,0,0,1,1,.9"/><path class="cls-1" d="M33,51.51a1.14,1.14,0,0,1-2.27.12A1.14,1.14,0,1,1,33,51.51"/><path class="cls-1" d="M36.07,64.22a.95.95,0,1,1-1-.9.95.95,0,0,1,1,.9"/></svg>