<svg id="图层_1" data-name="图层 1" xmlns="http://www.w3.org/2000/svg" viewBox="0 0 100 100"><title>logohunt03</title><path d="M49.6,46.86S42.41,23.43,75.53,23.22c-4.15,7-6.45,18.66-6.45,18.66S68.32,53.34,51.81,49c-.81-2.67,7.65-14.28,7.65-14.28s-7,4.59-9.86,12.11"/><path d="M44.48,52.59s12-20.08-21.39-25.81c2.77,7.06,2.74,18,2.74,18s-1.56,10.54,16,9.38C43.16,51.9,37,39.94,37,39.94s6.15,5.34,7.5,12.65"/><path d="M48.52,55.69S64.44,39.81,76.91,71.06c-7.11-1.21-17.2,1.12-17.2,1.12S50.33,75.9,47.62,58.61c1.81-1.79,14.17,1.71,14.17,1.71s-6.25-4.85-13.27-4.63"/><path d="M43.52,58s-15.8-4.6-15,18.8c4.54-3.08,12.22-4.94,12.22-4.94s7.6-.76,4.24-12.34c-1.8-.51-9.27,5.69-9.27,5.69s2.85-5,7.76-7.21"/></svg>