<svg id="图层_1" data-name="图层 1" xmlns="http://www.w3.org/2000/svg" viewBox="0 0 100 100"><title>logohunt02</title><path d="M74.94,74.23H41.06V25.77H74.94ZM57.58,48.62c-.36-.62-.62-1.09-.91-1.54A17.08,17.08,0,0,0,42.94,38.8c-1-.08-1.06,0-1.07,1,0,.58.05,1.17,0,1.75-.07.76.21.95,1,1a13.6,13.6,0,0,1,1.19,27c-.7.12-1.68-.26-2,.44a5.17,5.17,0,0,0-.11,2.17c0,1.27,0,1.27,1.31,1.19A17.34,17.34,0,0,0,59.07,58.2a8.36,8.36,0,0,1,.24-1.83c5,4.83,10.88,2.67,13.23-.65a8.47,8.47,0,0,0-2.11-11.85A8.06,8.06,0,0,0,64,42.62C60.74,43.34,58.71,45.44,57.58,48.62Zm-8.14-13.5c2.25,0,4.51,0,6.77,0,.58,0,.83-.15.82-.78,0-2.17,0-4.35,0-6.52,0-.64-.19-.88-.86-.88q-6.7,0-13.42,0c-.78,0-.9.33-.89,1,0,2.1,0,4.19,0,6.29,0,.7.2.94.93.92C45,35.09,47.22,35.12,49.44,35.12Z"/><path d="M65.77,44.2a6.62,6.62,0,1,1-6.62,6.58A6.65,6.65,0,0,1,65.77,44.2Zm3.81,6.65a3.86,3.86,0,1,0-3.83,3.86A3.81,3.81,0,0,0,69.58,50.85Z"/></svg>