<svg id="图层_1" data-name="图层 1" xmlns="http://www.w3.org/2000/svg" viewBox="0 0 100 100"><defs><style>.cls-1{fill:#fff;}</style></defs><title>logohunt01</title><path d="M73.46,27.34V73.43H27.37V27.34ZM39,43.45H61.83V38.88H39Zm18.27,4.69H43.61v4.49H57.26Zm-4.57,9.22H48.2v4.41h4.49Z"/><path class="cls-1" d="M73.46,27.34H27.37V73.43a5.76,5.76,0,0,1-.28-1.18c0-15,0-30.09,0-45.21H40.57q15.85,0,31.71,0A4.94,4.94,0,0,1,73.46,27.34Z"/><path class="cls-1" d="M39,43.45V38.88H61.83v4.57Z"/><path class="cls-1" d="M57.26,48.14v4.49H43.61V48.14Z"/><path class="cls-1" d="M52.69,57.36v4.41H48.2V57.36Z"/></svg>