<svg id="图层_1" data-name="图层 1" xmlns="http://www.w3.org/2000/svg" viewBox="0 0 100 100"><defs><style>.cls-1{fill:#231815;}</style></defs><title>logohunt02</title><path class="cls-1" d="M47.28,50.9H32.81v5.43H47.28ZM32.81,49.1H47.28V43.66H32.81ZM48.13,40H32a.92.92,0,0,1-.75-.3.89.89,0,0,1,.08-1.27l8.14-7.24a.9.9,0,0,1,1.2,0l8.14,7.24a.89.89,0,0,1,.08,1.27A.92.92,0,0,1,48.13,40Zm-13.84-1.8H45.83l-5.77-5.13Zm29.29,5.43H56.33V50.9h7.25Zm1,9H52.71V67.19H67.19V52.71ZM55.43,41.86h9.06a.9.9,0,0,1,.9.9v8.15H68.1a.9.9,0,0,1,.9.9V68.1a.91.91,0,0,1-.9.9H51.81a.9.9,0,0,1-.9-.9V51.81a.9.9,0,0,1,.9-.9h2.71V42.76A.9.9,0,0,1,55.43,41.86ZM50.9,39.14a.9.9,0,0,1,.32-.68v0l8.12-7.21a.9.9,0,1,1,1.2,1.35l-6.37,5.66H68.1a.9.9,0,0,1,.9.9h0v10a.91.91,0,1,1-1.81,0V40H52.71v9.05a.91.91,0,1,1-1.81,0Zm-18.09,19v8l6.65-5.91a.91.91,0,0,1,1.2,0h0l8.13,7.24a.9.9,0,1,1-1.2,1.35l-7.53-6.71-7.49,6.65A.91.91,0,0,1,31,68.1V42.76a.9.9,0,0,1,.9-.9H48.19a.9.9,0,0,1,.9.9h0V57.24a.9.9,0,0,1-.9.9Z"/></svg>