<svg id="图层_1" data-name="图层 1" xmlns="http://www.w3.org/2000/svg" viewBox="0 0 100 100"><title>logohunt03</title><path d="M31.91,52.31c4-7,8.79-12.06,14-15.28-6,.38-11.71,4.23-16,11.7s-6.53,17.33-6.75,27.75a81.73,81.73,0,0,1,8.82-24.17"/><path d="M51.57,66.22c-8.06,0-14.83-1.59-20.21-4.45,3.34,5,9.52,8,18.14,8s18.28-3,27.41-8a81.85,81.85,0,0,1-25.34,4.45"/><path d="M54.69,43.25c4,7,6.05,13.63,6.25,19.72,2.68-5.4,2.2-12.25-2.11-19.72S47.08,28.92,38.17,23.52A81.86,81.86,0,0,1,54.69,43.25"/><path d="M46.13,64.24a30.57,30.57,0,0,1,9.31-16.77,30.58,30.58,0,0,1-18.61,0,30.56,30.56,0,0,1,9.3,16.77"/></svg>