<svg id="图层_1" data-name="图层 1" xmlns="http://www.w3.org/2000/svg" viewBox="0 0 100 100"><title>logohunt03</title><path d="M76.86,54.5a2.65,2.65,0,0,0-2.73-3H56.61a5.09,5.09,0,0,0-5.09,5.09V74.13a2.67,2.67,0,0,0,3.06,2.71,28.44,28.44,0,0,0,3.22-.75,1.43,1.43,0,0,0,1-1.35V63.19l-1,1a2.38,2.38,0,0,1-3.36-3.36l5.68-5.67a2.91,2.91,0,0,1,2.05-1,3,3,0,0,1,2.05,1L70,60.8a2.38,2.38,0,0,1-3.36,3.36l-1-1v7.06a1,1,0,0,0,1.6.82A27.24,27.24,0,0,0,76.86,54.5"/><path d="M54.5,23.14a2.65,2.65,0,0,0-3,2.73V43.39a5.09,5.09,0,0,0,5.09,5.09H74.13a2.67,2.67,0,0,0,2.71-3.06,28.44,28.44,0,0,0-.75-3.22,1.43,1.43,0,0,0-1.35-1H63.19l1,1a2.37,2.37,0,0,1-3.35,3.36l-5.68-5.68a2.91,2.91,0,0,1-1-2.05,3,3,0,0,1,1-2L60.8,30a2.38,2.38,0,0,1,3.36,3.36l-1,1h7.06a1,1,0,0,0,.82-1.6A27.24,27.24,0,0,0,54.5,23.14"/><path d="M23.14,45.5a2.65,2.65,0,0,0,2.73,3H43.39a5.09,5.09,0,0,0,5.09-5.09V25.87a2.67,2.67,0,0,0-3.06-2.71,28.44,28.44,0,0,0-3.22.75,1.43,1.43,0,0,0-1,1.35V36.81l1-1a2.38,2.38,0,0,1,3.36,3.36l-5.68,5.67a2.91,2.91,0,0,1-2.05,1,3,3,0,0,1-2-1L30,39.2a2.38,2.38,0,0,1,3.36-3.36l1,1V29.75a1,1,0,0,0-1.6-.82A27.24,27.24,0,0,0,23.14,45.5"/><path d="M45.5,76.86a2.65,2.65,0,0,0,3-2.73V56.61a5.09,5.09,0,0,0-5.09-5.09H25.87a2.67,2.67,0,0,0-2.71,3.06,28.44,28.44,0,0,0,.75,3.22,1.43,1.43,0,0,0,1.35,1H36.81l-1-1a2.37,2.37,0,1,1,3.35-3.36l5.68,5.68a2.91,2.91,0,0,1,1,2.05,3,3,0,0,1-1,2.05L39.2,70a2.38,2.38,0,0,1-3.36-3.36l1-1H29.75a1,1,0,0,0-.82,1.6A27.26,27.26,0,0,0,45.5,76.86"/></svg>