<svg id="图层_1" data-name="图层 1" xmlns="http://www.w3.org/2000/svg" viewBox="0 0 100 100"><defs><style>.cls-1{fill:#231815;}</style></defs><title>logohunt02</title><path class="cls-1" d="M67.81,48.83a4.69,4.69,0,0,0-4.69,4.68V56.4l-3.46-3.46a4.68,4.68,0,0,1-.39-1.63V31.78a4.2,4.2,0,0,0-4.19-4.19H31.69a4.2,4.2,0,0,0-4.19,4.19V55.17a4.2,4.2,0,0,0,4.19,4.19H52.25a1.64,1.64,0,0,1,.84.27l3.4,3.4H53.72a4.69,4.69,0,0,0,0,9.38H67.81a4.7,4.7,0,0,0,4.69-4.69V53.51a4.69,4.69,0,0,0-4.69-4.68m2.82,18.89a2.8,2.8,0,0,1-2.8,2.8H53.74a2.8,2.8,0,0,1,0-5.6h7.34l-6.63-6.63a3.47,3.47,0,0,0-2.18-.82H31.71a2.3,2.3,0,0,1-2.3-2.3V31.78a2.3,2.3,0,0,1,2.3-2.3H55.1a2.3,2.3,0,0,1,2.3,2.3V51.41a5.73,5.73,0,0,0,1,2.87L65,61V53.51a2.8,2.8,0,1,1,5.6,0Z"/></svg>