<svg id="图层_1" data-name="图层 1" xmlns="http://www.w3.org/2000/svg" viewBox="0 0 100 100"><title>logohunt03</title><path d="M45.15,62.69c3.76-.75,5.67-2.85,5.83-7.87C51.2,48.11,41.5,41.9,41.5,41.9s.51,3.5-3.2,7.17c-.6.61-3.89,3.8-4.11,6.37-.38,4.47,3.14,7.49,8,7.53v2.58q1.45-.18,3-.27Z"/><path d="M61.52,60.46c6.65-1.24,10-4.86,10.32-13.64.38-11.6-16.38-22.33-16.38-22.33s.87,6.05-5.53,12.4A40.31,40.31,0,0,0,45.45,42c2.9,2.29,8.23,7.24,8.07,12.48A10.29,10.29,0,0,1,52,60.29a18.62,18.62,0,0,0,5.74.61v5.55c1.44.3,2.69.6,3.81.89Z"/><path d="M23.09,72.38a43.24,43.24,0,0,1,27.14-5.52c11.72,1.68,13.83,4.4,19.63,2.93a14.14,14.14,0,0,0,7-4.65s-1.58,9.65-10.86,10.34-27.58-11.38-43-3.1"/></svg>