<svg id="图层_1" data-name="图层 1" xmlns="http://www.w3.org/2000/svg" viewBox="0 0 100 100"><defs><style>.cls-1{fill:#231815;}</style></defs><title>logohunt01</title><path class="cls-1" d="M49.61,63.86l5.51-12s.32-.81.92-.81.93.8.93.8l5.56,12m-2.41-23.4a5.78,5.78,0,0,1-8.18-8.18A5.81,5.81,0,0,1,56,30.58a5.78,5.78,0,0,1,4.09,9.88m-26,39.59h8.08l3.66-7.81a4.18,4.18,0,0,1,1-1.58,3.37,3.37,0,0,1,1.57-.42h15a2.91,2.91,0,0,1,1.75.37,5.3,5.3,0,0,1,1.11,1.54l3.7,7.9h7.94L61.6,45.23a9.38,9.38,0,0,0,1.8-1.49,10.42,10.42,0,1,0-14.74,0,12.35,12.35,0,0,0,1.89,1.43Z"/></svg>