<svg id="图层_1" data-name="图层 1" xmlns="http://www.w3.org/2000/svg" viewBox="0 0 100 100"><title>logohunt03</title><polygon points="76.91 42.18 70.95 39.05 59.43 60.25 60.63 65.14 65.46 63.23 76.91 42.18"/><path d="M57.8,66.8a5.45,5.45,0,0,1-4,1.92A13,13,0,0,1,49,67.26a20.89,20.89,0,0,0-6.43-1.88,13.66,13.66,0,0,0-1.4-.07,11.57,11.57,0,0,0-6.94,2.11l.74-23a14,14,0,0,0,5.57,1.68,3.54,3.54,0,0,0,2.21-.66,3.26,3.26,0,0,0,1.16-2.34,5.22,5.22,0,0,0,0-.67A4,4,0,0,0,41.4,38.6a6.73,6.73,0,0,0-1.33-.45c.33-.11.67-.23,1-.36A11.72,11.72,0,0,0,44,36.25a3.27,3.27,0,0,0,1.49-2.49,3.89,3.89,0,0,0-1.7-2.84,4,4,0,0,0-2.58-1c-2.24,0-4.13,1.86-5.55,3.58a25.42,25.42,0,0,0-1.6,2.24,11.83,11.83,0,0,0-.65-1.89,7.26,7.26,0,0,0-1.58-2.35,4,4,0,0,0-2.79-1.14,6.53,6.53,0,0,0-3.23,1,6.19,6.19,0,0,0-1.71,1.4,2.49,2.49,0,0,0-.59,1.52,3,3,0,0,0,1.26,2.2,15,15,0,0,0,4.38,2.22c-.63.25-1.39.58-2.16,1a12.41,12.41,0,0,0-2.6,1.7,3.39,3.39,0,0,0-1.31,2.38A2.63,2.63,0,0,0,24,45.67a5.51,5.51,0,0,0,3.76,2,3.53,3.53,0,0,0,2.3-.91,13,13,0,0,0,2.92-4.49s-2,3.37-5.22,4.31c-.73.21-1.74-.39-3-1.63a1.54,1.54,0,0,1-.55-1.1,2.32,2.32,0,0,1,.95-1.57,14.55,14.55,0,0,1,3.66-2.16c.62-.27,1.18-.49,1.59-.64l.64-.22,1.29-.46L31,38.18s-.4-.11-1-.31a18.74,18.74,0,0,1-3.47-1.48,5.8,5.8,0,0,1-1.4-1,1.56,1.56,0,0,1-.48-1,1.32,1.32,0,0,1,.35-.84,5.41,5.41,0,0,1,1.42-1.15,5.33,5.33,0,0,1,2.67-.88,2.89,2.89,0,0,1,2.05.84,7.35,7.35,0,0,1,1.74,3.1,13.13,13.13,0,0,1,.35,1.36c.07.35.1.55.1.55l.22,1.7.8-1.52s.21-.4.6-1A20.16,20.16,0,0,1,37.59,33a5.64,5.64,0,0,1,3.63-2,2.84,2.84,0,0,1,1.88.74c1,.85,1.31,1.52,1.31,2a2.22,2.22,0,0,1-1.06,1.63c-1,.81-6.49,3.61-6.49,3.61h.2l.58,0a8.39,8.39,0,0,1,3.3.61,3,3,0,0,1,1.89,2.9,3.56,3.56,0,0,1,0,.55,2.16,2.16,0,0,1-.75,1.6,2.39,2.39,0,0,1-1.54.44,10.69,10.69,0,0,1-3.81-1c-.58-.24-1.08-.49-1.44-.68l-.56-.3-.78-.46-.85,25.77h0v0h0l0,1.61.77-.95v0c.23-.26,2.54-2.7,7.23-2.7a11.74,11.74,0,0,1,1.3.06,19.69,19.69,0,0,1,6.1,1.79,14,14,0,0,0,5.29,1.56h0a4.2,4.2,0,0,0,3.95-3"/></svg>