<svg id="图层_1" data-name="图层 1" xmlns="http://www.w3.org/2000/svg" viewBox="0 0 100 100"><title>logohunt03</title><path d="M69.52,65.4c-7.68,4.36-18.26,10.1-18.26,10.1S50.2,63.28,57.48,59.22C63.24,56,76.4,48.75,76.4,48.75s1.09,12.12-6.88,16.65"/><path d="M63.84,53.61C56.16,58,51.26,60.52,51.26,60.52S50.2,48.31,57.48,44.24C63.24,41,70.71,37,70.71,37s1.09,12.11-6.87,16.64"/><path d="M58.09,41.14c-7.68,4.36-6.83,3.59-6.83,3.59S50.2,32.52,57.48,28.45C63.24,25.24,65,24.5,65,24.5s1.09,12.12-6.88,16.64"/><path d="M30.48,65.4c7.68,4.36,18.26,10.1,18.26,10.1s1.06-12.22-6.22-16.28C36.76,56,23.6,48.75,23.6,48.75S22.51,60.87,30.48,65.4"/><path d="M36.16,53.61c7.69,4.36,12.58,6.91,12.58,6.91s1.06-12.21-6.22-16.28C36.76,41,29.29,37,29.29,37s-1.1,12.11,6.87,16.64"/><path d="M41.91,41.14c7.68,4.36,6.83,3.59,6.83,3.59s1.06-12.21-6.22-16.28C36.76,25.24,35,24.5,35,24.5s-1.09,12.12,6.88,16.64"/></svg>