<svg id="图层_1" data-name="图层 1" xmlns="http://www.w3.org/2000/svg" viewBox="0 0 100 100"><defs><style>.cls-1{fill:#231815;}</style></defs><title>logohunt01</title><path class="cls-1" d="M32.1,30.52a20.26,20.26,0,0,1-2.69-2.62A7.39,7.39,0,0,1,28,23.24v-.07h5.53v.07a2.61,2.61,0,0,0,.83,2,2.84,2.84,0,0,0,3.95,0,2.61,2.61,0,0,0,.83-2v-.07h5.6v.07A7.74,7.74,0,0,1,41,30.15a3.3,3.3,0,0,0-1.82,2.77V46.16H56.91l-.07-13.24a3.38,3.38,0,0,0-1.38-2.4,20.26,20.26,0,0,1-2.69-2.62,7.45,7.45,0,0,1-1.46-4.66v-.07h5.6v.07a2.61,2.61,0,0,0,.83,2,2.84,2.84,0,0,0,3.95,0,2.61,2.61,0,0,0,.83-2v-.07h5.53v.07a7.74,7.74,0,0,1-3.71,6.91,3.3,3.3,0,0,0-1.82,2.77V65.08a3.1,3.1,0,0,0,1.24,2.33,20.7,20.7,0,0,1,3.12,3.06,7.3,7.3,0,0,1,1.17,4.29v.07H62.52v-.07a2.75,2.75,0,0,0-.83-2,2.74,2.74,0,0,0-3.95,0,2.75,2.75,0,0,0-.83,2v.07h-5.6v-.07a7.45,7.45,0,0,1,1.46-4.66,20.26,20.26,0,0,1,2.69-2.62,3.51,3.51,0,0,0,1.45-2.4V51.69H39.16V65.08a2.9,2.9,0,0,0,1.31,2.33,27.77,27.77,0,0,1,3.13,3.06,7.75,7.75,0,0,1,1.09,4.29v.07h-5.6v-.07a2.75,2.75,0,0,0-.83-2,2.74,2.74,0,0,0-3.95,0,2.75,2.75,0,0,0-.83,2v.07H28v-.07a7.39,7.39,0,0,1,1.46-4.66,20.26,20.26,0,0,1,2.69-2.62,3.51,3.51,0,0,0,1.45-2.4l-.07-32.16a3.38,3.38,0,0,0-1.38-2.4"/></svg>