<svg id="图层_1" data-name="图层 1" xmlns="http://www.w3.org/2000/svg" viewBox="0 0 100 100"><defs><style>.cls-1{fill:#231815;}</style></defs><title>logohunt02</title><path class="cls-1" d="M42.17,73V68.92H38.54V44.86a12.28,12.28,0,0,1,.3-2.64c.69-2.23,2.56-3.51,5.3-3.51,4.07,0,5.3,3.18,5.61,5.84.63,5.33,4.46,8.82,9.49,8.82q.57,0,1.17-.06c5.37-.56,8.74-4.61,8.8-10.58A15,15,0,0,0,64.84,32a17.43,17.43,0,0,0-12.38-5,18.21,18.21,0,0,0-13.92,6.83V27.68H30.79v4.08h3.67V68.92H30.79V73H42.17M52.46,31.08A13.38,13.38,0,0,1,62,34.84a10.75,10.75,0,0,1,3.18,7.85c0,2.75-.94,6.12-5.15,6.56-3.34.35-5.77-1.68-6.18-5.17-.68-5.83-4.38-9.44-9.66-9.44-.24,0-.48,0-.72,0A13.8,13.8,0,0,1,52.46,31.08Z"/></svg>