<svg id="图层_1" data-name="图层 1" xmlns="http://www.w3.org/2000/svg" viewBox="0 0 100 100"><defs><style>.cls-1{fill:#231815;}</style></defs><title>logohunt02</title><path class="cls-1" d="M51.28,30.79a29.73,29.73,0,0,0-10.42,1.74c-.94.34-2.7,1.13-2.78,1.17a1.62,1.62,0,0,0-1,1.85,1.45,1.45,0,0,0,.68.84,1.93,1.93,0,0,0,1.46.15l2.7-1.12a27.81,27.81,0,0,1,9.4-1.57c1.38,0,13.54.29,13.54,10.26v1.35A19,19,0,0,0,50,38.74c-9.86,0-17.88,6.83-17.88,15.24s8,15.23,17.88,15.23a19,19,0,0,0,14.82-6.72v4.07s0,.18,0,.18a1.54,1.54,0,0,0,3.07,0V44.11c0-12.95-14.9-13.32-16.6-13.32M50,66.15c-8.17,0-14.82-5.46-14.82-12.17S41.83,41.8,50,41.8,64.82,47.26,64.82,54,58.17,66.15,50,66.15Z"/><path class="cls-1" d="M58.11,47.38h0a14.08,14.08,0,0,0-16.22,0A8.4,8.4,0,0,0,38.25,54a8.38,8.38,0,0,0,3.64,6.59,14.08,14.08,0,0,0,16.22,0,1.51,1.51,0,0,0,.3-2.1,1.5,1.5,0,0,0-2.1-.31,11,11,0,0,1-12.62,0,6.09,6.09,0,0,1-2.12-2.67H60.25a1.51,1.51,0,0,0,1.5-1.5,8.4,8.4,0,0,0-3.64-6.6m-16.55,5.1a6.15,6.15,0,0,1,2.13-2.69,11,11,0,0,1,12.62,0,6.15,6.15,0,0,1,2.13,2.69Z"/></svg>