<svg id="图层_1" data-name="图层 1" xmlns="http://www.w3.org/2000/svg" viewBox="0 0 100 100"><defs><style>.cls-1{fill-rule:evenodd;}</style></defs><title>logohunt03</title><path d="M33.1,31.49l.12,0h0c2.12-.89,3.78.72,5.05,3.15,7.47,14.23,4.56,29.4-3.75,42.47l11.42,0c4.07-13.9,3.84-30.78-5-42.91-2.14-2.93-4.88-4.94-8.08-3.6h0l-.15.07Z"/><path class="cls-1" d="M65.6,77.07a5.42,5.42,0,0,0,3.23-4.26l-11,.69a8,8,0,0,1-3.71,3.57c3.79,0,7.65.06,11.44,0"/><path class="cls-1" d="M64.56,26.32c0,1.91-1.17,3.48-2.67,3.5s-2.74-1.51-2.77-3.42,1.17-3.47,2.67-3.49,2.74,1.5,2.77,3.41"/><path class="cls-1" d="M41.2,26.32c0,1.91-1.17,3.48-2.67,3.5s-2.74-1.51-2.77-3.42,1.17-3.47,2.67-3.49,2.74,1.5,2.77,3.41"/><path d="M67,31.49l-.13,0h0c-2.12-.89-3.78.72-5.05,3.15C54.35,48.82,57.29,64,65.6,77.07H54.16c-4.07-13.89-3.86-30.77,5-42.9,2.14-2.93,4.87-4.94,8.08-3.6h0l.15.07Z"/><path d="M50,53.44c-5.49-2.34-14.27-7.39-17.51-14.11C31,36.2,31.42,31.65,34.7,30.54a3.18,3.18,0,0,1,1.7-.12,4.68,4.68,0,0,0-3.48.09,5.47,5.47,0,0,0-2.18,1.6c-5.46,6.56,5.42,19.23,13.92,25.59,6.77,5.07,4.61,4.75,11.45-.59,8.37-6.53,18.45-18.64,13.15-25a5.47,5.47,0,0,0-2.18-1.6,4.68,4.68,0,0,0-3.48-.09,3.18,3.18,0,0,1,1.7.12c3.28,1.11,3.73,5.66,2.21,8.79C64.27,46.05,55.49,51.1,50,53.44"/><path class="cls-1" d="M50,37.66a1.62,1.62,0,0,0-1.14-.54c-2.38-.1-2.46,3-.59,4.68a4.82,4.82,0,0,0,1.73,1,4.74,4.74,0,0,0,1.73-1c1.87-1.67,1.79-4.78-.59-4.68a1.62,1.62,0,0,0-1.14.54"/><path class="cls-1" d="M34.48,77.08a5.36,5.36,0,0,1-3.21-4.22l11,.69a8,8,0,0,0,3.72,3.53c-3.79-.06-7.67,0-11.46,0"/></svg>