<svg id="图层_1" data-name="图层 1" xmlns="http://www.w3.org/2000/svg" viewBox="0 0 100 100"><title>logohunt02</title><path d="M32.12,50.52V46.1A37.63,37.63,0,0,1,33.56,41a19.52,19.52,0,0,1,28.51-9c.62.38.7.7.24,1.26s-1,1.42-1.52,2.06c-.73.86-.84,1.54.29,2.14a6,6,0,0,1,1.05.91,19.47,19.47,0,0,1,6,11.17,16.26,16.26,0,0,1-.49,7.77,20.1,20.1,0,0,1-9.4,12.07,27.9,27.9,0,0,1-6.74,2.39H46.1a7.49,7.49,0,0,0-.77-.23,20.71,20.71,0,0,1-7.11-2.75c-.62-.38-.68-.69-.24-1.25.65-.82,1.2-1.72,1.85-2.54.47-.6.35-.93-.24-1.38a19.19,19.19,0,0,1-6.09-8.06A45.69,45.69,0,0,1,32.12,50.52Zm16,14.5a13,13,0,0,0,7.22-1.87A12.57,12.57,0,0,0,56.7,42.62c-.56-.47-.58-.75-.16-1.29.65-.82,1.18-1.74,1.84-2.55.53-.64.35-.92-.29-1.31a12.7,12.7,0,0,0-17.71,5A12.48,12.48,0,0,0,43.47,58c.67.56.72.91.18,1.56S42.52,61.21,41.88,62c-.51.6-.3.87.28,1.21A12.77,12.77,0,0,0,48.11,65Z"/></svg>