<svg id="图层_1" data-name="图层 1" xmlns="http://www.w3.org/2000/svg" viewBox="0 0 100 100"><defs><style>.cls-1{fill-rule:evenodd;}</style></defs><title>logohunt03</title><path class="cls-1" d="M43.74,62.91l-3.52,1c-1.25-4.14-1.65-4.68-4.08-8.25-2.78,2.29-6.53,1.7-7.24-2-5,.06-7.49-6.12-1.37-8-.35-4.32,4.78-5.84,7.57-3.64.86-2.68,5.39-3.06,6.53.33,3.58-2.52,8.36-.12,6.2,5.07,5.52,2.65.22,9.52-4.08,6.52-1.62,4.67-1.5,3.78,0,9m-8.28-15c-.38-3.46.73-4,3.72-3.75-2.38.87-2.83,1.34-3.72,3.75M30,54.19c-.54-3.5.32-3.82,3.26-3.79C31,51.57,30.58,51.68,30,54.19m-.52-7.49c-.78-3.37.19-4.05,3.17-4.34-2.21,1.25-2.73,1.73-3.17,4.34M25.21,51c-.67-3.48.19-4.06,3.16-4.34-2.2,1.25-2.68,1.81-3.16,4.34m16.5,3.11L42.83,52c-2.24.26-2.16.5-1.12,2.08m-3.24-1.65c-.32,2.84,0,2.27,2.05,4.37.7-2.93.36-2.27-2.05-4.37"/><path class="cls-1" d="M48.25,61.65l2.89,2.24c1.63-2,6.72-7.8,7.84-8.83a15,15,0,0,1,3.22-2.21c.59,3.31,5.39,4,7.45.92,4.6,1.94,9.26-2.82,4.3-6.89a4.54,4.54,0,0,0-5.62-6.25c.42-3.13-3.82-4.87-6.16-2.16-2.32-3.91-8.24-2.83-7.66,2.33-7,.75-4.18,8.37,1.3,7.58a9.49,9.49,0,0,1-.5,4.3c-.39,1-5.31,6.76-7.06,9M65.77,45.94c1.67-3.06.83-3.94-2-4.88,1.87,1.71,2.1,2.3,2,4.88m2.65,7.9c1.83-3,1.15-3.65-1.58-4.74,1.63,1.94,2,2.2,1.58,4.74m3.32-6.73c2-2.82,1.37-3.82-1.28-5.22,1.56,2,1.87,2.64,1.28,5.22m2.34,5.56c1.94-3,1.37-3.82-1.27-5.21,1.56,2,1.79,2.69,1.27,5.21M57.64,49.28c-.09-.78-.17-1.56-.25-2.35,2,1.09,1.81,1.29.25,2.35M61.27,49c-.79,2.74-.84,2.1-3.57,3.26.47-3,.54-2.24,3.57-3.26"/></svg>