<svg id="图层_1" data-name="图层 1" xmlns="http://www.w3.org/2000/svg" viewBox="0 0 100 100"><defs><style>.cls-1{fill:#231815;}</style></defs><title>logohunt01</title><polyline class="cls-1" points="35.37 67.03 14.42 37.75 14.42 41.33 35.38 70.81 55.02 65.58 55.02 61.87 35.37 67.03"/><path class="cls-1" d="M55,61V57.49l-19.64,5-21-28.82v3.14l21,29.28L55,61"/><path class="cls-1" d="M42.09,35.4l-3.62.68.86.87s4.21-.88,6.66-1.44a9.67,9.67,0,0,0-3.9-.11"/><path class="cls-1" d="M49.76,34A1.39,1.39,0,0,0,50,32.44c-.89-2.1-5-3.07-8-2.52l-8.24,1.37,1.9,1.94L42,32.11c2.64-.49,6.3.17,7.78,1.92"/><path class="cls-1" d="M46.92,35.19a7.48,7.48,0,0,0,2.47-.79c-1.36-1.6-4.87-2.22-7.33-1.77l-5.93,1.06,1.9,2,4-.77a10.8,10.8,0,0,1,4.9.32"/><path class="cls-1" d="M66.27,33.55v5.12L62,37.1a6.25,6.25,0,0,0,4.25-3.55"/><path class="cls-1" d="M49.89,45.53l-1.81.35,3.15,3.22,19.43,7.95,14.92-3.78V50L70.63,53.72,49.89,45.53m35.69,8.55-15,3.81-18-7.41L55,53v0l-19.65,4.9-21-28.66v3.64c1.18,1.62,20.8,28.61,21,28.83l19.63-5V54.84l15.62,6.62,14.94-3.94ZM49.93,44.74l20.73,8.13c.12,0,.12,0,14.91-3.66V45.76L70.64,49.32l-20.77-8-5.18,1.07,2.76,2.81Z"/></svg>