<svg id="图层_1" data-name="图层 1" xmlns="http://www.w3.org/2000/svg" viewBox="0 0 100 100"><title>logohunt03</title><path d="M36.49,61.37s9-6.93,20.51-5c8.87,1.51,10.46,4,14.84,2.63a11,11,0,0,0,5.34-4.19S76,63.54,69,64.17s-20.86-10.26-32.48-2.8"/><path d="M22.82,68s12-8.19,27.21-5.88c11.75,1.79,13.87,4.68,19.68,3.12a14.31,14.31,0,0,0,7.07-4.95s-1.59,10.28-10.88,11S38.24,59.16,22.82,68"/><path d="M62.23,28.7S70,40,68.14,47.44C65,60.31,56.69,55.76,54.68,51.82c-5.4-10.56,4.14-18.65,7.55-23.12"/><path d="M50.28,44.13s3.14,4.56,2.4,7.55C51.41,56.87,48,55,47.22,53.45c-2.2-4.26,1.68-7.52,3.06-9.32"/></svg>