<svg id="图层_1" data-name="图层 1" xmlns="http://www.w3.org/2000/svg" viewBox="0 0 100 100"><title>logohunt03</title><path d="M31.32,42.58a43.75,43.75,0,0,1,4.54-1.92c.77-.28,1.26-.87,1.09-1.37-.35-1-.7-2-1.06-3.09-.18-.54-1-.75-1.9-.39a41.81,41.81,0,0,0-5,2.4c-.82.47-1.25,1.26-1,1.71.51.91,1,1.78,1.52,2.61.26.41,1.06.42,1.81,0"/><path d="M37.89,45.56c-1.34.41-2.67.89-4,1.43-.66.28-1,.81-.77,1.15.46.68.91,1.33,1.35,2a1.37,1.37,0,0,0,1.47.18c1.18-.4,2.35-.76,3.52-1.07.59-.15,1-.56.82-.94L39.39,46c-.15-.41-.83-.6-1.5-.39"/><path d="M44.7,64.59c-.59,0-1.19,0-1.78,0a.44.44,0,0,0-.47.49c.07.54.12,1.09.14,1.66a.54.54,0,0,0,.53.52h1.73a.52.52,0,0,0,.52-.53c0-.57,0-1.13-.08-1.68a.58.58,0,0,0-.59-.49"/><path d="M43.46,59c-.74.07-1.49.15-2.24.25-.37,0-.58.29-.45.54.24.5.46,1,.66,1.49a.79.79,0,0,0,.77.41l2-.11c.33,0,.55-.25.49-.52-.12-.54-.25-1.08-.4-1.62a.74.74,0,0,0-.81-.44"/><path d="M41.12,53c-1,.21-2,.45-3,.72-.51.14-.76.48-.58.76.38.54.73,1.07,1.07,1.59a1.14,1.14,0,0,0,1.11.3c.88-.18,1.75-.34,2.62-.47.43-.07.7-.36.6-.66-.22-.59-.44-1.21-.68-1.83A1,1,0,0,0,41.12,53"/><path d="M33.53,51.51q-1.74.7-3.48,1.56c-.58.29-.83.72-.55.93l1.64,1.26a1.78,1.78,0,0,0,1.44,0c1-.4,2.07-.77,3.1-1.11.51-.16.77-.51.57-.79L35,51.63a1.36,1.36,0,0,0-1.46-.12"/><path d="M37.87,57c-.88.21-1.76.43-2.66.68-.45.13-.64.4-.41.59.44.4.86.8,1.25,1.21a1.34,1.34,0,0,0,1.06.23l2.32-.39c.38-.06.59-.31.45-.55-.28-.49-.59-1-.91-1.49a1.11,1.11,0,0,0-1.1-.28"/><path d="M28.27,44.67a45.28,45.28,0,0,0-4.19,2.83c-.69.52-1,1.21-.69,1.48.6.54,1.19,1.07,1.79,1.57.3.25,1.06.1,1.71-.29q1.92-1.21,3.89-2.2c.66-.33,1-.87.76-1.22-.49-.71-1-1.45-1.49-2.21-.25-.39-1.06-.39-1.78,0"/><path d="M40.81,62l-2,.16c-.33,0-.5.24-.38.46A10.52,10.52,0,0,1,39.05,64a.73.73,0,0,0,.69.43l1.81,0a.42.42,0,0,0,.45-.49,15.73,15.73,0,0,0-.43-1.53.75.75,0,0,0-.76-.41"/><path d="M50.9,64.56c-.59,0-1.18,0-1.78,0a.51.51,0,0,0-.52.51c0,.56,0,1.12,0,1.69a.53.53,0,0,0,.53.52h1.73a.53.53,0,0,0,.53-.52c0-.57,0-1.14,0-1.7a.5.5,0,0,0-.53-.5"/><path d="M51.1,58.69c-.73,0-1.45,0-2.18,0a.57.57,0,0,0-.63.54c.05.57.09,1.14.13,1.7a.58.58,0,0,0,.62.5h2a.6.6,0,0,0,.62-.51c0-.56.07-1.12.12-1.7a.57.57,0,0,0-.63-.53"/><path d="M51.49,52.08c-1,0-2,0-3,0-.5,0-.87.33-.83.67.07.68.14,1.34.2,2,0,.32.41.56.84.55.85,0,1.71,0,2.56,0a.77.77,0,0,0,.84-.55c.06-.64.13-1.3.2-2,0-.34-.34-.65-.84-.67"/><path d="M47.59,38.26a40.46,40.46,0,0,1,4.8,0c.8,0,1.5-.32,1.55-.86.11-1.08.22-2.2.34-3.37.06-.59-.64-1.16-1.56-1.22a45.38,45.38,0,0,0-5.47,0c-.92.06-1.62.64-1.56,1.23.12,1.17.24,2.29.35,3.37.06.54.75.9,1.55.86"/><path d="M52,43.77a39.66,39.66,0,0,0-4.08,0c-.69,0-1.2.46-1.15.9.09.88.18,1.72.27,2.54.05.41.57.7,1.16.67,1.17-.05,2.35-.05,3.53,0,.59,0,1.11-.27,1.15-.67.09-.82.18-1.66.27-2.54.05-.45-.47-.87-1.15-.9"/><path d="M57.82,48.91c-1.16-.22-2.32-.4-3.49-.52-.58-.06-1.1.22-1.14.61-.1.77-.19,1.5-.28,2.22,0,.36.33.67.83.71,1,.09,2,.21,3,.37a1,1,0,0,0,1.14-.45c.24-.66.49-1.35.74-2.07.14-.35-.23-.76-.82-.87"/><path d="M60.56,40A41.81,41.81,0,0,0,55.87,39c-.79-.12-1.49.24-1.55.75-.12,1-.23,2-.35,2.92,0,.47.47.89,1.15,1,1.37.18,2.75.42,4.11.73.68.16,1.35,0,1.51-.47.3-.87.62-1.77.93-2.7.17-.47-.33-1.06-1.11-1.27"/><path d="M44.11,39a42.18,42.18,0,0,0-4.68.95c-.78.2-1.28.79-1.12,1.26l.94,2.7c.16.44.84.63,1.52.47a41.44,41.44,0,0,1,4.1-.73c.69-.09,1.21-.51,1.15-1q-.18-1.39-.36-2.91c-.06-.51-.76-.87-1.55-.76"/><path d="M47.61,61.67l-1.93.06c-.33,0-.56.24-.51.51.1.54.17,1.08.24,1.62a.58.58,0,0,0,.6.49h1.78a.51.51,0,0,0,.53-.51c0-.55,0-1.11-.09-1.66a.58.58,0,0,0-.62-.5"/><path d="M46.86,55.62c-.85.05-1.69.13-2.55.23-.43,0-.7.34-.6.63.18.57.36,1.14.51,1.7a.82.82,0,0,0,.83.46c.74-.06,1.48-.11,2.22-.14a.58.58,0,0,0,.62-.56c-.06-.58-.13-1.18-.19-1.8a.74.74,0,0,0-.84-.52"/><path d="M45.67,48.39c-1.16.13-2.32.3-3.49.53-.58.11-1,.52-.81.87l.75,2.07a1,1,0,0,0,1.13.45c1-.16,2-.29,3-.37.5,0,.88-.36.83-.72-.08-.71-.18-1.45-.28-2.22,0-.38-.56-.67-1.15-.61"/><path d="M64.82,57.64c-.9-.24-1.79-.47-2.67-.67a1.09,1.09,0,0,0-1.1.27c-.32.5-.62,1-.9,1.49-.14.25.06.49.44.55.77.12,1.54.25,2.33.4A1.34,1.34,0,0,0,64,59.44c.39-.41.81-.8,1.25-1.2.22-.2,0-.47-.41-.6"/><path d="M75.92,47.47a44.11,44.11,0,0,0-4.2-2.83c-.72-.43-1.53-.43-1.78,0-.5.77-1,1.51-1.48,2.22-.24.35.11.89.76,1.22q2,1,3.9,2.19c.64.4,1.41.55,1.71.3.59-.51,1.19-1,1.78-1.59.3-.27,0-.95-.69-1.47"/><path d="M70,53.06c-1.16-.57-2.33-1.09-3.49-1.56-.58-.24-1.24-.18-1.45.12-.44.59-.86,1.16-1.26,1.72-.2.28.06.63.57.79,1,.34,2.06.71,3.11,1.11a1.76,1.76,0,0,0,1.43,0L70.52,54c.28-.21,0-.64-.55-.93"/><path d="M61.22,62.15l-2-.16a.76.76,0,0,0-.76.41c-.17.51-.31,1-.43,1.53a.42.42,0,0,0,.45.49l1.81,0A.73.73,0,0,0,61,64a9.88,9.88,0,0,1,.62-1.41c.12-.23,0-.44-.38-.47"/><path d="M54.35,61.72l-1.94,0a.6.6,0,0,0-.62.5c0,.55-.06,1.1-.08,1.66a.51.51,0,0,0,.52.51H54a.6.6,0,0,0,.6-.49c.06-.54.14-1.08.23-1.62,0-.27-.17-.5-.5-.52"/><path d="M55.71,55.84c-.86-.09-1.7-.17-2.55-.22a.74.74,0,0,0-.84.52c-.06.61-.13,1.21-.18,1.8,0,.3.25.55.62.56.73,0,1.47.07,2.22.13a.78.78,0,0,0,.82-.45q.24-.84.51-1.71c.1-.29-.17-.58-.6-.63"/><path d="M64.13,40.63a41.76,41.76,0,0,1,4.54,1.93c.74.36,1.55.35,1.8-.06.51-.84,1-1.71,1.52-2.62.27-.45-.17-1.24-1-1.7a41.88,41.88,0,0,0-5-2.41c-.87-.34-1.73-.14-1.91.41q-.53,1.6-1,3.09c-.17.5.33,1.09,1.1,1.36"/><path d="M57.11,64.61l-1.78,0a.58.58,0,0,0-.59.5c-.05.55-.07,1.11-.08,1.68a.52.52,0,0,0,.52.52h1.73a.55.55,0,0,0,.54-.52,14.88,14.88,0,0,1,.13-1.66.44.44,0,0,0-.47-.49"/><path d="M58.8,59.24,56.56,59a.75.75,0,0,0-.8.44c-.15.55-.29,1.08-.41,1.62a.46.46,0,0,0,.49.52l2,.12a.82.82,0,0,0,.78-.42c.2-.5.42-1,.66-1.49.12-.24-.08-.49-.46-.54"/><path d="M61.92,53.68c-1-.27-2-.51-3-.72a1,1,0,0,0-1.13.41c-.23.63-.46,1.24-.67,1.84-.1.3.17.59.6.65.87.14,1.75.29,2.63.47a1.13,1.13,0,0,0,1.1-.3c.34-.52.7-1.05,1.07-1.59.19-.27-.07-.62-.58-.76"/><path d="M66.1,47c-1.32-.54-2.65-1-4-1.43-.67-.2-1.35,0-1.5.4-.31.8-.6,1.58-.89,2.32-.14.38.23.79.81.94,1.18.31,2.35.66,3.53,1.07a1.41,1.41,0,0,0,1.47-.18l1.35-2c.23-.34-.11-.87-.78-1.15"/></svg>