<svg id="图层_1" data-name="图层 1" xmlns="http://www.w3.org/2000/svg" viewBox="0 0 100 100"><title>logohunt03</title><path d="M41,38.15a62.26,62.26,0,0,1-1.24-15.47c-1.95.87-2.88,1.3-4.19,3.38A8.93,8.93,0,0,0,34.68,32c.2,1.56.46,3.13.79,4.71C40,58.36,54.84,74.37,71.33,77.23,57.12,72.15,45,57.38,41,38.15"/><path d="M35.11,52.88a47.75,47.75,0,0,1-3.58-11.51,5.78,5.78,0,0,0-2.6,3.28,6.86,6.86,0,0,0,.37,4.63c.42,1.15.88,2.29,1.4,3.43,7.09,15.64,21.08,25.22,34.05,24.58C53.13,75.86,41.4,66.75,35.11,52.88"/><path d="M65.5,57.54a5.66,5.66,0,1,1-5.66-5.66,5.66,5.66,0,0,1,5.66,5.66"/></svg>