<svg id="图层_1" data-name="图层 1" xmlns="http://www.w3.org/2000/svg" viewBox="0 0 100 100"><title>logohunt03</title><path d="M57.46,38.69a9.86,9.86,0,1,0-14.92,0,21.61,21.61,0,0,0-3.42,38.94,11,11,0,0,1,4-6.6,13.87,13.87,0,0,1-2.63-22.19,9.55,9.55,0,0,1-.27-2.28,9.76,9.76,0,1,1,19.52,0,9.55,9.55,0,0,1-.27,2.28A13.87,13.87,0,0,1,56.86,71a11,11,0,0,1,4,6.6,21.61,21.61,0,0,0-3.42-38.94"/><path d="M59.51,64.41a11,11,0,0,0,1.1-8.49,15.32,15.32,0,0,0-21.22,0A11,11,0,0,0,42,66.44c2.87,2.3,10.83,7.24,17.49-2"/><path d="M57.47,46.56A7.47,7.47,0,1,1,50,39.09a7.47,7.47,0,0,1,7.47,7.47"/></svg>