<svg id="图层_1" data-name="图层 1" xmlns="http://www.w3.org/2000/svg" viewBox="0 0 100 100"><title>logohunt03</title><path d="M64.19,28.72A19.39,19.39,0,0,0,50,22.88a20,20,0,0,0-20,20,19.29,19.29,0,0,0,5.88,14.18A19.29,19.29,0,0,0,50,63a19.44,19.44,0,0,0,11-3.22,2.65,2.65,0,0,1-.53-.45,3.69,3.69,0,0,1-1.16-2.77,3.89,3.89,0,0,1,3.9-3.85A3.79,3.79,0,0,1,66,53.8a3.6,3.6,0,0,1,.48.6A19.36,19.36,0,0,0,70,42.91a19.48,19.48,0,0,0-5.84-14.19M59.66,38a3.85,3.85,0,0,1,1.12,2.77,3.7,3.7,0,0,1-1.12,2.74,3.85,3.85,0,0,1-2.77,1.12,3.67,3.67,0,0,1-2.73-1.12A3.59,3.59,0,0,1,53,40.73,3.73,3.73,0,0,1,54.16,38a3.67,3.67,0,0,1,2.73-1.12A3.85,3.85,0,0,1,59.66,38m-22-2.88a4,4,0,0,1,3.89-3.89,3.89,3.89,0,0,1,3.89,3.89,3.84,3.84,0,0,1-1.12,2.77A3.79,3.79,0,0,1,41.54,39a3.67,3.67,0,0,1-2.73-1.12,3.72,3.72,0,0,1-1.16-2.77m2.17,13.1a3.86,3.86,0,0,1,2.77,1.13,3.82,3.82,0,0,1,1.12,2.77A3.89,3.89,0,0,1,39.82,56a4,4,0,0,1-3.9-3.89,3.91,3.91,0,0,1,3.9-3.9"/><path d="M55.17,39a2.44,2.44,0,0,0-.75,1.76,2.36,2.36,0,0,0,.75,1.73,2.32,2.32,0,0,0,1.72.71,2.36,2.36,0,0,0,2.43-2.44A2.53,2.53,0,0,0,58.65,39a2.44,2.44,0,0,0-1.76-.71,2.32,2.32,0,0,0-1.72.71"/><path d="M43.3,33.36a2.37,2.37,0,0,0-1.76-.75,2.49,2.49,0,0,0-2.43,2.47,2.36,2.36,0,0,0,2.43,2.43A2.36,2.36,0,0,0,44,35.08a2.35,2.35,0,0,0-.71-1.72"/><path d="M39.82,49.61a2.28,2.28,0,0,0-1.72.71,2.38,2.38,0,0,0-.72,1.76,2.32,2.32,0,0,0,.72,1.72,2.28,2.28,0,0,0,1.72.71,2.4,2.4,0,0,0,1.76-.71,2.43,2.43,0,0,0,.67-1.72,2.5,2.5,0,0,0-.67-1.76,2.4,2.4,0,0,0-1.76-.71"/><path d="M51.31,68.1a20.27,20.27,0,0,1-.94-3.18,22.74,22.74,0,0,1-7.56-.83,34.18,34.18,0,0,0,.75,6c.53,2.85-1,5.21-4.53,7H56.44a33.19,33.19,0,0,1-5.13-9"/><path d="M63.22,54.1a2.32,2.32,0,0,0-1.73.71,2.41,2.41,0,0,0-.71,1.72,2.36,2.36,0,0,0,.71,1.76,2.64,2.64,0,0,0,.75.53,3.08,3.08,0,0,0,1,.18A2.3,2.3,0,0,0,65,58.29a2.33,2.33,0,0,0,.72-1.76,2.37,2.37,0,0,0-.19-.9,2.06,2.06,0,0,0-.53-.82,2.3,2.3,0,0,0-1.75-.71"/></svg>