<svg id="图层_1" data-name="图层 1" xmlns="http://www.w3.org/2000/svg" viewBox="0 0 100 100"><defs><style>.cls-1{fill:#231815;}</style></defs><title>logohunt01</title><path class="cls-1" d="M76,48.29l-1.16-.86-3.5-2.57a9.1,9.1,0,0,0-5.43-2A7.64,7.64,0,0,0,61.67,44L50.39,51.87l-.1,0a5.06,5.06,0,0,1-2.29.5,4.87,4.87,0,0,1-2.8-.79l-5.64-4.14L54.07,37.26a3.08,3.08,0,0,0-3.54-5L34.32,43.63l-5.53-4.07a.9.9,0,0,1,0-1.55l13.41-9.44a3.08,3.08,0,0,0-3.55-5h0L25.26,33a6.85,6.85,0,0,0-.12,11.54L29,47.36l-4.84,3.42a6.84,6.84,0,0,0-.12,11.53L41.38,75a11.41,11.41,0,0,0,12.68.13L75.84,59.82A6.85,6.85,0,0,0,76,48.29M50.69,51.67l-.27.18Zm21.54,3.17L50.72,70a5.17,5.17,0,0,1-2.9.86A5.07,5.07,0,0,1,44.89,70L34.36,62.25l-6.63-4.87a.93.93,0,0,1,0-1.58l6.51-4.59,2.63,1.93,4.67,3.44a10.94,10.94,0,0,0,6.45,2,11.3,11.3,0,0,0,5.07-1.16,10.5,10.5,0,0,0,1.16-.7l10.86-7.56a1.49,1.49,0,0,1,1.68,0l2.76,2,2.77,2.07A.94.94,0,0,1,72.23,54.84Z"/></svg>