<svg id="图层_1" data-name="图层 1" xmlns="http://www.w3.org/2000/svg" viewBox="0 0 100 100"><title>logohunt03</title><path d="M50,22.37c-.11.28-.22.56-.3.8a58.5,58.5,0,0,1-10.19,16l4.31-1.66L36.15,50.11l3.78-1.6-6.85,11,4.09-1.38-6.43,9a80.81,80.81,0,0,0,38.52,0l-6.43-8.94,4.09,1.35L60.1,48.54l3.78,1.54-7.7-12.61,4.31,1.66c-1.63-1.91-3.12-3.81-4.45-5.69a57.13,57.13,0,0,1-5.27-9.13c-.25-.64-.52-1.3-.77-1.94"/><path d="M51.74,70.81c-1.66,0-3.31,0-4.94-.06q1.16,3.73-2.73,6.88H55.6a25.27,25.27,0,0,1-2.12-3.12L52,71.44c-.06-.13-.11-.3-.17-.47s0-.11-.08-.16"/></svg>