<svg id="图层_1" data-name="图层 1" xmlns="http://www.w3.org/2000/svg" viewBox="0 0 100 100"><defs><style>.cls-1{fill:#231815;}</style></defs><title>logohunt01</title><path class="cls-1" d="M59.8,31a5.75,5.75,0,0,0-5.82-6,5.7,5.7,0,0,0-3.93,1.53A6,6,0,0,0,48.26,31V39.1h0V69a2.49,2.49,0,0,1-.69,1.91,2.29,2.29,0,0,1-1.55.57,2.41,2.41,0,0,1-1.62-.6A2.39,2.39,0,0,1,43.68,69a1.74,1.74,0,0,0-3.48,0,5.75,5.75,0,0,0,5.82,6A5.74,5.74,0,0,0,50,73.4,6,6,0,0,0,51.74,69V40.84H54a1.74,1.74,0,1,0,0-3.48H51.74V31a2.49,2.49,0,0,1,.69-1.91A2.29,2.29,0,0,1,54,28.56a2.37,2.37,0,0,1,1.62.6A2.42,2.42,0,0,1,56.32,31a1.74,1.74,0,1,0,3.48,0"/></svg>