<svg id="图层_1" data-name="图层 1" xmlns="http://www.w3.org/2000/svg" viewBox="0 0 100 100"><defs><style>.cls-1{fill:#231815;}.cls-2{fill:#c8c9ca;}.cls-3{fill:#717071;}</style></defs><title>logohunt02</title><polyline class="cls-1" points="54.74 48.94 67.41 29.69 58.12 29.7 46.71 48.78 46.48 48.78 46.48 29.7 37.98 29.7 37.98 70.31 46.48 70.31 46.48 49.17 46.68 49.16 57.54 70.31 67.7 70.31 54.74 48.94"/><path class="cls-2" d="M48.18,56.3v8.53c0,1.11,1,1.09,2.07.62,3.52-1.49,9.13-6.67,9.13-6.67s-11.2,1-11.2-2.48"/><path class="cls-3" d="M51.66,58.62l-2.2-4.24-.1,0a1.71,1.71,0,0,0-1.18,1.88c0,1.27,1.47,2,3.34,2.3l.14,0"/><path class="cls-3" d="M32.83,40.74c1-1.38,3.08-1.59,4.77-1.59l.39,0V29.7c-3.92,0-7.81,1.39-7.81,6.36A6.07,6.07,0,0,0,32.8,40.8l0-.06"/><path class="cls-3" d="M69.82,44.93v8c0,4.27-1.5,8.71-6.94,9.79l-5-8.35a10.28,10.28,0,0,0,1.87.14c8.15-.06,10.12-5.34,10.12-9.58"/><path class="cls-2" d="M30.18,36V46.44c0,3.84,3.39,6.08,7.75,6.32a28.73,28.73,0,0,0,11.61-1.67c6.43-2.44,7.77-3.78,11.3-4.36s6.38.69,7.88,3l0,0a11,11,0,0,0,1.07-4.92c0-3.37-2.45-8.13-9.07-7.85-4.57.2-7.45,2-11.59,3.66a26.15,26.15,0,0,1-11.18,2c-4.29-.27-7.8-3.21-7.8-6.6"/></svg>