<svg id="图层_1" data-name="图层 1" xmlns="http://www.w3.org/2000/svg" viewBox="0 0 100 100"><defs><style>.cls-1{fill:#231815;}</style></defs><title>logohunt02</title><path class="cls-1" d="M55.43,42.6a4.08,4.08,0,0,0-3.77,2.46,3.6,3.6,0,0,0-3.6-2.46,4.11,4.11,0,0,0-3.85,2.46l-.14-2.17H40.19c.05,1,.08,2,.08,3V57.3h4.25v-9c0-1.08.48-2.51,1.71-2.51s1.55,1.2,1.55,2.29V57.3H52v-9c0-1.08.53-2.51,1.74-2.51s1.55,1.2,1.55,2.29V57.3h4.21V47.71c0-2.82-1.12-5.11-4-5.11"/><rect class="cls-1" x="40.48" y="28.69" width="19.03" height="3.36"/><rect class="cls-1" x="40.48" y="67.95" width="19.03" height="3.36"/><path class="cls-1" d="M73.79,28.69H69v3.36h3.08V42.86h3.36V28.69H73.79"/><path class="cls-1" d="M24.53,57.14V71.31H31V68H27.88V57.14H24.53"/><rect class="cls-1" x="72.11" y="48.22" width="3.36" height="3.57"/><rect class="cls-1" x="24.53" y="48.22" width="3.36" height="3.57"/><path class="cls-1" d="M72.12,57.14V68H69v3.36h6.44V57.14H72.12"/><path class="cls-1" d="M26.21,28.69H24.53V42.86h3.35V32.05H31V28.69H26.21"/></svg>