<svg id="图层_1" data-name="图层 1" xmlns="http://www.w3.org/2000/svg" viewBox="0 0 100 100"><title>logohunt03</title><polygon points="42.05 51.26 27.1 63.88 46.53 62.17 59.15 77.12 57.44 57.63 72.45 45.08 52.9 46.72 40.35 31.77 42.05 51.26"/><polygon points="53.78 22.88 52.65 30.57 45.71 34.04 53.34 35.24 56.88 42.24 58.01 34.48 64.95 31.01 57.32 29.88 53.78 22.88"/><polygon points="62.36 35.93 65.77 38.46 65.71 42.74 68.23 39.28 72.45 39.4 69.05 36.88 69.18 32.65 66.59 36.06 62.36 35.93"/><polygon points="69.36 27.1 66.28 26.03 68.23 28.68 67.22 31.83 69.81 29.82 72.9 30.82 70.94 28.18 71.95 25.08 69.36 27.1"/></svg>