<svg id="图层_1" data-name="图层 1" xmlns="http://www.w3.org/2000/svg" viewBox="0 0 100 100"><title>logohunt03</title><polygon points="36.17 67.32 40.78 77.12 50.58 72.52 49.99 50.33 36.17 67.32"/><polygon points="67.04 64.78 76.84 60.17 72.23 50.36 50.33 50.17 67.04 64.78"/><polygon points="59.43 22.88 49.57 27.51 50.17 49.83 64.07 32.74 59.43 22.88"/><polygon points="23.16 39.93 27.79 49.79 49.83 49.99 33.02 35.3 23.16 39.93"/><polygon points="50.15 50.26 51.37 62.83 57.23 64.98 59.38 59.12 50.15 50.26"/><polygon points="50.22 50.05 59.29 41.26 65.15 43.41 63 49.28 50.22 50.05"/><polygon points="50.02 49.98 48.8 37.34 42.9 35.17 40.74 41.07 50.02 49.98"/><polygon points="49.95 50.19 40.83 59.03 34.94 56.87 37.1 50.97 49.95 50.19"/></svg>