<svg id="图层_1" data-name="图层 1" xmlns="http://www.w3.org/2000/svg" viewBox="0 0 100 100"><defs><style>.cls-1{fill:#231815;}.cls-2{fill:#fff;}</style></defs><title>logohunt02</title><path class="cls-1" d="M51.4,32.07a17,17,0,0,0-14.52,7.59v-7H31v3.07h2.8V63.91H31.06V67h8.57V63.91H36.88V50.46A19.54,19.54,0,0,1,37,48c.42-2.24,1.88-4.84,6.34-4.84,3.49,0,7.22,2.15,7.22,8.2v5.8c0,6.34,3.79,10.76,9.2,10.76C65,67.93,69,63.32,69,57.42V51.74c0-12-6.91-19.67-17.6-19.67M65.93,57.42c0,4.17-2.7,7.44-6.14,7.44-3.72,0-6.13-3-6.13-7.69v-5.8c0-7.79-5.17-11.27-10.29-11.27a11.61,11.61,0,0,0-3.43.48A14,14,0,0,1,51.4,35.14c9,0,14.53,6.36,14.53,16.6Z"/><path class="cls-2" d="M49.47,50.13a.55.55,0,1,1,.66.4.54.54,0,0,1-.66-.4"/></svg>