<svg id="图层_1" data-name="图层 1" xmlns="http://www.w3.org/2000/svg" viewBox="0 0 100 100"><defs><style>.cls-1{fill:#231815;}</style></defs><title>logohunt02</title><path class="cls-1" d="M76.64,41.4H31.93a2.61,2.61,0,0,0-2.6,2.6v7.32a2.62,2.62,0,0,0,2.6,2.61H72l3.67,4.67V53.93h1a2.62,2.62,0,0,0,2.6-2.61V44a2.61,2.61,0,0,0-2.6-2.6"/><path class="cls-1" d="M23.36,26.87H68.07a2.61,2.61,0,0,1,2.6,2.6V36.8a2.61,2.61,0,0,1-2.6,2.6H28l-3.67,4.68V39.4h-1a2.61,2.61,0,0,1-2.6-2.6V29.47a2.61,2.61,0,0,1,2.6-2.6"/><path class="cls-1" d="M23.36,55.92H68.07a2.61,2.61,0,0,1,2.6,2.6v7.33a2.61,2.61,0,0,1-2.6,2.6H28l-3.67,4.68V68.45h-1a2.61,2.61,0,0,1-2.6-2.6V58.52a2.61,2.61,0,0,1,2.6-2.6"/></svg>