<svg id="图层_1" data-name="图层 1" xmlns="http://www.w3.org/2000/svg" viewBox="0 0 100 100"><defs><style>.cls-1{fill:#231815;}</style></defs><title>logohunt01</title><rect class="cls-1" x="25.41" y="21.3" width="18.46" height="55.4"/><rect class="cls-1" x="49.01" y="67.47" width="1.03" height="9.23"/><rect class="cls-1" x="44.9" y="44.4" width="1.03" height="9.23"/><rect class="cls-1" x="44.9" y="21.3" width="1.03" height="9.23"/><rect class="cls-1" x="44.9" y="67.47" width="1.03" height="9.23"/><rect class="cls-1" x="46.96" y="67.47" width="1.03" height="9.23"/><rect class="cls-1" x="55.18" y="21.3" width="1.03" height="9.23"/><rect class="cls-1" x="57.23" y="21.3" width="1.03" height="9.23"/><rect class="cls-1" x="59.29" y="21.3" width="1.03" height="9.23"/><rect class="cls-1" x="51.07" y="21.3" width="1.03" height="9.23"/><rect class="cls-1" x="53.12" y="21.3" width="1.03" height="9.23"/><rect class="cls-1" x="49.01" y="21.3" width="1.03" height="9.23"/><rect class="cls-1" x="61.34" y="21.3" width="1.03" height="9.23"/><rect class="cls-1" x="69.56" y="67.47" width="1.03" height="9.23"/><rect class="cls-1" x="69.56" y="21.3" width="1.03" height="9.23"/><rect class="cls-1" x="51.07" y="67.47" width="1.03" height="9.23"/><rect class="cls-1" x="46.96" y="21.3" width="1.03" height="9.23"/><rect class="cls-1" x="55.18" y="67.47" width="1.03" height="9.23"/><rect class="cls-1" x="57.23" y="67.47" width="1.03" height="9.23"/><rect class="cls-1" x="59.29" y="67.47" width="1.03" height="9.23"/><rect class="cls-1" x="59.29" y="44.4" width="1.03" height="9.23"/><rect class="cls-1" x="61.34" y="67.47" width="1.03" height="9.23"/><polygon class="cls-1" points="62.37 53.3 62.36 44.4 61.34 44.4 61.34 53.63 62.37 53.63 62.37 53.3"/><rect class="cls-1" x="63.4" y="21.3" width="1.03" height="9.23"/><rect class="cls-1" x="51.07" y="44.4" width="1.03" height="9.23"/><rect class="cls-1" x="65.45" y="67.47" width="1.03" height="9.23"/><rect class="cls-1" x="46.96" y="44.4" width="1.03" height="9.23"/><rect class="cls-1" x="53.12" y="44.4" width="1.03" height="9.23"/><rect class="cls-1" x="57.23" y="44.4" width="1.03" height="9.23"/><rect class="cls-1" x="63.4" y="67.47" width="1.03" height="9.23"/><rect class="cls-1" x="67.51" y="67.47" width="1.03" height="9.23"/><rect class="cls-1" x="65.45" y="21.3" width="1.03" height="9.23"/><rect class="cls-1" x="67.51" y="21.3" width="1.03" height="9.23"/><rect class="cls-1" x="53.12" y="67.47" width="1.03" height="9.23"/><rect class="cls-1" x="55.18" y="44.4" width="1.03" height="9.23"/><rect class="cls-1" x="49.01" y="44.4" width="1.03" height="9.23"/></svg>