<svg id="图层_1" data-name="图层 1" xmlns="http://www.w3.org/2000/svg" viewBox="0 0 100 100"><defs><style>.cls-1{fill:#231815;}</style></defs><title>logohunt01</title><path class="cls-1" d="M16.46,34.13V26.94c.11-.09.19-.19.26-.19,6.19,0,12.41-.63,18.47,1.45A22.85,22.85,0,0,1,50.27,53.82C48.1,65.37,39.36,72.74,27,73.26c-3.49.15-7,0-10.57,0V65.84c3.39,0,6.68.11,10,0,6.47-.26,11.58-3,14.17-9.11,4-9.43-.66-22.12-14.51-22.55C23,34.05,19.8,34.13,16.46,34.13Z"/><path class="cls-1" d="M61.07,63.39l3-9.31H54.3V46.6H64l-3.09-9.36L68,34.89l3.11,9.33,8-5.77,4.41,6-7.92,5.83,8,5.77-4.33,6-8-5.71-3,9.32Z"/></svg>