<svg id="图层_1" data-name="图层 1" xmlns="http://www.w3.org/2000/svg" viewBox="0 0 100 100"><defs><style>.cls-1{fill:#231815;}</style></defs><title>logohunt01</title><path class="cls-1" d="M44.43,61.19a2.14,2.14,0,1,0,0-4.27H31a.29.29,0,0,1-.28-.29V25.57a.29.29,0,0,1,.29-.29H44.43a2.14,2.14,0,0,0,0-4.28H28.6a2.14,2.14,0,0,0-2.14,2.14V59.06a2.13,2.13,0,0,0,2.14,2.13H44.43"/><path class="cls-1" d="M55.57,38.8a2.14,2.14,0,1,0,0,4.28H69a.28.28,0,0,1,.28.29V74.43a.29.29,0,0,1-.29.29H55.57a2.14,2.14,0,0,0,0,4.28H71.4a2.14,2.14,0,0,0,2.14-2.14V40.94A2.14,2.14,0,0,0,71.4,38.8H55.57"/></svg>