<svg id="图层_1" data-name="图层 1" xmlns="http://www.w3.org/2000/svg" viewBox="0 0 100 100"><title>logohunt03</title><path d="M41,45.12c-1.7,1-1.61,1.2.2.39l4.41-2,2.21-1,1.1-.49L49,42h0c.15,0-1.27,0-.67,0h0l0,0,.13.07.26.15.52.31,8.37,4.84L59,44.92l-8.9-3.79-.55-.24-.28-.12-.14-.06h-.74l-.07,0-1,.62-2.07,1.25Z"/><path d="M42.63,45c0-.56-.15-.58-.26,0a19.33,19.33,0,0,0-.28,5.61l1.62-.42A18.15,18.15,0,0,1,42.63,45"/><path d="M55.17,44.7c-.08-.55-.28-.56-.44,0a29.24,29.24,0,0,0-1.23,5.5l2.75-.38a28,28,0,0,1-1.08-5.09"/><path d="M45.06,49.48c.26,1.09.34,1.09.17,0a15.72,15.72,0,0,1-.39-2.69v-.2c-.07.08.15-.23-.15.19h.1l.33-.06a3.76,3.76,0,0,1,.66-.1c.45-.06.91-.09,1.36-.12l.7,0h.28c.09.1-.74-.92-.39-.48h0l0,0-.12.35a5,5,0,0,0-.27,1.46,4.19,4.19,0,0,0,1,2.88l.81-.77a3.13,3.13,0,0,1-1-2.11,4.49,4.49,0,0,1,.12-1.26l.08-.31v0h0c.35.43-.48-.59-.4-.48h-.11l-.16,0-.68.11c-.45.07-.91.14-1.37.24a5.73,5.73,0,0,0-.69.16l-.34.09-.08,0h0c-.32.41-.09.13-.16.23v0l0,.18a15.74,15.74,0,0,0,.63,2.71"/><path d="M65.32,51.84c4.27,1.1,4.34,1,.08-.34a63.13,63.13,0,0,0-21.49-1.81A61.74,61.74,0,0,0,22.82,55l1,2A60,60,0,0,1,44,51a62.4,62.4,0,0,1,21.28.86"/><path d="M31.54,56.52c-4.65,1.24-4.57,1.42.08.43a59.76,59.76,0,0,1,22.93.61,52.19,52.19,0,0,1,20.68,9.1l1.65-2.25a54.36,54.36,0,0,0-22-8.43,60.72,60.72,0,0,0-23.31.54"/><path d="M65.29,33.85a15.46,15.46,0,0,1,3.83,0s-1.23-.7-3.89-.4a9.63,9.63,0,0,0-5.83,2.67,4.74,4.74,0,0,0-.34,6.33,11,11,0,0,0,5.44,3.7A8.75,8.75,0,0,0,71.25,46a4.52,4.52,0,0,0,2.3-3,5.33,5.33,0,0,0-.71-3.67,8.85,8.85,0,0,0-5.58-4.22,4.58,4.58,0,0,0-4,.89,3.77,3.77,0,0,0-1.08,4.18c1.16,3,5.3,3.51,7.4,1.54l-1.82-2.11a2.07,2.07,0,0,1-3.28-.37c-.25-.48-.1-1,.41-1.54a2.34,2.34,0,0,1,2-.43,6.87,6.87,0,0,1,4.35,3,2.86,2.86,0,0,1-.75,4.29c-3.19,1.64-8.1.12-10.57-2.77A3.9,3.9,0,0,1,60,36.57a9,9,0,0,1,5.34-2.72"/><path d="M67.74,46.45c.15-.71,0-.8-.34-.11a14.3,14.3,0,0,0-.72,7.55l2.15-.59a13,13,0,0,1-1.09-6.85"/><path d="M39.36,53.38c-3.83.54-3.8.77.06.52,12.38-.72,25.42-.84,36.43,4.3l1.33-3.07c-12.44-4.64-25.47-3.36-37.82-1.75"/></svg>