<svg id="图层_1" data-name="图层 1" xmlns="http://www.w3.org/2000/svg" viewBox="0 0 100 100"><title>logohunt03</title><path d="M28.81,43.27a3.15,3.15,0,1,1-3.15-3.15,3.15,3.15,0,0,1,3.15,3.15"/><path d="M35.76,43.27a3.15,3.15,0,1,1-3.15-3.15,3.15,3.15,0,0,1,3.15,3.15"/><path d="M42.72,43.27a3.15,3.15,0,1,1-3.15-3.15,3.15,3.15,0,0,1,3.15,3.15"/><path d="M49.67,43.27a3.15,3.15,0,1,1-3.15-3.15,3.15,3.15,0,0,1,3.15,3.15"/><path d="M56.62,43.27a3.15,3.15,0,1,1-3.14-3.15,3.14,3.14,0,0,1,3.14,3.15"/><path d="M63.58,43.27a3.15,3.15,0,1,1-3.15-3.15,3.15,3.15,0,0,1,3.15,3.15"/><path d="M70.53,43.27a3.15,3.15,0,1,1-3.14-3.15,3.15,3.15,0,0,1,3.14,3.15"/><path d="M63.58,36.54a3.15,3.15,0,1,1-3.15-3.15,3.15,3.15,0,0,1,3.15,3.15"/><path d="M28.81,50a3.15,3.15,0,1,1-3.15-3.15A3.15,3.15,0,0,1,28.81,50"/><path d="M35.76,50a3.15,3.15,0,1,1-3.15-3.15A3.15,3.15,0,0,1,35.76,50"/><path d="M42.72,50a3.15,3.15,0,1,1-3.15-3.15A3.15,3.15,0,0,1,42.72,50"/><path d="M49.67,50a3.15,3.15,0,1,1-3.15-3.15A3.15,3.15,0,0,1,49.67,50"/><path d="M56.62,50a3.15,3.15,0,1,1-3.14-3.15A3.14,3.14,0,0,1,56.62,50"/><path d="M63.58,50a3.15,3.15,0,1,1-3.15-3.15A3.15,3.15,0,0,1,63.58,50"/><path d="M70.53,50a3.15,3.15,0,1,1-3.14-3.15A3.15,3.15,0,0,1,70.53,50"/><path d="M77.49,50a3.15,3.15,0,1,1-3.15-3.15A3.15,3.15,0,0,1,77.49,50"/><path d="M28.81,56.73a3.15,3.15,0,1,1-3.15-3.15,3.15,3.15,0,0,1,3.15,3.15"/><path d="M35.76,56.73a3.15,3.15,0,1,1-3.15-3.15,3.15,3.15,0,0,1,3.15,3.15"/><path d="M42.72,56.73a3.15,3.15,0,1,1-3.15-3.15,3.15,3.15,0,0,1,3.15,3.15"/><path d="M49.67,56.73a3.15,3.15,0,1,1-3.15-3.15,3.15,3.15,0,0,1,3.15,3.15"/><path d="M56.62,56.73a3.15,3.15,0,1,1-3.14-3.15,3.14,3.14,0,0,1,3.14,3.15"/><path d="M63.58,56.73a3.15,3.15,0,1,1-3.15-3.15,3.15,3.15,0,0,1,3.15,3.15"/><path d="M70.53,56.73a3.15,3.15,0,1,1-3.14-3.15,3.15,3.15,0,0,1,3.14,3.15"/><path d="M63.58,63.46a3.15,3.15,0,1,1-3.15-3.15,3.15,3.15,0,0,1,3.15,3.15"/></svg>