<svg id="图层_1" data-name="图层 1" xmlns="http://www.w3.org/2000/svg" viewBox="0 0 100 100"><defs><style>.cls-1{fill:#231815;}</style></defs><title>logohunt01</title><path class="cls-1" d="M58.34,63.47,69.25,52.59a3.44,3.44,0,0,1,5.49-.18l0,0c.09.11.19.23.27.35l10.56,13.6c3.06,3.55-2.28,8.14-5.33,4.58L71.76,60l-13,12.91a3.32,3.32,0,0,1-1.1.94,3.24,3.24,0,0,1-2.08.45,3.33,3.33,0,0,1-3.18-3L49.59,53.08,22.23,62.36a3.47,3.47,0,0,1-2.61-.07,3.46,3.46,0,0,1-1.56-5.37L35.58,33l-18.4.87c-4.68.22-5-6.8-.33-7l25.44-1.21a2.62,2.62,0,0,1,.28,0,3.54,3.54,0,0,1,3,5.65L30.23,52.22l20.42-6.93a4,4,0,0,1,1.61-.44A3.53,3.53,0,0,1,56,48.71l2.32,14.76"/></svg>