<svg id="图层_1" data-name="图层 1" xmlns="http://www.w3.org/2000/svg" viewBox="0 0 100 100"><defs><style>.cls-1{fill:#231815;}</style></defs><title>logohunt01</title><path class="cls-1" d="M38.67,29.26a1.7,1.7,0,1,1,0-3.4H61.33a1.7,1.7,0,1,1,0,3.4H38.67"/><path class="cls-1" d="M38.67,74.13a1.7,1.7,0,1,1,0-3.4H61.33a1.7,1.7,0,0,1,0,3.4H38.67"/><path class="cls-1" d="M72.48,72.27V34.18L51.27,52.43a1.87,1.87,0,1,1-2.43-2.83L76.22,26V72.27a1.87,1.87,0,0,1-3.74,0"/><path class="cls-1" d="M23.78,72.27V26L51.16,49.6a1.87,1.87,0,0,1-2.43,2.83L27.52,34.18V72.27a1.87,1.87,0,0,1-3.74,0"/></svg>