<svg id="图层_1" data-name="图层 1" xmlns="http://www.w3.org/2000/svg" viewBox="0 0 100 100"><defs><style>.cls-1{fill:#231815;}</style></defs><title>logohunt01</title><path class="cls-1" d="M52.62,79.65c-8.24-7.88-13.93-18.56-15-30a31.52,31.52,0,0,1,2.84-16.55c2.54-5.3,8-11.83,14.19-12.58,3.2-.38,4.42,2.45,4.29,5.13a10.84,10.84,0,0,1-3.84,7.51c-1.81,1.7-3.79,3.19-5.57,4.93-1,1-2.52,2.52-2.41,4,.15,2,1.46,3.08,3.23,3.91,2.65,1.26,5.37,1.82,7.79,3.58,5.93,4.3,4.79,10.9,1.44,16.44a55.52,55.52,0,0,1-7.05,8.77c-.32.33.4.41.61.18,3.81-4.07,7.67-8.48,9.51-13.83,1.74-5.07-.45-9.44-4.6-12.46-3.41-2.48-13.85-3.55-8.67-9.64,3-3.48,7.85-5.64,9.53-10.1,1.18-3.13,1.5-7.92-2.57-8.88S47.8,23,45.12,25.58c-7.53,7.34-9.53,18.12-7.73,28.17S44.67,73,51.93,80c.23.22.94-.08.69-.31"/></svg>