<svg id="图层_1" data-name="图层 1" xmlns="http://www.w3.org/2000/svg" viewBox="0 0 100 100"><defs><style>.cls-1{fill:#231815;}.cls-2{fill:#fff;}</style></defs><title>logohunt02</title><path class="cls-1" d="M33.83,69.26H47.22a52.18,52.18,0,0,0,8.94-.57,13.59,13.59,0,0,0,7.5-3.79,9,9,0,0,0,2.51-6.25,8,8,0,0,0-1.25-4.38,9.39,9.39,0,0,0-4.06-3.45,16,16,0,0,0-5.07-1.26l-.37,0A8.84,8.84,0,0,0,57.78,49a10.24,10.24,0,0,0,2.33-1.1,8.81,8.81,0,0,0,4.07-7.4,8.91,8.91,0,0,0-4.06-7.43,15.65,15.65,0,0,0-7.46-2.23c-1.23-.07-2.6-.11-4.13-.11H33.83V69.26"/><path class="cls-2" d="M53.25,57.58v-.1a2.14,2.14,0,0,0-1.06-1.86,4,4,0,0,0-1.21-.5,12.22,12.22,0,0,0-2.84-.28,8.18,8.18,0,0,0-3.36.52,2.52,2.52,0,0,0-1.36,1.32,2.29,2.29,0,0,0,.16,1.92A3,3,0,0,0,45,59.78a7.46,7.46,0,0,0,3,.62h.35a7.67,7.67,0,0,0,3.07-.53,3.81,3.81,0,0,0,1-.57,2.29,2.29,0,0,0,.86-1.72m-2-14.78a2.81,2.81,0,0,0,0-.29,3.29,3.29,0,0,0-.95-2.33,3.56,3.56,0,0,0-2.59-1,3.72,3.72,0,0,0-2.5.86,3.49,3.49,0,0,0,0,4.94,3.43,3.43,0,0,0,1,.59,4.36,4.36,0,0,0,1.49.26A3.63,3.63,0,0,0,50,45.15,3.19,3.19,0,0,0,51.22,42.8Zm4.2-6.34V39H52.75a4,4,0,0,1,.61.53,5.5,5.5,0,0,1,.47.61,4.28,4.28,0,0,1,.76,2.54,5.35,5.35,0,0,1-2.93,4.84,9.28,9.28,0,0,1-2.46.84l-1,.22-.71.14a6.75,6.75,0,0,0-.68.2,2.23,2.23,0,0,0-.57.3,1.23,1.23,0,0,0-.52,1,1.36,1.36,0,0,0,.42,1A4,4,0,0,0,48.5,52l1.37.17a17.87,17.87,0,0,1,3.21.62,7.2,7.2,0,0,1,1.26.51,4.24,4.24,0,0,1,2,2.46,4.76,4.76,0,0,1,.23,1.47A5.47,5.47,0,0,1,55,61,8.18,8.18,0,0,1,50.37,63a16.84,16.84,0,0,1-2.14.14A11.76,11.76,0,0,1,42.92,62a5.87,5.87,0,0,1-2.63-2.73A4.49,4.49,0,0,1,40,57.53a4.32,4.32,0,0,1,2.31-3.91,6.94,6.94,0,0,1,1.79-.69l.31-.07a3.26,3.26,0,0,1-.92-.46,2.11,2.11,0,0,1-.89-1.76A2.16,2.16,0,0,1,43.28,49a3.07,3.07,0,0,1,.61-.44A6,6,0,0,1,45,48.09l.27-.09a6.49,6.49,0,0,1-1-.34,5.42,5.42,0,0,1-2.92-3.11,6,6,0,0,1-.34-2,6.31,6.31,0,0,1,1.21-3.71,5.87,5.87,0,0,1,1.68-1.49,7.68,7.68,0,0,1,3.6-.94c.5,0,1.09,0,1.75,0l2.28,0Z"/></svg>