<svg id="图层_1" data-name="图层 1" xmlns="http://www.w3.org/2000/svg" viewBox="0 0 100 100"><defs><style>.cls-1{fill-rule:evenodd;}</style></defs><title>logohunt03</title><path class="cls-1" d="M48.55,41c-12.14.52-13.79-5.32-15.5-15,12.13.19,17.74-.47,17.3,9.91a42.26,42.26,0,0,0-10.49-6c4.45,3.68,7.81,5.46,8.69,11.08"/><path class="cls-1" d="M56.19,35.14c.08-1.46-.72-1.9-1.95-1.75-4.6,5.51-3.85,5.82-5.05,12.44-27-3.61-10.54,38.29,1.55,25.86C63.59,84,78.82,41.36,52.49,46.22c.14-4.82.9-7.26,3.7-11.08M41.43,48.68c-4.84.79-6.16,11.56-2.72,17.81-.33-6.9,1.53-12.81,5.2-16.1,1.54-1.59-.94-2.11-2.48-1.71"/></svg>