<svg id="图层_1" data-name="图层 1" xmlns="http://www.w3.org/2000/svg" viewBox="0 0 100 100"><title>logohunt03</title><path d="M65.31,40c-.31-.46,0-1.28.61-1.83l4.48-3.75a1.41,1.41,0,0,1,2.11.25c.37.56.74,1.13,1.08,1.72s.65,1.19.94,1.79a1.42,1.42,0,0,1-.82,2l-5.5,2a1.55,1.55,0,0,1-1.89-.38c-.15-.3-.31-.6-.48-.89s-.35-.59-.53-.87"/><path d="M67.81,45.83c-.13-.54.39-1.22,1.2-1.51l5.49-2a1.42,1.42,0,0,1,1.89,1c.17.65.32,1.31.43,2s.21,1.34.28,2a1.42,1.42,0,0,1-1.45,1.55H69.81c-.86,0-1.59-.45-1.65-1,0-.34-.09-.67-.15-1s-.13-.66-.2-1"/><path d="M68.16,52.17c.06-.55.79-1,1.65-1h5.84a1.42,1.42,0,0,1,1.45,1.55c-.07.67-.16,1.34-.28,2s-.26,1.33-.42,2a1.43,1.43,0,0,1-1.9,1l-5.49-2c-.81-.3-1.33-1-1.2-1.51.07-.33.14-.66.2-1s.11-.67.15-1"/><path d="M66.32,58.25a1.56,1.56,0,0,1,1.89-.38l5.49,2a1.42,1.42,0,0,1,.84,2c-.3.61-.61,1.21-1,1.8s-.7,1.16-1.08,1.71a1.42,1.42,0,0,1-2.11.26l-4.48-3.75c-.65-.56-.92-1.37-.61-1.83.18-.28.36-.57.53-.87s.33-.59.48-.89"/><path d="M49,31.74c-.56,0-1.13-.6-1.28-1.45l-1-5.75A1.42,1.42,0,0,1,48,22.84c.67-.05,1.35-.08,2-.08s1.36,0,2,.08a1.42,1.42,0,0,1,1.27,1.69l-1,5.76c-.15.85-.72,1.48-1.28,1.45-.33,0-.67,0-1,0s-.68,0-1,0"/><path d="M55.29,32.5a1.56,1.56,0,0,1-.7-1.8l1-5.76a1.41,1.41,0,0,1,1.78-1.15c.65.18,1.29.38,1.94.62s1.26.48,1.87.76a1.41,1.41,0,0,1,.62,2l-2.92,5.06c-.43.75-1.18,1.15-1.7.93l-.94-.38c-.31-.11-.63-.22-1-.31"/><path d="M61,35.36a1.54,1.54,0,0,1-.05-1.93l2.93-5.06a1.4,1.4,0,0,1,2.06-.48c.55.39,1.08.81,1.61,1.24s1,.9,1.5,1.37a1.42,1.42,0,0,1-.11,2.12l-4.48,3.75a1.54,1.54,0,0,1-1.91.29c-.24-.23-.5-.45-.75-.67s-.53-.43-.8-.63"/><path d="M62.51,63.34a1.55,1.55,0,0,1,1.91.28l4.48,3.76A1.41,1.41,0,0,1,69,69.5c-.48.47-1,.93-1.5,1.37s-1.06.85-1.6,1.24a1.42,1.42,0,0,1-2.07-.48l-2.92-5.06a1.55,1.55,0,0,1,0-1.93c.27-.2.53-.41.8-.63s.51-.44.75-.67"/><path d="M57.2,66.81c.51-.22,1.26.18,1.69.93l2.93,5.06a1.42,1.42,0,0,1-.62,2c-.62.27-1.24.53-1.88.77s-1.29.43-1.93.61a1.42,1.42,0,0,1-1.79-1.15l-1-5.76a1.56,1.56,0,0,1,.7-1.8c.33-.09.65-.2,1-.31l.94-.38"/><path d="M51,68.26c.56,0,1.13.6,1.28,1.45l1,5.75A1.43,1.43,0,0,1,52,77.16c-.67,0-1.35.08-2,.08s-1.36,0-2-.08a1.42,1.42,0,0,1-1.27-1.69l1-5.76c.15-.85.72-1.48,1.28-1.45.33,0,.67,0,1,0s.68,0,1,0"/><path d="M44.71,67.51c.53.16.85.95.7,1.79l-1,5.76a1.42,1.42,0,0,1-1.78,1.16c-.65-.18-1.29-.39-1.94-.62s-1.26-.5-1.87-.77a1.41,1.41,0,0,1-.62-2l2.92-5.06c.43-.75,1.18-1.15,1.69-.93.31.14.63.26,1,.38l1,.32"/><path d="M39,64.64a1.54,1.54,0,0,1,.05,1.93l-2.92,5.06a1.42,1.42,0,0,1-2.07.48c-.55-.39-1.09-.8-1.61-1.24s-1-.9-1.5-1.37a1.41,1.41,0,0,1,.11-2.12l4.48-3.75a1.54,1.54,0,0,1,1.91-.29c.24.23.49.45.75.67s.53.43.8.63"/><path d="M34.69,60c.31.46.05,1.28-.61,1.83L29.6,65.6a1.42,1.42,0,0,1-2.11-.26c-.38-.56-.74-1.13-1.08-1.72s-.65-1.19-.94-1.79a1.42,1.42,0,0,1,.82-2l5.5-2a1.55,1.55,0,0,1,1.89.38q.23.45.48.9c.17.29.35.58.53.86"/><path d="M32.19,54.17c.13.54-.39,1.22-1.2,1.51l-5.49,2a1.42,1.42,0,0,1-1.89-1c-.17-.66-.32-1.32-.44-2s-.2-1.34-.27-2a1.42,1.42,0,0,1,1.45-1.55h5.84c.86,0,1.59.45,1.65,1,0,.34.09.67.15,1s.13.66.2,1"/><path d="M31.84,47.83c-.06.55-.79,1-1.65,1H24.35a1.42,1.42,0,0,1-1.45-1.55c.07-.67.15-1.34.27-2s.27-1.33.43-2a1.44,1.44,0,0,1,1.9-1l5.49,2c.81.3,1.33,1,1.2,1.51-.07.33-.14.66-.2,1s-.11.66-.15,1"/><path d="M33.68,41.75c-.25.5-1.09.67-1.89.38l-5.49-2a1.41,1.41,0,0,1-.83-2c.28-.61.6-1.21.94-1.8s.7-1.16,1.08-1.71a1.42,1.42,0,0,1,2.11-.26l4.48,3.75c.65.56.92,1.37.61,1.84-.18.27-.36.56-.53.86s-.33.59-.48.89"/><path d="M37.49,36.66a1.55,1.55,0,0,1-1.91-.28L31.1,32.62A1.41,1.41,0,0,1,31,30.5c.48-.47,1-.93,1.5-1.37s1.06-.85,1.6-1.24a1.42,1.42,0,0,1,2.07.48l2.92,5.06a1.55,1.55,0,0,1,0,1.93c-.27.2-.54.41-.8.63s-.51.45-.75.67"/><path d="M42.8,33.19c-.51.22-1.26-.18-1.7-.93L38.18,27.2a1.42,1.42,0,0,1,.62-2c.62-.28,1.24-.53,1.88-.77S42,24,42.61,23.79a1.42,1.42,0,0,1,1.79,1.15l1,5.76a1.54,1.54,0,0,1-.71,1.8c-.32.09-.64.2-1,.31l-.94.38"/></svg>