<svg id="图层_1" data-name="图层 1" xmlns="http://www.w3.org/2000/svg" viewBox="0 0 100 100"><title>logohunt03</title><path d="M39.33,31.13C36.48,38.86,35,45.48,35,51.06c0,5.31,1.33,8.9,4,10.73a18.06,18.06,0,0,0,8.46,2.72c.65,0,1.31.08,2,.11s1.1,0,1.65,0l.94-.08a21.61,21.61,0,0,0,2.36-.34,18.61,18.61,0,0,0,6-2.3Q65,59,65,51.06c0-5.58-1.59-12.52-4.82-20.87-3.08-8-6.62-11.78-10.57-11.28s-7.49,4.71-10.24,12.22"/><path d="M50.88,70a17.54,17.54,0,0,1,1-2.15,14,14,0,0,1,1.31-2.1,27.12,27.12,0,0,1-3.64.19c-.84,0-1.65,0-2.44-.13-.21.65-.39,1.33-.55,2a4.35,4.35,0,0,1-.13.58c-.08-.19-.16-.4-.23-.58a9.34,9.34,0,0,0-1.58-2.44A12.42,12.42,0,0,1,43,65.06a11.72,11.72,0,0,1,1.73,2.83,25.81,25.81,0,0,1,1.31,3.56c.29.92.6,1.75.94,2.57,1.1,2.59.32,4.94-2.35,7.12H55.59a24.23,24.23,0,0,1-2-3l-1.41-2.91c0-.13-.1-.29-.16-.44a.8.8,0,0,0-.08-.16.65.65,0,0,0-.05-.18,20.09,20.09,0,0,1-1-4.45"/></svg>