<svg id="图层_1" data-name="图层 1" xmlns="http://www.w3.org/2000/svg" viewBox="0 0 100 100"><title>logohunt03</title><path d="M45.75,45.75s-1-9.43-7.4-15.84-15.84-7.4-15.84-7.4,1,9.43,7.4,15.84,15.84,7.4,15.84,7.4"/><path d="M44.77,44.77a12.63,12.63,0,0,0-3.2-6.86A12.62,12.62,0,0,0,34.7,34.7a12.62,12.62,0,0,0,3.21,6.87,12.63,12.63,0,0,0,6.86,3.2"/><path d="M45.75,45.75s-7.68,5.56-10,14.32,1.52,17.42,1.52,17.42,7.68-5.56,10-14.33-1.52-17.41-1.52-17.41"/><path d="M45.39,47.08a12.62,12.62,0,0,0-4.34,6.21,12.68,12.68,0,0,0,.65,7.55,12.67,12.67,0,0,0,4.35-6.21,12.64,12.64,0,0,0-.66-7.55"/><path d="M45.75,45.75s8.65,3.86,17.41,1.52,14.33-10,14.33-10-8.66-3.86-17.42-1.51-14.32,10-14.32,10"/><path d="M47.08,45.39a12.64,12.64,0,0,0,7.55.66,12.67,12.67,0,0,0,6.21-4.35,12.68,12.68,0,0,0-7.55-.65,12.62,12.62,0,0,0-6.21,4.34"/><path d="M45.75,45.75l1.79.66a.89.89,0,0,0-1.13,1.13Z"/><path d="M45.75,45.75l-.32-1.89a.88.88,0,0,0,.64.7.87.87,0,0,0,.89-.28Z"/><path d="M45.75,45.75,44.28,47a.87.87,0,0,0,.28-.89.88.88,0,0,0-.7-.64Z"/></svg>