<svg id="图层_1" data-name="图层 1" xmlns="http://www.w3.org/2000/svg" viewBox="0 0 100 100"><title>logohunt03</title><path d="M75.69,45.22C73.43,42.6,61.28,43,61.28,43H26.12l-.51.87H55.26s12.15-.43,14.42,2.18-2.39,8.38-2.39,8.38L65.41,57h6.34l2.35-3.33s3.86-5.83,1.59-8.44"/><path d="M66.81,47c-2.26-2.61-14.41-2.18-14.41-2.18H25.12l-.51.87H46.38s12.15-.43,14.42,2.18-3.18,8.42-3.18,8.42l-.71.75H62.5l1.4-1.57s5.18-5.86,2.91-8.47"/><path d="M57.91,48.72C55.65,46.1,43.5,46.54,43.5,46.54H24.1l-.51.87H37.48S49.63,47,51.9,49.59c1.67,1.93-1.56,5.62-3.35,7.4h5.56c1-.94,5.85-5.92,3.8-8.27"/></svg>