<svg id="图层_1" data-name="图层 1" xmlns="http://www.w3.org/2000/svg" viewBox="0 0 100 100"><title>logohunt03</title><path d="M49.28,28.44c-6.14-.72-13.67-.28-18.88,3.14a14.38,14.38,0,0,0-3.72,4.12,27.71,27.71,0,0,0-1.48,2.93c-.62,1.43-.23,1.62.85.51,7.29-7.51,16.86-7.53,23.57-5.71,11.31,3.07,13.07,10.48,10.91,14.5C60.3,48.36,59,41.5,53.8,40c-1.49-.43-3.53-.7-2.41.37,3,2.91,3.36,6.08,3.24,9.54-.1,2.85-1.47,7.38.69,10S60.6,63.33,64,63.33a12.85,12.85,0,0,0,9.57-4,13.74,13.74,0,0,0,3.88-9.9,25.83,25.83,0,0,0-8.11-19,26.71,26.71,0,0,0-19.31-8c-.8,0-1.58,0-2.35.09-5.44.48-1.1.51.41.87a27.58,27.58,0,0,1,4.73,1.65c1.43.61,1.35.79-.15.4a34.34,34.34,0,0,0-11.06-1,16,16,0,0,0-5.49,1.67c-.49.26-4.54,3-3.06,2.5A31.58,31.58,0,0,1,49.37,28c1.5.4,1.45.6-.09.42"/><path d="M50.72,71.56c6.14.72,13.67.28,18.88-3.14a14.47,14.47,0,0,0,3.72-4.11,28.86,28.86,0,0,0,1.48-2.94c.62-1.43.23-1.62-.85-.51-7.29,7.51-16.86,7.53-23.57,5.71C39.07,63.5,37.31,56.09,39.47,52.07,39.7,51.64,41,58.5,46.2,60c1.49.43,3.53.71,2.41-.37-3-2.91-3.36-6.08-3.24-9.54.1-2.85,1.47-7.38-.69-10S39.4,36.67,36,36.67a12.85,12.85,0,0,0-9.57,4,13.76,13.76,0,0,0-3.88,9.9,25.87,25.87,0,0,0,8.11,19,26.74,26.74,0,0,0,19.31,8c.8,0,1.58,0,2.35-.09,5.44-.48,1.1-.51-.41-.87a27.58,27.58,0,0,1-4.73-1.65c-1.43-.61-1.35-.79.15-.4a34.34,34.34,0,0,0,11.06,1,16,16,0,0,0,5.49-1.67c.49-.26,4.54-3,3.06-2.5A31.58,31.58,0,0,1,50.63,72c-1.5-.4-1.45-.59.09-.42"/></svg>