<svg id="图层_1" data-name="图层 1" xmlns="http://www.w3.org/2000/svg" viewBox="0 0 100 100"><defs><style>.cls-1{fill:#231815;}</style></defs><title>logohunt01</title><path class="cls-1" d="M60.47,68.89c-.8,1.34,2.39.68,1.1,2.27,1.64-.16,3.21.24,5-.67.29-.48-1-.15-.46-.77a3.92,3.92,0,0,0,2.7-.86,32,32,0,0,1-8.3,0"/><path class="cls-1" d="M62.26,72.3c.2,1,2.81,1.12,5-.67-1.66.29-3.27.26-5,.67"/><polyline class="cls-1" points="27.83 27.1 17.84 27.1 25.17 48.71 34.44 48.71 27.83 27.1"/><polyline class="cls-1" points="50 42.06 52.29 48.71 61.29 48.71 54.12 26.98 46.12 26.98 38.96 48.71 47.71 48.71 50 42.06"/><polyline class="cls-1" points="82.16 27.1 72.41 27.1 65.8 48.71 74.83 48.71 82.16 27.1"/><path class="cls-1" d="M73.89,52.4c0-.38-.3-.33-.33-.66-.12-1.1,2.38-2.33,1.26-3.41-.56-.55-2.6-.31-3.38-.41a28.53,28.53,0,0,0-2.9-.42c-1.47-.06-3.15.53-3,2.35.11,1,.19.85-.52,1.67-.55.63-.26,1-.43,1.68a8.32,8.32,0,0,1-.82,1.52,6.15,6.15,0,0,0-.47-1.37c-.24-.34-.86-.45-1-.87-.17-.58.71-.93.57-1.53s-.7-.67-1-1a5.63,5.63,0,0,1-.72-1.26c-1.08-2.12-2.31-2.45-4.16-1a2.27,2.27,0,0,1-2.54.51C53.63,48,52,48,52.43,49.27c.32.94,1.74,1.14,1.93,2.2.12.69-.59,1.44-.65,2.16-.09,1.12.87,1.45,1.8,2,.55.35,2.14.73,2.44,1.3s.13.3-.32.75-1,.86-1,1.65a1.34,1.34,0,0,0,.18.78c.16.3.72.5.83.73.37.81-1,1-.65,2,.18.57.88.72,1.39,1a3.33,3.33,0,0,0,1.35.55c.54.07,1-.15,1.28.51a3.92,3.92,0,0,0-2.7.86c0,1,3.07.55,3.52,1.38a2.73,2.73,0,0,0-2.14.91c3.12.24,6.18.83,9.49-.29,2.05-1.71-1.62-.52-.31-1.84,1-.54,1.9,0,3-1.2.27-1-3.4,0-2.39-1.29.86-.67,1.53,0,2.47-1.24-.55-.1-2.4.15-2.56-.67-.11-.57.54-.62.94-.88a19,19,0,0,0,2.16-1.75c.72-.68.61-.95-.07-1.67-1-1.07-.89-1.61,0-2.8.35-.46,1.41-1.49,1.42-2.07"/><path class="cls-1" d="M47.91,48.81c0-1.38-4.63-.4-5.39-.39-.51,0-3.62-.48-3.9,0-.17.29.38.71.45,1,.32,1.37-1.79,1.26-1.21,2.28.32.58.53.3.27.91-.05.12-.25.07-.34.16a5.66,5.66,0,0,0-.55.8c-.38.62-.67,1.28-1,1.91,0-.79-.74-.81-.95-1.44-.29-.88.95-1.63.36-2.52-.29-.43-1.24-.52-1.41-1s.27-.31.44-.77-.33-1-.48-1.41c-1.29-.07-2.61,0-3.91,0H27.71a8.31,8.31,0,0,0-2.22-.07c-1.32.63,1.25,2.7,1.17,3.46,0,.33-.34.28-.33.66,0,.58,1.07,1.61,1.41,2.07.88,1.19,1,1.73,0,2.8-.68.72-.79,1-.07,1.67a18.15,18.15,0,0,0,2.16,1.75c.39.26,1.05.31.94.88-.16.82-2,.57-2.56.67.94,1.27,1.6.57,2.46,1.24,1,1.34-2.65.32-2.39,1.29,1.13,1.22,2,.66,3,1.2,1.31,1.32-2.37.13-.31,1.84,3.31,1.12,6.37.53,9.48.29a2.7,2.7,0,0,0-2.13-.91c.45-.83,3.51-.34,3.52-1.38a4,4,0,0,0-2.7-.87c.33-.65.74-.43,1.28-.5a3.33,3.33,0,0,0,1.35-.55c.68-.39,1.54-.56,1.42-1.5-.09-.7-1.14-1.12-.92-1.9s1.55-.72,1.64-1.62c.06-.61-.56-1.25-.41-2.09.33-1.78,3.12-1.28,3-3.15-.06-.72-.77-1.47-.65-2.16.19-1.07,2-1.54,2-2.66"/><path class="cls-1" d="M31.45,68.86a3.92,3.92,0,0,0,2.7.86c.57.62-.75.29-.46.77,1.75.91,3.31.51,5,.67-1.29-1.59,1.89-.93,1.1-2.27a32,32,0,0,1-8.3,0"/><path class="cls-1" d="M33,71.63c2.16,1.79,4.76,1.66,5,.68-1.68-.42-3.29-.39-5-.68"/></svg>