<svg id="图层_1" data-name="图层 1" xmlns="http://www.w3.org/2000/svg" viewBox="0 0 100 100"><title>logohunt03</title><path d="M66.82,24.92a7,7,0,0,0-11.94,4.35A8.87,8.87,0,0,0,52.59,29a8.56,8.56,0,0,0-6.21,2.54,9.61,9.61,0,0,0-1.2,1.53,10.91,10.91,0,0,0-3.62-.6A10.6,10.6,0,0,0,31,43a10.15,10.15,0,0,0,3.11,7.47,4.87,4.87,0,0,0,.6.54l-.21.22a9.69,9.69,0,0,0,6.87,16.54,10.87,10.87,0,0,0,7.47-3.28C51,66.85,53.22,68,55.61,68A10.07,10.07,0,0,0,65.7,57.93a10.82,10.82,0,0,0-.09-1.42,9.63,9.63,0,0,0,.85-11.3c.21-.18.42-.36.63-.57a6.66,6.66,0,0,0,0-9.38,3.6,3.6,0,0,1-.36-.33l.09-.09a7,7,0,0,0,0-9.92M48.88,63.08a9.45,9.45,0,0,1-6,3.28c-1.6-5.66-3.71-8.92-6.36-9.79,3.13.51,5.39,2.5,6.75,6a24.33,24.33,0,0,1,3.4-8.8q-.27-9.45-10-16.67,8.46,2.22,12,13.17c1.12-3,5.91-8.86,14.44-17.72-8.05,10.58-13,19.53-14.8,26.88a19.13,19.13,0,0,1,11.09-6.21,17.42,17.42,0,0,0-10.61,9.89"/><path d="M48.58,65.52a11,11,0,0,1-4.91,2.53c.15.51.24.79.27.88,1.27,3,.36,5.69-2.71,8.19h12.6a21.69,21.69,0,0,1-1.3-1.77l-.78-1.21c-.09-.18-.18-.36-.27-.51a22.35,22.35,0,0,1-1.6-3.26.33.33,0,0,1,0-.15l0-.09c0-.09-.09-.18-.12-.27l0-.06a.33.33,0,0,0,0-.15l-.09-.18c-.09-.27-.15-.51-.24-.78a20.4,20.4,0,0,1-.73-3.17"/></svg>