<svg id="图层_1" data-name="图层 1" xmlns="http://www.w3.org/2000/svg" viewBox="0 0 100 100"><defs><style>.cls-1{fill:#231815;}</style></defs><title>logohunt01</title><polyline class="cls-1" points="50.59 29.08 73.84 29.08 73.42 29.51 51.04 29.52 51.04 70.45 50.59 70.91 50.59 29.08"/><polyline class="cls-1" points="55.03 33.49 69.49 33.49 69.03 33.95 55.49 33.94 55.49 66.01 55.02 66.47 55.03 33.49"/><polyline class="cls-1" points="53.98 67.47 53.54 67.94 53.55 32 70.92 32 70.45 32.47 53.98 32.47 53.98 67.47"/><polyline class="cls-1" points="57.02 64.49 56.56 64.95 56.56 34.98 68 34.99 67.55 35.44 57.01 35.44 57.02 64.49"/><polyline class="cls-1" points="52.05 69.38 52.49 68.94 52.49 30.96 71.94 30.96 72.34 30.56 52.04 30.57 52.05 69.38"/><polyline class="cls-1" points="49.41 29.08 26.16 29.08 27.41 30.34 48.15 30.34 48.15 69.66 49.41 70.92 49.41 29.08"/><polyline class="cls-1" points="30.79 33.71 44.77 33.72 44.77 66.27 46.02 67.53 46.02 32.46 29.54 32.46 30.79 33.71"/><polyline class="cls-1" points="32.51 35.43 43.05 35.42 43.05 64.55 44.32 65.81 44.32 34.16 31.23 34.16 32.51 35.43"/><polyline class="cls-1" points="47.69 30.78 27.86 30.78 29.11 32.03 46.44 32.03 46.44 67.94 47.69 69.2 47.69 30.78"/></svg>