<svg id="图层_1" data-name="图层 1" xmlns="http://www.w3.org/2000/svg" viewBox="0 0 100 100"><title>logohunt01</title><path d="M57,77.27c-9,0-18.07,0-27.1,0-.81,0-1-.14-1-1,0-7.56,0-15.12,0-22.68a56.53,56.53,0,0,1,7.36-.17,25,25,0,0,0,9.22-1.77C51.13,49.31,54,45,54.05,38.92S51.53,28.43,46,25.82a33.29,33.29,0,0,0-6.72-1.92c4.05-.07,8.08-.08,12.12-.07a25.09,25.09,0,0,1,6.56.86c11.27,3,13.08,17.79,6.19,23.22-.84.67-.44,1,.22,1.34a14.52,14.52,0,0,1,7,9.79,13.15,13.15,0,0,1-.71,7.32,14.36,14.36,0,0,1-7.88,8.88A34.13,34.13,0,0,1,57,77.27Z"/></svg>