<svg id="图层_1" data-name="图层 1" xmlns="http://www.w3.org/2000/svg" viewBox="0 0 100 100"><title>logohunt03</title><path d="M71.26,52.42C77.85,40.36,59.65,42.1,59.65,42.1s-8.83-15.44-15-4.19c-4,7.34-1.24,25.6,2.44,27.61,3.27,1.78,20.13-5.76,24.14-13.1"/><path d="M65.13,55.88c5-9.11-8.76-7.79-8.76-7.79s-6.66-11.65-11.29-3.16c-3,5.53-.94,19.31,1.84,20.83,2.47,1.35,15.19-4.35,18.21-9.88"/><path d="M58.73,59.48C62,53.48,53,54.35,53,54.35s-4.39-7.69-7.45-2.09c-2,3.65-.61,12.74,1.22,13.74,1.62.89,10-2.86,12-6.52"/><path d="M39,52.21c-5-4.65-6.4,4.34-6.4,4.34S24,58.91,28.7,63.25c3.05,2.83,12.2,3.74,13.62,2.21C43.58,64.1,42,55,39,52.21"/></svg>