<svg id="图层_1" data-name="图层 1" xmlns="http://www.w3.org/2000/svg" viewBox="0 0 100 100"><defs><style>.cls-1{fill:#231815;}</style></defs><title>logohunt02</title><path class="cls-1" d="M55.29,74.74c-.1-.07-.5,0-.59-.13s.09-.38,0-.49-.39,0-.46-.14.15-.37.09-.48-.4-.08-.45-.2.18-.35.12-.47-.38-.1-.43-.22.2-.35.15-.47-.38-.12-.42-.24.21-.34.17-.46-.37-.13-.41-.25.22-.33.18-.45-.37-.15-.41-.27.23-.33.2-.45-.37-.16-.41-.28.24-.32.21-.44-.37-.16-.4-.28.24-.32.21-.45-.37-.16-.4-.28.25-.32.22-.44-.36-.17-.39-.3.25-.31.22-.43-.36-.18-.38-.3.25-.31.22-.43-.35-.18-.38-.31.26-.3.23-.43-.35-.18-.38-.3.26-.31.24-.43-.36-.19-.38-.31.26-.3.24-.43-.35-.19-.37-.31.26-.3.24-.42-.35-.2-.37-.32.26-.3.24-.42-.35-.2-.37-.32.27-.3.25-.42-.35-.2-.37-.32.28-.3.26-.42-.35-.2-.37-.33.28-.29.26-.41-.35-.21-.36-.33.27-.29.26-.41-.34-.21-.36-.33.28-.29.26-.41-.34-.21-.35-.34.28-.28.27-.41-.34-.21-.36-.33.29-.29.28-.41-.34-.22-.35-.34.29-.28.28-.4-.33-.23-.34-.35.29-.28.29-.4-.33-.24-.33-.36.3-.26.3-.38-.31-.35-.31-.45h0v-.1c.15-1.87.5-4.92,3.74-6.7a1.68,1.68,0,0,0,.8-1.27l0-.38V46l0,.12.73-19.4a1.43,1.43,0,0,1,1.78-1.45c.61,0,1.18.84,1.18,1.45V71.13c0,.11,0,.24,0,.36s0,.35,0,.52h0a1,1,0,0,1,0,.17c-.13,1.49-.73,2.87-2.33,2.81a2.35,2.35,0,0,1-.94-.25h0"/><path class="cls-1" d="M44.71,25.26c.09.07.49,0,.58.13s-.09.38,0,.48.4,0,.46.15-.14.36-.08.48.39.07.45.19-.18.35-.13.47.39.11.44.22-.2.35-.15.47.38.12.42.24-.21.34-.17.46.38.13.42.25-.22.33-.19.46.38.14.41.26-.23.33-.19.45.37.15.4.27-.23.33-.2.45.37.16.4.28-.24.32-.21.44.37.17.4.29-.25.32-.22.44.36.17.39.29-.25.32-.22.44.36.17.39.3-.25.31-.23.43.36.18.39.3-.26.31-.23.43.35.19.38.31-.26.3-.24.43.36.18.38.31-.26.3-.24.42.36.19.38.31-.26.31-.24.43.35.19.37.31-.26.3-.24.43.35.19.37.31-.27.3-.25.42.35.2.37.33-.27.29-.25.41.34.2.36.33-.27.29-.25.41.34.21.36.33-.28.29-.26.41.34.21.36.33-.28.29-.26.41.34.22.35.34-.28.29-.26.41.33.21.35.34-.29.28-.27.4.33.22.34.34-.28.28-.27.4.33.23.34.35-.3.28-.29.4.33.24.33.36-.3.27-.3.38.32.35.31.45h0v.1c-.15,1.87-.49,4.92-3.72,6.72a1.65,1.65,0,0,0-.79,1.27l0,.37V54a1.13,1.13,0,0,1,0-.12l-.67,19.41a1.43,1.43,0,0,1-1.78,1.45c-.61,0-1.18-.83-1.18-1.44l-.14-44.45c0-.12,0-.24,0-.37s0-.34,0-.51v0a.86.86,0,0,1,0-.16c.13-1.49.72-2.88,2.32-2.82a2.19,2.19,0,0,1,.94.25h0"/></svg>