<svg id="图层_1" data-name="图层 1" xmlns="http://www.w3.org/2000/svg" viewBox="0 0 100 100"><defs><style>.cls-1{fill:#231815;}</style></defs><title>logohunt01</title><path class="cls-1" d="M64.56,75.58a5.31,5.31,0,0,1-4.1-1.82L47.08,57.49V46.84h4.71c4,0,6.69-2.35,6.69-6.38s-2.74-6.16-6.69-6.16H47.08V24.42h4.71c10.79,0,17.79,4.63,17.79,16,0,7.91-5.93,12.39-13.15,13.53L68.51,66.92A4.75,4.75,0,0,1,70,70.11a5.48,5.48,0,0,1-5.4,5.47"/><path class="cls-1" d="M45.12,42.53a1.2,1.2,0,1,1,0,2.39H34.89a1.2,1.2,0,1,1,0-2.39H45.12"/><path class="cls-1" d="M41.27,55.1a1.2,1.2,0,1,1,0,2.39H34.89a1.2,1.2,0,1,1,0-2.39h6.38"/><path class="cls-1" d="M43.19,28.62a1.39,1.39,0,0,1-1.46,1.54,1.41,1.41,0,0,1-1.48-1.54v-.79H37.38L34,30.63a1.3,1.3,0,0,0-.43,1,1.28,1.28,0,0,0,1.28,1.25,1.09,1.09,0,0,0,.73-.33l3-2.83c.27,1.7,1.31,3.07,3.14,3.07,2.61,0,3.75-1.57,3.75-4.13v-.79H43.19v.79m1-4.2H34.86a1.19,1.19,0,0,0-1.3,1.24,1.17,1.17,0,0,0,1,1.23h10.9V25.7a1.17,1.17,0,0,0-1.29-1.28"/><path class="cls-1" d="M45.12,67.69H34.89a1.21,1.21,0,0,0-1.33,1.19,1.17,1.17,0,0,0,1.1,1.18H45.35a1.17,1.17,0,0,0,1.1-1.18,1.21,1.21,0,0,0-1.33-1.19M40.6,71a1.9,1.9,0,0,1,.1.61,1.49,1.49,0,0,1-1.64,1.56H34.89a1.2,1.2,0,1,0,0,2.39h4.58a3.06,3.06,0,0,0,3.22-3.27A3.69,3.69,0,0,0,42.47,71Z"/><path class="cls-1" d="M41.66,64.49l-7.2,0H34a1.85,1.85,0,0,1-1.9-2c0-1.38.75-2.22.75-3a1.17,1.17,0,0,0-1.05-1c-1.31,0-1.79,2.79-1.79,3.77,0,2.72,1.45,4.6,4.32,4.6h6.91a1.21,1.21,0,0,0,1.32-1.2,1.11,1.11,0,0,0-.93-1.17m-5.74-1a1.65,1.65,0,0,1-.27-.93c0-1.24,1.17-1.86,2.44-1.86,1.12,0,2.41.62,2.41,1.86a1.55,1.55,0,0,1-.28.93h2.19a2.87,2.87,0,0,0,.28-1.24c0-2.41-2.24-3.94-4.65-3.94S33.46,59.52,33.46,62a3.18,3.18,0,0,0,.33,1.49Z"/><path class="cls-1" d="M38.06,45.68a4.36,4.36,0,0,0-4.6,4.49c0,1.77,1,3.9,2,3.9a1.07,1.07,0,0,0,1-1c0-.63-1-1.48-1-2.71a2.07,2.07,0,0,1,1.73-2.26h0a7.07,7.07,0,0,1,1.6,0h0A1.93,1.93,0,0,1,40.7,50a1.9,1.9,0,0,1-1.82,1.91V49.07h-1.6v4.15c0,.73.35,1.05,1.06,1.05a4.3,4.3,0,1,0-.28-8.59"/><path class="cls-1" d="M44.87,57.64a1.37,1.37,0,0,1-1.38-1.35A1.4,1.4,0,0,1,44.87,55a1.35,1.35,0,0,1,0,2.69"/><path class="cls-1" d="M38.28,41.7h.82a3.31,3.31,0,0,0,2.81-1,4,4,0,0,0,.8-2.8c0-2.81-1.16-3.71-2-3.71a1.08,1.08,0,0,0-1,1.11,1.27,1.27,0,0,0,.49.92c.34.25.61.47.61,1.48,0,.4,0,1.59-.74,1.59H34.8a1.2,1.2,0,1,0,0,2.39h3.48m.14-7.11a2.11,2.11,0,0,0-1.09-.91,2.72,2.72,0,0,0-1-.19,2.77,2.77,0,0,0-2.81,3.08,4,4,0,0,0,.43,1.8h1.85a.8.8,0,0,1-.08-.16,2.23,2.23,0,0,1-.24-1c0-.7.34-1.18.94-1.18.83,0,1,.89,1.17,1.59.06.34.11.59.16.78h1.67q0-.21-.06-.48a7.27,7.27,0,0,0-.89-3.3"/></svg>