<svg id="图层_1" data-name="图层 1" xmlns="http://www.w3.org/2000/svg" viewBox="0 0 100 100"><defs><style>.cls-1{fill:#231815;}</style></defs><title>logohunt01</title><path class="cls-1" d="M60.27,44.71H47.74a4.07,4.07,0,0,0-4.07,4.07v24a1.35,1.35,0,0,1-1.35,1.35,1.3,1.3,0,0,1-.93-.38,1.35,1.35,0,0,1-.39-1V61.66l0-34.41a1.31,1.31,0,0,1,.4-.95,1.34,1.34,0,0,1,1-.39H60.4a1.36,1.36,0,0,0,0-2.72H42.31a4.07,4.07,0,0,0-4.07,4.07l0,34.4V72.74a4.07,4.07,0,0,0,1.19,2.9,4,4,0,0,0,2.85,1.17,4.06,4.06,0,0,0,4.07-4.07v-24a1.37,1.37,0,0,1,1.35-1.35H60.27a1.36,1.36,0,0,0,0-2.72"/></svg>