<svg id="图层_1" data-name="图层 1" xmlns="http://www.w3.org/2000/svg" viewBox="0 0 100 100"><defs><style>.cls-1{fill:#231815;fill-rule:evenodd;}</style></defs><title>logohunt01</title><path class="cls-1" d="M25.87,44.8H39.72a13.64,13.64,0,0,0,0,10.4H25.87a27.29,27.29,0,0,1,0-10.4m39,0a13.64,13.64,0,0,0-7.35-7.35l9.79-9.79A27.06,27.06,0,0,1,74.63,35ZM29.93,65l9.79-9.79a13.69,13.69,0,0,0,7.36,7.35l-9.8,9.79A27.06,27.06,0,0,1,29.93,65ZM47.08,76.41V62.56a13.64,13.64,0,0,0,10.4,0V76.41a27.29,27.29,0,0,1-10.4,0Zm20.2-4.06-9.79-9.79a13.67,13.67,0,0,0,7.35-7.35L74.63,65A27.06,27.06,0,0,1,67.28,72.35Zm-9.8-48.76V37.44a13.64,13.64,0,0,0-10.4,0V23.59a27.29,27.29,0,0,1,10.4,0Zm-20.2,4.06,9.8,9.79a13.69,13.69,0,0,0-7.36,7.35L29.93,35A27.06,27.06,0,0,1,37.28,27.65Z"/></svg>