<svg id="图层_1" data-name="图层 1" xmlns="http://www.w3.org/2000/svg" viewBox="0 0 100 100"><title>logohunt03</title><path d="M23.09,45.08a20.43,20.43,0,0,1,6.24-15,20.2,20.2,0,0,1,15-6.17H55.64a20.22,20.22,0,0,1,15,6.17h.07a20.88,20.88,0,0,1,6.17,15V56.43a20.64,20.64,0,0,1-6.17,15l-.07.06a22.78,22.78,0,0,1-5.9,4.2,4.39,4.39,0,0,1-3,.33,4.54,4.54,0,0,1-2.63-1.64l-9-11.62-.14,1.64a4.88,4.88,0,0,1-1.7,3.09,4.69,4.69,0,0,1-6.43-.72,4.08,4.08,0,0,1-1-3.42l1.38-12.73a4.3,4.3,0,0,1,1.71-3,4.4,4.4,0,0,1,3.34-1l12,1.31A4.52,4.52,0,0,1,63.39,53a4.56,4.56,0,0,1-1.71,3A4.73,4.73,0,0,1,58.33,57l-1.18-.13,6.63,8.47c.13-.13.33-.27.46-.4h-.06a12.16,12.16,0,0,0,3.61-8.53V45.08a11.93,11.93,0,0,0-3.61-8.53A11.69,11.69,0,0,0,55.64,33H44.36A12.1,12.1,0,0,0,32.28,45.08V56.5a13.57,13.57,0,0,0,.2,2.23,4.49,4.49,0,0,1-.79,3.35A4.32,4.32,0,0,1,28.8,64a4.39,4.39,0,0,1-3.41-.66,4.59,4.59,0,0,1-2-3,26.18,26.18,0,0,1-.33-3.94V45.08Z"/><path d="M29.33,30.05a20.43,20.43,0,0,0-6.24,15V56.43a26.18,26.18,0,0,0,.33,3.94,4.59,4.59,0,0,0,2,3A4.39,4.39,0,0,0,28.8,64a4.32,4.32,0,0,0,2.89-1.9,4.48,4.48,0,0,0,.79-3.35,13.57,13.57,0,0,1-.2-2.23V45.08A12.1,12.1,0,0,1,44.36,33H55.64a11.69,11.69,0,0,1,8.54,3.55,11.93,11.93,0,0,1,3.61,8.53V56.43A12.16,12.16,0,0,1,64.18,65h.06c-.13.13-.33.27-.46.4l-6.63-8.47,1.18.13A4.73,4.73,0,0,0,61.68,56a4.56,4.56,0,0,0,1.71-3,4.52,4.52,0,0,0-4.14-5.05l-12-1.31a4.4,4.4,0,0,0-3.34,1,4.3,4.3,0,0,0-1.71,3L40.81,63.32a4,4,0,0,0,1,3.41,4.68,4.68,0,0,0,6.43.73,4.88,4.88,0,0,0,1.7-3.09l.14-1.64,9,11.62A4.54,4.54,0,0,0,61.75,76a4.39,4.39,0,0,0,3-.33,22.78,22.78,0,0,0,5.9-4.2l.07-.06a20.64,20.64,0,0,0,6.17-15V45.08a20.88,20.88,0,0,0-6.17-15h-.07a20.22,20.22,0,0,0-15-6.17H44.36a20.2,20.2,0,0,0-15,6.17"/></svg>