<svg id="图层_1" data-name="图层 1" xmlns="http://www.w3.org/2000/svg" viewBox="0 0 100 100"><title>logohunt03</title><path d="M37.36,32a7.27,7.27,0,1,1-7.27-7.28A7.27,7.27,0,0,1,37.36,32"/><path d="M77.18,37.47a6.55,6.55,0,1,1-6.55-6.55,6.55,6.55,0,0,1,6.55,6.55"/><path d="M62.51,61.6a5.11,5.11,0,1,1-5.1-5.1,5.1,5.1,0,0,1,5.1,5.1"/><path d="M50.79,51a5.88,5.88,0,1,1-5.88-5.88A5.88,5.88,0,0,1,50.79,51"/><path d="M70.62,44.51A6.52,6.52,0,0,0,64.1,51V75.24h13V51a6.52,6.52,0,0,0-6.52-6.52M57.4,67.09a5.07,5.07,0,0,0-5.08,5.07v3.08H62.47V72.16a5.07,5.07,0,0,0-5.07-5.07M30.08,39.86a7.24,7.24,0,0,0-7.24,7.24V75.24H37.32V47.1a7.24,7.24,0,0,0-7.24-7.24M44.9,57.33a5.85,5.85,0,0,0-5.85,5.85V75.24h11.7V63.18a5.85,5.85,0,0,0-5.85-5.85"/></svg>