<svg id="图层_1" data-name="图层 1" xmlns="http://www.w3.org/2000/svg" viewBox="0 0 100 100"><defs><style>.cls-1{fill:#231815;}</style></defs><title>logohunt02</title><path class="cls-1" d="M73.19,47.85,72,49l1.2,1.2L74.38,49M25.62,49l1.2,1.2L28,49l-1.2-1.19ZM81.93,39l0-.1L74.78,36a11.85,11.85,0,0,0-4.49-3.36h-.05l-3.49.15-4.2-1.68-12.32,1h-.48l-12.3-1-4.2,1.68-3.49-.15h-.05A11.79,11.79,0,0,0,25.23,36l-7.12,2.85,0,.1A17.72,17.72,0,0,0,17,45.18a19.45,19.45,0,0,0,1.38,7.18v6.85l.18.06A32.33,32.33,0,0,1,23,61c1.72.82,3.82,1.87,4.57,2.25a63.54,63.54,0,0,0,11.18,5.57l.11,0L39,68.8a16,16,0,0,1,1.94-1l7.41-.38h3.4l7.39.38a16,16,0,0,1,1.94,1l.11.07.12,0a63.44,63.44,0,0,0,11.19-5.58c.78-.39,2.85-1.43,4.55-2.24a31.61,31.61,0,0,1,4.44-1.74l.18-.05V52.36A19.63,19.63,0,0,0,83,45.18,17.49,17.49,0,0,0,81.93,39M18.38,50.92c0-.11-.06-.23-.1-.35a19.25,19.25,0,0,1-.77-5.39,17.35,17.35,0,0,1,.87-5.57v10.2c0,.4.05,1,.09,1.35a1.45,1.45,0,0,0,0,.25s-.06-.21-.13-.49M67.69,33.19c.64,0,1.14,0,1.14,0l1.34-.06a7.3,7.3,0,0,1,1.36.71,13.05,13.05,0,0,1,1.56,1.18l.75.61.32.25-.35-.18-1-.5L68.7,33.6c-.33-.12-.71-.25-1-.33l-.33-.1.3,0m-33.33-.33.73-.25,2.43-1,12.2,1h.54l12.22-1,2.34.94c.2.07.49.18.83.28l.27.09h-.21c-.25,0-.69,0-1.08,0l-14.3.65h-.67l-14.29-.65c-.39,0-.83,0-1.08,0h-.2l.27-.09m-8.18,2.79.65-.53a13.27,13.27,0,0,1,1.64-1.25,7.57,7.57,0,0,1,1.37-.71l1.34.06h0s.5,0,1.13,0l.31,0-.33.1c-.33.1-.86.27-1.22.42h0L27.31,35.2c-.39.17-.83.39-1.13.54l-.33.17.33-.26m-6.3,23.53-1-.34V54.19c0-.09,0-.18,0-.29s0-.36-.05-.52,0-.37,0-.37a3.63,3.63,0,0,0,.12.37c0,.12.09.26.15.4l.17.4c.21.41.43.81.68,1.21Zm0-4.64c-.11-.23-.25-.57-.36-.83-.24-.48-.45-1-.64-1.44V39.86a3.57,3.57,0,0,0,1,.25V53h0s0,1,.09,1.53c0,.13,0,.23,0,.3l-.13-.32m-.62-15.08c-.38-.11-.68-.22-.68-.22h0l0,0,4.95-2,.49-.23.59-.31.29-.15-.28.25-.4.39-.6.58h0c-1.5,1.46-2.63,1.86-3.48,1.86a2.75,2.75,0,0,1-.93-.16M25.6,61.82,25,61.5c-.29-.17-.6-.33-.84-.46l-1-.48c-1.06-.51-2.05-.91-2.83-1.2V56.55c0-.17,0-.31,0-.42l0-.3a1.1,1.1,0,0,0,.07.17,4.19,4.19,0,0,0,.26.49c.18.29.33.53.44.69a24.63,24.63,0,0,0,3.09,3.4c.19.17.62.53,1,.81l.47.34c.4.29.8.56.8.56l-.81-.47m14.64,5.81a3.1,3.1,0,0,0-.59.22c-.41.21-.71.38-.85.46-.46-.17-2.24-.86-4.48-1.9-1-.46-2-1-3.1-1.55l-1.31-.65-.59-.31c-.29-.15-.47-.26-.47-.26l.8.33.45.17,1.11.41,8.36,2.85a5.66,5.66,0,0,0,.62.19l.17,0h-.12m17.68-.29-.72-.08-1.54-.13-3.94-.2H48.29v0l-3.92.2-1.55.13-.73.08-.61.1.61-.19c.7-.21,1.55-.42,1.91-.51a19.13,19.13,0,0,1,4.83-.65h2.37a18.77,18.77,0,0,1,4.64.6h0s1.18.29,2.11.56l.6.19-.62-.1M70.7,63.9l-.6.31-1.46.72c-1,.55-2,1-3,1.48-2.24,1-4,1.73-4.48,1.9-.15-.09-.49-.28-1-.51a2.17,2.17,0,0,0-.49-.17h-.11l.17,0,.43-.12,8.69-3,1-.36c.14,0,.29-.1.42-.16.45-.17.84-.34.84-.34s-.18.11-.47.26m1.48-1.07L72,63,59.18,67.3a20.58,20.58,0,0,0-8-1.71H48.82a20.59,20.59,0,0,0-8,1.71L28,62.93l-.19-.09c-.59-.39-1.15-.79-1.67-1.2a24.43,24.43,0,0,1-5.79-6.38V40.12c1.25-.07,2.83-.88,4.9-3.38l.25-.29,7.81-3.13,16.31.74h.69l16.32-.74,7.81,3.13.26.29c2.07,2.51,3.64,3.31,4.9,3.38V55.25a24.51,24.51,0,0,1-5.8,6.39c-.51.41-1.07.8-1.65,1.19m7.49-6.72c0,.14,0,.32,0,.55v2.7c-.79.29-1.77.69-2.84,1.2l-.79.38c-.25.13-.66.34-1,.56l-.59.34-.77.45.81-.57.45-.33c.28-.22.6-.49.82-.68A23.65,23.65,0,0,0,79,57.05a5.29,5.29,0,0,0,.62-1c0-.12.07-.19.07-.19l0,.28m1.54-2.77c0,.17,0,.37-.06.56s0,.32,0,.44v4.5l-1,.34V55.39c.28-.47.54-.94.77-1.41l.09-.2c.05-.13.1-.26.14-.38l.12-.39s0,.14,0,.33M80,54.86c0-.07,0-.18,0-.33,0-.41.07-1.05.09-1.34V40.11a3.76,3.76,0,0,0,1-.25v12.4c-.18.44-.37.88-.59,1.33-.11.28-.29.7-.41,1l-.13.3m1.43-15.62s-.36.13-.76.25l-.17,0h0a2.78,2.78,0,0,1-.66.08c-.85,0-2-.39-3.47-1.86h0l0,0-.13-.14-.44-.42c-.11-.11-.26-.26-.4-.38l-.28-.26.28.15.6.31.56.26,4,1.62h0l.27.11.33.13.24.09.06,0h0M81.63,51c-.07.26-.13.46-.13.46s0-.18,0-.3c0-.32.06-.75.08-1.11V39.61a17.39,17.39,0,0,1,.86,5.57,19.21,19.21,0,0,1-.65,5l-.21.82"/></svg>