<svg id="图层_1" data-name="图层 1" xmlns="http://www.w3.org/2000/svg" viewBox="0 0 100 100"><defs><style>.cls-1{fill-rule:evenodd;}</style></defs><title>logohunt03</title><path class="cls-1" d="M69.28,56.35,69.38,71a1.1,1.1,0,0,1-.32.79,1.07,1.07,0,0,1-.79.33H31.89A1.11,1.11,0,0,1,30.78,71l-.13-18.3v0l.06-.16.06-.17,0-.12a1.8,1.8,0,0,1,.08-.21l0-.08c0-.08.07-.17.11-.25l0,0c0-.09.08-.18.13-.27v0c0-.1.09-.19.14-.29h0l.16-.29a13.1,13.1,0,1,1,23,12.52l-.16.29h0l-.17.27v0l-.16.26,0,0-.15.23,0,.07-.13.18-.08.11-.1.14-.11.15-.09.1-.13.18-.05.06-.16.18,0,0a14.39,14.39,0,0,0,4.89-5.28,14.58,14.58,0,1,0-27.19-9.37v-.66a1,1,0,0,1-.48.11H24a1.11,1.11,0,0,1-.68-2L35.4,39,49.32,28.14a1.08,1.08,0,0,1,1.36,0L64.6,39l12.06,9.41a1.11,1.11,0,0,1-.68,2H69.85a1.08,1.08,0,0,1-.5-.12A18.52,18.52,0,0,0,42.18,36.82l0,0,.3-.06.1,0,.27,0,.18,0,.22,0,.23,0,.16,0,.29,0h.1l.34,0h.06l.38,0h.87a16.66,16.66,0,0,1,0,33.31h-.87l-.38,0h-.06l-.34,0H44l-.29,0-.16,0-.23,0-.22,0-.18,0-.27,0-.1,0-.3-.06,0,0a18.52,18.52,0,0,0,27.1-13M51.82,49.16A7.93,7.93,0,1,1,38.6,57v0l.07.11,0,0,.06.1,0,.06.06.08,0,.08,0,.05.07.1,0,0,.1.11v0l.11.12h0l.12.13h0l.13.13A7.12,7.12,0,1,0,49.65,48.12L49.52,48h0l-.12-.12h0l-.12-.1,0,0-.12-.09,0,0-.1-.08-.05,0-.08-.06-.08-.06-.06,0-.1-.07,0,0-.11-.07h0a7.88,7.88,0,0,1,3.36,2M35,48.74a11.53,11.53,0,1,0,20,10l0,0-.09.16,0,.06-.08.15-.06.09-.08.12-.07.12-.06.09-.1.15,0,0-.12.17,0,0-.15.19v0c-.05.06-.1.13-.16.19h0l-.17.2A10.36,10.36,0,1,1,38.07,47l.17-.19h0l.17-.18v0l.17-.17,0,0,.16-.15,0,0,.13-.12L39,46l.11-.09.11-.09.08-.07.14-.11.05,0,.15-.12,0,0A11.54,11.54,0,0,0,35,48.74"/></svg>