<svg id="图层_1" data-name="图层 1" xmlns="http://www.w3.org/2000/svg" viewBox="0 0 100 100"><defs><style>.cls-1{fill:#231815;}</style></defs><title>logohunt02</title><path class="cls-1" d="M47.86,45.37l4.53.08a5,5,0,1,1,0,10h-4.5l0,7.25A6.14,6.14,0,0,1,41.79,69c-4,0-6.42-2.84-6.42-7.62V38c0-2.67.56-4.2,2-5.57s2.67-1.59,5.68-1.59h5.23a20.32,20.32,0,0,1,6.42.68,13.58,13.58,0,0,1,9.6,12.84,13.08,13.08,0,0,1-3.35,9l2.63,6.18c.13.27.24.54.35.82l.19.45a6.1,6.1,0,0,1-11.23,4.77l-3.71-8.79h3.17a6.31,6.31,0,1,0,0-12.6H52c0-1.87-2.56-1.72-4.19-1.72v2.93"/></svg>