<svg id="图层_1" data-name="图层 1" xmlns="http://www.w3.org/2000/svg" viewBox="0 0 100 100"><title>logohunt03</title><path d="M62.44,77.63H53.78C57.71,70,65.61,57.15,61.67,48c-2-4.53-6.82-6-11.28-6.75-4.71-.83-9.85-.67-14.34-2.47-7.41-3-5.22-10.41-2.9-16.39-1.64,6.31-1.76,12.31,5.38,14.44,5.28,1.58,11,1.07,16.46,1.81S65.71,41,68,46.32c4.18,9.6-2.06,22.61-5.58,31.31"/><path d="M38.51,77.63H36.85C41.47,71.73,51.08,61.8,50,53.28c-.57-4.43-4.86-5.9-8.62-6.94s-8.93-1.53-12-4.5c-5.48-5.35.85-14.61,3.76-19.47-2.84,4.89-8.83,14-3.17,19.15,3.2,2.89,8.29,3.25,12.27,4.32s8.21,2.5,8.9,7c1.31,8.59-8.08,18.73-12.64,24.79"/><path d="M47.23,77.63H45.57C49.79,71,59.22,58.73,55.85,49.92c-1.65-4.3-6.47-5.51-10.52-6.36-4.23-.88-9.44-1-13.07-3.6-6-4.28-1.59-12.6.89-17.59h0c-2.41,5.07-6.44,13.2-.31,17.27,3.79,2.52,9,2.57,13.36,3.43,4.15.82,9,2,10.79,6.39,3.57,8.87-5.6,21.31-9.76,28.17"/><path d="M66.65,77.63h-2.9c3.45-8.85,9.52-22,5.19-31.66-2.39-5.33-7.89-7-13.26-7.74S44.38,38.06,39,36.56c-7.16-2-7.39-7.77-5.85-14.19-1.24,6.44-.44,11.76,6.54,13.54,5.42,1.39,11.23.79,16.76,1.36,5.3.55,11,1.91,14,6.81,5.79,9.65-.44,24.29-3.75,33.55"/><path d="M44.27,77.63H39.81c4.51-6.19,13.74-16.5,12.26-25.14-.77-4.55-5.19-6-9.12-7.05s-9.19-1.34-12.5-4.18c-5.79-5-.08-14,2.7-18.89-2.53,4.94-7.24,13.39-1.35,17.84,3.51,2.67,8.68,2.84,12.84,3.74,4,.86,8.74,2.07,10.3,6.33C58.15,59,48.53,71.11,44.27,77.63"/></svg>