<svg id="图层_1" data-name="图层 1" xmlns="http://www.w3.org/2000/svg" viewBox="0 0 100 100"><title>logohunt03</title><path d="M35.64,63.84a7.77,7.77,0,0,1-7.76-7.76,7.56,7.56,0,0,1,1.52-4.54H26.22a3.4,3.4,0,0,0-3.4,3.4V73.78a3.4,3.4,0,0,0,3.4,3.4H45.06a3.4,3.4,0,0,0,3.4-3.4V67.37A.58.58,0,0,1,49,66.8h2.23a1.2,1.2,0,0,1,.92.53,4.92,4.92,0,1,0,0-5.94,1.2,1.2,0,0,1-.92.53H49a.58.58,0,0,1-.57-.57V54.94a3.4,3.4,0,0,0-3.4-3.4H41.88a7.56,7.56,0,0,1,1.52,4.54,7.77,7.77,0,0,1-7.76,7.76"/><path d="M63.84,64.36a7.77,7.77,0,0,1-7.76,7.76,7.56,7.56,0,0,1-4.54-1.52v3.18a3.4,3.4,0,0,0,3.4,3.4H73.77a3.4,3.4,0,0,0,3.41-3.4V54.94a3.4,3.4,0,0,0-3.41-3.4h-6.4A.58.58,0,0,1,66.8,51V48.74a1.23,1.23,0,0,1,.53-.92,4.92,4.92,0,1,0-5.94,0,1.23,1.23,0,0,1,.53.92V51a.58.58,0,0,1-.57.57H54.94a3.4,3.4,0,0,0-3.4,3.4v3.18a7.63,7.63,0,0,1,4.54-1.52,7.77,7.77,0,0,1,7.76,7.76"/><path d="M26.22,48.46h6.41a.58.58,0,0,1,.57.57v2.23a1.2,1.2,0,0,1-.53.92,4.92,4.92,0,1,0,5.94,0,1.2,1.2,0,0,1-.53-.92V49a.58.58,0,0,1,.57-.57h6.41a3.4,3.4,0,0,0,3.4-3.4V41.88a7.56,7.56,0,0,1-4.54,1.52,7.76,7.76,0,0,1,0-15.52,7.58,7.58,0,0,1,4.54,1.52V26.22a3.4,3.4,0,0,0-3.4-3.4H26.22a3.4,3.4,0,0,0-3.4,3.4V45.06a3.4,3.4,0,0,0,3.4,3.4"/><path d="M43.92,40.56a4.89,4.89,0,0,0,3.9-2,1.21,1.21,0,0,1,.92-.53H51a.58.58,0,0,1,.57.57v6.41a3.4,3.4,0,0,0,3.4,3.4h3.18a7.56,7.56,0,0,1-1.52-4.54,7.76,7.76,0,0,1,15.52,0,7.56,7.56,0,0,1-1.52,4.54h3.17a3.4,3.4,0,0,0,3.41-3.4V26.22a3.4,3.4,0,0,0-3.41-3.4H54.94a3.4,3.4,0,0,0-3.4,3.4v6.41a.58.58,0,0,1-.57.57H48.74a1.21,1.21,0,0,1-.92-.53,4.91,4.91,0,1,0-3.9,7.89"/></svg>