<svg id="图层_1" data-name="图层 1" xmlns="http://www.w3.org/2000/svg" viewBox="0 0 100 100"><defs><style>.cls-1{fill:#231815;}</style></defs><title>logohunt01</title><path class="cls-1" d="M69.15,35.09a5.61,5.61,0,0,0-.6,5.74c1.5,2.51,4.11,2.85,6.89,2.51V24.56H24.56V75.44h6.11a14.1,14.1,0,0,1-2.47-3.82c-2.83-6.28-.06-13.21,4.14-18.05,5.09-5.52,11.13-9.42,18-10.88a9.34,9.34,0,0,1-.57-4.3c.55-6.51,7.06-12.06,12.91-13.83h1.92a19.78,19.78,0,0,0-4,1.86C55.29,30,51,35.66,52,42.41c3-.36,6.55-.59,8.93,1.29a2,2,0,0,1,.63,2.24c-.77,1.49-2.41,1.69-3.93,1.77a8.24,8.24,0,0,1-7-4.5c-8.39,1.47-16.81,8.91-19.25,17.16C29.78,65,29.26,71.69,33.23,75.44H59.39c4.31-3,7.94-7.42,7.35-12.86A7.6,7.6,0,0,0,62,56.79a15,15,0,0,0-14.66,2.89c-2.46,2.4-4.72,5.51-3.41,9.05a4.69,4.69,0,0,0,4.21,2.44,6.08,6.08,0,0,0,1.16,0,5.86,5.86,0,0,1-4,.2,4.56,4.56,0,0,1-2.81-2.81c-.88-3.12.7-5.93,2.93-8.12C49.94,56.12,56.72,54,62.81,56.5A9,9,0,0,1,68.1,63c.63,5.24-3.31,9.56-7.47,12.42H75.44V43.91a10.73,10.73,0,0,1-5.2-.58,5.79,5.79,0,0,1-3.61-3.9,5.52,5.52,0,0,1,1.81-5.06,9.57,9.57,0,0,1,6-2.53v0a8.81,8.81,0,0,0-5.26,3.21"/><path class="cls-1" d="M59.63,43.65c-2.16-1.31-5-1.06-7.52-.69A5.67,5.67,0,0,0,55.93,47c1.4.4,3.25.38,4.27-.77a2,2,0,0,0,.15-1.84l-.72-.77"/></svg>