<svg id="图层_1" data-name="图层 1" xmlns="http://www.w3.org/2000/svg" viewBox="0 0 100 100"><defs><style>.cls-1{fill:#231815;}</style></defs><title>logohunt02</title><path class="cls-1" d="M42.57,57.93h-.9V41.22h.81L53.31,54.74c-.23.18-.47.36-.72.53l-10-12.52V57.93m0,13.1h-.9V58.78h.9V71M66,71h-.8L53.16,56l.72-.52,11.26,14V41.22H66V71"/><path class="cls-1" d="M42.57,57.93h1a15.74,15.74,0,0,0,9-2.66c.25-.17.49-.35.72-.53A13.55,13.55,0,0,0,58.46,44v-.09c0-7.83-6.14-14-15-14H34.9V57.93h7.67m1,.85H34V29h9.58c9.37,0,15.84,6.47,15.84,14.86v.08a14.38,14.38,0,0,1-5.51,11.54c-.23.18-.48.35-.72.52a16.8,16.8,0,0,1-9.61,2.81"/></svg>