<svg id="图层_1" data-name="图层 1" xmlns="http://www.w3.org/2000/svg" viewBox="0 0 100 100"><defs><style>.cls-1{fill:#231815;}</style></defs><title>logohunt02</title><path class="cls-1" d="M71.72,58.85a11.24,11.24,0,0,1-2.57,1,10.4,10.4,0,0,0,2.57-1"/><path class="cls-1" d="M74,42.59a11.7,11.7,0,0,0-14.85-.71l-1.65,1.54-2.39,2.22L51.3,49.22H45.35v1.57h4.49l-5.16,4.8a8,8,0,0,1-4.86,1.62,7.39,7.39,0,0,1-7.64-7.11,7.26,7.26,0,0,1,2.36-5.19,8,8,0,0,1,4.88-1.83,6.72,6.72,0,0,1,6,3.53h3.93a10.37,10.37,0,0,0-9.88-6.78,10.5,10.5,0,0,0-2.59.31h0a10.4,10.4,0,0,0-2.57,1A11.54,11.54,0,0,0,32,42.8a9.83,9.83,0,0,0,0,14.61,11.7,11.7,0,0,0,14.85.71l1.65-1.54,2.39-2.22,3.84-3.57h6V49.22H56.15l5.17-4.81a8,8,0,0,1,4.86-1.62,7.39,7.39,0,0,1,7.64,7.11,7.26,7.26,0,0,1-2.36,5.19,8,8,0,0,1-4.88,1.83,6.72,6.72,0,0,1-6-3.53H56.63a10.37,10.37,0,0,0,9.88,6.78,11,11,0,0,0,2.59-.31h.05a11.24,11.24,0,0,0,2.57-1A11.54,11.54,0,0,0,74,57.2a9.83,9.83,0,0,0,0-14.61"/></svg>