<svg id="图层_1" data-name="图层 1" xmlns="http://www.w3.org/2000/svg" viewBox="0 0 100 100"><defs><style>.cls-1{fill:#231700;}</style></defs><title>logohunt01</title><path class="cls-1" d="M57.74,44.86h0M60,51.64h0M50.18,75H50A25,25,0,1,1,62.59,28.35,2.59,2.59,0,1,1,60,32.84a19.81,19.81,0,1,0-9.91,37h0A21.14,21.14,0,0,0,64,64.7a16,16,0,0,0,5.7-12,5.7,5.7,0,0,0-1.47-4,4.66,4.66,0,0,0-3.41-1.46,5.78,5.78,0,0,0-2,.33,4,4,0,0,0-1.44.91h0a4.28,4.28,0,0,0-.79,1.22A10.63,10.63,0,0,0,60,51.63h0a11.63,11.63,0,0,1-3.4,5.92,9.55,9.55,0,0,1-6.48,2.51h0A10.06,10.06,0,0,1,43,42.89a2.59,2.59,0,0,1,3.66,3.67,4.87,4.87,0,0,0,3.45,8.31,4.34,4.34,0,0,0,3-1.16A6.46,6.46,0,0,0,55,50.4h0a15.9,15.9,0,0,1,.94-2.8A8.8,8.8,0,0,1,61,42.76a11,11,0,0,1,3.81-.66h0A9.83,9.83,0,0,1,72,45.18a10.85,10.85,0,0,1,2.9,7.52,21.19,21.19,0,0,1-7.46,15.89A26.33,26.33,0,0,1,50.18,75"/></svg>