<svg id="图层_1" data-name="图层 1" xmlns="http://www.w3.org/2000/svg" viewBox="0 0 100 100"><title>logohunt03</title><path d="M64.11,30.12a40.78,40.78,0,0,0-6.81-2.27,53.54,53.54,0,0,0-9.89-1.08,31.55,31.55,0,0,0-7.26.72,22.43,22.43,0,0,0-6.27,2.18,24.3,24.3,0,0,0-3.26,2A29.32,29.32,0,0,0,27,35a16.74,16.74,0,0,0-2.82,4.63,14.6,14.6,0,0,0-1.27,6A19.53,19.53,0,0,0,25.81,55.9,25.27,25.27,0,0,0,32,62.53l-4,10.7,13.8-5.62c.36.09.73.18,1,.27a37.57,37.57,0,0,0,10.16,1.63,35.79,35.79,0,0,0,11.62-2A23,23,0,0,0,72.73,62a16.55,16.55,0,0,0,4.08-8.62,22.3,22.3,0,0,0-.27-8.62,19.42,19.42,0,0,0-3.17-6.63,19.59,19.59,0,0,0-4.45-4.9,33.57,33.57,0,0,0-4.81-3.09m-6.36.27a29.12,29.12,0,0,1,6,2.27,32.38,32.38,0,0,1,4.18,2.91,19.18,19.18,0,0,1,3.72,4.26,13.3,13.3,0,0,1,2.27,5.72,15.43,15.43,0,0,1-.64,8.08,12.54,12.54,0,0,1-3.81,5.26A20.33,20.33,0,0,1,64,62a33.36,33.36,0,0,1-5.45,1.36c-1.63.18-2.9.37-3.72.37A33.1,33.1,0,0,1,46,62.44a30,30,0,0,1-8.35-3.73,21.3,21.3,0,0,1-6.09-6.35,20.39,20.39,0,0,1-2-4.36,12.64,12.64,0,0,1-.73-4,12.56,12.56,0,0,1,2.54-7.17,15.83,15.83,0,0,1,7-5.35A24,24,0,0,1,49,29.4a36.41,36.41,0,0,1,8.8,1"/><polygon points="58.51 37.8 52.41 45.01 52.47 45.19 61.16 43.59 61.16 49.2 52.41 47.59 52.34 47.78 58.51 54.74 53.33 57.64 50.06 48.77 49.94 48.95 46.43 57.7 41.81 54.8 47.91 47.47 47.78 47.41 39.28 49.2 39.28 43.59 47.66 45.19 47.84 45.01 41.81 37.92 46.86 35.02 50.13 43.71 50.31 43.71 53.45 34.96 58.51 37.8"/></svg>