<svg id="图层_1" data-name="图层 1" xmlns="http://www.w3.org/2000/svg" viewBox="0 0 100 100"><defs><style>.cls-1{fill:#231815;}</style></defs><title>logohunt02</title><path class="cls-1" d="M48.14,50.84a4.31,4.31,0,0,1,1.55-2.91c.54-.56,1.07-1.12,1.52-1.65,1.13,1.13,2.31,2.46,2.31,3.85A4.38,4.38,0,0,1,51,54.24c-1.77-.91-2.81-2.18-2.81-3.4M51,45.54c-.81-.79-1.58-1.55-1.58-2,0-.62.46-1,1.28-1,1.07,0,1.64.4,1.64,1.17a4.16,4.16,0,0,1-1.1,2Zm-1.91-2c0,.61.74,1.34,1.68,2.26L51,46c-.47.56-1,1.13-1.52,1.65a4.62,4.62,0,0,0-1.64,3.15c0,1.28,1,2.6,2.78,3.57a18.52,18.52,0,0,1-7.53,1.2c-8.06,0-11.33-1.16-15.11-2.5-1.36-.48-2.76-1-4.49-1.46a4.65,4.65,0,0,0-4,.5,2.8,2.8,0,0,0-1.17,2.23c-.06,1.91,1.77,3.16,3.52,3.37,1.3.16,2.71-.39,2.89-1.73a2.51,2.51,0,0,0-2.1-2.67c-1-.24-1.92,0-2.07.66a.16.16,0,0,0,.12.2.16.16,0,0,0,.2-.12c.11-.42.86-.61,1.68-.42A2.18,2.18,0,0,1,24.39,56c-.15,1.12-1.38,1.57-2.51,1.44-1.6-.19-3.28-1.32-3.23-3a2.49,2.49,0,0,1,1-2A4.32,4.32,0,0,1,23.37,52c1.72.49,3.12,1,4.47,1.46,3.81,1.35,7.1,2.51,15.22,2.51,3.49,0,6.11-.44,7.9-1.33a13.66,13.66,0,0,0,6,1.26c8,0,11.28-1.15,15.07-2.48,1.4-.49,2.84-1,4.62-1.49a4.45,4.45,0,0,1,3.71.6,2.32,2.32,0,0,1,1,1.82c.05,1.79-1.87,2.81-3.68,3a3.48,3.48,0,0,1-2.52-.58,1.4,1.4,0,0,1-.57-1c-.12-1.22,1.26-2,2.62-2.18a2.42,2.42,0,0,1,2.25.76.17.17,0,0,0,.29-.18,2.71,2.71,0,0,0-2.57-.91c-1.57.17-3.07,1.09-2.92,2.54A1.81,1.81,0,0,0,74.93,57a4,4,0,0,0,2.78.65c2-.21,4-1.35,4-3.35a2.62,2.62,0,0,0-1.14-2.08,4.78,4.78,0,0,0-4-.65c-1.79.49-3.24,1-4.64,1.49-3.76,1.32-7,2.47-15,2.47a13.49,13.49,0,0,1-5.62-1.12,4.65,4.65,0,0,0,2.54-4.29c0-1.53-1.25-2.93-2.43-4.12a4.35,4.35,0,0,0,1.2-2.28c0-.56-.26-1.51-2-1.51C49.64,42.22,49,42.71,49,43.52Z"/></svg>