<svg id="图层_1" data-name="图层 1" xmlns="http://www.w3.org/2000/svg" viewBox="0 0 100 100"><defs><style>.cls-1{fill:#231815;}</style></defs><title>logohunt01</title><path class="cls-1" d="M55.35,23.19a.76.76,0,0,1,0,.15,1,1,0,1,1-2,0c0-.05,0-.1,0-.15h2m-4.09,0s0,.1,0,.15a1,1,0,0,1-2.09,0,.76.76,0,0,1,0-.15Zm-16.42,0a.81.81,0,0,1,0,.16,1.07,1.07,0,1,1-2.13,0,.81.81,0,0,1,0-.16Zm-4,0s0,.1,0,.15a1.16,1.16,0,0,1-2.32,0,.76.76,0,0,1,0-.15Zm8.13,0a.66.66,0,0,1,0,.14,1.06,1.06,0,1,1-2.12,0v-.14Zm4.1,0c0,.06,0,.11,0,.16a1,1,0,1,1-2.09,0,.92.92,0,0,1,0-.16Zm4.12,0a.76.76,0,0,1,0,.15,1,1,0,0,1-2.09,0,.76.76,0,0,1,0-.15ZM33.78,54.94a1.38,1.38,0,1,0,1.38,1.38A1.38,1.38,0,0,0,33.78,54.94Zm22.63.32a1,1,0,1,0-1-1A1,1,0,0,0,56.41,55.26ZM37.2,50.14a1.36,1.36,0,1,0-1.36,1.36A1.36,1.36,0,0,0,37.2,50.14ZM58.47,61.51a1.07,1.07,0,1,0-1.07-1.07A1.07,1.07,0,0,0,58.47,61.51Zm4.11,4.4a1.35,1.35,0,1,0-1.34-1.35A1.34,1.34,0,0,0,62.58,65.91Zm-2.06-2.07a1.34,1.34,0,1,0-1.33-1.34A1.34,1.34,0,0,0,60.52,63.84ZM64.64,68a1.37,1.37,0,1,0-1.37-1.37A1.37,1.37,0,0,0,64.64,68Zm-4.12-.4a1,1,0,1,0-1-1A1,1,0,0,0,60.52,67.6ZM54.35,49.44A1.37,1.37,0,1,0,53,48.07,1.37,1.37,0,0,0,54.35,49.44ZM39.08,48.07a1.19,1.19,0,0,0-2.37,0,1.19,1.19,0,1,0,2.37,0Zm.88-.83A1.23,1.23,0,1,0,38.73,46,1.23,1.23,0,0,0,40,47.24Zm26.73,16A1.32,1.32,0,1,0,68,64.56,1.31,1.31,0,0,0,66.69,63.25ZM43.37,48.07A1.36,1.36,0,1,0,42,49.43,1.35,1.35,0,0,0,43.37,48.07Zm4.81-.68A1.38,1.38,0,1,0,46.81,46,1.37,1.37,0,0,0,48.18,47.39ZM45.42,46a1.35,1.35,0,1,0-1.35,1.36A1.34,1.34,0,0,0,45.42,46Zm4.82,3.4a1.34,1.34,0,1,0-1.33-1.34A1.34,1.34,0,0,0,50.24,49.41Zm2.06-2A1.36,1.36,0,1,0,50.94,46,1.36,1.36,0,0,0,52.3,47.37ZM47.52,44a1.39,1.39,0,1,0-1.39,1.39A1.39,1.39,0,0,0,47.52,44Zm8.89,7.56A1.38,1.38,0,1,0,55,50.14,1.37,1.37,0,0,0,56.41,51.51ZM68.75,67.6a1,1,0,1,0-1-1A1,1,0,0,0,68.75,67.6ZM52.3,28.33a1.19,1.19,0,1,0,1.19,1.19A1.19,1.19,0,0,0,52.3,28.33Zm-4.12,0a1.17,1.17,0,1,0,1.17,1.17A1.17,1.17,0,0,0,48.18,28.35ZM42,30.5a1.09,1.09,0,0,0,0,2.17,1.09,1.09,0,1,0,0-2.17Zm-2-2A1.07,1.07,0,1,0,41,29.52,1.07,1.07,0,0,0,40,28.46Zm4.11,4a1.17,1.17,0,1,0,0,2.34,1.17,1.17,0,1,0,0-2.34Zm2.06-2.06a1.17,1.17,0,1,0,1.16,1.16A1.17,1.17,0,0,0,46.13,30.42Zm8.22-.12a1.29,1.29,0,1,0,1.29,1.28A1.28,1.28,0,0,0,54.35,30.3Zm-4.11,0a1.27,1.27,0,1,0,1.27,1.27A1.26,1.26,0,0,0,50.24,30.31Zm18.51,2.23a1.11,1.11,0,1,0,1.11,1.11A1.1,1.1,0,0,0,68.75,32.54Zm1.52.23a14.19,14.19,0,0,0-.67-1.67,1.28,1.28,0,0,0-.09.48A1.31,1.31,0,0,0,70.27,32.77ZM66.7,34.59a1.12,1.12,0,1,0,1.11,1.12A1.11,1.11,0,0,0,66.7,34.59Zm-2.06-2.25a1.31,1.31,0,1,0,1.3,1.31A1.3,1.3,0,0,0,64.64,32.34Zm-6.17-2a1.25,1.25,0,1,0,1.24,1.24A1.23,1.23,0,0,0,58.47,30.34Zm4.11,0a1.23,1.23,0,1,0,1.23,1.22A1.22,1.22,0,0,0,62.58,30.36Zm-2-2a1.2,1.2,0,1,0,1.2,1.2A1.2,1.2,0,0,0,60.53,28.32Zm-4.12-.05a1.26,1.26,0,1,0,1.25,1.25A1.25,1.25,0,0,0,56.41,28.27ZM42,37.05a1.35,1.35,0,1,0-1.34-1.34A1.35,1.35,0,0,0,42,37.05Zm16.46-2.66a1.32,1.32,0,1,0,1.31,1.32A1.32,1.32,0,0,0,58.47,34.39ZM71.78,62.51a1.06,1.06,0,0,0,.45.86c.06-.61.1-1.21.11-1.8A1.07,1.07,0,0,0,71.78,62.51Zm-3-25.95A1.21,1.21,0,1,0,70,37.77,1.21,1.21,0,0,0,68.75,36.56Zm-7.53-.85a1.36,1.36,0,1,0,1.36-1.36A1.36,1.36,0,0,0,61.22,35.71Zm-.69-3.36a1.29,1.29,0,1,0,0,2.58,1.29,1.29,0,0,0,0-2.58Zm10.28,31A1.21,1.21,0,1,0,72,64.56,1.21,1.21,0,0,0,70.81,63.36ZM65.94,37.77a1.3,1.3,0,1,0-1.3,1.31A1.31,1.31,0,0,0,65.94,37.77ZM35.14,52.2a1.36,1.36,0,1,0-1.36,1.36A1.36,1.36,0,0,0,35.14,52.2ZM69.61,35.71a1.2,1.2,0,0,0,1.2,1.2,1.06,1.06,0,0,0,.19,0,13.22,13.22,0,0,0-.27-2.35A1.19,1.19,0,0,0,69.61,35.71ZM57.12,52.2a1.35,1.35,0,1,0,1.35-1.35A1.35,1.35,0,0,0,57.12,52.2Zm13,10.31a1.34,1.34,0,1,0-1.34,1.34A1.34,1.34,0,0,0,70.09,62.51ZM58.47,49.44a1.37,1.37,0,1,0-1.36-1.37A1.36,1.36,0,0,0,58.47,49.44Zm0,8.21a1.33,1.33,0,1,0-1.33-1.33A1.33,1.33,0,0,0,58.47,57.65ZM68,60.44a1.33,1.33,0,1,0-1.33,1.33A1.32,1.32,0,0,0,68,60.44ZM66,62.5a1.33,1.33,0,1,0-1.33,1.34A1.34,1.34,0,0,0,66,62.5Zm-6.8-4.12A1.36,1.36,0,1,0,60.52,57,1.36,1.36,0,0,0,59.17,58.38Zm3.41,3.4a1.34,1.34,0,1,0-1.34-1.34A1.34,1.34,0,0,0,62.58,61.78Zm5.5-22a1.38,1.38,0,1,0-1.38,1.38A1.38,1.38,0,0,0,68.08,39.83ZM31.73,32.57a1.08,1.08,0,1,0,1.07,1.07A1.07,1.07,0,0,0,31.73,32.57Zm2.05,1.86a1.28,1.28,0,1,0,1.28,1.28A1.27,1.27,0,0,0,33.78,34.43Zm2.06-1.91A1.13,1.13,0,1,0,37,33.64,1.13,1.13,0,0,0,35.84,32.52ZM29.67,37a1.27,1.27,0,1,0-1.27-1.27A1.27,1.27,0,0,0,29.67,37Zm.72,13.16a1.34,1.34,0,1,0,2.67,0,1.34,1.34,0,1,0-2.67,0ZM37.9,34.42a1.29,1.29,0,1,0,1.28,1.29A1.29,1.29,0,0,0,37.9,34.42ZM28.31,44a1.36,1.36,0,1,0,1.36-1.36A1.36,1.36,0,0,0,28.31,44Zm0-4.12a1.4,1.4,0,1,0,1.4-1.4A1.4,1.4,0,0,0,28.27,39.83Zm17.16-2.06a1.36,1.36,0,1,0-1.36,1.36A1.37,1.37,0,0,0,45.43,37.77Zm4.81-3.39a1.33,1.33,0,1,0,1.33,1.33A1.33,1.33,0,0,0,50.24,34.38Zm.81-.73A1.25,1.25,0,1,0,52.3,32.4,1.25,1.25,0,0,0,51.05,33.65ZM40,32.52a1.13,1.13,0,1,0,1.11,1.12A1.12,1.12,0,0,0,40,32.52Zm14.39,1.83a1.36,1.36,0,1,0,1.36,1.36A1.36,1.36,0,0,0,54.35,34.35ZM37.9,30.51A1.07,1.07,0,1,0,39,31.58,1.07,1.07,0,0,0,37.9,30.51Zm9.44,5.2a1.22,1.22,0,1,0-1.21,1.21A1.21,1.21,0,0,0,47.34,35.71Zm7.87-2.06a1.2,1.2,0,1,0,1.2-1.21A1.2,1.2,0,0,0,55.21,33.65Zm-8.25,0a1.23,1.23,0,1,0,1.22-1.22A1.23,1.23,0,0,0,47,33.64ZM29,46a1.37,1.37,0,0,0-1.32-1.36v2.72A1.37,1.37,0,0,0,29,46ZM40,26.44a1,1,0,0,0,0-2.09,1,1,0,1,0,0,2.09Zm2-.05a1.07,1.07,0,1,0,1.07,1.07A1.07,1.07,0,0,0,42,26.39Zm-4.11,0a1.05,1.05,0,1,0,1,1.05A1,1,0,0,0,37.9,26.41Zm-8.23,0a1,1,0,1,0,1,1A1,1,0,0,0,29.67,26.42Zm6.17,0a1.06,1.06,0,1,0-1.06-1.06A1.06,1.06,0,0,0,35.84,26.46Zm8.23,0a1,1,0,1,0-1-1A1,1,0,0,0,44.07,26.43Zm-10.29,0a1.06,1.06,0,1,0,1.06,1.06A1.06,1.06,0,0,0,33.78,26.4Zm-2.05.06a1.06,1.06,0,0,0,0-2.12,1.06,1.06,0,1,0,0,2.12Zm4.11,2a1.05,1.05,0,1,0,1,1.05A1,1,0,0,0,35.84,28.47Zm18.51-2.12a1.11,1.11,0,1,0,1.12,1.11A1.11,1.11,0,0,0,54.35,26.35Zm2.06,0a1,1,0,1,0-1-1A1,1,0,0,0,56.41,26.39Zm2.06-.08a1.15,1.15,0,1,0,1.15,1.15A1.14,1.14,0,0,0,58.47,26.31Zm-12.34.13a1,1,0,1,0,0,2,1,1,0,0,0,0-2Zm6.17,0a1,1,0,1,0-1-1A1,1,0,0,0,52.3,26.41ZM28.7,29.52a1.09,1.09,0,0,0-1-1.08V30.6A1.07,1.07,0,0,0,28.7,29.52Zm19.48-3.07a1.05,1.05,0,1,0-1-1.05A1,1,0,0,0,48.18,26.45Zm2.06-.08a1.09,1.09,0,1,0,1.09,1.09A1.09,1.09,0,0,0,50.24,26.37Zm-6.17,2.06a1.09,1.09,0,1,0,1.08,1.09A1.09,1.09,0,0,0,44.07,28.43ZM66.69,71.78a1,1,0,0,0,0,2.07l.08,0a.47.47,0,0,0,.12-.07,10.05,10.05,0,0,0,.78-.66.94.94,0,0,0,.06-.29A1,1,0,0,0,66.69,71.78Zm-2,2.07a1,1,0,0,0-1,1,1,1,0,0,0,.16.51,13.44,13.44,0,0,0,1.81-.83A1,1,0,0,0,64.64,73.85ZM66.7,28.53a1.06,1.06,0,0,0,.89-.51,13.34,13.34,0,0,0-1.47-1.44,1.06,1.06,0,0,0-.49.88A1.07,1.07,0,0,0,66.7,28.53ZM61.62,76c.43-.1.85-.23,1.27-.36a1.07,1.07,0,0,0-.31-.06A1.3,1.3,0,0,0,61.62,76Zm-34-2.18v2a1,1,0,0,0,0-2ZM28.83,25.4a1.21,1.21,0,0,0-1.17-1.21v2.42A1.22,1.22,0,0,0,28.83,25.4Zm29.64-1a1,1,0,0,0,1-.77c-.65-.11-1.32-.2-2-.25A1,1,0,0,0,58.47,24.36Zm6.17,2.07a1,1,0,0,0,.8-.41l-.11-.09a12.17,12.17,0,0,0-1.62-1,1.09,1.09,0,0,0-.1.44A1,1,0,0,0,64.64,26.43ZM33.78,76.05a.87.87,0,0,0-.85.76h1.7A.87.87,0,0,0,33.78,76.05Zm4.12,0a.86.86,0,0,0-.84.74h1.67A.84.84,0,0,0,37.9,76.07ZM29.67,76a1,1,0,0,0-.94.84h1.88A1,1,0,0,0,29.67,76ZM42,76.08a.84.84,0,0,0-.83.73h1.66A.84.84,0,0,0,42,76.08ZM54.35,76a.92.92,0,0,0-.91.81l1.82,0A.93.93,0,0,0,54.35,76Zm-4.11,0a1,1,0,0,0-.93.84h1.86A1,1,0,0,0,50.24,76Zm-4.12,0a.91.91,0,0,0-.88.79H47A.91.91,0,0,0,46.12,76Zm12.35,0a1,1,0,0,0-.9.66c.57,0,1.14-.11,1.71-.18A1,1,0,0,0,58.47,76Zm2.06-49.47a1.11,1.11,0,1,0-1.11-1.11A1.11,1.11,0,0,0,60.53,26.51Zm-32,31.87a.94.94,0,0,0-.9-.94v1.88A.94.94,0,0,0,28.56,58.38ZM28.5,70.75a.88.88,0,0,0-.84-.88v1.76A.88.88,0,0,0,28.5,70.75ZM29,54.26a1.35,1.35,0,0,0-1.3-1.34V55.6A1.35,1.35,0,0,0,29,54.26ZM31,52.2a1.34,1.34,0,1,0-1.34,1.34A1.34,1.34,0,0,0,31,52.2Zm6.89-1.32a1.32,1.32,0,1,0,1.32,1.32A1.32,1.32,0,0,0,37.9,50.88Zm-6.17,4.5a1.13,1.13,0,1,0-1.12-1.12A1.12,1.12,0,0,0,31.73,55.38ZM28.41,62.5a.8.8,0,0,0-.75-.79V63.3A.8.8,0,0,0,28.41,62.5Zm7.43-9.59a1.35,1.35,0,1,0,1.35,1.35A1.35,1.35,0,0,0,35.84,52.91ZM33.78,30.52a1.07,1.07,0,0,0,0,2.13,1.07,1.07,0,1,0,0-2.13Zm-2.05-2.05a1.05,1.05,0,1,0,1.05,1.05A1,1,0,0,0,31.73,28.47Zm-2.06,4.18a1.07,1.07,0,1,0-1.07-1.07A1.07,1.07,0,0,0,29.67,32.65Zm-1.18,34a.87.87,0,0,0-.83-.87V67.5A.88.88,0,0,0,28.49,66.63ZM40,51.43a1.3,1.3,0,1,0-1.3-1.29A1.29,1.29,0,0,0,40,51.43Zm16.45-4.06A1.36,1.36,0,1,0,55.05,46,1.36,1.36,0,0,0,56.41,47.37ZM29,41.89a1.37,1.37,0,0,0-1.33-1.37v2.74A1.38,1.38,0,0,0,29,41.89Zm0-4.12a1.34,1.34,0,0,0-1.29-1.34V39.1A1.33,1.33,0,0,0,29,37.77Zm-.25-4.13a1.09,1.09,0,0,0-1-1.08v2.17A1.09,1.09,0,0,0,28.7,33.64ZM52.3,53.37a.89.89,0,1,0,.88.89A.89.89,0,0,0,52.3,53.37ZM66.69,69.73a1,1,0,1,0-1-1A1,1,0,0,0,66.69,69.73Zm-2,2.08a1.06,1.06,0,1,0-1.06-1.06A1.06,1.06,0,0,0,64.64,71.81ZM52.3,49.08a1.06,1.06,0,1,0,1.05,1.06A1.06,1.06,0,0,0,52.3,49.08ZM62.58,69.79a1.1,1.1,0,1,0-1.1-1.1A1.1,1.1,0,0,0,62.58,69.79Zm6.17-.11a1.08,1.08,0,0,0,0,2.15.73.73,0,0,0,.2,0c.3-.37.58-.76.85-1.17A1.06,1.06,0,0,0,68.75,69.68ZM64.64,28.44a1.08,1.08,0,1,0,0,2.16,1.08,1.08,0,0,0,0-2.16Zm2.06,2a1.17,1.17,0,1,0,1.16,1.17A1.17,1.17,0,0,0,66.7,30.41Zm2,.18a1.08,1.08,0,0,0,.51-.14,13.75,13.75,0,0,0-1.15-1.77,1.06,1.06,0,0,0,.64,1.91ZM48.18,51.2a1.07,1.07,0,1,0-1.06-1.06A1.06,1.06,0,0,0,48.18,51.2ZM52.3,63.4a.89.89,0,0,0,.88-.9.89.89,0,0,0-1.77,0A.89.89,0,0,0,52.3,63.4Zm-4.12-5.87a.85.85,0,1,0,.85.85A.86.86,0,0,0,48.18,57.53Zm-2-10.84a1.39,1.39,0,1,0,1.38,1.38A1.38,1.38,0,0,0,46.13,46.69Zm2,15a.84.84,0,0,0,0,1.67.84.84,0,1,0,0-1.67Zm4.12-4.13a.84.84,0,0,0-.85.84.85.85,0,1,0,1.69,0A.84.84,0,0,0,52.3,57.54Zm-4.12,9.95a.87.87,0,1,0-.86-.86A.87.87,0,0,0,48.18,67.49Zm0-14.11a.88.88,0,1,0,.89.88A.88.88,0,0,0,48.18,53.38ZM61.49,27.46a1.09,1.09,0,1,0,1.09-1.09A1.09,1.09,0,0,0,61.49,27.46ZM72.25,59.58a13.41,13.41,0,0,0-.41-2.06,1.31,1.31,0,0,0-.33.86A1.34,1.34,0,0,0,72.25,59.58ZM42,59.63a.81.81,0,0,0-.81.81.82.82,0,0,0,.81.82.82.82,0,0,0,.82-.82A.82.82,0,0,0,42,59.63ZM42,72a.84.84,0,0,0,0,1.68A.84.84,0,0,0,42,72Zm0-4.15a.87.87,0,1,0,.86.87A.86.86,0,0,0,42,67.82Zm0-12.35a.85.85,0,1,0,.85.85A.85.85,0,0,0,42,55.47ZM40,69.89a.86.86,0,1,0,0,1.72.86.86,0,0,0,0-1.72ZM40,74a.85.85,0,1,0,0,1.7A.85.85,0,0,0,40,74ZM44.07,51.3a1.17,1.17,0,1,0-1.16-1.16A1.16,1.16,0,0,0,44.07,51.3ZM42,63.76a.8.8,0,0,0-.8.8.81.81,0,1,0,1.61,0A.8.8,0,0,0,42,63.76Zm0-12.62a1.06,1.06,0,1,0,1.05,1.06A1.06,1.06,0,0,0,42,51.14Zm4.12.11a1,1,0,1,0,.94,1A.94.94,0,0,0,46.13,51.25Zm-2.06,2.07a.94.94,0,1,0,.93.94A.93.93,0,0,0,44.07,53.32Zm2,18.58a.91.91,0,1,0,.91.91A.9.9,0,0,0,46.12,71.9Zm-2,2.15a.83.83,0,0,0,0,1.65.83.83,0,0,0,0-1.65Zm0-12.38a.84.84,0,1,0,.83.83A.83.83,0,0,0,44.07,61.67Zm0,4.08a.88.88,0,1,0,.87.88A.87.87,0,0,0,44.07,65.75Zm0,5.82a.82.82,0,0,0,.81-.82.81.81,0,0,0-1.62,0A.82.82,0,0,0,44.07,71.57Zm0-14a.84.84,0,1,0,.84.84A.84.84,0,0,0,44.07,57.54ZM35.84,74a.88.88,0,1,0,.87.87A.87.87,0,0,0,35.84,74Zm10.28-6.16a.85.85,0,0,0,0,1.7.85.85,0,1,0,0-1.7ZM35.84,71.57a.82.82,0,1,0-.82-.82A.82.82,0,0,0,35.84,71.57Zm0-8.26a.81.81,0,1,0-.8-.81A.8.8,0,0,0,35.84,63.31Zm-2.06.46a.79.79,0,0,0-.8.79.8.8,0,1,0,1.6,0A.79.79,0,0,0,33.78,63.77Zm0-4.14a.81.81,0,1,0,.81.81A.81.81,0,0,0,33.78,59.63Zm2.06-2.14a.9.9,0,1,0,.89.89A.89.89,0,0,0,35.84,57.49Zm-2.06,10.4a.8.8,0,1,0,.8.8A.8.8,0,0,0,33.78,67.89ZM40,63.31a.81.81,0,0,0,0-1.61.81.81,0,1,0,0,1.61Zm-6.18,8.63a.88.88,0,1,0,.87.87A.87.87,0,0,0,33.78,71.94ZM40,53.3a1,1,0,1,0,0,1.91,1,1,0,0,0,0-1.91Zm0,14.13a.81.81,0,0,0,0-1.61.81.81,0,1,0,0,1.61Zm0-8.25a.8.8,0,0,0,0-1.6.8.8,0,1,0,0,1.6ZM37.9,72a.84.84,0,1,0,.84.84A.84.84,0,0,0,37.9,72Zm0-6.6a.81.81,0,1,0-.81-.81A.8.8,0,0,0,37.9,65.37Zm0-10a.93.93,0,1,0,.93.93A.93.93,0,0,0,37.9,55.39Zm0,5.85a.8.8,0,1,0-.8-.8A.8.8,0,0,0,37.9,61.24Zm0,6.65a.8.8,0,1,0,.8.8A.8.8,0,0,0,37.9,67.89Zm-2.06-.46a.81.81,0,1,0-.8-.8A.8.8,0,0,0,35.84,67.43Zm22.63.27a1,1,0,1,0,1,1A1,1,0,0,0,58.47,67.7Zm0,4.15a1,1,0,1,0,1,1A1,1,0,0,0,58.47,71.85Zm-4.12-4.11a1,1,0,1,0,.95,1A.95.95,0,0,0,54.35,67.74Zm6.17,2a1,1,0,1,0,1,1A1,1,0,0,0,60.52,69.73Zm-4.11-4.17a1.07,1.07,0,1,0,1.07,1.07A1.07,1.07,0,0,0,56.41,65.56Zm2.06.17a1.17,1.17,0,1,0-1.16-1.17A1.16,1.16,0,0,0,58.47,65.73Zm-2.06,8.2a.94.94,0,1,0,.94.94A.94.94,0,0,0,56.41,73.93Zm0-2.27a.91.91,0,1,0-.91-.91A.91.91,0,0,0,56.41,71.66Zm4.11,2.24a1,1,0,0,0,0,1.95,1,1,0,1,0,0-1.95Zm2.06-2.12a1,1,0,1,0,1,1A1,1,0,0,0,62.58,71.78ZM54.35,53.27a1.08,1.08,0,1,0-1.07-1.07A1.07,1.07,0,0,0,54.35,53.27ZM50.24,63.59a1,1,0,1,0,1,1A1,1,0,0,0,50.24,63.59Zm0-4a.84.84,0,1,0,.83.83A.83.83,0,0,0,50.24,59.61Zm0-4.13a.83.83,0,0,0-.84.84.84.84,0,1,0,.84-.84Zm0-4.4a1.12,1.12,0,1,0,1.12,1.12A1.12,1.12,0,0,0,50.24,51.08ZM48.18,69.79a1,1,0,1,0,1,1A1,1,0,0,0,48.18,69.79Zm-2-12.63a.84.84,0,1,0-.84-.84A.85.85,0,0,0,46.13,57.16Zm0,4.12a.84.84,0,1,0-.84-.84A.84.84,0,0,0,46.13,61.28Zm2,12.66a.93.93,0,1,0,0,1.86.93.93,0,1,0,0-1.86Zm6.17-2a.93.93,0,0,0,0,1.85.93.93,0,1,0,0-1.85Zm0-6.37a1,1,0,0,0,.95-1,.95.95,0,1,0-.95,1Zm0-6a.89.89,0,0,0,0,1.77.89.89,0,1,0,0-1.77Zm0-4.17a.93.93,0,1,0,.93.93A.93.93,0,0,0,54.35,55.39ZM46.13,65.47a.91.91,0,1,0-.91-.91A.9.9,0,0,0,46.13,65.47Zm5,7.34a.91.91,0,1,0-.91.92A.91.91,0,0,0,51.15,72.81Zm-.91-5.08a1,1,0,1,0,.95,1A1,1,0,0,0,50.24,67.73Zm2.06,3.92a.9.9,0,1,0-.91-.9A.9.9,0,0,0,52.3,71.65Zm0-6a1,1,0,0,0,0,1.94,1,1,0,0,0,0-1.94Zm0,8.29a.93.93,0,1,0,.92.92A.92.92,0,0,0,52.3,74ZM30.39,46a1.34,1.34,0,1,0,1.34-1.34A1.34,1.34,0,0,0,30.39,46Zm30.13,1.36A1.36,1.36,0,1,0,59.17,46,1.36,1.36,0,0,0,60.52,47.37Zm0-4.13a1.35,1.35,0,1,0-1.36-1.35A1.34,1.34,0,0,0,60.53,43.24Zm-1.35,6.9a1.35,1.35,0,1,0,1.34-1.35A1.34,1.34,0,0,0,59.18,50.14ZM66,58.38a1.37,1.37,0,1,0-1.37,1.38A1.37,1.37,0,0,0,66,58.38Zm2.06-2.06a1.37,1.37,0,1,0-1.37,1.37A1.37,1.37,0,0,0,68.07,56.32Zm2-2.06a1.39,1.39,0,0,0-.1-.5c-.14-.19-.28-.37-.43-.55a1.31,1.31,0,0,0-.82-.3,1.35,1.35,0,1,0,1.35,1.35Zm-7.52-9A1.35,1.35,0,1,0,61.24,44,1.35,1.35,0,0,0,62.58,45.3Zm-3.4,9a1.35,1.35,0,1,0,1.34-1.35A1.34,1.34,0,0,0,59.18,54.26Zm8.22-8.33a12.25,12.25,0,0,0,1.13-1.25A1.35,1.35,0,0,0,67.4,45.93Zm-2.76-1.25A1.34,1.34,0,1,0,66,46,1.32,1.32,0,0,0,64.64,44.68ZM66,50.33a14.27,14.27,0,0,0-2.41-1,1.34,1.34,0,0,0-.27.78,1.36,1.36,0,0,0,1.36,1.36A1.35,1.35,0,0,0,66,50.33ZM61.23,52.2a1.35,1.35,0,1,0,1.35-1.36A1.36,1.36,0,0,0,61.23,52.2Zm0-4.13a1.36,1.36,0,0,0,1.35,1.36,1.31,1.31,0,0,0,.62-.17c-.4-.11-.8-.2-1.22-.28v-.15a11.94,11.94,0,0,0,1.92-.61,1,1,0,0,0,0-.15,1.35,1.35,0,0,0-2.7,0ZM66,54.26a1.36,1.36,0,1,0-1.36,1.36A1.37,1.37,0,0,0,66,54.26Zm4.11,4.12a1.36,1.36,0,1,0-1.36,1.36A1.36,1.36,0,0,0,70.11,58.38Zm-2-6.18a1.46,1.46,0,0,0-.14-.59c-.35-.28-.72-.53-1.09-.77-.06,0-.1,0-.15,0a1.39,1.39,0,1,0,1.38,1.39Zm-6.84,4.12A1.34,1.34,0,1,0,62.58,55,1.34,1.34,0,0,0,61.24,56.32ZM50.93,37.77a1.37,1.37,0,0,0,2.74,0,1.37,1.37,0,1,0-2.74,0Zm-.69,3.44a1.38,1.38,0,1,0-1.37-1.38A1.37,1.37,0,0,0,50.24,41.21Zm5.49-1.38a1.38,1.38,0,1,0-1.38,1.38A1.38,1.38,0,0,0,55.73,39.83Zm-5.49,5.49A1.37,1.37,0,1,0,48.88,44,1.36,1.36,0,0,0,50.24,45.32Zm2.06-2.06a1.37,1.37,0,1,0-1.37-1.37A1.36,1.36,0,0,0,52.3,43.26ZM55,37.77a1.39,1.39,0,1,0,1.38-1.39A1.38,1.38,0,0,0,55,37.77Zm-6.85,5.51a1.39,1.39,0,1,0-1.38-1.39A1.39,1.39,0,0,0,48.18,43.28Zm0-4.18a1.33,1.33,0,1,0-1.33-1.33A1.33,1.33,0,0,0,48.18,39.1Zm20.57,1.4a1.39,1.39,0,1,0,.9,2.44c.18-.35.34-.71.49-1.08A1.39,1.39,0,0,0,68.75,40.5Zm2.2-2-.14,0a1.31,1.31,0,0,0-.39,2.57A12,12,0,0,0,71,38.53ZM69.44,56.32a1.36,1.36,0,0,0,2.33,1,11.15,11.15,0,0,0-1-2.35A1.36,1.36,0,0,0,69.44,56.32Zm2.7,4.12a1.33,1.33,0,1,0-1.33,1.34A1.34,1.34,0,0,0,72.14,60.44Zm-11.61-24a1.33,1.33,0,1,0,1.32,1.33A1.33,1.33,0,0,0,60.53,36.44Zm-2.06,2a1.35,1.35,0,1,0,1.34,1.35A1.34,1.34,0,0,0,58.47,38.48ZM66.7,42.6A1.35,1.35,0,1,0,68,44,1.35,1.35,0,0,0,66.7,42.6Zm-5.48-2.77a1.37,1.37,0,1,0,1.36-1.37A1.36,1.36,0,0,0,61.22,39.83ZM66,41.89a1.35,1.35,0,1,0-1.35,1.35A1.35,1.35,0,0,0,66,41.89ZM30.34,37.77a1.39,1.39,0,1,0,1.39-1.39A1.38,1.38,0,0,0,30.34,37.77ZM69.63,68.69a1.18,1.18,0,0,0,.7,1.08,16.15,16.15,0,0,0,.94-2.17,1.23,1.23,0,0,0-.46-.1A1.18,1.18,0,0,0,69.63,68.69Zm-40-13.28a.91.91,0,1,0,.91.91A.91.91,0,0,0,29.67,55.41Zm26.74,4a1,1,0,1,0-1-1A1,1,0,0,0,56.41,59.4ZM28.29,48.07a1.38,1.38,0,1,0,1.38-1.37A1.38,1.38,0,0,0,28.29,48.07ZM38.6,37.77A1.36,1.36,0,1,0,40,36.41,1.36,1.36,0,0,0,38.6,37.77ZM29,50.14a1.34,1.34,0,0,0-1.3-1.34v2.68A1.35,1.35,0,0,0,29,50.14Zm.71,23.54a.87.87,0,1,0-.87-.87A.87.87,0,0,0,29.67,73.68ZM56.41,43.24a1.35,1.35,0,1,0-1.35-1.35A1.34,1.34,0,0,0,56.41,43.24ZM31.73,63.31a.81.81,0,0,0,0-1.61.81.81,0,0,0,0,1.61Zm0,4.12a.81.81,0,1,0-.8-.8A.8.8,0,0,0,31.73,67.43Zm0,4.14a.82.82,0,0,0,.81-.82.81.81,0,0,0-.81-.81.82.82,0,0,0-.82.81A.82.82,0,0,0,31.73,71.57Zm-2.06-7.8a.79.79,0,0,0-.8.79.8.8,0,1,0,1.6,0A.79.79,0,0,0,29.67,63.77Zm0,4.12a.8.8,0,1,0,.8.8A.8.8,0,0,0,29.67,67.89Zm0-8.29a.84.84,0,1,0,.84.84A.85.85,0,0,0,29.67,59.6ZM31.73,74a.87.87,0,1,0,.86.86A.86.86,0,0,0,31.73,74Zm0-16.53a.9.9,0,1,0,.89.9A.9.9,0,0,0,31.73,57.48Zm24.68,6a1,1,0,1,0-1-1A1,1,0,0,0,56.41,63.47ZM39.28,44a1.38,1.38,0,1,0-1.38,1.39A1.39,1.39,0,0,0,39.28,44ZM37.16,46a1.32,1.32,0,1,0-1.32,1.33A1.32,1.32,0,0,0,37.16,46ZM40,43.27a1.38,1.38,0,0,0,0-2.76,1.38,1.38,0,1,0,0,2.76Zm7.56-3.44a1.4,1.4,0,1,0-1.39,1.4A1.4,1.4,0,0,0,47.52,39.83ZM58.47,45.3A1.35,1.35,0,1,0,57.13,44,1.34,1.34,0,0,0,58.47,45.3ZM43.37,44A1.36,1.36,0,1,0,42,45.31,1.36,1.36,0,0,0,43.37,44Zm2.08-2.06a1.38,1.38,0,1,0-1.38,1.39A1.38,1.38,0,0,0,45.45,41.89Zm-2.09-2.06A1.35,1.35,0,1,0,42,41.19,1.35,1.35,0,0,0,43.36,39.83Zm-8.3,8.24a1.28,1.28,0,1,0-1.28,1.29A1.28,1.28,0,0,0,35.06,48.07ZM55.71,44a1.36,1.36,0,1,0-1.36,1.36A1.36,1.36,0,0,0,55.71,44ZM39.27,39.83a1.38,1.38,0,1,0-1.37,1.38A1.37,1.37,0,0,0,39.27,39.83Zm-4.8-2.06a1.37,1.37,0,1,0,1.37-1.37A1.38,1.38,0,0,0,34.47,37.77Zm2.73,4.12a1.36,1.36,0,0,0-2.72,0,1.36,1.36,0,1,0,2.72,0ZM32.41,44a1.38,1.38,0,1,0,1.37-1.37A1.37,1.37,0,0,0,32.41,44Zm0-4.12a1.41,1.41,0,1,0,1.4-1.41A1.4,1.4,0,0,0,32.38,39.83Zm-2,2.06a1.36,1.36,0,1,0,1.36-1.36A1.36,1.36,0,0,0,30.37,41.89ZM63.06,24.65a1.27,1.27,0,0,1-.55.13A1.21,1.21,0,0,1,61.39,24,13.92,13.92,0,0,1,63.06,24.65Zm8.36,42.48a1.32,1.32,0,0,1-.12-.57,1.35,1.35,0,0,1,.57-1.11C71.75,66,71.6,66.57,71.42,67.13Z"/></svg>