<svg id="图层_1" data-name="图层 1" xmlns="http://www.w3.org/2000/svg" viewBox="0 0 100 100"><defs><style>.cls-1{fill:#231815;}</style></defs><title>logohunt01</title><path class="cls-1" d="M72.8,47.93c1-2.38,3.1-3.09,6.91-2.11a48.34,48.34,0,0,0-1.83-6c-1.44-3.21-3.6-5.81-7.37-6.41s-6.9,2.12-6.41,5.84a3.33,3.33,0,0,0,2.22,2.83c.11-.38.19-.69.3-1a2,2,0,0,1,2.22-1.57,3.2,3.2,0,0,1,2.2,1.3,3.27,3.27,0,0,1-.4,2.69c-1,1.4-2.69,1.57-4.31,1.17a5.85,5.85,0,0,1-4.65-4.3c-.66-2.51-.48-5.06,1.56-6.85a33.35,33.35,0,0,1,5.23-3.17,18.76,18.76,0,0,1-1.15-2.46,5.06,5.06,0,0,1,6.06-6.69A3,3,0,0,1,76,24.43a2.39,2.39,0,0,1-2.51,2c-1.34,0-2-.84-2.17-2.77-1.5.4-2.33,1.34-1.86,2.71a12.93,12.93,0,0,0,2.19,3.73,9.72,9.72,0,0,0,2.42,1.92,16.85,16.85,0,0,1,8,13.67c.68,11.88-3.35,21.89-13,29.28a18.36,18.36,0,0,1-11,3.91c-7.1.16-11.27-5.16-9.13-12a72.8,72.8,0,0,1,3.77-8.32,42.45,42.45,0,0,0,2.07-4.57c.89-2.78-.64-4.44-3.55-4.06a7.75,7.75,0,0,0-6.76,5.59c-.71,2.69.29,4.28,3,4.82l1.16.22C47,63,44.9,64.48,42,64.42c-2.24,0-3.43-1.46-4.26-3.81-1,2.23-1.66,4.19-2.63,6a28.8,28.8,0,0,1-3.55,5.55,8,8,0,0,1-7,2.55,7.18,7.18,0,0,1-6.66-6.6c-.38-3.55,1.51-6.85,4.64-7.66a7.61,7.61,0,0,1,3.73.11A2.63,2.63,0,0,1,28,63.66a2.38,2.38,0,0,1-2.31,1.94,2.37,2.37,0,0,1-2.71-2,3.38,3.38,0,0,0-.24-.51A4.51,4.51,0,0,0,20.37,68a4.82,4.82,0,0,0,4.36,3.82,6.89,6.89,0,0,0,6.25-3A18.85,18.85,0,0,0,32.8,65.4c.93-2,1.72-4.09,2.68-6.08C39.9,50.13,47.4,46.1,57.4,46.67a18.36,18.36,0,0,1,6.78,1.77c3.76,1.8,5.06,5.18,3.87,9.17a31.89,31.89,0,0,1-2,4.74c-1.22,2.53-2.54,5-3.78,7.54a6.55,6.55,0,0,0-.52,1.68c-.23,1.48.4,2.2,1.87,2.07a4.62,4.62,0,0,0,2.1-.6,20.87,20.87,0,0,0,4.59-3.64A25.33,25.33,0,0,0,76,54.17C76.15,50.93,75.48,49.79,72.8,47.93Z"/></svg>