<svg id="图层_1" data-name="图层 1" xmlns="http://www.w3.org/2000/svg" viewBox="0 0 100 100"><defs><style>.cls-1{fill:#231815;}</style></defs><title>logohunt01</title><path class="cls-1" d="M66.92,70.47A7.69,7.69,0,0,1,68,74.76v.07H62.48v-.07a2.74,2.74,0,0,0-.84-2,2.7,2.7,0,0,0-2-.84,2.6,2.6,0,0,0-2,.84,2.78,2.78,0,0,0-.8,2v.07H51.27v-.07a7.25,7.25,0,0,1,1.24-4.29,19.34,19.34,0,0,1,3.06-3.13L39.12,40.05l.07,25a3.14,3.14,0,0,0,1.24,2.33,20.93,20.93,0,0,1,3.13,3.06,7.32,7.32,0,0,1,1.17,4.29v.07H39.12v-.07a2.77,2.77,0,0,0-.83-2,2.74,2.74,0,0,0-3.95,0,2.76,2.76,0,0,0-.82,2v.07H28v-.07a7.44,7.44,0,0,1,1.45-4.66,20.58,20.58,0,0,1,2.7-2.62,3.55,3.55,0,0,0,1.45-2.4V32.92a3.36,3.36,0,0,0-1.45-2.4,20.58,20.58,0,0,1-2.7-2.62A7.44,7.44,0,0,1,28,23.24v-.07h5.53v.07a2.6,2.6,0,0,0,.82,2,2.81,2.81,0,0,0,3.95,0,2.61,2.61,0,0,0,.83-2v-.07h5.61v.07A7.62,7.62,0,0,1,41,30.15a6.24,6.24,0,0,0-.87.73L56.88,58.75V32.92a3.35,3.35,0,0,0-1.46-2.4,21,21,0,0,1-2.69-2.62,7.45,7.45,0,0,1-1.46-4.66v-.07h5.61v.07a2.6,2.6,0,0,0,.82,2,2.81,2.81,0,0,0,3.95,0,2.58,2.58,0,0,0,.83-2v-.07H68v.07a7.72,7.72,0,0,1-3.71,6.91,3.32,3.32,0,0,0-1.82,2.77V65.08a3.08,3.08,0,0,0,1.31,2.33,20.93,20.93,0,0,1,3.13,3.06"/></svg>