<svg id="图层_1" data-name="图层 1" xmlns="http://www.w3.org/2000/svg" viewBox="0 0 100 100"><defs><style>.cls-1{fill:#231815;}</style></defs><title>logohunt01</title><path class="cls-1" d="M74.25,43.94c-1.46,0-1.9-1.41-1.9-6.12A17.94,17.94,0,0,1,72.74,33a1.59,1.59,0,0,1,1.51-1.36c1.42,0,1.81,1.38,1.81,6.14s-.39,6.12-1.81,6.12m.59-13.29A7.15,7.15,0,0,0,67.61,38c0,4,2.74,7,6.48,7A6.61,6.61,0,0,0,80.9,38a6.9,6.9,0,0,0-2.83-5.73c3.25,2,4.57,4.4,4.57,7.81,0,2.9-1.16,6.23-4.32,12.29-2.16,4.07-3.48,6.56-3.9,7.47a26.78,26.78,0,0,0-1.25,2.58L62.29,35.38a7.82,7.82,0,0,1-.58-1.74c0-.83.75-1.17,2.74-1.33L67.78,32v-.67c-5.57.25-7.9.33-11.3.33s-5.73-.08-11.38-.33l8.31,22-4.16,9.14L39,35.3l-.41-1.16c-.09-.17-.09-.17-.09-.5,0-.83,1.08-1.25,4.41-1.5L44.43,32v-.67c-6.81.25-9.46.25-14.7.25s-7.47,0-13.37-.25v.75l1.49.17c.5,0,1,.08,1.58.08a4.38,4.38,0,0,1,1.83.5c.5.33.58.41,1.41,2.57l12.88,34h12l6.31-14.86,5.65,14.86H71.35c2.16-5.73,2.74-7,7-14.86,4-7.48,5.32-11.05,5.32-14.54,0-4.9-4.15-9.3-8.8-9.3"/></svg>