<svg id="图层_1" data-name="图层 1" xmlns="http://www.w3.org/2000/svg" viewBox="0 0 100 100"><title>logohunt03</title><path d="M71.79,58.89a1.74,1.74,0,0,0-.8-1.28L47.77,44.79A1.23,1.23,0,0,0,46.4,45l-4.26,4.25A135.66,135.66,0,0,0,72,62.6Zm-3.13,1.57L47.32,50.77c-.66-.3-1-.71-.86-.92s.85-.11,1.49.2L68.68,60.42c.64.32.63.34,0,0m.06-1.21L48.6,49.3c-.64-.32-1-.72-.89-.89s.79,0,1.42.3L68.74,59.22c.63.33.62.35,0,0M68.79,58,49.9,47.82c-.63-.34-1-.73-.92-.87s.72,0,1.34.4L68.8,58c.62.35.62.37,0,0"/><path d="M64.18,53l4.93,2.83a.45.45,0,0,0,.73-.39l.06-1a1.52,1.52,0,0,0-.59-1.23L66,50.87a.88.88,0,0,0-1.15.14L64,52a.62.62,0,0,0,.17,1"/><path d="M35.32,65.45c.8-.68,1.43-1.7.48-2.43-.38-.3-1.27-.41-1.51.76a1.83,1.83,0,0,1,1.86-2.72c2,.11,3.12,1.39,4.18,2.82-1.9-4,0-8.13,4.69-8,1.7.06,3.76.7,4.75,2.22.85,1.29.82,2.89-.7,3.55h0c1-1.49-2.27-3.51-2.77-.9-.45,2.34,4.56,3.09,6.11,3.21,5.1.37,9.67-1.45,15.38-.86a24.61,24.61,0,0,1,8.35,2.43L76.59,64c-20.75-4.84-33.19-12.85-39-15.71-1.5-.74-13.49-6.14-14.15-1.83-.87,5.76,9.82,11.18,8.21,19.46,1.42.21,2.81.21,3.65-.5"/><polygon points="49.07 61.68 49.07 61.68 49.07 61.68 49.07 61.68"/><path d="M33.94,36.66c-.87-2.48-5.73-4.68-9.27.06,4.68-3.15,7.43-.81,8.75,1.88.89-1.57,3.65-2.92,4.9-.93.11-2.4-3.2-2.64-4.38-1"/></svg>