<svg id="图层_1" data-name="图层 1" xmlns="http://www.w3.org/2000/svg" viewBox="0 0 100 100"><defs><style>.cls-1{fill:#231815;}</style></defs><title>logohunt01</title><polyline class="cls-1" points="50 36.61 26.23 24.23 26.23 65.93 30.19 65.93 30.19 30.76 50 41.08 69.81 30.76 69.81 65.93 73.77 65.93 73.77 24.23 50 36.61"/><polyline class="cls-1" points="50 45.55 34.16 37.3 34.16 70.92 38.12 70.92 38.12 43.83 50 50.02 61.88 43.83 61.88 70.92 65.84 70.92 65.84 37.3 50 45.55"/><polyline class="cls-1" points="50 54.47 42.08 50.35 42.08 75.77 46.05 75.77 46.05 56.88 50 58.94 53.95 56.88 53.95 75.77 57.91 75.77 57.91 50.35 50 54.47"/></svg>