<svg id="图层_1" data-name="图层 1" xmlns="http://www.w3.org/2000/svg" viewBox="0 0 100 100"><title>logohunt03</title><path d="M51,49.23a57.41,57.41,0,0,1,7.48,1.4c5.79,1.52,9.29,3.68,10.41,6.43C70.36,56,71.32,53.79,71.32,50c0-15.59-16.2-4-20.36-.77"/><path d="M51.22,50.14a54.57,54.57,0,0,1,4.3,6.27c3,5.17,4,9.18,2.82,11.91,1.84.3,4.06-.57,6.74-3.24,11-11-8.63-14.29-13.86-14.94"/><path d="M50.77,51a56.45,56.45,0,0,1-1.67,8.47A22.81,22.81,0,0,1,46.22,66,7.63,7.63,0,0,1,43,68.86c1.08,1.5,3.26,2.46,7,2.46,15.59,0,4-16.2.77-20.36"/><path d="M34.21,58.81h0a6.62,6.62,0,0,1-2.53-.46c-.3,1.83.57,4,3.25,6.73,11,11,14.28-8.63,14.93-13.85-2.34,1.85-10,7.58-15.65,7.58"/><path d="M41.56,49.37c-5.79-1.52-9.29-3.68-10.41-6.43C29.64,44,28.68,46.21,28.68,50c0,15.59,16.2,4,20.36.77a57.41,57.41,0,0,1-7.48-1.4"/><path d="M50,28.68c-3.79,0-6,1-7,2.46A7.7,7.7,0,0,1,46.22,34a22.81,22.81,0,0,1,2.88,6.57c.36,1.27.66,2.52.9,3.69.24-1.17.54-2.42.9-3.69A22.81,22.81,0,0,1,53.78,34a7.66,7.66,0,0,1,3.28-2.86C56,29.64,53.79,28.68,50,28.68"/><path d="M50,50S22.28,47.57,34.93,34.92,50,50,50,50"/><path d="M65.08,34.92c-9.86-9.85-13.51,4.8-14.64,11.76.1.63.18,1.19.24,1.67,2.83-2.18,9.88-7.16,15.11-7.16a6.34,6.34,0,0,1,2.53.47c.3-1.84-.57-4.06-3.24-6.74"/></svg>