<svg id="图层_1" data-name="图层 1" xmlns="http://www.w3.org/2000/svg" viewBox="0 0 100 100"><defs><style>.cls-1{fill:#231815;}</style></defs><title>logohunt02</title><path class="cls-1" d="M60,67.72c.76-2.84.07-6.25-1-6.53a41.26,41.26,0,0,1,1-6c.73-3.2,1.76-4.31,1.74-4.84,0-.71-.3-1.34-1.55-2.93-2.87-4-5.64-8.61-5.58-12.85a1.94,1.94,0,0,0,.38-1.18c0-1.11-2-1.28-2-1s0,1.29,0,1.86h0V49.64a1,1,0,0,1,.42.21l.07.07,0,0a1.07,1.07,0,0,1,.31.75,1.08,1.08,0,0,1-.09.44.08.08,0,0,0,0,0s0,.08-.07.12a1.09,1.09,0,0,1-2-.38,1.17,1.17,0,0,1,0-.43h0a1.27,1.27,0,0,1,.06-.18l0,0a.75.75,0,0,1,.07-.12l0-.07.06-.06a1,1,0,0,1,.56-.35V34.27h0V32.41c0-.3-1.95-.13-1.95,1a2,2,0,0,0,.38,1.18c.06,4.24-2.7,8.85-5.57,12.85C44,49,43.75,49.64,43.71,50.35c0,.53,1,1.64,1.73,4.84a41.28,41.28,0,0,1,1,6c-1.12.28-1.8,3.69-1,6.53H60M54,52.52a2.13,2.13,0,0,0,.15-2.77s.69.75,1.12,1.18c.83.86.12,1.92-.44,2.38A4.79,4.79,0,0,0,53,55.79a6.4,6.4,0,0,0-.16,1.14A7.67,7.67,0,0,1,54,52.52Zm-1.52,4.41a6.29,6.29,0,0,0-.16-1.14,4.69,4.69,0,0,0-1.86-2.48c-.56-.46-1.27-1.52-.44-2.38.43-.43,1.12-1.18,1.12-1.18a2.11,2.11,0,0,0,.15,2.77A7.67,7.67,0,0,1,52.51,56.93Zm-7.46-6.38c-.34-.51-.2-1.25.67-2.43a30.69,30.69,0,0,0,3.68-5.77c3-6.45,1.17-8.55,2.14-8.63S52,40.35,50.36,43c2.51-.5,2.1,3.14,1.18,4.94A9.71,9.71,0,0,1,50,50.15c-.79.72-1.19,0-1.19,0-.86-1.51-1.71-.06-1.87.5-.38,1.3-.14,1.84.25,4a19.6,19.6,0,0,1,.34,3.6,20.24,20.24,0,0,0-.88-3.6A38.82,38.82,0,0,0,45.05,50.55Zm13.32,10.5a10.93,10.93,0,0,0-4-.17,2.75,2.75,0,0,0-1.73,2.38h0a2.77,2.77,0,0,0-1.73-2.38,10.93,10.93,0,0,0-4,.17c.32-.07,1.69-.34,2.77-.48,2.82-.38,2.92.73,2.92.73s.11-1.11,2.93-.73c1.08.14,2.45.41,2.77.48h0Zm-.54-2.8a19.77,19.77,0,0,1,.33-3.6c.39-2.18.63-2.72.25-4-.16-.56-1-2-1.87-.5,0,0-.4.74-1.18,0A9.7,9.7,0,0,1,53.8,48c-.92-1.8-1.34-5.44,1.18-4.94-1.68-2.68-2.21-9.33-1.17-9.31s-.89,2.18,2.13,8.63a30.62,30.62,0,0,0,3.69,5.77c.86,1.18,1,1.92.67,2.43a36.76,36.76,0,0,0-1.59,4.1A18.58,18.58,0,0,0,57.83,58.25Z"/></svg>