<svg id="图层_1" data-name="图层 1" xmlns="http://www.w3.org/2000/svg" viewBox="0 0 100 100"><title>logohunt03</title><path d="M38.31,37.65a11.65,11.65,0,0,1,.63-3.8,69,69,0,0,0-6.79-11A20.75,20.75,0,0,0,24.34,38.8c0,11.55,10.21,21,23.25,22.08A115.73,115.73,0,0,0,44.51,48a11.7,11.7,0,0,1-6.2-10.32M67.85,22.88a69,69,0,0,0-6.79,11A11.71,11.71,0,0,1,55.49,48a115.73,115.73,0,0,0-3.08,12.91c13-1.05,23.25-10.53,23.25-22.08a20.75,20.75,0,0,0-7.81-15.92"/><polygon points="62.1 77.12 37.9 77.12 48.15 62.41 51.85 62.41 62.1 77.12"/><path d="M57.45,37.65A7.45,7.45,0,1,1,50,30.2a7.45,7.45,0,0,1,7.45,7.45"/></svg>