<svg id="图层_1" data-name="图层 1" xmlns="http://www.w3.org/2000/svg" viewBox="0 0 100 100"><defs><style>.cls-1{fill:#231815;}.cls-2{fill:#9e9e9f;}</style></defs><title>logohunt01</title><path class="cls-1" d="M64.26,66.47c.51-.41.88-1,1.35-1.42a19.66,19.66,0,0,0,6.16-14.19v-23H56.5v23A6.4,6.4,0,0,1,56,53.33c-.07.18-.32.08-.41.13-.65.31-1.4,1.09-2.39,1.64L51.86,66.35,52,71.27c5.4-.62,8.42-1.93,11.71-4.41l.6-.39"/><path class="cls-2" d="M49.37,71.2c-11.73-.31-21.14-9.3-21.14-20.34v-23H43.5v23a6.24,6.24,0,0,0,.72,3A2.92,2.92,0,0,0,47,55.44a9.54,9.54,0,0,0,5-1,4.05,4.05,0,0,1,1.76-.9,7.67,7.67,0,0,1,1.49-.18l.77,0a6.35,6.35,0,0,1-1.26,2,2.06,2.06,0,0,0-.12,2.9c1.32,1.84,7.72,6.12,9.92,6.65a1.77,1.77,0,0,0,1.68-.46,5.72,5.72,0,0,1-.86,2.36,2.7,2.7,0,0,1-2.85.84,18.86,18.86,0,0,1-4.31-1.88.34.34,0,0,0-.46.1.36.36,0,0,0,.15.49,23.84,23.84,0,0,0,3.89,1.82c.05,0,.46.73-.35,1.48a2.57,2.57,0,0,1-2.84.13,21.89,21.89,0,0,1-2.81-1.6.32.32,0,1,0-.36.53,22.3,22.3,0,0,0,2.29,1.39.89.89,0,0,1-.52,1.19,3,3,0,0,1-2.46-.42c-.39-.3-1.39-.94-1.75-1.25a.33.33,0,0,0-.5,0,.36.36,0,0,0,.08.46c.26.22.49.42.86.71l.31.24a.81.81,0,0,1-.6,1,2.74,2.74,0,0,1-2.43-.46,2.24,2.24,0,0,0-1.34-.35"/><path class="cls-1" d="M38.53,68.16a33.57,33.57,0,0,1,2-4.82,1.43,1.43,0,0,1,1.72-1c.55.21.84.89.53,1.8A41.82,41.82,0,0,1,41,69.37a1.28,1.28,0,0,1-1.59.51,1.46,1.46,0,0,1-.84-1.72"/><path class="cls-1" d="M42.22,70c0-.25.56-2.42,1.23-4.51a1.16,1.16,0,0,1,1.31-.9,1.18,1.18,0,0,1,.8,1.41,23,23,0,0,1-.87,4.6,1.24,1.24,0,0,1-1.42.57A1.31,1.31,0,0,1,42.22,70"/><path class="cls-1" d="M35.3,65.87a22.1,22.1,0,0,1,2.4-3.56,1.16,1.16,0,0,1,1.55-.42c.45.27.69.73.28,1.54a26.36,26.36,0,0,1-2.22,4.05,1.2,1.2,0,0,1-1.49-.09,1.35,1.35,0,0,1-.52-1.52"/><path class="cls-1" d="M46.07,71.11a18.62,18.62,0,0,1,.19-3.53,1,1,0,0,1,1-.9,1.09,1.09,0,0,1,1,1,15.35,15.35,0,0,1,.13,3.55,1.19,1.19,0,0,1-1.18.63,1.12,1.12,0,0,1-1.09-.71"/><path class="cls-1" d="M45,53.5a1.41,1.41,0,0,0-1.37,1c-.36.94-1.28,3.08-1.89,4.29-.26.5-.25,1.13.18,1.34a2.32,2.32,0,0,0,2.7-.75,14.88,14.88,0,0,0,1.54-1.87c.58-.77,1-.68,1.87-.42A1.7,1.7,0,0,0,50,56.47c.38-.4,1.7-1.75,2-2a6.89,6.89,0,0,1-2-.15,27.79,27.79,0,0,0-5-.82"/></svg>