<svg id="图层_1" data-name="图层 1" xmlns="http://www.w3.org/2000/svg" viewBox="0 0 100 100"><title>logohunt03</title><path d="M46.28,24a30.16,30.16,0,0,1-7.25,31l-10.4,10.4c.45.61.91,1.21,1.41,1.8l13-13A42,42,0,0,0,55.36,24.21,26.38,26.38,0,0,0,46.28,24m30,24.65a26.76,26.76,0,0,0-1.26-6.79A41.9,41.9,0,0,0,53.5,53.32L35.12,71.7q1,.66,2,1.23L52.68,57.35A30.09,30.09,0,0,1,76.31,48.6M68.66,31.37a26.41,26.41,0,0,0-4.77-3.75,41.78,41.78,0,0,1-11.2,20.07L31.59,68.8c.54.53,1.11,1,1.69,1.52L59.92,43.68a41.87,41.87,0,0,1,12-8.36,26.26,26.26,0,0,0-3.24-3.95m7,24.7a30.16,30.16,0,0,0-27.56,8.18l-9.46,9.47a26.25,26.25,0,0,0,37-17.65M38.53,26.32A26.26,26.26,0,0,0,27.7,64l4.42-4.42a30.2,30.2,0,0,0,6.41-33.22"/></svg>