<svg id="图层_1" data-name="图层 1" xmlns="http://www.w3.org/2000/svg" viewBox="0 0 100 100"><defs><style>.cls-1{fill:#231815;}</style></defs><title>logohunt01</title><path class="cls-1" d="M59.61,45.05a64.11,64.11,0,0,0,15.27.65c7.19-.57,12.5-2.38,14-3.88.18-.17.46-.5.38-.76s-.34-.63-2.15-.89C83.32,39.61,77,41.08,69,43c-3,.69-6.1,1.42-9.34,2.1M16.21,45c.5.25,2.09.78,7.1,1.61A76.87,76.87,0,0,0,42.94,47c-2.9-.54-6-1-9.35-1.39C24.51,44.57,17.67,44.54,16.21,45Zm44.57,6.85c2.88.89,7.15,1.1,12.1.58,5.25-.56,8.74-1.64,9.41-2.15C81.68,50,78.3,49.43,60.78,51.81Zm-32.19,3c.75.31,4.42.62,14.54-1-1.29-.11-2.48-.18-3.56-.21C33.11,53.36,29.32,54.28,28.59,54.77ZM63.36,57.9l1.19.49c4.29,1.8,10.09.73,11.86-.32.37-.22.46-.38.47-.41s-.52-.87-6.84-.45C68.13,57.34,65.89,57.57,63.36,57.9ZM36.18,61.43c.85.11,3.47,0,9.25-1.19l3.76-.73c-1.08,0-2.11,0-3.06.05C41.12,59.8,37.21,60.85,36.18,61.43Zm27.48,1.89a26.36,26.36,0,0,0-11.52-3.63c-2.09.37-4.28.79-6.57,1.24a70.76,70.76,0,0,1-7.46,1.17c-2.33.19-2.67-.09-2.81-.36a.54.54,0,0,1,.18-.67c.86-.78,5.44-2,11-2.23A41.06,41.06,0,0,1,52.1,59c3-.55,5.86-1,8.42-1.4a71.4,71.4,0,0,0-14.73-3.53l-2.36.38c-7.07,1.15-14.87,1.91-15.58.63a.58.58,0,0,1,.11-.67c.82-.9,5.59-1.75,11.86-1.54,1.72.06,3.72.2,6,.49q6.75-1.08,12.4-1.88a55.06,55.06,0,0,0-12.88-4,79.47,79.47,0,0,1-22.1-.21c-7.62-1.25-7.78-1.88-7.87-2.21a.52.52,0,0,1,.21-.54c1.16-.91,10.33-.49,18.16.42,3.07.35,7.32.94,11.66,1.82,3.6-.42,7.14-1,10.57-1.67a67.1,67.1,0,0,1-8-2.23c-20.67-7.15-37.73-5.24-37.9-5.22l-.08-.7c.17,0,17.38-2,38.21,5.26a68.16,68.16,0,0,0,9.51,2.53c3.87-.78,7.58-1.64,11.07-2.46,8.1-1.88,14.5-3.37,18.44-2.79,1.58.23,2.5.69,2.72,1.37.11.33.1.85-.55,1.49-2.79,2.74-15.84,6.07-31.66,3.11-3.33.67-6.78,1.29-10.29,1.76A48.12,48.12,0,0,1,59,51.11l.36.18c5.73-.79,10.53-1.36,14.38-1.68,8.7-.74,9.09,0,9.25.35a.57.57,0,0,1-.17.71c-.91.88-5.51,2-10.26,2.46-3.38.33-9.45.61-13.31-1.11-3.24.45-6.94,1-11.15,1.66A71.88,71.88,0,0,1,62,57.37c9.21-1.29,14.76-1.34,15.5-.06a.75.75,0,0,1-.15.92c-.66.75-2.74,1.44-5.16,1.71a16.42,16.42,0,0,1-7.9-.9c-.79-.33-1.58-.64-2.36-.94-2.28.32-4.78.71-7.47,1.18A25.73,25.73,0,0,1,64,62.72Z"/></svg>