<svg id="图层_1" data-name="图层 1" xmlns="http://www.w3.org/2000/svg" viewBox="0 0 100 100"><title>logohunt03</title><path d="M53.82,26.69A3.82,3.82,0,1,1,50,22.88a3.82,3.82,0,0,1,3.82,3.81"/><path d="M46.86,31.31A3.35,3.35,0,1,1,43.51,28a3.35,3.35,0,0,1,3.35,3.35"/><path d="M42.17,37a2.89,2.89,0,1,1-2.89-2.88A2.89,2.89,0,0,1,42.17,37"/><path d="M41.13,42.82a2.42,2.42,0,1,1-2.42-2.41,2.42,2.42,0,0,1,2.42,2.41"/><path d="M42.68,47.36a1.95,1.95,0,1,1-2-2,1.95,1.95,0,0,1,2,2"/><path d="M31.72,35a3.81,3.81,0,1,1-5.21,1.4A3.82,3.82,0,0,1,31.72,35"/><path d="M32.24,43.37a3.35,3.35,0,1,1-4.57,1.23,3.35,3.35,0,0,1,4.57-1.23"/><path d="M34.79,50.26a2.89,2.89,0,1,1-3.93,1.06,2.88,2.88,0,0,1,3.93-1.06"/><path d="M39.35,54.1a2.41,2.41,0,1,1-3.3.88,2.41,2.41,0,0,1,3.3-.88"/><path d="M44.06,55a2,2,0,1,1-2.67.72A2,2,0,0,1,44.06,55"/><path d="M27.91,58.35a3.81,3.81,0,1,1-1.4,5.21,3.81,3.81,0,0,1,1.4-5.21"/><path d="M35.38,62.06a3.35,3.35,0,1,1-1.22,4.58,3.36,3.36,0,0,1,1.22-4.58"/><path d="M42.63,63.3a2.88,2.88,0,1,1-1.06,3.94,2.87,2.87,0,0,1,1.06-3.94"/><path d="M48.22,61.27a2.42,2.42,0,1,1-.89,3.3,2.41,2.41,0,0,1,.89-3.3"/><path d="M51.38,57.66A2,2,0,0,1,53.33,61a2,2,0,0,1-2.67-.72,1.94,1.94,0,0,1,.72-2.66"/><path d="M46.18,73.31A3.82,3.82,0,1,1,50,77.12a3.82,3.82,0,0,1-3.82-3.81"/><path d="M53.14,68.69A3.35,3.35,0,1,1,56.49,72a3.35,3.35,0,0,1-3.35-3.35"/><path d="M57.83,63a2.89,2.89,0,1,1,2.88,2.88A2.88,2.88,0,0,1,57.83,63"/><path d="M58.87,57.18a2.42,2.42,0,1,1,2.42,2.41,2.42,2.42,0,0,1-2.42-2.41"/><path d="M57.32,52.64a1.95,1.95,0,1,1,2,2,1.95,1.95,0,0,1-2-2"/><path d="M68.27,65a3.82,3.82,0,1,1,5.22-1.4A3.82,3.82,0,0,1,68.27,65"/><path d="M67.76,56.63a3.35,3.35,0,1,1,4.57-1.23,3.35,3.35,0,0,1-4.57,1.23"/><path d="M65.2,49.74a2.89,2.89,0,1,1,3.94-1.06,2.88,2.88,0,0,1-3.94,1.06"/><path d="M60.65,45.9A2.41,2.41,0,1,1,64,45a2.41,2.41,0,0,1-3.3.88"/><path d="M55.94,45a2,2,0,1,1,2.67-.71,2,2,0,0,1-2.67.71"/><path d="M72.09,41.65a3.81,3.81,0,1,1,1.4-5.21,3.81,3.81,0,0,1-1.4,5.21"/><path d="M64.61,37.94a3.35,3.35,0,1,1,1.23-4.58,3.35,3.35,0,0,1-1.23,4.58"/><path d="M57.37,36.7a2.88,2.88,0,1,1,1.06-3.94,2.87,2.87,0,0,1-1.06,3.94"/><path d="M51.78,38.73a2.42,2.42,0,1,1,.88-3.3,2.41,2.41,0,0,1-.88,3.3"/><path d="M48.62,42.34A2,2,0,0,1,46.67,39a2,2,0,1,1,1.95,3.38"/></svg>