<svg id="图层_1" data-name="图层 1" xmlns="http://www.w3.org/2000/svg" viewBox="0 0 100 100"><title>logohunt03</title><path d="M76.91,40.41a32.22,32.22,0,0,0-44.65-1.08,32.18,32.18,0,0,0-9.17-5.91v8.21l.49.21a34.38,34.38,0,0,1,5,2.62,32.15,32.15,0,0,0,3.73-2.94A32,32,0,0,0,36,44.46a33.37,33.37,0,0,1,18-5.27,33.91,33.91,0,0,1,7.49.83V40a3.26,3.26,0,1,1,5.84,2,32.44,32.44,0,0,1,4.72,2.52,32.69,32.69,0,0,0,4.84-4l-.14,0Z"/><path d="M76.91,50A32.21,32.21,0,0,0,32.26,48.9,32.36,32.36,0,0,0,23.09,43v8.21l.49.21a32.5,32.5,0,0,1,5,2.62,32.15,32.15,0,0,0,3.73-2.94A32,32,0,0,0,36,54a33.38,33.38,0,0,1,18-5.28,33.92,33.92,0,0,1,7.49.84v-.06a3.26,3.26,0,1,1,5.84,2A33.43,33.43,0,0,1,72.07,54a32.69,32.69,0,0,0,4.84-4l-.14,0Z"/><path d="M76.91,59.56a32.22,32.22,0,0,0-44.65-1.08,32.18,32.18,0,0,0-9.17-5.91v14a32.18,32.18,0,0,0,9.17-5.91,32.22,32.22,0,0,0,44.65-1.08l-.14,0ZM64.76,62.37A3.26,3.26,0,1,1,68,59.11a3.26,3.26,0,0,1-3.26,3.26"/></svg>