<svg id="图层_1" data-name="图层 1" xmlns="http://www.w3.org/2000/svg" viewBox="0 0 100 100"><title>logohunt03</title><path d="M51.88,40.64a1.81,1.81,0,0,1-1.82,1.81h-.12a1.81,1.81,0,0,1-1.82-1.81l-1.25-15.1a3,3,0,0,1,3-3h.2a3,3,0,0,1,3,3Z"/><path d="M47,41a1.83,1.83,0,0,1-.67,2.49l-.11.06a1.82,1.82,0,0,1-2.48-.67L35.06,30.39a3,3,0,0,1,1.11-4.14l.17-.1a3,3,0,0,1,4.15,1.1Z"/><path d="M42.83,43.69a1.82,1.82,0,0,1,.67,2.48l-.06.11a1.82,1.82,0,0,1-2.49.66l-13.7-6.45a3,3,0,0,1-1.11-4.14l.11-.18a3,3,0,0,1,4.14-1.11Z"/><path d="M40.64,48.12a1.82,1.82,0,0,1,1.82,1.82v.12a1.82,1.82,0,0,1-1.82,1.82l-15.1,1.25a3,3,0,0,1-3-3v-.2a3,3,0,0,1,3-3Z"/><path d="M41,53.05a1.83,1.83,0,0,1,2.49.67l.06.1a1.83,1.83,0,0,1-.67,2.49L30.39,64.94a3,3,0,0,1-4.14-1.11l-.11-.18a3,3,0,0,1,1.11-4.14Z"/><path d="M43.69,57.17a1.82,1.82,0,0,1,2.48-.67l.11.06A1.83,1.83,0,0,1,47,59.05l-6.46,13.7a3,3,0,0,1-4.15,1.1l-.17-.1a3,3,0,0,1-1.11-4.14Z"/><path d="M48.12,59.36a1.82,1.82,0,0,1,1.82-1.82h.12a1.82,1.82,0,0,1,1.82,1.82l1.25,15.1a3,3,0,0,1-3,3h-.2a3,3,0,0,1-3-3Z"/><path d="M53.05,59.05a1.83,1.83,0,0,1,.67-2.49l.1-.06a1.83,1.83,0,0,1,2.49.67l8.63,12.44a3,3,0,0,1-1.11,4.14l-.18.1a3,3,0,0,1-4.14-1.1Z"/><path d="M57.17,56.31a1.83,1.83,0,0,1-.67-2.49l.06-.1a1.83,1.83,0,0,1,2.49-.67l13.69,6.46a3,3,0,0,1,1.12,4.14l-.11.18a3,3,0,0,1-4.14,1.11Z"/><path d="M59.36,51.88a1.82,1.82,0,0,1-1.82-1.82v-.12a1.82,1.82,0,0,1,1.82-1.82l15.1-1.25a3,3,0,0,1,3,3v.2a3,3,0,0,1-3,3Z"/><path d="M59.05,47a1.83,1.83,0,0,1-2.49-.67l-.06-.1a1.83,1.83,0,0,1,.67-2.49l12.44-8.63a3,3,0,0,1,4.14,1.11l.11.18a3,3,0,0,1-1.11,4.14Z"/><path d="M56.31,42.83a1.83,1.83,0,0,1-2.49.67l-.1-.06A1.83,1.83,0,0,1,53.05,41l6.46-13.7a3,3,0,0,1,4.15-1.1l.17.1a3,3,0,0,1,1.11,4.14Z"/></svg>