<svg id="图层_1" data-name="图层 1" xmlns="http://www.w3.org/2000/svg" viewBox="0 0 100 100"><defs><style>.cls-1{fill:#231815;}</style></defs><title>logohunt01</title><path class="cls-1" d="M24.92,49c0,15.3,11.53,27.7,27.7,27.7V21.3C36.45,21.3,24.92,33.71,24.92,49Z"/><rect class="cls-1" x="53.64" y="67.46" width="1.03" height="9.24"/><rect class="cls-1" x="53.64" y="21.3" width="1.03" height="9.24"/><rect class="cls-1" x="57.75" y="21.3" width="1.03" height="9.24"/><rect class="cls-1" x="68.03" y="67.46" width="1.03" height="9.24"/><rect class="cls-1" x="65.97" y="21.3" width="1.03" height="9.24"/><rect class="cls-1" x="63.92" y="21.3" width="1.03" height="9.24"/><rect class="cls-1" x="65.97" y="67.46" width="1.03" height="9.24"/><rect class="cls-1" x="68.03" y="21.3" width="1.03" height="9.24"/><rect class="cls-1" x="70.08" y="21.3" width="1" height="9.24"/><rect class="cls-1" x="70.08" y="67.46" width="1" height="9.24"/><rect class="cls-1" x="61.86" y="67.46" width="1.03" height="9.24"/><rect class="cls-1" x="59.81" y="67.46" width="1.03" height="9.24"/><rect class="cls-1" x="57.75" y="67.46" width="1.03" height="9.24"/><rect class="cls-1" x="55.7" y="21.3" width="1.03" height="9.24"/><rect class="cls-1" x="61.86" y="21.3" width="1.03" height="9.24"/><rect class="cls-1" x="59.81" y="21.3" width="1.03" height="9.24"/><rect class="cls-1" x="63.92" y="67.46" width="1.03" height="9.24"/><rect class="cls-1" x="55.7" y="67.46" width="1.03" height="9.24"/></svg>