<svg id="图层_1" data-name="图层 1" xmlns="http://www.w3.org/2000/svg" viewBox="0 0 100 100"><defs><style>.cls-1{fill:#231815;}</style></defs><title>logohunt01</title><polyline class="cls-1" points="16.91 71.77 17.69 71.77 17.69 33.68 9.46 25.45 9.46 72.55 17.69 72.55 17.69 71.77 16.91 71.77 16.91 70.98 11.03 70.98 11.03 29.23 16.13 34.33 16.13 71.77 16.91 71.77 16.91 70.98 16.91 71.77"/><polyline class="cls-1" points="79.1 71.77 79.88 71.77 79.88 34.33 84.97 29.23 84.97 70.98 79.1 70.98 79.1 71.77 79.88 71.77 79.1 71.77 79.1 72.55 86.54 72.55 86.54 25.45 78.31 33.68 78.31 72.55 79.1 72.55 79.1 71.77"/><polyline class="cls-1" points="9.7 27.9 48 66.21 86.31 27.9 85.21 26.79 48 63.99 10.8 26.79 9.7 27.9"/></svg>