<svg id="图层_1" data-name="图层 1" xmlns="http://www.w3.org/2000/svg" viewBox="0 0 100 100"><defs><style>.cls-1{fill:#231815;}.cls-2{fill:#fff;}</style></defs><title>logohunt01</title><path class="cls-1" d="M72.85,71.6,55.52,33.08A3.48,3.48,0,0,0,52,30.91a3.57,3.57,0,0,0-3.52,2.17L31.15,71.6a3.67,3.67,0,0,0-.41,1.63,3.83,3.83,0,0,0,3.93,3.86,3.64,3.64,0,0,0,3.45-2.24L42,66.59H62l3.86,8.26a3.56,3.56,0,0,0,3.45,2.24,3.83,3.83,0,0,0,3.93-3.86,3.67,3.67,0,0,0-.41-1.63"/><path class="cls-2" d="M56.14,48.55a2.84,2.84,0,0,0-.67-.24l-1.72-.4-.33-.19a2.2,2.2,0,0,1-1.57.88,2.4,2.4,0,0,1-1.63-.87l-.29.18-1.73.4a2.84,2.84,0,0,0-.66.24l-2.7,1.52c.34.42,1.63,2.46,1.63,2.46H48C48,52.7,48,60,48,60S50,60,51.84,60s3.71,0,3.82,0,0-7.28.06-7.45h1.53s1.24-2,1.58-2.46l-2.69-1.52"/></svg>