<svg id="图层_1" data-name="图层 1" xmlns="http://www.w3.org/2000/svg" viewBox="0 0 100 100"><defs><style>.cls-1{fill:#231815;}</style></defs><title>logohunt01</title><path class="cls-1" d="M71.51,68.07c-.56-1.26-1.1-2.53-1.61-3.76L63.54,48.26h0l-8.27-22,0,.06h0L47.18,48.16,38.94,26.3,21.44,73.7H35.28S44.46,49.06,44.51,49c.64-1.33,1.74-1.69,2.56-.49L37.74,73.7H51.61S60.78,49.06,60.83,49c.49-1,1.24-1.46,1.93-1.09a2,2,0,0,1,.55.57l.14.28,3.32,8.52.12.43c.34,1.1.28,3.53-1.9,2.65h0A6.88,6.88,0,0,0,62,59.67a7,7,0,0,0,0,14h3.14c4.86,0,13.25,0,13.38,0s-4.62-.06-7-5.63"/></svg>