<svg id="图层_1" data-name="图层 1" xmlns="http://www.w3.org/2000/svg" viewBox="0 0 100 100"><defs><style>.cls-1{fill:#231815;}</style></defs><title>logohunt01</title><path class="cls-1" d="M58.69,56.57a12.78,12.78,0,0,1-3.29.51A13.79,13.79,0,0,1,44.92,52.8c-5.12-5.29-5.46-13.55-2.71-17.95a11.13,11.13,0,0,1,9.06-5.39,12.42,12.42,0,0,1,9.39,3.17l3.28-4.14a14,14,0,0,0-9.42-3A19.46,19.46,0,0,0,35.7,44.68c0,7.62,3.7,12.42,7.78,14.67a16.26,16.26,0,0,0,7.92,2,16.78,16.78,0,0,0,7.29-2V74.56l5.61-3.15v-28H53.91l-3.1,3.92h7.88v9.2"/></svg>