<svg id="图层_1" data-name="图层 1" xmlns="http://www.w3.org/2000/svg" viewBox="0 0 100 100"><defs><style>.cls-1{fill:#231815;}</style></defs><title>logohunt01</title><path class="cls-1" d="M32.34,67.22a24.63,24.63,0,0,1,0-34.44V27a29,29,0,0,0,0,46.06V67.22"/><path class="cls-1" d="M67.66,27v5.81a24.63,24.63,0,0,1,0,34.44V73a29,29,0,0,0,0-46.06"/><path class="cls-1" d="M43.8,43.8a2.07,2.07,0,1,1-2.07-2.06A2.07,2.07,0,0,1,43.8,43.8"/><path class="cls-1" d="M47.93,50a2.07,2.07,0,1,1-2.06-2.07A2.07,2.07,0,0,1,47.93,50"/><path class="cls-1" d="M52.07,56.2A2.07,2.07,0,1,1,50,54.13a2.07,2.07,0,0,1,2.07,2.07"/><path class="cls-1" d="M56.2,50a2.07,2.07,0,1,0-2.07,2.07A2.07,2.07,0,0,0,56.2,50"/><path class="cls-1" d="M60.33,43.8a2.07,2.07,0,1,0-2.06,2.07,2.06,2.06,0,0,0,2.06-2.07"/></svg>