<svg id="图层_1" data-name="图层 1" xmlns="http://www.w3.org/2000/svg" viewBox="0 0 100 100"><defs><style>.cls-1{fill-rule:evenodd;}</style></defs><title>logohunt03</title><path d="M24.17,42.18l3,5.54-4.36,3.41L29,52.9,30,46.12,34.29,45Zm51.66,0L65.71,45,70,46.12,71,52.9l6.22-1.77-4.36-3.41Z"/><path class="cls-1" d="M70.18,54.84a70,70,0,0,1-40.36,0c.43-3.11.78-5.51,1.16-8.09,12.16,3.74,26.58,3.86,38,0,.41,2.77.66,4.53,1.16,8.07"/><path class="cls-1" d="M60.79,53.87l-.12-.12A4.91,4.91,0,0,0,62,53.38c-.33-1.83.65-3.28,2.25-3.42s2.38.66,3.56,0c-.17.78-1,3.25-2,4S63.49,55,62,53.5a7.68,7.68,0,0,1-1.24.37m-21.58,0,.12-.12A4.91,4.91,0,0,1,38,53.38c.34-1.83-.65-3.28-2.25-3.42s-2.38.66-3.56,0c.17.78,1,3.25,2,4s2.27,1,3.73-.46a7.68,7.68,0,0,0,1.24.37"/></svg>