<svg id="图层_1" data-name="图层 1" xmlns="http://www.w3.org/2000/svg" viewBox="0 0 100 100"><defs><style>.cls-1{fill:#231815;}</style></defs><title>logohunt01</title><path class="cls-1" d="M63.83,39.15A5.52,5.52,0,0,0,62,34.89a6.16,6.16,0,0,0-7.82,0,5.49,5.49,0,0,0-1.86,4.26v21.4a2.48,2.48,0,0,1-.69,1.9,2.25,2.25,0,0,1-1.55.58,2.27,2.27,0,0,1-2.34-2.48h0V52.4a1.74,1.74,0,0,0-3.48,0v8.15a2.41,2.41,0,0,1-.7,1.9A2.21,2.21,0,0,1,42,63a2.27,2.27,0,0,1-2.34-2.48V39.15a1.74,1.74,0,0,0-3.48,0v21.4A5.88,5.88,0,0,0,38,65a5.82,5.82,0,0,0,4,1.53A5.71,5.71,0,0,0,45.92,65a.6.6,0,0,0,.08-.08l.07.07a5.82,5.82,0,0,0,4,1.53A5.72,5.72,0,0,0,54,65a6,6,0,0,0,1.79-4.44V39.15a2,2,0,0,1,.66-1.62A2.45,2.45,0,0,1,58.06,37a2.49,2.49,0,0,1,1.63.56,2,2,0,0,1,.66,1.62,1.74,1.74,0,1,0,3.48,0"/></svg>