<svg id="图层_1" data-name="图层 1" xmlns="http://www.w3.org/2000/svg" viewBox="0 0 100 100"><defs><style>.cls-1{fill:#231815;}</style></defs><title>logohunt02</title><path class="cls-1" d="M60,38.56H58.58L50,54.29,41.42,38.56H40s-4.29,0-4.29,4.29v14.3s0,4.29,4.29,4.29h1.43V51.59l5.72,9.85h5.72l5.72-9.85v9.85H60c4.29,0,4.29-4.29,4.29-4.29V42.85c0-4.29-4.29-4.29-4.29-4.29"/><path class="cls-1" d="M41.4,32.37v4.41H39.94s-5.88,0-5.88,5.88V57.34s0,5.88,5.88,5.88H41.4v4.41H39.94s-10.29,0-10.29-10.29V42.66s0-10.29,10.29-10.29H41.4"/><path class="cls-1" d="M58.6,32.37v4.41h1.47s5.87,0,5.87,5.88V57.34s0,5.88-5.87,5.88H58.6v4.41h1.47s10.28,0,10.28-10.29V42.66s0-10.29-10.28-10.29H58.6"/></svg>