<svg id="图层_1" data-name="图层 1" xmlns="http://www.w3.org/2000/svg" viewBox="0 0 100 100"><defs><style>.cls-1{fill:#231815;}</style></defs><title>logohunt01</title><path class="cls-1" d="M30.93,66.45h-.51c-4.76,0-8.33-3.27-8.33-12.42V40.53c0-4.63,2-6.38,4.94-6.38V33.6H12.43v.54c2.54,0,3.45,2.21,3.45,5v13.3c0,10,4.8,14.54,13.5,14.54h1.55v-.57"/><path class="cls-1" d="M60.26,57.15c-.06-5-1.19-6.1-6.21-6.15v-.5c5,0,6.15-1.12,6.21-6.15h.47c.06,5,1.19,6.1,6.2,6.15V51c-5,0-6.14,1.13-6.2,6.15h-.47"/><path class="cls-1" d="M33.35,66.46c4.54,0,6.53-3.08,6.53-7.44h0V40.08c0-4.45-2.23-5.93-4.93-5.93V33.6H60.73v7h-.46c-.77-4.11-2.37-5.72-7.61-5.72H51.46c-4.92,0-5.88,1.57-5.88,6v4.1c0,5.34,2.18,5.56,6.28,5.56V51c-4.1,0-6.28.45-6.28,5.84v1.75c0,6.6.83,7,6.38,7,3.28,0,7.28-.84,8.31-5.37h.47V67H33.35v-.56"/><path class="cls-1" d="M69.91,66.45c4.53,0,5.68-2.92,3.62-7.51L66.59,41.57l2-8.59H69S78.53,55.65,80.9,60.24c2.5,4.84,4.6,6.22,6.67,6.22V67H69.91v-.57"/></svg>