<svg id="图层_1" data-name="图层 1" xmlns="http://www.w3.org/2000/svg" viewBox="0 0 100 100"><defs><style>.cls-1{fill:#231815;}</style></defs><title>logohunt02</title><path class="cls-1" d="M25,64.69c0-.11.1-.18.25-.18h18.1c14.43,0,27.21-2.64,31.28-8.75.05-.08.18-.23.28-.1a2.69,2.69,0,0,1,0,1.2c-1.4,6.8-13.65,8-27,8H25.27c-.15,0-.26-.08-.27-.19m7.48-1.13c-.33,0-.34-.36,0-.36H42.88c23.17-.44,31.59-22.31,17-27.53-.44-.15-.3-.73.23-.49,13.63,6,13.39,28.38-17.33,28.38ZM42.34,52.1c.89.75.32,1.31-.45.68a5.08,5.08,0,0,1-1.41-3.27c-.31-3.89,3.73-7.46,8.38-7.46,13.21,0,14.09,20.05-7.5,20.05h-.59c-.35,0-.39-.35,0-.35h.6c16.82,0,18.08-18.85,7.46-19.31C42.73,42.16,38.4,48.78,42.34,52.1Z"/></svg>