<svg id="图层_1" data-name="图层 1" xmlns="http://www.w3.org/2000/svg" viewBox="0 0 100 100"><defs><style>.cls-1{fill:#231815;}</style></defs><title>logohunt01</title><path class="cls-1" d="M51.64,41.44a10.15,10.15,0,0,1,.61-1.5l.15-.26.06.3a11.87,11.87,0,0,1,.14,1.65s.07,1,.07,1l.06.62,0-.07a3.23,3.23,0,0,1,.08.72L52.73,45l0,.74v.08a3.76,3.76,0,0,1-.21,1.07l0,.17,0,.13a2.34,2.34,0,0,1-.48,1.06l0,0-.08,0c-.21-.1-.35-.54-.49-1.5l0-.34s-.07-.7-.07-.7l-.07-.68v-.71a7.1,7.1,0,0,1,.45-2.7v0l.09-.28M44,37.71l.08-.08.08.08c.14.13.35.53.65,2.38v0l.12.58.07.42.07.42.12,1c.06.32.08,1.49.1,2.12v.11h0s0,0,0,.06v.25c0,.23-.13,1-.23,2l-.13,1.64a13.85,13.85,0,0,1-.34,1.53l-.25,1.07c-.07.28-.5,1.73-.58,1.92l-.18.48c-.22.73-.41,1.06-.93,1s-.88-1.26-1.08-2.59v0s0-.11-.07-.41c0-.1,0-.33,0-.61a21.2,21.2,0,0,1,.14-2.5s.06-.87.06-.87l.08-.9a14.88,14.88,0,0,0,.33-1.64h0c0-.06.17-.86.17-.86l.22-1.12c0-.12,0-.26,0-.26s.16-.48.32-1l.3-1s0-.23.17-1A4.83,4.83,0,0,1,44,37.71Zm-2-2.65,0,0h.05a.61.61,0,0,1,.3.21.52.52,0,0,1,.11.33l0,.16h0v0l-.22.51-.18.46s-.37,1.56-.37,1.56a9.36,9.36,0,0,0-.27,1.46v0l0,.05,0,.1-.12.48a15.25,15.25,0,0,1-.38,2l-.17,1.13c0,.14-.08.39-.17.88l-.17.86-.16.86a27.09,27.09,0,0,0-.54,4.17v.13s0,.87,0,.87l.13,1.19.15,1.29a5.67,5.67,0,0,0,1.9,3.2,2.36,2.36,0,0,0,1.86,0A3.93,3.93,0,0,0,45,54.49h0s0-.07,0-.12l.27-.87.23-.68,0,1.55.07.58,0,.16s0,.38,0,.38v1.44a12.87,12.87,0,0,0-.17,1.6s0,.63,0,.63l0,.69s0,.33,0,.33l-.06.52A5.39,5.39,0,0,0,45,61.89h0v0a23.15,23.15,0,0,0-.58,3.1v0h0c-.07.17-.18.51-.42,1.26l-.17.73-.26,1a5.13,5.13,0,0,1-1,1.46,1.73,1.73,0,0,1-1.33.3A5.83,5.83,0,0,1,37.77,68a10.37,10.37,0,0,1-1.59-1.86l-.25-.64a15.81,15.81,0,0,1-.84-2.43L35,62.52l-.27-1.14s0-.35,0-.35V59.91s0-.56,0-.56l0-1.18v-.61l.13-.5.06-.44v-.15l.1-.85.09-.86.13-1.07s.21-.95.21-.95l.17-.72s.15-1.58.16-1.67l0,0c.07-.17.16-.6.4-1.64,0,0,0-.27.21-1.94h0c.09-.2.29-.84.83-2.57.19-.44,1-2.81,1.19-3.49,0,0,.51-1.12.51-1.12s.33-.68.34-.69C39.81,37.29,40.54,35.8,42,35.06Zm-5.28-8.15A5.34,5.34,0,0,0,34,28.07l-1,.82-.26.32-.75,1-.33.52-.93,1.5s-.61,1.25-.61,1.25l-.23.56c0,.09-.68,2-.71,2.07l-.08.6-.08.56-.09.93a4.7,4.7,0,0,0,0,1.3s0,.57,0,.57v.32l.09.66a2.9,2.9,0,0,0,.92,2.16l.18.15.7.47A2,2,0,0,0,33,42.63l.65-1.37a8.73,8.73,0,0,0,.48-3l0-.65,0-.62c0-1.46-.07-2.57-.47-2.93l-.13-.1a.41.41,0,0,0-.17,0h0c-.73.09-.79.81-.84,1.44l-.07.61-.2,1.62v.08A10.34,10.34,0,0,1,32,39.48l-.23,1.07c-.08.33-.3.72-.5.76h-.05L31,41.2v0a1.83,1.83,0,0,1-.25-1l0-.3,0-.65V39S31,37.8,31,37.8l.25-1.61L31.63,35a14.29,14.29,0,0,1,1.76-3.53,6.83,6.83,0,0,1,2.59-2,3.85,3.85,0,0,1,5.08,2l.33.7v.07c0,.08-.08.15-.38.31l-.13.07a4,4,0,0,0-1.41,1.25l-.22.33a22.84,22.84,0,0,0-1.52,2.59l-.14.43c-.26.77-.26.77-.26.78l-.81,1.74-.22.86-.19.73S35.51,43,35.51,43a16.45,16.45,0,0,0-.69,2,14.93,14.93,0,0,0-.49,1.72,12.79,12.79,0,0,0-.24,2v.08l-.15.53-.16.7-.09.89-.08.84-.14,1-.15,1L33,55.88s-.08,1.58-.08,1.58v0l0,.3a4.63,4.63,0,0,1-.07.74s0,.7,0,.7v0l0,.66v.73l0,1.2,0,.28a3.44,3.44,0,0,0,.4,1.49v0l.41,2s.38.86.38.86a10.51,10.51,0,0,0,6.6,5.9h0l.83-.09h.33a2.71,2.71,0,0,0,2.84-1.72l.12-.21A21.6,21.6,0,0,0,46,67.2s.19-.55.19-.55l.11-.46.09-.15s0-.25,0-.25.5-2.45.5-2.45.08-.8.08-.8l.1-.53.1-.58.08-.57,0-.48,0-.52.07-.78,0-1.12V55.78a7.56,7.56,0,0,0-.07-1.27l-.22-2.34V52a10.34,10.34,0,0,0-.08-1.72A4.22,4.22,0,0,1,47,48.86V48.5l0-.73s0-.57,0-.57l0-.45v-.17s0-1.31,0-1.31a6.83,6.83,0,0,1,0-2s-.1-1.06-.1-1.06l0-.41-.26-1.42h0c0-.1-.07-.33-.15-.85l-.13-.82h0a4.62,4.62,0,0,1-.07-.52l-.11-.71-.1-.3a7.68,7.68,0,0,1-.49-2s0-.25,0-.25a2.9,2.9,0,0,1,1.22-1.53l.24-.2a1.37,1.37,0,0,1,.69-.4,3.13,3.13,0,0,1,1.52.54,6,6,0,0,1,1.09,1.16l.06.08a3.34,3.34,0,0,1,1,2.16,3.21,3.21,0,0,1-.06.6L51,38l-.18.3-.77,1.88-.35,1.52s0,0-.42,1.83l-.13,2s.12,1.07.12,1.07l.22,1.53c.35,1.15.82,2.43,2,2.91a1.36,1.36,0,0,0,1.86-.78,1.3,1.3,0,0,0,.1-.15l.52-1,.21-1a10.9,10.9,0,0,0,.5-2.15l0-.79a4.51,4.51,0,0,0,.05-.72,9,9,0,0,0-.13-1.38l-.09-.9-.09-.9,0,0a6.36,6.36,0,0,1-.09-.83l-.1-.9-.11-.48a5.63,5.63,0,0,1-.24-2.41A2.07,2.07,0,0,1,54.3,36l.24-.32.65-1.15a4.14,4.14,0,0,1,.86-.8l0,0a6.86,6.86,0,0,1,2.15-1.24,3.1,3.1,0,0,1,1.65.48,4.56,4.56,0,0,1,1.53,1.59,6.77,6.77,0,0,1,.45,1.66l.14.56a7,7,0,0,1,.17,1.44l0,.33c0,.34-.17,1.9-.17,3a5.62,5.62,0,0,0,0,.84,7,7,0,0,1,.11,1.13l0,.5a5.53,5.53,0,0,0-.08,1l0,.48s0,.78,0,.78v1.31s0,.13,0,.13a6.71,6.71,0,0,1-.17,1.12l-.08.43-.08,1.71-.08,1.67s-.06.29-.06.29a4.45,4.45,0,0,0-.12.93l0,.38s0,.06,0,.06c0,.25-.09,1.2-.14,1.71l-.11,1.29c0,.14-.05.42-.12.94,0,.34-.2,1.45-.29,1.92l-.07.41v.38a3.25,3.25,0,0,0,0,.37l-.05.68a13.42,13.42,0,0,0-.1,1.65v.2s.11,1,.11,1l.19,1.51s.31,1.34.31,1.34L62,69.87a6.36,6.36,0,0,0,1.37,1.78,6.76,6.76,0,0,0,1.25.9h0a3.41,3.41,0,0,1,.35.2,3,3,0,0,0,3.61-.56A8.42,8.42,0,0,0,70,69.42l.22-1.12a.17.17,0,0,0,0,0s.09-.3.09-.3l.08-.32s.1-.65.1-.65a.2.2,0,0,1,0-.06s.16-.62.16-.62l.16-.73a12.48,12.48,0,0,0,.29-2.65c0-.92-.13-1.77-.56-2l0,0h0a.67.67,0,0,0-.72.62l-.1.36,0,.5s-.12.61-.12.61-.2.87-.2.87l-.11.52c0,.24-.46,2.07-.59,2.48l-.2.6s-.29.9-.29.9a5.53,5.53,0,0,1-.47,1.14,1.52,1.52,0,0,1-1.8.83,3.6,3.6,0,0,1-1.42-1,18.94,18.94,0,0,1-.92-1.73s-.4-1.8-.4-1.8l0,0c0-.11-.12-.42-.31-1.19v-.13l0-1.11v0l0-.41s0-.43,0-.43v-.36s0-.43,0-.43c0-.26.06-.74.09-1l0-.16v-.08L63,60s.19-1.25.19-1.25l.16-1.49s0-.08.16-1.5v-.32h0a11.47,11.47,0,0,1,.06-1.28s.05-.69.05-.69l0-.68a13.31,13.31,0,0,0,.13-2.18l0-1.32L64,47.65l.18-1.36v-.17l-.06-.54s0-.59,0-.59l0-.73s0-.33,0-.33a15,15,0,0,1,.14-2l0-.93,0-.85,0-.9L64.21,38a11.34,11.34,0,0,0-.13-1.76,10.2,10.2,0,0,0-.48-2A8.32,8.32,0,0,0,62,31.52h0l-.24-.17c-.88-.68-2.22-1.71-3.95-1.19l-1.26.51a3.87,3.87,0,0,0-1,.66l-.54.42a6.77,6.77,0,0,0-1.25,1.44l0,0a2.73,2.73,0,0,1-.71.8l0,0H53a3.16,3.16,0,0,1-.89-1c-.85-1.27-2-2.57-3.73-2.64-1.17-.05-2.4,1-3.06,1.56l-.26.22-.13.11c-.24.22-.44.38-.69.33s-.59-.68-1-1.68L42.85,30a5.39,5.39,0,0,0-4-3A8.54,8.54,0,0,0,36.72,26.91Z"/></svg>