<svg id="图层_1" data-name="图层 1" xmlns="http://www.w3.org/2000/svg" viewBox="0 0 100 100"><title>logohunt03</title><path d="M50,26.44A24.65,24.65,0,0,0,39.84,73.56v-7a18.47,18.47,0,0,1,.15-31,5.7,5.7,0,0,1,7.92-2.83A17.92,17.92,0,0,1,50,32.62a18.48,18.48,0,0,1,11.55,32.9v7.36A24.66,24.66,0,0,0,50,26.44"/><path d="M50,34.69a5.62,5.62,0,0,1,.91,3.08,5.69,5.69,0,0,1-11.35.65A16.4,16.4,0,0,0,39.84,64V51.14a5.5,5.5,0,0,1,11,0v5.33a5.5,5.5,0,0,1,10.71,1.76v4.52A16.41,16.41,0,0,0,50,34.69M56,50.56a5.7,5.7,0,1,1,5.7-5.7,5.7,5.7,0,0,1-5.7,5.7"/></svg>