<svg id="图层_1" data-name="图层 1" xmlns="http://www.w3.org/2000/svg" viewBox="0 0 100 100"><defs><style>.cls-1{fill:#231815;}</style></defs><title>logohunt01</title><path class="cls-1" d="M41.36,68.06a6.26,6.26,0,0,1,.77-2.73c.57-.88,1.14-1.43,2-2.92a11,11,0,0,0,1.18-3.85c.62-3.44-2.08-13.94-2.08-13.94-.15-.79-.4-1.91-.54-2.8a28.79,28.79,0,0,1-.11-6.65c.11-1.18,1.27-1.43,2.19-1.7a2.3,2.3,0,0,0,1.4-1,3.36,3.36,0,0,0,.21-1.2,3.21,3.21,0,0,1-1.27-.51c-.38-.35-.26-1-.24-1.25s.17-1.27.25-1.73a9,9,0,0,1,.59-1.86,2.65,2.65,0,0,1,1.09-1.07s.4-1.57.45-1.73a.19.19,0,0,1,0-.09H27.06V77H41.34l0-8.91"/><path class="cls-1" d="M62.07,48.91c5.28-1.21,8.38-5.28,8.38-11.17,0-8.9-6.27-14.71-17.58-14.71H47.74a.26.26,0,0,1,0,.09c.05.16.45,1.73.45,1.73a2.65,2.65,0,0,1,1.09,1.07,9.68,9.68,0,0,1,.59,1.86c.08.46.21,1.45.24,1.73s.15.9-.23,1.25a3.21,3.21,0,0,1-1.27.51,3.36,3.36,0,0,0,.21,1.2,2.34,2.34,0,0,0,1.4,1c.92.26,2.08.51,2.19,1.69a28.79,28.79,0,0,1-.11,6.65c-.14.89-.39,2-.54,2.8,0,0-2.7,10.5-2.08,13.94a11,11,0,0,0,1.18,3.85c.86,1.49,1.43,2,2,2.92a6.26,6.26,0,0,1,.77,2.73l0,8.89h.59c12.36-.39,18.65-5.64,18.65-15.22,0-7.09-3.55-11.32-10.87-12.82"/></svg>