<svg id="图层_1" data-name="图层 1" xmlns="http://www.w3.org/2000/svg" viewBox="0 0 100 100"><title>logohunt03</title><path d="M62.58,29.55c4.42,1,5.07-.68.65-3.18A27.14,27.14,0,0,0,26.37,36.52c-2.52,4.41-.86,5.1,2.94,1.72a38,38,0,0,1,33.27-8.69"/><path d="M68,46.56c5,.59,8.93.09,8.5-2s-4.71-5.76-9.63-7A41.32,41.32,0,0,0,56.7,36.25a40,40,0,0,0-27.76,11c-3.66,3.52-5.67,8-5.43,9s3.59-1,8.09-3.33a61.23,61.23,0,0,1,21.61-6.35,65.63,65.63,0,0,1,14.77,0"/><path d="M34.91,60c-4.8,1.66-7.74,4.87-6.78,6.17s4.44,1.47,7.69.82c1.91-.38,3.89-.69,5.91-.92a63.48,63.48,0,0,1,18.52.59c5,.93,10.73.72,12.47-2S71.44,58,66.42,57.2a64.32,64.32,0,0,0-17.3-.37A65.08,65.08,0,0,0,34.91,60"/><path d="M34.34,70.51c-1,.15,1.31,3.12,6.07,4.9A27.32,27.32,0,0,0,57,76.19c3.82-1,2.76-4.37-2.23-5.32a63.48,63.48,0,0,0-18.57-.58c-.62.06-1.24.14-1.85.22"/></svg>