<svg id="图层_1" data-name="图层 1" xmlns="http://www.w3.org/2000/svg" viewBox="0 0 100 100"><defs><style>.cls-1{fill-rule:evenodd;}</style></defs><title>logohunt03</title><path class="cls-1" d="M40.36,44.68c-3.7-15.13,4.27-14.11,14-18.53,2.84-1.3,3-4.82,3.16,2.58C57.85,45.52,44.66,46.17,41.4,46a20.22,20.22,0,0,1,.52-2.83c3.08.75,5.86.32,9.18-1.87-2.4.9-4.63,2.11-9,1A12.26,12.26,0,0,1,44.49,38a8.38,8.38,0,0,0,7.12-1.57c-1.79.71-3.46,1.64-6.62,1a23.56,23.56,0,0,1,3.45-2.89c.62-.45,1.78-1.13,3-2.14a4.92,4.92,0,0,0,3.86-1.63A5.85,5.85,0,0,1,51.87,32a10.8,10.8,0,0,0,3.39-5.19c-2,4.13-5,5.28-7.36,7-.81.59-1.6,1.16-2.35,1.77a8.25,8.25,0,0,1,1.78-4.79A6.93,6.93,0,0,0,45,36a12.84,12.84,0,0,0-3.38,4.35c-1-2.73-.42-4.45-.07-6.25a8.39,8.39,0,0,0-.3,7.13,17.16,17.16,0,0,0-.9,3.44m-.7,18,15-6.33C50,52.61,45.9,50.76,42,51.06a26.81,26.81,0,0,1-.79-5.66l-.69-.71c0,.32-.07.64-.11,1h-.18c0,.19-.1.38-.16.57l.27.46c0,1.88-.63,2.57-.62,4.81-3.07.9-6.09,3.17-9.29,6.92,3.25,1.38,6.15,2.64,9.27,4.27m.52-17.26c-2.64-10.65-7.27-7.41-14.76-7-2.2.12-3.44-2-1.13,2.65C29.53,51.64,38,47.74,40,46.58A14.87,14.87,0,0,0,38.71,45a7.58,7.58,0,0,1-6.34,1.83c1.79-.22,3.58-.19,5.93-2.27a8.79,8.79,0,0,0-2.88-2,5.92,5.92,0,0,1-5,1.35,7,7,0,0,0,4.46-1.54,16.69,16.69,0,0,0-3.1-.68,24.08,24.08,0,0,1-2.57-.36,3.41,3.41,0,0,1-2.93.24,4,4,0,0,0,2.53-.33,7.65,7.65,0,0,1-3.8-2.13c2.59,1.92,4.85,1.66,6.86,1.95.71.1,1.39.2,2.05.33A5.93,5.93,0,0,0,31.29,39a4.87,4.87,0,0,1,3.15,2.52A8.94,8.94,0,0,1,38,43.13a7.08,7.08,0,0,0-2-3.92,5.89,5.89,0,0,1,2.51,4.34,13.09,13.09,0,0,1,1.69,1.86"/><path class="cls-1" d="M73.71,75.83,77,63c-5.27-2.27-10.84-3-16-5.45-2.24-1-4-.3-5.88.37-4.56,1.81-9.39,3.78-13.95,5.59-2.73,7.5,6.1,4.31,9.24,2.72.74,2.75-7.1,5.27-10,3.57-1.78-1-2.44-3.66-1.85-6-3.23-1.58-6.16-3-9.43-4.56a2.88,2.88,0,0,0-2.72,5.08c19.23,11,11.06,10.3,34.27,5.46,4.07-.85,6.71,3.34,13.14,6"/></svg>