<svg id="图层_1" data-name="图层 1" xmlns="http://www.w3.org/2000/svg" viewBox="0 0 100 100"><title>logohunt03</title><path d="M48.22,51.28l6.34-.92c-6.05-5.66-20.49-16.2-31.47-14.63,10.4-.24,19.63,8.72,25.13,15.55"/><path d="M56.6,48.91l2.74-5.55C53.06,37.62,39,27.6,28.3,29.13c12.78-.3,23.81,13.33,28.3,19.78"/><polygon points="61.84 42.36 66.49 51.79 76.91 53.31 69.37 60.65 71.15 71.03 61.84 66.13 52.52 71.03 54.3 60.65 46.76 53.31 57.18 51.79 61.84 42.36"/><path d="M53.25,50.55l2.74-.4,1.58-3.21C51.64,41.32,37,30.55,25.93,32.14c11.93-.28,22.34,11.59,27.32,18.41"/></svg>