<svg id="图层_1" data-name="图层 1" xmlns="http://www.w3.org/2000/svg" viewBox="0 0 100 100"><title>logohunt03</title><path d="M27.54,60.72a15.14,15.14,0,0,1,21.42,0L60.79,72.55l-.18.18a15,15,0,0,1-21.21,0L27.46,60.79Z"/><path d="M60.71,72.46a15.14,15.14,0,0,1,0-21.42L72.54,39.21l.18.18a15,15,0,0,1,0,21.22L60.79,72.54Z"/><path d="M72.46,39.28a15.14,15.14,0,0,1-21.42,0L39.21,27.45l.18-.18a15,15,0,0,1,21.21,0L72.54,39.2Z"/><path d="M39.29,27.54a15.14,15.14,0,0,1,0,21.42L27.46,60.79l-.18-.18a15,15,0,0,1,0-21.22L39.21,27.46Z"/></svg>