<svg id="图层_1" data-name="图层 1" xmlns="http://www.w3.org/2000/svg" viewBox="0 0 100 100"><title>logohunt01</title><path d="M70.28,74.82c-1.87,0-3.75,0-5.63,0-.74,0-1-.2-1.08-1-.49-6.69-1-13.37-1.58-20q-.9-11.28-1.78-22.57c-.09-1.19-.22-2.38-.37-3.57-.09-.72.13-1,.89-1q5.68,0,11.39,0c.65,0,.9.24.95.9Q74,39.1,74.91,50.68,75.73,61,76.59,71.33c.06.84.11,1.68.22,2.51s-.12,1-.89,1C74,74.8,72.16,74.83,70.28,74.82Z"/><path d="M30.44,74.83c-1.84,0-3.68,0-5.52,0-.83,0-1.14-.23-1.06-1.1q.9-10.14,1.73-20.3c.58-7.25,1.12-14.5,1.68-21.75.11-1.43.27-2.86.36-4.29,0-.57.28-.77.82-.77,3.88,0,7.76,0,11.64,0,.95,0,.73.64.7,1.15-.29,3.79-.61,7.57-.91,11.35L37.42,70.56c-.08,1.08-.21,2.15-.25,3.23,0,.82-.41,1.08-1.21,1.06C34.12,74.8,32.28,74.83,30.44,74.83Z"/><path d="M43.77,46.64c0-4.6,0-9.2,0-13.8,0-1,.2-1.33,1.23-1.32,3.6.06,7.2.05,10.8,0,1,0,1.21.35,1.21,1.26q0,13.8,0,27.6c0,1-.24,1.33-1.27,1.31-3.55-.06-7.12-.07-10.67,0-1.11,0-1.31-.36-1.3-1.37C43.8,55.76,43.77,51.2,43.77,46.64Z"/></svg>