<svg id="图层_1" data-name="图层 1" xmlns="http://www.w3.org/2000/svg" viewBox="0 0 100 100"><title>logohunt03</title><path d="M58,33.61A20.73,20.73,0,0,1,66.44,42a2.6,2.6,0,0,1,.72.79,2.44,2.44,0,0,1,.34,1.55,19.69,19.69,0,0,1,1.07,3.93h3.76A24.18,24.18,0,0,0,55,28.44a1.64,1.64,0,0,1,.14.22Z"/><path d="M31.74,63.46H30.51a2.69,2.69,0,0,1-2.33-4L29,58a20.39,20.39,0,0,1-.54-10.69l-1.41-2.43a2.91,2.91,0,0,1,2.52-4.36H31.3a20.29,20.29,0,0,1,1.47-2l-1.94-3.37A24.07,24.07,0,0,0,30.67,68l1.95-3.38c-.31-.38-.6-.76-.88-1.16"/><path d="M59,69.38l-.31,0a20.21,20.21,0,0,1-7,2.49l-.48.83a2.68,2.68,0,0,1-4.65,0s-.17-.28-.41-.7c-.61-.07-1.21-.17-1.8-.29L42.34,75a24.43,24.43,0,0,0,6.09.78,24,24,0,0,0,16.41-6.44H59"/><path d="M48.65,31.24l1.49-2.58a2.76,2.76,0,0,1,.94-1,23.28,23.28,0,0,0-2.65-.15,25.57,25.57,0,0,0-3.17.21c.71,1.22,1.44,2.49,2,3.52a11.74,11.74,0,0,1,1.36,0"/><path d="M47.16,55.67a2.61,2.61,0,0,0-2.27-1.31H34.7a2.53,2.53,0,0,0-2.19,1.26l-2.73,4.73a.84.84,0,0,0,.73,1.26h5.25a.42.42,0,0,1,.37.63L31,71.2a1.45,1.45,0,0,0,.53,2l6.07,3.5a1.45,1.45,0,0,0,2-.53l5.17-9a.42.42,0,0,1,.73,0l2.63,4.55a.84.84,0,0,0,1.45,0L52.26,67a2.54,2.54,0,0,0,0-2.53l-5.1-8.83"/><path d="M47.72,51.53a3.33,3.33,0,0,0,2.87-1.66c1.7-2.95,4.86-8.43,6.43-11.14a3.19,3.19,0,0,0,0-3.18l-3.45-6a1.06,1.06,0,0,0-1.83,0l-3.32,5.75a.53.53,0,0,1-.91,0L41,24a1.82,1.82,0,0,0-2.5-.67l-7.67,4.42a1.83,1.83,0,0,0-.67,2.51l6.52,11.3a.52.52,0,0,1-.46.79H29.57A1.06,1.06,0,0,0,28.66,44l3.44,6a3.2,3.2,0,0,0,2.76,1.59Z"/><path d="M51.21,54a2.8,2.8,0,0,0,0,2.8c1.44,2.48,4.11,7.11,5.43,9.4A2.69,2.69,0,0,0,59,67.53h5.81a.9.9,0,0,0,.78-1.34l-2.8-4.85a.45.45,0,0,1,.39-.67h11a1.54,1.54,0,0,0,1.55-1.55V51.65a1.55,1.55,0,0,0-1.55-1.55h-11a.45.45,0,0,1-.39-.67l2.8-4.85a.9.9,0,0,0-.78-1.34H59a2.7,2.7,0,0,0-2.33,1.35L51.21,54"/></svg>