<svg id="图层_1" data-name="图层 1" xmlns="http://www.w3.org/2000/svg" viewBox="0 0 100 100"><title>logohunt03</title><path d="M46.56,55.39a16.32,16.32,0,0,1,5.18,12.29c-2.86-9.57-11.45-11.2-15.58-11.21-2.26-.17-9.48.66-11.14-2.93-2.55-7,11.4-7.88,21.54,1.85"/><path d="M67.46,52.67a10.62,10.62,0,0,1,8.25,2.72c-5.92-2.69-10.4.83-12.18,2.85-1,1-3.73,4.94-6.2,4.22-4.55-1.76,1-9,10.13-9.79"/><path d="M55.46,48.6a16.2,16.2,0,0,0-2.93,12.9c1.13-9.85,9.25-12.92,13.28-13.65,2.17-.56,9.37-1,10.36-4.8,1.28-7.31-12.5-5.72-20.71,5.55"/><path d="M58,33.89a8.55,8.55,0,0,1,6.86-1.35,8.22,8.22,0,0,0-7.42,6.8c-.32,1.14-.67,4.93-2.69,5.4-3.88.56-2.82-6.69,3.25-10.85"/><path d="M36.9,34.77a16.22,16.22,0,0,0-13.16,1.41C33.42,34.06,39,40.73,41,44.31c1.23,1.87,4,8.54,7.89,8.25,7.33-1.17,1.36-13.68-12-17.79"/></svg>