<svg id="图层_1" data-name="图层 1" xmlns="http://www.w3.org/2000/svg" viewBox="0 0 100 100"><defs><style>.cls-1{fill:#231815;}.cls-2{fill:#c8c9ca;}.cls-3{fill:#a9aaaa;}</style></defs><title>logohunt02</title><path class="cls-1" d="M40.46,54.52a12.29,12.29,0,0,1-2.2-3.37,32.18,32.18,0,0,1-2-6.37l-.38,0V57.59c.09-.08,1.06-1.35,2.92-3.79a9.45,9.45,0,0,0,2.74,2.42c0-.23.05-.46.08-.69a7.44,7.44,0,0,1-1.16-1"/><path class="cls-2" d="M65.12,60.19c0,4.51-1,7.77-2.86,9.81a8.9,8.9,0,0,1-6.85,2.59,6.24,6.24,0,0,1-5.86-3.76q-1.92-3.77-1.92-11.09v-.15h0v-.44h0c0-4.68.64-8.22,1.78-10.59.07-.15.15-.3.22-.44h0c-.64-.28-1.41-.58-2.29-.88l.4-.32-.4.32a14.89,14.89,0,0,0-1.26,1.15,15.46,15.46,0,0,0-4.46,9.14c0,.23,0,.46-.08.69-.06.66-.1,1.35-.1,2.05q0,7.44,4.58,11.42A13.8,13.8,0,0,0,55.41,73q4.89,0,7.49-3t2.59-9.78"/><polyline class="cls-3" points="49.86 45.74 49.86 45.74 49.86 45.74"/><polyline class="cls-3" points="52.57 43.35 52.57 43.35 52.57 43.35"/><polyline class="cls-3" points="53.34 43.09 53.33 43.09 53.34 43.09"/><path class="cls-3" d="M54.59,42.41h0"/><path class="cls-3" d="M54.18,42.92h0"/><path class="cls-3" d="M54.62,42.87h0"/><path class="cls-3" d="M51.31,43a2.86,2.86,0,0,0-.41.15,2.86,2.86,0,0,1,.41-.15"/><path class="cls-3" d="M50.83,43.13l-.41.17.41-.17"/><path class="cls-3" d="M52.22,43.52h0"/><path class="cls-3" d="M52.2,42.7l-.41.11.41-.11"/><path class="cls-3" d="M52.68,42.59l-.41.09.41-.09"/><path class="cls-3" d="M51.76,42.82l-.41.12.41-.12"/><path class="cls-3" d="M53.16,42.51l-.42.07.42-.07"/><path class="cls-3" d="M51.88,43.71h0"/><path class="cls-3" d="M53.73,43h0"/><path class="cls-3" d="M50.37,45l0,0,0,0"/><path class="cls-3" d="M50.11,45.37v0"/><polyline class="cls-3" points="50.63 44.73 50.63 44.73 50.63 44.73"/><path class="cls-3" d="M48.23,44.56c.27-.19.54-.37.82-.54-.28.17-.55.35-.82.54"/><path class="cls-2" d="M55.05,42.85h.23c2,0,4,1,5.82,3a13.42,13.42,0,0,1,3.33,9.52l.37.25V42.16h-.25l-2.28,4.37a10.62,10.62,0,0,0-3.84-3.33,8.83,8.83,0,0,0-3.73-.79c.12.14.24.29.35.44"/><path class="cls-3" d="M51.54,43.93h0"/><path class="cls-3" d="M50,43.51l.41-.19-.41.19"/><path class="cls-3" d="M47.78,44.89l.4-.3-.4.3"/><path class="cls-3" d="M54.09,42.42l-.41,0,.41,0"/><path class="cls-3" d="M49.55,43.73l.41-.21-.41.21"/><path class="cls-3" d="M49.09,44l.4-.24-.4.24"/><path class="cls-3" d="M53.6,42.46l-.42,0,.42,0"/><path class="cls-1" d="M47.34,45.24c.88.3,1.65.59,2.29.88h0a12.46,12.46,0,0,1,1.28.66,5.41,5.41,0,0,1,2.84,4.8,5.09,5.09,0,0,1-2.1,4.15,6.36,6.36,0,0,1-4,1.42h0v.44a9.17,9.17,0,0,0,5.94-2.12,8.71,8.71,0,0,0,3-7.07,9.23,9.23,0,0,0-1.51-5.55h0c-.11-.15-.23-.3-.35-.44h0a6.1,6.1,0,0,0-1-.93q-1.77-1.24-7.49-2.63a20.29,20.29,0,0,1-6.42-2.35,4.7,4.7,0,0,1-2.38-4.06,4.32,4.32,0,0,1,2.19-3.92,7.8,7.8,0,0,1,4.21-1.11A8.64,8.64,0,0,1,50,30.16a12,12,0,0,1,3.4,6.8l.38.12V27q-.31.25-3,2.64A25.88,25.88,0,0,0,48,27.86,11.73,11.73,0,0,0,43.11,27a8.39,8.39,0,0,0-6,2.48,8.09,8.09,0,0,0-2.55,6,7.11,7.11,0,0,0,2.79,6.07,22.64,22.64,0,0,0,6.78,2.7c1.22.33,2.31.65,3.26,1l.4-.32-.4.32m2.52.5Zm.24-.35v0Zm.25-.34v0Zm.28-.32Zm.89-.79h0Zm.33-.22h0ZM53.73,43h0Zm-1.53.53h0Zm.37-.18Zm.76-.26h0Zm1.26-.22h0Zm-.44.05h0Zm.44-.51h0Zm-4.17.89.41-.17Zm.48-.19a2.86,2.86,0,0,1,.41-.15A2.86,2.86,0,0,0,50.9,43.11Zm.45-.17.41-.12Zm.44-.13.41-.11Zm.48-.13.41-.09Zm.47-.1.42-.07Zm.44-.07.42,0Zm.5-.06.41,0Zm-5.5,2.14-.4.3Zm2.21-1.27-.41.19Zm-.43.2-.41.21Zm-.47.24-.4.24Zm-.44.26c-.28.17-.55.35-.82.54C48.5,44.37,48.77,44.19,49.05,44Z"/></svg>