<svg id="图层_1" data-name="图层 1" xmlns="http://www.w3.org/2000/svg" viewBox="0 0 100 100"><title>logohunt02</title><path d="M38,31H51.7c.09.16.24.17.39.18a9.75,9.75,0,0,1,5.77,2.49,8.34,8.34,0,0,1,3,6.88,8.94,8.94,0,0,1-5.82,8.23c-.24.1-.62.11-.67.56a11.07,11.07,0,0,1,4.47,2.06,10.15,10.15,0,0,1-.92,16.73,8.09,8.09,0,0,1-4.38,1.23c-4.73-.08-9.45,0-14.18,0-1.51,0-1.34.17-1.34-1.39V32.39C38,31.93,38,31.46,38,31ZM53.47,58.53h0V55.16c0-.31,0-.67-.44-.66a24.71,24.71,0,0,0-5.09.16,4,4,0,0,0-3.13,4.17,4.19,4.19,0,0,0,3.81,3.59c1.4,0,2.79,0,4.18,0,.49,0,.68-.19.67-.69C53.45,60.69,53.47,59.61,53.47,58.53Zm-8-17.76h0c0,1,0,1.92,0,2.89,0,.59.24.83.83.82,1.24,0,2.47,0,3.7,0a3.61,3.61,0,0,0,.48-7.19,27.55,27.55,0,0,0-4.26-.16c-.54,0-.77.2-.76.74C45.44,38.84,45.42,39.8,45.42,40.77Z"/></svg>