<svg id="图层_1" data-name="图层 1" xmlns="http://www.w3.org/2000/svg" viewBox="0 0 100 100"><defs><style>.cls-1{fill:#fff;}</style></defs><title>logohunt01</title><path class="cls-1" d="M76.39,76.13H24.33V24.67H76.39ZM62.83,27H55c-3.35,0-4.86,1.51-4.87,4.87q0,11.09,0,22.16c0,.55,0,1.09,0,1.63a6.87,6.87,0,0,1-6.94,6.16c-3.17-.14-4.94-2.43-4.94-6.42V27c-3,0-5.73,0-8.49,0a4,4,0,0,0-4.25,4.27c0,8.32-.05,16.65,0,25a14.34,14.34,0,0,0,25,9.41c1.1-1.2,2.21-2.38,3.35-3.55a11.21,11.21,0,0,1,7.79-3.39c.37,0,.75-.08,1.17-.12ZM68.9,70A5.91,5.91,0,0,0,74.8,64a5.92,5.92,0,1,0-11.83,0A5.84,5.84,0,0,0,68.9,70Z"/><path d="M62.83,27V58.61c-.42,0-.8.1-1.17.12a11.21,11.21,0,0,0-7.79,3.39c-1.14,1.17-2.25,2.35-3.35,3.55a14.34,14.34,0,0,1-25-9.41c-.07-8.32,0-16.65,0-25A4,4,0,0,1,29.73,27c2.76,0,5.51,0,8.49,0v28.4c0,4,1.77,6.28,4.94,6.42a6.87,6.87,0,0,0,6.94-6.16c0-.54,0-1.08,0-1.63q0-11.08,0-22.16C50.14,28.52,51.65,27,55,27Z"/><path d="M68.9,70A5.84,5.84,0,0,1,63,64.08,5.92,5.92,0,1,1,68.9,70Z"/></svg>