<svg id="图层_1" data-name="图层 1" xmlns="http://www.w3.org/2000/svg" viewBox="0 0 100 100"><defs><style>.cls-1{fill:#231815;}</style></defs><title>logohunt01</title><path class="cls-1" d="M57.85,69.78A7.09,7.09,0,0,1,59,73.93L58.9,74H53.56v-.07a2.75,2.75,0,0,0-5.49,0V74H42.73v-.07a7.2,7.2,0,0,1,1.4-4.51,19.08,19.08,0,0,1,2.6-2.52,3.43,3.43,0,0,0,1.41-2.32V31.67a8.33,8.33,0,0,1-3,.56A8.16,8.16,0,0,1,37,24.07L42.38,24a2.8,2.8,0,0,0,.84,2,2.73,2.73,0,0,0,4,0,2.88,2.88,0,0,0,.8-2h5.56V64.58a3,3,0,0,0,1.27,2.25,20,20,0,0,1,3,3"/></svg>