<svg id="图层_1" data-name="图层 1" xmlns="http://www.w3.org/2000/svg" viewBox="0 0 100 100"><defs><style>.cls-1{fill:#231815;}</style></defs><title>logohunt01</title><polyline class="cls-1" points="35.59 61.73 27.92 61.73 34.13 66.48 31.76 74.17 37.96 69.42 44.17 74.17 41.8 66.48 48 61.73 40.33 61.73 37.96 54.03 35.59 61.73"/><polyline class="cls-1" points="55.67 61.73 48 61.73 54.2 66.48 51.83 74.17 58.04 69.42 64.24 74.17 61.87 66.48 68.08 61.73 60.41 61.73 58.04 54.03 55.67 61.73"/><polyline class="cls-1" points="48 28.58 41.8 23.83 44.17 31.52 37.96 36.28 31.76 31.52 34.13 23.83 27.92 28.58 21.72 23.83 24.09 31.52 17.88 36.28 25.55 36.28 27.92 43.97 30.29 36.28 45.63 36.28 48 43.97 50.37 36.28 58.04 36.28 51.83 31.52 54.2 23.83 48 28.58"/><polyline class="cls-1" points="74.28 23.83 68.08 28.58 61.87 23.83 64.24 31.52 58.04 36.28 65.71 36.28 68.08 43.97 70.45 36.28 78.12 36.28 71.91 31.52 74.28 23.83"/></svg>