<svg id="图层_1" data-name="图层 1" xmlns="http://www.w3.org/2000/svg" viewBox="0 0 100 100"><defs><style>.cls-1{fill:#231815;}</style></defs><title>logohunt02</title><path class="cls-1" d="M74.46,54.13a.64.64,0,0,1-.39-.28c-.3-.39-1-.43-1.69-.23-2.74.74-6-2.86-6.85-4.56-.18-.34-.2-.63.35-.86,1.63-.67,3.4-.78,4.68-2,.23-.22.23-.55-.21-.55s-.43-.4.11-.89a9.72,9.72,0,0,0,2.35-3.11c.26-.57.46-.73.77-.81a1.49,1.49,0,0,0,.87-.56c.54-.67.9-.76,1.19-.72s.38-.22.31-.44a1.85,1.85,0,0,0-.63-.7.23.23,0,0,1,.22-.41c.24.09.33,0,.23-.34a1.48,1.48,0,0,0-1.23-.88c-.22,0-.15-.29,0-.3s.22-.32-.13-.48a2.17,2.17,0,0,0-2.65.73,1.34,1.34,0,0,0-1,1.32,3.27,3.27,0,0,1-.69,2c-.7,1.07-3.07,3-4.69,3-1.08,0-1-.78-.45-1,.28-.11.21-.36-.06-.51A4,4,0,0,0,63,41.12c-.81,0-1.19-.37-1.19-.77,0-.74,1-1.14,1.88-1.14a3.17,3.17,0,0,1,1.59.41c.29.17.63,0,.4-.38a1.37,1.37,0,0,1-.23-1.15c.15-.52-.15-.68-.55-.68s-1,.28-1.7.28a.77.77,0,0,1-.68-.78c0-1,1.07-1.36,1.68-1.4a1.09,1.09,0,0,1,1.2.67c.09.22.29.24.47.08.7-.62.93-1.26.75-1.69.66-.64.28-1,0-1.09a10.82,10.82,0,0,0-2.69-.7.7.7,0,0,1-.55-.22c-.44-.47-1.17-.59-2.42-.69a2.35,2.35,0,0,1-.86-.25c-1.35-.67-2.14-.39-4-.08a3.29,3.29,0,0,1-1-.06,5.64,5.64,0,0,0-1.49-.21c-.35,0-.48.17-.39.47a2.1,2.1,0,0,0,.7.88c-1.79,0-2.29,1.88-4.3,2-.31,0-.36.26-.2.46a1.7,1.7,0,0,0,1.22.44c-.73.62-.78,2-2.1,2.4-.36.1-.43.34-.12.55a2,2,0,0,0,1.25.26c-1,.85-.25,2.79-1.81,4-.23.18-.24.45.06.52a2.29,2.29,0,0,0,1.35-.15,3.39,3.39,0,0,1-.62,2.17c-.2.3-.12.49.31.46a2.21,2.21,0,0,0,1.43-.64c-.13,3-1.38,4.35-4.22,5.11a10.53,10.53,0,0,0-6.29,4.09,5.38,5.38,0,0,1-4.61,2.53c-5.6,0-6.58-6.19-6.58-9.63,0-5.63,2.13-9.93,6.36-9.93,2.18,0,3.8.84,3.93,2A2.66,2.66,0,0,0,40,41.16a1.87,1.87,0,0,1,.85,1.55c0,.48.21.59.58.33A4.55,4.55,0,0,0,42.81,40a2.49,2.49,0,0,0-2.2-2.68,4.51,4.51,0,0,1-1.44-.47A11.46,11.46,0,0,0,34.89,36C28.19,36,24,40.06,24,47.29,24,54,27.43,58.05,34.58,58.05A11,11,0,0,0,40,56.7c.45-.24.87-.14.82.76a4.65,4.65,0,0,1-2.25,2.86c-2,1.2-3.12,2.15-3.74,3.52-.12.26-.06.58.34.49s.72.11.72.61c0,.71-.76,1.64-1.17,2.25-.56.82-.22,1.56.81,1.56h7a1.23,1.23,0,0,0,.63-.19,1.07,1.07,0,0,1,.76,0c.37.09.49-.19.35-.43a2.73,2.73,0,0,0-.78-.77c-.17-.11-.2-.32,0-.34s.23-.2,0-.43c-.64-.64-1.61-.61-3.05-.31-1,.2-1.74-.32-.7-1.76.78-1.08,1.39-1.49,3.23-1.54,3.49-.08,4.75-1.18,5.68-3a1.18,1.18,0,0,1,1.37-.7c2,.28,2.53,1.44,2.53,2.12,0,1.37-1.55,1.65-2.08,3.38-.12.41,0,.6.46.52.86-.15.94.83,0,1.86a.94.94,0,0,0,.71,1.68h6.81a2.44,2.44,0,0,0,1.05-.2,1.14,1.14,0,0,1,.89,0c.27.14.46-.1.37-.35a1.71,1.71,0,0,0-.7-.8c-.22-.13-.18-.29,0-.39s.15-.27-.06-.43c-1.32-1-2.22-.3-3.63-.3-.69,0-.88-.43-.73-.94a5.22,5.22,0,0,1,2.6-3,3.58,3.58,0,0,0,2.16-3c0-1.54-1.18-2.58-3.31-3.2-.72-.21-.8-.67.14-1a10.45,10.45,0,0,0,3.9-2.13c.56-.49.76-.47,1.16.15.51.82,1.54,2.42,2.43,2.8.33.13.48,0,.46-.26s.33-.42.87-.19a12,12,0,0,0,4,1.13,1.07,1.07,0,0,1,.81.34,1.71,1.71,0,0,0,1,.68c.47.13.77.38.77.72s.31.38.58.13a2.63,2.63,0,0,0,.55-.86c.09-.24.46-.32.49.07s.31.34.59-.07a2,2,0,0,0,.3-1.29c0-.3.25-.26.34-.15s.29.1.37-.26a1.85,1.85,0,0,0-1.45-1.91M62.3,33.34a1.62,1.62,0,0,1-.65.7.26.26,0,0,1-.31,0,3.07,3.07,0,0,0-1.14-.49c-.1,0-.11-.13,0-.18a2.93,2.93,0,0,1,2-.22A.15.15,0,0,1,62.3,33.34Z"/></svg>