<svg id="图层_1" data-name="图层 1" xmlns="http://www.w3.org/2000/svg" viewBox="0 0 100 100"><defs><style>.cls-1{fill:#231815;}</style></defs><title>logohunt02</title><path class="cls-1" d="M82,50v.4c-3.32.67-10.61,2.24-14.19,2.24a22.39,22.39,0,0,1-8.21-1.9H41.53a2.06,2.06,0,0,0,.08,2c.84,1.1,2.56.82,4.24.55a9.94,9.94,0,0,1,2.22-.21c1.34.08,5.4.34,5.4,4.18a3,3,0,0,1-2.15,3,3.4,3.4,0,0,1-1,.13,2.87,2.87,0,0,1-2.44-1.16,2.41,2.41,0,0,1,.18-2.74,2,2,0,0,1,2-.91l-.35,1.29c-.11,0-.4.13-.65.51a1.07,1.07,0,0,0,0,1.15A1.83,1.83,0,0,0,51,59a1.62,1.62,0,0,0,1.18-1.75c0-1.81-1.24-2.67-4.16-2.85a9,9,0,0,0-1.91.2c-1.87.3-4.19.68-5.53-1.06a3.12,3.12,0,0,1-.4-2.79H36.06v1H34.73v-1H22a3.77,3.77,0,0,1,1.53,2.29l-.66.09-.66.1c0-.08-.4-2.09-4.15-2.48l0-.35-.09-1c3.39-.64,4.38-2.76,4.42-2.85l1.22.53a5.81,5.81,0,0,1-2.08,2.3H34.73V48.8h1.33v.62h4.13a3.16,3.16,0,0,1,.36-3c1.33-1.73,3.65-1.36,5.52-1.05a10.55,10.55,0,0,0,1.91.19c2.92-.18,4.16-1,4.16-2.85A1.62,1.62,0,0,0,51,41a1.8,1.8,0,0,0-1.89.45,1,1,0,0,0,.06,1.15,1,1,0,0,0,.64.51l.36,1.28a2,2,0,0,1-2-.89,2.4,2.4,0,0,1-.19-2.76,3.1,3.1,0,0,1,3.39-1,3,3,0,0,1,2.15,3c0,3.84-4.06,4.1-5.4,4.18a9.94,9.94,0,0,1-2.22-.21c-1.67-.27-3.4-.55-4.24.55a2.18,2.18,0,0,0,0,2.16H60.9a18.72,18.72,0,0,1,6.91-1.58C71.23,47.83,78.67,49.31,82,50Z"/></svg>