<svg id="图层_1" data-name="图层 1" xmlns="http://www.w3.org/2000/svg" viewBox="0 0 100 100"><title>logohunt03</title><path d="M68.82,42.07a5,5,0,0,1,3.62,1.71V30.46a2.89,2.89,0,0,0-2.9-2.89H53.13l.58-.58a2.28,2.28,0,0,0-3.22-3.22L45,29.22a2.57,2.57,0,0,0,0,3.92l5.45,5.45a2.28,2.28,0,1,0,3.22-3.22l-.58-.58h9.44a2.64,2.64,0,0,1,2.64,2.64v6.35a5,5,0,0,1,3.61-1.71"/><path d="M57.93,68.82a5,5,0,0,1-1.71,3.61H69.54a2.89,2.89,0,0,0,2.89-2.89V53.13c.36.35.58.58.58.58a2.28,2.28,0,0,0,3.22-3.22L70.78,45a2.55,2.55,0,0,0-3.92,0l-5.45,5.45a2.28,2.28,0,0,0,3.22,3.22l.58-.58v9.44a2.64,2.64,0,0,1-2.64,2.64H56.22a5,5,0,0,1,1.71,3.61"/><path d="M31.18,57.93a5,5,0,0,1-3.61-1.71V69.54a2.89,2.89,0,0,0,2.89,2.89H46.87l-.58.58a2.28,2.28,0,0,0,3.22,3.22L55,70.78a2.57,2.57,0,0,0,0-3.92l-5.45-5.45a2.28,2.28,0,0,0-3.22,3.22s.22.23.58.58H37.43a2.64,2.64,0,0,1-2.64-2.64V56.22a5,5,0,0,1-3.61,1.71"/><path d="M42.07,31.18a5,5,0,0,1,1.71-3.61H30.46a2.89,2.89,0,0,0-2.89,2.89V46.87c-.36-.35-.58-.58-.58-.58a2.28,2.28,0,0,0-3.22,3.22L29.22,55a2.57,2.57,0,0,0,3.92,0l5.45-5.45a2.28,2.28,0,1,0-3.22-3.22l-.58.58V37.43a2.64,2.64,0,0,1,2.64-2.64h6.35a5,5,0,0,1-1.71-3.61"/></svg>