<svg id="图层_1" data-name="图层 1" xmlns="http://www.w3.org/2000/svg" viewBox="0 0 100 100"><defs><style>.cls-1{fill:#231700;}</style></defs><title>logohunt01</title><path class="cls-1" d="M64.93,38.49h-6.2a3,3,0,0,1-3-3v-.44a3,3,0,0,1,3-3h6.2a3,3,0,0,1,3,3v.44h-.75v-.44a2.18,2.18,0,0,0-2.23-2.23h-6.2a2.18,2.18,0,0,0-2.24,2.23v.44a2.2,2.2,0,0,0,2.24,2.24h6.2a2.2,2.2,0,0,0,2.23-2.24h.75a3,3,0,0,1-3,3m-29.49,9c-1.61,0-2.57.72-2.6,2.47s1,2.43,2.6,2.47H47.53V64.56c0,1.61.72,2.57,2.47,2.6s2.43-1,2.47-2.6V52.47H64.56c1.61,0,2.57-.72,2.6-2.47s-1-2.43-2.6-2.47H52.47V35.44c0-1.61-.72-2.57-2.47-2.6s-2.43,1-2.47,2.6V47.53H35.44M50,67.91a3.08,3.08,0,0,1-3.21-3.35V53.21H35.44a3.21,3.21,0,1,1,0-6.42H46.79V35.44a3.21,3.21,0,1,1,6.42,0V46.79H64.56a3.21,3.21,0,1,1,0,6.42H53.21V64.56A3.08,3.08,0,0,1,50,67.91"/></svg>