<svg id="图层_1" data-name="图层 1" xmlns="http://www.w3.org/2000/svg" viewBox="0 0 100 100"><defs><style>.cls-1{fill:#fff;}</style></defs><title>logohunt03</title><path d="M69.11,69.41H30.89a1.24,1.24,0,0,1-1.24-1.24V45.94a1.23,1.23,0,0,1,1.24-1.23l19.27-9.23,19,9.23a1.23,1.23,0,0,1,1.24,1.23V68.17a1.24,1.24,0,0,1-1.24,1.24"/><path d="M23.89,49.7a3.55,3.55,0,0,1,1-4.92L47.3,30.2a5.31,5.31,0,0,1,5.67,0l22.1,14.41a3.56,3.56,0,1,1-3.88,6L50.13,36.84,28.81,50.74h0a3.55,3.55,0,0,1-4.92-1"/><path class="cls-1" d="M38.94,55.65c.2,6.27,6.31,12,11.05,15v-18c-4.12-3.23-11.27-3.57-11.05,3"/><path class="cls-1" d="M61.06,55.65c-.2,6.27-6.31,12-11.05,15v-18c4.12-3.23,11.27-3.57,11.05,3"/></svg>