<svg id="图层_1" data-name="图层 1" xmlns="http://www.w3.org/2000/svg" viewBox="0 0 100 100"><title>logohunt02</title><path d="M60,57.3c0,.19-.12.23-.23.3-1.51,1.15-3,2.28-4.54,3.44-.35.28-.51.21-.79-.11a8.7,8.7,0,0,0-5.76-3.15,8.61,8.61,0,0,0-8.47,3.91,6,6,0,0,0-.93,1.86c-.15.51-.39.53-.8.4l-4-1.25c-.46-.14-.92-.29-1.39-.42-.3-.09-.37-.21-.26-.55a15.78,15.78,0,0,1,3-5.27A15.21,15.21,0,0,1,42.23,52a14.7,14.7,0,0,1,6.39-.93,15,15,0,0,1,6.84,2,15.69,15.69,0,0,1,4.41,4A1.16,1.16,0,0,1,60,57.3Z"/><path d="M47.58,59.94a6.65,6.65,0,1,1,0,13.3,6.65,6.65,0,1,1,0-13.3Z"/><path d="M47.56,26.76a6.64,6.64,0,1,1-6.67,6.49A6.64,6.64,0,0,1,47.56,26.76Z"/><path d="M48.25,42.16a23.4,23.4,0,0,1,7.32,1.29,24.57,24.57,0,0,1,8.06,4.73A35,35,0,0,1,67,51.71c.31.38.26.6-.13.87-1.51,1.07-3,2.15-4.51,3.27-.33.25-.45.18-.67-.1a18.12,18.12,0,0,0-4.56-4.17A16,16,0,0,0,49.28,49c-.21,0-.41-.09-.62-.11-1.12-.08-1.12-.08-1.12-1.21,0-1.56,0-3.12,0-4.68C47.55,42.1,47.39,42.17,48.25,42.16Z"/></svg>