<svg id="图层_1" data-name="图层 1" xmlns="http://www.w3.org/2000/svg" viewBox="0 0 100 100"><defs><style>.cls-1{fill:#231815;}</style></defs><title>logohunt01</title><path class="cls-1" d="M50,22.3V77.7c9.23,0,18.47-9.23,18.47-18.47s0-36.93,0-36.93Z"/><path class="cls-1" d="M41.78,75.7c.34.17.68.35,1,.5v-17h-1Z"/><path class="cls-1" d="M37.67,72.83c.33.31.67.59,1,.88V59.24h-1Z"/><path class="cls-1" d="M39.72,74.48c.34.23.68.46,1,.67V59.24h-1Z"/><path class="cls-1" d="M43.83,76.6l1,.34V59.24h-1Z"/><path class="cls-1" d="M48,77.58c.33,0,.68,0,1,.06V59.24H48Z"/><path class="cls-1" d="M45.89,77.22c.33.08.68.13,1,.19V59.24h-1Z"/><path class="cls-1" d="M35.61,70.63c.33.41.67.81,1,1.19V59.24h-1Z"/><path class="cls-1" d="M33.56,67.41a18.81,18.81,0,0,0,1,1.79v-10h-1Z"/><path class="cls-1" d="M32.53,65V59.24h-1A17.9,17.9,0,0,0,32.53,65Z"/></svg>