<svg id="图层_1" data-name="图层 1" xmlns="http://www.w3.org/2000/svg" viewBox="0 0 100 100"><title>logohunt03</title><polygon points="52.01 23.68 47.55 27.82 44.66 25.17 41.87 29.57 38.05 28.27 36.83 32.64 32.31 32.7 32.58 36.8 27.63 38.38 29.45 41.93 24.3 45.23 27.76 47.8 22.82 53.12 27.97 54.09 24.01 61.73 30.74 60.05 28.98 69.85 36.34 64.69 38.4 75.67 44.66 66.4 51.64 76.32 54.16 64.08 65.22 69.88 62.32 57.5 74.6 58.06 66.9 48.79 77.18 45.09 67.32 40.3 74 34.44 64.37 33.67 67.55 27.59 59.41 29.47 59.81 24.26 53.55 27.68 52.01 23.68"/></svg>