<svg id="图层_1" data-name="图层 1" xmlns="http://www.w3.org/2000/svg" viewBox="0 0 100 100"><title>logohunt03</title><polygon points="50.97 22.88 43.05 28.85 49.03 42.2 50.97 42.2 50.97 22.88"/><polygon points="46.94 42.76 45.26 43.73 33.41 35.16 37.28 26.02 46.94 42.76"/><polygon points="43.73 45.26 42.77 46.94 28.21 45.44 27 35.6 43.73 45.26"/><polygon points="22.88 49.03 28.85 56.95 42.2 50.97 42.2 49.03 22.88 49.03"/><polygon points="42.76 53.06 43.73 54.74 35.16 66.59 26.02 62.72 42.76 53.06"/><polygon points="45.26 56.27 46.94 57.24 45.44 71.79 35.6 73 45.26 56.27"/><polygon points="49.03 57.8 49.03 77.12 56.95 71.15 50.97 57.8 49.03 57.8"/><polygon points="53.06 57.24 54.73 56.27 66.59 64.84 62.72 73.98 53.06 57.24"/><polygon points="56.27 54.74 57.23 53.06 71.78 54.56 73 64.4 56.27 54.74"/><polygon points="57.8 49.03 57.8 50.97 77.12 50.97 71.15 43.05 57.8 49.03"/><polygon points="57.24 46.94 56.27 45.27 64.84 33.41 73.98 37.28 57.24 46.94"/><polygon points="54.74 43.73 53.06 42.77 54.56 28.21 64.4 27 54.74 43.73"/></svg>