<svg id="图层_1" data-name="图层 1" xmlns="http://www.w3.org/2000/svg" viewBox="0 0 100 100"><title>logohunt02</title><path d="M31.89,74.11h-.12c-.68-.84-.63-1.23.27-1.81a42.06,42.06,0,0,0,4.25-3.15,13.4,13.4,0,0,0,3.06-3.31,1.54,1.54,0,0,0-1-2.55,11.82,11.82,0,0,1-2.57-.94,9.64,9.64,0,0,1-5.1-7.57,11.33,11.33,0,0,1,1.73-7.21,38.06,38.06,0,0,1,5.16-6.44,24.47,24.47,0,0,0,2.91-3.58,27.66,27.66,0,0,0,3.49-11.08c0-.39.16-.59.61-.58,1.5,0,3,0,4.5,0,.43,0,.54.15.5.54-.12,1.34-.11,2.69-.19,4-.16,2.5-.23,5-.26,7.52,0,3.25-.16,6.51,0,9.76a8,8,0,0,0,.7,2.68c.05.13.06.27.25.26s.19-.15.24-.28A9.81,9.81,0,0,0,51,46.49c0-3.74,0-7.48-.12-11.22-.1-2.91-.25-5.83-.39-8.74,0-.54.13-.65.64-.64,1.31,0,2.61,0,3.92,0,1,0,1,0,1.09,1a24.08,24.08,0,0,0,.53,3.15,33.73,33.73,0,0,0,1.55,4.78,17.24,17.24,0,0,0,3,4.89c1.73,1.88,3.41,3.79,5,5.78a17.85,17.85,0,0,1,3.22,6.59v3c.06.61-.34,1.06-.53,1.58a9.49,9.49,0,0,1-6.74,6.38,9.68,9.68,0,0,1-8.68-1.62,8.94,8.94,0,0,1-3.27-4.88c0-.11,0-.24-.18-.26s-.22.12-.26.26c-.1.33-.19.67-.32,1a27.16,27.16,0,0,1-5.69,8.18A42.94,42.94,0,0,1,35,72.53,9.34,9.34,0,0,1,31.89,74.11ZM47.51,53.65a17.47,17.47,0,0,0-1-6.26A5.46,5.46,0,0,0,41.38,44a5.79,5.79,0,0,0-3.25,1.25,13,13,0,0,0-4,5.73,7.41,7.41,0,0,0-.26,4.56,6.7,6.7,0,0,0,6.76,5A7,7,0,0,0,46.2,58,6.29,6.29,0,0,0,47.51,53.65Zm4.93-.2a7.52,7.52,0,0,0,.11,1.5,6.1,6.1,0,0,0,1.35,3.21,7.59,7.59,0,0,0,8.61,1.7,6.74,6.74,0,0,0,3.75-7.52,12,12,0,0,0-3.2-6c-1.45-1.56-3.09-2.62-5.39-2.25a5,5,0,0,0-3.89,2.67A16.07,16.07,0,0,0,52.44,53.45Z"/></svg>