<svg id="图层_1" data-name="图层 1" xmlns="http://www.w3.org/2000/svg" viewBox="0 0 100 100"><defs><style>.cls-1{fill-rule:evenodd;}</style></defs><title>logohunt03</title><path class="cls-1" d="M51.72,77.1l3.14-3.63,11.92-.6c-.83.25-2.67,1.2-3.68,4.24H51.72"/><path d="M69.37,36.15c-.63-2.71-4.52-4.13-7.15-3.61-2.89.56-5.16,2.94-6.6,5.12-3.52,5.3-3.2,12.66-2,18.58,1.59,8.1,5.19,16.31,9.52,20.87H51.72A41.41,41.41,0,0,1,50.12,70c-1.71-10.95-3.9-28.17,5.38-36.33,3.27-2.88,9-4.28,12.31-.74a5.75,5.75,0,0,1,1,1.47c.21.69.4,1.18.57,1.73"/><path d="M41.78,30.64A29.43,29.43,0,0,0,47,37.91a15.89,15.89,0,0,0,9.46,4.5c6.71,1,12.92-4.67,9.78-9.93A3.22,3.22,0,0,0,64.47,31a6.53,6.53,0,0,1,3.07,1.62,6.89,6.89,0,0,1,2,4.56c.16,3.81-2.42,6.23-5.59,7.49-6.37,2.54-14.2.34-19.54-3.55A29.19,29.19,0,0,1,35.46,30.7l6.32-.06"/><path class="cls-1" d="M64.91,26.32c0,1.92-1.18,3.49-2.69,3.52s-2.75-1.52-2.78-3.44,1.18-3.49,2.69-3.51,2.75,1.51,2.78,3.43"/><path class="cls-1" d="M41.78,30.64c-3.21.45-4.43,2.24-4.8,3.49l-6.51-1.3a11.53,11.53,0,0,1,5-2.13Z"/><path class="cls-1" d="M35.05,24.12a1.63,1.63,0,0,0-1.15-.54c-2.38-.1-2.47,3-.58,4.7a4.78,4.78,0,0,0,1.73,1,4.9,4.9,0,0,0,1.74-1c1.88-1.67,1.8-4.8-.59-4.7a1.65,1.65,0,0,0-1.15.54"/></svg>