<svg id="图层_1" data-name="图层 1" xmlns="http://www.w3.org/2000/svg" viewBox="0 0 100 100"><defs><style>.cls-1{fill:#231815;}.cls-2{fill:#c8c9ca;}</style></defs><title>logohunt01</title><path class="cls-1" d="M45.77,42.56V38.37c-.15-6.56,5.56-14.11,14-14.11A8,8,0,0,1,68.25,32a5.72,5.72,0,0,1-5.64,5.72A5.35,5.35,0,0,1,57.05,32a5.72,5.72,0,0,1,5.49-5.49,4,4,0,0,1,2.13.53,6.32,6.32,0,0,0-4.34-2c-2,0-5,1.38-5,6.25v43.4h7.46v1H39v-1h6.79V42.56m0,1.14V38.37c-.15-6.56,5.56-14.11,14-14.11A8,8,0,0,1,68.25,32a5.72,5.72,0,0,1-5.64,5.72A5.35,5.35,0,0,1,57.05,32a5.72,5.72,0,0,1,5.49-5.49,4,4,0,0,1,2.13.53,6.32,6.32,0,0,0-4.34-2c-2,0-5,1.38-5,6.25V43.7"/><path class="cls-2" d="M68.62,49.59c-.9.24-1.4-.47-1.57-1.24a.8.8,0,0,0-.74-.65c-2.74-.22-14.3-1.2-33.39-5.26l-1.31-.27a1.62,1.62,0,0,0-.22,1.06l1.38.26,1.19.23s-.05.73-.11,1.29a.64.64,0,0,0,.63.73l2.07.32s29.06,4.44,29.32,4.42l2.74-.14c0-.57,0-.75,0-.75m-32.2-4.77a.59.59,0,0,1-.67.49.59.59,0,0,1-.5-.67.59.59,0,0,1,.67-.49A.6.6,0,0,1,36.42,44.82ZM65.76,50s-27.51-4.25-27.69-4.28c-.58-.09-.52-1.3.22-1.22a235.3,235.3,0,0,0,26.19,3.89s.78.07,1,.44A2.25,2.25,0,0,1,65.76,50Z"/></svg>