<svg id="图层_1" data-name="图层 1" xmlns="http://www.w3.org/2000/svg" viewBox="0 0 100 100"><defs><style>.cls-1{fill:#231815;}</style></defs><title>logohunt01</title><path class="cls-1" d="M51.25,62.9c4.65,4.61,8.17,6.38,12.06,6,5.2-.56,9.15-5.14,8.45-11.66a21.33,21.33,0,0,0-6.51-12.94,184.71,184.71,0,0,1-14,18.64m-23.55.92a5.53,5.53,0,0,0,6.35,5.24c2.41-.26,5-2,9.24-6.41-3.82-3.74-7-5.62-10.72-5.22-3.08.33-5.32,2.28-4.87,6.39M75,28.08C72.88,32,70.57,35.9,68.4,39.18a28.92,28.92,0,0,1,9.06,18.66C78.6,68.39,73,74.64,64.84,75.52c-6.89.74-11.81-3-17.06-8.39-5.65,6.1-8.85,8-12.66,8.41C29,76.2,23.41,72.14,22.5,63.78c-.82-7.62,2.91-12.17,8.7-12.8,5.21-.56,9.9,1.75,15.41,7.45A185.8,185.8,0,0,0,60.26,40a24.35,24.35,0,0,0-14.12-3.07C46,38.63,46,41.15,46.06,43l-3.67.4a79.75,79.75,0,0,1-2-12.62c8.53-1.29,16.4.23,22.83,4.13,2.47-3.9,4.52-7.53,6.13-10.52Z"/></svg>