<svg id="图层_1" data-name="图层 1" xmlns="http://www.w3.org/2000/svg" viewBox="0 0 100 100"><defs><style>.cls-1{fill:#231815;}</style></defs><title>logohunt02</title><path class="cls-1" d="M47.15,29v3.65l8.23-1.92m16.15,29v-4h-7.7v-3.4h.5l-.58-5.76V44.91H60.9v0l-8-4.92L52,39.49h0V34l-.95-.44H48.94L48,34v5.52h0l-.86.52-8,4.92v0H36.25v1.66l-.57,5.76h.5v3.4h-7.7v4H21V71H79V59.74Zm-1.78-2.63h1.19V58.8H69.75Zm-9.14-3.89h2.47v1.7H60.61Zm-4.36,0h3.66v1.7H56.25Zm-.7,1.7H50.33v-1.7h5.22ZM50,44.41a2.52,2.52,0,0,1,2.62,2.13H47.39A2.53,2.53,0,0,1,50,44.41m-5.58,8.81h5.23v1.7H44.44Zm-4.33,0h3.64v1.7H40.11Zm-3.19,0h2.47v1.7H36.92Zm-7.86,3.89h1.2V58.8h-1.2ZM22.47,64h-.81v-2.3h.81Zm2.36,0h-1.4v-2.3h1.4Zm4.31,0h-2.5v-2.3h2.5Zm3.32,0H30v-2.3h2.5Zm2.21-5.21H30.94V57.11h3.73Zm1.13-1.69h4.84V58.8H35.8Zm5.67,12.62H37.15v-8h4.32Zm.38-12.62H47V58.8H41.85Zm5.31,8.8h-3v-4.2h3Zm1-8.8h1.38V58.8H48.18Zm3.29,8.8h-3v-4.2h3Zm.37-7.11H50.45V57.11h1.39Zm4,7.11h-3v-4.2h3Zm2.32-7.11H53V57.11h5.17Zm4.65,10.93H58.51v-8h4.32ZM64.24,58.8H59.41V57.11h4.83Zm1.08-1.69h3.74V58.8H65.32ZM70,64H67.53v-2.3H70Zm3.32,0H70.85v-2.3h2.51Zm3.21,0h-1.4v-2.3h1.4Zm1.77,0h-.81v-2.3h.81Z"/></svg>