<svg id="图层_1" data-name="图层 1" xmlns="http://www.w3.org/2000/svg" viewBox="0 0 100 100"><title>logohunt03</title><path d="M50,22.93a13.45,13.45,0,0,0-6.76,1.82A13.53,13.53,0,0,1,50,50a13.54,13.54,0,1,0,0-27.07"/><path d="M26.55,36.46a13.54,13.54,0,0,0-1.8,6.78A13.53,13.53,0,0,1,50,50,13.54,13.54,0,0,0,26.55,36.46"/><path d="M26.55,63.54a13.45,13.45,0,0,0,5,4.94A13.52,13.52,0,0,1,50,50,13.54,13.54,0,0,0,26.55,63.54"/><path d="M50,77.07a13.52,13.52,0,0,0,6.77-1.82A13.53,13.53,0,0,1,50,50a13.54,13.54,0,1,0,0,27.07"/><path d="M73.45,63.54a13.54,13.54,0,0,0,1.8-6.78A13.53,13.53,0,0,1,50,50,13.54,13.54,0,0,0,73.45,63.54"/><path d="M73.45,36.46a13.45,13.45,0,0,0-5-4.94A13.52,13.52,0,0,1,50,50,13.54,13.54,0,0,0,73.45,36.46"/></svg>