<svg id="图层_1" data-name="图层 1" xmlns="http://www.w3.org/2000/svg" viewBox="0 0 100 100"><title>logohunt02</title><path d="M46.42,60.33c0,2.8-.06,5.6,0,8.39,0,1.32-.71,1.2-1.54,1.22s-1.56,0-1.53-1.27c.08-3.61,0-7.22,0-10.83,0-1.69,0-1.61-1.68-1.72a9.43,9.43,0,0,0-3.1.6c-.87.24-.86,1-.86,1.75,0,3.26,0,6.52,0,9.78,0,.55.33,1.34-.48,1.57a3.6,3.6,0,0,1-2.4,0c-.39-.16-.34-.59-.34-.94,0-3.61,0-7.23.05-10.84,0-2.31,1.38-3.82,4.07-4.35a13.15,13.15,0,0,1,3.9-.52c1,.1.85-.63.85-1.24s0-1.23-.91-1.23a12.66,12.66,0,0,1-5-.6,4.1,4.1,0,0,1-2.91-3.7c-.13-2.8-.1-5.6-.07-8.4,0-1,.43-1.15,1.89-1.14.86,0,1.34.26,1.33,1.22,0,2.49,0,5,0,7.48,0,1.41.36,1.77,1.75,2,3.84.58,3.89.54,3.88-3.31,0-1.94,0-3.87,0-5.8,0-1.49.07-1.56,1.53-1.55s1.48.06,1.48,1.61c0,2.55,0,5.09,0,7.64,0,1.44,0,1.45,1.42,1.46,2.44,0,4.89,0,7.33,0,1.48,0,1.5,0,1.51-1.59,0-2.59,0-5.19,0-7.78,0-1.32.23-1.44,1.72-1.34,1.1.08,1.06.65,1,1.56-.11,2.59-.08,5.19-.06,7.78,0,1,.5,1.46,1.56,1.39s2.23,0,3.35,0c.75,0,1.09.24,1.15,1,.13,1.88,0,2.07-1.94,2.07H61c-1.39,0-1.65.28-1.68,1.72s0,2.65,0,4q0,4.5,0,9c0,1.72.24,1.94,1.93,1.94,1,0,2,0,3.05,0s1.12.42,1.07,1.21.17,1.46-1,1.45c-4.73,0-9.46,0-14.19,0-1.1,0-.86-.74-.88-1.37s-.08-1.33,1-1.29c1.52.06,3,0,4.58,0s1.78-.31,1.79-1.78q0-6.65,0-13.28c0-1.39-.19-1.57-1.6-1.58-2.39,0-4.79,0-7.18,0-1.44,0-1.46,0-1.47,1.43,0,2.75,0,5.5,0,8.25Z"/><path d="M42.43,30.06c.32,0,1-.13,1.11.87.06.47.64.41,1,.41H55.42a1.39,1.39,0,0,0,1.1-.4c1.16-1.27,1.79-1.27,3,0a1.38,1.38,0,0,0,1.12.36c1.06,0,2.13,0,3.2,0,1.44,0,1.53.13,1.52,1.6s0,1.46-1.43,1.49H61.69a3.27,3.27,0,0,0-2.52.72A1.69,1.69,0,0,1,56.74,35a2,2,0,0,0-1.65-.59c-3.35,0-6.71,0-10.07,0a1.84,1.84,0,0,0-1.73.69,1.92,1.92,0,0,1-2.47,0,2.69,2.69,0,0,0-2.22-.68c-1,0-2,0-3.05,0s-1-.66-1-1.36-.12-1.66,1-1.7,2.44,0,3.66,0c.43,0,.87.08,1.21-.41C41.07,30,41.12,30,42.43,30.06Z"/></svg>