<svg id="图层_1" data-name="图层 1" xmlns="http://www.w3.org/2000/svg" viewBox="0 0 100 100"><defs><style>.cls-1{fill:#231815;}</style></defs><title>logohunt02</title><path class="cls-1" d="M68,50.79c0-6.27-2.11-11.54-6.1-15.23a19.59,19.59,0,0,0-13.39-5.05h-.27A19.5,19.5,0,0,0,29,50a20,20,0,0,0,5.3,13.74,17.88,17.88,0,0,0,13.17,5.75c6.16,0,10.49-3.23,11.59-8.63.61-3,.83-10.21-10.22-12.52-5-1.05-7.54-3.49-7.54-7.24a7.15,7.15,0,0,1,7-7.19h.2c7.75,0,16.09,5.28,16.09,16.88V65.56H61.51V69H71v-3.4H68V50.79m-19.84.88c5.93,1.24,8.48,4.1,7.58,8.51C55,64,52,66.09,47.47,66.09,39,66.09,32.4,59,32.4,50a16.1,16.1,0,0,1,6.16-12.63,10.72,10.72,0,0,0-.66,3.73C37.9,46.53,41.54,50.28,48.14,51.67Z"/></svg>