<svg id="图层_1" data-name="图层 1" xmlns="http://www.w3.org/2000/svg" viewBox="0 0 100 100"><title>logohunt01</title><path d="M71.94,37.22v1.92c0,12.09,0,24.17,0,36.26,0,1.3-.26,1.8-1.67,1.76-2.86-.1-2.87,0-2.87-2.92q0-11.47,0-22.94c0-.24,0-.48-.06-1.19L58.09,61.54,49.85,48,41.63,61.54,32.57,50.4c-.45.51-.27,1-.28,1.38,0,7.95,0,15.89,0,23.83,0,1.25-.37,1.58-1.59,1.54-2.94-.08-2.94,0-2.94-3v-37l13.3,16.42c2-3.31,3.9-6.46,5.82-9.6.39-.63-.06-1-.31-1.47A28.25,28.25,0,0,1,43.41,35a10.83,10.83,0,0,1,1.78-9.14,5.7,5.7,0,0,1,9.18-.19,10.66,10.66,0,0,1,2,9.09,23.92,23.92,0,0,1-3.15,7.62,2.09,2.09,0,0,0,.06,2.53c1.63,2.52,3.2,5.1,4.69,7.71.58,1,.9.81,1.5.06q5.46-6.81,11-13.58C70.82,38.55,71.23,38.07,71.94,37.22ZM49.85,39c1.43-3,2.89-5.72,1.83-8.94-.3-.91-.72-1.92-1.77-1.94s-1.59,1-1.9,2a6.69,6.69,0,0,0-.33,2.77A18.82,18.82,0,0,0,49.85,39Z"/></svg>