<svg id="图层_1" data-name="图层 1" xmlns="http://www.w3.org/2000/svg" viewBox="0 0 100 100"><title>logohunt03</title><path d="M54,23.49l-9.44,6.84a12.45,12.45,0,0,1-6.24,2H26.69a2.35,2.35,0,0,0-2.38,3.28L27.9,46.72a12.38,12.38,0,0,1,0,6.56L24.31,64.37a2.34,2.34,0,0,0,2.38,3.26l11.65,0a12.28,12.28,0,0,1,6.23,2L54,76.5a2.33,2.33,0,0,0,3.83-1.25l3.55-11.08a12.3,12.3,0,0,1,3.84-5.3L74.7,52a2.34,2.34,0,0,0,0-4l-9.45-6.85a12.24,12.24,0,0,1-3.84-5.3L57.86,24.75A2.34,2.34,0,0,0,54,23.49M46,34.46l5.87-4.28a2.34,2.34,0,0,1,3.84,1.25l2.23,7a12.34,12.34,0,0,0,3.85,5.3L67.67,48a2.34,2.34,0,0,1,0,4l-5.93,4.3a12.4,12.4,0,0,0-3.85,5.3l-2.23,6.95a2.33,2.33,0,0,1-3.83,1.24l-5.89-4.33a12.21,12.21,0,0,0-6.22-2l-7.31,0A2.35,2.35,0,0,1,30,60.23l2.23-6.95a12.38,12.38,0,0,0,0-6.56L30,39.77a2.36,2.36,0,0,1,2.39-3.28h7.31a12.39,12.39,0,0,0,6.23-2"/><path d="M40.61,39.59H36.55a2.36,2.36,0,0,0-2.39,3.28l1.26,3.85a12.58,12.58,0,0,1,0,6.56l-1.26,3.85a2.34,2.34,0,0,0,2.39,3.26l4.06,0a12.1,12.1,0,0,1,6.22,2L50,64.77a2.35,2.35,0,0,0,3.86-1.22l1.28-3.87a12.48,12.48,0,0,1,3.87-5.29L62.29,52a2.35,2.35,0,0,0,0-4.05l-3.24-2.36a12.45,12.45,0,0,1-3.87-5.3L53.9,36.46A2.37,2.37,0,0,0,50,35.22l-3.19,2.34a12.32,12.32,0,0,1-6.23,2M41.3,43h.42A12.39,12.39,0,0,0,48,41l.29-.21A2.35,2.35,0,0,1,52.09,42l.14.41a12.33,12.33,0,0,0,3.86,5.29l.34.25a2.34,2.34,0,0,1,0,4l-.34.24a12.33,12.33,0,0,0-3.86,5.29l-.14.41a2.33,2.33,0,0,1-3.84,1.23L47.93,59a11.9,11.9,0,0,0-6.21-2H41.3a2.32,2.32,0,0,1-2.37-3.24l.13-.41a12.34,12.34,0,0,0,0-6.55l-.13-.41A2.35,2.35,0,0,1,41.3,43"/><path d="M41.72,43H41.3a2.35,2.35,0,0,0-2.37,3.28l.13.41a12.34,12.34,0,0,1,0,6.55l-.13.41a2.32,2.32,0,0,0,2.37,3.24h.42a11.9,11.9,0,0,1,6.21,2l.32.24A2.33,2.33,0,0,0,52.09,58l.14-.41a12.33,12.33,0,0,1,3.86-5.29l.34-.24a2.34,2.34,0,0,0,0-4l-.34-.25a12.33,12.33,0,0,1-3.86-5.29L52.09,42a2.35,2.35,0,0,0-3.85-1.24L48,41a12.39,12.39,0,0,1-6.23,2"/></svg>