<svg id="图层_1" data-name="图层 1" xmlns="http://www.w3.org/2000/svg" viewBox="0 0 100 100"><defs><style>.cls-1{fill:#231815;}</style></defs><title>logohunt02</title><path class="cls-1" d="M67.7,66l-1.47-6.77-1.46-6.76s-.06-.16-.2-.13a.17.17,0,0,0-.12.2l1.47,6.76,1.47,6.77a2.91,2.91,0,0,1,0,.71A2.16,2.16,0,0,1,67,68.06a1.69,1.69,0,0,1-.71.51,3,3,0,0,1-1,.17h-27c-2.4,0-1.86-2.86-1.86-2.86.28-1.39,1.11-5.81,1.87-9.91l1.32-7.13h22.6a1.31,1.31,0,0,0,1.49-1.27,3.47,3.47,0,0,0-.14-1.28c-1.68-8.3-5.07-12.11-8.07-13.84A10.2,10.2,0,0,0,50.17,31c3.23-.13,5.36,3.15,7,6.63A38.91,38.91,0,0,1,59.85,46c.37,1.85-.06,2.49-1.18,2.49h-19l.06-.37a41.51,41.51,0,0,1,2.07-8.27c1.56-4.19,4.1-8.55,8.36-8.89a11.66,11.66,0,0,0-5.7,1.75c-3.09,1.88-6.6,5.9-8.41,14.38-.4,1.9-1.34,6.63-2.18,10.89s-1.57,8-1.57,8-.68,3.06,2,3.06H65.27a3.29,3.29,0,0,0,1.19-.2,1.91,1.91,0,0,0,.82-.6,2.48,2.48,0,0,0,.49-1.45A3.49,3.49,0,0,0,67.7,66"/></svg>