<svg id="图层_1" data-name="图层 1" xmlns="http://www.w3.org/2000/svg" viewBox="0 0 100 100"><defs><style>.cls-1{fill:#231815;fill-rule:evenodd;}</style></defs><title>logohunt02</title><path class="cls-1" d="M45.6,47.69v7.38c0,1.9-1.21,6.12-4.27,6.12a2.05,2.05,0,0,1-2-1.69,15.28,15.28,0,0,1-.3-3.45c0-2.63.2-4.67,1.9-5.83a9,9,0,0,1,2-1,6.4,6.4,0,0,0,2.72-1.56m-13,21.18V57.62A6.21,6.21,0,0,0,39,62.51c3.88,0,6.12-2,7.14-5.49.09,1.7,1.7,5.29,5.53,5.29,4.08,0,4.67-2.52,4.67-4.42v-6.7h-.68v6.94c0,1.37-.68,2.63-1.75,2.63s-1.65-.88-1.65-2.29V47.55A18.05,18.05,0,0,0,51.87,43c-1.07-3.84-4.62-6-10.2-6-6.12,0-7.92,3.88-7.92,6.12a3.69,3.69,0,0,0,3.74,3.78A3.43,3.43,0,0,0,41,43.47a3.58,3.58,0,0,0-3.45-3.7,3.87,3.87,0,0,0-1.7.29c.14-.68,2.23-2.37,5-2.37,2.38,0,4.66,1.11,4.66,4.46V46a2.35,2.35,0,0,1-1.36,1.9,31.16,31.16,0,0,1-5.34,1.84c-3.43.78-5.66,2.37-6.28,4.83V31.13H47.33c11.86,0,20,8.14,20,18.76V50c0,10.62-8.19,18.87-20,18.87Z"/></svg>