<svg id="图层_1" data-name="图层 1" xmlns="http://www.w3.org/2000/svg" viewBox="0 0 100 100"><title>logohunt03</title><path d="M41.48,55.72c-1.27-3.75,1.09-8.14,4.3-12a60.33,60.33,0,0,1,8-7.77l-8.6-8.6L24.05,45.89l0,26.79,33.12-.05V58.94h0C55.44,60,45,66,41.48,55.72"/><path d="M44.6,54.31c2.77,7.95,11.17,3.33,12.51,2.49,1.34.84,9.83,5.41,12.51-2.49.91-2.7-.88-6.32-3.44-9.34A56.79,56.79,0,0,0,57,37,52.18,52.18,0,0,0,48,45c-2.57,3-4.46,6.43-3.44,9.34"/><path d="M58.32,34.27a74.4,74.4,0,0,1,10.94,9.88c5.61,5.93,4.21,12.35.58,15.25-4.8,3.84-11.36.16-11.36.16s5.66,7.26,13.19,2.36c6.34-4.12,5.76-13.6-2.09-20C62,35.68,58.32,34.27,58.32,34.27"/></svg>