<svg id="图层_1" data-name="图层 1" xmlns="http://www.w3.org/2000/svg" viewBox="0 0 100 100"><defs><style>.cls-1{fill:#231700;}</style></defs><title>logohunt01</title><path class="cls-1" d="M38.87,52.09l-.24-.24v-.77l.37.37c0,.21-.09.43-.13.64"/><path class="cls-1" d="M39.26,50.45l-.63-.63v-.77l.81.81c-.07.2-.13.39-.18.59"/><path class="cls-1" d="M39.78,48.94l-1.15-1.15V47L40,48.4v0c-.08.17-.15.34-.22.51"/><path class="cls-1" d="M40.43,47.56l-1.8-1.8V45l2.07,2.07c-.09.17-.19.33-.27.5"/><path class="cls-1" d="M41.18,46.28l-2.55-2.55V43l2.86,2.86-.31.46"/><path class="cls-1" d="M42,45.1l-3.4-3.4v-.77l3.75,3.75L42,45.1"/><path class="cls-1" d="M43,44,38.66,39.7q0-.36.06-.72l4.64,4.65L43,44"/><path class="cls-1" d="M44,43l-5.15-5.15c0-.21.08-.43.13-.64l5.44,5.44L44,43"/><path class="cls-1" d="M45.15,42.14l-5.89-5.9c.05-.2.12-.4.18-.59l6.17,6.17-.46.32"/><path class="cls-1" d="M46.39,41.34l-6.61-6.61.23-.54,6.87,6.87-.49.28"/><path class="cls-1" d="M47.72,40.64l-7.29-7.29.27-.5,7.56,7.55-.54.24"/><path class="cls-1" d="M49.17,40.06l-8-8,.31-.46,8.26,8.26-.58.19"/><path class="cls-1" d="M50.75,39.61,42,30.89l.35-.42,9,9-.6.12,0,0"/><path class="cls-1" d="M52.48,39.31,43,29.81c.13-.13.25-.26.39-.39l9.82,9.82-.71.07"/><path class="cls-1" d="M54.41,39.21,44,28.82l.42-.35L55.13,39.15q-.36,0-.72.06"/><path class="cls-1" d="M56.18,39l-11-11,.46-.31L56.76,38.76l-.58.19"/><path class="cls-1" d="M57.63,38.36,46.39,27.12l.49-.27L58.11,38.08l-.48.28"/><path class="cls-1" d="M58.84,37.54,47.72,26.43l.54-.24,11,11-.4.37"/><path class="cls-1" d="M59.84,36.51,49.17,25.84l.58-.18L60.16,36.07c-.1.15-.21.3-.32.44"/><path class="cls-1" d="M60.63,35.27l-9.88-9.88.64-.13,9.47,9.48c-.07.18-.15.36-.23.53"/><path class="cls-1" d="M61.17,33.79,52.48,25.1l.71-.07,8.1,8.11c0,.22-.07.43-.12.65"/><path class="cls-1" d="M61.37,32l-7-6.95a5.71,5.71,0,0,1,.84.07l6,6a7.93,7.93,0,0,1,.07.84"/><path class="cls-1" d="M60.83,29.39,57,25.53a7.14,7.14,0,0,1,3.85,3.86"/><path class="cls-1" d="M45.74,75a7.1,7.1,0,0,1-7.11-7h0V54.84a15.71,15.71,0,0,1,.24-2.75c0-.21.08-.43.13-.64s.16-.67.26-1,.11-.39.18-.59.22-.61.34-.92.14-.34.22-.51.28-.58.43-.87l.27-.5q.22-.39.48-.78l.31-.46L42,45.1l.35-.42c.2-.22.39-.44.6-.66s.25-.26.39-.39L44,43l.42-.35c.23-.19.47-.37.71-.54l.46-.32q.38-.26.78-.48l.49-.28q.42-.23.84-.42l.54-.24c.3-.12.6-.24.91-.34l.58-.19c.35-.1.69-.2,1-.28l.6-.12c.36-.06.72-.12,1.09-.16s.47-.05.71-.06.71,0,1.07,0h0a7.11,7.11,0,0,1,0,14.21A15.64,15.64,0,0,0,39,65.55,7.1,7.1,0,1,1,45.74,75"/></svg>