<svg id="图层_1" data-name="图层 1" xmlns="http://www.w3.org/2000/svg" viewBox="0 0 100 100"><defs><style>.cls-1{fill:#231815;}</style></defs><title>logohunt02</title><rect class="cls-1" x="45" y="55.18" width="3.03" height="6.31"/><rect class="cls-1" x="45" y="52.24" width="3.03" height="2.37"/><rect class="cls-1" x="64.53" y="58.29" width="4.36" height="3.21"/><rect class="cls-1" x="64.53" y="54.58" width="4.36" height="3.21"/><rect class="cls-1" x="64.53" y="50.87" width="4.36" height="3.21"/><polyline class="cls-1" points="56.81 48.37 56.81 61.49 54.82 61.49 54.82 45.18 56.88 45.18 59.36 47.66 59.36 61.49 57.37 61.49 57.36 48.37 56.81 48.37"/><polyline class="cls-1" points="62.5 59.09 62.5 55.71 63.84 55.71 63.84 53.27 60.72 53.27 60.03 54.39 60.03 60.37 60.72 61.5 63.84 61.49 63.85 59.09 62.5 59.09"/><polyline class="cls-1" points="53.2 50.35 52.68 50.35 52.36 47.4 51.88 47.4 51.39 41.22 50.9 47.4 50.41 47.4 50.09 50.35 49.58 50.35 48.49 61.49 50.65 61.49 50.86 58.74 51.91 58.74 52.12 61.49 54.29 61.49 53.2 50.35"/><polyline class="cls-1" points="51.01 56.98 51.39 52.63 51.77 56.98 51.01 56.98"/><polyline class="cls-1" points="36.07 54.65 36.07 52.66 35.5 52.66 35.5 50.66 34.93 50.66 34.77 48.66 32.99 48.66 32.83 50.66 32.26 50.66 32.26 52.66 31.69 52.66 31.69 54.65 31.11 54.65 31.11 61.49 33.03 61.49 33.22 60.08 34.53 60.08 34.72 61.49 36.64 61.49 36.64 54.65 36.07 54.65"/><polyline class="cls-1" points="33.44 57.91 33.84 54.65 34.24 57.91 33.44 57.91"/><polyline class="cls-1" points="39.01 61.49 37.5 61.49 37.5 42.48 37.85 42.48 39.01 38.5 40.16 42.48 40.51 42.48 40.51 61.49 39.01 61.49"/><polyline class="cls-1" points="41.34 61.5 44.19 61.5 44.19 43.63 42.38 43.63 42.38 48.65 41.85 48.65 41.85 53.55 41.34 53.55 41.34 61.5"/></svg>