<svg id="图层_1" data-name="图层 1" xmlns="http://www.w3.org/2000/svg" viewBox="0 0 100 100"><defs><style>.cls-1{fill:#231815;}</style></defs><title>logohunt01</title><path class="cls-1" d="M69.84,51.37c-.21-4-1.9-6.84-5.07-8.28l2.53-4.37c.12-.19.22-.37.32-.56a10.51,10.51,0,0,0,1.1-4.92c0-4.62-2.2-7.49-5.23-9a14.22,14.22,0,0,0-6.3-1.36H38.75l-.58.57h0l-8,13.91h0V76.56l.58.57H50.3A14.61,14.61,0,0,0,55,76.4a9.62,9.62,0,0,0,5.16-3.88c.15-.23.29-.48.43-.74L68.22,58.6c.15-.24.29-.49.42-.74a12,12,0,0,0,1.23-5.6c0-.3,0-.6,0-.89"/></svg>