<svg id="图层_1" data-name="图层 1" xmlns="http://www.w3.org/2000/svg" viewBox="0 0 100 100"><title>logohunt03</title><path d="M53.63,33A18.12,18.12,0,0,1,50,43.1,18.12,18.12,0,0,1,46.37,33,18.08,18.08,0,0,1,50,22.88,18.08,18.08,0,0,1,53.63,33"/><path d="M40.54,35.4a18.17,18.17,0,0,1,4.58,9.72,18.14,18.14,0,0,1-9.72-4.59,18.13,18.13,0,0,1-4.58-9.71,18.17,18.17,0,0,1,9.72,4.58"/><path d="M33,46.37A18.12,18.12,0,0,1,43.1,50,18.12,18.12,0,0,1,33,53.63,18.08,18.08,0,0,1,22.88,50,18.08,18.08,0,0,1,33,46.37"/><path d="M35.4,59.46a18.17,18.17,0,0,1,9.72-4.58,18.14,18.14,0,0,1-4.59,9.72,18.13,18.13,0,0,1-9.71,4.58,18.09,18.09,0,0,1,4.58-9.72"/><path d="M46.37,67A18.12,18.12,0,0,1,50,56.9,18.12,18.12,0,0,1,53.63,67,18.08,18.08,0,0,1,50,77.12,18.08,18.08,0,0,1,46.37,67"/><path d="M59.46,64.6a18.17,18.17,0,0,1-4.58-9.72,18.14,18.14,0,0,1,9.72,4.59,18.13,18.13,0,0,1,4.58,9.71,18.17,18.17,0,0,1-9.72-4.58"/><path d="M67,53.63A18.12,18.12,0,0,1,56.9,50,18.12,18.12,0,0,1,67,46.37,18.08,18.08,0,0,1,77.12,50,18.08,18.08,0,0,1,67,53.63"/><path d="M64.6,40.54a18.17,18.17,0,0,1-9.72,4.58,18.17,18.17,0,0,1,4.58-9.72,18.17,18.17,0,0,1,9.72-4.58,18.09,18.09,0,0,1-4.58,9.72"/></svg>