<svg id="图层_1" data-name="图层 1" xmlns="http://www.w3.org/2000/svg" viewBox="0 0 100 100"><defs><style>.cls-1{fill:#231815;}</style></defs><title>logohunt02</title><path class="cls-1" d="M49.43,30A.57.57,0,1,0,50,29.4a.57.57,0,0,0-.57.56M60,33.26a.58.58,0,0,0,.6-.54.57.57,0,0,0-1.14-.06A.58.58,0,0,0,60,33.26Zm0-1.47a.57.57,0,0,0-.29-1.1.58.58,0,0,0-.4.7A.57.57,0,0,0,60.07,31.79Zm-.43-1.4a.56.56,0,0,0,.15-.79.57.57,0,0,0-.79-.15.58.58,0,0,0-.15.79A.57.57,0,0,0,59.64,30.39Zm-.87-1.18a.56.56,0,1,0-.79.11A.56.56,0,0,0,58.77,29.21Zm-1.19-.81a.57.57,0,1,0-.7.38A.56.56,0,0,0,57.58,28.4Zm-1.41-.3a.59.59,0,0,0-.63-.51.58.58,0,0,0-.5.63.56.56,0,0,0,.62.5A.57.57,0,0,0,56.17,28.1Zm-1.45.22a.57.57,0,1,0-1,.57.57.57,0,0,0,1-.57Zm-1.27.75a.56.56,0,1,0-.27.75A.56.56,0,0,0,53.45,29.07Zm-1.39.6a.56.56,0,0,0-.67-.43.56.56,0,0,0-.44.67.58.58,0,0,0,.68.44A.57.57,0,0,0,52.06,29.67ZM50,30.82a.57.57,0,1,0,.57.57A.58.58,0,0,0,50,30.82ZM40,33.26a.58.58,0,0,0,.54-.6.57.57,0,0,0-1.14.06A.58.58,0,0,0,40,33.26Zm0-1.47a.57.57,0,0,0,.69-.4.58.58,0,0,0-.4-.7.57.57,0,0,0-.69.4A.56.56,0,0,0,39.93,31.79Zm.43-1.4a.57.57,0,0,0,.79-.15.58.58,0,0,0-.15-.79.57.57,0,0,0-.79.15A.56.56,0,0,0,40.36,30.39Zm.87-1.18a.56.56,0,1,0,.11-.79A.56.56,0,0,0,41.23,29.21Zm1.19-.81a.57.57,0,1,0,.39-.7A.56.56,0,0,0,42.42,28.4Zm1.41-.3a.57.57,0,0,0,.51.62.56.56,0,0,0,.62-.5.57.57,0,1,0-1.13-.12Zm1.45.22a.57.57,0,0,0,1,.57.57.57,0,1,0-1-.57Zm1.27.75a.56.56,0,1,0,1,.47.56.56,0,1,0-1-.47Zm1.39.6a.57.57,0,0,0,.43.68.58.58,0,0,0,.68-.44.56.56,0,0,0-.44-.67A.56.56,0,0,0,47.94,29.67Zm-7.51,6.84-.5.35-.8-.56.38-.27L39,34.38a5.68,5.68,0,0,1,2-6.44,5.39,5.39,0,0,1,1.4-.74,4.81,4.81,0,0,1,4.26.57,5.82,5.82,0,0,0,1.78.84,6.45,6.45,0,0,0,1.56.22,6.6,6.6,0,0,0,1.57-.22,5.88,5.88,0,0,0,1.77-.84,4.81,4.81,0,0,1,4.26-.57,5.55,5.55,0,0,1,1.4.74,5.68,5.68,0,0,1,2,6.44L60.49,36l.38.27-.8.56-.5-.35.91-2.8-.14,0a2.3,2.3,0,0,1-.74,0,2.15,2.15,0,0,1-1.44-1v2.66a2.15,2.15,0,0,1,1.44-1,2.15,2.15,0,0,1-1,1.44,2.1,2.1,0,0,1-1.16.34,2.15,2.15,0,0,1-2-1.49.57.57,0,1,1,.77.35,1,1,0,0,0,.46-2,1,1,0,0,0-.91.14A3.26,3.26,0,0,0,55,31.52a3.25,3.25,0,0,0-.78,1.76,1,1,0,1,0-.44,1.84.57.57,0,1,1,.77-.34v0a2.15,2.15,0,0,1-2,1.46,2.1,2.1,0,0,1-1.16-.34,2.15,2.15,0,0,1-1-1.44,2.15,2.15,0,0,1,1.44,1V32.78a2.15,2.15,0,0,1-1.44,1,2.15,2.15,0,0,1,1-1.44H48.67a2.15,2.15,0,0,1,1,1.44,2.15,2.15,0,0,1-1.44-1v2.66a2.15,2.15,0,0,1,1.44-1,2.15,2.15,0,0,1-4.17.29.57.57,0,1,1,.77.35,1,1,0,0,0,.46-2,1,1,0,0,0-.91.14A3.2,3.2,0,0,0,45,31.52a3.31,3.31,0,0,0-.77,1.76,1,1,0,0,0-.9-.14,1,1,0,0,0-.65,1.28,1,1,0,0,0,1.11.7.57.57,0,0,1,.41-1.06.57.57,0,0,1,.36.7v0a2.15,2.15,0,0,1-2,1.48,2.1,2.1,0,0,1-1.16-.34,2.15,2.15,0,0,1-1-1.44,2.15,2.15,0,0,1,1.44,1V32.78a2.15,2.15,0,0,1-1.44,1,2.3,2.3,0,0,1-.74,0l-.15,0ZM50,35.73l.8.57-.8.56-.8-.56Zm-5.55.57a.57.57,0,1,1,.56.56A.56.56,0,0,1,44.45,36.3Zm10,0a.57.57,0,1,1,.57.56A.56.56,0,0,1,54.42,36.3ZM37.31,37.79a3.18,3.18,0,0,0,2,.62h.32A1.64,1.64,0,0,0,38.23,40v9.7H49.77V38.39H40.14a.57.57,0,0,1,0-1.13H59.86a.57.57,0,0,1,0,1.13H50.23V49.73H61.77V40a1.64,1.64,0,0,0-1.37-1.62h.31a3.26,3.26,0,0,0,3-4.77A5.66,5.66,0,0,1,69.75,42a3.27,3.27,0,1,0-.4,4.94,3.23,3.23,0,0,0,1.31-2.14,5.67,5.67,0,0,1,0,10.33,3.26,3.26,0,1,0-.91,2.81,5.66,5.66,0,0,1-6.07,8.35,3.26,3.26,0,1,0-4.82,1.15A3.23,3.23,0,0,0,61.3,68a5.67,5.67,0,0,1-9.83,3.2,3.27,3.27,0,0,0-1-6.14,5.63,5.63,0,0,1,1.84-2.26,5.71,5.71,0,0,1,3-1.07A6.8,6.8,0,0,0,61.77,55V50.19H50.23V65a3.53,3.53,0,0,0-.46,0V50.19H38.23V55a6.8,6.8,0,0,0,6.42,6.79,5.67,5.67,0,0,1,4.85,3.33,2.36,2.36,0,0,0-.51.12,3.27,3.27,0,0,0-.46,6A5.67,5.67,0,0,1,38.7,68a3.26,3.26,0,1,0-2.38-1.73,5.66,5.66,0,0,1-6.07-8.35,3.27,3.27,0,1,0-.91-2.81,5.66,5.66,0,0,1,0-10.33,3.26,3.26,0,1,0,.91-2.8,5.66,5.66,0,0,1,6.08-8.35A3.26,3.26,0,0,0,37.31,37.79Z"/><path class="cls-1" d="M41.84,43.31l.45.46.46-.46h-.91m2,1.82V45a.57.57,0,0,1,1-.36l.36-.09V44l-4.53,1.14H39.58V45a.56.56,0,0,1,1-.31l.64-.16-1.66-1.67v0a.57.57,0,0,1,1.12.12.64.64,0,0,1-.07.28l1,1V43.09l-.68-.68h2.71l-.67.68v.45h4.75a.23.23,0,1,0,0-.45h-4.2l.51-.51a.57.57,0,0,1,.41-.17.56.56,0,0,1,.55.45h2.73a.46.46,0,0,1,.46.45.47.47,0,0,1-.46.46h.91v1.36H47.28V45a.56.56,0,0,1,.57-.56.6.6,0,0,1,.34.11v-.34h-2l.45.45-1.81.46Zm-2-5,.45.46.46-.46Zm2,1.82v-.12a.58.58,0,0,1,.57-.57.55.55,0,0,1,.43.21l.36-.09v-.57L40.71,42H39.58v-.12a.57.57,0,0,1,.56-.57.55.55,0,0,1,.47.26l.64-.16L39.59,39.7v0a.57.57,0,0,1,1.12.12.6.6,0,0,1-.07.27l1,1V39.92l-.68-.68h2.71l-.67.68v.45h4.75a.23.23,0,1,0,0-.45h-4.2L44,39.4a.6.6,0,0,1,.41-.16.56.56,0,0,1,.55.45h2.73a.46.46,0,0,1,.46.45.47.47,0,0,1-.46.46h.91V42H47.28v-.12a.57.57,0,0,1,.57-.57.61.61,0,0,1,.34.12v-.34h-2l.45.45L44.79,42Zm.68,6.34h-.68v-.11a.57.57,0,0,1,1-.37l.36-.09v-.56L40.71,48.3H39.58v-.11a.56.56,0,0,1,1-.32l.64-.16L39.59,46h0a.57.57,0,0,1,1.12.12.6.6,0,0,1-.07.27l1,1V46.26l-.68-.68h2.71l-.67.68v.45h4.75a.23.23,0,1,0,0-.45h-4.2l.51-.51a.61.61,0,0,1,.41-.17A.57.57,0,0,1,45,46h2.73a.47.47,0,0,1,.46.46.46.46,0,0,1-.46.45h.91V48.3H47.28v-.11a.56.56,0,0,1,.57-.57.6.6,0,0,1,.34.11v-.34h-2l.45.46-1.81.45Zm-2.72-1.81.45.45.46-.45Zm11.79,5.44.45.45.45-.45Zm2,1.81v-.11a.56.56,0,0,1,.56-.57.59.59,0,0,1,.44.2l.35-.09v-.56l-4.53,1.13H51.36v-.11a.56.56,0,0,1,.57-.57.59.59,0,0,1,.47.25l.64-.16-1.67-1.67h0a.57.57,0,0,1,.56-.45.56.56,0,0,1,.56.57.5.5,0,0,1-.07.27l1,1V51.7L52.72,51h2.72l-.68.68v.45h4.76a.22.22,0,0,0,.22-.22.22.22,0,0,0-.22-.23h-4.2l.51-.51a.53.53,0,0,1,.4-.17.57.57,0,0,1,.56.45h2.73a.46.46,0,0,1,0,.91h.9v1.36H59.06v-.11a.57.57,0,0,1,.57-.57.55.55,0,0,1,.34.11v-.34h-2l.45.46-1.81.45Zm-2,1.36.45.45.45-.45Zm-2.26-.44v0a.57.57,0,0,1,1.12.12.5.5,0,0,1-.07.27l1,1V54.87l-.68-.68h2.72l-.68.68v.46h4.76a.23.23,0,0,0,.22-.23.22.22,0,0,0-.22-.23h-4.2l.51-.51a.57.57,0,0,1,.4-.17.58.58,0,0,1,.56.46h2.73a.45.45,0,0,1,0,.9h.9l-.22,1.36H58.84V56.8a.57.57,0,0,1,.56-.57.57.57,0,0,1,.43.19L59.9,56h-2l.45.46-1.81.45h-.9V56.8a.57.57,0,0,1,.56-.57.59.59,0,0,1,.44.2l.35-.08v-.57l-4.53,1.13H51.36V56.8a.57.57,0,0,1,.57-.57.59.59,0,0,1,.47.25l.64-.16Zm1.05,3.54.75.75.23-.23V58l-.68-.67h2.72l-.68.67v.46h4.08a.22.22,0,0,0,.22-.23.23.23,0,0,0-.22-.23H55.32l.51-.51a.56.56,0,0,1,.4-.16.57.57,0,0,1,.56.45h2.05a.45.45,0,0,1,0,.9h-.91v1l-2,.51V60a.5.5,0,0,1,.06-.24.57.57,0,0,1,.51-.33.58.58,0,0,1,.34.12l.63-.16L57,59l-1.58.4V60l-2.27.57v-.15a.58.58,0,0,1,.57-.57.59.59,0,0,1,.26.07l.8-.21-.31-.32-1.39.35L51.82,61a.56.56,0,0,1-.46-.55.56.56,0,0,1,.57-.57.52.52,0,0,1,.27.07l.63-.64-1.46-1.46v0a.57.57,0,0,1,.56-.44.56.56,0,0,1,.56.56A.5.5,0,0,1,52.42,58.2Zm1.21.07.45.45.45-.45ZM41.39,53.06l5.23,5.23.07-.61L41.41,52.4c0,.18,0,.36,0,.55Zm5.18,5.63-5.16-5.16a5.79,5.79,0,0,0,5.11,5.57ZM41.46,52l5.28,5.27.07-.6-4.5-4.51a4,4,0,0,1-.82-.36Zm3.56.16,2.08,2.08.17-1.41a.22.22,0,0,1-.22-.22.23.23,0,0,1,.17-.22,1,1,0,0,0-.77-.67l-.19,0a1,1,0,0,0-.49.12A3.91,3.91,0,0,1,45,52.16Zm2,2.48-2.38-2.38a5.86,5.86,0,0,1-.58.1L47,55.25Zm-.12,1-3.28-3.27a4.52,4.52,0,0,1-.74-.06l4,3.94Zm-.56,4.66.06-.48c-3.47-.22-6.17-2-6.17-5.18V54l-.46-.46v-.34h.5l.18-.06a.83.83,0,0,0,.46-.72.67.67,0,0,0-.06-.28.74.74,0,0,0-.29-.38,1.11,1.11,0,0,0-.19-.09.75.75,0,0,0-.26,0,.22.22,0,0,0-.22.22.22.22,0,0,0,.22.23.29.29,0,1,1,0,.57.79.79,0,0,1-.79-.8.79.79,0,0,1,.79-.79h7.37a.9.9,0,0,1,.9.91v.45a.23.23,0,1,1,0,.45v7.93l-.45.16V52.83h-.23V61ZM58.61,42.6a.56.56,0,0,1-.88.48l-.38.39a.22.22,0,0,0,0,.32l.56.56a.46.46,0,0,1,0,.65.45.45,0,0,1-.45.11l0,0,.45.45h.68v1.36H57.25v-.11a.57.57,0,0,1,.91-.46V46h-.91l-.9-.9H55.21l.91.9H53.4v-.22a.56.56,0,0,1,.57-.57.55.55,0,0,1,.51.34H55l-1.14-1.13h1.82L55.21,44h-2v-.22a.57.57,0,0,1,1.09-.23H55l.45-.45h-.91l-1.35-1.35v0a.57.57,0,0,1,.55-.45.58.58,0,0,1,.57.57.6.6,0,0,1-.07.27l.52.53h.68v-.23h.11a.34.34,0,0,0,.32-.23h-.66A.22.22,0,0,1,55,42a.15.15,0,0,1,0-.07.1.1,0,0,0,.1.07h.77a.32.32,0,0,0-.32-.23h-.11V41.5l.45-.45H57.7l-.45.45.23.23v.68l-.91.9V44l.86.85a.23.23,0,1,0,.32-.32L57.19,44a.45.45,0,0,1,0-.64l1.42-1.43Zm.91,1.73v0a.12.12,0,0,0-.11-.07.11.11,0,0,0-.11.11.12.12,0,0,0,.07.11h-.07a.23.23,0,0,1-.23-.23.24.24,0,0,1,.23-.23l-.23-.22.23-.23a.23.23,0,1,1,0-.45h.07a.12.12,0,0,0-.07.1.11.11,0,0,0,.11.11.11.11,0,0,0,.11-.06s0,0,0,0V40.37h-.23v-.23H56.41a.11.11,0,0,0-.06.11.11.11,0,0,0,.11.11.12.12,0,0,0,.1-.07.17.17,0,0,1,0,.07.23.23,0,1,1-.45,0l-.23.23-.22-.23a.24.24,0,0,1-.23.23.23.23,0,0,1-.23-.23s0,0,0-.07a.12.12,0,0,0,.11.07.11.11,0,0,0,.11-.11.12.12,0,0,0-.07-.11H52.49v.23h-.22V43.2a.09.09,0,0,0,0,0,.09.09,0,0,0,.1.06.11.11,0,0,0,0-.21h.06a.23.23,0,1,1,0,.45l.23.23-.23.22a.23.23,0,0,1,.23.23.23.23,0,0,1-.23.23h-.06a.11.11,0,0,0,.06-.11.11.11,0,0,0-.11-.11.1.1,0,0,0-.1.07.06.06,0,0,0,0,0v2.84h.22v.22h2.88a.1.1,0,0,0,.07-.1.11.11,0,0,0-.11-.11.11.11,0,0,0-.11.06s0,0,0-.06a.23.23,0,0,1,.23-.23.23.23,0,0,1,.23.23l.22-.23.23.23a.23.23,0,1,1,.45,0,.13.13,0,0,1,0,.06.11.11,0,0,0-.21.05.09.09,0,0,0,.06.1h2.88v-.22h.23ZM52,39.92h7.7v7.7H52ZM60,39.69H51.81v8.16H60Zm-4.53-.45h.91l-.23.22H59.9a.1.1,0,0,0,.07-.1.11.11,0,0,0-.11-.11.11.11,0,0,0-.11.06s0,0,0-.06A.23.23,0,0,1,60,39a.23.23,0,0,1,.23.23h.22v.22a.23.23,0,0,1,.23.23.23.23,0,0,1-.23.23l-.06,0a.09.09,0,0,0,.06-.1.11.11,0,0,0-.11-.11.11.11,0,0,0-.1.07.06.06,0,0,0,0,0v3.74l.22-.23v.91L60.2,44v3.74a.07.07,0,0,0,0,.05.11.11,0,0,0,.1.07.11.11,0,0,0,.11-.12.11.11,0,0,0-.06-.1h.06a.23.23,0,1,1,0,.45v.23H60.2a.23.23,0,0,1-.23.23.24.24,0,0,1-.23-.23s0,0,0-.07a.12.12,0,0,0,.11.07.11.11,0,0,0,.11-.11.12.12,0,0,0-.07-.11H56.12l.23.23h-.91l.23-.23H51.88a.12.12,0,0,0-.07.11.11.11,0,0,0,.12.11.12.12,0,0,0,.1-.07.2.2,0,0,1,0,.07.23.23,0,1,1-.45,0h-.23v-.23a.23.23,0,1,1,0-.45h.07a.12.12,0,0,0-.07.1.11.11,0,0,0,.11.12.12.12,0,0,0,.11-.07.43.43,0,0,0,0-.05V44l-.23.23v-.91l.23.23V39.8s0,0,0,0a.12.12,0,0,0-.11-.07.11.11,0,0,0-.11.11.1.1,0,0,0,.07.1l-.07,0a.23.23,0,0,1-.23-.23.23.23,0,0,1,.23-.23v-.22h.23a.23.23,0,1,1,.45,0,.13.13,0,0,1,0,.06.11.11,0,0,0-.1-.06.11.11,0,0,0-.12.11.1.1,0,0,0,.07.1h3.79Z"/><path class="cls-1" d="M70.79,47.1a1.64,1.64,0,1,1,2.07,1.06,1.65,1.65,0,0,1-2.07-1.06m-41.59.09a1.64,1.64,0,1,1-1.05-2.07A1.63,1.63,0,0,1,29.2,47.19Zm8,24.42a1.65,1.65,0,1,1-2.3.36A1.66,1.66,0,0,1,37.2,71.61Zm25.69,0a1.64,1.64,0,1,1,1.93,2.65,1.64,1.64,0,0,1-1.93-2.65ZM50,31.87a1.64,1.64,0,1,1,1.64-1.64A1.63,1.63,0,0,1,50,31.87Zm.45-5a2.19,2.19,0,0,0,1.39-1v2.66a2.19,2.19,0,0,0-1.39-.95.56.56,0,0,0,0-.76Zm-.8,0a2.19,2.19,0,0,0-.95-1.39h2.66a2.15,2.15,0,0,0-.95,1.39.56.56,0,0,0-.76,0Zm0,.8a2.16,2.16,0,0,0-1.39.95V25.9a2.19,2.19,0,0,0,1.39,1,.56.56,0,0,0,0,.76Z"/></svg>