<svg id="图层_1" data-name="图层 1" xmlns="http://www.w3.org/2000/svg" viewBox="0 0 100 100"><defs><style>.cls-1{fill:#231815;}</style></defs><title>logohunt01</title><path class="cls-1" d="M48,74a12.94,12.94,0,0,1-9.31-3.7,11.9,11.9,0,0,1-3.87-8.94V36.63a11.89,11.89,0,0,1,3.87-8.93,13.47,13.47,0,0,1,18.55,0,11.92,11.92,0,0,1,3.86,8.93V61.36a11.92,11.92,0,0,1-3.86,8.94A12.89,12.89,0,0,1,48,74m0-45a8,8,0,0,0-5.78,2.24,7.15,7.15,0,0,0-2.34,5.35V58.51L55,32.89A7.6,7.6,0,0,0,48,29ZM56.1,40.75l-14.69,25a8.42,8.42,0,0,0,12.35,1,7.13,7.13,0,0,0,2.34-5.34Z"/></svg>