<svg id="图层_1" data-name="图层 1" xmlns="http://www.w3.org/2000/svg" viewBox="0 0 100 100"><defs><style>.cls-1{fill-rule:evenodd;}</style></defs><title>logohunt03</title><path class="cls-1" d="M73.19,73.44c-6.59-2.17-9-3.08-8.51-10.66,7.67,1,9.17,3.17,8.51,10.66m-21.36-19c6.6-2.78,9.05-3.94,8.51-13.63-7.66,1.33-9.16,4.06-8.51,13.63m-2.49-.31c-.73-8.83-1.09-12.14-8.61-13.52-.6,9.86,1.16,12.31,8.61,13.52M51.7,41c6.13-2.59,8.41-3.66,7.91-12.69C52.48,29.52,51.09,32.05,51.7,41m-2.32-.29c-.68-8.21-1-11.3-8-12.58-.56,9.18,1.09,11.46,8,12.58m1.15-8.5c4.14-7.84,5.62-10.85.23-18.11-5.78,7.61-5.65,11-.23,18.11m.67,39.74H49.4l.07,14,1.8,0ZM49,68.29c-.79-9.57-1.19-13.17-9.34-14.66C39,64.32,40.91,67,49,68.29m2.7.33c7.14-3,9.81-4.26,9.22-14.77-8.3,1.45-9.93,4.4-9.22,14.77M26.81,73.44c6.59-2.17,9.05-3.08,8.51-10.66-7.67,1-9.17,3.17-8.51,10.66m.13-10.21c6.08-2,8.35-2.84,7.85-9.84-7.08,1-8.46,2.94-7.85,9.84M24.64,63c-.67-6.37-1-8.76-7.95-9.76-.56,7.12,1.07,8.89,8,9.76m2.17-9.53c5.66-1.87,7.77-2.65,7.31-9.16-6.59.9-7.87,2.73-7.31,9.16m-2.14-.21c-.62-5.93-.94-8.16-7.4-9.08-.51,6.62,1,8.27,7.4,9.08m1.06-6.13c3.82-5.66,5.19-7.84.22-13.08-5.34,5.5-5.22,8-.22,13.08m.62,28.67H24.69l.07,10.12h1.66ZM34.08,19h-.79l-.11,22.85H34ZM17.88,27.9h-.52L17.28,43h.52Zm5.27-3h-.32l0,9.3h.32ZM28.47,22h-.35l-.05,10h.35ZM24.31,73.2c-.72-6.91-1.09-9.5-8.62-10.58-.6,7.72,1.17,9.63,8.62,10.58m48.75-10c-6.09-2-8.35-2.85-7.85-9.84,7.07,1,8.46,2.93,7.85,9.84m2.3-.23c.67-6.37,1-8.76,8-9.76.56,7.12-1.07,8.89-8,9.76m-2.17-9.53c-5.67-1.87-7.77-2.65-7.31-9.16,6.58.9,7.87,2.73,7.31,9.16m2.13-.21c.63-5.93.94-8.16,7.41-9.08.51,6.62-1,8.27-7.41,9.08m-1-6.13c-3.83-5.66-5.19-7.84-.22-13.08,5.33,5.5,5.22,8,.22,13.08m-.62,28.67h1.66l-.07,10.12H73.58ZM65.92,19h.78l.12,22.85H66Zm16.2,8.93h.52L82.71,43h-.52Zm-5.28-3h.32l0,9.3h-.32ZM71.53,22h.35l.05,10h-.35ZM75.68,73.2c.73-6.91,1.1-9.5,8.63-10.58.6,7.72-1.17,9.63-8.63,10.58"/></svg>