<svg id="图层_1" data-name="图层 1" xmlns="http://www.w3.org/2000/svg" viewBox="0 0 100 100"><defs><style>.cls-1{fill:#231815;}</style></defs><title>logohunt01</title><polygon class="cls-1" points="71.47 70.03 31.75 70.03 29.16 67.44 29.16 33.92 32.27 30.81 67.2 30.81 69.79 33.4 69.79 63.79 68.24 65.34 36.5 65.34 34.38 63.21 34.38 38.14 37.02 35.5 62.46 35.5 64.58 37.62 64.58 59.57 63.5 60.65 41.24 60.65 39.58 58.99 39.58 42.37 41.76 40.19 57.72 40.19 59.38 41.85 59.38 55.34 58.7 56.02 46.04 56.02 44.79 54.77 44.79 46.53 46.45 44.88 53.49 44.88 54.17 45.55 54.17 50.65 53.49 51.32 47.3 51.32 46.6 52.02 54.38 52.02 56.54 49.86 56.54 45.04 54.84 43.34 45.62 43.34 43.46 45.5 43.46 54.5 45.62 56.66 59.12 56.66 61.75 54.03 61.75 41.28 59.12 38.66 40.88 38.66 38.25 41.28 38.25 58.72 40.88 61.34 63.87 61.34 66.96 58.25 66.96 37.06 63.87 33.97 36.13 33.97 33.04 37.06 33.04 62.94 36.13 66.03 68.61 66.03 72.17 62.48 72.17 32.84 68.61 29.28 31.39 29.28 27.83 32.84 27.83 67.16 31.39 70.72 72.17 70.72 71.47 70.03"/></svg>