<svg id="图层_1" data-name="图层 1" xmlns="http://www.w3.org/2000/svg" viewBox="0 0 100 100"><defs><style>.cls-1{fill:#231815;}</style></defs><title>logohunt02</title><path class="cls-1" d="M52.66,37.62a10.72,10.72,0,0,0-7.86,2.93A8.91,8.91,0,0,0,42.3,47c.09,4.66,3.26,7.79,9,8.82s6.29,4,6.29,6.12a6.21,6.21,0,0,1-6,6.17h-.17c-8.25,0-13.79-5.89-13.79-14.65V29H31.94v2.9h2.74V53.45c0,5.29,1.7,9.77,4.9,13A16.57,16.57,0,0,0,51.37,71h.23A16.7,16.7,0,0,0,68.06,54.31a17.6,17.6,0,0,0-4.19-11.73,14.73,14.73,0,0,0-11.21-5m7.2,27.53a9,9,0,0,0,.58-3.22c0-3.38-1.5-7.68-8.67-9-4.3-.78-6.51-2.8-6.57-6a6,6,0,0,1,1.67-4.35,7.89,7.89,0,0,1,5.79-2.07c7.24,0,12.5,5.8,12.5,13.79A13.79,13.79,0,0,1,59.86,65.15Z"/></svg>