<svg id="图层_1" data-name="图层 1" xmlns="http://www.w3.org/2000/svg" viewBox="0 0 100 100"><title>logohunt02</title><path d="M34.46,40.08a2.09,2.09,0,0,1,.38-.45q7.24-4.17,14.49-8.35a1.62,1.62,0,0,1,1.8,0c4.77,2.77,9.56,5.5,14.35,8.24a.75.75,0,0,1,.48.67l-4.48,2.57c-3.39,2-6.81,3.86-10.17,5.86a1.85,1.85,0,0,1-2.22,0c-4.45-2.62-9-5.15-13.42-7.72C35.27,40.62,34.89,40.36,34.46,40.08Z"/><path d="M66.29,60.5,55.13,66.89c-1.23.71-2.51,1.35-3.69,2.14A2,2,0,0,1,49,69c-3.37-2-6.78-3.9-10.16-5.86a38.73,38.73,0,0,1-4.54-2.73l6.55-3.77c.6-.35,1,.09,1.46.34,2.21,1.26,4.44,2.49,6.61,3.82a2.22,2.22,0,0,0,2.6,0c2.17-1.33,4.42-2.53,6.6-3.84a1.76,1.76,0,0,1,2.09,0C62.15,58.17,64.13,59.25,66.29,60.5Z"/><path d="M33.59,41.78c1.31.73,2.65,1.46,4,2.22,3.45,2,6.86,4,10.35,5.92a2.38,2.38,0,0,1,1.44,2.52c-.1,2.06,0,4.14,0,6.38a35.11,35.11,0,0,1-4.15-2.27c-3.56-2-7.1-4.08-10.66-6.09a2.06,2.06,0,0,1-1.27-2.23c.15-1.71,0-3.44,0-5.16A1.64,1.64,0,0,1,33.59,41.78Z"/><path d="M66.32,50.27,51.48,58.74c-.47-.36-.3-.8-.3-1.18,0-1.9,0-3.79,0-5.69a1.55,1.55,0,0,1,.83-1.6c2.17-1.2,4.32-2.45,6.47-3.7a1.25,1.25,0,0,1,1.45,0C61.93,47.78,64,48.93,66.32,50.27Z"/><path d="M67.16,51.85v7L61,55.38Z"/></svg>