<svg id="图层_1" data-name="图层 1" xmlns="http://www.w3.org/2000/svg" viewBox="0 0 100 100"><title>logohunt03</title><path d="M42,58.17a17.16,17.16,0,0,0-7.91-7.51c-2.08-.86-2.12-.64-.23.42a16,16,0,0,1,6.55,7.84,23.85,23.85,0,0,1,1.46,9.73h3A26.2,26.2,0,0,0,42,58.17"/><path d="M32.34,50.06c.33.74.45.64.32-.08a5.54,5.54,0,0,1,.83-3.36,3.79,3.79,0,0,1,2.27-1.93L35,42.76a5.45,5.45,0,0,0-2.65,3.39,6.37,6.37,0,0,0,0,3.91"/><path d="M33.08,49.67c-.33,1.06-.16,1,.29.15a5.45,5.45,0,0,1,4.16-2.08,7.62,7.62,0,0,1,4.44.8l.91-1.85a9.24,9.24,0,0,0-5.57-.13,6.21,6.21,0,0,0-4.23,3.11"/><path d="M32,49.72c.6.85.7.74.29-.14a8.07,8.07,0,0,1,2-8.4l-1.55-1.36a9.24,9.24,0,0,0-.69,9.9"/><path d="M31.85,50c.84.49.94.39.19-.27a9,9,0,0,0-4.43-2.18,7.84,7.84,0,0,0-5.1,1.09l1.18,1.7a6.25,6.25,0,0,1,3.84-1.6A8.24,8.24,0,0,1,31.85,50"/><path d="M32.64,50.53c.85,0,.91-.15,0-.33a6.92,6.92,0,0,0-4.41.75,3.73,3.73,0,0,0-1.67,2,4.47,4.47,0,0,0,0,2.66l1.94-.72a2.23,2.23,0,0,1,.44-3,6.18,6.18,0,0,1,3.7-1.38"/><path d="M31.9,49.92c.6.37.67.24.21-.24-1.49-1.65-1.81-3.78-1.86-5.9l-2,.33c.62,2.19,1.71,4.57,3.69,5.81"/><path d="M32.74,49.66c-.07,1.25.09,1.19.32.07a5.74,5.74,0,0,1,3.8-3.7,9.91,9.91,0,0,1,5.35-.21l.26-2a11.6,11.6,0,0,0-6.1,1.17,8.14,8.14,0,0,0-2.4,2,5.1,5.1,0,0,0-1.23,2.77"/><path d="M33.11,50.32c-.34.57-.19.61.24.22,1.5-1.24,3.83-.84,4.54.35l1.46-1.46a4.42,4.42,0,0,0-6.24.89"/><path d="M32.13,50.44c.58.26.7.17.16-.28a6.06,6.06,0,0,0-3.25-1,8.09,8.09,0,0,0-3.55.6l1,1.79a6.22,6.22,0,0,1,5.61-1.07"/><path d="M32.44,50.74c.89-.17.94-.32,0-.32a3.37,3.37,0,0,0-2.23,1,4.68,4.68,0,0,0-1.09,2.3,8.18,8.18,0,0,0,.71,5l1.76-1.07a6.7,6.7,0,0,1-1.29-3.83,3,3,0,0,1,2.19-3.16"/><path d="M33.06,50.72c.44-.19.48-.35-.11-.31a1.67,1.67,0,0,0-1.19.88,3.22,3.22,0,0,0-.33,1.47,6.22,6.22,0,0,0,.68,2.89l1.67-1.22a4.58,4.58,0,0,1-1.17-1.83c-.24-.69-.28-1.48.45-1.88"/><path d="M64.55,39.36c-.46,1-.61.81-.41-.12a7.22,7.22,0,0,0-.92-4.43,5.06,5.06,0,0,0-2.89-2.65l1-2.49a7.09,7.09,0,0,1,3.3,4.57,8.21,8.21,0,0,1-.12,5.12"/><path d="M63.6,38.82c.39,1.4.17,1.35-.38.18-1.13-1.86-3.31-2.65-5.35-2.93a10,10,0,0,0-5.85.84l-1.1-2.47a12,12,0,0,1,7.29.11c2.22.69,4.51,2,5.39,4.27"/><path d="M65.05,38.94c-.82,1.08-.94.93-.37-.21a10.58,10.58,0,0,0-2.14-11.08l2.09-1.71a12.09,12.09,0,0,1,.42,13"/><path d="M65.19,39.3c-1.11.61-1.24.47-.23-.36a11.85,11.85,0,0,1,5.91-2.64A10.28,10.28,0,0,1,77.49,38l-1.62,2.17a8.06,8.06,0,0,0-5-2.28,10.77,10.77,0,0,0-5.72,1.43"/><path d="M64.14,40c-1.11-.05-1.18-.24,0-.43a9.16,9.16,0,0,1,5.75,1.19A4.9,4.9,0,0,1,72,43.38a6,6,0,0,1-.11,3.48l-2.5-1A2.92,2.92,0,0,0,68.92,42a8.1,8.1,0,0,0-4.78-2"/><path d="M65.14,39.2c-.81.46-.89.28-.27-.33,2-2.08,2.56-4.86,2.73-7.63l2.65.53c-.92,2.84-2.47,5.91-5.11,7.43"/><path d="M64.05,38.82c0,1.64-.17,1.55-.42.07-.52-2.49-2.65-4.11-4.8-5a13.17,13.17,0,0,0-7-.53l-.24-2.69a15.21,15.21,0,0,1,7.93,1.82,10.88,10.88,0,0,1,3,2.67,6.63,6.63,0,0,1,1.47,3.69"/><path d="M63.54,39.66c.41.76.22.82-.33.28-1.9-1.7-5-1.29-6,.25l-1.84-2a5.82,5.82,0,0,1,8.14,1.46"/><path d="M64.81,39.87c-.77.31-.92.18-.19-.37a7.83,7.83,0,0,1,4.3-1.21,10.54,10.54,0,0,1,4.61,1L72.1,41.53a8.14,8.14,0,0,0-7.29-1.66"/><path d="M64.39,40.25c-1.16-.27-1.21-.47.09-.41a4.39,4.39,0,0,1,2.86,1.47,6,6,0,0,1,1.32,3.07,10.76,10.76,0,0,1-1.17,6.54l-2.26-1.48a8.6,8.6,0,0,0,1.87-4.95,3.92,3.92,0,0,0-2.71-4.24"/><path d="M63.58,40.19c-.56-.27-.61-.48.16-.4A2.24,2.24,0,0,1,65.26,41a4.33,4.33,0,0,1,.36,1.95,8.14,8.14,0,0,1-1,3.75L62.47,45a6.15,6.15,0,0,0,1.61-2.34c.35-.9.44-1.93-.5-2.49"/><path d="M62.23,40.59A25.65,25.65,0,0,0,51.07,52.73a30.54,30.54,0,0,0-2.36,15.4l4.92.18a27.17,27.17,0,0,1,.11-14.56,24,24,0,0,1,8.88-12.49C64,40.32,64.7,40.15,64.73,40s-1-.25-2.5.55"/><path d="M39.89,55s4.46,6.69,11.63-3.19c0,0-5,16-11.63,3.19"/><path d="M48.5,66.16A23.41,23.41,0,0,0,31,74.06h35.1a23.41,23.41,0,0,0-17.55-7.9"/></svg>