<svg id="图层_1" data-name="图层 1" xmlns="http://www.w3.org/2000/svg" viewBox="0 0 100 100"><title>logohunt03</title><path d="M29.55,61.75c2.71-2.07,5.5-4,8.34-5.77,2.64-13.17,5.21-22.6,8.8-30.52-6.67-.51-10.58-1-14.64-1-7.78,0-9.28,4.79-9,8.39s3,22.78,3,34.16c0,8.14,1.85,8.77,9.47,8.47a106.65,106.65,0,0,1,1.88-17.11c-2.65,1-5.27,2.16-7.86,3.38"/><path d="M65.77,26.56c-1.46-.06-3.32-.18-5.43-.32A135.36,135.36,0,0,0,45.51,51.91a107.1,107.1,0,0,1,31.2-10.54c0-.67.09-1.33.14-1.94.89-10.06-3.59-12.57-11.08-12.87M37.69,75.41c2.77-.13,6.19-.31,10.42-.31,18,0,21.9,1,24.55-1.5C75.5,71,76,59.47,76.33,49.48A134.78,134.78,0,0,0,43.7,56.24a134.1,134.1,0,0,0-6,19.17"/></svg>