<svg id="图层_1" data-name="图层 1" xmlns="http://www.w3.org/2000/svg" viewBox="0 0 100 100"><defs><style>.cls-1{fill-rule:evenodd;}</style></defs><title>logohunt03</title><polygon class="cls-1" points="61.95 66.02 38.04 66.02 38.04 54.71 34.1 54.71 50 26.95 65.9 54.71 61.95 54.71 61.95 66.02"/><path class="cls-1" d="M45.3,66.77h9.4c.88,0,1.59.5,1.59,1.12V68c0,.61-.71,1.12-1.59,1.12H45.3c-.88,0-1.59-.51-1.59-1.12v-.09c0-.62.71-1.12,1.59-1.12M50,77.63a2.18,2.18,0,0,1-1.59-.51,8.43,8.43,0,0,0-1.36-.9.26.26,0,0,1-.11-.3.27.27,0,0,1,.26-.2h5.6a.27.27,0,0,1,.26.2.28.28,0,0,1-.11.3,8.43,8.43,0,0,0-1.36.9,2.18,2.18,0,0,1-1.59.51Zm-4.7-4.84h9.4c.88,0,1.59.51,1.59,1.12V74c0,.61-.71,1.12-1.59,1.12H45.3c-.88,0-1.59-.51-1.59-1.12v-.09c0-.61.71-1.12,1.59-1.12m0-3h9.4c.88,0,1.59.5,1.59,1.11V71c0,.61-.71,1.11-1.59,1.11H45.3c-.88,0-1.59-.5-1.59-1.11v-.1c0-.61.71-1.11,1.59-1.11"/><path class="cls-1" d="M49.29,41.63l0,0a1,1,0,0,1-.29-1,.89.89,0,0,1,1.14-.37.62.62,0,0,1,.29.4,1.47,1.47,0,0,1-.13,1,1,1,0,0,0,.44.17,1.05,1.05,0,0,0,.67-.21,1,1,0,0,1-.14-.3C51,40.39,52.49,40,52.38,41a1.26,1.26,0,0,1-.13.43v0a1.33,1.33,0,0,0,.57.22.54.54,0,0,0,.39-.08c.07-.24.14-.48.22-.71a.43.43,0,0,1,.54-.29.44.44,0,0,1,.29.55,69.31,69.31,0,0,0-2,8.67c-.27,1.58-.51,3.17-.71,4.76-.16,1.32-.29,2.65-.34,4a.39.39,0,0,1-.09.26c0,.46-.17.92-.25,1.39a3.11,3.11,0,0,0,0,.32,14.25,14.25,0,0,0,0,1.6c.06,1.26.08,2.52.06,3.79v.24H49.07V66c0-1.27,0-2.53.06-3.79a12.22,12.22,0,0,0,0-1.6,3.11,3.11,0,0,0,0-.32c-.08-.46-.21-.92-.25-1.39a.39.39,0,0,1-.09-.26c-.05-1.32-.18-2.65-.34-4-.2-1.59-.44-3.18-.71-4.76a69.31,69.31,0,0,0-2-8.67.44.44,0,0,1,.29-.55.43.43,0,0,1,.54.29c.06.17.11.34.16.51a1.68,1.68,0,0,0,.34-.15.91.91,0,0,1,0-.72.65.65,0,0,1,.57-.39c.58,0,.81.57.48,1a.65.65,0,0,1-.15.18,1.21,1.21,0,0,0,.26.2,1.07,1.07,0,0,0,1.09,0m.25,15.17a.94.94,0,0,1,.92,0c.19-2.37.55-4.76.95-7.09s.93-4.94,1.58-7.33h-.26a2.1,2.1,0,0,1-.89-.36,1.66,1.66,0,0,1-1.14.4,1.72,1.72,0,0,1-.89-.34,1.74,1.74,0,0,1-2,.09,2.24,2.24,0,0,1-.42-.34,1.42,1.42,0,0,1-.53.2,78.08,78.08,0,0,1,1.68,7.69c.4,2.33.76,4.72.95,7.09m.2-15.64a.8.8,0,0,0,0-.4h0a.36.36,0,0,0-.21.08c0,.07.14.27.19.33"/><path class="cls-1" d="M50,22.37A20.92,20.92,0,0,1,65,57.93a19.26,19.26,0,1,0-29.9,0A20.92,20.92,0,0,1,50,22.37"/></svg>