<svg id="图层_1" data-name="图层 1" xmlns="http://www.w3.org/2000/svg" viewBox="0 0 100 100"><defs><style>.cls-1{fill-rule:evenodd;}</style></defs><title>logohunt03</title><path class="cls-1" d="M50,22.88A27.12,27.12,0,0,1,77.12,50a26.66,26.66,0,0,1-.54,5.4l-5.45-4.25L60.49,42.84a.86.86,0,0,0-1.05,0L48.8,51.15l-.7.54V48.44a.29.29,0,0,0-.29-.29H45.37a.29.29,0,0,0-.28.29V54l-5.51,4.3a.83.83,0,0,0-.28.94.84.84,0,0,0,.8.58h4.69a.84.84,0,0,0,.52-.18L48.8,57l10.64-8.3a.86.86,0,0,1,1.05,0L71.13,57l3.49,2.73a.8.8,0,0,0,.52.18h.14c-.16.39-.32.78-.49,1.16a.62.62,0,0,1-.17-.11l-3.49-2.72-10.64-8.3a.83.83,0,0,0-1.05,0L48.8,58.19l-3.49,2.72a.77.77,0,0,1-.5.18l.1,13.72a.86.86,0,0,0,.86.84H58.84A27.12,27.12,0,1,1,50,22.88m0,38.81h6.58a.34.34,0,0,1,.34.34v6.65a.34.34,0,0,1-.34.34H49.91a.34.34,0,0,1-.34-.34V62.1a.41.41,0,0,1,.41-.41m12.46,0H69a.34.34,0,0,1,.34.34v6.65A.34.34,0,0,1,69,69H62.37a.34.34,0,0,1-.34-.34V62.1a.41.41,0,0,1,.41-.41"/><path class="cls-1" d="M50,28.78A21.22,21.22,0,0,1,71.22,50c0,.4,0,.79,0,1.19l-.05,0L60.49,42.84a.86.86,0,0,0-1.05,0L48.8,51.15l-.7.54V48.44a.29.29,0,0,0-.29-.29H45.37a.29.29,0,0,0-.28.29V54l-5.51,4.3a.85.85,0,0,0,.52,1.52h4.69a.84.84,0,0,0,.52-.18L48.8,57l10.64-8.3a.86.86,0,0,1,1.05,0l9.78,7.63c-.1.33-.21.66-.33,1l-9.45-7.37a.83.83,0,0,0-1.05,0L48.8,58.19l-3.49,2.72a.77.77,0,0,1-.5.18l.07,9.5A21.22,21.22,0,0,1,50,28.78M67.71,61.69A21.4,21.4,0,0,1,62,67.47V62.1a.41.41,0,0,1,.41-.41ZM50,61.69h6.59a.34.34,0,0,1,.33.34v6.65a.34.34,0,0,1-.33.34H49.91a.34.34,0,0,1-.34-.34V62.1a.41.41,0,0,1,.41-.41"/><path class="cls-1" d="M50,35.58a14.42,14.42,0,0,1,13.64,9.73l-3.15-2.47a.86.86,0,0,0-1.05,0L48.8,51.15l-.7.54V48.44a.29.29,0,0,0-.29-.29H45.37a.29.29,0,0,0-.28.29V54l-5.51,4.3a.85.85,0,0,0,.52,1.52h4.69a.84.84,0,0,0,.52-.18L48.8,57l10.64-8.3a.86.86,0,0,1,1.05,0l3.84,3c0,.37-.1.74-.17,1.1l-3.67-2.86a.83.83,0,0,0-1.05,0L48.8,58.19l-3.49,2.72a.77.77,0,0,1-.5.18l0,2.38A14.43,14.43,0,0,1,50,35.58m6.9,27.09A14.34,14.34,0,0,1,50,64.42h-.43V62.1a.41.41,0,0,1,.41-.41h6.59a.34.34,0,0,1,.33.34Z"/></svg>