<svg id="图层_1" data-name="图层 1" xmlns="http://www.w3.org/2000/svg" viewBox="0 0 100 100"><defs><style>.cls-1{fill:#231815;}</style></defs><title>logohunt02</title><path class="cls-1" d="M37.93,59.11a16.91,16.91,0,0,0,.79,5.54,5.64,5.64,0,0,0,3.87,4c2,.43,3.65-1.29,4.29-3.2.8-2.4,1-5.91,1-9.92a28.64,28.64,0,0,0-.62-7c-.63-2.36-1.89-4.27-4.4-4.27a5.08,5.08,0,0,0-2.8.92,9.3,9.3,0,0,0-2.18,2.11V59.11"/><path class="cls-1" d="M47.87,41a10.81,10.81,0,0,0-2.12-.21,10.47,10.47,0,0,0-7.81,3.78V35.42c0-3.34,0-5.61-3.49-5.61V28.67H47.87V41"/><path class="cls-1" d="M47.57,70.56a11.91,11.91,0,0,0,4,.77c9.12,0,14-8.08,14-16.47,0-9.66-5.6-14.07-11.2-14.07a8.57,8.57,0,0,0-4.09,1,10.76,10.76,0,0,1,4.39,4,13,13,0,0,1,1.08,2.1,18.49,18.49,0,0,1,1.23,7c0,6.85-3.23,13.49-9.38,15.7"/></svg>