<svg id="图层_1" data-name="图层 1" xmlns="http://www.w3.org/2000/svg" viewBox="0 0 100 100"><defs><style>.cls-1{fill:#231815;}</style></defs><title>logohunt02</title><path class="cls-1" d="M47,72.43A22.8,22.8,0,0,1,27.83,50.11,23.11,23.11,0,0,1,51.06,27.25h.15a22.88,22.88,0,0,1,18.32,9.12l-.85.64A21.84,21.84,0,0,0,51.2,28.32h-.14A22,22,0,0,0,28.9,50.11,21.74,21.74,0,0,0,47.15,71.38a19.93,19.93,0,0,0,3.42.3A20.83,20.83,0,0,0,71.06,52.42c0-.45,0-.9,0-1.35a20.86,20.86,0,0,0-5.71-14.22,18.79,18.79,0,0,0-13.61-6.12h-.06a20.48,20.48,0,0,0-15.49,6.7,19.35,19.35,0,0,0-4.85,12.75A18.53,18.53,0,0,0,33,57.66a19.76,19.76,0,0,0,16.1,11.5c.5,0,1,.06,1.49.06a18.36,18.36,0,0,0,14.24-7,17.82,17.82,0,0,0,4-11.13A18.37,18.37,0,0,0,65.67,41a17.62,17.62,0,0,0-14.75-8,16.77,16.77,0,0,0-11.26,4.29,17.26,17.26,0,0,0-5.82,12.8A16.78,16.78,0,0,0,45,66a16.39,16.39,0,0,0,5.35.91,15,15,0,0,0,5.55-1,16.39,16.39,0,0,0,8.79-8,15,15,0,0,0,1.5-6.61A15.58,15.58,0,0,0,57.45,37a15.76,15.76,0,0,0-6.56-1.45,14.94,14.94,0,0,0-7.34,1.92,14.55,14.55,0,0,0-7.36,12.77,14.05,14.05,0,0,0,4.6,10.5,14.25,14.25,0,0,0,9.53,3.66A13.29,13.29,0,0,0,63.76,51a13.75,13.75,0,0,0-1.25-5.74,12.84,12.84,0,0,0-11.65-7.37A12.26,12.26,0,0,0,38.64,50.08a13.87,13.87,0,0,0,.29,2.77A11.87,11.87,0,0,0,49.56,62l.84,0a10.73,10.73,0,0,0,9-4.64,11.7,11.7,0,0,0,2-6.57,10.41,10.41,0,0,0-3-7.37,10.81,10.81,0,0,0-7.54-3.21,9.16,9.16,0,0,0-2.78.43A10,10,0,0,0,41,49.64c0,.19,0,.39,0,.58a9.58,9.58,0,0,0,9,9.43h.21A8.9,8.9,0,0,0,59,51.75a7.26,7.26,0,0,0,0-.8,8.3,8.3,0,0,0-4.18-7.2,8.6,8.6,0,0,0-4.14-1.07,7.14,7.14,0,0,0-5.29,2.18A7.64,7.64,0,0,0,43.36,50c0,.23,0,.47,0,.7a7.15,7.15,0,0,0,6.42,6.58h.35A6.57,6.57,0,0,0,56,53.76a7.32,7.32,0,0,0,.62-2.95,4.81,4.81,0,0,0-.09-1H49.71V48.76H57.3l.13.34a4.69,4.69,0,0,1,.27,1.71A8.4,8.4,0,0,1,57,54.23a7.63,7.63,0,0,1-6.81,4.14h-.41a8.22,8.22,0,0,1-7.42-7.54,7.32,7.32,0,0,1,0-.81,8.64,8.64,0,0,1,2.38-5.87,8.2,8.2,0,0,1,6.07-2.53,9.58,9.58,0,0,1,4.66,1.21A9.33,9.33,0,0,1,60.12,51c0,.3,0,.6,0,.91a10,10,0,0,1-9.82,8.86H50a10.64,10.64,0,0,1-10.09-10.5c0-.22,0-.43,0-.65a11.06,11.06,0,0,1,7.86-9.89,10.32,10.32,0,0,1,3.1-.47,11.86,11.86,0,0,1,8.3,3.52,11.44,11.44,0,0,1,3.27,8.12A12.73,12.73,0,0,1,60.26,58a11.79,11.79,0,0,1-9.86,5.1l-.92,0a12.9,12.9,0,0,1-11.59-10,14.79,14.79,0,0,1-.32-3A13.33,13.33,0,0,1,50.86,36.85a13.91,13.91,0,0,1,12.62,8A14.94,14.94,0,0,1,64.82,51a14.32,14.32,0,0,1-14.5,14.44,15.25,15.25,0,0,1-10.24-3.93,15,15,0,0,1-4.95-11.29A15.61,15.61,0,0,1,43,36.55a16,16,0,0,1,7.86-2.06,16.9,16.9,0,0,1,7,1.55,16.65,16.65,0,0,1,9.39,15.14,16,16,0,0,1-1.62,7.08,17.37,17.37,0,0,1-9.35,8.54,16.11,16.11,0,0,1-5.94,1.13,17.12,17.12,0,0,1-5.7-1A17.83,17.83,0,0,1,32.9,52.26a19,19,0,0,1-.13-2.13A18.33,18.33,0,0,1,39,36.54a17.76,17.76,0,0,1,12-4.56,18.64,18.64,0,0,1,15.64,8.46A19.44,19.44,0,0,1,69.81,51.1a18.77,18.77,0,0,1-4.2,11.79,19.38,19.38,0,0,1-15.07,7.4c-.52,0-1.06,0-1.59-.07A20.81,20.81,0,0,1,32,58.09a19.6,19.6,0,0,1-1.66-7.91,20.41,20.41,0,0,1,5.12-13.45,21.56,21.56,0,0,1,16.28-7.07h.07c11.18,0,20.38,10.07,20.39,21.41,0,.47,0,1,0,1.42A21.9,21.9,0,0,1,50.57,72.75,20.18,20.18,0,0,1,47,72.43"/></svg>