<svg id="图层_1" data-name="图层 1" xmlns="http://www.w3.org/2000/svg" viewBox="0 0 100 100"><defs><style>.cls-1{fill:#030000;}</style></defs><title>logohunt02</title><path class="cls-1" d="M73,68.36c0-.2-1.27-1.94-1.62-2.57s-1.68-1.55-2.67-3C67.55,61.19,67,60.42,67,60.42s.72-.16,1.16-.24a4.09,4.09,0,0,0,2.3-.76c.68-.48-.66-1.89-1.22-2.43s-3.67-3.78-4.33-4.48c0-.74-.07-2.13-.15-2.73,0-.39-.58-1.85-.62-2.31s-.18-2.45-.26-3.4c-.11-1.19-.72-3.77-.72-3.77s-.06-.13.06-.1A3.81,3.81,0,0,0,65,41.39c.49.36.61,1.21,1.34,1.29a1.33,1.33,0,0,0,1-.31A2.11,2.11,0,0,0,67.84,41c0-.83-1.11-2.93-1.64-4.38a5,5,0,0,0-1-2.27c-.27-.4-.59-.82-.59-.82a7.45,7.45,0,0,0,.1-1.17c0-.78,0-1.44,0-1.44-.47,0-1.16.76-1.48,1.28s-.32.63-.39.72a7.53,7.53,0,0,1-.71-2.26,1.77,1.77,0,0,0-.73.67A3.57,3.57,0,0,0,60.87,34a5.79,5.79,0,0,0-2.35,1,4.75,4.75,0,0,1-3.64.72,2.63,2.63,0,0,0,2.24,1.38s-.63.8-2.5.65A3,3,0,0,0,52.09,39c1.82-.13,1.62.46,3.07,1a2.08,2.08,0,0,0,1,.09s0,1.12-2.47.6A2.68,2.68,0,0,0,51,41.72a2.25,2.25,0,0,1,1.22.13c.81.36.63.94,1.53,1.32a2.49,2.49,0,0,0,1.44.2c-.69,1.23-2.83.92-2.83.92A1.92,1.92,0,0,0,54,45.41a2.86,2.86,0,0,0,1.43-.13,2.63,2.63,0,0,1-1.75,1.28,15.18,15.18,0,0,1-4.16-.64,9.14,9.14,0,0,0-2.56,0,3.89,3.89,0,0,0-1.17.45,10.31,10.31,0,0,0-2.69-1.17,14.75,14.75,0,0,0-7.63-.06c-3.61.84-5.33-.87-5.33-.87a1.43,1.43,0,0,0,.43,1.65,2.75,2.75,0,0,0,1.26.39,3.3,3.3,0,0,1-1.78.29,3.48,3.48,0,0,1-3-2,4.21,4.21,0,0,0,.58,3.16A3.38,3.38,0,0,0,31,49c1.88-.52,2.76.06,1.59.5a2.49,2.49,0,0,1-1.26.16,2.72,2.72,0,0,0,1.75.33,3.92,3.92,0,0,0,2.18-1.1c.94-.88,1-1.48,1.73-1.48s.78.33.2.88a2.69,2.69,0,0,1-1,.58s.93.36,2.56-.65a9.36,9.36,0,0,1,3.33-1.35,3.5,3.5,0,0,1,2.63.55,8.41,8.41,0,0,0-2.13,5.78c0,2.92-.09,4.22-2.34,5.45-.85.47-.57,1.53-.39,2.93a6.18,6.18,0,0,1-.51,3.64c-.47.69-1.12.62-1.25,1.25s-.63.1-.92.21a.48.48,0,0,0-.38.39,13.77,13.77,0,0,0,.08,2.19c.19.19.64,0,.86-.06A6.21,6.21,0,0,0,40,67c.82-.93.94-2.13,1.35-3.27A5,5,0,0,1,43,60.5a12,12,0,0,0,4.48-4.7,24.72,24.72,0,0,1,2.79,0,5.57,5.57,0,0,1-.83,3c-.38.72-.81.87-.81,1.55a.92.92,0,0,0,.54.82c1,.48,2.2.66,3.21,1.19a2.92,2.92,0,0,1,1.69,1.7c.18.59.8.74,1.18,1s.12.86.14,1.15.06.4.24.51c0,0,2.66.12,2.71-.1A2.35,2.35,0,0,0,57.72,65a3.55,3.55,0,0,0-1-.85,5.58,5.58,0,0,0-1.17-1.32,15.09,15.09,0,0,1-1.6-1.25c-.5-.42-1.35-.91-1.53-1.74-.06-.16,0-.26,0-.42.36-.9,1.22-1.2,1.79-2a1.61,1.61,0,0,0,.2-.57,14.06,14.06,0,0,0,1.93.53,6.88,6.88,0,0,0,2.08.18A13.74,13.74,0,0,0,62,59.81a4.42,4.42,0,0,1-.89.07,2.18,2.18,0,0,0-.75.12c-.38.19-.18.56-.46.64a.59.59,0,0,1-.64-.27c-.25-.29-1.9.54-1.9.54a.42.42,0,0,0-.23.51,3.55,3.55,0,0,0,2.36.9,8.1,8.1,0,0,0,1.49-.4,14.27,14.27,0,0,0,1.6-.48L64,61s1.5,1.16,3.42,2.53a3.47,3.47,0,0,1,1.27,1.51,3.59,3.59,0,0,0,1,2.36c.3.26.33.87.49,1.19s.36.23,1,.25A3.53,3.53,0,0,0,73,68.71C73,68.61,73,68.56,73,68.36Zm-9.3-34c.64-.08.88.06,1.61,1.26a2.56,2.56,0,0,1,.42,1,5.78,5.78,0,0,0,.66,1.77c.29.58.52,1.06.8,1.75.45,1.1,0,1.38-.21,1-.46-.89-1.07-2-1.65-3s-1.57-1.49-1.86-2S62.72,34.48,63.65,34.38Z"/></svg>