<svg id="图层_1" data-name="图层 1" xmlns="http://www.w3.org/2000/svg" viewBox="0 0 100 100"><title>logohunt03</title><path d="M61.62,37.72a5.24,5.24,0,0,1,6.92-2.64l5.28,2.35,0,.09a5.2,5.2,0,0,1-6.85,2.62l-5.32-2.38Z"/><path d="M53.93,33.56a5.24,5.24,0,0,1,4.66-5.75l5.75-.6v.09A5.18,5.18,0,0,1,59.73,33l-5.8.6Z"/><path d="M45.18,33.8a5.26,5.26,0,0,1,1.16-7.32L51,23.09l0,.07a5.18,5.18,0,0,1-1.16,7.24L45.2,33.83Z"/><path d="M37.72,38.38a5.24,5.24,0,0,1-2.64-6.92l2.35-5.28.09,0a5.19,5.19,0,0,1,2.61,6.85l-2.37,5.32Z"/><path d="M33.55,46.07a5.22,5.22,0,0,1-5.74-4.66l-.6-5.75h.09A5.18,5.18,0,0,1,33,40.27l.6,5.8Z"/><path d="M33.79,54.82a5.24,5.24,0,0,1-7.31-1.17L23.09,49l.07,0a5.18,5.18,0,0,1,7.24,1.16l3.43,4.72Z"/><path d="M38.38,62.28a5.24,5.24,0,0,1-6.92,2.64l-5.28-2.35,0-.09a5.19,5.19,0,0,1,6.85-2.61l5.32,2.37Z"/><path d="M46.07,66.44a5.22,5.22,0,0,1-4.66,5.75l-5.75.6V72.7A5.18,5.18,0,0,1,40.27,67l5.8-.6Z"/><path d="M54.82,66.21a5.17,5.17,0,0,1,.93,3.89,5.23,5.23,0,0,1-2.1,3.42L49,76.91l0-.07a5.18,5.18,0,0,1,1.16-7.24l4.72-3.42Z"/><path d="M62.28,61.62a5.24,5.24,0,0,1,2.64,6.92l-2.35,5.28-.09,0a5.19,5.19,0,0,1-2.61-6.85l2.37-5.32Z"/><path d="M66.44,53.93a5.22,5.22,0,0,1,5.75,4.66l.6,5.75H72.7A5.18,5.18,0,0,1,67,59.73l-.6-5.8Z"/><path d="M66.2,45.18a5.25,5.25,0,0,1,7.32,1.17L76.91,51l-.08,0a5.17,5.17,0,0,1-7.23-1.16L66.17,45.2Z"/></svg>