<svg id="图层_1" data-name="图层 1" xmlns="http://www.w3.org/2000/svg" viewBox="0 0 100 100"><defs><style>.cls-1{fill:#231815;}</style></defs><title>logohunt01</title><path class="cls-1" d="M58.29,38.37c.39,5.87,5.38,8.38,10.49,8.07,5.77-.34,9.68-5.24,9.68-11.16,0-11.3-12.1-19.77-27.7-19.77-17.49,0-33.22,12.11-33.22,32,0,21.66,10.89,35,31.6,35,18.29,0,27.71-9.82,28.92-27.84H67.57C66.63,64.33,61,71.19,52.91,71.19c-14,0-17.35-14.52-17.35-24.74s3.9-22.06,17.89-22.06c5.24,0,9.68,1.75,12.77,5.24-4.2-.38-8.29,3.37-7.93,8.74"/></svg>