<svg id="图层_1" data-name="图层 1" xmlns="http://www.w3.org/2000/svg" viewBox="0 0 100 100"><defs><style>.cls-1{fill:#231815;}</style></defs><title>logohunt01</title><path class="cls-1" d="M59.46,40h2.1c1.63,0,3.67.06,5.26,1.44A5.58,5.58,0,0,1,68.67,45h1v-6H59.45v1m0,10.4a8.88,8.88,0,0,1,3,.25c1.63.62,1.88,2.47,1.94,3.85h1v-9h-1c-.12,3.66-2.07,4-4.92,3.94ZM56.94,38.94H47.52v1h2.22V60.05H47.52v1H60.33v-1H57ZM34.18,45.16V57.55c0,1.28.06,1.85.75,2.22.41.25.78.25,2.16.28v1H30.36v-1c2.38,0,2.78-.21,2.82-3.28V45.16Zm7-6.22,4.11,12.81-3.14,9.31H40.69l-6.5-20.37L34,39.94h-3v-1Z"/></svg>