<svg id="图层_1" data-name="图层 1" xmlns="http://www.w3.org/2000/svg" viewBox="0 0 100 100"><defs><style>.cls-1{fill:#231815;}</style></defs><title>logohunt01</title><path class="cls-1" d="M48.24,27.31c-.34,0-.45.15-.45.54V70.92s-34-43-34.53-43.46a.38.38,0,0,0-.35-.15c-.32,0-.4.2-.4.6V72.17c0,.34.15.5.45.5s.45-.15.45-.5V29.06S38.92,61.49,47.59,72.17c.25.3.35.5.7.5s.4-.2.4-.6V27.85c0-.39-.1-.54-.45-.54"/><path class="cls-1" d="M51.54,27.41a.46.46,0,0,0-.07.69L86.64,72.45c.22.28.46.32.68.13a.46.46,0,0,0,0-.68L52.18,27.55c-.21-.28-.4-.32-.64-.14"/></svg>