<svg id="图层_1" data-name="图层 1" xmlns="http://www.w3.org/2000/svg" viewBox="0 0 100 100"><defs><style>.cls-1{fill:#231815;}</style></defs><title>logohunt01</title><path class="cls-1" d="M74.8,30.85c-4.39-5.11-13.88-11.91-24.88-4.76C40.6,20,31.32,23.58,25.05,30.85c-8.26,9.58-7.15,28.29,8,39.42C41,76.37,47.74,77,49.9,77H50c7.59.22,16.7-6.6,16.86-6.73,17.9-13.16,14.54-31.81,8-39.42m-24.89,15c-7.48-9.22,0-17,0-17S57.22,36.6,49.91,45.9ZM69.26,65a29.66,29.66,0,0,1-14.8,10.18,16,16,0,0,1-10.29-.47c-11.14-4-8.85-18.21,1.13-18.21a7.57,7.57,0,0,1,7.36,7.53,6.29,6.29,0,0,1-12,2.91h-.33a7.71,7.71,0,0,0,7,4.73,7.94,7.94,0,0,0,7.73-8.12,8.45,8.45,0,0,0-1-4,9.44,9.44,0,0,0-8.44-4.95A10.55,10.55,0,0,0,35.37,65.48a11.09,11.09,0,0,0,1.39,5.42A27.35,27.35,0,0,1,30.6,65a36.49,36.49,0,0,1-4.66-9.6,30.59,30.59,0,0,1-1.41-14.22C25.59,33,29.68,26.51,37.48,24.87c5-.84,8.35.52,10.55,2.69a13.77,13.77,0,0,0-4.49,13,14.51,14.51,0,0,0,4.55,7.92c-5.27,4.71-16.69,4-19.22-4.51h-.32c2,9.32,14,11.2,21.36,6,7.34,5.25,19.35,3.37,21.36-6H71C68.42,52.49,57,53.23,51.74,48.54v0a14.41,14.41,0,0,0,4.56-7.92,14.51,14.51,0,0,0-4.46-13c3.08-3,7.14-3.25,10.53-2.68,8.11,1.71,12,8.69,13,16.35a33.18,33.18,0,0,1-1.42,14.22A36.5,36.5,0,0,1,69.26,65Z"/></svg>