<svg id="图层_1" data-name="图层 1" xmlns="http://www.w3.org/2000/svg" viewBox="0 0 100 100"><title>logohunt03</title><path d="M49.8,41.28c.82,21.67,25.37,6.5,15.43-5,3.14,1.56,5.79.71,7.15-1.21A26.91,26.91,0,0,0,28.4,34c8.12-4.14,21-2.79,21.4,7.33"/><path d="M61.68,57.07c-3.61-.15-6.86-2.14-10.55-1.26-3.29.78-6.24,4.69-5,8.17,1.3,3.73,7.9,4.7,11.16,3.48-2,.9-1.61,3.25.15,4.18,2,1,4.87.09,6.8-.53a14.69,14.69,0,0,0,6.2-3.58,27,27,0,0,0,5.33-25.41c-.19,7.76-5.46,15.3-14.06,15"/><path d="M50.27,70.1c-2,3.45-7.73,3.93-10.46,1.37-5.36-5-.91-11.42,1-16.77,1-2.72,1.62-6.07.42-8.88-1.39-3.26-5.2-4.73-8.4-5.2a13.71,13.71,0,0,0-8.62,1.62,26.91,26.91,0,0,0,32.93,33.7,14.25,14.25,0,0,1-2.11-.34c-2.79-.64-5-2.47-4.78-5.5"/></svg>