<svg id="图层_1" data-name="图层 1" xmlns="http://www.w3.org/2000/svg" viewBox="0 0 100 100"><defs><style>.cls-1{fill:#231815;}</style></defs><title>logohunt02</title><path class="cls-1" d="M41.58,49.2l-1.81-3.51,3.72-1.09-1.91,4.6m1.91,6.21-3.72-1.08,1.81-3.52Zm10.92,5.9.94,2.24a14.56,14.56,0,0,1-4.45,1Zm-8.82,0,3.5,3.22a14.28,14.28,0,0,1-4.44-1ZM39,55l.14,4.59A14.28,14.28,0,0,1,36.73,56ZM39,45,36.73,44a14.51,14.51,0,0,1,2.36-3.66Zm6.64-6.27-.94-2.23a14.28,14.28,0,0,1,4.45-1Zm8.81,0-3.5-3.22a14.28,14.28,0,0,1,4.45,1Zm1.69,4.73L55,39.64l4.75.14Zm-1.77-3.65,1.08,3.71-4.59-1.9Zm-8.26-.58L50,35.57l3.94,3.63-3.94,2Zm-.38.58,3.51,1.81-4.59,1.9Zm-1.88,4L39.63,45l.16-5.22L45,39.64ZM39.2,54,35.56,50l3.64-3.95,2,3.95Zm4.6,2.26L45,60.38l-5.22-.17L39.63,55Zm1.88,4L44.6,56.52l4.59,1.9Zm8.26.57L50,64.44l-3.94-3.63,3.94-2Zm.38-.57-3.51-1.82,4.59-1.9Zm5.42,0L55,60.38l1.1-3.8ZM59.62,39.1,55,39,56,36.74a14.28,14.28,0,0,1,3.65,2.36M44,36.74,45,39l-4.59.15A14.51,14.51,0,0,1,44,36.74m-7.57,7.92,2.24.94-3.23,3.5a14.57,14.57,0,0,1,1-4.44m-1,6.25,3.23,3.5-2.24,1a14.64,14.64,0,0,1-1-4.45m4.9,10,4.59.14L44,63.27a14.51,14.51,0,0,1-3.66-2.36M56,63.27,55,61.05l4.58-.14A14.28,14.28,0,0,1,56,63.27m4.89-2.79a.1.1,0,0,0,0-.07s0,0,0-.06a.05.05,0,0,0,0-.05l-4.61-4.61h0l-.08,0h-.28L50,58l-5.67-2.35L42,50l2.34-5.67L50,42l5.79,2.4h.12a0,0,0,0,0,0,0h.13l0,0,.06,0h0l4.61-4.6h0s0,0,0,0,0,0,0-.06a.15.15,0,0,0,0-.09s0,0,0,0h0s0-.07,0-.1a0,0,0,0,1,0,0s0,0,0,0,0-.05-.06-.07h0A15.22,15.22,0,0,0,50,34.77h0A15,15,0,0,0,44.07,36h0a15,15,0,0,0-4.85,3.26A15.21,15.21,0,0,0,36,44.07h0A15.08,15.08,0,0,0,34.76,50h0a15.22,15.22,0,0,0,4.46,10.77h0a15.21,15.21,0,0,0,21.54,0h0a.25.25,0,0,0,0-.07l0,0h0a.13.13,0,0,0,0-.06s0,0,0-.07h0s0,0,0-.05"/><path class="cls-1" d="M50,69.53A19.53,19.53,0,1,1,69.53,50,19.55,19.55,0,0,1,50,69.53M50,29A21,21,0,1,0,71,50,21,21,0,0,0,50,29"/></svg>