<svg id="图层_1" data-name="图层 1" xmlns="http://www.w3.org/2000/svg" viewBox="0 0 100 100"><title>logohunt02</title><path d="M20.54,63.05a1.76,1.76,0,0,0,1.27-2c0-1.71,0-3.42,0-5.12,0-.72.23-1,.93-.93,1.32,0,2.64.06,4,0,.8,0,1.18.21,1,1-.17,1.07.27,1.35,1.34,1.34q20.62,0,41.27,0a5.91,5.91,0,0,0,1.26-.11,1.86,1.86,0,0,0-.06-3.64,6.29,6.29,0,0,0-1.15-.08h-47c-1.58,0-1.59,0-1.59-1.54V39.81c0-.91,0-1.78-1.26-1.77.11-.54.45-.35.67-.35,8.14,0,16.27,0,24.41,0a7.14,7.14,0,0,1,7.26,7.09c0,1-.19,1.59-1.42,1.51-1.75-.12-3.52,0-5.65,0,1-.65,1.37-1.24,1-2s-1.15-.79-1.89-.8c-5.38,0-10.77,0-16.15,0-.87,0-1.19.22-1.1,1.1a9.13,9.13,0,0,1,0,2.09c-.13,1.06.31,1.28,1.3,1.28q18.43,0,36.86,0c2,0,4,0,6,0a7.6,7.6,0,0,1,.2,15.17c-.89.05-1.78,0-2.67,0l-47.79,0C21.28,63.11,20.91,63.07,20.54,63.05Z"/></svg>