<svg id="图层_1" data-name="图层 1" xmlns="http://www.w3.org/2000/svg" viewBox="0 0 100 100"><defs><style>.cls-1{fill:#afafb0;}</style></defs><title>logohunt02</title><path class="cls-1" d="M36.51,49.47s5.29-5,12.3-3.64c-2.62-2-8.57-5.79-16.91.87C24.71,52.43,21,51.09,21,51.09,37.42,65,47.7,50.72,49.76,47.42c-2.25-1-6.74-1.91-13.25,2"/><path class="cls-1" d="M63.48,49.47s-5.28-5-12.29-3.64c2.62-2,8.57-5.79,16.91.87C75.29,52.43,79,51.09,79,51.09,62.58,65,52.3,50.72,50.24,47.42c2.25-1,6.73-1.91,13.24,2"/></svg>