<svg id="图层_1" data-name="图层 1" xmlns="http://www.w3.org/2000/svg" viewBox="0 0 100 100"><title>logohunt03</title><path d="M41,61.12l6.6-6.61a3.12,3.12,0,0,1,4.76,0L59,61.12a2.76,2.76,0,0,1-3.9,3.9l-.62-.62v3.86H67.13a1.13,1.13,0,0,0,1.13-1.13V60.38a2.27,2.27,0,0,1,2.27-2.27h4.39a2.27,2.27,0,0,1,2.26,2.27v13.3a3.49,3.49,0,0,1-3.5,3.5H47.8a2.26,2.26,0,0,1-2.26-2.26V64.4l-.62.62a2.76,2.76,0,0,1-3.9-3.9"/><path d="M38.89,41l6.6,6.6a3.11,3.11,0,0,1,0,4.76L38.89,59A2.76,2.76,0,0,1,35,55.08l.62-.62H31.74V67.13a1.14,1.14,0,0,0,1.13,1.13h6.75a2.27,2.27,0,0,1,2.27,2.27v4.39a2.27,2.27,0,0,1-2.27,2.26H26.32a3.5,3.5,0,0,1-3.5-3.5V47.8a2.26,2.26,0,0,1,2.26-2.26H35.6L35,44.92A2.76,2.76,0,0,1,38.89,41"/><path d="M59,38.89l-6.6,6.6a3.11,3.11,0,0,1-4.76,0L41,38.89A2.76,2.76,0,1,1,44.92,35l.62.62V31.74H32.87a1.13,1.13,0,0,0-1.13,1.13v6.75a2.27,2.27,0,0,1-2.27,2.26H25.08a2.26,2.26,0,0,1-2.26-2.26V26.32a3.5,3.5,0,0,1,3.5-3.5H52.2a2.26,2.26,0,0,1,2.26,2.26V35.6l.62-.62A2.76,2.76,0,0,1,59,38.89"/><path d="M61.11,59l-6.6-6.6a3.11,3.11,0,0,1,0-4.76l6.6-6.6A2.76,2.76,0,1,1,65,44.92l-.62.62h3.86V32.87a1.13,1.13,0,0,0-1.13-1.13H60.38a2.27,2.27,0,0,1-2.27-2.27V25.08a2.27,2.27,0,0,1,2.27-2.26h13.3a3.49,3.49,0,0,1,3.5,3.5V52.19a2.26,2.26,0,0,1-2.26,2.27H64.4l.62.62A2.76,2.76,0,1,1,61.11,59"/></svg>