<svg id="图层_1" data-name="图层 1" xmlns="http://www.w3.org/2000/svg" viewBox="0 0 100 100"><defs><style>.cls-1{fill:#231815;}</style></defs><title>logohunt01</title><path class="cls-1" d="M50,28.28A21.72,21.72,0,1,0,71.72,50,21.71,21.71,0,0,0,50,28.28M58.63,64a1.82,1.82,0,1,1,1.81-1.82A1.82,1.82,0,0,1,58.63,64ZM59,44.41c0,.71,1.37.85,1.36,2.22a1.56,1.56,0,0,1-1.69,1.55,2.17,2.17,0,0,1-2.21-2.4c0-2.31,2.4-5.84,2.4-6.69,0-.52-.76-.66-1.7-.66H54.43c-.76,0-1.41,0-1.41,1.08V64.1c0,1.32,4.52,2.69,4.52,4.1,0,1-2.69,1.51-3.4,1.51-1,0-2.11-.28-4.23-.28-1.94,0-3,.28-4,.28-.71,0-3.4-.56-3.4-1.51,0-1.41,4.53-2.78,4.53-4.1V39.51c0-1-.66-1.08-1.42-1.08H42.84c-.94,0-1.69.14-1.69.66,0,.85,2.4,4.38,2.4,6.69a2.19,2.19,0,0,1-2.22,2.4,1.57,1.57,0,0,1-1.69-1.55c0-1.37,1.36-1.51,1.36-2.21,0-1.42-6.92-4.86-6.92-6.84,0-1.41,1.46-1.88,2.59-1.88H63.33c1.13,0,2.59.47,2.59,1.88C65.92,39.56,59,43,59,44.41Z"/></svg>