<svg id="图层_1" data-name="图层 1" xmlns="http://www.w3.org/2000/svg" viewBox="0 0 100 100"><defs><style>.cls-1{fill:#231815;}</style></defs><title>logohunt01</title><path class="cls-1" d="M58.54,60.8A6.73,6.73,0,0,0,60,56.44a6.64,6.64,0,0,0-2.49-5.12,10.32,10.32,0,0,0-1.78-1.24c-.61-.34-1.1-.55-1.32-.67-1.24-.65-4.25-1.69-6.95-3.16-2.53-1.37-5.86-3.64-6-7a6.81,6.81,0,0,0,1,9.48,10.32,10.32,0,0,0,1.78,1.24c.61.33,1.1.55,1.32.67,1.24.65,4.25,1.69,6.95,3.15,2.53,1.38,5.85,3.65,6,7.06m-10-26.47h.24v1.34h-.21c-2.79.24-5.11,1.38-5.11,3.31,0,2.22,2.25,4.06,5,5.53s5.69,2.5,6.93,3.15c.23.13.73.35,1.35.69a11.78,11.78,0,0,1,2.12,1.48A8.6,8.6,0,0,1,62,56.44c0,5.5-4.1,9-10.5,9.22l-.24,0V64.34l.21,0c2.79-.23,5.11-1.37,5.11-3.3,0-2.23-2.25-4.06-5-5.54s-5.7-2.49-6.93-3.15c-.23-.12-.73-.34-1.35-.68a12.14,12.14,0,0,1-2.12-1.48A8.6,8.6,0,0,1,38,43.56c0-5.51,4.09-9,10.5-9.23m11.19,1.39v7.1H58.66l0-.2c-.33-1.94-.58-4.67-.68-5.28a26.7,26.7,0,0,0-5.45-1.61l-.21,0V34.39h.23a29.16,29.16,0,0,1,4.77.7c1.34.3,2.42.63,2.42.63m-20,28.62v-7.1h1l0,.19c.33,1.93.58,4.67.68,5.29A26.7,26.7,0,0,0,47,64.33l.22,0v1.32h-.24A28.47,28.47,0,0,1,42.17,65c-1.34-.3-2.42-.63-2.42-.63M50,73.07A23.07,23.07,0,1,0,26.93,50,23.07,23.07,0,0,0,50,73.07M50,75A25,25,0,1,1,75,50,25,25,0,0,1,50,75"/></svg>