<svg id="图层_1" data-name="图层 1" xmlns="http://www.w3.org/2000/svg" viewBox="0 0 100 100"><defs><style>.cls-1{fill:#231815;}.cls-2{fill:#fff;}</style></defs><title>logohunt01</title><path class="cls-1" d="M71.24,50.75A3.72,3.72,0,0,0,69,50.07a3.6,3.6,0,0,0-2.2.68,5.5,5.5,0,0,1-3.17,1,5.41,5.41,0,0,1-3.17-1,3.66,3.66,0,0,0-2.22-.68,2.93,2.93,0,0,0-2.84,1.46c-.68,1.67-2.8,2.89-5.32,2.89-3.07,0-5.55-2.27-5.55-4s2.48-4,5.55-4a6.23,6.23,0,0,1,4.72,1.92h0l0,.05a1,1,0,0,0,1.13.33,5.18,5.18,0,0,1,2.26-.45,5.36,5.36,0,0,1,3.17,1,3.66,3.66,0,0,0,2.22.68,3.6,3.6,0,0,0,2.2-.68,5.5,5.5,0,0,1,3.17-1,5.39,5.39,0,0,1,3.18,1,3.7,3.7,0,0,0,2.23.68,3.65,3.65,0,0,0,2.21-.68l.54-.32a27.26,27.26,0,1,0,0,2.14,5.13,5.13,0,0,1-2.75.71,5.37,5.37,0,0,1-3.18-1"/><path class="cls-2" d="M54.82,48.29l0,.05,0-.05"/><path class="cls-2" d="M54.81,48.28h0"/></svg>