<svg id="图层_1" data-name="图层 1" xmlns="http://www.w3.org/2000/svg" viewBox="0 0 100 100"><defs><style>.cls-1{fill:#231815;}</style></defs><title>logohunt02</title><path class="cls-1" d="M52.38,41.67v-.4c0-1.14-.8-1.7-2.26-1.7H48.21v3.86H50c1.67,0,2.37-.62,2.37-1.76m-2.13,4.79h-2V50.7h1.92c1.86,0,2.57-.78,2.57-2v-.31C52.7,47.19,52,46.46,50.25,46.46ZM33.35,28.72V71.28l6.88-9.18H66.65V28.72Zm17.2,25.89H42.61V35.43h7.65c4.49,0,7.69,1.17,7.69,5.16,0,2.83-2.1,3.71-4.23,4.15,2.19.35,4.72,1.17,4.72,4.67S55.86,54.61,50.55,54.61Z"/></svg>