<svg id="图层_1" data-name="图层 1" xmlns="http://www.w3.org/2000/svg" viewBox="0 0 100 100"><title>logohunt03</title><path d="M56.24,66.82c9.61,9.56,7.9,3,10.92,0s10.07-1.36,0-10.93C64.08,53,55,48.54,51.93,51.56s1.28,12.25,4.31,15.26"/><path d="M66.54,44.08c9.56-9.61,3-7.9,0-10.92s-1.36-10.07-10.93,0c-2.94,3.09-7.36,12.23-4.34,15.25s12.25-1.29,15.26-4.32"/><path d="M43.46,33.9c-9.43-9.38-7.76-3-10.72,0s-9.88,1.33,0,10.72c3,2.89,12,7.23,15,4.27s-1.26-12-4.23-15"/><path d="M33.35,56.21c-9.38,9.44-3,7.76,0,10.73s1.33,9.88,10.72,0c2.88-3,7.22-12,4.26-15s-12,1.27-15,4.23"/></svg>