<svg id="图层_1" data-name="图层 1" xmlns="http://www.w3.org/2000/svg" viewBox="0 0 100 100"><title>logohunt03</title><path d="M41.92,44.38s9.49-6.94,14-7.25S64.32,38.52,67.19,39,77,37.29,77,37.29s-8.21,6.47-14.43,7.55c-4.49.78-7.34-1.23-11.37-2s-9.28,1.54-9.28,1.54"/><path d="M32.46,53.32s9.49-6.94,14-7.24,8.37,1.38,11.23,1.85,9.82-1.7,9.82-1.7-8.21,6.48-14.43,7.55c-4.49.78-7.34-1.23-11.37-2s-9.28,1.54-9.28,1.54"/><path d="M23,62.26S32.49,55.33,37,55s8.37,1.39,11.23,1.85,9.82-1.7,9.82-1.7-8.21,6.48-14.43,7.56c-4.49.78-7.34-1.24-11.37-2S23,62.26,23,62.26"/></svg>