<svg id="图层_1" data-name="图层 1" xmlns="http://www.w3.org/2000/svg" viewBox="0 0 100 100"><title>logohunt03</title><path d="M43.57,70.58V43.84a6.55,6.55,0,0,1,13.09,0V70.58a6.55,6.55,0,0,1-13.09,0"/><path d="M56.78,29.66A6.78,6.78,0,1,1,50,22.88a6.79,6.79,0,0,1,6.78,6.78"/><path d="M59.5,70.58V58.9a6.55,6.55,0,0,1,13.09,0V70.58a6.55,6.55,0,0,1-13.09,0"/><path d="M72.71,44.71a6.78,6.78,0,1,1-6.78-6.78,6.78,6.78,0,0,1,6.78,6.78"/><path d="M27.64,70.58V58.9a6.55,6.55,0,0,1,13.09,0V70.58a6.55,6.55,0,0,1-13.09,0"/><path d="M40.85,44.71a6.78,6.78,0,1,1-6.78-6.78,6.77,6.77,0,0,1,6.78,6.78"/></svg>