<svg id="图层_1" data-name="图层 1" xmlns="http://www.w3.org/2000/svg" viewBox="0 0 100 100"><defs><style>.cls-1{fill-rule:evenodd;}</style></defs><title>logohunt03</title><path class="cls-1" d="M54.58,56.34c-.32-.19-1.25-.68-1.57-.87l1.82-3.24,1.33.78a14.31,14.31,0,0,1-1.58,3.33"/><path d="M38.5,32.24c4,1.93,9.39,8.35,12.07,12,2.08,2.81,4,6.08,4.36,9a6.24,6.24,0,0,1-.36,3.14A14,14,0,0,0,57,51.89c1.13-3.32-.83-7-3.42-10.42-2.16-2.81-7.27-8.88-10.34-10.53a5,5,0,0,0-2.72-.7Z"/><path class="cls-1" d="M45.24,56.34c.33-.19,1.25-.68,1.57-.87L45,52.23,43.66,53a14.31,14.31,0,0,0,1.58,3.33"/><path d="M61.51,32.16c-4,1.92-9.58,8.43-12.26,12.05-2.07,2.81-4,6.08-4.36,9a6.24,6.24,0,0,0,.36,3.14,14,14,0,0,1-2.47-4.46c-1.13-3.32.83-7,3.42-10.42,2.16-2.81,7.27-8.88,10.34-10.53a6.31,6.31,0,0,1,2.8-.7Z"/><path class="cls-1" d="M47.61,26.32c0,1.91-1.17,3.48-2.68,3.5s-2.74-1.51-2.76-3.42,1.17-3.47,2.67-3.49,2.74,1.5,2.77,3.41"/><path class="cls-1" d="M57.27,26.32c0,1.91-1.17,3.48-2.67,3.5s-2.74-1.51-2.77-3.42S53,22.93,54.5,22.91s2.74,1.5,2.77,3.41"/><path d="M54,59.45a2.75,2.75,0,0,0-.86-1.24c-2.67-2.37-5.51,3.67-5.19,6.94.43,4.3,2.72,10,4.56,11.93h-8a17.51,17.51,0,0,1-.7-3c-.73-4.71.24-12.12,4.23-15.64,1.41-1.23,3.89-1.84,5.3-.31a2.8,2.8,0,0,1,.43.63c.09.3.17.51.24.74"/><path d="M42.14,57.08a10.69,10.69,0,0,0,4.5,4.73c2.15,1,6.53,1.14,6.91-2a2.82,2.82,0,0,0-.24-1.51A3.45,3.45,0,0,0,53,57.8l.18.15a2.94,2.94,0,0,1,.86,2c.19,4.55-4.43,5.15-8,4.69a8.41,8.41,0,0,1-6.71-4.31Z"/><path class="cls-1" d="M47.47,53c0,1.73,1.07,3.15,2.43,3.17s2.48-1.37,2.51-3.1S51.35,49.87,50,49.85,47.5,51.22,47.47,53"/><path d="M41.66,30.33C31.31,34.44,34.17,52.78,38.51,61A76,76,0,0,0,50,77.08c-3.36,0-8.1,0-11.46,0a77,77,0,0,1-6.18-15.75c-2.74-9.53-5.2-23,3.28-29.14,1.63-1.19,4-2.26,6-1.85"/><path d="M58.34,30.33c10.35,4.11,7.49,22.45,3.15,30.7A76,76,0,0,1,50,77.08c3.36,0,8.1,0,11.46,0a77.88,77.88,0,0,0,6.18-15.76c2.74-9.53,5.2-23-3.28-29.14-1.63-1.19-4-2.26-6-1.85"/><path class="cls-1" d="M50,77.08a7.89,7.89,0,0,0,6.15-4.49l8,2.34c0,.65-1.37,2.11-2.65,2.14-3.79,0-7.67.06-11.46,0"/></svg>