<svg id="图层_1" data-name="图层 1" xmlns="http://www.w3.org/2000/svg" viewBox="0 0 100 100"><title>logohunt03</title><path d="M33.41,72.14c.48,1.71-.54,3.1-2.55,3.1s-3-1.39-2.55-3.1c3-15.11-5.22-29.48-2.2-44.59.48-1.71,2.73-3.1,4.75-3.1s4.26,1.39,4.75,3.1c3,15.11-5.22,29.48-2.2,44.59"/><path d="M42.89,27.86c.49-1.71-.53-3.1-2.54-3.1s-3,1.39-2.55,3.1c3,15.11-5.22,29.48-2.21,44.59.49,1.71,2.74,3.1,4.76,3.1s4.26-1.39,4.75-3.1c3-15.11-5.22-29.48-2.21-44.59"/><path d="M52.38,72.14c.49,1.71-.53,3.1-2.55,3.1s-3-1.39-2.54-3.1c3-15.11-5.22-29.48-2.21-44.59.49-1.71,2.74-3.1,4.75-3.1s4.27,1.39,4.75,3.1c3,15.11-5.21,29.48-2.2,44.59"/><path d="M71.69,72.14c.49,1.71-.53,3.1-2.55,3.1s-3-1.39-2.54-3.1c3-15.11-5.22-29.48-2.21-44.59.49-1.71,2.74-3.1,4.75-3.1s4.27,1.39,4.75,3.1c3,15.11-5.21,29.48-2.2,44.59"/><path d="M61.87,27.86c.48-1.71-.53-3.1-2.55-3.1s-3,1.39-2.55,3.1c3,15.11-5.21,29.48-2.2,44.59.49,1.71,2.74,3.1,4.75,3.1s4.27-1.39,4.75-3.1c3-15.11-5.21-29.48-2.2-44.59"/></svg>