<svg id="图层_1" data-name="图层 1" xmlns="http://www.w3.org/2000/svg" viewBox="0 0 100 100"><defs><style>.cls-1{fill:#231815;}</style></defs><title>logohunt02</title><path class="cls-1" d="M57.44,60.07C55.66,63,52.18,64.6,47.36,64.6S39,63,37.22,60.07c-1.33-2-1.9-4.14-1.9-7.71V36A.6.6,0,0,1,36,35.4h4.38A.6.6,0,0,1,41,36V51a16.12,16.12,0,0,0,.51,5c.88,2.23,3.61,3.25,5.83,3.25s5-1,5.83-3.25a14.5,14.5,0,0,0,.57-5V36a.6.6,0,0,1,.63-.64H58.7a.6.6,0,0,1,.64.64V52.36c0,3.57-.57,5.68-1.9,7.71"/><path class="cls-1" d="M71.65,47.59l-3.82,2.95a5.83,5.83,0,0,1-3.25.32c-3.1-.47-4.47-4.64-5-6.23A4.64,4.64,0,0,0,54,41.37a5.27,5.27,0,0,0-2.66,2l-2.33,1,1.79.17A3.62,3.62,0,0,1,52.88,48c.26,3.34,2.21,6.94,7,7.19h.24l-3.06,3,.54.55,3.7-3.68a7.49,7.49,0,0,0,.8-.15l.11,0a20.37,20.37,0,0,0,6.22-3L74,48.52l-2.35-.93"/></svg>