<svg id="图层_1" data-name="图层 1" xmlns="http://www.w3.org/2000/svg" viewBox="0 0 100 100"><title>logohunt03</title><path d="M44.62,41.73a8.83,8.83,0,0,0,.54-1.94,8.19,8.19,0,0,0,3.45-1.24c0-.09-.08-1.55-.09-1.64A8.3,8.3,0,0,0,45,36a9.54,9.54,0,0,0-.71-1.89,8.8,8.8,0,0,0,1.26-1.5L30.17,23.77a2.31,2.31,0,0,0-3.47,2V40.53c.13,0,.26,0,.4,0a8.93,8.93,0,0,0,.7,1.89,9.63,9.63,0,0,0-1.1,1.28v2.93l.08.1a8.29,8.29,0,0,0,3.36-1.37,9.69,9.69,0,0,0,1.67,1.11,8.47,8.47,0,0,0,.12,3.67l1.59.42a8.3,8.3,0,0,0,1.92-3.08,9.11,9.11,0,0,0,1.05,0c.32,0,.64-.05,1-.1a8.19,8.19,0,0,0,2.25,2.89l1.53-.59A8.39,8.39,0,0,0,41,46.12a10.57,10.57,0,0,0,1.57-1.26,8.08,8.08,0,0,0,3.53,1L47,44.5a8.44,8.44,0,0,0-2.34-2.77M39.3,39.12a3.35,3.35,0,1,1-2.43-4.06,3.36,3.36,0,0,1,2.43,4.06"/><path d="M52.89,36.88c-.39.22-.79.46-.83.49A8.8,8.8,0,0,0,52.88,41a11.22,11.22,0,0,0-1.09,1A8.73,8.73,0,0,0,48,41c0,.08-.89,1.42-.94,1.5a8.85,8.85,0,0,0,2.45,2.88A11.14,11.14,0,0,0,49,46.73a9,9,0,0,0-3.84.85c0,.1-.13,1.67-.14,1.77a8.79,8.79,0,0,0,3.5,1.41,6.84,6.84,0,0,0,.08.9,4.86,4.86,0,0,0,.1.55,8.88,8.88,0,0,0-3,2.53l.7,1.64A9.08,9.08,0,0,0,50.12,56,10.24,10.24,0,0,0,51,57.23a8.79,8.79,0,0,0-1.46,3.6L50.89,62a8.8,8.8,0,0,0,3.09-2,13.1,13.1,0,0,0,1.34.7,10.78,10.78,0,0,0,0,1.11L72.14,52a2.32,2.32,0,0,0,0-4Zm7.34,17.69a4.48,4.48,0,1,1,4.28-4.67,4.49,4.49,0,0,1-4.28,4.67"/><path d="M44.31,62.29a8.78,8.78,0,0,0,3.11-1.41l-.18-1.76A9,9,0,0,0,44,58.38a7.43,7.43,0,0,0-.83-1.64,8.69,8.69,0,0,0,1.2-3.2L43,52.43a8.48,8.48,0,0,0-2.82,1.77,7.55,7.55,0,0,0-1.76-.57A8.53,8.53,0,0,0,37,50.52l-1.75.18A8.74,8.74,0,0,0,34.49,54a7.47,7.47,0,0,0-1.64.84,8.9,8.9,0,0,0-3.2-1.21L28.54,55a8.62,8.62,0,0,0,1.78,2.83,7.65,7.65,0,0,0-.58,1.75,8.72,8.72,0,0,0-3,1.37V74.23a2.32,2.32,0,0,0,3.48,2l14.55-8.4a5,5,0,0,0,.78-1,8.68,8.68,0,0,0-1.78-2.82,7.73,7.73,0,0,0,.58-1.76M34.13,60a3,3,0,1,1,2,3.8,3,3,0,0,1-2-3.8"/></svg>