<svg id="图层_1" data-name="图层 1" xmlns="http://www.w3.org/2000/svg" viewBox="0 0 100 100"><title>logohunt02</title><path d="M49.3,55.9V46.78c0-1.38.65-1.83,2-1.45.69.2.5.73.52,1.18.08,1.78.07,1.79,1.79,1.79s3.68.08,5.5-.06c2.41-.19,2.56-1,2.51-2.68-.07-2.55,0-5.11,0-7.67,0-2.19-.47-2.7-2.7-2.71-3,0-6,0-9,0-1.54,0-1.63-.13-1.55-1.67,0-.79.33-1.27,1.2-1.27,2.9,0,5.81-.19,8.68.08a9.42,9.42,0,0,1,4.13.94,3.84,3.84,0,0,1,2.18,3.58c0,3,0,6,0,9,0,3.24-1.72,5-5,5.19-2,.09-4,0-5.94,0-1.69,0-1.74.05-1.74,1.69,0,3.53.09,7.06-.05,10.58A2.47,2.47,0,0,0,54.53,66c2.8,0,5.6,0,8.4,0a1.61,1.61,0,0,1,1.56,2.44.8.8,0,0,1-.83.47c-3.61-.11-7.23.29-10.84-.2A5.48,5.48,0,0,1,50,67.13a2.52,2.52,0,0,1-.7-2.1Z"/><path d="M46.33,59.78c0,2.65,0,5.3,0,8,0,.87-.34,1.27-1.18,1.25a39.75,39.75,0,0,1-5.77-.19c-2.51-.42-3.82-1.9-3.81-4.39V55c0-2.09.7-3.22,2.59-3.87,2.37-.83,4.86-.68,7.31-.59.8,0,.84.77.84,1.43,0,2.6,0,5.2,0,7.81Zm-2.77,0h0c0-1.25,0-2.5,0-3.75.06-2.76.18-2.67-2.84-2.63a4.61,4.61,0,0,0-1.36.44,1.28,1.28,0,0,0-1,1.39c0,3.08,0,6.16,0,9.24,0,.55.26.8.74,1.08A5.47,5.47,0,0,0,42,66c1.39,0,1.5-.11,1.51-1.46C43.57,63,43.56,61.4,43.56,59.81Z"/><path d="M40.83,38c-1.45,0-2.9-.05-4.34,0-1.07,0-1.18-.59-1.19-1.38s.13-1.48,1.15-1.46a5.61,5.61,0,0,1,.58,0c1,.12,1.37-.41,1.28-1.37a11.28,11.28,0,0,1,0-1.3c0-1.47.07-1.47,1.59-1.47.75,0,1.06.29,1.09,1,0,.48,0,1,0,1.45.05,1.69.05,1.69,1.8,1.7h2.31c1,0,1.25.6,1.21,1.43S46.24,38,45.18,38c-1.45,0-2.9,0-4.35,0Z"/><path d="M40.75,48.35c-1.44,0-2.88,0-4.32,0-1.21,0-1.08-.83-1.1-1.59s0-1.46,1.1-1.46c2.93,0,5.86,0,8.79,0,.93,0,1.11.44,1.13,1.9,0,.83-.37,1.13-1.13,1.12Z"/><path d="M40.81,40.21c1.44,0,2.89,0,4.34,0,1,0,1.22.54,1.22,1.37,0,1.14-.25,1.54-1.19,1.55-2.9,0-5.79,0-8.68,0-1,0-1.22-.55-1.2-1.38s0-1.58,1.17-1.54c1.44,0,2.89,0,4.34,0Z"/></svg>