<svg id="图层_1" data-name="图层 1" xmlns="http://www.w3.org/2000/svg" viewBox="0 0 100 100"><title>logohunt03</title><path d="M67.83,57.85a20.31,20.31,0,0,1-4.17,5.83v4.78a23.94,23.94,0,0,0,9-13.28l-4.15,2.39a2.38,2.38,0,0,1-.68.28"/><path d="M50,29.06a20,20,0,0,1,8.56,2.12l3.67-2.12a23.69,23.69,0,0,0-12.68-3.67,24.25,24.25,0,0,0-4.85.5l4.73,2.73a2.71,2.71,0,0,1,.57.44"/><path d="M37.49,65.42A20.22,20.22,0,0,1,30.1,54.64l-4.2-2.42A23.91,23.91,0,0,0,37.51,69.81c0-.13,0-.25,0-.38Z"/><path d="M24,33.73a1,1,0,0,0-1.51.87V46.41A3,3,0,0,0,24,49l10.23,5.91a1,1,0,0,0,1.51-.87V42.24a3,3,0,0,0-1.51-2.61Z"/><path d="M48.53,31.94a1,1,0,0,0,0-1.74L38.29,24.3a3,3,0,0,0-3,0L25.05,30.2a1,1,0,0,0,0,1.74l10.23,5.91a3,3,0,0,0,3,0Z"/><path d="M51.06,34.6a1,1,0,0,0-1.5-.87l-10.24,5.9a3,3,0,0,0-1.5,2.61V54.06a1,1,0,0,0,1.5.87L49.56,49a3,3,0,0,0,1.5-2.61Z"/><path d="M75.2,36.56a.85.85,0,0,0,0-1.47l-8.61-5a2.56,2.56,0,0,0-2.54,0l-8.62,5a.85.85,0,0,0,0,1.47l8.62,5a2.56,2.56,0,0,0,2.54,0Z"/><path d="M54.42,38.14a.85.85,0,0,0-1.27.73v10A2.54,2.54,0,0,0,54.42,51L63,56a.84.84,0,0,0,1.27-.73V45.31A2.54,2.54,0,0,0,63,43.12Z"/><path d="M77.49,38.87a.85.85,0,0,0-1.27-.73l-8.62,5a2.57,2.57,0,0,0-1.27,2.2v9.95A.85.85,0,0,0,67.6,56l8.62-5a2.56,2.56,0,0,0,1.27-2.2Z"/><path d="M59.64,58a.78.78,0,0,0,0-1.34l-7.9-4.56a2.31,2.31,0,0,0-2.33,0l-7.9,4.56a.78.78,0,0,0,0,1.34l7.9,4.56a2.36,2.36,0,0,0,2.33,0Z"/><path d="M40.47,59.64a.77.77,0,0,0-1.16.67v9.12a2.33,2.33,0,0,0,1.16,2L48.37,76a.78.78,0,0,0,1.17-.67V66.21a2.32,2.32,0,0,0-1.17-2Z"/><path d="M61.84,60.31a.78.78,0,0,0-1.17-.67L52.78,64.2a2.32,2.32,0,0,0-1.17,2v9.12a.78.78,0,0,0,1.17.67l7.89-4.56a2.32,2.32,0,0,0,1.17-2Z"/></svg>