<svg id="图层_1" data-name="图层 1" xmlns="http://www.w3.org/2000/svg" viewBox="0 0 100 100"><defs><style>.cls-1{fill:#231815;}</style></defs><title>logohunt02</title><path class="cls-1" d="M50,34.9A3,3,0,0,0,47.72,32l-.08,0a2.79,2.79,0,0,0-.33-.06h0A9.7,9.7,0,0,0,46,31.82c-5.62,0-8.93,4.75-9.4,8.41,0,.23,0,.45,0,.67s0,.3,0,.45l.8-.16.39-.07.73-.13c3.71-.64,7.84-1.33,10-3.37a6.76,6.76,0,0,0,1.12-1.43v0A2.77,2.77,0,0,0,50,34.9M45.43,66.64a8.63,8.63,0,0,0-.51-2.74c-.31.21-.6.42-.88.64a6.64,6.64,0,0,0-2.73,4.84,3,3,0,0,0,.1.78l.18.06a14.25,14.25,0,0,1,1.42.69,3.55,3.55,0,0,0,.5-.33A4.8,4.8,0,0,0,45.43,66.64ZM43.91,62.3l.27-.21A28.62,28.62,0,0,0,42.5,59.2c-.78-1.25-1.57-2.34-2.34-3.39l-.54-.7c-.87-1.27-1.77-2.47-2.51-3.78a19.36,19.36,0,0,1-2.47-6.83l-.06,0a20,20,0,0,0-6,2.5,2.58,2.58,0,0,0-.5.4,4.85,4.85,0,0,0-1.55,3.45l0,0c.34,2.73,2.26,5.11,3.27,7.54,1.15,2.78,1.46,6.2,3.55,8.29,1.65,1.65,4.11,2.19,6.44,2.91A10.56,10.56,0,0,1,43.91,62.3Zm19.75-3.25a11,11,0,0,1-4.1-.73l-.07,0a3.21,3.21,0,0,1-.45-.19L58.86,58l0,0c-.23-.11-.43-.22-.63-.33C54.31,59.51,50.3,61,47.26,62.55a13.44,13.44,0,0,1,.21,2.2,9.25,9.25,0,0,1-3,7A11.63,11.63,0,0,0,50,73.58c3.09,0,5.7-2.24,8.38-3.36s6.2-1.45,8.3-3.55,2.4-5.51,3.55-8.29a21.38,21.38,0,0,1,1.13-2.24,11.32,11.32,0,0,1-5.5,2.74A12.79,12.79,0,0,1,63.66,59.05Zm7.73-15a14,14,0,0,1-5.34,9A35.27,35.27,0,0,1,59.73,57a9.91,9.91,0,0,0,4,.76A9.17,9.17,0,0,0,66,57.45a10,10,0,0,0,4.87-2.81l1.36-1.7a15.48,15.48,0,0,0,1.09-2,1.17,1.17,0,0,1,.17-.28,4.77,4.77,0,0,0,0-.66C73.53,47.83,72.44,45.9,71.39,44Zm-14-6.39a11.33,11.33,0,0,0-4.29,8.94,12.24,12.24,0,0,0,.37,3,13,13,0,0,0,3.67,5.49,46,46,0,0,0,8.09-5c3.4-2.77,4.73-5.8,4.74-8.37a7,7,0,0,0-.1-1c-.22-.65-.41-1.31-.61-2a6.67,6.67,0,0,0-.76-1.23,6.26,6.26,0,0,0-5-2.33A9.89,9.89,0,0,0,57.35,37.62ZM34,41.9A12.72,12.72,0,0,1,35.35,37l.32-.61a12.71,12.71,0,0,1,1.53-2.09A15.17,15.17,0,0,1,41.33,31a8.94,8.94,0,0,1,4.35-1.27H46a6,6,0,0,1,1.69.32c2.16.58,3.87,2,3.88,4.16a4.45,4.45,0,0,1-.14,1.08,6.21,6.21,0,0,1-.36,1.14l0,0-.53,1.08c-.08.15-.09.18-.17.32a.92.92,0,0,0-.14.19l0,.06a8.42,8.42,0,0,1-2.22,2.08c-2.91,1.94-6.69,2.69-10.35,3.58l-.64.13a19.23,19.23,0,0,0,2.95,6C40.72,51,41.46,52,42.22,53l.49.66c.86,1.15,1.6,2.25,2.28,3.3a15.58,15.58,0,0,1,1.7,3.42c2.64-1.6,5.76-3,8.91-4.56a15.78,15.78,0,0,1-4.92-11.35,12.56,12.56,0,0,1,.67-4.19c2.15-6.14,8.7-7.77,11-7.79h.21A9.89,9.89,0,0,1,67,33.82a3.77,3.77,0,0,0-.4-.48c-2.1-2.1-5.52-2.41-8.3-3.56S53.05,26.42,50,26.42s-5.7,2.24-8.37,3.36-6.2,1.46-8.3,3.56-2.4,5.5-3.55,8.29a29.74,29.74,0,0,1-1.4,2.75,2.92,2.92,0,0,1,.28-.21A17.55,17.55,0,0,1,34,41.9Z"/></svg>