<svg id="图层_1" data-name="图层 1" xmlns="http://www.w3.org/2000/svg" viewBox="0 0 100 100"><defs><style>.cls-1{fill-rule:evenodd;}</style></defs><title>logohunt03</title><path class="cls-1" d="M66.51,58.22c2.43,4.23.86,11.52-4.42,14.55a11,11,0,0,1-14.68-3.25c-3-4.58-.86-11.69,4.18-14.52-3.26-7.62-4-11.18-5-19.69-4.15,9.46-4.67,10.59-5.32,19.58a30.19,30.19,0,0,1,5.88,1.82c-2.67,3.88-4.42,8.75-.37,14.95C26.83,84.48,20.1,53,39.15,54.6c1-11.13,4.25-19.56,10.57-29,1.58-.93,3.48.45,2.41,2.5-5.78,6.73-2.32,18.4,1.24,26,4.83-1.81,10.72-.1,13.14,4.13M50.42,33.59C49.31,48.77,60,47.9,72.15,47.33,70.63,37.19,66,26.9,53.2,29.6,54.27,34,57.38,38.37,62.31,42c-5.5-2.17-8.68-4.25-11.89-8.36M33.73,58.11c-4,1-4.37,3.07-3.8,7,4.12-1.1,5.1-4.61,3.8-7m15,5.51c3.68.44,4.78,3.48,4.2,6.39-4.29.1-4.87-3.73-4.2-6.39"/></svg>