<svg id="图层_1" data-name="图层 1" xmlns="http://www.w3.org/2000/svg" viewBox="0 0 100 100"><title>logohunt03</title><path d="M58.53,35.2a2.42,2.42,0,0,1,0-4.83h8.16a2.71,2.71,0,0,1,2.94,2.94v8.16a2.41,2.41,0,0,1-4.82,0V39.86l-6.05,6a1.4,1.4,0,0,0,1,2.4h14a3.39,3.39,0,0,0,3.38-3.4V26.37a3.49,3.49,0,0,0-3.49-3.49H55.09a3.38,3.38,0,0,0-3.39,3.39v14a1.4,1.4,0,0,0,2.39,1l6-6.05H58.53"/><path d="M64.81,58.53a2.41,2.41,0,1,1,4.82,0v8.16a2.73,2.73,0,0,1-2.94,2.94H58.53a2.41,2.41,0,0,1,0-4.82h1.61l-6-6.05a1.4,1.4,0,0,0-2.39,1v14a3.38,3.38,0,0,0,3.39,3.39H73.63a3.49,3.49,0,0,0,3.49-3.49V55.09a3.38,3.38,0,0,0-3.39-3.39h-14a1.4,1.4,0,0,0-1,2.39l6.05,6Z"/><path d="M41.47,64.81a2.41,2.41,0,1,1,0,4.82H33.31a2.73,2.73,0,0,1-2.94-2.94V58.53a2.41,2.41,0,1,1,4.82,0v1.61l6.05-6a1.4,1.4,0,0,0-1-2.39h-14a3.38,3.38,0,0,0-3.39,3.39V73.63a3.49,3.49,0,0,0,3.49,3.49H44.92a3.39,3.39,0,0,0,3.39-3.39v-14a1.4,1.4,0,0,0-2.4-1l-6,6.05h1.61"/><path d="M35.19,41.47a2.41,2.41,0,0,1-4.82,0V33.31a2.73,2.73,0,0,1,2.94-2.94h8.16a2.42,2.42,0,0,1,0,4.83H39.86l6,6.05a1.4,1.4,0,0,0,2.4-1v-14a3.39,3.39,0,0,0-3.4-3.39H26.37a3.49,3.49,0,0,0-3.49,3.49V44.91a3.39,3.39,0,0,0,3.39,3.4h14a1.4,1.4,0,0,0,1-2.4l-6.05-6Z"/></svg>