<svg id="图层_1" data-name="图层 1" xmlns="http://www.w3.org/2000/svg" viewBox="0 0 100 100"><title>logohunt03</title><path d="M40.78,41.69l-13-7.52-2.58,4.48,13,7.51a12.46,12.46,0,0,1,2.6-4.47"/><path d="M46.16,38.18l-7.52-13-4.47,2.58,7.52,13a12.46,12.46,0,0,1,4.47-2.6"/><path d="M65.83,27.75l-4.47-2.58-7.52,13a12.21,12.21,0,0,1,4.47,2.59Z"/><path d="M52.58,37.85v-15H47.42v15a12,12,0,0,1,5.16,0"/><path d="M62.43,50a12.14,12.14,0,0,1-.28,2.58h15V47.42h-15A12.14,12.14,0,0,1,62.43,50"/><path d="M61.81,46.16l13-7.52-2.58-4.47-13,7.52a12.21,12.21,0,0,1,2.59,4.47"/><path d="M59.22,58.31l13,7.52,2.58-4.47-13-7.52a12.37,12.37,0,0,1-2.6,4.47"/><path d="M47.42,62.16v15h5.16v-15a12.46,12.46,0,0,1-5.16,0"/><path d="M53.84,61.82l7.52,13,4.47-2.58-7.52-13a12.37,12.37,0,0,1-4.47,2.6"/><path d="M37.57,50a12.14,12.14,0,0,1,.28-2.58h-15v5.16h15A12.14,12.14,0,0,1,37.57,50"/><path d="M34.17,72.25l4.47,2.58,7.52-13a12.29,12.29,0,0,1-4.47-2.59Z"/><path d="M38.18,53.84l-13,7.52,2.58,4.47,13-7.52a12.37,12.37,0,0,1-2.6-4.47"/></svg>