<svg id="图层_1" data-name="图层 1" xmlns="http://www.w3.org/2000/svg" viewBox="0 0 100 100"><defs><style>.cls-1{fill:#231815;}</style></defs><title>logohunt02</title><path class="cls-1" d="M64.35,34.8h3.18c2.48.05,5.56.09,8,2.18a8.5,8.5,0,0,1,2.8,5.37h1.47V33.23H64.32l0,1.57m0,15.77c2.33,0,3.52,0,4.51.38,2.48.95,2.86,3.75,3,5.84h1.52V43.06H71.81c-.19,5.56-3.13,6.13-7.46,6ZM60.52,33.23H46.24V34.8h3.37V65.25H46.24v1.52H65.67V65.25H60.54ZM26,42.66V61.45c.05,1.95.1,2.8,1.14,3.37.62.38,1.19.38,3.28.43v1.52H20.21V65.25c3.61,0,4.23-.33,4.27-5V42.66Zm10.6-9.43,6.22,19.42L38.07,66.77H35.89L26,35.88l-.36-1.13h-4.6V33.23Z"/></svg>