<svg id="图层_1" data-name="图层 1" xmlns="http://www.w3.org/2000/svg" viewBox="0 0 100 100"><defs><style>.cls-1{fill-rule:evenodd;}</style></defs><title>logohunt03</title><path class="cls-1" d="M31.92,40.81l3-3a1.3,1.3,0,0,1,1.83,0l5.62,5.63A10.08,10.08,0,0,0,40,49.28H33.13a1.21,1.21,0,0,1-1.21-1.21ZM42.43,56.47,36.79,62.1a1.29,1.29,0,0,1-1.83,0l-3-3V51.92a1.21,1.21,0,0,1,1.21-1.2h6.92a10.09,10.09,0,0,0,2.38,5.75M49.18,60v6.79A1.21,1.21,0,0,1,48,68H40.83l-3-3a1.29,1.29,0,0,1,0-1.83l5.63-5.63A10,10,0,0,0,49.18,60m1.64-20.13V33.23A1.21,1.21,0,0,1,52,32h7.35l2.83,2.84a1.29,1.29,0,0,1,0,1.83l-5.54,5.54a10.1,10.1,0,0,0-5.84-2.38m17.26.88v7.34a1.21,1.21,0,0,1-1.21,1.21H60.19a10.09,10.09,0,0,0-2.3-5.8l5.55-5.55a1.29,1.29,0,0,1,1.83,0Zm-17.5,26V60a10,10,0,0,0,6.06-2.38l5.53,5.53a1.29,1.29,0,0,1,0,1.83l-3,3H51.78a1.21,1.21,0,0,1-1.2-1.21m9.6-16h6.45a1.21,1.21,0,0,1,1.21,1.2v7.77l-2.57,2.57a1.3,1.3,0,0,1-1.83,0l-5.71-5.71a10.06,10.06,0,0,0,2.45-5.83M40.71,32H48a1.21,1.21,0,0,1,1.2,1.21v6.64a10,10,0,0,0-5.69,2.43l-5.61-5.61a1.29,1.29,0,0,1,0-1.83Z"/></svg>