<svg id="图层_1" data-name="图层 1" xmlns="http://www.w3.org/2000/svg" viewBox="0 0 100 100"><defs><style>.cls-1{fill:#231815;}</style></defs><title>logohunt02</title><path class="cls-1" d="M67.15,39.05V39a5.53,5.53,0,0,0-5.41-5.63,5.31,5.31,0,0,0-3.32,1.18,1,1,0,0,0-.4.84,1,1,0,0,0,.24.68,1.08,1.08,0,0,0,.84.4,1.12,1.12,0,0,0,.63-.2l.05,0a3.06,3.06,0,0,1,2-.69A3.36,3.36,0,0,1,65,39a5.44,5.44,0,0,1-1.43,3.59l-.06.07c-.24.28-1.69,1.89-5.47,3.51-4.13,1.8-7,2.65-9,4.39a3,3,0,0,0-.34.28l-.08.06,0,0a7.4,7.4,0,0,0-2.26,4.83v.07a1.09,1.09,0,0,0,1,1.08h.08a1.07,1.07,0,0,0,1.08-1h0a4.85,4.85,0,0,1,4.65-4.66s0,0,0,0h0a4.82,4.82,0,0,1,4.76,5v.21c0,.35-.16,1.32-.17,1.33-1.06,4.6-5.71,8.06-11.27,8.06C40.07,65.83,35,61.06,35,55.32c0,0,0,0,0,0a10.6,10.6,0,0,1,7.43-9.85l.08,0,.07.05A10,10,0,0,0,45.75,47l.62.16.25,0a1.1,1.1,0,0,0,1.05-.86,1,1,0,0,0,0-.23,1.07,1.07,0,0,0-.85-1l0,0h0l-.47-.12c-3.24-.9-5.2-3.6-5.2-6,0,0,0,0,0,0a4.48,4.48,0,0,1,.16-1.18c.58-2.09,2.73-3.53,5.58-3.54a8.45,8.45,0,0,1,2.38.34,6.65,6.65,0,0,1,3.39,2.16,1.08,1.08,0,0,0,1.5.27,1.12,1.12,0,0,0,.47-.89,1.2,1.2,0,0,0-.2-.62,8.63,8.63,0,0,0-4.57-3,10.77,10.77,0,0,0-3-.42h0c-3.53,0-6.7,1.9-7.61,5.11A6.32,6.32,0,0,0,39,38.89a7.87,7.87,0,0,0,1.69,4.71l.12.16-.18.08A12.65,12.65,0,0,0,32.85,55.3C32.86,62.38,39,68,46.45,68c6.45,0,12-4,13.39-9.8a15.17,15.17,0,0,0,.22-1.71v-.26a7.09,7.09,0,0,0-4.18-6.56l-.33-.15.33-.14,3-1.25c4.66-2,6.27-4.1,6.39-4.26a7.49,7.49,0,0,0,1.87-4.82"/></svg>