<svg id="图层_1" data-name="图层 1" xmlns="http://www.w3.org/2000/svg" viewBox="0 0 100 100"><title>logohunt02</title><path d="M79.11,48.84A13,13,0,0,0,76,43.59,14.68,14.68,0,0,0,64.92,39q-12.83,0-25.67,0c-.44,0-.65-.07-.71-.58s-.1-.84-.17-1.27a12.29,12.29,0,0,0-.8-3c-.26-.61-.62-.69-1.19-.53a10.16,10.16,0,0,0-4.3,2.67,1.05,1.05,0,0,1-1.26.35,15.83,15.83,0,0,0-5.37-1c-.43,0-.6.17-.64.62a12,12,0,0,0,.78,5.34.45.45,0,0,1-.17.62,16.25,16.25,0,0,0-2.31,2.38,13,13,0,0,0-2.26,11.72,12.79,12.79,0,0,0,4.55,6.8,15.14,15.14,0,0,0,9.72,3.28c4.89,0,9.78,0,14.68,0v0c4.79,0,9.59,0,14.38,0a17.77,17.77,0,0,0,5.48-.68,14.45,14.45,0,0,0,6-3.6,13.37,13.37,0,0,0,3.59-6.41A12.84,12.84,0,0,0,79.11,48.84ZM35.94,35.53c.41-.22.51-.17.62.31a12.76,12.76,0,0,1,.2,2.61,10.86,10.86,0,0,1-1.4,5.79,5,5,0,0,1-2.22,2c-.22.11-.6.28-.76,0a1,1,0,0,1,0-1,10.16,10.16,0,0,1,.75-1.1c.16-.23.55-.55.12-.9a.91.91,0,0,0-1.21-.06,3.63,3.63,0,0,0-1.16,2.35c0,.2.07.47-.23.53s-.29-.29-.35-.43a4.7,4.7,0,0,1-.05-4A12.06,12.06,0,0,1,35.94,35.53Zm-9,1.67a8.27,8.27,0,0,1,3.2.81c.25.11.38.26.13.62a9.58,9.58,0,0,0-1.7,4.08c0,.09,0,.22-.11.25s-.28-.09-.38-.21a6.41,6.41,0,0,1-1.3-2.26A9.7,9.7,0,0,1,26.22,38C26.2,37.21,26.19,37.21,26.94,37.2ZM36.14,58c-.72,0-1-.54-.65-1.16s1-1.32,1.37-2.08a4.32,4.32,0,0,0,.1-3.9c-.61-1.28-3.55-2-4.44-.26-.25.48-.56.91-1.24.71a.84.84,0,0,1-.57-.42,2.27,2.27,0,0,0-2.85-1.22,2.53,2.53,0,0,0-2.13,2.4,5.35,5.35,0,0,0,1.35,4.09l.1.14c.58.72.65,1.18.23,1.54a1.62,1.62,0,0,1-1.85-.28,7.49,7.49,0,0,1-1.87-5.68,4.67,4.67,0,0,1,5.94-4.22c.5.15,1,.31,1.48.5a1.24,1.24,0,0,0,1.06-.08,4.93,4.93,0,0,1,5.6.59,5.12,5.12,0,0,1,1.58,4.18,7.11,7.11,0,0,1-1.69,4.47A1.62,1.62,0,0,1,36.14,58Z"/></svg>