<svg id="图层_1" data-name="图层 1" xmlns="http://www.w3.org/2000/svg" viewBox="0 0 100 100"><defs><style>.cls-1{fill:#231700;}</style></defs><title>logohunt01</title><path class="cls-1" d="M55.26,39.54a14,14,0,0,0-2,.15c-9,1.38-17.2,11.48-19.49,14.51,1.38,1.76,4.92,5.71,9.07,6.21a7.89,7.89,0,0,0,.84.05,7.53,7.53,0,0,0,4.47-1.55,8.4,8.4,0,0,1-1.54-5.12A7.63,7.63,0,0,1,49.33,48,7.48,7.48,0,0,1,54,46.25a7,7,0,0,1,3.26.83,6.39,6.39,0,0,1,3.54,5.32h-3a3.51,3.51,0,0,0-1.94-2.66A4.15,4.15,0,0,0,54,49.27a4.4,4.4,0,0,0-2.79,1.07,4.66,4.66,0,0,0-1.62,3.53A5.3,5.3,0,0,0,51.3,58a8.88,8.88,0,0,0,12.51-.2,10.63,10.63,0,0,0,3.1-8.13A9.9,9.9,0,0,0,63,42.38a12.39,12.39,0,0,0-7.78-2.84M43.67,63.47a10.1,10.1,0,0,1-1.22-.07c-6.71-.81-11.62-8-11.82-8.35l-.57-.85.58-.84c.42-.61,10.32-14.82,22.14-16.64a15.87,15.87,0,0,1,2.46-.19A15.37,15.37,0,0,1,64.89,40a12.79,12.79,0,0,1,5,9.43,13.61,13.61,0,0,1-4,10.45,12.21,12.21,0,0,1-8.55,3.53A11.8,11.8,0,0,1,50.31,61a10.66,10.66,0,0,1-6.64,2.43"/></svg>