<svg id="图层_1" data-name="图层 1" xmlns="http://www.w3.org/2000/svg" viewBox="0 0 100 100"><defs><style>.cls-1{fill:#231815;}</style></defs><title>logohunt02</title><path class="cls-1" d="M74.14,59.82l5.61-46.64-19,0L62.71,49.3s.19,4.87-4.38,4.57c-9.33-2.29-20.83-4-26.67-2.29-10.43,3-11.7,6.78-11.36,7.63C21.4,62,31,55,40.17,56.7c0,0-12.77,1.22-17.66,10-2.68,4.84.3,5,4.6,1.7a24.73,24.73,0,0,1,14-4.6s-8.52,2.73-10.52,7.48c-2.54,6-.84,15.55,2.11,15.55,2.34,0,1.67-12.85,7.22-15s22.24-7.15,27.83-3.36c4.35,2.94.9,15.4,4,17.72,2.68,2,5.3-8.53,5.6-11.66.75-7.78-.23-9.39-2.4-13.54a7.92,7.92,0,0,0-.74-1.16"/></svg>