<svg id="图层_1" data-name="图层 1" xmlns="http://www.w3.org/2000/svg" viewBox="0 0 100 100"><title>logohunt03</title><path d="M22.82,45a20.63,20.63,0,0,1,6.3-15.18A20.43,20.43,0,0,1,44.3,23.62H55.7a20.42,20.42,0,0,1,15.18,6.23h.06A21,21,0,0,1,77.18,45V56.5a20.81,20.81,0,0,1-6.24,15.11l-.06.07a23.11,23.11,0,0,1-6,4.24,4.47,4.47,0,0,1-3,.33,4.57,4.57,0,0,1-2.65-1.66L50.07,62.86l-.14,1.66a4.83,4.83,0,0,1-1.72,3.11,4.74,4.74,0,0,1-6.5-.73,4.12,4.12,0,0,1-1-3.44L42.11,50.6a4.33,4.33,0,0,1,1.73-3.05,4.46,4.46,0,0,1,3.38-1l12.13,1.33A4.55,4.55,0,0,1,63.52,53,4.62,4.62,0,0,1,61.8,56a4.78,4.78,0,0,1-3.38,1.06L57.22,57l6.7,8.55c.13-.13.33-.27.46-.4h-.06A12.25,12.25,0,0,0,68,56.5V45a12,12,0,0,0-3.64-8.62,11.86,11.86,0,0,0-8.62-3.58H44.3A12.22,12.22,0,0,0,32.1,45V56.56a13.71,13.71,0,0,0,.2,2.25,4.49,4.49,0,0,1-.79,3.39,4.37,4.37,0,0,1-2.92,1.92,4.5,4.5,0,0,1-3.45-.66,4.65,4.65,0,0,1-2-3,26.59,26.59,0,0,1-.34-4V45Z"/><path d="M29.12,29.85A20.63,20.63,0,0,0,22.82,45V56.49a26.61,26.61,0,0,0,.34,4,4.65,4.65,0,0,0,2,3,4.5,4.5,0,0,0,3.45.66,4.37,4.37,0,0,0,2.92-1.92,4.49,4.49,0,0,0,.79-3.39,13.71,13.71,0,0,1-.2-2.25V45a12.22,12.22,0,0,1,12.2-12.2H55.7a11.86,11.86,0,0,1,8.62,3.58A12,12,0,0,1,68,45V56.49a12.25,12.25,0,0,1-3.64,8.62h.06c-.13.14-.33.27-.46.4L57.22,57l1.2.13A4.78,4.78,0,0,0,61.8,56,4.62,4.62,0,0,0,63.52,53a4.55,4.55,0,0,0-4.17-5.1L47.22,46.55a4.46,4.46,0,0,0-3.38,1,4.33,4.33,0,0,0-1.73,3.05L40.72,63.46a4.12,4.12,0,0,0,1,3.44,4.74,4.74,0,0,0,6.5.73,4.83,4.83,0,0,0,1.72-3.11l.14-1.66,9.14,11.73a4.57,4.57,0,0,0,2.65,1.66,4.47,4.47,0,0,0,3-.33,23.11,23.11,0,0,0,6-4.24l.06-.07a20.81,20.81,0,0,0,6.24-15.12V45a21,21,0,0,0-6.24-15.18h-.06A20.42,20.42,0,0,0,55.7,23.62H44.3a20.43,20.43,0,0,0-15.18,6.23"/></svg>