<svg id="图层_1" data-name="图层 1" xmlns="http://www.w3.org/2000/svg" viewBox="0 0 100 100"><defs><style>.cls-1{fill:#231815;}</style></defs><title>logohunt01</title><path class="cls-1" d="M57.7,44v.08m0,.09a4,4,0,0,0,3.81,3.9h.14a3.16,3.16,0,1,1-3.16,3.16v-.16a4,4,0,1,0-4,4.1,3.16,3.16,0,1,1-3.11,3.17,4,4,0,0,0-4-4H47.4a3.15,3.15,0,0,1-3.15-3.15v-.08a4,4,0,0,0-4-4A3.16,3.16,0,1,1,43.46,44v.1a4,4,0,0,0,3.86,4h.07a4,4,0,0,0,4-3.88v-.09A3.16,3.16,0,0,1,57.7,44v.17Z"/><path class="cls-1" d="M32.59,52.47a1.73,1.73,0,1,1-1.25-2.1,1.73,1.73,0,0,1,1.25,2.1"/><path class="cls-1" d="M30.72,46.29a1.25,1.25,0,1,1-.9-1.52,1.25,1.25,0,0,1,.9,1.52"/><path class="cls-1" d="M32.68,40.49a.79.79,0,1,1-.57-1,.78.78,0,0,1,.57,1"/><path class="cls-1" d="M39.82,55.6a2.6,2.6,0,1,1-2-3.06,2.61,2.61,0,0,1,2,3.06"/><path class="cls-1" d="M44.63,40.63a1.06,1.06,0,0,1-2.06-.53,1.06,1.06,0,0,1,2.06.53"/><path class="cls-1" d="M43.48,36.84A.76.76,0,1,1,42,36.46a.76.76,0,1,1,1.48.38"/><path class="cls-1" d="M43.53,31.52a.49.49,0,0,1-.94-.24.49.49,0,0,1,.59-.35.48.48,0,0,1,.35.59"/><path class="cls-1" d="M49.06,43.78a1.59,1.59,0,1,1-1.26-1.87,1.59,1.59,0,0,1,1.26,1.87"/><path class="cls-1" d="M28.57,42.19a1.06,1.06,0,1,1-.77-1.3,1.07,1.07,0,0,1,.77,1.3"/><path class="cls-1" d="M33.1,43.49a1.6,1.6,0,1,1-1.26-1.87,1.6,1.6,0,0,1,1.26,1.87"/><path class="cls-1" d="M61,56.37a1.06,1.06,0,1,1-.76-1.29A1.06,1.06,0,0,1,61,56.37"/><path class="cls-1" d="M65.88,58.38a1.6,1.6,0,1,1-1.26-1.88,1.6,1.6,0,0,1,1.26,1.88"/><path class="cls-1" d="M45.77,29.49A.66.66,0,0,1,45,30a.66.66,0,1,1,.33-1.28.65.65,0,0,1,.47.8"/><path class="cls-1" d="M45.71,27.18a.48.48,0,0,1-.58.35.49.49,0,0,1-.34-.59.47.47,0,0,1,.58-.34.46.46,0,0,1,.34.58"/><path class="cls-1" d="M47.52,30.59a.3.3,0,1,1-.22-.37.31.31,0,0,1,.22.37"/><path class="cls-1" d="M51,39a1,1,0,1,1-1.95-.39,1,1,0,0,1,1.16-.78A1,1,0,0,1,51,39"/><path class="cls-1" d="M70.65,50.37a.66.66,0,1,1-.48-.81.66.66,0,0,1,.48.81"/><path class="cls-1" d="M69.94,48a.49.49,0,0,1-.59.35.48.48,0,0,1,.24-.93.49.49,0,0,1,.35.58"/><path class="cls-1" d="M73.42,51.56a1,1,0,1,1-.79-1.17,1,1,0,0,1,.79,1.17"/><path class="cls-1" d="M44.63,62.91a1.06,1.06,0,1,1-.77-1.29,1.07,1.07,0,0,1,.77,1.29"/><path class="cls-1" d="M43.48,59.12a.76.76,0,1,1-.55-.93.76.76,0,0,1,.55.93"/><path class="cls-1" d="M44.68,54.86a.49.49,0,1,1-.35-.59.48.48,0,0,1,.35.59"/><path class="cls-1" d="M48.36,62.07a1.6,1.6,0,1,1-1.26-1.88,1.6,1.6,0,0,1,1.26,1.88"/><path class="cls-1" d="M54.47,32a1.06,1.06,0,1,1-.76-1.29A1.06,1.06,0,0,1,54.47,32"/><path class="cls-1" d="M53.33,28.2a.77.77,0,1,1-1.49-.38.77.77,0,0,1,1.49.38"/><path class="cls-1" d="M52.59,23.5a.48.48,0,0,1-.59.35.49.49,0,0,1-.35-.59.5.5,0,0,1,.59-.35.48.48,0,0,1,.35.59"/><path class="cls-1" d="M56.06,36.76a1.6,1.6,0,1,1-1.26-1.87,1.6,1.6,0,0,1,1.26,1.87"/><path class="cls-1" d="M24.85,50.81a.73.73,0,1,1-.23-1,.74.74,0,0,1,.23,1"/><path class="cls-1" d="M23.91,47.57a.52.52,0,0,1-.72.17A.51.51,0,0,1,23,47a.52.52,0,0,1,.72-.17.53.53,0,0,1,.17.72"/><path class="cls-1" d="M26.39,46a.33.33,0,0,1-.46.11.35.35,0,0,1-.11-.46.34.34,0,0,1,.46-.1.33.33,0,0,1,.11.45"/><path class="cls-1" d="M27.34,53a1.09,1.09,0,0,1-1.48.43,1.09,1.09,0,0,1,1-1.91A1.09,1.09,0,0,1,27.34,53"/><path class="cls-1" d="M69.44,43.11a.73.73,0,0,1,.07,1.45.73.73,0,0,1-.07-1.45"/><path class="cls-1" d="M66.14,46.3a.52.52,0,0,1,.55.49.53.53,0,1,1-1,.05.52.52,0,0,1,.5-.54"/><path class="cls-1" d="M63.85,45.55a.32.32,0,0,1,.34.31.33.33,0,1,1-.66,0,.33.33,0,0,1,.32-.34"/><path class="cls-1" d="M69.8,39.84a1.09,1.09,0,1,1-1,1.2,1.09,1.09,0,0,1,1-1.2"/><path class="cls-1" d="M33.3,33.5a.72.72,0,1,1-.43-.93.72.72,0,0,1,.43.93"/><path class="cls-1" d="M32.69,30.3a.52.52,0,1,1-.31-.68.52.52,0,0,1,.31.68"/><path class="cls-1" d="M34.19,28.61a.33.33,0,0,1-.62-.23.33.33,0,0,1,.42-.2.34.34,0,0,1,.2.43"/><path class="cls-1" d="M36.17,35.11a1.09,1.09,0,1,1-.72-1.36,1.09,1.09,0,0,1,.72,1.36"/><path class="cls-1" d="M30.83,58.18a.74.74,0,0,1,.3,1,.72.72,0,0,1-1.28-.68.74.74,0,0,1,1-.3"/><path class="cls-1" d="M28.14,58.32a.52.52,0,1,1-.71.21.53.53,0,0,1,.71-.21"/><path class="cls-1" d="M26,56.94a.33.33,0,1,1-.45.14.34.34,0,0,1,.45-.14"/><path class="cls-1" d="M32.83,55.57A1.08,1.08,0,0,1,33.35,57a1.09,1.09,0,1,1-.52-1.44"/><path class="cls-1" d="M64,31.33a.72.72,0,1,1,.94-.41.72.72,0,0,1-.94.41"/><path class="cls-1" d="M66.3,29.54a.53.53,0,1,1,.67-.3.52.52,0,0,1-.67.3"/><path class="cls-1" d="M68.92,31.41a.33.33,0,0,1-.19-.42.33.33,0,0,1,.43-.19.33.33,0,0,1,.19.43.32.32,0,0,1-.43.18"/><path class="cls-1" d="M55.09,25.87a.72.72,0,1,1,.94-.41.72.72,0,0,1-.94.41"/><path class="cls-1" d="M57.75,25.41a.53.53,0,1,1,.68-.3.53.53,0,0,1-.68.3"/><path class="cls-1" d="M61,25.88a.33.33,0,0,1-.19-.42.33.33,0,0,1,.43-.19.33.33,0,1,1-.24.61"/><path class="cls-1" d="M47.53,24.33a.73.73,0,1,1,.94-.41.73.73,0,0,1-.94.41"/><path class="cls-1" d="M49.27,23.83a.52.52,0,0,1,.38-1,.52.52,0,1,1-.38,1"/><path class="cls-1" d="M52.29,25.3a.32.32,0,0,1-.19-.42.33.33,0,1,1,.61.24.31.31,0,0,1-.42.18"/><path class="cls-1" d="M29.94,37.09a.72.72,0,0,1,.82.61.73.73,0,1,1-1.44.2.72.72,0,0,1,.62-.81"/><path class="cls-1" d="M27.85,38.79a.52.52,0,1,1-.45.59.53.53,0,0,1,.45-.59"/><path class="cls-1" d="M25.3,39a.33.33,0,0,1,.37.28.32.32,0,0,1-.28.37.34.34,0,0,1-.38-.28A.33.33,0,0,1,25.3,39"/><path class="cls-1" d="M31.16,60.6a.71.71,0,0,1,.81.61.72.72,0,1,1-.81-.61"/><path class="cls-1" d="M29.06,62.3a.53.53,0,0,1,.6.45.52.52,0,1,1-1,.14.53.53,0,0,1,.44-.59"/><path class="cls-1" d="M26.27,62.35a.33.33,0,1,1-.28.37.32.32,0,0,1,.28-.37"/><path class="cls-1" d="M26.18,59.82a.72.72,0,0,1-1.43.2.72.72,0,1,1,1.43-.2"/><path class="cls-1" d="M24.8,57.3a.51.51,0,0,1-.44.59.53.53,0,0,1-.59-.44.52.52,0,0,1,.44-.59.51.51,0,0,1,.59.44"/><path class="cls-1" d="M24.63,54.75a.33.33,0,1,1-.37-.28.32.32,0,0,1,.37.28"/><path class="cls-1" d="M36.19,49.19a.72.72,0,0,1-1.43.21.72.72,0,1,1,1.43-.21"/><path class="cls-1" d="M34.48,47.11a.53.53,0,0,1-1,.15.52.52,0,0,1,.45-.59.51.51,0,0,1,.59.44"/><path class="cls-1" d="M34.3,44.56a.32.32,0,0,1-.28.37.33.33,0,0,1-.37-.28.33.33,0,0,1,.65-.09"/><path class="cls-1" d="M51.22,61.8a.72.72,0,0,1-.62.82.71.71,0,0,1-.81-.61.72.72,0,0,1,.61-.82.74.74,0,0,1,.82.61"/><path class="cls-1" d="M49.24,58.54a.53.53,0,1,1-1,.15.53.53,0,0,1,1-.15"/><path class="cls-1" d="M49.07,56.46a.33.33,0,0,1-.66.09.33.33,0,0,1,.66-.09"/><path class="cls-1" d="M67.49,56a.72.72,0,0,1-.61.82.74.74,0,0,1-.82-.62.72.72,0,0,1,1.43-.2"/><path class="cls-1" d="M65.28,54.51a.52.52,0,1,1-.59-.45.53.53,0,0,1,.59.45"/><path class="cls-1" d="M67.49,54.28a.33.33,0,0,1-.28.37.34.34,0,0,1-.38-.28.33.33,0,0,1,.28-.37.34.34,0,0,1,.38.28"/><path class="cls-1" d="M60.74,69.82a.72.72,0,1,1-1.43.21.72.72,0,0,1,1.43-.21"/><path class="cls-1" d="M59,67.73a.53.53,0,1,1-1,.15.53.53,0,0,1,1-.15"/><path class="cls-1" d="M58.86,65.18a.34.34,0,0,1-.28.38.34.34,0,0,1-.38-.28.33.33,0,0,1,.28-.38.34.34,0,0,1,.38.28"/><path class="cls-1" d="M50.74,33a.53.53,0,1,1-.59-.44.53.53,0,0,1,.59.44"/><path class="cls-1" d="M50.56,30.46a.33.33,0,0,1-.28.38.33.33,0,0,1-.09-.66.33.33,0,0,1,.37.28"/><path class="cls-1" d="M25.59,45.74a.72.72,0,1,1-.45-.92.72.72,0,0,1,.45.92"/><path class="cls-1" d="M25,42.52a.52.52,0,0,1-.66.33.53.53,0,0,1-.33-.67.53.53,0,0,1,.67-.32.51.51,0,0,1,.32.66"/><path class="cls-1" d="M26,40.76a.33.33,0,0,1-.42.2.33.33,0,1,1,.22-.62.33.33,0,0,1,.2.42"/><path class="cls-1" d="M37.39,30.71a.72.72,0,1,1-.44-.92.73.73,0,0,1,.44.92"/><path class="cls-1" d="M36.83,28.08a.53.53,0,1,1-.32-.67.52.52,0,0,1,.32.67"/><path class="cls-1" d="M38.28,26.08a.32.32,0,0,1-.42.21.33.33,0,1,1,.42-.21"/><path class="cls-1" d="M27.88,36.94a.72.72,0,0,1-.92.45A.72.72,0,0,1,27.43,36a.73.73,0,0,1,.45.92"/><path class="cls-1" d="M28.43,35.19a.51.51,0,0,1-.66.32.52.52,0,0,1-.33-.66.53.53,0,0,1,.67-.33.52.52,0,0,1,.32.67"/><path class="cls-1" d="M30.15,32.38a.34.34,0,0,1-.42.21.33.33,0,1,1,.42-.21"/><path class="cls-1" d="M42.75,28.71a.72.72,0,1,1-.45-.92.72.72,0,0,1,.45.92"/><path class="cls-1" d="M41,27.08a.53.53,0,1,1-.32-.67.53.53,0,0,1,.32.67"/><path class="cls-1" d="M41.9,24.57a.34.34,0,0,1-.42.21.33.33,0,1,1,.42-.21"/><path class="cls-1" d="M60,31.11a.72.72,0,1,1,.35-1,.72.72,0,0,1-.35,1"/><path class="cls-1" d="M61.46,28.87a.52.52,0,0,1-.69-.25.53.53,0,1,1,.69.25"/><path class="cls-1" d="M63.86,28a.33.33,0,0,1-.44-.16.32.32,0,0,1,.16-.44.34.34,0,0,1,.44.16.34.34,0,0,1-.16.44"/><path class="cls-1" d="M54.3,30.07a.72.72,0,1,1-.25-1.42.72.72,0,0,1,.25,1.42"/><path class="cls-1" d="M56.33,28.3a.52.52,0,1,1,.43-.61.52.52,0,0,1-.43.61"/><path class="cls-1" d="M58.88,28.05a.33.33,0,0,1-.38-.27.32.32,0,0,1,.26-.38.34.34,0,0,1,.39.27.33.33,0,0,1-.27.38"/><path class="cls-1" d="M61.52,44.84a.73.73,0,1,1,.59-.84.73.73,0,0,1-.59.84"/><path class="cls-1" d="M64.47,42.27a.52.52,0,1,1,.42-.61.52.52,0,0,1-.42.61"/><path class="cls-1" d="M66.66,43.11a.33.33,0,0,1-.38-.27.32.32,0,0,1,.26-.38.33.33,0,0,1,.39.26.34.34,0,0,1-.27.39"/><path class="cls-1" d="M73.6,38.52a.73.73,0,0,1-.84-.59.73.73,0,1,1,1.43-.25.74.74,0,0,1-.59.84"/><path class="cls-1" d="M71.61,45a.52.52,0,1,1,.42-.6.52.52,0,0,1-.42.6"/><path class="cls-1" d="M74.15,44.78a.32.32,0,0,1-.38-.26.34.34,0,0,1,.27-.39.33.33,0,0,1,.11.65"/><path class="cls-1" d="M32.85,53.31A.72.72,0,0,1,33,54.74a.72.72,0,1,1-.15-1.43"/><path class="cls-1" d="M30.7,54.94a.52.52,0,0,1,.11,1,.53.53,0,0,1-.58-.47.52.52,0,0,1,.47-.57"/><path class="cls-1" d="M28.14,55a.34.34,0,0,1,.36.3.33.33,0,1,1-.65.07.34.34,0,0,1,.29-.37"/><path class="cls-1" d="M35.17,61.76a.73.73,0,0,1,.79.65.72.72,0,0,1-.64.79.72.72,0,1,1-.15-1.44"/><path class="cls-1" d="M33,63.39a.52.52,0,0,1,.57.47.52.52,0,0,1-1,.11.53.53,0,0,1,.47-.58"/><path class="cls-1" d="M30.46,63.47a.32.32,0,0,1,.36.3.33.33,0,1,1-.36-.3"/><path class="cls-1" d="M38.85,58.42A.72.72,0,1,1,39,59.86a.72.72,0,0,1-.79-.64.74.74,0,0,1,.64-.8"/><path class="cls-1" d="M36.7,60.06a.51.51,0,0,1,.58.46.53.53,0,0,1-.47.58.52.52,0,0,1-.57-.47.51.51,0,0,1,.46-.57"/><path class="cls-1" d="M34.15,60.13a.33.33,0,0,1,.07.66.33.33,0,1,1-.07-.66"/><path class="cls-1" d="M31.83,47.37A.72.72,0,0,1,32,48.81a.74.74,0,0,1-.8-.65.73.73,0,0,1,.65-.79"/><path class="cls-1" d="M29.68,49a.52.52,0,0,1,.11,1,.52.52,0,1,1-.11-1"/><path class="cls-1" d="M27.12,49.08a.33.33,0,1,1,.07.65.33.33,0,0,1-.07-.65"/><path class="cls-1" d="M38,36.12a.72.72,0,0,1,.79.64.73.73,0,0,1-.64.8.74.74,0,0,1-.8-.65.73.73,0,0,1,.65-.79"/><path class="cls-1" d="M36.36,37.37a.52.52,0,1,1-.47.58.52.52,0,0,1,.47-.58"/><path class="cls-1" d="M33.8,37.45a.33.33,0,1,1,.07.65.33.33,0,0,1-.07-.65"/><path class="cls-1" d="M52.09,64.87a.72.72,0,1,1-.64.8.73.73,0,0,1,.64-.8"/><path class="cls-1" d="M49.94,66.5a.53.53,0,0,1,.58.47.52.52,0,0,1-.47.57.51.51,0,0,1-.57-.46.53.53,0,0,1,.46-.58"/><path class="cls-1" d="M47.39,66.58a.33.33,0,0,1,.36.29.33.33,0,0,1-.29.37.33.33,0,1,1-.07-.66"/><path class="cls-1" d="M42.77,64a.72.72,0,0,1,.15,1.44A.72.72,0,1,1,42.77,64"/><path class="cls-1" d="M40.62,65.58a.52.52,0,0,1,.57.47.51.51,0,0,1-.46.57.52.52,0,0,1-.58-.46.53.53,0,0,1,.47-.58"/><path class="cls-1" d="M38.06,65.66a.34.34,0,0,1,.37.29.35.35,0,0,1-.3.37.33.33,0,0,1-.36-.3.33.33,0,0,1,.29-.36"/><path class="cls-1" d="M45.42,72.47a.72.72,0,0,1,.15,1.44.72.72,0,1,1-.15-1.44"/><path class="cls-1" d="M43.27,74.1a.52.52,0,0,1,.57.47.52.52,0,0,1-1,.11.53.53,0,0,1,.47-.58"/><path class="cls-1" d="M40.71,74.18a.33.33,0,0,1,.36.29.33.33,0,1,1-.65.07.33.33,0,0,1,.29-.36"/><path class="cls-1" d="M35.17,66.25a.73.73,0,0,1,.79.65.72.72,0,0,1-.64.79.73.73,0,0,1-.8-.64.74.74,0,0,1,.65-.8"/><path class="cls-1" d="M33,67.89a.5.5,0,0,1,.57.46.52.52,0,1,1-1,.11.51.51,0,0,1,.47-.57"/><path class="cls-1" d="M30.12,67.78a.33.33,0,0,1,.37.29.34.34,0,0,1-.3.37.34.34,0,0,1-.36-.3.33.33,0,0,1,.29-.36"/><path class="cls-1" d="M60.85,64.17a.72.72,0,1,1,.94.4.72.72,0,0,1-.94-.4"/><path class="cls-1" d="M76.13,49.18a.52.52,0,1,1,.68.29.52.52,0,0,1-.68-.29"/><path class="cls-1" d="M63.78,68.23A.33.33,0,0,1,64,67.8a.33.33,0,0,1,.43.19.33.33,0,0,1-.18.43.34.34,0,0,1-.43-.19"/><path class="cls-1" d="M72.46,54.35a.72.72,0,1,1,1.34-.54.72.72,0,0,1-.4.94.74.74,0,0,1-.94-.4"/><path class="cls-1" d="M75.2,57.3a.52.52,0,1,1,.68.29.52.52,0,0,1-.68-.29"/><path class="cls-1" d="M65.93,34.71a.72.72,0,1,1,.75-.69.71.71,0,0,1-.75.69"/><path class="cls-1" d="M68.29,33.41a.53.53,0,0,1,0-1,.53.53,0,0,1,0,1"/><path class="cls-1" d="M70.1,32.62a.32.32,0,0,1-.32-.34.34.34,0,0,1,.34-.32.33.33,0,0,1,.32.35.32.32,0,0,1-.34.31"/><path class="cls-1" d="M71.86,49.79a.73.73,0,0,1,1-1,.72.72,0,0,1,0,1,.72.72,0,0,1-1,0"/><path class="cls-1" d="M74.5,50.37a.52.52,0,1,1,.73,0,.51.51,0,0,1-.73,0"/><path class="cls-1" d="M76.21,52.27a.33.33,0,0,1,0-.47.32.32,0,0,1,.46,0,.33.33,0,0,1,0,.47.34.34,0,0,1-.47,0"/><path class="cls-1" d="M57.48,71.15a.71.71,0,0,1,1-.12.72.72,0,0,1-.89,1.13.71.71,0,0,1-.12-1"/><path class="cls-1" d="M57.15,73.83a.52.52,0,1,1,.09.73.52.52,0,0,1-.09-.73"/><path class="cls-1" d="M53.4,76.36a.32.32,0,0,1,.46-.06.33.33,0,0,1-.41.52.32.32,0,0,1-.05-.46"/><path class="cls-1" d="M53,71.93a.73.73,0,0,1,1-.13.74.74,0,0,1,.12,1,.73.73,0,0,1-1,.12.72.72,0,0,1-.12-1"/><path class="cls-1" d="M52.7,74.6a.53.53,0,0,1,.74-.08.52.52,0,1,1-.74.08"/><path class="cls-1" d="M50.85,76.64a.33.33,0,0,1,.47,0,.33.33,0,0,1-.41.52.34.34,0,0,1-.06-.47"/><path class="cls-1" d="M33.14,64.91a.72.72,0,1,1-.84.57.72.72,0,0,1,.84-.57"/><path class="cls-1" d="M30.61,65.84a.52.52,0,1,1-.2,1,.52.52,0,1,1,.2-1"/><path class="cls-1" d="M28,65a.33.33,0,0,1-.13.65A.33.33,0,0,1,28,65"/><path class="cls-1" d="M36.63,69.28a.72.72,0,1,1-.28,1.41.72.72,0,1,1,.28-1.41"/><path class="cls-1" d="M34.21,70.88a.52.52,0,1,1-.2,1,.52.52,0,1,1,.2-1"/><path class="cls-1" d="M41.29,71a.73.73,0,0,1,.82.62.72.72,0,0,1-.62.81.71.71,0,0,1-.81-.61.73.73,0,0,1,.61-.82"/><path class="cls-1" d="M39.2,72.69a.52.52,0,0,1,.59.44.53.53,0,0,1-.44.6.52.52,0,0,1-.59-.45.51.51,0,0,1,.44-.59"/><path class="cls-1" d="M36.41,72.87a.33.33,0,0,1,.37.28.34.34,0,0,1-.28.38.34.34,0,0,1-.37-.29.33.33,0,0,1,.28-.37"/><path class="cls-1" d="M48.72,73.57a.73.73,0,1,1,.2,1.44.72.72,0,0,1-.81-.62.73.73,0,0,1,.61-.82"/><path class="cls-1" d="M46.63,75.28a.52.52,0,1,1-.45.59.53.53,0,0,1,.45-.59"/><path class="cls-1" d="M44.08,76a.33.33,0,0,1,.37.28.34.34,0,0,1-.28.38.33.33,0,0,1-.09-.66"/><path class="cls-1" d="M65.13,69.7a.74.74,0,0,1,.82.62.72.72,0,0,1-.62.81.72.72,0,1,1-.2-1.43"/><path class="cls-1" d="M63,71.41a.53.53,0,0,1,.59.44.52.52,0,0,1-.45.59.53.53,0,0,1-.59-.44.52.52,0,0,1,.45-.59"/><path class="cls-1" d="M60.49,71.57a.33.33,0,0,1,.37.28.34.34,0,0,1-.28.38.33.33,0,1,1-.09-.66"/><path class="cls-1" d="M62.31,34.18a1.09,1.09,0,1,1,1.38-.7,1.1,1.1,0,0,1-1.38.7"/><path class="cls-1" d="M66.23,63.55a.71.71,0,0,1-.29,1,.72.72,0,1,1-.68-1.27.71.71,0,0,1,1,.29"/><path class="cls-1" d="M63.91,62.19a.52.52,0,1,1-.92.5.52.52,0,1,1,.92-.5"/><path class="cls-1" d="M62.86,59.85a.33.33,0,1,1-.45-.13.33.33,0,0,1,.45.13"/><path class="cls-1" d="M68,61a1.09,1.09,0,1,1-1.5-.35A1.09,1.09,0,0,1,68,61"/><path class="cls-1" d="M46.82,57.43a.73.73,0,0,1-.88.52.72.72,0,0,1,.36-1.4.73.73,0,0,1,.52.88"/><path class="cls-1" d="M36.89,65.46a.52.52,0,1,1-.38-.64.53.53,0,0,1,.38.64"/><path class="cls-1" d="M37.71,63a.33.33,0,0,1-.4.24.32.32,0,0,1-.24-.4.33.33,0,1,1,.64.16"/><path class="cls-1" d="M40.69,69.34a1.09,1.09,0,1,1-.85-1.27,1.08,1.08,0,0,1,.85,1.27"/><path class="cls-1" d="M45.87,38a1.73,1.73,0,1,1,1.67-3,1.73,1.73,0,1,1-1.67,3"/><path class="cls-1" d="M48.29,28.81a1.26,1.26,0,0,1,1.21-2.2,1.26,1.26,0,1,1-1.21,2.2"/><path class="cls-1" d="M56.4,30.88a.79.79,0,0,1-.31-1.07.8.8,0,0,1,1.08-.31.79.79,0,0,1,.31,1.07.78.78,0,0,1-1.08.31"/><path class="cls-1" d="M38.25,35.37a2.6,2.6,0,1,1,3.48-1.22,2.61,2.61,0,0,1-3.48,1.22"/><path class="cls-1" d="M68.38,37.24a1.72,1.72,0,1,1,2.12,1.22,1.73,1.73,0,0,1-2.12-1.22"/><path class="cls-1" d="M73.2,41.73a1.25,1.25,0,1,1,1.54.88,1.25,1.25,0,0,1-1.54-.88"/><path class="cls-1" d="M74.21,47.71a.78.78,0,0,1,.55-1,.79.79,0,1,1-.55,1"/><path class="cls-1" d="M57.87,40.12a2.61,2.61,0,1,1,3.3,1.65,2.62,2.62,0,0,1-3.3-1.65"/><path class="cls-1" d="M71.12,61.07a1.37,1.37,0,1,1-.93,1.71,1.37,1.37,0,0,1,.93-1.71"/><path class="cls-1" d="M60.34,59.52a1,1,0,0,1,.57,1.91,1,1,0,0,1-1.23-.67,1,1,0,0,1,.66-1.24"/><path class="cls-1" d="M62.93,65.89a.63.63,0,1,1-.43.78.63.63,0,0,1,.43-.78"/><path class="cls-1" d="M69.64,54.13a2.07,2.07,0,1,1-1.24,2.64,2.07,2.07,0,0,1,1.24-2.64"/><path class="cls-1" d="M49.45,69.91a1.73,1.73,0,1,1-2.4-.45,1.74,1.74,0,0,1,2.4.45"/><path class="cls-1" d="M43.58,67.22a1.25,1.25,0,1,1-1.74-.33,1.25,1.25,0,0,1,1.74.33"/><path class="cls-1" d="M56.58,66.56a2.61,2.61,0,1,1-3.65-.48,2.6,2.6,0,0,1,3.65.48"/><path class="cls-1" d="M69.32,68.2a.72.72,0,1,1,.35-1,.72.72,0,0,1-.35,1"/><path class="cls-1" d="M70.74,66.3a.54.54,0,0,1,.29-.68.52.52,0,1,1,.39,1,.52.52,0,0,1-.68-.29"/><path class="cls-1" d="M66.7,70.91a.33.33,0,1,1,.61-.25.34.34,0,0,1-.18.43.32.32,0,0,1-.43-.18"/><path class="cls-1" d="M62.05,73.92a.34.34,0,0,1,.19-.43.33.33,0,0,1,.43.18.33.33,0,0,1-.19.43.33.33,0,0,1-.43-.18"/><path class="cls-1" d="M42,51.32a1.59,1.59,0,1,1-1.26-1.87A1.59,1.59,0,0,1,42,51.32"/><path class="cls-1" d="M41.55,61.33a1.73,1.73,0,1,1-2.4-.46,1.72,1.72,0,0,1,2.4.46"/><path class="cls-1" d="M75.2,44.52a.52.52,0,0,1,.29-.68.54.54,0,0,1,.68.29.52.52,0,0,1-1,.39"/><path class="cls-1" d="M74.43,61.41a.32.32,0,0,1-.32-.34.34.34,0,0,1,.34-.32.33.33,0,0,1,.32.35.32.32,0,0,1-.34.31"/><path class="cls-1" d="M59.46,75a.52.52,0,1,1,.68.29.52.52,0,0,1-.68-.29"/><path class="cls-1" d="M44.49,24a.52.52,0,1,1,1-.39.52.52,0,0,1-1,.39"/><path class="cls-1" d="M54.19,23.82a.34.34,0,0,1-.19-.43.33.33,0,0,1,.62.24.34.34,0,0,1-.43.19"/><path class="cls-1" d="M23.16,51.81a.33.33,0,1,1,.07.65.33.33,0,1,1-.07-.65"/><path class="cls-1" d="M54.89,75.45a.63.63,0,0,1,.78.42.63.63,0,0,1-.42.79.64.64,0,0,1-.78-.43.63.63,0,0,1,.42-.78"/><path class="cls-1" d="M73.43,58.11a.63.63,0,1,1-.42.78.62.62,0,0,1,.42-.78"/><path class="cls-1" d="M59.5,36.44a.52.52,0,1,1,.42-.6.52.52,0,0,1-.42.6"/><path class="cls-1" d="M34.32,59a.52.52,0,1,1,.43-.6.52.52,0,0,1-.43.6"/><path class="cls-1" d="M34.42,52.47a.52.52,0,1,1,.43-.6.52.52,0,0,1-.43.6"/><path class="cls-1" d="M36.83,41.12a1.6,1.6,0,1,1-1.26-1.88,1.6,1.6,0,0,1,1.26,1.88"/><path class="cls-1" d="M57.3,61a1.37,1.37,0,1,1,.78,2.63A1.37,1.37,0,0,1,57.3,61"/><path class="cls-1" d="M67.72,51.06a1,1,0,1,1-.78-1.17,1,1,0,0,1,.78,1.17"/><path class="cls-1" d="M65.05,39a.73.73,0,1,1,.35-1,.73.73,0,0,1-.35,1"/><path class="cls-1" d="M55.92,52.86a.73.73,0,0,1-.84-.59.72.72,0,1,1,.84.59"/><path class="cls-1" d="M47,64.52a.71.71,0,0,1,.79.64.73.73,0,0,1-.64.8.72.72,0,0,1-.79-.65.71.71,0,0,1,.64-.79"/><path class="cls-1" d="M45.7,33.38a.79.79,0,1,1,1.08-.31.8.8,0,0,1-1.08.31"/><path class="cls-1" d="M41.48,54.61a.74.74,0,0,1,.8.65.72.72,0,1,1-.8-.65"/><path class="cls-1" d="M36.8,46.76a.53.53,0,0,1-.44.59.54.54,0,0,1-.6-.45.52.52,0,1,1,1-.14"/><path class="cls-1" d="M40.43,39.25a.77.77,0,0,1-.94.55.76.76,0,0,1-.55-.93.77.77,0,1,1,1.49.38"/><path class="cls-1" d="M56.67,34.35A.79.79,0,1,1,57.43,33a.79.79,0,0,1-.76,1.38"/><path class="cls-1" d="M67.12,39.29a.72.72,0,0,1,.75.69.72.72,0,0,1-.68.75.72.72,0,1,1-.07-1.44"/><path class="cls-1" d="M67.38,44.08a.73.73,0,1,1-.69.76.73.73,0,0,1,.69-.76"/><path class="cls-1" d="M68.43,59a.63.63,0,1,1-.42.78.63.63,0,0,1,.42-.78"/><path class="cls-1" d="M71,60a.52.52,0,0,1,.29-.68.54.54,0,0,1,.68.29A.52.52,0,0,1,71,60"/><path class="cls-1" d="M65.92,66.74a.53.53,0,0,1,.29-.68.52.52,0,1,1-.29.68"/></svg>