<svg id="图层_1" data-name="图层 1" xmlns="http://www.w3.org/2000/svg" viewBox="0 0 100 100"><defs><style>.cls-1{fill:#231815;}</style></defs><title>logohunt02</title><path class="cls-1" d="M37.84,36.34h9.24c6.09.07,10,.11,13.21,3.12,2.81,2.61,3.78,6.5,3.78,10.36,0,5.73-2.16,11.16-7.63,13a23.22,23.22,0,0,1-7.28.73H37.84V36.34m10,8.54V55.1h2.3a3.46,3.46,0,0,0,2.53-.89A6,6,0,0,0,54.06,50a7.67,7.67,0,0,0-.49-2.8c-.8-2.16-2.31-2.22-3.5-2.27Z"/><rect class="cls-1" x="26.51" y="44.76" width="9.84" height="18.77"/><path class="cls-1" d="M73.49,58.69a5,5,0,1,1-5-5,5,5,0,0,1,5,5"/></svg>