<svg id="图层_1" data-name="图层 1" xmlns="http://www.w3.org/2000/svg" viewBox="0 0 100 100"><defs><style>.cls-1{fill:#231815;}</style></defs><title>logohunt02</title><path class="cls-1" d="M34.69,43.21a.21.21,0,0,1,0-.13l0-.08a16.79,16.79,0,0,1,15.25-9.75,16.2,16.2,0,0,1,2.53.19.18.18,0,0,1,.17.18l0,.11a10.58,10.58,0,0,0-.76,1.2.19.19,0,0,1-.16.09h0a16,16,0,0,0-1.71-.1A15.1,15.1,0,0,0,36,44.18a.21.21,0,0,1-.18.11.15.15,0,0,1-.11,0,6.14,6.14,0,0,1-1-1m21-7.14a.18.18,0,0,1-.11-.17.15.15,0,0,1,0-.11,6,6,0,0,1,1-1,.2.2,0,0,1,.13,0h.09c4.85,2.21,8.68,7.16,9.39,12a2.77,2.77,0,0,1-.32,1.77,2.06,2.06,0,0,1-2.62.78,1.7,1.7,0,0,1-.93-1.15.9.9,0,0,1,0-.57.39.39,0,0,1,.49-.16A1,1,0,0,0,64.11,47a1.45,1.45,0,0,0,.2-.88,8.93,8.93,0,0,0-.51-1.94A14.94,14.94,0,0,0,55.71,36.07ZM59,34a.19.19,0,0,1-.09-.16.18.18,0,0,1,.15-.18,5.89,5.89,0,0,1,1.4-.16A6.07,6.07,0,0,1,66.36,41a.19.19,0,0,1-.18.15.15.15,0,0,1-.15-.1A18.37,18.37,0,0,0,59,34Zm-18.14-.37a.19.19,0,0,1,.15.18.18.18,0,0,1-.1.16,18.66,18.66,0,0,0-7,6.88.17.17,0,0,1-.16.09.18.18,0,0,1-.18-.15,6,6,0,0,1-.12-1.2,6.13,6.13,0,0,1,7.39-6Zm13.8,4.08a.18.18,0,0,1,.17-.13h.07A13.3,13.3,0,0,1,62.3,45l0,.12a.32.32,0,0,1-.23.31,6.44,6.44,0,0,1-1.65.22H53.17a.26.26,0,0,1-.26-.25v-.06l1.59-7.21C54.55,38,54.59,37.81,54.64,37.66ZM48,49.31a.25.25,0,0,1,.25.25v0l-1,4.34a.18.18,0,0,1-.18.14.16.16,0,0,1-.13-.06,9.79,9.79,0,0,0-7.37-3.34,9.65,9.65,0,0,0-2.81.41h0a.19.19,0,0,1-.18-.19c0-.3,0-.61,0-.92s0-.63,0-.94a.18.18,0,0,1,.18-.17h.06a9.58,9.58,0,0,0,2.8.41Zm-1.85,9.43a.2.2,0,0,1,0,.13v.05l-.62,2.8c-.05.23-.11.46-.18.68a.19.19,0,0,1-.18.13h-.06A13.46,13.46,0,0,1,37.43,55v-.06a.2.2,0,0,1,.12-.18,6.13,6.13,0,0,1,6.7,1.84Zm3-13.33a.29.29,0,0,1-.27.22h-9.3a6.12,6.12,0,0,1-2-.34.18.18,0,0,1-.12-.17v-.07a13.43,13.43,0,0,1,7.67-7.56h.06a.19.19,0,0,1,.18.13,3.22,3.22,0,0,1,.09.76A2.77,2.77,0,0,1,45,39.83a1.2,1.2,0,0,1-2,.19.37.37,0,0,0-.28-.13.35.35,0,0,0-.27.13,2.78,2.78,0,0,0,2.13,4.54,2.67,2.67,0,0,0,1-.17c2.76-.82,3.29-4.69,3.29-5.35a9.78,9.78,0,0,0-.17-2.18v0a.19.19,0,0,1,.18-.19c.33,0,.66,0,1,0s.64,0,1,0a.18.18,0,0,1,.17.18v0l-.09.31Zm1.1,12.48a.28.28,0,0,1,0-.13v0L52,49.52a.28.28,0,0,1,.28-.21h8.19a.17.17,0,0,1,.16.11,3.3,3.3,0,0,0,.68,1,.21.21,0,0,1,.05.12.19.19,0,0,1-.19.19l-.72,0a9.85,9.85,0,0,0-3.45.59,9.58,9.58,0,0,0-2.19,1.15,8,8,0,0,0-1.32,1.2,4.79,4.79,0,0,0-1.1,4.4,3.58,3.58,0,0,0,.5,1,2.85,2.85,0,0,0,3.95.67,2.79,2.79,0,0,0,1.09-1.56V58a.35.35,0,0,0-.32-.35,1.24,1.24,0,0,1-.88-.51,1.2,1.2,0,0,1-.09-1.21,2.7,2.7,0,0,1,1-1.15,2.75,2.75,0,0,1,.86-.42,5.83,5.83,0,0,1,1.57-.2,5.77,5.77,0,0,1,2.28.46.17.17,0,0,1,.11.17v.06a13.44,13.44,0,0,1-8,7.75l-.08,0a.18.18,0,0,1-.15-.08ZM59,66.39a.18.18,0,0,1-.14-.18.17.17,0,0,1,.09-.16A18.56,18.56,0,0,0,66,59a.17.17,0,0,1,.16-.09.18.18,0,0,1,.18.14,6.1,6.1,0,0,1-5.94,7.53A5.9,5.9,0,0,1,59,66.39Zm6.19-9.52a16.74,16.74,0,0,1-12.48,9.64,16.58,16.58,0,0,1-2.84.24,16.85,16.85,0,0,1-2.37-.16.19.19,0,0,1-.16-.18l0-.1a8.46,8.46,0,0,0,.76-1.21.23.23,0,0,1,.19-.1h0c.51,0,1,.08,1.53.08s1,0,1.55-.08a15.28,15.28,0,0,0,4.06-1,15.11,15.11,0,0,0,8.38-8.3.18.18,0,0,1,.17-.1.17.17,0,0,1,.12,0,5.57,5.57,0,0,1,1,1,.19.19,0,0,1,0,.13ZM34.8,48.08a.2.2,0,0,1,.11.18v0A16.37,16.37,0,0,0,34.81,50a16.12,16.12,0,0,0,.11,1.85A15.06,15.06,0,0,0,44.25,64a.18.18,0,0,1,.11.17.16.16,0,0,1,0,.12,5.79,5.79,0,0,1-1,1,.18.18,0,0,1-.12,0l-.08,0A16.7,16.7,0,0,1,33.38,52.9a17.28,17.28,0,0,1-.25-2.9,16.71,16.71,0,0,1,.2-2.57.18.18,0,0,1,.18-.16l.11,0A11.37,11.37,0,0,0,34.8,48.08Zm6.09,18a.17.17,0,0,1,.09.16.18.18,0,0,1-.14.18,6.09,6.09,0,0,1-7.39-6,6.89,6.89,0,0,1,.12-1.21.2.2,0,0,1,.19-.14.18.18,0,0,1,.16.1A18.46,18.46,0,0,0,40.89,66.08Zm-9-11.88v0a.28.28,0,0,1,0,.13,9.67,9.67,0,0,0-2.13,6.08,9.8,9.8,0,0,0,16,7.58.2.2,0,0,1,.14-.05h0A18.75,18.75,0,0,0,54,68h.05a.24.24,0,0,1,.14.05A9.78,9.78,0,1,0,64.76,51.69a.18.18,0,0,1-.1-.16.18.18,0,0,1,.14-.19,4.06,4.06,0,0,0,2.63-1.8,3.88,3.88,0,0,0,.47-1.17,7,7,0,0,0,0-2.37v0a.17.17,0,0,1,0-.12A9.79,9.79,0,0,0,54.22,32a.16.16,0,0,1-.13.06L54,32a19.17,19.17,0,0,0-4.11-.46,18.14,18.14,0,0,0-4,.44h-.05a.25.25,0,0,1-.12,0A9.78,9.78,0,0,0,31.9,45.63a.21.21,0,0,1,0,.12v0a18.62,18.62,0,0,0,0,8.4Zm18,8.57.18.21.06.07,0,.11a.17.17,0,0,1-.17.17H48.91a.2.2,0,0,1-.19-.19l0-.07.06-.22.12-.56c0-.07,0-.14,0-.21a.16.16,0,0,1,.17-.17.17.17,0,0,1,.12.06l.23.27Z"/></svg>