<svg id="图层_1" data-name="图层 1" xmlns="http://www.w3.org/2000/svg" viewBox="0 0 100 100"><defs><style>.cls-1{fill:#231815;}</style></defs><title>logohunt02</title><path class="cls-1" d="M36.94,49.62V62.75c0,1.88,0,4.36,5.28,4.36,3.8,0,6-1.52,7.15-3.35a10,10,0,0,0,1.47-5.17c0-5.53-4-9-10.14-9H36.94m2.39-1.12a9.25,9.25,0,0,0,4.16-.6,7.29,7.29,0,0,0,4-6.85c0-4.46-3-8.16-7.35-8.16a10.33,10.33,0,0,0-3.25.55V48.5Zm-10,19.73v-.41h.5c1.63,0,3.4-1.12,3.4-4V36.28c0-2.63-1.37-4.1-3.45-4.1h-.45v-.41H41.2c6.39,0,10.55,4,10.55,8.57s-3.4,7.2-7.86,8.37v.1c3.35.4,5.93,1,8.16,3.09a9.19,9.19,0,0,1-1.82,14.86c-2.54,1.42-6.69,1.47-7.3,1.47Z"/><path class="cls-1" d="M48,48.85c6.19,0,10.91,4.21,10.91,9.74a10,10,0,0,1-1.47,5.17,11.71,11.71,0,0,1-8.72,4.47H51c.61,0,4.77,0,7.3-1.47A9.2,9.2,0,0,0,60.13,51.9c-2.24-2.08-4-2.69-7.3-3.09v-.1c4.46-1.17,7-3.71,7-8.37s-4.16-8.57-10.55-8.57h-.55c4.06.25,7.71,5,7.71,9.28,0,4.71-4.11,6.49-4.87,6.85a10.09,10.09,0,0,1-3.56,1"/><path class="cls-1" d="M55.6,48.85c6.18,0,10.9,4.21,10.9,9.74A9.93,9.93,0,0,1,65,63.76a11.69,11.69,0,0,1-8.72,4.47h2.28c.61,0,4.77,0,7.31-1.47A9.19,9.19,0,0,0,67.72,51.9c-2.23-2.08-3.95-2.69-7.29-3.09v-.1c4.46-1.17,7-3.71,7-8.37s-4.16-8.57-10.55-8.57h-.56c4.07.25,7.72,5,7.72,9.28,0,4.71-4.12,6.49-4.88,6.85a10,10,0,0,1-3.55,1"/></svg>