<svg id="图层_1" data-name="图层 1" xmlns="http://www.w3.org/2000/svg" viewBox="0 0 100 100"><title>logohunt03</title><path d="M69.37,27.64a3.05,3.05,0,0,0,.32-1.44,3.25,3.25,0,0,0-1-2.38,3.17,3.17,0,0,0-2.35-.94,3.25,3.25,0,0,0-2.34.94,3,3,0,0,0-.94,2l-.1.06a3.29,3.29,0,0,0-1.56-.37,3.33,3.33,0,0,0-3.17,2.31,6.32,6.32,0,0,0-.75-.06,4.06,4.06,0,0,0-4,4A3.69,3.69,0,0,0,54.15,34a3.25,3.25,0,0,0-.85.59,2.79,2.79,0,0,0-.84,2,2.69,2.69,0,0,0,.84,2,2.81,2.81,0,0,0,2.07.85,2.94,2.94,0,0,0,1.76-.57,2.71,2.71,0,0,0,.81,1.88,2.76,2.76,0,0,0,2,.82,2.78,2.78,0,0,0,2.82-2.82,3.06,3.06,0,0,0-.12-.94A3.8,3.8,0,0,0,63.77,37a3,3,0,0,0,.43-.5h.16a2.6,2.6,0,0,0,1.94-.78,2.68,2.68,0,0,0,.82-1.94,2.78,2.78,0,0,0-.22-1.13,3.41,3.41,0,0,0,1.81-1,3.25,3.25,0,0,0,1-2.45,3.34,3.34,0,0,0-.38-1.59"/><path d="M44.16,31.9v-.22a3,3,0,0,0-3.07-3.07,2.24,2.24,0,0,0-.78.12,3.84,3.84,0,0,0-1-1.63A3.68,3.68,0,0,0,36.67,26a3.74,3.74,0,0,0-3.79,3.79,2.83,2.83,0,0,0,.1.78,1.41,1.41,0,0,0-.53.44,3.54,3.54,0,0,0,0,5,3,3,0,0,0,1.4.88,3.15,3.15,0,0,0-.72,2,3.11,3.11,0,0,0,.94,2.26,3.19,3.19,0,0,0,2.23.91h.06a3.9,3.9,0,0,0,1.19,2.72,4.06,4.06,0,0,0,3,1.22,4,4,0,0,0,2.94-1.22,3.91,3.91,0,0,0,1.19-2.41,2.92,2.92,0,0,0,1.28.28,3,3,0,0,0,2.23-.94,3.14,3.14,0,0,0,0-4.48,3,3,0,0,0-1.63-.87,4.1,4.1,0,0,0,.12-1,3.5,3.5,0,0,0-1.06-2.6,3.67,3.67,0,0,0-1.44-.87"/><path d="M61.2,53.23a2.25,2.25,0,0,0-.5-1.48.41.41,0,0,1,.09-.12,2.74,2.74,0,0,0,.85-2,2.89,2.89,0,0,0-2.82-2.81A2.82,2.82,0,0,0,56,49.22a1.67,1.67,0,0,0,0,.4v.07a1.94,1.94,0,0,0,0,.4,1.64,1.64,0,0,0-.41-.12,1.09,1.09,0,0,0-.31,0h-.13a2,2,0,0,0-1.25.56,1.86,1.86,0,0,0-.56,1.35,1.93,1.93,0,0,0,.56,1.38,2.32,2.32,0,0,0,.44.31,2.08,2.08,0,0,0-.22.38,1.07,1.07,0,0,0-.16.34v0a4.72,4.72,0,0,0-.12.69V55A2.48,2.48,0,0,0,58.1,56.8a2.3,2.3,0,0,0,.65-1.16h0a2.46,2.46,0,0,0,2.41-2.41"/><path d="M55.09,40.35a3.43,3.43,0,0,1-1.6-.5c-3.72,4.29-6,7.43-6.67,9.34a34.31,34.31,0,0,0-2-4.76,6,6,0,0,1-.79,1,5.67,5.67,0,0,1-.84.69,18,18,0,0,1,1.44,6.67,26.48,26.48,0,0,0-3.41,8.49c0,.21-.1.47-.13.68-.09-.25-.22-.47-.31-.68a10.09,10.09,0,0,0-2-3.07,2.91,2.91,0,0,1-.75.37c0,.16,0,.31.06.5v.22c.35.6.69,1.25,1,2a31.82,31.82,0,0,1,1.53,4.22c.35,1.1.72,2.1,1.13,3.07q2,4.65-2.82,8.55H52.08a35.17,35.17,0,0,1-2.41-3.54L48,70.08l-.19-.5a1.23,1.23,0,0,0-.09-.22c0-.07,0-.13-.06-.22a23.78,23.78,0,0,1-1.2-5.33,25.92,25.92,0,0,1,1.16-2.53,18.15,18.15,0,0,1,5.83-6.77,3.67,3.67,0,0,1,.13-.69l-.29-.19a21.7,21.7,0,0,0-6.83,5.08c1.32-5.33,4.2-11.43,8.65-18.36"/><path d="M35,52.57A2.84,2.84,0,0,0,33,51.85a2.79,2.79,0,0,0-2,.81,2.67,2.67,0,0,0-.82,2,2.61,2.61,0,0,0,.82,1.94,2.55,2.55,0,0,0,1.34.78,2.44,2.44,0,0,0-.65,1.72A2.61,2.61,0,0,0,32.57,61a2.7,2.7,0,0,0,3.88,0,2.58,2.58,0,0,0,.82-1.94A2.78,2.78,0,0,0,37,58a2.9,2.9,0,0,0,1.85-.91,2.8,2.8,0,0,0,.9-2.1,2.93,2.93,0,0,0-.9-2.13,2.83,2.83,0,0,0-2.1-.85,2.87,2.87,0,0,0-1.82.6"/></svg>