<svg id="图层_1" data-name="图层 1" xmlns="http://www.w3.org/2000/svg" viewBox="0 0 100 100"><defs><style>.cls-1{fill:#fff;}</style></defs><title>logohunt03</title><path d="M38.15,39V33.73A4.69,4.69,0,0,1,42.84,29h14a4.69,4.69,0,0,1,4.69,4.69v4.42H58.34V33.73a1.52,1.52,0,0,0-1.51-1.51h-14a1.51,1.51,0,0,0-1.51,1.51V39Z"/><rect x="22.82" y="36.16" width="54.37" height="34.81" rx="2.88"/><path d="M32.84,56.34l.66-1.57c2.59-4.76,8-7.64,13.44-7.89a21.9,21.9,0,0,1,8.12,1c2.38.81,5.08,2.25,6.36,5l2.39-.27a67.21,67.21,0,0,1,10.33-.1V40.06a1.52,1.52,0,0,0-1.52-1.51H27.18a1.52,1.52,0,0,0-1.51,1.51V56.57c2.38-.18,4.78-.26,7.17-.23"/><path class="cls-1" d="M25.67,57.27V59c7.52.07,14.79,2.69,21.47,6q3.4,1.71,6.67,3.71H70.08A84.26,84.26,0,0,0,25.67,57.27"/><path class="cls-1" d="M25.67,61.84v5.38a1.52,1.52,0,0,0,1.51,1.52H39.07c-.55-.47-1.12-.92-1.69-1.35a29.39,29.39,0,0,0-11.71-5.55"/><path class="cls-1" d="M64,54.26a54.26,54.26,0,0,0-14.31,4c1.92.42,3.84.9,5.74,1.45a44.59,44.59,0,0,1,18.72-4.63V53.51A65.06,65.06,0,0,0,64,54.26"/><path class="cls-1" d="M74.1,67.54a1.12,1.12,0,0,0,0-.32V55.87a39.32,39.32,0,0,0-15.06,5,87.55,87.55,0,0,1,15,6.67"/><path class="cls-1" d="M25.67,59.47v1.76a30.45,30.45,0,0,1,12.61,4.85A43,43,0,0,1,42,68.74H50.2c-1.25-.8-2.52-1.58-3.81-2.31-6.37-3.58-13.34-6.51-20.72-7"/><path class="cls-1" d="M47,48.47c-5-.14-10.46,2.22-13.28,6.61L33,56.34a83.44,83.44,0,0,1,12.11,1.07,50.66,50.66,0,0,1,13.49-4c-1.87-3.31-7.28-4.81-11.66-4.9"/><path d="M57.14,62l-2-2.18.29-.14c-1.9-.55-3.82-1-5.74-1.45-.8.37-1.58.77-2.33,1.2l-2.41-2,.18-.08A83.44,83.44,0,0,0,33,56.34c-.55,1-.6,1-.17,0-2.39,0-4.79,0-7.17.23v.7A84.26,84.26,0,0,1,70.08,68.74h2.54a1.51,1.51,0,0,0,1.48-1.2,87.55,87.55,0,0,0-15-6.67c-.66.37-1.3.76-1.94,1.17"/><path d="M25.67,59v.44c7.38.45,14.35,3.38,20.72,7q1.94,1.11,3.81,2.31h3.61q-3.27-2-6.67-3.71c-6.68-3.31-14-5.94-21.47-6"/><path d="M25.67,61.23v.61a29.39,29.39,0,0,1,11.71,5.55c.57.43,1.14.88,1.69,1.35H42a43,43,0,0,0-3.69-2.66,30.45,30.45,0,0,0-12.61-4.85"/><path d="M63.81,52.68,61.42,53c.09.21.18.42.26.64l-2.63.8a5.15,5.15,0,0,0-.44-1,50.66,50.66,0,0,0-13.49,4c1.53.24,3,.53,4.56.86a54.26,54.26,0,0,1,14.31-4,65.06,65.06,0,0,1,10.15-.75v-.93a67.21,67.21,0,0,0-10.33.1"/><path d="M44.94,57.49l2.41,2c.75-.43,1.53-.83,2.33-1.2-1.52-.33-3-.62-4.56-.86l-.18.08"/><path d="M59.08,60.87a39.38,39.38,0,0,1,15.06-5v-.78a44.59,44.59,0,0,0-18.72,4.63c1.22.36,2.45.74,3.66,1.15"/><path d="M57.14,62c.64-.41,1.28-.8,1.94-1.17-1.21-.41-2.44-.79-3.66-1.15l-.29.14Z"/><path class="cls-1" d="M47,48.47c4.38.09,9.79,1.59,11.66,4.9.94-.16,1.88-.3,2.81-.42-1.28-2.78-4-4.22-6.36-5a21.9,21.9,0,0,0-8.12-1c-5.47.25-10.85,3.13-13.44,7.89l-.66,1.57H33l.66-1.26C36.49,50.69,42,48.33,47,48.47"/><path d="M33,56.34h-.17c-.43,1-.38,1,.17,0"/><path d="M59.05,54.39l2.63-.8c-.08-.22-.17-.43-.26-.64-.93.12-1.87.26-2.81.42a5.42,5.42,0,0,1,.44,1"/><path class="cls-1" d="M36.84,38.59l-.1-.21v.21H34.22l2.52,3.49L40,46.58c.7,1,.87.87.38-.22Z"/><path class="cls-1" d="M35.16,47.25,33.8,45.67l-.06-.06L33.2,45l-5.52-6.39h-.32a1.91,1.91,0,0,0-1.7,1.06l6.75,6,.79.7.6.52.46.42,1.39,1.22c1.33,1.17,1.46,1,.3-.3Z"/><path class="cls-1" d="M32.68,54.52c0-.07-.27-.15-.8-.21l-6.42-.73v1.87l6.42-.71c.53-.06.8-.14.8-.22"/><path class="cls-1" d="M33,51.35l-4.11-2.08-3.4-1.72v2l7.35,2.16c1.25.37,1.32.19.16-.4"/><path class="cls-1" d="M65.57,38.59H62.43l-.77,1-2.36,3-3.2,4.06c-.89,1.13-.75,1.26.31.29l2.89-2.62,5.2-4.71Z"/><path class="cls-1" d="M45.05,38.59H43l2.24,7c.32,1,.51,1,.42-.08Z"/><path class="cls-1" d="M74.53,40.32,61.9,47.72l-.1.06-1.37.81c-1.58.92-1.5,1.1.19.38l1.18-.5,1.78-.75,11-4.63V40.5a1.09,1.09,0,0,0,0-.18"/><path class="cls-1" d="M62.66,51.21c-1.47.39-1.44.58.07.43l11.59-1.13V48.18l-3.87,1Z"/><path class="cls-1" d="M50.43,45.74c-.16,1,0,1.09.41.11l2.84-7.26H51.47Z"/></svg>