<svg id="图层_1" data-name="图层 1" xmlns="http://www.w3.org/2000/svg" viewBox="0 0 100 100"><defs><style>.cls-1{fill:#231815;}</style></defs><title>logohunt01</title><path class="cls-1" d="M28.91,74.48l-.4,1.25H38.74l.4-1.25H28.91m.8-2.51-.4,1.25H39.54l.4-1.25Zm.8-2.51-.4,1.25H40.34l.4-1.25Zm.8-2.51-.4,1.25H41.14l.4-1.25Zm.8-2.51-.4,1.25H41.94l.4-1.25ZM38.5,44.35l-.4,1.26H48.33l.39-1.26Zm24.75,0-.4,1.26H73.08l.4-1.26Zm-24-2.51-.4,1.26H49.12l.4-1.26Zm24.75,0-.4,1.26H73.88l.4-1.26Zm.8-2.51-.4,1.26H74.68l.4-1.26Zm.8-2.51-.4,1.26H75.48l.4-1.26Zm.8-2.51-.4,1.25H76.28l.4-1.25Zm.8-2.51-.4,1.25H77.08l.4-1.25Zm.8-2.51-.4,1.25H77.87l.4-1.25Zm.79-2.51L68.44,28H78.67l.4-1.25ZM20.13,24.27,32.51,63.18H42.74l.4-1.26H32.91l.4-1.25H43.53l.4-1.26H33.71l.39-1.25H44.33l.4-1.26H34.5l.4-1.25H45.13l.4-1.26H35.3l.4-1.25H45.93l.4-1.26H36.1l.4-1.25H46.73l.4-1.26H36.9l.4-1.25H47.53l.4-1.26H37.54L30.36,24.27Zm24.76,0-.4,1.25H54.71l-.39,1.26H44.09L43.69,28H53.92l-.4,1.26H43.29l-.4,1.25H53.12l-.4,1.26H42.49l-.4,1.25H52.32l-.4,1.26H41.69l-.4,1.25H51.52l-.4,1.26H40.89l-.4,1.26H50.72l-.4,1.25H40.09l-.4,1.26H50.08l7.18,22.59H67.49l.4-1.26H57.66l.4-1.25H68.29l.4-1.26H58.46l.4-1.25H69.09l.4-1.26H59.26l.4-1.25H69.89l.4-1.26H60.06l.4-1.25H70.69l.4-1.26H60.86l.4-1.25H71.49l.39-1.26H61.66l.4-1.25H72.28l.4-1.26H62.3L55.11,24.27Zm24.75,0-.4,1.25H79.47l.4-1.25Z"/></svg>