<svg id="图层_1" data-name="图层 1" xmlns="http://www.w3.org/2000/svg" viewBox="0 0 100 100"><title>logohunt02</title><path d="M48.32,61.28c0-2.08,0-4.16,0-6.23,0-1-.39-1.37-1.37-1.31s-2.12,0-3.19,0-1.29.34-1.27,1.28c0,2.37,0,4.74,0,7.1A3.88,3.88,0,0,1,39.47,66a15.24,15.24,0,0,1-3.37.58C35,66.58,34.92,66,35,65.2s-.19-1.63,1.06-1.58a4.84,4.84,0,0,0,2.81-.47,1.35,1.35,0,0,0,.81-1.24c0-2.37,0-4.73,0-7.1,0-.74-.36-1.05-1.06-1.05s-1.64,0-2.46,0c-1.1,0-1.19-.63-1.2-1.51s.3-1.44,1.31-1.43c3.24,0,6.47,0,9.71,0l1.45,0c.65,0,1-.3.92-1,0-1.06,0-2.13,0-3.19s.34-1.16,1.71-1.17c.82,0,1.27.18,1.21,1.12s0,2,0,3c-.07.85.35,1.15,1.06,1.2s1.45,0,2.18,0l8.54,0a1.6,1.6,0,0,1,1.53,2.43c-.29.58-.9.49-1.42.5-2.85,0-5.7,0-8.55,0h-2c-.94,0-1.34.41-1.32,1.43.05,4.15,0,8.3,0,12.46,0,.43.27,1.1-.39,1.23a3.32,3.32,0,0,1-2.26-.14c-.39-.22-.24-.7-.24-1.08,0-2.12,0-4.25,0-6.37Z"/><path d="M34.42,47.28c-.16-.89.27-1.49,1.22-1.89a66.77,66.77,0,0,0,6.45-2.9,40.17,40.17,0,0,1,5.69-2.73c.56-.21.54-.64.52-1.06,0-1,.57-1.21,1.39-1.19s1.63-.23,1.56,1c0,.68.44,1,1,1.24,4.2,1.64,8,4.13,12.21,5.76a2.15,2.15,0,0,1,.92,2.84c-.24.4-.54.43-1,.23C60.79,47,57.14,45.35,53.5,43.73a6,6,0,0,1-1.31-.59c-1.85-1.5-3.47-.56-5.22.28-3.82,1.82-7.69,3.52-11.55,5.25C34.62,49,34.42,48.75,34.42,47.28Z"/><path d="M61.73,35.24c-1.11.06-2.23-.25-3.21.81a1.62,1.62,0,0,1-2.21-.23,1.94,1.94,0,0,0-1.54-.59c-3.19,0-6.38,0-9.57,0a1.73,1.73,0,0,0-1.53.59,2.28,2.28,0,0,1-2.74.05,1.66,1.66,0,0,0-1.63-.63c-1,0-1.93,0-2.9,0C35.16,35.2,35,35,35,33.76s.2-1.43,1.42-1.46,2.13,0,3.19,0c.53,0,1,0,1.18-.72s2.58-.76,2.82-.08a1,1,0,0,0,1.15.8H55.24a1.07,1.07,0,0,0,1-.43,1.68,1.68,0,0,1,2.89,0c.31.5.67.46,1.08.47,1.12,0,2.23,0,3.34,0,.75,0,1,.31,1,1,.12,1.83.06,1.92-1.85,1.93Z"/><path d="M57.5,61.85a1.75,1.75,0,0,1,1.82-2.07,2.28,2.28,0,0,1,2.28,2.08,2.17,2.17,0,0,1-2.2,2A1.85,1.85,0,0,1,57.5,61.85Z"/></svg>