<svg id="图层_1" data-name="图层 1" xmlns="http://www.w3.org/2000/svg" viewBox="0 0 100 100"><defs><style>.cls-1{fill:#231815;}</style></defs><title>logohunt02</title><path class="cls-1" d="M48.54,79.1a24,24,0,0,0,8.9,1.9A15.77,15.77,0,0,0,65,79.15a17.57,17.57,0,0,0,8.14-9.88c.7-3.51,2-15.35-10.78-20.15-6.65-2.49-10.65-.41-12.58,1.25-.53-1.36-1-3.38,0-5a5.92,5.92,0,0,1,4.3-2.64l2.45-.19L55,40.66c-.28-.33-6.8-8.21-2-15.23a8.16,8.16,0,0,1,6.71-3.91,11.54,11.54,0,0,1,8.61,3.95,9.11,9.11,0,0,1,1,8.23,4.36,4.36,0,0,1-3.59,2.89,5.52,5.52,0,0,1-4.91-1.19,5,5,0,0,1-1.32-4.17,3.26,3.26,0,0,1,2.74-2.4,2.27,2.27,0,0,1,2.51,1.59l2.32-1A4.77,4.77,0,0,0,62,26.33,5.73,5.73,0,0,0,57,30.87a7.54,7.54,0,0,0,2,6.32c1.18,1.17,3.37,2.44,7.06,1.9a7,7,0,0,0,5.56-4.43A11.57,11.57,0,0,0,70.32,24,14.21,14.21,0,0,0,59.64,19a10.57,10.57,0,0,0-8.73,5c-4.48,6.51-1,13.57,1,16.67a8,8,0,0,0-4.25,3.38c-2.47,4,.63,9,.76,9.19l1.09,1.68,1.05-1.7c.12-.19,3-4.71,10.94-1.75,10.93,4.1,9.8,14.28,9.17,17.36a15.49,15.49,0,0,1-7,8.19A13.17,13.17,0,0,1,58.9,78.3c-1-.58-4-2.49-4.62-5.65-.52-2.59.67-5.53,3.45-8.71,2.4.17,4.42.42,5.47,1.19a3.27,3.27,0,0,1,1.48,2.71A4.28,4.28,0,0,1,63.19,71l1.51,2a6.75,6.75,0,0,0,2.5-5.22,5.74,5.74,0,0,0-2.51-4.75c-1.91-1.39-4.83-1.56-8.53-1.78s-8.22-.49-12.33-2.2C36.53,56.07,29,49,29,42.37c0-6.39,4.44-8,5.09-8,1.42,0,1.69.52,1.69,1.46,0,1.27-2,2-2.08,2l.75,2.41c1.43-.43,3.84-1.84,3.84-4.37s-1.58-4-4.2-4c-2.24,0-7.6,3-7.6,10.53a13.12,13.12,0,0,0,1.15,5.08C27.43,49.73,26.54,70.28,48.54,79.1Z"/></svg>