<svg id="图层_1" data-name="图层 1" xmlns="http://www.w3.org/2000/svg" viewBox="0 0 100 100"><defs><style>.cls-1{fill:#231815;}</style></defs><title>logohunt01</title><path class="cls-1" d="M36.69,43.75V44a.13.13,0,0,0,.11.13H38c.13,0,.14-.14.14-.14v-.2a1.59,1.59,0,0,0-.88-1.65,4,4,0,0,0-1.51-.18h-.31v-1a.53.53,0,0,0,.16-.23h.1a.51.51,0,0,0,.48.34.5.5,0,0,0,.5-.5.5.5,0,0,0-.5-.51.52.52,0,0,0-.48.35h-.1a.5.5,0,0,0-1,0h-.1a.5.5,0,0,0-1,.16.5.5,0,0,0,1,.16h.1a.46.46,0,0,0,.16.23v1h-1v-.14h0a.58.58,0,0,0-.58-.57.57.57,0,0,0-.57.57v1.7a.57.57,0,0,0,.58.57.56.56,0,0,0,.57-.57v-.14h2.39a.37.37,0,0,1,.42.42m.63,3.18h.15a.75.75,0,0,0,.67-.83,3.89,3.89,0,0,0-.74-1.72,6.54,6.54,0,0,0-.75,1.72A.75.75,0,0,0,37.32,46.93Zm.58,13.12a.64.64,0,0,0,.59.72h.13a.64.64,0,0,0,.58-.72,3.32,3.32,0,0,0-.65-1.52A5.84,5.84,0,0,0,37.9,60.05Zm.56-3.53a3.7,3.7,0,0,0-1.33-.15h-.27V55.5a.6.6,0,0,0,.14-.21h.09a.44.44,0,0,0,.42.31.45.45,0,0,0,0-.89.43.43,0,0,0-.42.3H37a.44.44,0,0,0-.84,0h-.09a.43.43,0,0,0-.42-.3.45.45,0,1,0,.42.58h.09a.41.41,0,0,0,.14.2v.88h-.85v-.13h0a.5.5,0,0,0-.5-.51.51.51,0,0,0-.51.51v1.49a.5.5,0,0,0,.51.5.5.5,0,0,0,.5-.5V57.6h2.1a.33.33,0,0,1,.37.37v.19a.11.11,0,0,0,.1.11h1.08a.12.12,0,0,0,.12-.12V58A1.4,1.4,0,0,0,38.46,56.52Zm6.31,6.3a.67.67,0,0,0,.61.75h.14a.67.67,0,0,0,.61-.75,6.15,6.15,0,0,0-.68-1.58A3.44,3.44,0,0,0,44.77,62.82Zm4.94-2.41V58.87a.53.53,0,0,0-.53-.53.52.52,0,0,0-.52.53h0V59h-.87v-.91a.48.48,0,0,0,.14-.2H48a.45.45,0,0,0,.43.31.46.46,0,0,0,0-.92.45.45,0,0,0-.43.31h-.09a.48.48,0,0,0-.44-.31.45.45,0,0,0-.43.31H47a.48.48,0,0,0-.44-.31.46.46,0,1,0,0,.92.48.48,0,0,0,.44-.31h.09a.6.6,0,0,0,.14.21V59h-.28a3.7,3.7,0,0,0-1.38.16,1.47,1.47,0,0,0-.8,1.51v.18s0,.13.13.13H46a.13.13,0,0,0,.1-.12v-.19a.34.34,0,0,1,.38-.39h2.19v.13a.53.53,0,0,0,.53.53A.52.52,0,0,0,49.71,60.41Zm8.4-20.14h1.12s.11,0,.11-.12V40a.33.33,0,0,1,.38-.38H61.9v.13a.53.53,0,0,0,.53.52.52.52,0,0,0,.52-.52V38.16a.52.52,0,0,0-.52-.53.53.53,0,0,0-.53.53v.13H61v-.9a.6.6,0,0,0,.14-.21h.09a.46.46,0,0,0,.9-.15.47.47,0,0,0-.46-.46.46.46,0,0,0-.44.31h-.09a.46.46,0,0,0-.87,0h-.09a.46.46,0,0,0-.44-.31.47.47,0,0,0-.46.46.46.46,0,0,0,.9.15h.09a.41.41,0,0,0,.15.21v.9h-.29a3.54,3.54,0,0,0-1.37.17A1.43,1.43,0,0,0,58,40v.19A.12.12,0,0,0,58.11,40.27Zm1.26,1.84a6.2,6.2,0,0,0-.68-1.57A3.42,3.42,0,0,0,58,42.11a.66.66,0,0,0,.61.75h.13A.67.67,0,0,0,59.37,42.11ZM56.66,66.74a.56.56,0,0,0,.52-.63,5,5,0,0,0-.57-1.34A2.91,2.91,0,0,0,56,66.11a.57.57,0,0,0,.52.63Zm3.12-4.43a.45.45,0,0,0-.45.44v.12h-.74V62.1a.44.44,0,0,0,.12-.18h.08a.37.37,0,0,0,.36.27.4.4,0,0,0,.4-.39.39.39,0,0,0-.39-.39.38.38,0,0,0-.37.26h-.08a.39.39,0,0,0-.74,0h-.08a.38.38,0,0,0-.36-.26.39.39,0,0,0-.4.39.4.4,0,0,0,.4.39.37.37,0,0,0,.36-.27H58a.4.4,0,0,0,.13.18v.77h-.24a2.93,2.93,0,0,0-1.17.14A1.21,1.21,0,0,0,56,64.28v.16s0,.11.1.11h1a.12.12,0,0,0,.09-.11v-.16c0-.22.11-.32.33-.32h1.85v.11a.45.45,0,0,0,.89,0V62.75A.44.44,0,0,0,59.78,62.31ZM74.4,65.49a.1.1,0,0,0,.1.1h1a.1.1,0,0,0,.09-.1v-.16a.29.29,0,0,1,.32-.33h1.86v.11a.45.45,0,1,0,.89,0V63.8a.45.45,0,0,0-.89,0v.12H77v-.77A.57.57,0,0,0,77.1,63h.07a.4.4,0,0,0,.37.27.4.4,0,0,0,0-.79.41.41,0,0,0-.37.27H77.1a.41.41,0,0,0-.37-.27.4.4,0,0,0-.37.27h-.08a.39.39,0,1,0-.37.52.39.39,0,0,0,.37-.27h.08a.44.44,0,0,0,.12.18v.77h-.24a3.27,3.27,0,0,0-1.17.13,1.24,1.24,0,0,0-.67,1.28Zm0,1.66a.57.57,0,0,0,.52.64h.11a.57.57,0,0,0,.52-.64A5,5,0,0,0,75,65.82,2.93,2.93,0,0,0,74.42,67.15Zm3.66-28c.09,0,.09,0,.09-.12V36.5c0-.09,0-.09-.11,0l-2.22.9c-.11,0-.11,0-.11.13V40c0,.09,0,.09.1.05Zm-4.81-2.68c-.1,0-.1,0-.1.06V39c0,.08,0,.08.09.12l2.24,1c.11,0,.11,0,.11-.05V37.48c0-.09,0-.09-.11-.13Zm1.2-3.39c0-.08,0-.08-.12-.05l-2.29.92c-.09,0-.08,0,0,.12l1.12,2.13c0,.08,0,.09.12,0l2.28-1c.09,0,.08,0,0-.12Zm2.42,0-1.14,2.07c0,.08,0,.09,0,.12l2.29,1c.08,0,.08,0,.12,0L79.31,34c0-.08,0-.08,0-.11L77,33C76.93,33,76.93,33,76.89,33.06ZM60.83,49.41h0a.11.11,0,0,0,.12-.12v-.75h0v-.09a.11.11,0,0,0-.12-.12h-.75v-.72c0-.09,0-.14-.12-.14h-.83a.11.11,0,0,0-.12.12v.74h-.75a.11.11,0,0,0-.12.12v0h0v.8q0,.12.15.12H59v.74a.11.11,0,0,0,.12.12H60a.11.11,0,0,0,.12-.12v-.74h.74ZM34.55,44.55H33.6c-.09,0-.14,0-.14.13v.85h-.85c-.09,0-.13,0-.13.14v0h0v.91c0,.09.05.14.16.14h.82v.85a.13.13,0,0,0,.14.14h.95a.13.13,0,0,0,.14-.14v-.85h.85a.13.13,0,0,0,.14-.14v-.85h0v-.1c0-.09,0-.13-.14-.13h-.85v-.83C34.69,44.6,34.64,44.55,34.55,44.55ZM44.66,58.43h0a.17.17,0,0,0,.19-.19V57.05h0v-.15c0-.12-.06-.18-.19-.18H43.49V55.58c0-.16-.06-.24-.19-.24H42a.17.17,0,0,0-.19.19v1.18H40.59a.17.17,0,0,0-.19.19V57h0v1.27c0,.12.08.18.23.18h1.15v1.2a.17.17,0,0,0,.19.19H43.3a.17.17,0,0,0,.19-.19v-1.2h1.17Zm25.1-24.59c0-.25-.1-.38-.31-.38H67.3a.27.27,0,0,0-.3.3v1.92H65.08a.27.27,0,0,0-.3.3v.1h0v2c0,.2.13.31.38.31H67v1.92a.27.27,0,0,0,.3.3h2.16a.27.27,0,0,0,.3-.3V38.45h1.92c.21,0,.31-.1.31-.3V36.22h0V36a.27.27,0,0,0-.3-.3H69.76Zm1.24,36a.28.28,0,0,0-.31-.31H68.77V67.69c0-.25-.1-.37-.3-.37H66.32a.27.27,0,0,0-.31.31v1.91H64.1a.27.27,0,0,0-.31.31V70h0v2c0,.2.12.3.38.3H66v1.92a.28.28,0,0,0,.31.31h2.15a.28.28,0,0,0,.31-.31V72.3H70.7c.2,0,.3-.1.3-.31V70.07h0ZM46.17,50h0c-.19,0-.28.1-.28.29v1.78H44.07c-.19,0-.29.09-.29.28v.09h0v1.9c0,.19.12.28.35.28h1.72v1.79a.25.25,0,0,0,.28.28h2c.19,0,.29-.09.29-.28V54.67h1.79a.25.25,0,0,0,.28-.28V52.6h0v-.22a.24.24,0,0,0-.28-.28H48.41V50.39c0-.23-.09-.35-.28-.35h-2Zm16.35,6.41a.24.24,0,0,0-.27-.27H60.54V54.53q0-.33-.27-.33H58.36c-.18,0-.27.09-.27.28v1.7h-1.7a.24.24,0,0,0-.27.27v.08h0v1.82c0,.17.11.26.33.26H58.1v1.71a.24.24,0,0,0,.27.27h1.91a.24.24,0,0,0,.27-.27v-1.7h1.7a.24.24,0,0,0,.27-.27v-1.7h0ZM30,30.71h1.85v1.92a.27.27,0,0,0,.31.31h2.15a.27.27,0,0,0,.3-.3V30.71h1.93a.27.27,0,0,0,.3-.3V28.49h0v-.23a.27.27,0,0,0-.31-.3H34.65V26.11c0-.26-.1-.38-.31-.38H32.19a.27.27,0,0,0-.3.31V28H30a.27.27,0,0,0-.3.3v.1h0v2.05C29.67,30.61,29.79,30.71,30,30.71ZM21.43,52.34h1.85v1.92a.28.28,0,0,0,.31.31h2.15c.2,0,.3-.1.3-.31V52.34H28c.2,0,.3-.1.3-.31V50.11h0v-.23a.28.28,0,0,0-.31-.31H26V47.73c0-.25-.1-.37-.3-.37H23.59a.27.27,0,0,0-.31.31v1.91H21.37a.27.27,0,0,0-.31.31V50h0v2C21.06,52.24,21.18,52.34,21.43,52.34Zm35.16-7,1.62,1.85.82-.69v0l-1.57-1.87h1.65a9.58,9.58,0,0,0-1-1.16H55.76a17.74,17.74,0,0,0-.41,2.37,13.65,13.65,0,0,0,1,1.16A11.88,11.88,0,0,0,56.59,45.39Zm16.48-13h0l3.43-2.88v3a19.59,19.59,0,0,0,2.13-1.77V26.39a31.83,31.83,0,0,0-4.34-.76,21.66,21.66,0,0,0-2.13,1.78,19.73,19.73,0,0,0,3,.51l-3.39,3Zm-9.59-3.92h.45v3a.29.29,0,0,0,.09.21.31.31,0,0,0,.21.09h3a.33.33,0,0,0,.21-.09.32.32,0,0,0,.08-.21v-3H68a.3.3,0,0,0,.27-.18A.31.31,0,0,0,68.2,28L65.94,25.7a.29.29,0,0,0-.42,0L63.27,28a.3.3,0,0,0-.07.32A.32.32,0,0,0,63.48,28.46ZM38.9,42.76a.32.32,0,0,0,.29.19h.48l0,3.17a.3.3,0,0,0,.08.22.31.31,0,0,0,.22.09l3.18,0a.31.31,0,0,0,.22-.09.32.32,0,0,0,.1-.21l0-3.17h.47a.32.32,0,0,0,.29-.19.3.3,0,0,0-.06-.34l-2.37-2.4a.3.3,0,0,0-.44,0L39,42.42A.33.33,0,0,0,38.9,42.76Zm19.61,7.93a.19.19,0,0,0-.32-.14L56.71,52a.2.2,0,0,0,0,.27l1.44,1.47a.2.2,0,0,0,.21,0,.19.19,0,0,0,.12-.17v-.3l2,0a.2.2,0,0,0,.14-.06.19.19,0,0,0,0-.13l0-2a.21.21,0,0,0-.19-.2H58.51v-.29Zm18.14-.53a.34.34,0,0,0-.48,0L73.6,52.73a.34.34,0,0,0-.07.37.33.33,0,0,0,.31.21h.52v3.44a.33.33,0,0,0,.1.24.35.35,0,0,0,.24.1h3.44a.35.35,0,0,0,.24-.1.37.37,0,0,0,.1-.24V53.32H79a.33.33,0,0,0,.24-.57ZM63.06,56.09h0L66,52.85l.4,2.93a18.21,18.21,0,0,0,1.82-2l-.57-4.22a31.92,31.92,0,0,0-4.3-.16,25.1,25.1,0,0,0-1.82,2,19,19,0,0,0,3,.1l-2.88,3.31ZM73,67.26a.13.13,0,0,0,0-.12V65.36h.27a.2.2,0,0,0,.17-.11.19.19,0,0,0,0-.19l-1.35-1.35a.18.18,0,0,0-.25,0l-1.33,1.34a.15.15,0,0,0,0,.19.18.18,0,0,0,.16.11h.27v1.79a.17.17,0,0,0,0,.12.16.16,0,0,0,.13.06h1.79A.14.14,0,0,0,73,67.26Zm-8.1-18.83a.2.2,0,0,0,.14.06h2a.21.21,0,0,0,.2-.19v-2h.29a.2.2,0,0,0,.18-.12.2.2,0,0,0,0-.21l-1.48-1.48a.21.21,0,0,0-.28,0L64.36,46a.2.2,0,0,0,0,.21.18.18,0,0,0,.18.12h.3v2A.21.21,0,0,0,64.85,48.43ZM22.47,62.55l3.59-3v3.18a19.5,19.5,0,0,0,2.23-1.86V56.27a39.06,39.06,0,0,0-4.54-.78,23.31,23.31,0,0,0-2.23,1.86,20.79,20.79,0,0,0,3.14.53L21.11,61l1.32,1.57Zm1.81.32a.32.32,0,0,0-.43,0l-2.31,2.32a.3.3,0,0,0-.07.33.3.3,0,0,0,.28.19h.47v3.11a.27.27,0,0,0,.09.21.29.29,0,0,0,.21.09h3.11a.31.31,0,0,0,.31-.3v-3.1h.46a.31.31,0,0,0,.28-.19.3.3,0,0,0-.06-.33ZM79.11,68.7v0l-1.57-1.32-3.1,3.55a21.13,21.13,0,0,0-.53-3.14A23.31,23.31,0,0,0,72.05,70a34.49,34.49,0,0,0,.79,4.54h4.58a18.61,18.61,0,0,0,1.85-2.23H76.1ZM28.18,48.37a.16.16,0,0,0,.11.1.2.2,0,0,0,.15,0l1.77-.85.13.27h0a.19.19,0,0,0,.18.11.2.2,0,0,0,.17-.13l.7-2a.19.19,0,0,0-.11-.25l-2-.7a.19.19,0,0,0-.2.06.18.18,0,0,0,0,.21l.13.27-1.78.85a.22.22,0,0,0-.1.11.23.23,0,0,0,0,.14Zm6,12.47a.24.24,0,0,0-.33,0l-1.74,1.74a.25.25,0,0,0-.05.25.24.24,0,0,0,.21.14h.36V65.3a.23.23,0,0,0,.06.16.24.24,0,0,0,.16.07h2.34a.24.24,0,0,0,.23-.23V63h.35a.24.24,0,0,0,.21-.14.25.25,0,0,0,0-.25Zm-.1,5.87a2.84,2.84,0,0,0-3,1.39A29.14,29.14,0,0,0,30,71s0,0,.12.08.72.17,1.13-1a1.69,1.69,0,0,1,.37-.62s0,0,.05,0l0,0,0,4a.45.45,0,0,0,.44.45.46.46,0,0,0,.45-.44V70.88a.11.11,0,0,1,.11-.11.11.11,0,0,1,.11.12v3a.43.43,0,0,0,.43.45.45.45,0,0,0,.45-.44l0-3.08a.12.12,0,0,1,.13-.13.13.13,0,0,1,.12.12l0,3a.44.44,0,0,0,.44.44.43.43,0,0,0,.44-.43l0-2.89a.11.11,0,0,1,.12-.12.12.12,0,0,1,.13.12v1.83a.45.45,0,0,0,.44.45.44.44,0,0,0,.44-.44v-4.1A2.18,2.18,0,0,0,34.1,66.71Zm-4.52,2.63A1.38,1.38,0,0,0,28.26,68H28.2a1.38,1.38,0,0,0-1.37,1.32v3.65a1.38,1.38,0,0,0,1.32,1.38h.06A1.38,1.38,0,0,0,29.58,73v-.06h0Zm-2.42,1.74V69.34s0,0,0,0a1,1,0,0,1,1-1h0a1,1,0,0,1,1,1v1.74A2.59,2.59,0,0,0,27.16,71.08Zm-2-.89a1.35,1.35,0,0,0-1,.55,1.33,1.33,0,0,0-1-.55,1.22,1.22,0,0,0-1.22,1.27s-.05,1.28,2.22,2.79c2.3-1.43,2.25-2.79,2.25-2.79A1.23,1.23,0,0,0,25.16,70.19Zm23.73-4.36a.57.57,0,0,0-.78-.17.55.55,0,0,0-.17.77l1.25,2a.16.16,0,0,1,0,.22.15.15,0,0,1-.22,0l-2-3.09a.57.57,0,0,0-.78-.17.57.57,0,0,0-.17.78l2,3.19a.16.16,0,0,1,0,.21.15.15,0,0,1-.23,0l-2.1-3.3a.57.57,0,0,0-.78-.17.55.55,0,0,0-.17.77l2,3.2a.12.12,0,0,1,0,.19.15.15,0,0,1-.2,0l-1.76-2.77a.57.57,0,0,0-.78-.17.55.55,0,0,0-.17.77l2.75,4.31a0,0,0,0,1,0,0,.1.1,0,0,1-.06,0,2,2,0,0,1-.81-.41c-1.27-1-1.77-.5-1.93-.36s-.08.18-.08.18a36.46,36.46,0,0,0,3.14,2.38c.48.23,2.67,1.12,4.2-.56a2.78,2.78,0,0,0,.66-3.28ZM44,65.77A1.36,1.36,0,0,0,44.47,64l-1.86-3.1a1.37,1.37,0,0,0-1.83-.49l-.05,0a1.36,1.36,0,0,0-.49,1.82l0,0,1.84,3.05a1.36,1.36,0,0,0,1.82.49Zm-2.54-2.2-.89-1.48a.08.08,0,0,1,0,0,1,1,0,0,1,.37-1.39l0,0a1,1,0,0,1,1.39.38l.89,1.48A2.59,2.59,0,0,0,41.44,63.57ZM56.85,67.2l-.06,0A1.74,1.74,0,0,0,54.5,68l-2.13,4.11a1.74,1.74,0,0,0,.78,2.28.09.09,0,0,0,.06,0,1.74,1.74,0,0,0,2.29-.77l2.09-4,0-.06A1.76,1.76,0,0,0,56.85,67.2Zm.4,2.11,0,0-1,2a3.31,3.31,0,0,0-2.36-1.22l1-2a1.32,1.32,0,0,1,1.74-.59l0,0A1.33,1.33,0,0,1,57.25,69.31Zm-8.76-6.87a.77.77,0,0,0-.59.32.73.73,0,0,0-.58-.32.7.7,0,0,0-.7.73s0,.74,1.28,1.61c1.32-.83,1.29-1.61,1.29-1.61A.7.7,0,0,0,48.49,62.44ZM37.86,53.78A2.92,2.92,0,0,0,41,55.22a2.29,2.29,0,0,0,1.86-2l0-4.33a.48.48,0,0,0-.47-.46.47.47,0,0,0-.45.48l0,1.93s0,.12-.13.13a.12.12,0,0,1-.13-.13l0-3.05a.45.45,0,0,0-.46-.45.46.46,0,0,0-.46.47l.05,3.14s0,.13-.13.13a.12.12,0,0,1-.13-.14l0-3.25a.45.45,0,0,0-.46-.45.46.46,0,0,0-.45.47l0,3.14s0,.12-.11.12-.12,0-.12-.11l0-2.72a.45.45,0,0,0-.46-.46.46.46,0,0,0-.45.47l.06,4.24a0,0,0,0,1,0,0s-.05,0-.05,0a1.72,1.72,0,0,1-.38-.65c-.44-1.28-1-1.12-1.18-1.09s-.13.09-.13.09A30.63,30.63,0,0,0,37.86,53.78ZM44,49.05a.25.25,0,0,0,.25.24.23.23,0,0,0,.24-.25V48a.07.07,0,0,1,.07-.07s.06,0,.07.07l0,1.64a.23.23,0,0,0,.25.24.25.25,0,0,0,.24-.25l0-1.69a.07.07,0,0,1,.07-.07.06.06,0,0,1,.07.07l0,1.75a.25.25,0,0,0,.25.25.24.24,0,0,0,.24-.26l0-1.69a.06.06,0,0,1,.06-.06.07.07,0,0,1,.07.06l0,1.46a.25.25,0,0,0,.24.25.25.25,0,0,0,.25-.25l0-2.28v0h0a1,1,0,0,1,.21.35c.24.69.55.61.64.59s.06-.05.06-.05a15.85,15.85,0,0,0-.62-1.64,1.57,1.57,0,0,0-1.69-.78,1.24,1.24,0,0,0-1,1.09ZM30.32,38.18h-.05a1.37,1.37,0,0,0-1.37,1.31v0h0v3.57a1.37,1.37,0,0,0,1.32,1.36h.05a1.35,1.35,0,0,0,1.36-1.31s0,0,0,0V39.54A1.36,1.36,0,0,0,30.32,38.18Zm1,5a1,1,0,0,1-1,1h0a1,1,0,0,1-1-1V41.38a2.61,2.61,0,0,0,2.08,0v1.77Zm-9.67-8,2.71,0c0,.1,0,.21.08.31l-2.66,0a.55.55,0,0,0,0,1.09l3.54,0,.17.11h0v0a.14.14,0,0,1-.15.16l-2.26,0a.56.56,0,0,0-.56.55.55.55,0,0,0,.55.55h5.07a2.71,2.71,0,0,0,2.37-2.25c.59-2.13-1.27-3.48-1.71-3.75a35.75,35.75,0,0,0-3.59-1.37s-.07,0-.1.16-.21.89,1.29,1.41a2,2,0,0,1,.76.46.08.08,0,0,1,0,.06s0,0,0,0l-5,0a.55.55,0,0,0,0,1.09l2.43,0a1.39,1.39,0,0,0-.12.28l-2.81,0a.55.55,0,1,0,0,1.09Zm3.16-.74a2.53,2.53,0,0,1,.12-.33,1.87,1.87,0,0,1,.16-.28,1.26,1.26,0,0,1,.92-.53h2.57a.28.28,0,1,1,0,.55H27.42a.07.07,0,0,0-.08.07.07.07,0,0,0,.07.08h1.81a.28.28,0,0,1,.27.28.27.27,0,0,1-.27.28H27.35a.08.08,0,1,0,0,.15l1.92,0a.28.28,0,1,1,0,.55H27.41a.06.06,0,0,0-.07.07.07.07,0,0,0,.07.07H29A.28.28,0,0,1,29,36h0l-2.51,0h0s0,0,0,0a1.06,1.06,0,0,0,.38.23c.76.26.67.61.65.71s0,.08,0,.08h0s-1.58-.57-1.82-.69a2,2,0,0,1-.76-.82,1,1,0,0,1-.11-.31A1.44,1.44,0,0,1,24.8,34.42Zm8.55,5a1.28,1.28,0,0,0,1.27-1.22v-.05h0V34.86a1.28,1.28,0,0,0-1.23-1.27h0a1.28,1.28,0,0,0-1.27,1.22v3.38a1.28,1.28,0,0,0,1.23,1.27Zm-1-3V34.83a1,1,0,0,1,1-.94h0a1,1,0,0,1,.93,1v1.61A2.4,2.4,0,0,0,32.38,36.47ZM26.92,30c2.37-1.47,2.31-2.86,2.31-2.86A1.26,1.26,0,0,0,28,25.81a1.34,1.34,0,0,0-1,.58,1.36,1.36,0,0,0-1-.58,1.27,1.27,0,0,0-1.26,1.31S24.6,28.43,26.92,30ZM22.76,31.3h0A1.24,1.24,0,0,0,24,30.11v0h0V26.85a1.24,1.24,0,0,0-1.19-1.24H22.8a1.24,1.24,0,0,0-1.23,1.19v3.27A1.24,1.24,0,0,0,22.76,31.3Zm-.89-4.49a.94.94,0,0,1,.93-.9h0a.94.94,0,0,1,.9.94V28.4a2.35,2.35,0,0,0-1.87,0V26.81Zm42.7,34.13a2.18,2.18,0,0,1,.44-.75s0,0,.06,0a0,0,0,0,1,0,0l0,4.92a.53.53,0,0,0,.52.55.55.55,0,0,0,.54-.53l0-2.5a2.1,2.1,0,0,0,.26.13l0,2.86a.53.53,0,1,0,1.06,0l0-2.76a1.71,1.71,0,0,0,.3-.09l0,2.72a.54.54,0,0,0,.53.55.54.54,0,0,0,.53-.54l0-3.54a.13.13,0,0,1,.14-.14.14.14,0,0,1,.15.15l0,2.24a.54.54,0,1,0,1.07,0v-5A2.65,2.65,0,0,0,68,56.88c-2.06-.59-3.36,1.25-3.63,1.69a33.9,33.9,0,0,0-1.32,3.55s-.05.07.15.1S64.07,62.43,64.57,60.94Zm1.06-2.15a.27.27,0,0,1,.26-.27h0a.26.26,0,0,1,.26.28v1.13a.06.06,0,0,0,.07.07h0a.06.06,0,0,0,.07-.07l0-1.79a.27.27,0,0,1,.27-.27h0a.28.28,0,0,1,.27.28l0,1.84a.08.08,0,0,0,.07.08h0A.07.07,0,0,0,67,60l0-1.91a.27.27,0,0,1,.27-.27h0a.27.27,0,0,1,.27.28l0,1.84a.07.07,0,0,0,.07.07s.07,0,.07-.06v-1.6a.27.27,0,0,1,.27-.27h0a.27.27,0,0,1,.27.27l0,2.49a0,0,0,0,0,0,0h0a1.06,1.06,0,0,0,.23-.38c.19-.57.43-.66.58-.66l.11,0c.1,0,.07,0,.07,0s-.55,1.57-.66,1.8a2.07,2.07,0,0,1-.8.75,1,1,0,0,1-.3.11,1.27,1.27,0,0,1-.34,0,1.44,1.44,0,0,1-.4-.06l-.32-.12a1.75,1.75,0,0,1-.27-.16,1.19,1.19,0,0,1-.51-.91Zm7.17-5.28a1.08,1.08,0,0,0-1.08-1.12,1.17,1.17,0,0,0-.9.49,1.16,1.16,0,0,0-.9-.49,1.08,1.08,0,0,0-1.07,1.12s0,1.13,2,2.46C72.84,54.71,72.8,53.51,72.8,53.51Zm3.85,8.41c2.27-1.41,2.22-2.74,2.22-2.74a1.21,1.21,0,0,0-1.21-1.26,1.32,1.32,0,0,0-1,.55,1.31,1.31,0,0,0-1-.55,1.21,1.21,0,0,0-1.2,1.26S74.42,60.44,76.65,61.92Zm-4.38.56h0a1.28,1.28,0,0,0,1.27-1.24l0-3.4a1.27,1.27,0,0,0-1.24-1.27h0A1.27,1.27,0,0,0,71,57.81v0l0,3.34A1.29,1.29,0,0,0,72.27,62.48Zm-1-4.66a1,1,0,0,1,1-1h0a1,1,0,0,1,1,1v1.63a2.42,2.42,0,0,0-2,0V57.82Zm4.25-9.26a38.45,38.45,0,0,0,.3-4.15s0-.09-.19-.06-1,0-1,1.76a2.2,2.2,0,0,1-.24.93s0,0,0,0a.08.08,0,0,1,0,0l-1.47-5.2a.59.59,0,0,0-.73-.42.6.6,0,0,0-.4.73l.73,2.55-.32,0-.84-2.95a.58.58,0,1,0-1.12.32l.8,2.84a1.75,1.75,0,0,0-.29.18l-.79-2.79a.58.58,0,1,0-1.12.32l1,3.7c0,.08,0,.16-.05.22h0l0,0a.16.16,0,0,1-.21-.11L68.82,44a.59.59,0,0,0-.72-.42.6.6,0,0,0-.41.73l1.54,5.31a2.92,2.92,0,0,0,3,1.81C74.6,51.45,75.41,49.1,75.56,48.56ZM74,49.08h-.08a.3.3,0,0,1-.29-.22l-.34-1.2a.07.07,0,0,0-.07-.06h0a.07.07,0,0,0-.06.1l.54,1.89a.3.3,0,0,1-.2.37h-.08a.31.31,0,0,1-.29-.22l-.55-2a.09.09,0,0,0-.08-.06h0a.08.08,0,0,0-.06.11l.57,2a.3.3,0,0,1-.2.37h-.08a.31.31,0,0,1-.29-.22l-.55-1.95s0-.06-.07-.06h0s-.08,0-.06.09l.48,1.7a.28.28,0,0,1-.2.36l-.08,0a.31.31,0,0,1-.29-.22l-.74-2.64h0a1,1,0,0,0-.12.47c0,.87-.42.88-.53.9h0c-.08,0-.07,0-.07,0s.1-1.83.15-2.11a2.16,2.16,0,0,1,.61-1,1.46,1.46,0,0,1,.28-.21,1.53,1.53,0,0,1,.79-.22h0a2,2,0,0,1,.36,0,1.59,1.59,0,0,1,.33.09,1.35,1.35,0,0,1,.82.8l.77,2.68A.29.29,0,0,1,74,49.08Zm4.53-7.32a17,17,0,0,0-1.37-1.32s0,0-.07.05-.27.35.31.88a1,1,0,0,1,.26.35,0,0,0,0,1,0,0h0l-2.24-1a.27.27,0,0,0-.36.14.26.26,0,0,0,.14.35l1.44.64a.07.07,0,0,1,0,.09.07.07,0,0,1-.09,0l-1.67-.74a.28.28,0,0,0-.36.13.27.27,0,0,0,.14.35l1.73.77a.09.09,0,0,1,0,.11c0,.06-.1,0-.1,0l-1.67-.74a.27.27,0,0,0-.35.13.26.26,0,0,0,.14.35l1.61.72a.08.08,0,0,1,0,.1.07.07,0,0,1-.1,0l-1-.46a.27.27,0,0,0-.36.14.26.26,0,0,0,.14.35l2.3,1a1.33,1.33,0,0,0,1.51-.53A1.69,1.69,0,0,0,78.5,41.76ZM77.69,45h0a1,1,0,0,0-1,1s0,0,0,0v2.72a1,1,0,0,0,1,1h0a1,1,0,0,0,1-1v0h0V46.06A1,1,0,0,0,77.69,45Zm-.83,2.36V46a.79.79,0,0,1,.79-.76h0a.8.8,0,0,1,.76.79v1.32A2,2,0,0,0,76.86,47.38Zm-14-13.48H61a.26.26,0,0,0-.27.26.27.27,0,0,0,.27.27h1.82a.06.06,0,0,1,.07.06s0,.07-.06.07H61.2a.27.27,0,1,0,0,.53h2.47s0,0,0,0a1,1,0,0,1-.38.22c-.74.24-.66.58-.64.67s.05.08.05.08a16.91,16.91,0,0,0,1.78-.65,1.7,1.7,0,0,0,.86-1.81,1.32,1.32,0,0,0-1.17-1.09l-2.51,0a.27.27,0,0,0-.27.27.26.26,0,0,0,.27.26h1.12s.08,0,.08.08a.07.07,0,0,1-.08.07H61a.27.27,0,0,0-.27.27.26.26,0,0,0,.27.26h1.82a.1.1,0,0,1,.08.08A.07.07,0,0,1,62.84,33.9Zm7.22-2.25h.06a1.34,1.34,0,0,0,1.34-1.29V26.8a1.35,1.35,0,0,0-1.29-1.34h-.06a1.34,1.34,0,0,0-1.34,1.29v3.56A1.34,1.34,0,0,0,70.06,31.65Zm-1-4.89a1,1,0,0,1,1-1h0a1,1,0,0,1,1,1v1.7a2.58,2.58,0,0,0-2,0V26.76Zm-4.2,14a1.44,1.44,0,0,0-1.11.61,1.48,1.48,0,0,0-1.11-.61,1.35,1.35,0,0,0-1.33,1.4s-.05,1.39,2.42,3c2.52-1.56,2.46-3,2.46-3A1.35,1.35,0,0,0,64.89,40.79Zm-1.27,7.84,0,0A1.15,1.15,0,0,0,63.7,47l-2.13-2.17A1.15,1.15,0,0,0,60,44.79l0,0a1.14,1.14,0,0,0,0,1.59l0,0L62,48.59A1.14,1.14,0,0,0,63.62,48.63Zm-2.48-1.34-1-1,0,0a.87.87,0,0,1,0-1.21l0,0a.87.87,0,0,1,1.21,0l1,1A2.15,2.15,0,0,0,61.14,47.29ZM33.23,60.09l0-3.07a.32.32,0,0,0-.32-.33.33.33,0,0,0-.33.33v1.37a.09.09,0,0,1-.09.09.08.08,0,0,1-.09-.09V56.23a.32.32,0,0,0-.32-.33.33.33,0,0,0-.33.33v2.23s0,.09-.09.09-.09,0-.09-.1v-2.3a.33.33,0,1,0-.65,0v2.22s0,.09-.08.09-.09,0-.09-.08V56.45a.33.33,0,0,0-.33-.33.32.32,0,0,0-.32.33v3a0,0,0,0,1,0,0h0a1.32,1.32,0,0,1-.27-.46c-.3-.92-.71-.81-.82-.79s-.1.06-.1.06a20.1,20.1,0,0,0,.79,2.17,2.05,2.05,0,0,0,2.21,1.06A1.63,1.63,0,0,0,33.23,60.09Zm5-23.19a1.17,1.17,0,0,0-1.16,1.21s0,1.2,2.11,2.63c2.18-1.35,2.13-2.63,2.13-2.63a1.16,1.16,0,0,0-1.16-1.21,1.27,1.27,0,0,0-1,.53A1.26,1.26,0,0,0,38.21,36.9Zm-1.53-4.69.77,1.65s0,.07,0,.1a.08.08,0,0,1-.11,0l-.8-1.71a.27.27,0,1,0-.48.23l.77,1.65a.06.06,0,0,1,0,.09s-.07,0-.1,0L36,32.72a.28.28,0,0,0-.36-.14.27.27,0,0,0-.12.36l1,2.23a0,0,0,0,1,0,0s0,0,0,0a.91.91,0,0,1-.36-.24c-.54-.58-.8-.36-.88-.3s-.05.08-.05.08a18.5,18.5,0,0,0,1.34,1.34,1.69,1.69,0,0,0,2,0,1.33,1.33,0,0,0,.5-1.52l-1.05-2.28a.27.27,0,1,0-.48.23l.47,1a.08.08,0,0,1,0,.1.06.06,0,0,1-.09,0L37.16,32a.28.28,0,0,0-.36-.13A.26.26,0,0,0,36.68,32.21ZM51.43,51.55a.35.35,0,0,0,.47-.17l.66-1.32a.09.09,0,0,1,.13,0s.09,0,0,.13l-1,2.09a.34.34,0,0,0,.16.47.36.36,0,0,0,.47-.17l1.06-2.15a.11.11,0,0,1,.13,0,.1.1,0,0,1,0,.14l-1.1,2.23a.36.36,0,0,0,.15.48A.37.37,0,0,0,53.1,53l1.06-2.15a.1.1,0,0,1,.12,0,.09.09,0,0,1,0,.12l-.92,1.87a.35.35,0,1,0,.62.31l1.44-2.91s0,0,0,0a0,0,0,0,1,0,0,1.35,1.35,0,0,1,0,.57c-.15,1,.3,1.12.42,1.16s.12,0,.12,0a22.62,22.62,0,0,0,.28-2.48,2.23,2.23,0,0,0-1.64-2.07,1.76,1.76,0,0,0-2,.73l-1.49,3A.37.37,0,0,0,51.43,51.55Zm-1.32,6.59a.31.31,0,0,0,.07.34l2.39,2.39a.31.31,0,0,0,.44,0l2.4-2.4a.31.31,0,0,0,.07-.34.31.31,0,0,0-.29-.2h-.48V54.75a.31.31,0,0,0-.31-.31H51.2a.32.32,0,0,0-.23.09.36.36,0,0,0-.09.22V58H50.4A.32.32,0,0,0,50.11,58.14ZM31.43,65.43h0a.18.18,0,0,0,.2-.2V64h0v-.14c0-.13-.06-.2-.19-.2H30.22V62.49c0-.16-.06-.24-.19-.24H28.66a.18.18,0,0,0-.2.2v1.22H27.24c-.13,0-.19.07-.19.2v.06h0v1.31c0,.12.08.19.23.19h1.18v1.22a.18.18,0,0,0,.2.2H30c.13,0,.2-.06.2-.19V65.43h1.2ZM21.94,42.55l2.28-1c.09,0,.08,0,.05-.12l-1.12-2.07c0-.08,0-.08-.12-.05l-2.29.92c-.09,0-.08,0,0,.12l1.13,2.13C21.86,42.58,21.86,42.59,21.94,42.55Zm4.8.22-2.22.9c-.11,0-.11,0-.11.13v2.56c0,.09,0,.09.1,0l2.25-1c.09,0,.09,0,.09-.12V42.82C26.85,42.73,26.84,42.73,26.74,42.77Zm-2.56.9L22,42.77c-.1,0-.1,0-.1.06v2.5c0,.08,0,.08.09.12l2.24,1c.11,0,.11,0,.11,0V43.8C24.29,43.71,24.29,43.71,24.18,43.67ZM28,40.35c0-.08,0-.08,0-.11l-2.24-.91c-.09,0-.09,0-.13.05l-1.14,2.07c0,.08,0,.09,0,.12l2.29,1c.08,0,.08,0,.12,0Zm26.87,24-2,.8c-.1,0-.11,0-.11.12v2.29c0,.08,0,.09.1,0l2-.86c.08,0,.08,0,.08-.11V64.37C55,64.29,55,64.29,54.86,64.32ZM56,62.15c0-.07,0-.07,0-.1l-2-.81c-.08,0-.08,0-.11,0l-1,1.86c0,.07,0,.08,0,.11l2.05.87c.08,0,.08,0,.11,0Zm-5.42,4.57,2,.86c.1,0,.1,0,.1,0V65.24c0-.08,0-.08-.1-.12l-2-.8c-.09,0-.09,0-.09.05v2.24C50.48,66.69,50.48,66.69,50.56,66.72Zm-.1-2.64c0,.07,0,.08.11,0l2-.87c.07,0,.07,0,0-.11l-1-1.86c0-.07,0-.07-.11,0l-2.06.82c-.07,0-.06,0,0,.11ZM35.33,54.31v-2.5c0-.09,0-.09-.11-.05l-2.22.9c-.11,0-.11,0-.11.13v2.55c0,.09,0,.1.1,0l2.25-1C35.33,54.4,35.33,54.4,35.33,54.31Zm1.14-5c0-.08,0-.08,0-.11l-2.24-.91c-.09,0-.09,0-.13,0l-1.14,2.08c0,.08,0,.08,0,.12l2.29,1c.08,0,.08,0,.12,0Zm-5-1-2.3.92c-.08,0-.07,0,0,.12l1.13,2.13c0,.08,0,.08.12,0l2.28-1c.09,0,.08,0,0-.12l-1.12-2.07C31.6,48.29,31.59,48.28,31.51,48.32Zm1.14,4.34-2.22-.9c-.1,0-.1,0-.1.05v2.5c0,.09,0,.09.09.12l2.24,1c.11,0,.11,0,.11-.06V52.79C32.77,52.7,32.76,52.69,32.65,52.66Z"/></svg>