<svg id="图层_1" data-name="图层 1" xmlns="http://www.w3.org/2000/svg" viewBox="0 0 100 100"><defs><style>.cls-1{fill:#231815;}</style></defs><title>logohunt02</title><path class="cls-1" d="M43,60.43v-2H50V41.24H43v-2H50v-6H43V31.15H36.82V33.3H30v6h6.82v2H30V58.39h6.82v2H30V66.3h6.82v2.55H43V66.3h4.08l2-5.87H43M36.18,46.06h7.55V48H36.18Zm0,5.71h7.55v1.95H36.18Z"/><path class="cls-1" d="M52,59.23l-3.34,9.62h6.2l3-8.79h6v8.79H70v-36H52V59.23M58.15,39.1h5.67v4.45H58.15Zm0,10.67h5.67v4.14H58.15Z"/></svg>