<svg id="图层_1" data-name="图层 1" xmlns="http://www.w3.org/2000/svg" viewBox="0 0 100 100"><defs><style>.cls-1{fill:#231815;}</style></defs><title>logohunt01</title><polyline class="cls-1" points="31.73 22.67 29.55 22.67 29.55 77.33 31.73 70.38 31.73 22.67"/><polyline class="cls-1" points="36.1 22.67 33.92 22.67 33.92 77.33 36.1 70.38 36.1 22.67"/><polyline class="cls-1" points="40.47 22.67 38.28 22.67 38.28 77.33 40.47 70.77 40.47 22.67"/><path class="cls-1" d="M55.24,55.27c0,3.83.16,10.93-5.15,10.93-4.06,0-5-3.82-5-6.94v-8.9c0-1.64-.16-2.89.94-4.22a5.3,5.3,0,0,1,3.92-1.79c5.54,0,5.31,7.1,5.31,10.92m15.21.49c0-9.52-3.82-20.21-15-20.21-4.68,0-8,1.48-10.22,5.54H45V22.67H42.65V73.24A15.19,15.19,0,0,0,53.28,77C65.77,77,70.45,66.85,70.45,55.76Z"/></svg>