<svg id="图层_1" data-name="图层 1" xmlns="http://www.w3.org/2000/svg" viewBox="0 0 100 100"><title>logohunt03</title><path d="M27.48,50.53c-.89.73-1.67.11-1.77-1.57,0-.53-.05-.79-.08-1.32-.09-1.68.54-3.77,1.43-4.5,14.66-10.79,30.33,7.26,45-3.53.89-.73,1.68-.11,1.77,1.57,0,.53.05.79.08,1.32.1,1.68-.54,3.77-1.42,4.5-14.67,10.79-30.33-7.25-45,3.53"/><path d="M27.59,40.55c-.89.74-1.68.11-1.77-1.57,0-.53-.05-.79-.08-1.32-.1-1.68.54-3.77,1.42-4.5,14.67-10.79,30.33,7.26,45-3.53.89-.73,1.68-.11,1.77,1.57,0,.53,0,.79.08,1.32.09,1.68-.54,3.77-1.43,4.5-14.66,10.79-30.33-7.26-45,3.53"/><path d="M27.87,60.38c-.88.73-1.67.1-1.77-1.58,0-.52,0-.79-.07-1.31-.1-1.68.53-3.77,1.42-4.51,14.67-10.78,30.33,7.26,45-3.52.88-.74,1.67-.11,1.77,1.57,0,.52,0,.79.07,1.31.1,1.68-.53,3.77-1.42,4.51-14.67,10.78-30.33-7.26-45,3.53"/><path d="M28,70.37c-.89.73-1.68.1-1.77-1.57,0-.53-.05-.79-.08-1.32-.1-1.68.54-3.77,1.42-4.5,14.67-10.79,30.33,7.25,45-3.53.89-.74,1.68-.11,1.77,1.57,0,.53,0,.79.08,1.32.09,1.67-.54,3.76-1.43,4.5-14.66,10.79-30.33-7.26-45,3.53"/></svg>