<svg id="图层_1" data-name="图层 1" xmlns="http://www.w3.org/2000/svg" viewBox="0 0 100 100"><title>logohunt03</title><path d="M64,37.75a7,7,0,0,1,7,7,6.77,6.77,0,0,1-1.17,3.77h5.41a1.79,1.79,0,0,0,1.86-1.93A27.28,27.28,0,0,0,53.52,23a1.81,1.81,0,0,0-2,1.85v8.5a.51.51,0,0,1-.51.51H49a1.06,1.06,0,0,1-.82-.48,4.42,4.42,0,1,0,0,5.33A1.08,1.08,0,0,1,49,38.2h2a.51.51,0,0,1,.51.51V44.4a4.07,4.07,0,0,0,4.07,4.07h2.6A6.77,6.77,0,0,1,57,44.7a7,7,0,0,1,7-7"/><path d="M66.69,51.53a.51.51,0,0,1-.51-.51V49a1.08,1.08,0,0,1,.48-.83,4.42,4.42,0,1,0-5.33,0,1.1,1.1,0,0,1,.47.83v2a.51.51,0,0,1-.51.51H55.6a4.07,4.07,0,0,0-4.07,4.07v2.6A6.77,6.77,0,0,1,55.3,57,7,7,0,1,1,55.3,71a6.77,6.77,0,0,1-3.77-1.17v5.41a1.78,1.78,0,0,0,1.92,1.86A27.28,27.28,0,0,0,77,53.52a1.81,1.81,0,0,0-1.85-2Z"/><path d="M55.3,59.58a4.36,4.36,0,0,0-3.49,1.75,1.1,1.1,0,0,1-.83.47H49a.51.51,0,0,1-.51-.5V55.6a4.07,4.07,0,0,0-4.07-4.07H41.8A6.75,6.75,0,0,1,43,55.3a7,7,0,0,1-13.92,0,6.77,6.77,0,0,1,1.17-3.77H24.81A1.78,1.78,0,0,0,23,53.45,27.28,27.28,0,0,0,46.48,77a1.81,1.81,0,0,0,2-1.85v-8.5a.52.52,0,0,1,.51-.51h2a1.08,1.08,0,0,1,.83.48,4.4,4.4,0,1,0,3.49-7.08"/><path d="M37.74,36a7,7,0,0,1,7-7,6.77,6.77,0,0,1,3.77,1.17V24.81A1.79,1.79,0,0,0,46.54,23,27.27,27.27,0,0,0,23,46.48a1.81,1.81,0,0,0,1.85,2h8.5a.51.51,0,0,1,.51.51v2a1.07,1.07,0,0,1-.48.83,4.42,4.42,0,1,0,5.33,0A1.08,1.08,0,0,1,38.2,51V49a.51.51,0,0,1,.51-.51H44.4a4.07,4.07,0,0,0,4.07-4.07V41.8A6.74,6.74,0,0,1,44.7,43a7,7,0,0,1-7-7"/></svg>