<svg id="图层_1" data-name="图层 1" xmlns="http://www.w3.org/2000/svg" viewBox="0 0 100 100"><title>logohunt03</title><path d="M46.85,26.47a.12.12,0,0,1,.16.07l.06.09a15.21,15.21,0,0,0,.65,2.6,2.45,2.45,0,0,0,.81-1.42.18.18,0,0,1,.09-.16l.12,0a.17.17,0,0,1,.16.09c0,.07.06.13,0,.16a2.76,2.76,0,0,1-1.06,1.77c.13.34.28.68.44,1a8.51,8.51,0,0,0,.53,1,3.49,3.49,0,0,0,1.55-2,.41.41,0,0,1,.12-.09s.09,0,.16,0l.12.06a.19.19,0,0,1,0,.18A3.89,3.89,0,0,1,49.09,32a4.48,4.48,0,0,0,.37.53l0,0a7.51,7.51,0,0,0,.71.84c.13.16.31.34.56.62h0a7.76,7.76,0,0,0,1.83-3.66l-.71.31A4.15,4.15,0,0,0,52,28.55l-.71.41a4.1,4.1,0,0,0-.59-2.8l-.59.53a8.64,8.64,0,0,0-1.68-2.39l-.31.9a8,8,0,0,0-3.25-2.32,6,6,0,0,0,0,3.78h-.75a4.46,4.46,0,0,0,.62,2.57h-.71a3.78,3.78,0,0,0,1.52,2.21l-.71.31a3.46,3.46,0,0,0,1.64,1.7l-.56.44c1.83,1.14,3.35,1.27,4.5.37-.34-.37-.59-.62-.75-.78s-.3-.37-.43-.55a3.52,3.52,0,0,1-2,.46.24.24,0,0,1-.16-.06s0-.09,0-.16a.22.22,0,0,1,0-.15.36.36,0,0,1,.16,0A2.9,2.9,0,0,0,49,32.58a2.06,2.06,0,0,1-.37-.52l0,0v0A5.46,5.46,0,0,1,48,31a2.64,2.64,0,0,1-2.08.19l-.12-.09c0-.07-.06-.13,0-.16s0-.09.09-.12a.21.21,0,0,1,.19,0,2.3,2.3,0,0,0,1.76-.16c-.15-.34-.28-.65-.4-1v0a9.59,9.59,0,0,1-.34-1,2.08,2.08,0,0,1-1.05,0,.53.53,0,0,1-.13-.1c0-.06-.06-.12,0-.15a.13.13,0,0,1,.09-.13.39.39,0,0,1,.16,0,2,2,0,0,0,.84,0c-.13-.49-.22-1-.31-1.52a.22.22,0,0,1,0-.15,1.28,1.28,0,0,1,.15-.1"/><path d="M36.12,27.4l-.19.38a2,2,0,0,0-.71-.93l-.15.4a2,2,0,0,0-1.25-1l-.06.4a5,5,0,0,0-1.58-.43l.19.49a4.46,4.46,0,0,0-2.21.13,3.68,3.68,0,0,0,1.31,1.61l-.31.28a2.25,2.25,0,0,0,1.14.9l-.31.25a2.28,2.28,0,0,0,1.46.43l-.25.37a2,2,0,0,0,1.34.16l-.1.37c1.21-.13,1.9-.59,2.11-1.4-.28,0-.49-.06-.59-.06l-.4-.09a2.37,2.37,0,0,1-.68.9l-.09,0-.07-.09,0-.07,0-.09a1.88,1.88,0,0,0,.62-.71c-.12,0-.24-.1-.37-.13v0a2.54,2.54,0,0,1-.62-.18,1.43,1.43,0,0,1-.8.8h-.1L33.39,30V30c0-.06,0-.09.06-.09a1.4,1.4,0,0,0,.72-.72,4.35,4.35,0,0,1-.53-.28,5.29,5.29,0,0,1-.53-.31.92.92,0,0,1-.43.34h-.1l-.06,0,0-.09.09-.06a1.51,1.51,0,0,0,.38-.31,3.93,3.93,0,0,1-.66-.53l-.06-.09,0-.1.1,0,.06,0a8.37,8.37,0,0,0,1.18.9,1.37,1.37,0,0,0-.16-.9v-.12l0,0s.07,0,.13,0l0,0a1.52,1.52,0,0,1,.19,1.15l.52.28a3.32,3.32,0,0,1,.56.25,1.93,1.93,0,0,0,0-1.4l0-.09.09,0,.07,0c.06,0,.09,0,.09.07a2.29,2.29,0,0,1,0,1.55.82.82,0,0,0,.34.09l0,0a3.92,3.92,0,0,0,.59.09,3.69,3.69,0,0,0,.47.07,4.11,4.11,0,0,0-.47-2.21"/><path d="M28,48.84l.38.52a8.43,8.43,0,0,0-2.21,1.24L27,51a7.13,7.13,0,0,0-2.29,2.57,5.41,5.41,0,0,0,3.22.31l-.06.65a3.9,3.9,0,0,0,2.26-.28l-.09.62a3.49,3.49,0,0,0,2.05-1.11l.18.65a3.1,3.1,0,0,0,1.62-1.27l.31.52c1.14-1.45,1.42-2.73.77-3.84-.37.28-.62.49-.74.59a1.51,1.51,0,0,1-.53.31,3.3,3.3,0,0,1,.22,1.76l-.06.1a.39.39,0,0,1-.16,0l-.12-.06s0-.1,0-.16a2.34,2.34,0,0,0-.15-1.43,2.92,2.92,0,0,1-.5.25h0l-.9.44a2.31,2.31,0,0,1,0,1.77l-.09.09-.13,0a.08.08,0,0,1-.09-.09.39.39,0,0,1,0-.16,2.12,2.12,0,0,0,.06-1.58c-.31.12-.62.22-.9.31h0a5.13,5.13,0,0,1-.9.19,2.06,2.06,0,0,1-.09.86c0,.1,0,.13-.09.13s-.1,0-.13,0a.16.16,0,0,1-.12-.06V53a1.34,1.34,0,0,0,.06-.77,6.26,6.26,0,0,1-1.27.12c-.09,0-.13,0-.16,0l-.06-.12s0-.1.06-.16l.13,0a14.13,14.13,0,0,0,2.26-.31,2.07,2.07,0,0,0-1.18-.81.41.41,0,0,1-.12-.09v-.12a.16.16,0,0,1,.09-.13h.13a2.25,2.25,0,0,1,1.42,1.09l.9-.31a4.76,4.76,0,0,0,.9-.38A2.83,2.83,0,0,0,31,49.43l-.09-.1s0-.09,0-.15l0-.09a.44.44,0,0,1,.19,0,3.5,3.5,0,0,1,1.67,1.71,2.47,2.47,0,0,0,.5-.28h0c.15-.09.43-.28.81-.56a2.78,2.78,0,0,0,.55-.43v0a6.54,6.54,0,0,0-2.94-1.86l.21.62a3.91,3.91,0,0,0-1.79-.28l.28.65a3.28,3.28,0,0,0-2.46.25"/><path d="M43.78,49.46Q40.1,38.2,31.41,35.9c6.66,5,10.08,10.67,10.23,17.16a26.15,26.15,0,0,0-3.5,9Q36,56.82,31.22,56v0c2.73.9,4.9,4.1,6.51,9.65.34,1,.72,2.08,1.12,3,1.3,3.07.37,5.86-2.79,8.43H49a30.58,30.58,0,0,1-2.39-3.5L45,70.18a4.61,4.61,0,0,0-.19-.53,1.65,1.65,0,0,1-.09-.22c0-.06,0-.12-.06-.18a24.52,24.52,0,0,1-1.18-5.31c2.26-5.8,6.05-9.61,11.41-11.44a19.51,19.51,0,0,0-11.41,6.39q2.79-11.36,15.2-27.67c-8.78,9.12-13.71,15.2-14.86,18.24"/><path d="M65.18,38.14a5.21,5.21,0,0,0-3.38.49V37.58c-2.85,1.15-4.25,2.79-4.22,4.87l1.52-.19a4,4,0,0,1,1-.06,5.06,5.06,0,0,1,1.11-2.64c0-.06.1-.09.19-.12l.22.09c.06.09.09.16.12.19a.51.51,0,0,1-.06.22,4.41,4.41,0,0,0-1,2.23,5.13,5.13,0,0,1,1,0h0l0,0c.53,0,1,.09,1.58.15a4,4,0,0,1,1.52-2.51.76.76,0,0,1,.25-.06.25.25,0,0,1,.18.06c.07.1.07.16,0,.22s0,.22-.07.25a3.17,3.17,0,0,0-1.33,2.17c.5.09,1,.22,1.49.34l0,0,1.43.47a3.13,3.13,0,0,1,.87-1.18c.09-.06.15-.1.21-.06a.17.17,0,0,1,.22.06.19.19,0,0,1,.06.21.47.47,0,0,1-.09.19,2.51,2.51,0,0,0-.71,1c.65.28,1.33.59,2,.93a.26.26,0,0,1,.15.16.28.28,0,0,1,0,.25.16.16,0,0,1-.18.12.27.27,0,0,1-.22,0,24.87,24.87,0,0,0-3.53-1.43,3.25,3.25,0,0,0,1,2.14.52.52,0,0,1,.12.22l-.09.19a.35.35,0,0,1-.25.09.49.49,0,0,1-.18-.09,3.78,3.78,0,0,1-1.15-2.73c-.53-.13-1-.25-1.52-.34h0A12,12,0,0,0,62,42.79a4.63,4.63,0,0,0,.93,3.41.37.37,0,0,1,0,.25c0,.09,0,.15-.13.18a.34.34,0,0,1-.18.07.36.36,0,0,1-.22-.13,5.3,5.3,0,0,1-1-3.78c-.31,0-.62,0-.93,0h0l-1.58.12a5.86,5.86,0,0,0-1.15.13l-.06,0a11.38,11.38,0,0,0,2.67,5.18l.25-1.12A6.33,6.33,0,0,0,62.86,49L63,47.88a5.69,5.69,0,0,0,3.69,1.64l-.12-1.12a15.09,15.09,0,0,0,4.15.13l-.77-1.15a11.42,11.42,0,0,0,5.39-1.8A9.05,9.05,0,0,0,71,42.45l.62-.84a6.18,6.18,0,0,0-3.47-1.46l.59-.8a5,5,0,0,0-3.79-.1Z"/><path d="M60.5,57.61l0,0a4.36,4.36,0,0,0-1.37,1.8l.41-.09a2,2,0,0,0-.25,1.15l.4-.13a2.2,2.2,0,0,0,.06,1.58l.34-.21a6.7,6.7,0,0,0,.69,1.46l.24-.47a4.29,4.29,0,0,0,1.56,1.61,3.89,3.89,0,0,0,.37-2l.4.06a2.27,2.27,0,0,0-.06-1.49l.4.09A2.05,2.05,0,0,0,63,59.54l.44-.06a2,2,0,0,0-.72-1.12l.34-.19a3,3,0,0,0-1.17-.77,1.57,1.57,0,0,0-1.09,0l-.19.09L61,58a.64.64,0,0,1,.19.34,1.87,1.87,0,0,1,1.12-.06l.09.06,0,.06q0,.09,0,.09h-.09a2,2,0,0,0-1,0,2,2,0,0,1,.15.38h0a3.17,3.17,0,0,1,.25.59,1.33,1.33,0,0,1,1.14.12l.07.06v.06c0,.07,0,.07-.07,0l-.09,0a1.39,1.39,0,0,0-1-.1c0,.22.06.41.09.59v0a1.92,1.92,0,0,1,.1.59.78.78,0,0,1,.55.1c.07,0,.1,0,.07.06v.06c0,.06,0,.09,0,.09h-.1a.88.88,0,0,0-.46-.12A4.21,4.21,0,0,1,62,62l0,.09-.1,0-.06,0,0-.09a11.56,11.56,0,0,0-.09-1.46,1,1,0,0,0-.56.71l-.1.06h-.06l-.06-.09v-.06a1.62,1.62,0,0,1,.75-.87c0-.22-.1-.4-.13-.59s-.12-.4-.18-.59a2.14,2.14,0,0,0-1.09.87l0,.09-.13,0L60,60v-.09a1.93,1.93,0,0,1,1.18-1c-.06-.16-.12-.25-.15-.35v0a4,4,0,0,1-.31-.52,1.67,1.67,0,0,1-.25-.38"/></svg>