<svg id="图层_1" data-name="图层 1" xmlns="http://www.w3.org/2000/svg" viewBox="0 0 100 100"><defs><style>.cls-1{fill-rule:evenodd;}</style></defs><title>logohunt03</title><path class="cls-1" d="M48.45,77c.12-3.09-1.5-4-1.71-3.93l7.1-6c3.69,1.79,5.58,7.31,5.44,10.06L48.45,77"/><path d="M50,29.23A7.41,7.41,0,0,0,45.64,29c-11.09,2-3.33,24.15,3,29.11l-5,5.48c-8.09-7-11.7-34.26,1.86-35.17a8.25,8.25,0,0,1,3,.24Z"/><path d="M48.45,77A42.27,42.27,0,0,0,55.81,67c5.47-10.26,5.92-26.36-3.29-34.54a11.69,11.69,0,0,0-9.75-2.81,6.32,6.32,0,0,0-2,.55,7.71,7.71,0,0,1,3.49-1.65,16.23,16.23,0,0,1,4.06-.13,14.11,14.11,0,0,1,7.22,2.87c11.26,8.1,14.45,31.77,3.69,45.8Z"/><path class="cls-1" d="M39.55,26.3c0,1.91-1.17,3.48-2.67,3.5s-2.74-1.51-2.77-3.42,1.17-3.47,2.67-3.49,2.74,1.5,2.77,3.41"/><path class="cls-1" d="M43.7,63.57a5,5,0,0,0-1.29-5.16l5-5.48a7.5,7.5,0,0,1,1.3,5.16l-5,5.48"/></svg>