<svg id="图层_1" data-name="图层 1" xmlns="http://www.w3.org/2000/svg" viewBox="0 0 100 100"><defs><style>.cls-1{fill:#231815;}</style></defs><title>logohunt01</title><path class="cls-1" d="M47.79,25.57c-1.54-1.41-4.28-2.66-9-2.66s-7.59,1.26-9.15,2.66a5.06,5.06,0,0,0-1.78,3.88V77.09H30.3V30.26a2.58,2.58,0,0,1,1.36-2.37l.18-.09V76h.41l.15,0V27.56A11.3,11.3,0,0,1,34.47,27V75.64l.28,0,.28,0V26.92a20.79,20.79,0,0,1,2.09-.21V75.44l.28,0h.27V26.68l1.11,0c.34,0,.66,0,1,0V75.42h.56V26.7c.74.05,1.43.12,2.08.22V75.59l.28,0,.28,0V27a15.29,15.29,0,0,1,2.08.55V76h.56V27.77l.31.12a2,2,0,0,1,1.23,1.84V77.09h2.44v-48a5.23,5.23,0,0,0-1.78-3.49"/><path class="cls-1" d="M50.43,29.06v48h2.44V29.73a2,2,0,0,1,1.23-1.84l.31-.12V76H55V27.56A15.29,15.29,0,0,1,57,27V75.65l.28,0,.28,0V26.92c.65-.1,1.34-.18,2.08-.22V75.44h.56V26.68c.32,0,.64,0,1,0l1.11,0V75.42h.27l.28,0V26.71a20.79,20.79,0,0,1,2.09.21V75.58l.28,0,.28,0V27a11.3,11.3,0,0,1,2.08.55V76l.15,0h.41V27.8l.18.09a2.58,2.58,0,0,1,1.36,2.37V77.08h2.44V29.45a5.06,5.06,0,0,0-1.78-3.88c-1.56-1.4-4.43-2.66-9.15-2.66s-7.46,1.25-9,2.66a5.23,5.23,0,0,0-1.78,3.49"/></svg>