<svg id="图层_1" data-name="图层 1" xmlns="http://www.w3.org/2000/svg" viewBox="0 0 100 100"><title>logohunt03</title><path d="M57.81,34.13l-7,1.87a2.67,2.67,0,0,0-1.66,1.16,2.62,2.62,0,0,0-.19,2l1.87,7A2.13,2.13,0,0,0,55,45.06l-.26-1L64.3,49.6a.46.46,0,0,1,0,.8L53.24,56.78a4.53,4.53,0,0,1,2.81,2.08,4.67,4.67,0,0,1,.4,3.47L74.33,52a2.31,2.31,0,0,0,0-4l-16.4-9.47,1-.27a2.13,2.13,0,0,0-1.1-4.12"/><path d="M25.14,47l5.11,5.1a2.65,2.65,0,0,0,1.83.86,2.61,2.61,0,0,0,1.85-.86L39,47a2.13,2.13,0,1,0-3-3l-.73.73V33.65a.47.47,0,0,1,.7-.4l11,6.39a4.56,4.56,0,0,1,.4-3.48,4.7,4.7,0,0,1,2.8-2.07L32.36,23.77a2.31,2.31,0,0,0-3.47,2v19L28.16,44a2.14,2.14,0,1,0-3,3"/><path d="M52.63,68.86l1.86-7a2.7,2.7,0,0,0-.17-2,2.64,2.64,0,0,0-1.67-1.18l-7-1.86A2.13,2.13,0,1,0,44.58,61l1,.26L36,66.75a.47.47,0,0,1-.7-.4V53.58A4.53,4.53,0,0,1,32.09,55a4.69,4.69,0,0,1-3.2-1.38V74.23a2.31,2.31,0,0,0,3.47,2l16.41-9.47-.26,1a2.13,2.13,0,0,0,4.12,1.11"/></svg>