<svg id="图层_1" data-name="图层 1" xmlns="http://www.w3.org/2000/svg" viewBox="0 0 100 100"><title>logohunt03</title><path d="M53.26,35.84a16.49,16.49,0,0,0-13.45,6.94c3,3,5.83,6,7.71,9.83a86.63,86.63,0,0,0,3.84,7.79A125.13,125.13,0,0,0,68,59.85a16.51,16.51,0,0,0-14.7-24"/><polygon points="47.41 52.16 53.06 46.21 57.26 50.61 63.13 43.62 70.88 57.86 72.31 52.55 77.18 62.43 48.74 62.43 47.74 54.31 47.41 52.16"/><path d="M45.54,64.63H61L41.6,35.37,22.82,64.63H38.28c1.79-2.59,3.17-8.57,3.63-16,.45,7.39,1.83,13.37,3.63,16"/></svg>