<svg id="图层_1" data-name="图层 1" xmlns="http://www.w3.org/2000/svg" viewBox="0 0 100 100"><defs><style>.cls-1{fill:#231815;}</style></defs><title>logohunt01</title><path class="cls-1" d="M59.32,68.34A7.83,7.83,0,0,1,61.65,74H56.42a2.7,2.7,0,0,0-.81-2,2.69,2.69,0,0,0-3.83,0A2.7,2.7,0,0,0,51,74H45.45a2.69,2.69,0,0,0-.8-2,2.65,2.65,0,0,0-1.92-.8,2.62,2.62,0,0,0-1.92.8,2.69,2.69,0,0,0-.8,2H34.77a7.89,7.89,0,0,1,1.95-5.24L49.86,51.1q6.35-8.54,6.28-13.62A8.28,8.28,0,0,0,42,31.68a8.09,8.09,0,0,0-2.4,5.87,2.47,2.47,0,0,1-.77,1.81,2.59,2.59,0,0,1-1.89.77,2.53,2.53,0,0,1-1.82-.77,2.46,2.46,0,0,1-.76-1.81A13.52,13.52,0,0,1,47.9,24a13,13,0,0,1,9.53,4,13.1,13.1,0,0,1,4,9.57q0,6.71-7.34,16.68L45,66.39a7.25,7.25,0,0,1,3.14,1.81A7.87,7.87,0,0,1,53.69,66a7.65,7.65,0,0,1,5.63,2.37"/></svg>