<svg id="图层_1" data-name="图层 1" xmlns="http://www.w3.org/2000/svg" viewBox="0 0 100 100"><defs><style>.cls-1{fill:#231815;}</style></defs><title>logohunt02</title><path class="cls-1" d="M50.37,64.72a15.35,15.35,0,0,1-10.76-4.44l-.18-.19L39.34,60l-.09.1-.18.18a14.27,14.27,0,0,1-10.5,4.44A14.75,14.75,0,0,1,13.61,50,14.63,14.63,0,0,1,28.49,35.28a14.59,14.59,0,0,1,10.26,4,14.19,14.19,0,0,1,4.06,6.86H35.75A7.93,7.93,0,0,0,28.45,41c-5.31,0-8.17,4.58-8.17,8.88s3.07,9,8.21,9c3.13,0,5.7-1.74,7.24-4.91h7.15A8.24,8.24,0,0,0,50.29,59c3.13,0,5.7-1.75,7.24-4.92h7.15A8.24,8.24,0,0,0,72.1,59,8,8,0,0,0,79.34,54h7A14.55,14.55,0,0,1,72.17,64.72a15.37,15.37,0,0,1-10.76-4.44l-.18-.18L61.14,60l-.09.09-.18.19a14.27,14.27,0,0,1-10.5,4.43"/></svg>