<svg id="图层_1" data-name="图层 1" xmlns="http://www.w3.org/2000/svg" viewBox="0 0 100 100"><title>logohunt03</title><path d="M51.79,37.94c.13.69.73,8,.73,8s-2.43-6.9-2.59-7.58a1,1,0,1,1,1.86-.4"/><path d="M67.19,45.19c-.85.39-10,3.37-10,3.37s8.13-5.22,9-5.63a1.26,1.26,0,1,1,1.07,2.26"/><path d="M65.19,54.92c-.89-.26-9.82-4-9.82-4S65,52.27,65.85,52.5a1.26,1.26,0,1,1-.66,2.42"/><path d="M56.77,35.89c-.16.92-2.83,10.21-2.83,10.21s.22-9.66.34-10.59a1.27,1.27,0,1,1,2.49.38"/><path d="M65.51,39.7c-.67.65-8.28,6.61-8.28,6.61s5.85-7.7,6.49-8.38a1.27,1.27,0,1,1,1.79,1.77"/><path d="M61.06,38.24c-.44.82-5.94,8.76-5.94,8.76s3.3-9.08,3.71-9.92a1.27,1.27,0,1,1,2.23,1.16"/><path d="M40.34,38.37c.71.61,7.27,7.71,7.27,7.71s-8.15-5.19-8.88-5.78a1.25,1.25,0,0,1-.27-1.87,1.23,1.23,0,0,1,1.88-.06"/><path d="M37.66,48.86c.94,0,10.49,1.51,10.49,1.51s-9.61,1-10.55,1a1.26,1.26,0,1,1,.06-2.51"/><path d="M42,62.2c.62-.7,7.74-7.23,7.74-7.23s-5.23,8.12-5.82,8.85A1.26,1.26,0,1,1,42,62.2"/><path d="M55.32,68.83c-.19-.91-1.09-10.53-1.09-10.53s3.32,9.08,3.54,10a1.27,1.27,0,1,1-2.45.55"/><path d="M75.2,50.81c-.93,0-10.57-.63-10.57-.63s9.5-1.81,10.43-1.88a1.27,1.27,0,1,1,.14,2.51"/><path d="M74.7,65.58c-.78-.52-8.18-6.73-8.18-6.73s8.74,4.12,9.54,4.61a1.27,1.27,0,1,1-1.36,2.12"/><path d="M59.29,63.34c-.46-.82-4.22-9.72-4.22-9.72s5.9,7.66,6.39,8.45a1.27,1.27,0,1,1-2.17,1.27"/><path d="M51.5,66.93c0-1.08,1.75-12.12,1.75-12.12S54.41,65.92,54.4,67a1.46,1.46,0,1,1-2.9-.08"/><path d="M46.39,61.69c.42-.83,5.65-8.95,5.65-8.95s-3,9.18-3.38,10a1.27,1.27,0,1,1-2.27-1.08"/><path d="M41.92,55.81c.81-.45,9.73-4.17,9.73-4.17S44,57.51,43.17,58a1.27,1.27,0,1,1-1.25-2.18"/><path d="M35.42,52.89c.92-.16,10.56-.77,10.56-.77s-9.17,3-10.08,3.24a1.27,1.27,0,1,1-.48-2.47"/><path d="M41.34,44.76c.88.31,9.55,4.58,9.55,4.58s-9.47-1.92-10.36-2.21a1.26,1.26,0,1,1,.81-2.37"/><path d="M43.88,32c.47.81,4.29,9.69,4.29,9.69s-6-7.61-6.45-8.41A1.26,1.26,0,1,1,43.88,32"/><path d="M44.38,37.4c.7.94,6.85,11.36,6.85,11.36s-8.59-8.52-9.33-9.42a1.58,1.58,0,1,1,2.48-1.94"/><path d="M69,31.5c-.72.92-9.22,9.52-9.22,9.52s6-10.48,6.72-11.42A1.58,1.58,0,1,1,69,31.5"/><path d="M69.47,48.88c-1.15.2-13.23.91-13.23.91s11.5-3.76,12.64-4a1.58,1.58,0,1,1,.59,3.09"/><path d="M48.11,31.7c.32,1.12,2.39,13,2.39,13s-5-11-5.39-12.11a1.58,1.58,0,1,1,3-.92"/><path d="M61.71,29.66C61.31,30.75,56,41.6,56,41.6s2.41-11.85,2.77-13a1.59,1.59,0,1,1,3,1"/><path d="M54.51,30.28c0,1.17-1.22,13.2-1.22,13.2s-1.87-11.95-1.92-13.12a1.58,1.58,0,1,1,3.14-.08"/><path d="M33,45.21c1.15.23,12.66,4,12.66,4s-12.08-.68-13.23-.87A1.58,1.58,0,1,1,33,45.21"/><path d="M32.68,57.26c1.07-.47,12.63-4,12.63-4S35,59.62,34,60.12a1.58,1.58,0,1,1-1.3-2.86"/><path d="M46.52,70.46c.31-1.12,4.76-12.37,4.76-12.37s-1.44,12-1.71,13.15a1.59,1.59,0,1,1-3-.78"/><path d="M66.49,68.78c-.75-.89-7.46-11-7.46-11s9,8,9.83,8.9a1.58,1.58,0,1,1-2.37,2.06"/><path d="M73,60.85c-1.07-.46-11.6-6.42-11.6-6.42s11.7,3.09,12.79,3.51A1.58,1.58,0,1,1,73,60.85"/><path d="M71.88,39.65c-1,.62-11.88,5.87-11.88,5.87s9.2-7.85,10.17-8.5a1.58,1.58,0,1,1,1.71,2.63"/><path d="M72.69,54c-1.16-.16-12.89-3.11-12.89-3.11s12.1-.13,13.26,0A1.58,1.58,0,1,1,72.69,54"/><path d="M65.66,62.84c-.92-.72-9.64-9.11-9.64-9.11s10.56,5.9,11.51,6.58a1.58,1.58,0,1,1-1.87,2.53"/><path d="M59,69.51c-.46-1.07-4-12.64-4-12.64s6.38,10.28,6.88,11.34A1.58,1.58,0,1,1,59,69.51"/><path d="M34.57,63.87c.94-.7,11.37-6.82,11.37-6.82s-8.53,8.58-9.44,9.31a1.59,1.59,0,1,1-1.93-2.49"/><path d="M24.8,51.87c1.16-.13,13.25-.06,13.25-.06s-11.71,3-12.87,3.17a1.58,1.58,0,1,1-.38-3.11"/><path d="M34.38,38.26c1,.57,10.89,7.57,10.89,7.57S34,41.57,32.91,41a1.58,1.58,0,1,1,1.47-2.78"/></svg>