<svg id="图层_1" data-name="图层 1" xmlns="http://www.w3.org/2000/svg" viewBox="0 0 100 100"><title>logohunt03</title><path d="M36.26,32.12c.21,2.26,1.62,3.67,4.22,4.25a5.38,5.38,0,0,0,.55-2c.15-2.82-1.29-4.59-4.32-5.29a6.9,6.9,0,0,0-.45,3.06"/><path d="M29.92,40.22a16.4,16.4,0,0,0,.71,6.86c1.77,4.71,5.59,6.94,11.5,6.7a12.18,12.18,0,0,0,0-4.62q-1.92-9.27-12.24-8.94"/><path d="M40.17,61.64a31,31,0,0,1,1.5,4.16c.34,1,.74,2,1.13,3q1.89,4.5-2.69,8.26l-.09.06H52.81l0-.06a32.61,32.61,0,0,1-2.33-3.39l-1.62-3.4a2.15,2.15,0,0,1-.18-.52,1.46,1.46,0,0,1-.09-.21,1.07,1.07,0,0,0-.07-.19,20.79,20.79,0,0,1-1.16-5.23,26,26,0,0,1,1.1-2.48,17.58,17.58,0,0,1,10.16-8.81,19.25,19.25,0,0,0-11.26,6.3q2.76-11.19,15-27.29-13,13.5-14.65,18C45.25,42.43,41.15,38,35.43,36.46q9.87,7.35,10.13,16.92a25.06,25.06,0,0,0-3.31,8.26,5.8,5.8,0,0,0-.15.67c-.09-.24-.18-.45-.28-.67a8.62,8.62,0,0,0-6.57-5.38c1.92.64,3.55,2.41,4.92,5.38"/><path d="M63.82,38.08c2.48-1.25,3.28-3.36,2.42-6.3a7.37,7.37,0,0,0-2.88,1.13q-2.7,1.94-1.56,5.66a4.81,4.81,0,0,0,2-.49"/><path d="M47.52,44.75a19.39,19.39,0,0,0,6.36-5.6C57.31,34,56.79,28.6,52.35,22.88a15.86,15.86,0,0,0-4.65,3.24q-7.8,8.58-.18,18.63"/><path d="M65.45,40.59c-6.64-.34-10.77,3-12.43,10.07a17.51,17.51,0,0,0,7.16,1.13c5.27-.52,8.6-3.79,10-9.88a13.52,13.52,0,0,0-4.71-1.32"/></svg>