<svg id="图层_1" data-name="图层 1" xmlns="http://www.w3.org/2000/svg" viewBox="0 0 100 100"><defs><style>.cls-1{fill-rule:evenodd;}</style></defs><title>logohunt03</title><path class="cls-1" d="M65.93,77.08a5.35,5.35,0,0,0,3.22-4.22l-11,.7a7.93,7.93,0,0,1-3.71,3.52c3.78-.06,7.66,0,11.44,0"/><path d="M57.22,30.82c-10.35,4.11-7.1,22-2.77,30.22a76.51,76.51,0,0,0,11.48,16c-3.35,0-8.09,0-11.44,0A77,77,0,0,1,48.3,61.33c-3.06-10.67-6.21-25.79,6.41-30.58.82,0,2.13-.32,2.51.07"/><path class="cls-1" d="M59.15,26.32c0,1.91-1.17,3.47-2.67,3.49s-2.74-1.5-2.76-3.41,1.17-3.47,2.67-3.49,2.73,1.5,2.76,3.41"/><path d="M32,55.55A3.36,3.36,0,0,1,33,54c3.26-2.89,6.73,4.48,6.33,8.48-.52,5.24-3.32,12.2-5.56,14.56h9.78a20.65,20.65,0,0,0,.85-3.72c.9-5.76-.29-14.8-5.17-19.09-1.71-1.51-4.74-2.25-6.46-.39a3.16,3.16,0,0,0-.52.77c-.11.36-.21.62-.3.91"/><path class="cls-1" d="M40,47.61c0,2.11-1.3,3.85-3,3.87s-3-1.67-3.06-3.78,1.29-3.85,3-3.87,3,1.67,3.06,3.78"/><path d="M58.86,32.61A3.55,3.55,0,0,0,55,30.94a8.11,8.11,0,0,0-2,.56,6.47,6.47,0,0,1,3.32-1,7.73,7.73,0,0,1,1.91.22,6.38,6.38,0,0,1,3.41,2.43c3,4.2.77,9.37-1.59,13.32a52.6,52.6,0,0,1-6.87,8.9c-4.82,5-10.89,8.36-17.65,6.09a5,5,0,0,1-3.66-5.34,3.6,3.6,0,0,1,1-2.4,1.86,1.86,0,0,1,.22-.19,4.52,4.52,0,0,0-.32.61,3.46,3.46,0,0,0-.3,1.84,3.59,3.59,0,0,0,3.24,3.12c2.69.52,6-.76,9.24-3,5.27-3.59,18.82-16.65,13.84-23.48"/><path class="cls-1" d="M33.79,77.07c-.82-.24-1.76-.59-2.94-3.21L39,71.27c.86,4,2.82,5.14,4.56,5.8H33.79"/></svg>