<svg id="图层_1" data-name="图层 1" xmlns="http://www.w3.org/2000/svg" viewBox="0 0 100 100"><defs><style>.cls-1{fill:#231815;}</style></defs><title>logohunt01</title><path class="cls-1" d="M39.57,50A22.28,22.28,0,0,1,61.84,27.72V26.31a23.69,23.69,0,0,0,0,47.38V72.27A22.27,22.27,0,0,1,39.57,50"/><path class="cls-1" d="M43.56,50A18.28,18.28,0,0,1,61.84,31.72V30.31a19.69,19.69,0,0,0,0,39.38V68.28A18.29,18.29,0,0,1,43.56,50"/><path class="cls-1" d="M47.56,50A14.28,14.28,0,0,1,61.84,35.72V34.31a15.69,15.69,0,0,0,0,31.38V64.28A14.28,14.28,0,0,1,47.56,50"/><path class="cls-1" d="M51.56,50A10.29,10.29,0,0,1,61.84,39.71V38.3a11.7,11.7,0,0,0,0,23.4V60.29A10.29,10.29,0,0,1,51.56,50"/><path class="cls-1" d="M55.56,50a6.28,6.28,0,0,1,6.28-6.28V42.3a7.7,7.7,0,0,0,0,15.4V56.28A6.28,6.28,0,0,1,55.56,50"/></svg>