<svg id="图层_1" data-name="图层 1" xmlns="http://www.w3.org/2000/svg" viewBox="0 0 100 100"><title>logohunt03</title><path d="M49.74,41.72a.38.38,0,0,1-.52.15l-1.32-.76a.83.83,0,0,1-.36-.62A3.3,3.3,0,0,0,45.92,38a3.34,3.34,0,1,0-3.34,5.78,3.31,3.31,0,0,0,3,.18.79.79,0,0,1,.72,0l1.31.76a.39.39,0,0,1,.14.52L45,50a1.44,1.44,0,0,0,0,1.42l.8,1.38A5.23,5.23,0,0,1,47.59,51a5.34,5.34,0,1,1,5.34,9.25,5.06,5.06,0,0,1-2.53.69l.77,1.34a1.59,1.59,0,0,0,2.15.61L72.12,52a2.33,2.33,0,0,0,0-4L54,37.52a1.62,1.62,0,0,0-2.19.59Z"/><path d="M32.48,48.3a.39.39,0,0,1,.39.39V50.2a.84.84,0,0,1-.36.63,3.3,3.3,0,0,0-1.32,2.64,3.34,3.34,0,1,0,6.67,0,3.3,3.3,0,0,0-1.32-2.64.84.84,0,0,1-.36-.63V48.69a.39.39,0,0,1,.39-.39h5.5a1.42,1.42,0,0,0,1.24-.7l.8-1.38a5.16,5.16,0,0,1-2.53-.68,5.34,5.34,0,1,1,5.34-9.26,5.2,5.2,0,0,1,1.85,1.85l.78-1.33A1.58,1.58,0,0,0,49,34.63L30.21,23.78a2.32,2.32,0,0,0-3.5,2V46.69a1.61,1.61,0,0,0,1.61,1.61Z"/><path d="M46.81,60a.39.39,0,0,1,.14-.53l1.31-.75a.83.83,0,0,1,.72,0,3.33,3.33,0,1,0-2-3.49.82.82,0,0,1-.36.63l-1.31.75a.37.37,0,0,1-.52-.14S43.08,53.51,42,51.65a1.44,1.44,0,0,0-1.22-.72H39.2a5.29,5.29,0,0,1,.67,2.54,5.35,5.35,0,0,1-10.69,0,5.19,5.19,0,0,1,.68-2.54H28.31a1.58,1.58,0,0,0-1.6,1.56v21.7a2.32,2.32,0,0,0,3.47,2L48.3,65.77a1.6,1.6,0,0,0,.59-2.19Z"/></svg>