<svg id="图层_1" data-name="图层 1" xmlns="http://www.w3.org/2000/svg" viewBox="0 0 100 100"><defs><style>.cls-1{fill:#231815;}</style></defs><title>logohunt02</title><path class="cls-1" d="M71,58.46V38.75a4.48,4.48,0,0,1,2.89-4.19H81a4.48,4.48,0,0,0-2.88,4.19V61.42a3.18,3.18,0,0,1-3.19,3.13,3.13,3.13,0,0,1-3.05-2.38L71,58.46"/><path class="cls-1" d="M65.58,65.45a4.54,4.54,0,0,1-2.35-2.9l-4.29-19.5v-4.3a3.14,3.14,0,0,1,6.17-.8l5.45,24.51a4.48,4.48,0,0,0,2.37,3H65.58"/><path class="cls-1" d="M39.74,46.43l-2.25,3.91a.48.48,0,0,0,0,.51l7.39,12.8A1.36,1.36,0,0,1,42.49,65L35.13,52.22a3.23,3.23,0,0,1-.43-1.61A3.14,3.14,0,0,1,35.13,49l2.26-3.91a5.39,5.39,0,0,0-1.86-7.24,5.35,5.35,0,0,0-1.18,1,8.11,8.11,0,0,1-.23,7.62l-1.15,2v4.42l6.25,10.82A1.36,1.36,0,1,1,36.87,65L33,58.25v6.08a1.36,1.36,0,0,1-2.72,0V53.52l-.75-1.3a3.29,3.29,0,0,1,0-3.25l.75-1.29V42.4a8,8,0,0,1,.84-3.59,5.35,5.35,0,0,0-1.18-1,5.38,5.38,0,0,0-2.56,4.58V64.33a1.36,1.36,0,0,1-2.72,0V42.4a8,8,0,0,1,2-5.35,5.36,5.36,0,0,0-4.93,5.35V64.33a1.36,1.36,0,0,1-2.72,0V42.4a8.11,8.11,0,0,1,10.91-7.59,8.15,8.15,0,0,1,5.62,0,8.1,8.1,0,0,1,9.84,11.62l-2.25,3.91a.42.42,0,0,0,0,.51l7.08,12.27a4.41,4.41,0,0,0,.34-1.7V38.75a4.48,4.48,0,0,1,2.88-4.19h7.08a4.49,4.49,0,0,0-2.88,4.19V61.42a4.49,4.49,0,0,1-2.39,4h-5a.88.88,0,0,1-.17.12,1.36,1.36,0,0,1-1.86-.5L40.76,52.22a3.29,3.29,0,0,1,0-3.25L43,45.06a5.36,5.36,0,0,0-4.22-8,8.06,8.06,0,0,1,1,9.38"/></svg>